v -55.0148 -59.6304 1206.38
v -54.2294 -60.2198 1207.23
v -55.1514 -59.7758 1207.25
v -54.6235 -59.8112 1206.13
v -53.6012 -60.3916 1206.97
v -53.5509 -57.0961 1199.25
v -55.4063 -58.5905 1205.95
v -53.002 -60.2774 1207.35
v -53.1983 -59.9283 1207.48
v -51.5754 -55.6041 1194.99
v -50.5953 -55.4353 1195.37
v -52.2078 -59.1234 1205.55
v -52.1613 -59.2223 1207.06
v -50.8967 -56.283 1200.17
v -51.9624 -58.8095 1206.61
v -52.2269 -59.2578 1207.85
v -52.0017 -58.7685 1207.1
v -50.6098 -54.3061 1198.26
v -52.0394 -57.8524 1206.92
v -55.6917 -58.5995 1207.58
v -55.4531 -57.7901 1205.93
v -55.3966 -57.5088 1207.11
v -55.2045 -57.6672 1207.94
v -54.7152 -56.992 1208.17
v -53.5213 -53.9977 1198.05
v -54.6982 -56.5973 1206.25
v -52.8554 -57.7451 1208.25
v -54.2311 -57.3199 1208.21
v -53.4968 -56.9687 1208.45
v -52.8279 -57.266 1208.35
v -54.1283 -56.85 1208.24
v -52.9176 -56.472 1206.59
v -52.3977 -54.3427 1200.86
v -49.9594 -54.6853 1194.35
v -52.2026 -54.0005 1192.73
v -53.4011 -54.3438 1195.86
v -48.3696 -51.9429 1191.03
v -50.5368 -52.6966 1189.55
v -51.3903 -51.6889 1189.74
v -50.0292 -53.7885 1191.28
v -47.756 -51.3161 1188.28
v -48.4165 -50.532 1190.89
v -50.3468 -49.2488 1188.92
v -48.5047 -51.2147 1187.06
v -49.8353 -50.6353 1187.07
v -48.1647 -49.8465 1185.39
v -45.305 -47.5421 1182.78
v -51.1047 -50.5238 1189.46
v -50.1893 -49.8937 1187.29
v -46.0363 -48.1245 1186.61
v -45.9537 -46.8995 1182.22
v -48.3452 -48.0163 1184.71
v -49.5203 -48.6088 1186.59
v -41.9254 -44.0051 1179.54
v -42.433 -43.7188 1178.94
v -44.3563 -43.9925 1180.19
v -42.6417 -44.578 1181.93
v -47.519 -46.4047 1184.38
v -45.2125 -45.8967 1184.8
v -45.7368 -44.7024 1183.34
v -44.833 -43.8467 1180.98
v -37.6395 -39.4697 1175.76
v -38.777 -40.1532 1175.78
v -38.2834 -40.0113 1175.88
v -39.0624 -38.1069 1176.06
v -39.7828 -39.3628 1175.82
v -40.0327 -39.2955 1176.22
v -38.5995 -39.3216 1177.39
v -38.1504 -39.4793 1176.99
v -38.8412 -39.6376 1175.34
v -39.6792 -40.1365 1175.91
v -39.3069 -39.3042 1175.43
v -37.9586 -39.4443 1175.32
v -37.8632 -39.187 1175.65
v -37.6064 -38.705 1176.41
v -38.4493 -38.0663 1176.53
v -39.0222 -38.5082 1175.14
v -38.6532 -38.9322 1175.07
v -38.2484 -38.1296 1176.37
v -45.4482 -46.6507 1181.94
v -44.853 -47.1975 1182.68
v -45.4361 -47.2476 1182.67
v -44.9269 -46.6628 1182.05
v -44.7172 -46.2765 1181.98
v -46.1033 -46.5457 1182.32
v -46.0589 -46.9617 1182.97
v -46.3393 -42.2922 1178.65
v -45.997 -42.4557 1178.32
v -45.7303 -46.3075 1183.59
v -45.0814 -42.6094 1178.25
v -46.3059 -46.3796 1183.11
v -46.3357 -45.7171 1182.13
v -45.8087 -45.5232 1183.24
v -46.1015 -45.3727 1182.85
v -46.2175 -40.7922 1178.41
v -44.3972 -46.3167 1183.12
v -44.7696 -46.3042 1183.55
v -45.0171 -45.9714 1183.85
v -45.0717 -43.4991 1181.25
v -45.317 -45.421 1183.34
v -45.5351 -42.3965 1180.35
v -45.3567 -39.4451 1177.82
v -44.6002 -41.1092 1178.27
v -45.1959 -39.3529 1175.84
v -45.9751 -38.0547 1175.5
v -45.4125 -35.3814 1173.58
v -44.5 -34.3446 1173.29
v -45.3667 -33.8875 1173.89
v -44.6986 -34.1628 1174.03
v -45.0585 -34.6096 1173.02
v -45.6491 -34.2478 1173.39
v -45.5989 -34.8247 1173.48
v -45.3032 -34.3456 1173
v -44.7409 -33.9413 1173.73
v -45.3544 -33.9138 1173.67
v -54.2294 -60.2198 1207.23
v -54.2294 -60.2198 1207.23
v -55.1514 -59.7758 1207.25
v -55.1514 -59.7758 1207.25
v -53.6012 -60.3916 1206.97
v -53.002 -60.2774 1207.35
v -53.002 -60.2774 1207.35
v -52.2269 -59.2578 1207.85
v -52.2269 -59.2578 1207.85
v -50.6098 -54.3061 1198.26
v -55.6917 -58.5995 1207.58
v -55.2045 -57.6672 1207.94
v -54.7152 -56.992 1208.17
v -52.8554 -57.7451 1208.25
v -53.4968 -56.9687 1208.45
v -52.8279 -57.266 1208.35
v -52.8279 -57.266 1208.35
v -52.8279 -57.266 1208.35
v -54.1283 -56.85 1208.24
v -52.3977 -54.3427 1200.86
v -49.9594 -54.6853 1194.35
v -47.756 -51.3161 1188.28
v -48.4165 -50.532 1190.89
v -48.4165 -50.532 1190.89
v -50.3468 -49.2488 1188.92
v -50.3468 -49.2488 1188.92
v -46.0363 -48.1245 1186.61
v -45.9537 -46.8995 1182.22
v -42.6417 -44.578 1181.93
v -45.2125 -45.8967 1184.8
v -45.2125 -45.8967 1184.8
v -37.6395 -39.4697 1175.76
v -39.0624 -38.1069 1176.06
v -38.1504 -39.4793 1176.99
v -37.9586 -39.4443 1175.32
v -37.6064 -38.705 1176.41
v -37.6064 -38.705 1176.41
v -38.4493 -38.0663 1176.53
v -38.4493 -38.0663 1176.53
v -39.0222 -38.5082 1175.14
v -39.0222 -38.5082 1175.14
v -38.6532 -38.9322 1175.07
v -38.2484 -38.1296 1176.37
v -38.2484 -38.1296 1176.37
v -44.853 -47.1975 1182.68
v -44.853 -47.1975 1182.68
v -44.853 -47.1975 1182.68
v -45.4361 -47.2476 1182.67
v -45.4361 -47.2476 1182.67
v -44.9269 -46.6628 1182.05
v -46.0589 -46.9617 1182.97
v -46.0589 -46.9617 1182.97
v -46.0589 -46.9617 1182.97
v -46.3393 -42.2922 1178.65
v -45.7303 -46.3075 1183.59
v -45.7303 -46.3075 1183.59
v -45.0814 -42.6094 1178.25
v -46.3059 -46.3796 1183.11
v -46.2175 -40.7922 1178.41
v -44.3972 -46.3167 1183.12
v -44.3972 -46.3167 1183.12
v -44.3972 -46.3167 1183.12
v -44.7696 -46.3042 1183.55
v -44.7696 -46.3042 1183.55
v -45.0171 -45.9714 1183.85
v -45.0171 -45.9714 1183.85
v -45.3567 -39.4451 1177.82
v -44.6002 -41.1092 1178.27
v -44.6002 -41.1092 1178.27
v -45.1959 -39.3529 1175.84
v -44.5 -34.3446 1173.29
v -44.5 -34.3446 1173.29
v -44.5 -34.3446 1173.29
v -45.3667 -33.8875 1173.89
v -45.3667 -33.8875 1173.89
v -45.3667 -33.8875 1173.89
v -44.6986 -34.1628 1174.03
v -45.0585 -34.6096 1173.02
v -45.0585 -34.6096 1173.02
v -45.6491 -34.2478 1173.39
v -45.3032 -34.3456 1173
v -45.3032 -34.3456 1173
v -44.7409 -33.9413 1173.73
v -44.7409 -33.9413 1173.73
vn -0.668684 -0.694416 -0.265796
vn -0.420521 -0.886516 -0.193008
vn -0.427506 -0.87805 -0.215097
vn -0.408589 -0.866566 -0.286562
vn -0.0864639 -0.938388 -0.334592
vn -0.592967 -0.696769 -0.403613
vn -0.926091 -0.291021 -0.240128
vn -0.0822137 -0.911279 0.403498
vn -0.115981 -0.356372 0.927118
vn -0.0154775 -0.910232 -0.41381
vn 0.58568 -0.784319 -0.204506
vn 0.81036 -0.581172 -0.0745435
vn 0.87247 -0.488615 0.00717738
vn 0.955731 -0.28924 0.0540142
vn 0.942744 -0.329029 0.0545219
vn -0.120275 -0.339153 0.933011
vn 0.977238 -0.136741 0.162198
vn 0.971055 0.0394924 0.235569
vn 0.930317 0.114773 0.348336
vn -0.998677 0.0473632 -0.0200462
vn -0.980482 0.161392 -0.112286
vn -0.865611 0.484628 0.125912
vn -0.858234 0.430105 0.28008
vn -0.585798 0.779517 0.221798
vn -0.794136 0.605557 0.0514635
vn -0.572355 0.802596 0.168074
vn -0.0660785 -0.284006 0.956543
vn -0.187013 -0.17024 0.967494
vn -0.137185 -0.214382 0.967068
vn 0.054025 -0.206946 0.97686
vn -0.212382 -0.0225677 0.976926
vn 0.445758 0.824663 0.348181
vn 0.0219973 0.938047 0.34581
vn 0.631603 -0.757943 -0.163098
vn -0.670204 -0.566646 -0.479311
vn -0.965927 -0.0209863 -0.257962
vn 0.944139 -0.206855 0.256539
vn -0.368163 -0.721591 -0.586313
vn -0.869895 -0.173267 -0.461801
vn 0.224639 -0.886589 -0.404348
vn 0.509212 -0.807384 -0.29805
vn 0.692082 0.53765 0.481617
vn 0.0517708 0.859232 0.50896
vn 0.139906 -0.839122 -0.525643
vn -0.650598 -0.38266 -0.655968
vn -0.319684 -0.617919 -0.718316
vn 0.20081 -0.79163 -0.577059
vn -0.921789 0.32852 -0.205865
vn -0.87611 0.0548701 -0.478978
vn 0.780375 0.186421 0.596877
vn -0.595526 -0.257428 -0.760972
vn -0.788436 0.019197 -0.614817
vn -0.871374 0.385437 -0.303554
vn 0.547378 -0.776464 -0.31222
vn -0.12599 -0.610893 -0.781624
vn -0.686978 -0.0409262 -0.725524
vn 0.847869 -0.464297 0.256019
vn -0.787737 0.595298 -0.158397
vn 0.744016 0.161622 0.64832
vn -0.331717 0.840865 0.427679
vn -0.821822 0.441342 -0.360314
vn 0.778574 -0.627135 0.0228907
vn 0.206474 -0.730518 -0.650932
vn 0.458064 -0.769279 -0.445407
vn -0.694428 0.719272 -0.0204514
vn -0.727857 0.0925739 -0.679451
vn -0.802132 0.413148 -0.431154
vn 0.612187 0.269478 0.743376
vn 0.857295 -0.375001 0.352731
vn -0.150492 -0.467721 -0.87097
vn -0.432469 -0.337511 -0.836096
vn -0.497534 -0.193514 -0.845584
vn 0.27604 -0.652641 -0.705593
vn 0.684544 0.476507 -0.55167
vn 0.63295 0.547296 -0.547578
vn 0.523812 0.438344 0.730394
vn -0.70598 0.165053 -0.68873
vn -0.236041 -0.277342 -0.931325
vn 0.537316 0.4518 0.712157
vn -0.128849 -0.720545 -0.681332
vn 0.0973907 -0.762721 -0.639352
vn 0.0771944 -0.772468 -0.630344
vn 0.126724 -0.714608 -0.687951
vn 0.845939 -0.36286 -0.390794
vn -0.739892 -0.525621 -0.419861
vn -0.538973 -0.725987 -0.427144
vn -0.788493 -0.393447 -0.472735
vn -0.468022 -0.54996 -0.691737
vn 0.0349777 -0.685187 0.727527
vn 0.828846 -0.345499 -0.440051
vn -0.962249 0.0506695 0.267414
vn -0.990495 -0.11284 -0.0786556
vn -0.474987 0.494229 0.728097
vn -0.742479 0.399567 0.537654
vn -0.423921 0.595888 0.682062
vn 0.923 -0.275796 -0.268342
vn 0.6054 -0.583604 0.541201
vn 0.755247 -0.0284676 0.654822
vn 0.480002 0.610058 0.630418
vn -0.154386 0.658302 0.736752
vn -0.101656 0.687189 0.719331
vn 0.226324 0.602836 0.765092
vn 0.884171 -0.278928 -0.374754
vn -0.330449 -0.510012 -0.794161
vn -0.824696 -0.2579 -0.503353
vn -0.47787 -0.415631 -0.77388
vn 0.70082 -0.398901 -0.591379
vn -0.0151336 0.666784 0.745097
vn 0.285721 0.62968 0.722403
vn 0.551244 -0.438507 -0.709818
vn -0.979081 0.0219933 -0.202278
vn -0.75068 -0.249048 -0.611927
vn -0.599447 -0.311975 -0.737113
vn 0.21222 0.800259 0.560846
vn -0.249705 0.901682 -0.353012
vn -0.0822137 -0.911279 0.403498
vn -0.121048 -0.357529 0.926024
vn -0.898719 -0.396989 -0.186293
vn -0.133305 -0.316763 0.93909
vn -0.0822137 -0.911279 0.403498
vn -0.0975245 -0.388976 0.916071
vn 0.60198 -0.781816 -0.162431
vn 0.87448 -0.482396 0.0507817
vn 0.890725 0.16208 0.424664
vn 0.559401 0.728731 0.394997
vn -0.106167 -0.313461 0.943648
vn -0.148079 -0.269663 0.951501
vn -0.15173 -0.113992 0.981827
vn 0.853006 0.0303195 0.521019
vn 0.299888 0.886566 0.352232
vn 0.449953 0.82209 0.348869
vn 0.835925 -0.157683 0.525705
vn 0.860429 0.405902 0.308067
vn -0.0967045 0.94904 0.299953
vn 0.174726 0.89452 0.411466
vn 0.959476 -0.233962 0.15706
vn 0.894357 -0.398578 0.203128
vn 0.0513476 0.834944 0.547935
vn 0.884463 0.088479 0.458144
vn -0.451026 0.846299 0.283466
vn -0.813892 0.575629 -0.0789404
vn 0.898291 -0.335552 0.283686
vn -0.0742135 -0.69098 -0.719055
vn 0.687848 0.153514 0.709436
vn -0.016367 0.771046 0.636569
vn 0.388506 0.489167 0.780883
vn 0.759105 0.394619 -0.517722
vn 0.145194 0.938731 -0.312573
vn 0.679215 0.0880875 0.728634
vn 0.684733 0.462812 -0.562979
vn 0.868982 -0.341792 0.357839
vn 0.566196 0.305917 0.7654
vn -0.231399 0.808848 0.540574
vn 0.116531 0.964893 -0.235376
vn 0.578423 0.600869 -0.551709
vn 0.172774 0.905562 -0.387437
vn 0.594128 0.567075 -0.570472
vn 0.145194 0.938731 -0.312573
vn 0.576578 0.605114 -0.548995
vn 0.826364 -0.413354 -0.382442
vn 0.0395449 -0.695002 0.71792
vn 0.6054 -0.583604 0.541201
vn -0.491334 -0.71548 -0.496668
vn 0.0370871 -0.69296 0.720022
vn 0.713997 -0.47729 -0.512252
vn 0.0271724 -0.694779 0.71871
vn -0.921792 -0.352132 -0.162182
vn -0.553531 -0.409336 0.725292
vn -0.995213 0.0875816 0.0433566
vn -0.553531 -0.409336 0.725292
vn -0.549466 0.291881 0.782875
vn -0.0637084 -0.647525 -0.759377
vn -0.553531 -0.409336 0.725292
vn -0.979436 0.155138 0.128987
vn 0.6054 -0.583604 0.541201
vn 0.755247 -0.0284676 0.654822
vn 0.715157 0.492581 0.495897
vn 0.0328633 -0.677328 0.734946
vn 0.755247 -0.0284676 0.654822
vn 0.11653 0.626601 0.770579
vn 0.033609 -0.655182 0.754723
vn 0.0641733 0.646928 0.759846
vn 0.654747 0.460991 0.598993
vn 0.96357 0.149257 0.221936
vn 0.764733 -0.359343 -0.534841
vn 0.945278 0.266501 0.188223
vn 0.329757 0.236341 -0.914004
vn 0.213547 0.775569 -0.594045
vn -0.906538 0.303736 0.293145
vn -0.690278 0.712871 -0.123821
vn 0.0557341 0.991748 -0.115452
vn 0.945278 0.266501 0.188223
vn -0.3183 -0.455765 -0.831242
vn 0.329757 0.236341 -0.914004
vn -0.549762 0.765457 -0.33442
vn 0.329757 0.236341 -0.914004
vn -0.0238094 0.821673 -0.569461
vn 0.123368 0.89564 -0.427327
vn 0.912601 0.379689 0.151644
g grp1
usemtl mtl1
f 1//1 2//2 3//3 
f 2//2 1//1 4//4 
f 4//4 5//5 2//2 
f 5//5 4//4 6//6 
f 6//6 4//4 1//1 
f 6//6 1//1 7//7 
f 118//118 7//7 1//1 
f 116//116 120//120 8//8 
f 117//117 121//121 9//9 
f 119//119 117//117 9//9 
f 122//122 5//5 10//10 
f 11//11 12//12 122//122 
f 12//12 13//13 122//122 
f 12//12 14//14 13//13 
f 13//13 14//14 15//15 
f 16//16 119//119 9//9 
f 16//16 9//9 121//121 
f 122//122 13//13 123//123 
f 15//15 17//17 13//13 
f 17//17 123//123 13//13 
f 15//15 14//14 17//17 
f 18//18 19//19 14//14 
f 20//20 7//7 118//118 
f 20//20 21//21 7//7 
f 21//21 20//20 22//22 
f 23//23 22//22 20//20 
f 24//24 22//22 23//23 
f 21//21 22//22 25//25 
f 25//25 22//22 26//26 
f 26//26 22//22 24//24 
f 119//119 16//16 27//27 
f 126//126 119//119 127//127 
f 28//28 127//127 119//119 
f 119//119 27//27 29//29 
f 27//27 30//30 29//29 
f 28//28 119//119 29//29 
f 28//28 128//128 127//127 
f 31//31 128//128 28//28 
f 28//28 29//29 31//31 
f 32//32 130//130 131//131 
f 24//24 134//134 33//33 
f 33//33 26//26 24//24 
f 19//19 17//17 14//14 
f 19//19 124//124 17//17 
f 129//129 124//124 19//19 
f 129//129 19//19 132//132 
f 19//19 18//18 133//133 
f 11//11 14//14 12//12 
f 10//10 11//11 122//122 
f 32//32 131//131 125//125 
f 130//130 32//32 33//33 
f 33//33 134//134 130//130 
f 6//6 10//10 5//5 
f 11//11 34//34 14//14 
f 33//33 25//25 26//26 
f 10//10 6//6 35//35 
f 35//35 6//6 36//36 
f 37//37 18//18 136//136 
f 21//21 36//36 7//7 
f 36//36 6//6 7//7 
f 21//21 25//25 36//36 
f 136//136 18//18 14//14 
f 32//32 125//125 33//33 
f 10//10 35//35 38//38 
f 35//35 36//36 39//39 
f 11//11 10//10 40//40 
f 41//41 34//34 11//11 
f 40//40 10//10 38//38 
f 42//42 33//33 125//125 
f 138//138 43//43 135//135 
f 38//38 44//44 40//40 
f 35//35 39//39 38//38 
f 41//41 11//11 40//40 
f 137//137 37//37 136//136 
f 37//37 139//139 18//18 
f 45//45 46//46 38//38 
f 40//40 44//44 41//41 
f 47//47 41//41 44//44 
f 38//38 46//46 44//44 
f 25//25 48//48 36//36 
f 36//36 48//48 39//39 
f 38//38 39//39 45//45 
f 49//49 45//45 39//39 
f 39//39 48//48 49//49 
f 50//50 139//139 37//37 
f 140//140 25//25 33//33 
f 51//51 46//46 52//52 
f 45//45 49//49 52//52 
f 48//48 53//53 49//49 
f 41//41 47//47 54//54 
f 44//44 46//46 47//47 
f 45//45 52//52 46//46 
f 53//53 48//48 141//141 
f 37//37 137//137 142//142 
f 48//48 25//25 141//141 
f 47//47 46//46 143//143 
f 143//143 55//55 47//47 
f 56//56 51//51 52//52 
f 54//54 57//57 137//137 
f 49//49 53//53 52//52 
f 53//53 141//141 58//58 
f 137//137 57//57 142//142 
f 59//59 139//139 50//50 
f 60//60 43//43 138//138 
f 56//56 55//55 51//51 
f 52//52 61//61 56//56 
f 54//54 47//47 55//55 
f 57//57 54//54 62//62 
f 58//58 52//52 53//53 
f 58//58 61//61 52//52 
f 58//58 141//141 60//60 
f 144//144 59//59 50//50 
f 63//63 64//64 54//54 
f 58//58 65//65 61//61 
f 55//55 63//63 54//54 
f 145//145 60//60 138//138 
f 66//66 56//56 67//67 
f 64//64 62//62 54//54 
f 61//61 67//67 56//56 
f 61//61 65//65 67//67 
f 144//144 68//68 59//59 
f 57//57 62//62 69//69 
f 55//55 70//70 63//63 
f 70//70 55//55 71//71 
f 71//71 55//55 56//56 
f 71//71 56//56 72//72 
f 56//56 66//66 72//72 
f 63//63 73//73 64//64 
f 64//64 73//73 62//62 
f 147//147 74//74 75//75 
f 151//151 69//69 62//62 
f 70//70 73//73 63//63 
f 150//150 74//74 147//147 
f 76//76 146//146 68//68 
f 60//60 145//145 153//153 
f 65//65 58//58 60//60 
f 149//149 68//68 144//144 
f 152//152 68//68 149//149 
f 67//67 77//77 66//66 
f 72//72 70//70 71//71 
f 78//78 73//73 70//70 
f 150//150 157//157 74//74 
f 75//75 74//74 157//157 
f 78//78 70//70 72//72 
f 66//66 77//77 72//72 
f 157//157 155//155 75//75 
f 67//67 65//65 77//77 
f 72//72 77//77 78//78 
f 65//65 60//60 153//153 
f 79//79 76//76 68//68 
f 79//79 68//68 152//152 
f 156//156 148//148 158//158 
f 75//75 155//155 159//159 
f 148//148 154//154 158//158 
f 80//80 81//81 82//82 
f 80//80 83//83 81//81 
f 165//165 84//84 160//160 
f 85//85 163//163 86//86 
f 85//85 87//87 88//88 
f 85//85 80//80 163//163 
f 164//164 89//89 166//166 
f 161//161 89//89 164//164 
f 90//90 84//84 165//165 
f 80//80 172//172 83//83 
f 167//167 91//91 85//85 
f 173//173 168//168 170//170 
f 92//92 87//87 85//85 
f 92//92 85//85 91//91 
f 91//91 171//171 93//93 
f 94//94 91//91 93//93 
f 95//95 94//94 93//93 
f 84//84 96//96 160//160 
f 97//97 162//162 175//175 
f 178//178 89//89 161//161 
f 179//179 176//176 98//98 
f 93//93 171//171 180//180 
f 89//89 178//178 181//181 
f 177//177 99//99 180//180 
f 93//93 180//180 100//100 
f 101//101 100//100 180//180 
f 93//93 100//100 101//101 
f 95//95 93//93 101//101 
f 174//174 91//91 94//94 
f 174//174 169//169 92//92 
f 174//174 92//92 91//91 
f 99//99 101//101 180//180 
f 88//88 80//80 85//85 
f 80//80 88//88 172//172 
f 177//177 102//102 99//99 
f 103//103 96//96 84//84 
f 182//182 101//101 99//99 
f 88//88 104//104 172//172 
f 185//185 103//103 90//90 
f 87//87 105//105 88//88 
f 105//105 169//169 174//174 
f 102//102 177//177 183//183 
f 90//90 103//103 84//84 
f 104//104 88//88 105//105 
f 95//95 101//101 102//102 
f 104//104 105//105 106//106 
f 185//185 107//107 103//103 
f 108//108 95//95 102//102 
f 183//183 109//109 102//102 
f 108//108 102//102 109//109 
f 186//186 192//192 184//184 
f 185//185 110//110 107//107 
f 106//106 193//193 104//104 
f 111//111 174//174 189//189 
f 112//112 106//106 105//105 
f 106//106 112//112 113//113 
f 106//106 113//113 193//193 
f 196//196 187//187 194//194 
f 112//112 105//105 111//111 
f 111//111 105//105 174//174 
f 113//113 112//112 111//111 
f 109//109 114//114 108//108 
f 195//195 115//115 197//197 
f 197//197 115//115 198//198 
f 195//195 190//190 115//115 
f 198//198 115//115 191//191 
f 197//197 198//198 188//188 
f 192//192 186//186 199//199 
