v 87.4166 -184.052 -64.7349
v 87.8065 -184.332 -64.5872
v 87.5244 -184.072 -64.3925
v 88.3514 -184.407 -64.3503
v 88.5915 -184.606 -64.5554
v 87.7729 -183.905 -65.5956
v 88.4133 -184.488 -65.3165
v 89.2928 -184.598 -65.1587
v 90.2712 -183.777 -64.2066
v 91.3337 -183.824 -65.6477
v 89.0638 -184.082 -66.6324
v 86.8205 -183.671 -64.4125
v 86.3891 -182.698 -64.3035
v 86.4863 -182.573 -64.9624
v 86.0078 -179.516 -63.6904
v 85.909 -181.122 -64.2801
v 88.5184 -182.461 -67.3587
v 86.2441 -178.132 -64.0193
v 86.5431 -180.425 -65.5568
v 90.1204 -184.275 -66.3959
v 89.7662 -184.215 -66.7084
v 89.7036 -183.495 -67.4097
v 90.5249 -183.866 -66.9149
v 90.6028 -182.964 -67.6229
v 89.685 -182.249 -67.9491
v 91.4753 -182.884 -67.1193
v 92.5345 -182.551 -65.0777
v 92.609 -182.278 -64.6275
v 92.7613 -179.422 -64.282
v 88.2451 -180.646 -67.2447
v 86.8125 -179.013 -65.5165
v 89.3177 -180.94 -67.8201
v 88.4948 -177.296 -66.0723
v 87.4099 -176.522 -64.5872
v 86.7152 -176.937 -62.6446
v 89.4684 -176.7 -61.5882
v 90.9489 -176.457 -62.1212
v 86.3302 -177.104 -62.9662
v 87.641 -176.184 -62.5888
v 87.9264 -175.825 -63.694
v 89.189 -176.332 -61.4658
v 89.2128 -175.621 -62.9413
v 90.7318 -181.776 -67.7735
v 92.3919 -180.717 -66.3598
v 90.4439 -178.974 -67.1851
v 91.5409 -178.077 -66.2036
v 90.4281 -176.577 -65.5219
v 91.8879 -177.385 -64.7098
v 88.5346 -176.114 -65.1342
v 89.9799 -175.823 -64.2606
v 98.5337 -183.627 -65.6913
v 97.1817 -183.243 -64.8216
v 95.4847 -182.809 -65.82
v 97.9823 -180.839 -68.0364
v 94.201 -178.656 -66.9624
v 100.332 -181.886 -63.8014
v 94.4123 -178.871 -64.6773
v 99.3914 -180.846 -63.6591
v 101.587 -179.631 -67.7536
v 96.5842 -173.205 -62.2715
v 97.1043 -177.073 -68.8178
v 95.429 -174.52 -67.5579
v 93.3712 -175.672 -63.6568
v 94.4675 -173.353 -61.993
v 94.1215 -172.631 -63.2958
v 94.8706 -171.901 -61.9913
v 99.7077 -177.276 -68.8631
v 97.0161 -175.348 -68.7709
v 94.619 -172.548 -65.5669
v 95.5281 -170.956 -64.0828
v 96.2805 -170.944 -65.7209
v 95.5412 -171.479 -62.107
v 95.4026 -171.244 -62.6395
v 96.5709 -171.29 -62.5939
v 96.1143 -170.754 -63.511
v 97.5314 -170.617 -65.3659
v 101.133 -173.936 -64.4914
v 98.3158 -175.377 -68.9608
v 101.468 -175.593 -67.1728
v 99.418 -173.711 -68.1891
v 97.5782 -173.335 -68.2664
v 98.3349 -172.248 -67.7414
v 99.4653 -172.028 -63.8969
v 100.425 -172.33 -65.8139
v 100.169 -171.996 -64.8496
v 100.156 -172.441 -66.8844
v 96.6776 -171.752 -67.0707
v 98.0445 -170.856 -66.2887
v 98.1983 -171.388 -67.0546
v 99.2297 -171.595 -66.8968
v 99.3917 -171.368 -64.726
v 97.6798 -170.788 -64.2551
v 98.8181 -170.874 -65.7779
v 99.8669 -171.525 -65.6976
v 87.5244 -184.072 -64.3925
v 88.3514 -184.407 -64.3503
v 88.3514 -184.407 -64.3503
v 88.5915 -184.606 -64.5554
v 88.5915 -184.606 -64.5554
v 90.2712 -183.777 -64.2066
v 86.8205 -183.671 -64.4125
v 86.8205 -183.671 -64.4125
v 86.3891 -182.698 -64.3035
v 86.3891 -182.698 -64.3035
v 86.0078 -179.516 -63.6904
v 86.0078 -179.516 -63.6904
v 86.0078 -179.516 -63.6904
v 86.0078 -179.516 -63.6904
v 85.909 -181.122 -64.2801
v 92.5345 -182.551 -65.0777
v 92.609 -182.278 -64.6275
v 92.609 -182.278 -64.6275
v 92.7613 -179.422 -64.282
v 92.7613 -179.422 -64.282
v 92.7613 -179.422 -64.282
v 86.7152 -176.937 -62.6446
v 89.4684 -176.7 -61.5882
v 90.9489 -176.457 -62.1212
v 86.3302 -177.104 -62.9662
v 89.189 -176.332 -61.4658
v 89.189 -176.332 -61.4658
v 89.189 -176.332 -61.4658
v 89.9799 -175.823 -64.2606
v 98.5337 -183.627 -65.6913
v 98.5337 -183.627 -65.6913
v 98.5337 -183.627 -65.6913
v 97.1817 -183.243 -64.8216
v 97.1817 -183.243 -64.8216
v 95.4847 -182.809 -65.82
v 95.4847 -182.809 -65.82
v 95.4847 -182.809 -65.82
v 94.201 -178.656 -66.9624
v 94.201 -178.656 -66.9624
v 100.332 -181.886 -63.8014
v 100.332 -181.886 -63.8014
v 100.332 -181.886 -63.8014
v 100.332 -181.886 -63.8014
v 94.4123 -178.871 -64.6773
v 94.4123 -178.871 -64.6773
v 94.4123 -178.871 -64.6773
v 101.587 -179.631 -67.7536
v 101.587 -179.631 -67.7536
v 101.587 -179.631 -67.7536
v 96.5842 -173.205 -62.2715
v 93.3712 -175.672 -63.6568
v 93.3712 -175.672 -63.6568
v 93.3712 -175.672 -63.6568
v 94.4675 -173.353 -61.993
v 94.4675 -173.353 -61.993
v 94.1215 -172.631 -63.2958
v 94.8706 -171.901 -61.9913
v 94.8706 -171.901 -61.9913
v 94.8706 -171.901 -61.9913
v 95.5412 -171.479 -62.107
v 95.4026 -171.244 -62.6395
v 96.5709 -171.29 -62.5939
v 101.133 -173.936 -64.4914
v 99.4653 -172.028 -63.8969
vn -0.571954 -0.811729 -0.118169
vn -0.468672 -0.879999 0.0771251
vn -0.495696 -0.824941 0.271584
vn -0.325122 -0.805431 0.495557
vn -0.309783 -0.837457 0.450222
vn -0.608394 -0.636949 -0.473448
vn -0.316432 -0.910025 -0.267815
vn 0.117214 -0.992239 -0.0415064
vn 0.409939 -0.782198 0.469166
vn 0.567159 -0.822769 -0.0371792
vn -0.350224 -0.753745 -0.556067
vn -0.772596 -0.518063 -0.367024
vn -0.0713312 -0.168341 0.983144
vn -0.837788 -0.306278 -0.452001
vn 0.00418392 -0.116139 0.993224
vn -0.947472 -0.0348265 -0.317936
vn -0.579558 -0.259433 -0.772533
vn -0.910871 0.242837 -0.333682
vn -0.818215 0.0228824 -0.574456
vn 0.291888 -0.922619 -0.252143
vn 0.00148382 -0.865215 -0.5014
vn -0.122769 -0.566064 -0.815168
vn 0.36778 -0.73526 -0.569325
vn 0.287806 -0.396354 -0.871821
vn -0.0971034 -0.175786 -0.979628
vn 0.689854 -0.399329 -0.603853
vn 0.550747 -0.733609 0.398116
vn 0.548242 -0.752376 0.365186
vn 0.172452 -0.081611 0.981631
vn -0.576024 0.146097 -0.804271
vn -0.719917 0.288843 -0.631102
vn -0.210868 0.177955 -0.96118
vn -0.335837 0.472247 -0.814983
vn -0.66728 0.571661 -0.477432
vn -0.405219 -0.31367 0.858725
vn -0.301689 -0.384367 0.872494
vn 0.362419 -0.223327 0.904863
vn -0.788419 0.614067 -0.0362827
vn -0.453376 0.805753 0.381068
vn -0.373887 0.921288 -0.106941
vn -0.467588 0.521973 0.713376
vn 0.0136501 0.977498 0.210504
vn 0.381047 0.0438254 -0.923516
vn 0.821465 0.121328 -0.557203
vn 0.236649 0.382352 -0.893199
vn 0.613239 0.463502 -0.639612
vn 0.279155 0.718858 -0.636644
vn 0.788815 0.571628 -0.225859
vn -0.202089 0.818687 -0.537505
vn 0.541485 0.837347 -0.0751226
vn -0.259929 -0.965373 0.0221717
vn -0.259929 -0.965373 0.0221717
vn -0.259929 -0.965373 0.0221717
vn -0.10449 -0.421939 -0.900583
vn -0.476505 -0.20109 -0.855865
vn 0.152134 -0.794833 0.587449
vn -0.447826 -0.311351 0.83816
vn -0.161079 -0.250639 0.954586
vn 0.219765 -0.453653 -0.863656
vn -0.218393 -0.238119 0.946364
vn -0.307729 -0.0865798 -0.947527
vn -0.67071 0.210583 -0.711199
vn -0.943932 -0.325245 0.0566499
vn -0.410231 -0.39561 0.821707
vn -0.907016 0.216762 0.361023
vn 0.149588 -0.015842 0.988621
vn 0.292572 -0.00932252 -0.956198
vn -0.348681 0.160819 -0.923341
vn -0.796475 0.453168 -0.400332
vn -0.546629 0.833588 -0.0795482
vn -0.39674 0.835342 -0.380528
vn -0.203471 0.875045 0.4392
vn -0.130238 0.877176 0.462169
vn 0.418423 0.153589 0.895172
vn -0.0746789 0.970511 0.229198
vn -0.0256522 0.99676 -0.0762291
vn 0.94908 0.25021 0.19142
vn 0.0311594 0.161719 -0.986345
vn 0.851852 0.256309 -0.456787
vn 0.384142 0.361227 -0.849676
vn -0.173093 0.380777 -0.908322
vn 0.0828413 0.542731 -0.835811
vn 0.444332 0.135296 0.885587
vn 0.875059 0.472803 -0.103582
vn 0.757304 0.595517 0.268049
vn 0.707405 0.515623 -0.483437
vn -0.361704 0.606286 -0.708228
vn 0.0238891 0.893993 -0.447443
vn 0.0421902 0.733221 -0.678681
vn 0.408292 0.70628 -0.57833
vn 0.502164 0.792357 0.346414
vn 0.265348 0.921323 0.284173
vn 0.361786 0.928634 -0.0821535
vn 0.674951 0.72994 -0.107837
vn -0.0626227 -0.0451428 0.997016
vn 0.145313 -0.619378 0.771528
vn -0.0640077 -0.0324925 0.99742
vn -0.214054 -0.971735 -0.099557
vn 0.251509 -0.761424 0.597475
vn 0.0126867 -0.0991516 0.994991
vn -0.494493 -0.862739 0.105629
vn -0.0622824 -0.09835 0.993201
vn -0.922475 -0.330814 -0.199
vn -0.676945 -0.216663 0.703422
vn -0.676945 -0.216663 0.703422
vn -0.982758 0.138702 -0.122263
vn -0.4632 -0.220965 0.858266
vn 0.0750601 -0.654086 0.752687
vn -0.676945 -0.216663 0.703422
vn 0.937665 -0.226628 -0.263483
vn 0.255552 -0.129531 0.958079
vn 0.98922 -0.0355659 -0.142053
vn 0.972228 0.0811878 -0.219501
vn 0.226161 -0.533175 0.815215
vn 0.89147 0.418621 0.173312
vn -0.548609 0.634033 0.545005
vn 0.274701 -0.381047 0.882804
vn 0.572678 0.801696 0.171242
vn -0.591673 -0.15825 0.790494
vn -0.276392 -0.485676 0.829293
vn 0.345484 -0.0493903 0.937124
vn 0.000123352 0.900916 0.433993
vn 0.000507854 0.954728 -0.297479
vn 0.0583042 -0.635816 -0.769635
vn 0.152134 -0.794833 0.587449
vn 0.755522 -0.642732 -0.126812
vn 0.152134 -0.794833 0.587449
vn -0.326633 -0.294148 0.898214
vn -0.299905 -0.519752 -0.799947
vn -0.539637 -0.366858 0.757765
vn -0.958251 -0.279055 0.0623238
vn -0.951373 -0.302239 0.0595045
vn -0.889361 0.205257 -0.408542
vn -0.130495 -0.249355 0.95958
vn 0.755522 -0.642732 -0.126812
vn 0.961899 -0.074074 0.263181
vn 0.44264 0.0331756 0.896086
vn -0.951373 -0.302239 0.0595045
vn -0.410231 -0.39561 0.821707
vn 0.147208 -0.43386 0.888873
vn 0.755522 -0.642732 -0.126812
vn 0.981207 -0.0308861 0.190472
vn 0.619512 0.129615 -0.774213
vn 0.320328 -0.00101592 0.947306
vn -0.917125 0.183576 -0.353811
vn -0.410231 -0.39561 0.821707
vn -0.919303 0.185616 0.347028
vn 0.143104 -0.241056 0.959903
vn -0.907016 0.216762 0.361023
vn -0.828677 0.55676 -0.0575613
vn -0.893534 0.247621 0.374541
vn -0.416458 0.786727 0.455657
vn -0.746967 0.662301 0.0582856
vn 0.285493 0.0815033 0.954909
vn -0.656499 0.749003 0.0894626
vn 0.219426 0.849998 0.478911
vn 0.447131 0.0758316 0.891248
vn 0.587534 0.61824 0.522095
g grp1
usemtl mtl1
f 1//1 2//2 3//3 
f 4//4 2//2 5//5 
f 2//2 4//4 3//3 
f 2//2 1//1 6//6 
f 98//98 7//7 8//8 
f 9//9 99//99 8//8 
f 99//99 9//9 96//96 
f 7//7 2//2 6//6 
f 7//7 98//98 2//2 
f 95//95 97//97 100//100 
f 10//10 9//9 8//8 
f 11//11 7//7 6//6 
f 8//8 7//7 11//11 
f 6//6 1//1 12//12 
f 101//101 1//1 3//3 
f 102//102 100//100 13//13 
f 14//14 6//6 12//12 
f 12//12 103//103 14//14 
f 100//100 15//15 13//13 
f 100//100 102//102 95//95 
f 14//14 103//103 16//16 
f 14//14 17//17 6//6 
f 104//104 105//105 109//109 
f 18//18 16//16 106//106 
f 19//19 16//16 18//18 
f 10//10 8//8 20//20 
f 21//21 8//8 11//11 
f 20//20 8//8 21//21 
f 11//11 6//6 17//17 
f 11//11 17//17 22//22 
f 11//11 22//22 21//21 
f 21//21 22//22 23//23 
f 21//21 23//23 20//20 
f 23//23 10//10 20//20 
f 23//23 22//22 24//24 
f 22//22 25//25 24//24 
f 25//25 22//22 17//17 
f 26//26 10//10 23//23 
f 23//23 24//24 26//26 
f 9//9 10//10 27//27 
f 28//28 9//9 27//27 
f 29//29 100//100 111//111 
f 110//110 113//113 112//112 
f 17//17 14//14 19//19 
f 30//30 17//17 19//19 
f 30//30 19//19 31//31 
f 32//32 17//17 30//30 
f 15//15 100//100 29//29 
f 14//14 16//16 19//19 
f 19//19 18//18 31//31 
f 33//33 31//31 34//34 
f 35//35 107//107 36//36 
f 114//114 117//117 108//108 
f 114//114 37//37 117//117 
f 18//18 34//34 31//31 
f 38//38 18//18 106//106 
f 119//119 107//107 35//35 
f 38//38 34//34 18//18 
f 116//116 39//39 38//38 
f 38//38 39//39 40//40 
f 34//34 38//38 40//40 
f 41//41 39//39 116//116 
f 36//36 120//120 35//35 
f 37//37 121//121 117//117 
f 122//122 42//42 39//39 
f 118//118 42//42 122//122 
f 24//24 43//43 26//26 
f 43//43 24//24 25//25 
f 44//44 43//43 45//45 
f 110//110 10//10 26//26 
f 44//44 26//26 43//43 
f 110//110 26//26 44//44 
f 43//43 25//25 32//32 
f 32//32 25//25 17//17 
f 33//33 32//32 30//30 
f 31//31 33//33 30//30 
f 45//45 32//32 33//33 
f 43//43 32//32 45//45 
f 44//44 45//45 46//46 
f 46//46 45//45 47//47 
f 110//110 44//44 113//113 
f 44//44 46//46 48//48 
f 44//44 48//48 113//113 
f 47//47 45//45 33//33 
f 33//33 49//49 47//47 
f 50//50 118//118 48//48 
f 123//123 47//47 49//49 
f 48//48 47//47 50//50 
f 46//46 47//47 48//48 
f 115//115 48//48 118//118 
f 33//33 34//34 49//49 
f 34//34 40//40 49//49 
f 42//42 40//40 39//39 
f 40//40 42//42 123//123 
f 118//118 50//50 42//42 
f 40//40 123//123 49//49 
f 51//51 52//52 53//53 
f 54//54 129//129 55//55 
f 124//124 129//129 54//54 
f 127//127 125//125 56//56 
f 57//57 130//130 128//128 
f 58//58 128//128 134//134 
f 124//124 54//54 59//59 
f 134//134 60//60 58//58 
f 58//58 60//60 128//128 
f 138//138 132//132 131//131 
f 61//61 54//54 55//55 
f 62//62 61//61 55//55 
f 60//60 57//57 128//128 
f 132//132 138//138 63//63 
f 62//62 133//133 145//145 
f 146//146 139//139 64//64 
f 144//144 148//148 140//140 
f 147//147 149//149 65//65 
f 66//66 148//148 144//144 
f 65//65 149//149 151//151 
f 135//135 126//126 141//141 
f 67//67 59//59 54//54 
f 61//61 67//67 54//54 
f 68//68 61//61 62//62 
f 62//62 145//145 69//69 
f 69//69 145//145 150//150 
f 70//70 71//71 69//69 
f 69//69 150//150 70//70 
f 152//152 72//72 73//73 
f 154//154 66//66 144//144 
f 70//70 150//150 155//155 
f 150//150 153//153 155//155 
f 144//144 74//74 154//154 
f 156//156 73//73 72//72 
f 70//70 155//155 75//75 
f 75//75 73//73 156//156 
f 70//70 76//76 71//71 
f 75//75 76//76 70//70 
f 136//136 142//142 77//77 
f 61//61 78//78 67//67 
f 79//79 143//143 67//67 
f 78//78 80//80 67//67 
f 67//67 80//80 79//79 
f 77//77 142//142 79//79 
f 157//157 144//144 137//137 
f 68//68 78//78 61//61 
f 78//78 68//68 81//81 
f 81//81 68//68 62//62 
f 81//81 80//80 78//78 
f 82//82 80//80 81//81 
f 157//157 83//83 144//144 
f 79//79 84//84 77//77 
f 85//85 77//77 84//84 
f 158//158 77//77 85//85 
f 86//86 84//84 79//79 
f 69//69 87//87 62//62 
f 71//71 87//87 69//69 
f 71//71 76//76 88//88 
f 87//87 71//71 88//88 
f 87//87 88//88 89//89 
f 81//81 87//87 82//82 
f 62//62 87//87 81//81 
f 82//82 87//87 89//89 
f 90//90 89//89 88//88 
f 82//82 90//90 80//80 
f 82//82 89//89 90//90 
f 74//74 144//144 83//83 
f 91//91 92//92 156//156 
f 158//158 91//91 156//156 
f 76//76 92//92 93//93 
f 85//85 91//91 158//158 
f 91//91 93//93 92//92 
f 91//91 85//85 94//94 
f 84//84 94//94 85//85 
f 93//93 88//88 76//76 
f 94//94 90//90 93//93 
f 93//93 91//91 94//94 
f 93//93 90//90 88//88 
f 76//76 75//75 92//92 
f 92//92 75//75 156//156 
f 79//79 80//80 86//86 
f 84//84 86//86 94//94 
f 86//86 80//80 90//90 
f 90//90 94//94 86//86 
