v -17.6853 -92.0935 1407.71
v -19.0664 -94.0163 1406.99
v -18.4886 -92.7334 1407.4
v -19.0017 -94.9497 1406.66
v -18.3742 -93.8445 1406.28
v -18.5458 -95.7088 1406.48
v -17.9019 -94.2994 1405.85
v -17.2859 -92.9287 1406.25
v -17.3743 -94.8027 1405.68
v -18.481 -92.56 1408.65
v -18.0956 -93.3817 1411.29
v -17.3819 -91.9672 1409.33
v -19.1997 -93.4584 1408.24
v -19.4711 -95.1569 1407.59
v -19.5077 -95.8741 1407.99
v -19.6652 -95.1678 1409.17
v -19.5904 -96.2562 1409.4
v -19.1444 -95.6517 1407.02
v -19.3097 -96.7983 1409.24
v -18.799 -96.6821 1407.79
v -18.5106 -97.4793 1409.6
v -17.6963 -96.375 1406.98
v -18.8737 -94.4325 1411.33
v -19.3326 -95.8018 1410.98
v -19.1427 -96.7477 1410.78
v -18.9267 -95.9406 1411.59
v -18.4178 -94.6489 1412.03
v -18.5526 -97.3949 1410.67
v -17.7507 -94.2421 1412.25
v -18.1089 -96.7184 1411.92
v -16.724 -92.1839 1406.97
v -16.689 -91.8004 1407.89
v -16.2131 -92.1087 1407.28
v -15.7678 -92.1195 1407.88
v -16.7727 -93.4256 1405.87
v -17.0925 -95.7495 1406.14
v -16.2548 -92.6181 1406.5
v -15.7856 -93.145 1406.27
v -15.9197 -94.0135 1405.82
v -15.9883 -95.0171 1405.88
v -15.7336 -92.7017 1406.73
v -15.3822 -94.1207 1406.1
v -15.3024 -93.2875 1406.6
v -14.9754 -93.1027 1407.64
v -15.7455 -96.0016 1407.05
v -14.8084 -94.3508 1406.84
v -14.8881 -94.9213 1406.66
v -16.8108 -91.6945 1408.91
v -16.8792 -91.9925 1409.92
v -16.283 -91.7622 1408.98
v -16.3382 -92.2526 1410.13
v -16.5995 -92.9501 1411.22
v -15.3954 -92.4806 1408.9
v -16.5252 -97.6259 1409.7
v -14.5945 -94.0006 1408.51
v -15.0093 -94.5857 1410.8
v -14.4224 -95.3283 1408.03
v -14.532 -95.861 1407.94
v -14.5088 -96.1761 1409.34
v -15.0137 -96.8968 1409.16
v -17.5478 -97.6026 1409.46
v -17.498 -95.4457 1412.52
v -17.2094 -97.8269 1410.63
v -17.1739 -97.2979 1411.74
v -17.0781 -96.4647 1412.34
v -16.3782 -94.4599 1412.26
v -16.1548 -97.6312 1410.83
v -16.0642 -95.9819 1412.25
v -16.1576 -96.9217 1411.87
v -15.3077 -96.7323 1411.13
v -16.5995 -92.9501 1411.22
v -14.532 -95.861 1407.94
v -16.3782 -94.4599 1412.26
vn -0.398647 0.884161 -0.243597
vn -0.845099 0.299851 -0.442603
vn -0.656129 0.649897 -0.383572
vn -0.745344 -0.00994486 -0.666605
vn -0.599966 0.357497 -0.715707
vn -0.431192 -0.468082 -0.771345
vn -0.416589 0.13015 -0.89973
vn -0.284291 0.62529 -0.726767
vn -0.102727 -0.145643 -0.98399
vn -0.688264 0.715614 0.119119
vn -0.499847 0.685799 0.528992
vn -0.450979 0.867763 0.20882
vn -0.905618 0.422041 -0.0416804
vn -0.955156 0.0481844 -0.292158
vn -0.914942 -0.313992 -0.253555
vn -0.991819 0.115588 0.0541664
vn -0.964844 -0.257536 0.0524419
vn -0.784246 -0.333861 -0.522967
vn -0.76632 -0.636881 -0.0844809
vn -0.464984 -0.765858 -0.444131
vn -0.382449 -0.91302 -0.141867
vn -0.0246703 -0.838931 -0.543678
vn -0.839412 0.36509 0.402613
vn -0.934614 -0.0338164 0.354053
vn -0.803244 -0.47351 0.361369
vn -0.718661 -0.12061 0.684821
vn -0.61166 0.250004 0.75058
vn -0.506511 -0.809095 0.298013
vn -0.208767 0.456588 0.864837
vn -0.451912 -0.491587 0.744391
vn -0.0577744 0.851068 -0.521867
vn 0.0717705 0.969859 -0.232855
vn 0.30676 0.855619 -0.41691
vn 0.563042 0.805823 -0.183394
vn 0.00800831 0.386836 -0.922114
vn 0.0342655 -0.662594 -0.748194
vn 0.190881 0.698409 -0.689774
vn 0.423563 0.486736 -0.763991
vn 0.275041 0.152638 -0.949239
vn 0.357349 -0.367576 -0.858597
vn 0.559121 0.679364 -0.475235
vn 0.643284 0.13212 -0.754142
vn 0.735304 0.436364 -0.51857
vn 0.844754 0.498668 -0.19422
vn 0.313231 -0.781567 -0.539481
vn 0.913407 0.179523 -0.365322
vn 0.76122 -0.272649 -0.588394
vn -0.148885 0.9863 0.0710334
vn -0.0624976 0.8963 0.439022
vn 0.362157 0.921073 0.143064
vn 0.510495 0.723378 0.464886
vn -0.0268319 0.729991 0.68293
vn 0.773895 0.604099 0.190136
vn 0.196352 -0.940797 -0.276311
vn 0.966257 0.251456 0.0558301
vn 0.83482 0.278524 0.474867
vn 0.986691 -0.0169515 -0.161723
vn 0.473911 -0.695184 -0.540488
vn 0.969652 -0.212114 0.121586
vn 0.604377 -0.781411 -0.155323
vn -0.0148723 -0.934367 -0.356002
vn -0.202286 -0.0406586 0.978482
vn -0.0723169 -0.993392 0.0891173
vn -0.0695218 -0.782032 0.619349
vn 0.00345885 -0.402816 0.915275
vn 0.108995 0.284925 0.952333
vn 0.383366 -0.889024 0.250335
vn 0.503339 -0.121328 0.855529
vn 0.382846 -0.589706 0.711109
vn 0.792234 -0.430346 0.432628
vn 0.668675 0.511731 0.539449
vn 0.936033 -0.297163 -0.188511
vn 0.703399 0.324326 0.63249
g grp1
usemtl mtl1
f 10//10 1//1 3//3 
f 10//10 3//3 13//13 
f 8//8 3//3 1//1 
f 8//8 1//1 31//31 
f 32//32 31//31 1//1 
f 5//5 4//4 2//2 
f 4//4 14//14 2//2 
f 2//2 14//14 13//13 
f 4//4 18//18 14//14 
f 5//5 7//7 4//4 
f 2//2 3//3 5//5 
f 13//13 3//3 2//2 
f 18//18 4//4 6//6 
f 3//3 8//8 5//5 
f 5//5 8//8 7//7 
f 6//6 4//4 7//7 
f 8//8 35//35 7//7 
f 9//9 7//7 35//35 
f 9//9 6//6 7//7 
f 6//6 9//9 36//36 
f 22//22 6//6 36//36 
f 12//12 1//1 10//10 
f 12//12 10//10 11//11 
f 23//23 11//11 10//10 
f 32//32 1//1 48//48 
f 1//1 12//12 48//48 
f 49//49 48//48 12//12 
f 12//12 11//11 49//49 
f 49//49 11//11 52//52 
f 13//13 14//14 16//16 
f 18//18 15//15 14//14 
f 23//23 13//13 16//16 
f 14//14 15//15 16//16 
f 23//23 10//10 13//13 
f 16//16 15//15 17//17 
f 15//15 19//19 17//17 
f 20//20 21//21 19//19 
f 15//15 20//20 19//19 
f 20//20 18//18 6//6 
f 15//15 18//18 20//20 
f 23//23 16//16 24//24 
f 16//16 17//17 24//24 
f 17//17 25//25 24//24 
f 19//19 25//25 17//17 
f 22//22 20//20 6//6 
f 22//22 61//61 20//20 
f 61//61 21//21 20//20 
f 25//25 19//19 28//28 
f 28//28 19//19 21//21 
f 45//45 61//61 22//22 
f 63//63 28//28 21//21 
f 29//29 52//52 11//11 
f 23//23 24//24 26//26 
f 11//11 23//23 27//27 
f 26//26 27//27 23//23 
f 25//25 26//26 24//24 
f 25//25 28//28 30//30 
f 26//26 25//25 30//30 
f 11//11 27//27 29//29 
f 62//62 29//29 27//27 
f 26//26 62//62 27//27 
f 62//62 26//26 30//30 
f 64//64 30//30 28//28 
f 63//63 64//64 28//28 
f 30//30 64//64 65//65 
f 62//62 30//30 65//65 
f 31//31 33//33 37//37 
f 8//8 31//31 37//37 
f 31//31 32//32 33//33 
f 33//33 41//41 37//37 
f 33//33 34//34 41//41 
f 34//34 33//33 32//32 
f 34//34 32//32 50//50 
f 41//41 34//34 44//44 
f 53//53 44//44 34//34 
f 44//44 53//53 55//55 
f 37//37 35//35 8//8 
f 39//39 9//9 35//35 
f 37//37 38//38 35//35 
f 38//38 39//39 35//35 
f 39//39 40//40 9//9 
f 36//36 9//9 40//40 
f 37//37 41//41 38//38 
f 43//43 42//42 38//38 
f 38//38 42//42 39//39 
f 42//42 40//40 39//39 
f 38//38 41//41 43//43 
f 40//40 45//45 36//36 
f 36//36 45//45 22//22 
f 42//42 47//47 40//40 
f 47//47 45//45 40//40 
f 43//43 41//41 44//44 
f 42//42 43//43 46//46 
f 47//47 42//42 46//46 
f 43//43 44//44 46//46 
f 46//46 55//55 57//57 
f 46//46 44//44 55//55 
f 47//47 58//58 45//45 
f 47//47 46//46 57//57 
f 72//72 47//47 57//57 
f 32//32 48//48 50//50 
f 50//50 48//48 49//49 
f 51//51 49//49 52//52 
f 53//53 34//34 50//50 
f 50//50 49//49 51//51 
f 51//51 53//53 50//50 
f 51//51 56//56 53//53 
f 71//71 56//56 51//51 
f 56//56 55//55 53//53 
f 54//54 61//61 45//45 
f 54//54 63//63 61//61 
f 54//54 67//67 63//63 
f 45//45 60//60 54//54 
f 67//67 60//60 70//70 
f 54//54 60//60 67//67 
f 60//60 45//45 58//58 
f 60//60 72//72 59//59 
f 56//56 59//59 55//55 
f 55//55 59//59 57//57 
f 72//72 57//57 59//59 
f 60//60 59//59 70//70 
f 59//59 56//56 70//70 
f 61//61 63//63 21//21 
f 29//29 66//66 52//52 
f 64//64 67//67 69//69 
f 63//63 67//67 64//64 
f 66//66 29//29 62//62 
f 69//69 65//65 64//64 
f 65//65 69//69 68//68 
f 68//68 66//66 62//62 
f 65//65 68//68 62//62 
f 71//71 73//73 56//56 
f 68//68 56//56 73//73 
f 69//69 70//70 68//68 
f 56//56 68//68 70//70 
f 67//67 70//70 69//69 
