v 14.6119 -93.101 1405.87
v 13.5716 -95.408 1406.57
v 13.7862 -94.2519 1406.28
v 14.1092 -95.5318 1405.54
v 14.2319 -96.4615 1405.89
v 14.6226 -96.0014 1405.25
v 13.6518 -94.4943 1408.41
v 14.0966 -93.3611 1408.02
v 14.4707 -94.6424 1410.2
v 14.5238 -93.4344 1409.16
v 15.0742 -92.5003 1407.69
v 15.9418 -93.593 1410.6
v 13.6252 -96.1558 1408.81
v 13.9233 -95.4405 1409.61
v 13.8822 -96.8386 1409.1
v 14.0276 -96.4871 1409.75
v 14.4105 -95.6979 1410.44
v 13.7387 -96.798 1407.54
v 14.4432 -97.1354 1409.91
v 14.5328 -97.4723 1408.66
v 14.5169 -97.0885 1406.72
v 15.2791 -97.5757 1408.74
v 15.3146 -97.659 1409.5
v 15.3426 -94.5186 1411.09
v 15.7184 -95.1916 1411.45
v 16.2191 -94.6168 1411.49
v 16.2599 -95.6467 1411.39
v 14.719 -96.3305 1410.7
v 15.5253 -97.3133 1410.42
v 15.6878 -96.5167 1411.09
v 16.1713 -96.925 1410.74
v 15.4593 -93.3831 1405.11
v 15.7604 -92.351 1406.38
v 17.0392 -93.1426 1405.56
v 17.9662 -93.7985 1405.77
v 14.8854 -94.3864 1404.95
v 15.1691 -96.6448 1405.52
v 15.4289 -95.3551 1404.74
v 15.5588 -96.1636 1405.01
v 15.92 -94.326 1404.71
v 16.4426 -95.4076 1404.71
v 16.6042 -96.3182 1405.24
v 17.4876 -94.534 1405.07
v 17.6069 -95.6635 1405.18
v 16.4534 -93.5032 1410.53
v 16.0889 -92.2971 1407.68
v 16.9495 -93.5485 1410.36
v 16.9628 -92.3438 1407.09
v 17.3442 -92.7985 1408.45
v 17.763 -93.5655 1409.62
v 18.3101 -94.5105 1409.12
v 18.0771 -93.2261 1407.09
v 18.5309 -94.4587 1407.48
v 15.3889 -96.8936 1406.02
v 16.2927 -97.5067 1409.24
v 17.2791 -96.9874 1409.06
v 17.2279 -96.6386 1406.08
v 17.5463 -96.8066 1407.06
v 18.186 -96.1449 1408.21
v 18.2899 -95.9179 1405.95
v 17.8299 -96.3781 1405.92
v 18.5432 -95.7362 1407.13
v 18.3329 -96.2811 1406.93
v 18.3194 -94.8691 1405.78
v 18.5068 -94.5018 1406.41
v 18.5631 -95.5785 1406.53
v 16.6027 -93.8886 1411.04
v 16.7338 -94.6658 1411.38
v 17.5202 -94.4429 1410.69
v 16.4411 -97.2951 1410.05
v 17.0303 -96.7896 1410.14
v 17.1016 -95.9657 1410.84
v 17.5693 -95.8381 1410.33
v 16.2191 -94.6168 1411.49
v 16.7338 -94.6658 1411.38
vn -0.629203 0.655879 -0.417045
vn -0.972195 -0.0871687 -0.217342
vn -0.897558 0.281252 -0.339538
vn -0.771716 -0.0937262 -0.629023
vn -0.665778 -0.542464 -0.51232
vn -0.462544 -0.349342 -0.814871
vn -0.942823 0.259008 0.209761
vn -0.800727 0.593684 0.0798422
vn -0.787961 0.314892 0.529113
vn -0.645274 0.621383 0.444415
vn -0.428209 0.89128 0.14919
vn -0.248001 0.77699 0.578604
vn -0.977821 -0.103016 0.182357
vn -0.897526 0.0968925 0.430185
vn -0.833494 -0.511031 0.210085
vn -0.857183 -0.197501 0.475637
vn -0.772302 0.04945 0.633328
vn -0.823064 -0.55296 -0.129616
vn -0.59625 -0.672798 0.437983
vn -0.431421 -0.902111 -0.00852866
vn -0.289108 -0.904193 -0.314407
vn 0.0548201 -0.98034 -0.189546
vn -0.0721736 -0.984383 0.160566
vn -0.564527 0.340264 0.752017
vn -0.313411 -0.0581091 0.947838
vn -0.170307 0.486409 0.856972
vn 0.205396 -0.267379 0.941446
vn -0.595838 -0.254392 0.761749
vn -0.139098 -0.774095 0.6176
vn -0.141635 -0.444458 0.884532
vn 0.318934 -0.620097 0.716771
vn -0.163979 0.576857 -0.800217
vn -0.106699 0.937867 -0.330182
vn 0.364122 0.662426 -0.654681
vn 0.729683 0.436781 -0.526104
vn -0.519754 0.164877 -0.838255
vn -0.175384 -0.778036 -0.603242
vn -0.224379 -0.141932 -0.964111
vn -0.0990815 -0.508459 -0.855367
vn 0.028528 0.228661 -0.973088
vn 0.154179 -0.211519 -0.965136
vn 0.183412 -0.722578 -0.666514
vn 0.46158 0.189239 -0.866679
vn 0.507307 -0.311567 -0.803471
vn 0.0804765 0.87009 0.486278
vn 0.0148807 0.966162 0.257507
vn 0.360252 0.792208 0.49257
vn 0.362977 0.925717 -0.106285
vn 0.430653 0.860236 0.273007
vn 0.719637 0.584923 0.374149
vn 0.9581 0.0781077 0.275578
vn 0.806124 0.588884 -0.0581373
vn 0.987385 0.150458 0.0493287
vn 0.058049 -0.929792 -0.36348
vn 0.295736 -0.95527 0.000580948
vn 0.618259 -0.773174 0.141275
vn 0.203077 -0.92118 -0.331943
vn 0.374308 -0.914795 -0.151805
vn 0.866845 -0.435418 0.242881
vn 0.799087 -0.382733 -0.463654
vn 0.467856 -0.761875 -0.447949
vn 0.974996 -0.198443 0.100011
vn 0.785001 -0.616467 -0.0611783
vn 0.827216 0.0495265 -0.559697
vn 0.94996 0.229046 -0.212401
vn 0.978914 -0.131296 -0.156487
vn 0.232529 0.641091 0.73139
vn 0.385476 0.424559 0.819242
vn 0.73596 0.229702 0.636868
vn 0.371681 -0.860766 0.347757
vn 0.665316 -0.607205 0.434346
vn 0.600874 -0.342058 0.722459
vn 0.836133 -0.304257 0.45641
vn 0.119062 -0.0940478 0.988423
vn 0.460048 -0.143155 0.876277
g grp1
usemtl mtl1
f 1//1 36//36 3//3 
f 1//1 3//3 8//8 
f 1//1 8//8 11//11 
f 8//8 10//10 11//11 
f 32//32 36//36 1//1 
f 33//33 1//1 11//11 
f 32//32 1//1 33//33 
f 46//46 33//33 11//11 
f 2//2 4//4 5//5 
f 2//2 5//5 18//18 
f 2//2 3//3 4//4 
f 36//36 4//4 3//3 
f 6//6 4//4 36//36 
f 6//6 5//5 4//4 
f 5//5 6//6 37//37 
f 54//54 21//21 37//37 
f 21//21 5//5 37//37 
f 3//3 2//2 7//7 
f 8//8 3//3 7//7 
f 10//10 8//8 7//7 
f 10//10 7//7 9//9 
f 7//7 14//14 9//9 
f 10//10 9//9 24//24 
f 14//14 17//17 9//9 
f 9//9 17//17 24//24 
f 28//28 24//24 17//17 
f 12//12 10//10 24//24 
f 11//11 10//10 12//12 
f 12//12 24//24 26//26 
f 46//46 11//11 12//12 
f 46//46 12//12 45//45 
f 45//45 12//12 67//67 
f 67//67 12//12 26//26 
f 2//2 18//18 13//13 
f 2//2 13//13 7//7 
f 7//7 13//13 14//14 
f 18//18 15//15 13//13 
f 20//20 15//15 18//18 
f 13//13 16//16 14//14 
f 13//13 15//15 16//16 
f 15//15 19//19 16//16 
f 15//15 20//20 19//19 
f 14//14 16//16 17//17 
f 17//17 16//16 28//28 
f 28//28 16//16 19//19 
f 19//19 20//20 23//23 
f 18//18 5//5 21//21 
f 21//21 20//20 18//18 
f 21//21 22//22 20//20 
f 22//22 23//23 20//20 
f 54//54 22//22 21//21 
f 55//55 23//23 22//22 
f 57//57 58//58 22//22 
f 58//58 55//55 22//22 
f 23//23 55//55 70//70 
f 26//26 24//24 25//25 
f 28//28 25//25 24//24 
f 30//30 25//25 28//28 
f 74//74 25//25 27//27 
f 25//25 30//30 27//27 
f 68//68 67//67 26//26 
f 74//74 27//27 75//75 
f 28//28 29//29 30//30 
f 28//28 19//19 29//29 
f 23//23 29//29 19//19 
f 27//27 30//30 31//31 
f 29//29 31//31 30//30 
f 70//70 29//29 23//23 
f 75//75 27//27 72//72 
f 72//72 27//27 31//31 
f 70//70 31//31 29//29 
f 34//34 40//40 32//32 
f 48//48 33//33 46//46 
f 43//43 40//40 34//34 
f 33//33 34//34 32//32 
f 34//34 33//33 48//48 
f 34//34 35//35 43//43 
f 64//64 35//35 65//65 
f 6//6 36//36 38//38 
f 39//39 6//6 38//38 
f 39//39 37//37 6//6 
f 32//32 40//40 36//36 
f 36//36 40//40 38//38 
f 38//38 40//40 41//41 
f 41//41 39//39 38//38 
f 41//41 42//42 39//39 
f 39//39 42//42 37//37 
f 42//42 54//54 37//37 
f 41//41 40//40 43//43 
f 42//42 41//41 44//44 
f 44//44 41//41 43//43 
f 43//43 64//64 44//44 
f 43//43 35//35 64//64 
f 47//47 46//46 45//45 
f 69//69 47//47 67//67 
f 67//67 47//47 45//45 
f 49//49 46//46 47//47 
f 50//50 47//47 69//69 
f 48//48 46//46 49//49 
f 47//47 50//50 49//49 
f 50//50 51//51 52//52 
f 69//69 51//51 50//50 
f 34//34 48//48 52//52 
f 49//49 52//52 48//48 
f 49//49 50//50 52//52 
f 59//59 62//62 51//51 
f 35//35 34//34 52//52 
f 35//35 52//52 65//65 
f 65//65 53//53 66//66 
f 65//65 52//52 53//53 
f 51//51 53//53 52//52 
f 54//54 57//57 22//22 
f 70//70 56//56 71//71 
f 56//56 70//70 55//55 
f 42//42 57//57 54//54 
f 58//58 56//56 55//55 
f 56//56 59//59 71//71 
f 71//71 59//59 73//73 
f 57//57 42//42 61//61 
f 57//57 61//61 58//58 
f 61//61 63//63 58//58 
f 59//59 56//56 63//63 
f 63//63 56//56 58//58 
f 44//44 60//60 61//61 
f 42//42 44//44 61//61 
f 63//63 60//60 66//66 
f 60//60 63//63 61//61 
f 62//62 63//63 66//66 
f 66//66 53//53 62//62 
f 59//59 63//63 62//62 
f 62//62 53//53 51//51 
f 44//44 64//64 60//60 
f 65//65 66//66 64//64 
f 60//60 64//64 66//66 
f 69//69 67//67 68//68 
f 69//69 75//75 72//72 
f 69//69 72//72 73//73 
f 51//51 69//69 73//73 
f 73//73 59//59 51//51 
f 70//70 71//71 31//31 
f 31//31 71//71 72//72 
f 72//72 71//71 73//73 
