v -29.3621 -136.342 1090.79
v -29.6689 -136.798 1090.52
v -29.3514 -136.988 1091
v -29.6133 -136.491 1090.09
v -29.4434 -136.21 1090.12
v -29.6061 -136.722 1089.86
v -29.447 -136.339 1089.85
v -29.3288 -136.666 1089.54
v -29.0983 -136.276 1089.58
v -28.685 -135.963 1089.6
v -28.9744 -136.762 1089.34
v -28.4691 -136.293 1089.41
v -28.6475 -137.095 1089.34
v -29.6802 -137.041 1090.23
v -29.4281 -137.202 1089.71
v -29.0914 -137.149 1089.42
v -29.0439 -137.534 1089.65
v -28.8558 -137.437 1089.5
v -27.5428 -133.939 1089.61
v -28.4541 -135.195 1090.55
v -28.4716 -135.115 1090.05
v -27.9097 -134.891 1090.66
v -27.9859 -134.393 1089.64
v -28.0597 -134.647 1089.22
v -28.7383 -136.458 1091.28
v -28.8689 -135.596 1090.37
v -28.3539 -135.455 1090.97
v -28.86 -135.669 1090.06
v -28.2507 -136.62 1091.35
v -28.4966 -135.555 1089.6
v -28.2768 -135.889 1089.36
v -29.5031 -137.343 1090.59
v -29.039 -137.503 1090.93
v -28.7537 -137.291 1091.14
v -29.3858 -137.561 1090.19
v -29.0222 -137.764 1090.42
v -28.5935 -137.627 1090.85
v -28.9633 -137.706 1089.86
v -28.4568 -137.779 1090.43
v -28.0967 -137.49 1090.69
v -28.5753 -137.469 1089.53
v -28.7462 -137.625 1089.67
v -28.3951 -137.673 1089.85
v -28.5784 -137.786 1090.02
v -28.2594 -137.677 1090.02
v -27.9931 -135.64 1091.19
v -28.0868 -136.227 1091.35
v -27.6888 -135.886 1091.23
v -28.0041 -136.945 1091.17
v -27.6839 -136.363 1091.24
v -27.3954 -136.713 1090.82
v -26.9909 -132.903 1088.13
v -27.2028 -133.21 1087.77
v -27.9058 -134.944 1088.86
v -28.4109 -136.729 1089.35
v -25.9345 -132.118 1087.58
v -26.6968 -133.888 1089.79
v -27.4702 -135.345 1088.66
v -26.7581 -135.515 1088.81
v -26.3723 -135.477 1089.3
v -28.1993 -136.358 1089.38
v -28.3953 -137.132 1089.4
v -27.9252 -136.125 1089.27
v -28.0455 -136.81 1089.49
v -27.765 -136.422 1089.4
v -27.841 -137.003 1089.7
v -27.3432 -136.844 1090.29
v -27.2711 -136.527 1089.72
v -28.1471 -137.361 1089.68
v -27.8908 -137.339 1089.99
v -28.0693 -137.564 1090.17
v -26.6457 -134.703 1090.3
v -26.8378 -135.701 1090.66
v -26.2125 -135.105 1089.72
v -26.9075 -136.233 1090.43
v -25.7929 -131.588 1086.4
v -25.7766 -131.792 1085.67
v -26.8253 -133.068 1086.9
v -26.5352 -132.338 1086.77
v -26.2073 -133.204 1086.25
v -25.7409 -133.593 1086.39
v -25.347 -132.693 1088
v -25.2537 -133.399 1088.09
v -25.4298 -134.039 1087.75
v -23.6851 -130.039 1083.82
v -24.1304 -132.296 1086.59
v -24.1447 -132.729 1085.94
v -23.1005 -129.907 1081.84
v -22.8778 -129.294 1081.87
v -22.5254 -129.113 1082.34
v -24.1589 -130.857 1083.83
v -23.5377 -130.45 1082.93
v -23.3865 -131.004 1082.94
v -24.0488 -131.458 1083.84
v -22.7088 -129.797 1084.06
v -22.1748 -130.293 1084.21
v -23.0985 -131.341 1083.08
v -22.2035 -131.179 1084.17
v -23.9067 -132.326 1084.75
v -22.5001 -128.681 1080.35
v -22.2349 -128.551 1079.85
v -22.7807 -129.055 1080.23
v -22.5875 -128.948 1079.67
v -22.7464 -129.705 1079.92
v -22.0239 -128.491 1080.5
v -21.7201 -128.5 1080.52
v -22.8175 -130.903 1082.19
v -22.0329 -128.979 1082.17
v -21.417 -130.141 1082.93
v -21.5501 -129.039 1081.83
v -22.5707 -131.512 1083.38
v -22.0839 -131.07 1082.32
v -21.9314 -131.104 1082.81
v -21.3463 -130.454 1082.51
v -22.0908 -128.948 1079.31
v -21.7971 -128.687 1079.48
v -22.476 -129.419 1079.38
v -22.1659 -129.909 1079.37
v -22.0113 -130.332 1079.92
v -21.8282 -129.454 1079.16
v -21.5582 -129.278 1079.22
v -21.5978 -129.693 1079.24
v -21.6183 -130.065 1079.47
v -21.7927 -128.44 1080
v -21.4208 -128.55 1080.22
v -21.2923 -128.695 1079.79
v -21.0716 -128.86 1080.15
v -20.9813 -129.081 1080.39
v -21.2926 -128.894 1079.53
v -21.0562 -128.939 1079.84
v -20.995 -129.152 1079.77
v -20.9378 -129.114 1080
v -21.1166 -130.171 1081.11
v -20.898 -129.319 1080.25
v -21.3687 -130.253 1080.13
v -20.9053 -129.347 1079.96
v -20.9372 -129.717 1080.25
v -21.2008 -129.367 1079.42
v -21.2646 -129.766 1079.46
v -20.994 -129.576 1079.75
v -21.0439 -129.823 1081.54
v -25.7409 -133.593 1086.39
v -25.2537 -133.399 1088.09
v -25.4298 -134.039 1087.75
v -23.6851 -130.039 1083.82
v -24.1304 -132.296 1086.59
v -24.1589 -130.857 1083.83
v -23.5377 -130.45 1082.93
v -22.7088 -129.797 1084.06
v -22.1748 -130.293 1084.21
v -22.5875 -128.948 1079.67
v -22.7464 -129.705 1079.92
v -21.417 -130.141 1082.93
v -22.476 -129.419 1079.38
v -22.476 -129.419 1079.38
v -22.1659 -129.909 1079.37
vn -0.745478 0.477845 0.464679
vn -0.945919 0.0637576 0.318076
vn -0.625475 -0.129303 0.769455
vn -0.934377 0.349965 -0.0668139
vn -0.777805 0.624761 -0.0685098
vn -0.89149 0.0948628 -0.442997
vn -0.725575 0.502099 -0.470571
vn -0.626103 0.145553 -0.766035
vn -0.424124 0.480521 -0.767606
vn -0.529502 0.362735 -0.766845
vn -0.214341 0.121797 -0.969135
vn -0.20582 0.179217 -0.962039
vn 0.0252054 -0.249108 -0.968148
vn -0.971934 -0.214794 -0.0959546
vn -0.750611 -0.353102 -0.558482
vn -0.398735 -0.289804 -0.870071
vn -0.42319 -0.670031 -0.609893
vn -0.132273 -0.554359 -0.8217
vn -0.450484 0.772689 0.44723
vn -0.660346 0.671106 0.336988
vn -0.827824 0.545714 -0.130018
vn -0.183428 0.673333 0.716224
vn -0.805686 0.589037 0.0624963
vn -0.905773 0.285776 -0.312901
vn -0.333903 0.161889 0.928602
vn -0.753092 0.655481 0.0565456
vn -0.438069 0.549261 0.711623
vn -0.686527 0.603826 -0.405062
vn 0.0751818 -0.182272 0.98037
vn -0.786114 0.273471 -0.55429
vn -0.481206 -0.0623546 -0.874387
vn -0.77769 -0.518708 0.355163
vn -0.370119 -0.662287 0.651451
vn -0.096022 -0.399769 0.911572
vn -0.686895 -0.706985 -0.168367
vn -0.288974 -0.940853 0.176891
vn 0.128496 -0.793933 0.594272
vn -0.28416 -0.897351 -0.33766
vn 0.29311 -0.943725 0.153197
vn 0.560662 -0.738644 0.374251
vn 0.201317 -0.59501 -0.778097
vn -0.0186187 -0.805835 -0.591847
vn 0.32431 -0.803945 -0.498493
vn 0.0931706 -0.969895 -0.224997
vn 0.501469 -0.827263 -0.253306
vn -0.0397898 0.434341 0.89987
vn 0.0541504 0.104451 0.993055
vn 0.346667 0.19518 0.917457
vn 0.376377 -0.494177 0.783664
vn 0.452484 -0.172563 0.874917
vn 0.697964 -0.495341 0.517189
vn -0.664565 0.725927 0.177155
vn -0.891116 0.420659 -0.170172
vn -0.762103 -0.10562 -0.638782
vn 0.14024 -0.0046731 -0.990107
vn -0.137818 0.835811 0.531439
vn 0.119393 0.689412 0.714462
vn -0.335008 -0.51167 -0.791179
vn 0.339084 -0.746872 -0.572018
vn 0.757584 -0.633798 -0.156099
vn -0.0316859 -0.138173 -0.989901
vn 0.337212 -0.304287 -0.890897
vn -0.257124 -0.351396 -0.900227
vn 0.348967 -0.277014 -0.895257
vn 0.123362 -0.495503 -0.859801
vn 0.500201 -0.490308 -0.713721
vn 0.741539 -0.670649 -0.0187032
vn 0.552353 -0.651917 -0.51953
vn 0.526584 -0.55671 -0.642482
vn 0.65267 -0.656046 -0.378979
vn 0.628861 -0.77709 -0.0257822
vn 0.536678 0.338816 0.772775
vn 0.730552 -0.106391 0.674518
vn 0.907701 -0.255953 0.332515
vn 0.843714 -0.470157 0.259034
vn -0.55716 0.822056 0.117463
vn -0.812975 0.336098 -0.47551
vn -0.860611 0.0824273 -0.502549
vn -0.830438 0.520378 -0.198946
vn -0.618238 -0.315752 -0.719779
vn -0.193656 -0.693068 -0.694373
vn 0.54488 0.447376 0.709197
vn 0.774259 0.149969 0.614843
vn 0.889667 -0.412691 0.195392
vn -0.846595 0.434196 -0.307815
vn 0.80029 -0.507482 0.319372
vn 0.681278 -0.728285 0.0738956
vn -0.954588 -0.00592966 -0.297871
vn -0.797854 0.602799 0.00784502
vn -0.370716 0.897847 0.237572
vn -0.737286 -0.113347 -0.666005
vn -0.884132 0.350953 -0.308453
vn -0.673287 -0.449136 -0.587333
vn -0.522811 -0.484927 -0.701081
vn -0.242222 0.908756 0.339841
vn 0.530159 0.630903 0.566474
vn -0.264742 -0.800409 -0.537826
vn 0.841414 -0.404065 0.358824
vn 0.126807 -0.880015 -0.457705
vn -0.632706 0.774234 0.0156347
vn -0.37573 0.868829 -0.322435
vn -0.927455 0.352179 -0.12569
vn -0.650317 0.613634 -0.447819
vn -0.957724 -0.0387258 -0.285071
vn -0.200366 0.968278 0.149302
vn 0.213285 0.951779 0.220515
vn -0.548174 -0.709904 -0.4422
vn 0.101827 0.928656 0.356693
vn 0.7707 0.494447 0.401924
vn 0.633923 0.67666 0.37453
vn 0.221731 -0.923682 -0.312485
vn 0.119399 -0.94087 -0.31703
vn 0.595924 -0.800317 -0.0660801
vn 0.897061 -0.410679 0.163172
vn -0.256226 0.460826 -0.849699
vn 0.120326 0.739444 -0.662377
vn -0.407722 0.0915 -0.90851
vn -0.658178 -0.577652 -0.482825
vn -0.187234 -0.894756 -0.405407
vn -0.0930772 -0.0480112 -0.994501
vn 0.291755 0.236834 -0.926708
vn 0.278128 -0.303193 -0.911438
vn 0.236491 -0.738174 -0.6318
vn 0.104291 0.982676 -0.153204
vn 0.49592 0.86477 0.0789749
vn 0.532887 0.784995 -0.315933
vn 0.777576 0.626377 0.0550315
vn 0.895404 0.402274 0.19086
vn 0.578968 0.482491 -0.657266
vn 0.804076 0.51249 -0.301357
vn 0.870343 0.211336 -0.444791
vn 0.942734 0.321946 -0.0871989
vn 0.842321 -0.538403 -0.0248593
vn 0.993917 0.0923134 0.0600621
vn 0.573023 -0.774525 -0.267873
vn 0.983082 0.00471251 -0.183106
vn 0.944094 -0.320068 -0.07901
vn 0.676071 0.0248666 -0.736417
vn 0.642272 -0.454865 -0.616916
vn 0.878411 -0.267968 -0.395712
vn 0.979661 0.0446527 0.195626
vn 0.420711 -0.828709 -0.369112
vn 0.875259 -0.407033 0.26124
vn 0.49996 -0.806504 -0.315581
vn -0.387874 0.889472 0.241649
vn 0.755389 0.0671626 0.651826
vn -0.794976 0.453172 -0.403296
vn -0.792496 -0.204434 -0.574593
vn 0.391026 0.70112 0.596263
vn 0.803629 -0.0120835 0.595008
vn -0.926763 0.075106 -0.368061
vn -0.639705 -0.621503 -0.45223
vn 0.919214 -0.137802 0.368859
vn -0.903835 0.0519115 -0.424722
vn -0.694571 -0.430839 -0.57615
vn -0.133238 -0.494247 -0.85905
g grp1
usemtl mtl1
f 1//1 4//4 2//2 
f 1//1 3//3 25//25 
f 1//1 2//2 3//3 
f 78//78 54//54 24//24 
f 54//54 58//58 31//31 
f 1//1 5//5 4//4 
f 4//4 7//7 6//6 
f 4//4 5//5 7//7 
f 7//7 5//5 28//28 
f 6//6 7//7 8//8 
f 7//7 9//9 8//8 
f 10//10 9//9 28//28 
f 28//28 9//9 7//7 
f 9//9 11//11 8//8 
f 11//11 16//16 8//8 
f 10//10 12//12 9//9 
f 13//13 16//16 11//11 
f 12//12 11//11 9//9 
f 31//31 12//12 10//10 
f 12//12 61//61 55//55 
f 12//12 55//55 11//11 
f 55//55 13//13 11//11 
f 13//13 62//62 41//41 
f 4//4 14//14 2//2 
f 4//4 6//6 14//14 
f 8//8 15//15 6//6 
f 15//15 14//14 6//6 
f 15//15 35//35 14//14 
f 15//15 8//8 16//16 
f 15//15 16//16 17//17 
f 35//35 15//15 17//17 
f 35//35 17//17 38//38 
f 13//13 18//18 16//16 
f 18//18 17//17 16//16 
f 18//18 42//42 17//17 
f 17//17 42//42 38//38 
f 18//18 13//13 41//41 
f 42//42 18//18 41//41 
f 19//19 56//56 52//52 
f 20//20 1//1 27//27 
f 23//23 21//21 20//20 
f 21//21 26//26 20//20 
f 20//20 27//27 22//22 
f 27//27 46//46 22//22 
f 72//72 57//57 22//22 
f 72//72 22//22 46//46 
f 26//26 21//21 28//28 
f 19//19 23//23 20//20 
f 19//19 20//20 22//22 
f 24//24 21//21 23//23 
f 22//22 57//57 19//19 
f 21//21 24//24 30//30 
f 24//24 54//54 30//30 
f 54//54 31//31 30//30 
f 19//19 52//52 23//23 
f 58//58 63//63 31//31 
f 1//1 26//26 5//5 
f 26//26 28//28 5//5 
f 1//1 25//25 27//27 
f 25//25 46//46 27//27 
f 47//47 46//46 25//25 
f 20//20 26//26 1//1 
f 21//21 30//30 28//28 
f 10//10 28//28 30//30 
f 31//31 10//10 30//30 
f 40//40 51//51 49//49 
f 12//12 31//31 61//61 
f 67//67 51//51 40//40 
f 14//14 32//32 2//2 
f 2//2 32//32 3//3 
f 3//3 32//32 33//33 
f 32//32 14//14 35//35 
f 3//3 33//33 34//34 
f 25//25 34//34 29//29 
f 25//25 3//3 34//34 
f 36//36 32//32 35//35 
f 36//36 33//33 32//32 
f 37//37 34//34 33//33 
f 36//36 37//37 33//33 
f 49//49 34//34 37//37 
f 29//29 34//34 49//49 
f 37//37 40//40 49//49 
f 38//38 36//36 35//35 
f 36//36 39//39 37//37 
f 39//39 40//40 37//37 
f 38//38 44//44 36//36 
f 44//44 45//45 39//39 
f 36//36 44//44 39//39 
f 45//45 71//71 39//39 
f 71//71 40//40 39//39 
f 38//38 42//42 44//44 
f 42//42 43//43 44//44 
f 43//43 45//45 44//44 
f 67//67 40//40 71//71 
f 46//46 47//47 48//48 
f 47//47 25//25 29//29 
f 48//48 72//72 46//46 
f 29//29 50//50 47//47 
f 29//29 49//49 50//50 
f 73//73 72//72 48//48 
f 48//48 47//47 50//50 
f 50//50 49//49 51//51 
f 48//48 50//50 73//73 
f 73//73 50//50 51//51 
f 52//52 79//79 53//53 
f 79//79 78//78 53//53 
f 52//52 56//56 76//76 
f 76//76 79//79 52//52 
f 24//24 23//23 53//53 
f 24//24 53//53 78//78 
f 53//53 23//23 52//52 
f 62//62 13//13 55//55 
f 56//56 19//19 57//57 
f 56//56 57//57 82//82 
f 82//82 57//57 72//72 
f 82//82 72//72 83//83 
f 65//65 63//63 58//58 
f 59//59 65//65 58//58 
f 60//60 74//74 75//75 
f 84//84 74//74 60//60 
f 143//143 74//74 84//84 
f 144//144 60//60 59//59 
f 63//63 61//61 31//31 
f 55//55 61//61 64//64 
f 55//55 64//64 62//62 
f 62//62 64//64 69//69 
f 66//66 70//70 69//69 
f 66//66 68//68 70//70 
f 67//67 70//70 68//68 
f 61//61 63//63 65//65 
f 64//64 61//61 65//65 
f 66//66 69//69 64//64 
f 64//64 65//65 66//66 
f 65//65 68//68 66//66 
f 60//60 67//67 68//68 
f 67//67 60//60 75//75 
f 65//65 59//59 68//68 
f 68//68 59//59 60//60 
f 41//41 62//62 69//69 
f 41//41 69//69 43//43 
f 42//42 41//41 43//43 
f 43//43 69//69 45//45 
f 69//69 70//70 45//45 
f 45//45 70//70 71//71 
f 67//67 71//71 70//70 
f 72//72 73//73 74//74 
f 72//72 74//74 83//83 
f 74//74 73//73 75//75 
f 75//75 73//73 51//51 
f 51//51 67//67 75//75 
f 56//56 95//95 76//76 
f 76//76 77//77 79//79 
f 77//77 76//76 85//85 
f 76//76 95//95 145//145 
f 77//77 91//91 80//80 
f 78//78 80//80 54//54 
f 79//79 77//77 78//78 
f 78//78 77//77 80//80 
f 80//80 58//58 54//54 
f 81//81 58//58 80//80 
f 59//59 58//58 81//81 
f 59//59 142//142 144//144 
f 94//94 81//81 80//80 
f 82//82 149//149 56//56 
f 86//86 143//143 87//87 
f 83//83 146//146 82//82 
f 143//143 84//84 87//87 
f 77//77 85//85 147//147 
f 91//91 94//94 80//80 
f 87//87 144//144 99//99 
f 144//144 142//142 99//99 
f 81//81 94//94 99//99 
f 96//96 149//149 82//82 
f 82//82 146//146 150//150 
f 86//86 87//87 98//98 
f 90//90 89//89 145//145 
f 85//85 89//89 88//88 
f 147//147 85//85 92//92 
f 94//94 148//148 93//93 
f 93//93 97//97 94//94 
f 92//92 85//85 88//88 
f 148//148 88//88 93//93 
f 97//97 93//93 107//107 
f 88//88 107//107 93//93 
f 97//97 107//107 112//112 
f 148//148 94//94 91//91 
f 95//95 90//90 145//145 
f 95//95 108//108 90//90 
f 149//149 110//110 108//108 
f 96//96 110//110 149//149 
f 111//111 113//113 87//87 
f 113//113 98//98 87//87 
f 99//99 94//94 97//97 
f 99//99 97//97 111//111 
f 111//111 87//87 99//99 
f 146//146 98//98 150//150 
f 100//100 102//102 89//89 
f 90//90 105//105 100//100 
f 90//90 100//100 89//89 
f 103//103 102//102 100//100 
f 100//100 101//101 103//103 
f 101//101 105//105 124//124 
f 101//101 100//100 105//105 
f 101//101 116//116 115//115 
f 103//103 101//101 115//115 
f 116//116 101//101 124//124 
f 89//89 102//102 88//88 
f 151//151 104//104 102//102 
f 102//102 104//104 88//88 
f 107//107 88//88 104//104 
f 105//105 108//108 106//106 
f 124//124 105//105 106//106 
f 108//108 105//105 90//90 
f 106//106 108//108 110//110 
f 109//109 110//110 96//96 
f 141//141 110//110 109//109 
f 153//153 114//114 141//141 
f 133//133 141//141 114//114 
f 150//150 98//98 153//153 
f 97//97 112//112 111//111 
f 98//98 114//114 153//153 
f 111//111 112//112 113//113 
f 112//112 135//135 113//113 
f 113//113 114//114 98//98 
f 135//135 133//133 113//113 
f 133//133 114//114 113//113 
f 103//103 115//115 117//117 
f 126//126 116//116 124//124 
f 116//116 121//121 115//115 
f 115//115 120//120 117//117 
f 121//121 120//120 115//115 
f 129//129 116//116 126//126 
f 116//116 129//129 121//121 
f 138//138 121//121 129//129 
f 154//154 104//104 151//151 
f 107//107 152//152 119//119 
f 119//119 112//112 107//107 
f 155//155 118//118 152//152 
f 119//119 152//152 118//118 
f 156//156 123//123 119//119 
f 123//123 135//135 119//119 
f 119//119 135//135 112//112 
f 156//156 117//117 120//120 
f 122//122 156//156 120//120 
f 122//122 123//123 156//156 
f 122//122 120//120 121//121 
f 121//121 138//138 122//122 
f 122//122 138//138 139//139 
f 122//122 139//139 123//123 
f 124//124 125//125 126//126 
f 124//124 106//106 125//125 
f 106//106 110//110 125//125 
f 141//141 128//128 110//110 
f 125//125 127//127 126//126 
f 110//110 127//127 125//125 
f 110//110 128//128 127//127 
f 129//129 126//126 130//130 
f 126//126 127//127 130//130 
f 127//127 128//128 132//132 
f 132//132 134//134 136//136 
f 128//128 134//134 132//132 
f 129//129 130//130 131//131 
f 132//132 131//131 130//130 
f 127//127 132//132 130//130 
f 131//131 136//136 140//140 
f 131//131 132//132 136//136 
f 131//131 138//138 129//129 
f 140//140 138//138 131//131 
f 141//141 133//133 137//137 
f 128//128 141//141 134//134 
f 137//137 134//134 141//141 
f 134//134 137//137 136//136 
f 123//123 139//139 135//135 
f 138//138 140//140 139//139 
f 139//139 140//140 135//135 
f 133//133 135//135 137//137 
f 137//137 135//135 140//140 
f 137//137 140//140 136//136 
