v -0.782571 -83.8092 1502.97
v -0.366667 -83.8 1503
v -0.420917 -84.0055 1503.01
v -1.07379 -83.7936 1503.21
v -1.09611 -83.9136 1503.54
v -0.956906 -83.6257 1503.43
v -0.794512 -83.5054 1503.21
v -0.60629 -83.4598 1503.4
v -0.606672 -83.661 1503.75
v -0.4 -83.5141 1503.2
v -0.405996 -83.612 1503.54
v -0.151562 -83.8 1503.4
v -1.06169 -84.1158 1503.34
v -0.778162 -84.2883 1503.23
v -0.802777 -84.6992 1503.8
v -0.803124 -84.3068 1504.51
v -0.592956 -84.8028 1503.9
v -0.232492 -84.0105 1503.22
v -0.407062 -84.2565 1503.24
v -0.184309 -84.4711 1503.87
v -0.404212 -85.6393 1504.93
v -0.105831 -85.4 1505.42
v -0.8 -85.6 1504.82
v -0.151673 -85.717 1505.39
v -1 -86.4 1506.5
v -0.411482 -86.354 1507.11
v -0.098438 -87 1507.6
v -0.8 -88.6016 1509.4
v -0.612387 -87.2772 1508.57
v -0.397381 -87.5108 1508.92
v -0.233969 -88.0065 1509.5
v -0.942491 -88.1272 1509.48
v -0.598363 -88.0836 1509.83
v -0.406999 -88.62 1509.44
v -0.943644 -89.3706 1511.14
v -1 -89.2 1511.44
v -0.947548 -89.6734 1511.68
v -0.792934 -89.0725 1511.57
v -0.6 -89.6328 1511.2
v -0.577675 -89.0279 1511.56
v -0.6 -90.2 1511.95
v -0.233159 -89.5257 1511.46
v -0.251467 -89.3694 1511.72
v -0.298839 -90.1978 1512.2
v -0.193548 -90.1854 1512.57
v -0.403721 -90.7302 1512.63
v -0.842188 -90.2 1513
v -0.601101 -90.1682 1513.15
v -0.402848 -90.2037 1513.13
v -0.938115 -90.4442 1512.91
v -0.910775 -91.4113 1514.07
v -0.800185 -90.8003 1512.82
v -0.789628 -91.5604 1513.92
v -0.599934 -91.0856 1513.03
v -0.599942 -91.7131 1514.05
v -0.60241 -90.8034 1514.22
v -0.243458 -90.6879 1513.56
v -0.402998 -91.3861 1513.57
v -0.416023 -90.8425 1514.2
v -0.287451 -91.5584 1514.19
v -0.218313 -90.8098 1513.18
v -0.8 -91.8983 1514.6
v -0.599363 -92.3467 1515.72
v -0.4055 -92.0047 1514.95
v -0.40274 -92.1466 1515.47
v -0.297911 -91.963 1515.49
v -0.604176 -92.1171 1516.94
v -0.364063 -92.6 1517
v -1.00469 -92.6 1517.6
v -0.963678 -92.872 1518.57
v -1.01531 -93.4815 1519.45
v -1.04531 -94 1521.2
v -0.8 -93.7078 1521.2
v -0.807666 -94.3659 1521.48
v -0.599244 -94.5469 1522.02
v -0.379688 -93.8 1521
v -0.372447 -94.1272 1521.26
v -0.982207 -94.3922 1522.88
v -0.9875 -94.8 1523.6
v -0.8 -94.2047 1522.8
v -0.792419 -94.9345 1523.55
v -0.38722 -94.3801 1523.2
v -0.978577 -94.9818 1525.22
v -0.803347 -94.6464 1525.33
v -0.79379 -95.1706 1525.31
v -0.606855 -95.0467 1524.02
v -0.596782 -94.6069 1525.29
v -0.4 -95 1524.21
v -0.323598 -94.7626 1525.38
v -0.592939 -95.2047 1525.35
v -0.945902 -94.8 1526.6
v -0.959678 -95 1527
v -0.797992 -95.1809 1526.41
v -0.600343 -95.172 1527.03
v -0.411175 -95.1309 1525.98
v -0.311609 -94.9943 1526.7
v -0.411529 -95.1125 1526.79
v -0.600125 -95.2262 1526.19
v -0.970313 -94.6 1528.2
v -0.930934 -94.7738 1528.46
v -0.796815 -95.0227 1527.81
v -0.593995 -94.5728 1527.11
v -0.607199 -94.9988 1528.12
v -0.621732 -94.3456 1528.43
v -0.285938 -94.8 1527.4
v -0.409058 -94.9732 1527.84
v -0.407938 -94.3844 1528.63
v -0.354822 -94.4193 1529.85
v -0.314652 -94.2097 1530.14
v -0.971518 -94.2208 1530.29
v -0.8 -93.8609 1530.4
v -0.797437 -94.456 1530.2
v -0.8 -94 1530.66
v -0.8 -94.2 1530.69
v -0.599072 -93.8843 1530.3
v -0.592236 -94.4629 1530.25
v -0.6 -94 1530.69
v -0.363577 -94.024 1530.34
v -0.385938 -94.2 1530.6
v -0.782571 -83.8092 1502.97
v -0.782571 -83.8092 1502.97
v -0.366667 -83.8 1503
v -0.366667 -83.8 1503
v -0.420917 -84.0055 1503.01
v -1.07379 -83.7936 1503.21
v -1.07379 -83.7936 1503.21
v -1.07379 -83.7936 1503.21
v -1.09611 -83.9136 1503.54
v -0.794512 -83.5054 1503.21
v -0.794512 -83.5054 1503.21
v -0.794512 -83.5054 1503.21
v -0.60629 -83.4598 1503.4
v -0.60629 -83.4598 1503.4
v -0.4 -83.5141 1503.2
v -0.4 -83.5141 1503.2
v -0.4 -83.5141 1503.2
v -0.151562 -83.8 1503.4
v -0.105831 -85.4 1505.42
v -1 -86.4 1506.5
v -0.411482 -86.354 1507.11
v -0.411482 -86.354 1507.11
v -0.098438 -87 1507.6
v -0.098438 -87 1507.6
v -0.8 -88.6016 1509.4
v -0.8 -88.6016 1509.4
v -0.612387 -87.2772 1508.57
v -0.942491 -88.1272 1509.48
v -0.943644 -89.3706 1511.14
v -1 -89.2 1511.44
v -0.947548 -89.6734 1511.68
v -0.6 -89.6328 1511.2
v -0.6 -90.2 1511.95
v -0.233159 -89.5257 1511.46
v -0.233159 -89.5257 1511.46
v -0.416023 -90.8425 1514.2
v -0.8 -91.8983 1514.6
v -0.599363 -92.3467 1515.72
v -0.604176 -92.1171 1516.94
v -0.604176 -92.1171 1516.94
v -0.364063 -92.6 1517
v -1.00469 -92.6 1517.6
v -1.00469 -92.6 1517.6
v -0.963678 -92.872 1518.57
v -1.01531 -93.4815 1519.45
v -1.01531 -93.4815 1519.45
v -1.04531 -94 1521.2
v -1.04531 -94 1521.2
v -1.04531 -94 1521.2
v -0.8 -93.7078 1521.2
v -0.379688 -93.8 1521
v -0.372447 -94.1272 1521.26
v -0.9875 -94.8 1523.6
v -0.8 -94.2047 1522.8
v -0.38722 -94.3801 1523.2
v -0.978577 -94.9818 1525.22
v -0.323598 -94.7626 1525.38
v -0.959678 -95 1527
v -0.600125 -95.2262 1526.19
v -0.970313 -94.6 1528.2
v -0.970313 -94.6 1528.2
v -0.930934 -94.7738 1528.46
v -0.593995 -94.5728 1527.11
v -0.285938 -94.8 1527.4
v -0.354822 -94.4193 1529.85
v -0.354822 -94.4193 1529.85
v -0.971518 -94.2208 1530.29
v -0.971518 -94.2208 1530.29
v -0.8 -93.8609 1530.4
v -0.8 -93.8609 1530.4
v -0.8 -94 1530.66
v -0.8 -94 1530.66
v -0.8 -94.2 1530.69
v -0.8 -94.2 1530.69
v -0.8 -94.2 1530.69
v -0.592236 -94.4629 1530.25
v -0.6 -94 1530.69
v -0.363577 -94.024 1530.34
v -0.385938 -94.2 1530.6
v -0.385938 -94.2 1530.6
v -0.385938 -94.2 1530.6
v -0.385938 -94.2 1530.6
vn -0.32624 -0.344825 -0.88015
vn 0.0542856 0.576692 -0.815156
vn 0.00886518 -0.429239 -0.903148
vn -0.620644 -0.319717 -0.715948
vn -0.992565 -0.0935379 -0.0778801
vn -0.617592 0.734279 0.281806
vn -0.538319 0.50986 -0.671011
vn 0.017349 0.969063 -0.246204
vn -0.0388278 0.82401 0.565243
vn 0.0278719 0.599071 -0.800211
vn 0.508001 0.761766 0.402054
vn 0.945033 0.0359981 -0.324988
vn -0.781575 -0.416339 -0.464545
vn -0.218896 -0.666361 -0.712774
vn -0.32459 -0.735201 -0.595081
vn -0.54693 0.644809 0.533936
vn 0.174479 -0.769449 -0.614414
vn 0.814846 -0.294921 -0.499047
vn 0.433302 -0.675007 -0.597172
vn 0.816663 -0.444175 -0.368471
vn 0.403887 -0.720836 -0.563268
vn 0.629104 0.622451 0.465599
vn -0.310941 -0.75908 -0.571939
vn 0.855132 -0.419101 -0.305128
vn -0.628225 0.631967 0.453817
vn 0.504214 0.691165 0.517744
vn 0.659243 0.63169 0.407879
vn -0.909128 -0.350441 -0.225115
vn -0.551377 0.717011 0.426473
vn 0.356036 0.784392 0.507904
vn 0.508184 0.732049 0.45371
vn -0.574871 0.712574 0.402196
vn -0.104509 0.853946 0.509758
vn 0.435752 -0.768533 -0.468485
vn -0.974245 -0.183735 -0.130721
vn -0.764089 0.530716 0.366753
vn -0.969821 -0.209411 -0.124875
vn -0.437756 0.761499 0.478006
vn 0.390284 -0.770317 -0.504272
vn 0.202547 0.827529 0.523612
vn -0.521734 -0.679789 -0.515442
vn 0.997657 0.0585812 0.0353283
vn 0.838399 0.455654 0.29911
vn 0.725836 -0.529234 -0.439402
vn 0.996978 -0.0587575 -0.050818
vn 0.545416 -0.653044 -0.52541
vn -0.570774 0.699565 0.429914
vn -0.0634189 0.832142 0.550924
vn 0.487836 0.727448 0.482531
vn -0.998403 -0.0483461 -0.0292206
vn -0.922031 -0.334455 -0.194931
vn -0.732768 -0.543251 -0.409792
vn -0.614638 -0.677458 -0.404068
vn -0.11684 -0.811087 -0.573137
vn 0.0021911 -0.899456 -0.437006
vn 0.0331899 0.881315 0.471362
vn 0.932777 0.295683 0.20615
vn 0.561419 -0.715775 -0.415302
vn 0.224419 0.851025 0.474756
vn 0.923601 -0.355801 -0.142713
vn 0.938684 -0.287767 -0.189901
vn -0.916111 -0.361958 -0.172417
vn 0.210315 -0.923714 -0.320187
vn 0.631656 -0.728608 -0.264841
vn 0.717623 -0.66687 -0.200753
vn 0.953917 -0.290076 -0.0767962
vn -0.2159 0.897137 0.385399
vn 0.685063 -0.690795 -0.231279
vn -0.993197 -0.104241 -0.051893
vn -0.586323 0.765184 0.265929
vn -0.960707 -0.248494 -0.123668
vn -0.994425 0.104518 0.013948
vn -0.655237 0.716733 0.238658
vn -0.477383 -0.838138 -0.263876
vn 0.263872 -0.925981 -0.270057
vn 0.335728 0.895305 0.292772
vn 0.607531 -0.7539 -0.250082
vn -0.873982 0.469485 0.125454
vn -0.995931 0.0813998 0.0386841
vn -0.66857 0.722711 0.175225
vn -0.321411 -0.926258 -0.196826
vn 0.294214 0.93361 0.204475
vn -0.717356 -0.696131 -0.0283198
vn -0.608475 0.790632 0.0682562
vn -0.412087 -0.908423 -0.0703617
vn 0.0743209 -0.98264 -0.169987
vn 0.186094 0.978788 0.0856975
vn 0.808996 -0.579372 -0.0992667
vn 0.994331 -0.100948 -0.0333856
vn 0.20736 -0.975743 -0.0701994
vn -0.806369 0.588873 -0.0547539
vn -0.999855 -0.011946 0.0121728
vn -0.470239 -0.881526 0.0422852
vn 0.0968915 -0.988729 0.114138
vn 0.636346 -0.771256 -0.0151184
vn 0.914047 -0.405281 0.0162904
vn 0.580946 -0.811729 0.0599759
vn -0.184124 -0.982863 0.00891777
vn -0.994654 -0.101534 0.0188245
vn -0.985251 -0.166921 0.0376444
vn -0.43107 -0.889286 0.152803
vn -0.379929 0.923593 -0.051283
vn 0.0610802 -0.976596 0.206227
vn -0.117869 0.971351 -0.206357
vn 0.759378 0.647055 -0.0682976
vn 0.646957 -0.748859 0.143727
vn 0.759951 0.633265 -0.146458
vn 0.998369 -0.0511617 0.025346
vn 0.999061 -0.0157692 0.0403625
vn -0.9839 -0.175941 0.0314026
vn -0.238904 0.937797 -0.251917
vn -0.438988 -0.852347 0.284243
vn -0.929647 0.213526 0.300273
vn -0.692185 -0.64134 0.331004
vn 0.292919 0.954251 0.0600292
vn -0.0427701 -0.904717 0.42386
vn 0.401806 0.845503 0.351678
vn 0.591599 0.786186 0.178669
vn 0.569198 -0.782983 0.250901
vn -0.538319 0.50986 -0.671011
vn 0.0278719 0.599071 -0.800211
vn 0.0835826 -0.0927934 -0.992171
vn 0.833046 0.0823858 -0.547035
vn 0.674116 -0.373415 -0.637283
vn -0.538319 0.50986 -0.671011
vn -0.992495 -0.0766993 -0.0952454
vn -0.809178 0.58728 -0.0182253
vn -0.804254 0.495242 0.328499
vn 0.00141856 0.620598 -0.784128
vn -0.576948 0.816537 0.0199592
vn 0.017349 0.969063 -0.246204
vn -0.378166 0.864208 0.331866
vn 0.378198 0.848658 0.369791
vn 0.807917 0.398159 -0.434441
vn 0.017349 0.969063 -0.246204
vn 0.564308 0.791221 0.235638
vn 0.672352 0.63726 0.37662
vn 0.983037 -0.136679 -0.122297
vn -0.91135 -0.34829 -0.219395
vn -0.553326 0.676833 0.485518
vn 0.0379951 0.842016 0.538112
vn 0.890218 -0.386203 -0.241577
vn 0.998157 0.0285614 0.0535462
vn 0.0122777 -0.852066 -0.523291
vn -0.516202 -0.766633 -0.381851
vn 0.0382749 0.842084 0.537986
vn -0.965183 -0.218684 -0.143527
vn -0.554454 -0.711893 -0.431032
vn -0.98367 -0.151488 -0.0971886
vn -0.611655 -0.640844 -0.463893
vn -0.483662 -0.743038 -0.462563
vn 0.364777 -0.707304 -0.605523
vn 0.64277 -0.645819 -0.412026
vn 0.902775 -0.354885 -0.243009
vn 0.729974 0.59236 0.340951
vn -0.267312 -0.893206 -0.361562
vn 0.0360247 -0.943432 -0.329604
vn 0.815567 0.518489 0.256944
vn 0.353613 0.870765 0.341652
vn 0.957045 0.258946 0.130432
vn -0.439224 0.830438 0.342716
vn -0.965016 0.238885 0.108064
vn -0.98314 0.1723 0.0612188
vn -0.528868 -0.802154 -0.277214
vn -0.98314 0.1723 0.0612188
vn -0.748727 0.628622 0.210337
vn -0.747307 -0.634515 -0.19729
vn -0.988592 0.134128 0.0685262
vn 0.264597 0.918131 0.294999
vn 0.982626 0.17684 0.0563403
vn 0.999784 0.0178862 0.0105562
vn -0.659306 -0.737242 -0.147617
vn 0.0820009 0.975877 0.202334
vn 0.999651 -0.0247424 -0.00925509
vn -0.96471 0.262326 0.0227847
vn 0.516866 0.854991 0.0428931
vn -0.678225 -0.731305 0.072137
vn 0.423784 -0.905538 0.0202115
vn -0.499515 0.8469 -0.182331
vn -0.889361 0.449748 -0.0822386
vn -0.681352 -0.713589 0.162944
vn 0.531242 0.842801 -0.0864135
vn 0.950588 -0.305923 0.0528508
vn 0.543159 -0.806663 0.232966
vn 0.904901 -0.415941 0.0902596
vn -0.727819 -0.637331 0.253156
vn -0.937658 0.30013 0.17527
vn -0.908149 0.414579 0.0582266
vn 0.3183 0.836637 0.445784
vn 0.144279 0.91602 0.374287
vn -0.122625 0.122622 0.984849
vn -0.91851 0.0488534 0.392369
vn -0.0160098 -0.860837 0.508629
vn 0.0392944 -0.0392935 0.998455
vn 0.504745 -0.832468 0.228536
vn 0.0392944 -0.0392935 0.998455
vn 0.973363 0.227741 0.0264235
vn 0.976798 -0.148491 0.154324
vn 0.199146 -0.199142 0.959522
vn 0.114184 -0.827217 0.550158
vn 0.7008 0.560395 0.441403
g grp1
usemtl mtl1
f 4//4 1//1 13//13 
f 7//7 120//120 125//125 
f 129//129 10//10 121//121 
f 10//10 2//2 121//121 
f 122//122 3//3 1//1 
f 18//18 124//124 123//123 
f 134//134 12//12 123//123 
f 18//18 123//123 12//12 
f 1//1 14//14 13//13 
f 14//14 1//1 3//3 
f 14//14 3//3 19//19 
f 17//17 14//14 19//19 
f 124//124 18//18 19//19 
f 126//126 13//13 5//5 
f 25//25 16//16 128//128 
f 5//5 13//13 139//139 
f 6//6 130//130 127//127 
f 127//127 128//128 6//6 
f 128//128 16//16 6//6 
f 135//135 131//131 8//8 
f 132//132 130//130 6//6 
f 132//132 6//6 9//9 
f 9//9 6//6 16//16 
f 26//26 9//9 16//16 
f 11//11 136//136 133//133 
f 11//11 133//133 9//9 
f 26//26 11//11 9//9 
f 11//11 137//137 136//136 
f 11//11 26//26 137//137 
f 15//15 13//13 14//14 
f 15//15 23//23 13//13 
f 17//17 15//15 14//14 
f 23//23 15//15 17//17 
f 21//21 23//23 17//17 
f 17//17 19//19 20//20 
f 17//17 20//20 21//21 
f 24//24 21//21 20//20 
f 18//18 12//12 20//20 
f 18//18 20//20 19//19 
f 137//137 26//26 22//22 
f 12//12 138//138 20//20 
f 23//23 139//139 13//13 
f 140//140 16//16 25//25 
f 26//26 27//27 22//22 
f 20//20 138//138 24//24 
f 23//23 28//28 139//139 
f 23//23 21//21 34//34 
f 23//23 34//34 144//144 
f 138//138 142//142 24//24 
f 32//32 29//29 25//25 
f 140//140 25//25 29//29 
f 24//24 34//34 21//21 
f 139//139 28//28 147//147 
f 30//30 141//141 146//146 
f 29//29 32//32 33//33 
f 146//146 33//33 30//30 
f 31//31 30//30 33//33 
f 26//26 30//30 27//27 
f 34//34 24//24 142//142 
f 27//27 30//30 31//31 
f 32//32 38//38 33//33 
f 43//43 27//27 31//31 
f 38//38 32//32 36//36 
f 147//147 28//28 35//35 
f 39//39 144//144 34//34 
f 42//42 143//143 43//43 
f 142//142 153//153 34//34 
f 31//31 33//33 40//40 
f 147//147 35//35 149//149 
f 35//35 37//37 149//149 
f 148//148 41//41 150//150 
f 41//41 52//52 150//150 
f 47//47 38//38 36//36 
f 52//52 50//50 37//37 
f 37//37 50//50 149//149 
f 33//33 38//38 40//40 
f 151//151 148//148 145//145 
f 148//148 151//151 41//41 
f 48//48 40//40 38//38 
f 38//38 47//47 48//48 
f 44//44 152//152 39//39 
f 48//48 49//49 40//40 
f 34//34 153//153 39//39 
f 40//40 43//43 31//31 
f 44//44 39//39 153//153 
f 40//40 49//49 43//43 
f 43//43 45//45 42//42 
f 45//45 44//44 154//154 
f 61//61 44//44 45//45 
f 52//52 51//51 50//50 
f 52//52 41//41 54//54 
f 44//44 46//46 152//152 
f 152//152 46//46 54//54 
f 61//61 46//46 44//44 
f 36//36 50//50 47//47 
f 49//49 48//48 59//59 
f 43//43 49//49 57//57 
f 155//155 57//57 49//49 
f 45//45 43//43 57//57 
f 51//51 69//69 50//50 
f 50//50 69//69 47//47 
f 52//52 53//53 51//51 
f 53//53 62//62 51//51 
f 62//62 69//69 51//51 
f 47//47 56//56 48//48 
f 52//52 54//54 53//53 
f 54//54 55//55 53//53 
f 156//156 53//53 55//55 
f 54//54 46//46 58//58 
f 56//56 59//59 48//48 
f 54//54 58//58 55//55 
f 46//46 61//61 58//58 
f 60//60 58//58 61//61 
f 60//60 61//61 57//57 
f 61//61 45//45 57//57 
f 47//47 67//67 56//56 
f 67//67 47//47 161//161 
f 59//59 56//56 67//67 
f 158//158 57//57 155//155 
f 60//60 57//57 66//66 
f 62//62 71//71 69//69 
f 55//55 63//63 156//156 
f 63//63 164//164 156//156 
f 58//58 64//64 55//55 
f 64//64 63//63 55//55 
f 63//63 64//64 65//65 
f 58//58 60//60 64//64 
f 60//60 66//66 64//64 
f 64//64 66//66 65//65 
f 65//65 66//66 68//68 
f 66//66 57//57 160//160 
f 65//65 68//68 63//63 
f 57//57 158//158 160//160 
f 67//67 161//161 70//70 
f 72//72 163//163 165//165 
f 163//163 162//162 165//165 
f 67//67 70//70 73//73 
f 166//166 73//73 70//70 
f 76//76 159//159 169//169 
f 170//170 160//160 158//158 
f 63//63 68//68 77//77 
f 164//164 74//74 167//167 
f 74//74 164//164 63//63 
f 160//160 170//170 171//171 
f 78//78 168//168 79//79 
f 172//172 167//167 74//74 
f 73//73 166//166 78//78 
f 80//80 73//73 78//78 
f 172//172 74//74 81//81 
f 76//76 169//169 82//82 
f 82//82 169//169 173//173 
f 157//157 75//75 74//74 
f 75//75 81//81 74//74 
f 75//75 86//86 81//81 
f 170//170 174//174 171//171 
f 77//77 75//75 63//63 
f 75//75 88//88 86//86 
f 77//77 88//88 75//75 
f 81//81 85//85 172//172 
f 81//81 86//86 85//85 
f 171//171 174//174 88//88 
f 89//89 88//88 174//174 
f 83//83 172//172 85//85 
f 78//78 79//79 175//175 
f 84//84 80//80 78//78 
f 78//78 175//175 84//84 
f 82//82 173//173 87//87 
f 86//86 90//90 85//85 
f 84//84 87//87 173//173 
f 176//176 82//82 87//87 
f 88//88 90//90 86//86 
f 84//84 175//175 91//91 
f 102//102 84//84 91//91 
f 85//85 93//93 83//83 
f 175//175 92//92 91//91 
f 93//93 101//101 177//177 
f 83//83 93//93 177//177 
f 87//87 84//84 102//102 
f 94//94 93//93 98//98 
f 101//101 93//93 94//94 
f 178//178 90//90 95//95 
f 176//176 87//87 182//182 
f 97//97 178//178 95//95 
f 97//97 106//106 94//94 
f 90//90 88//88 95//95 
f 88//88 89//89 96//96 
f 88//88 96//96 95//95 
f 95//95 96//96 97//97 
f 97//97 96//96 106//106 
f 98//98 85//85 90//90 
f 98//98 93//93 85//85 
f 178//178 97//97 94//94 
f 91//91 92//92 99//99 
f 92//92 100//100 99//99 
f 177//177 101//101 181//181 
f 101//101 112//112 181//181 
f 104//104 91//91 179//179 
f 100//100 110//110 99//99 
f 181//181 112//112 186//186 
f 94//94 103//103 101//101 
f 103//103 112//112 101//101 
f 102//102 91//91 104//104 
f 94//94 106//106 103//103 
f 107//107 182//182 104//104 
f 105//105 176//176 182//182 
f 89//89 183//183 96//96 
f 96//96 183//183 106//106 
f 182//182 107//107 105//105 
f 107//107 108//108 105//105 
f 179//179 111//111 104//104 
f 187//187 188//188 180//180 
f 103//103 116//116 112//112 
f 104//104 111//111 115//115 
f 106//106 184//184 195//195 
f 106//106 195//195 103//103 
f 107//107 104//104 115//115 
f 119//119 195//195 184//184 
f 183//183 185//185 106//106 
f 108//108 107//107 109//109 
f 115//115 118//118 107//107 
f 107//107 197//197 109//109 
f 198//198 108//108 109//109 
f 113//113 188//188 187//187 
f 114//114 186//186 112//112 
f 113//113 187//187 192//192 
f 116//116 193//193 112//112 
f 115//115 189//189 190//190 
f 117//117 115//115 190//190 
f 196//196 191//191 194//194 
f 199//199 196//196 194//194 
f 200//200 193//193 116//116 
f 118//118 115//115 117//117 
f 117//117 201//201 118//118 
f 197//197 198//198 109//109 
