v -1.01423 -177.801 1473.22
v -1.08284 -177.865 1473.54
v -0.813165 -178.008 1473.27
v -1 -177.556 1473.4
v -0.989974 -178.061 1473.52
v -0.8 -177.6 1473.13
v -0.8 -177.8 1473.08
v -0.674738 -177.603 1473.21
v -0.8 -177.467 1473.4
v -0.613579 -177.796 1473.18
v -0.551562 -177.6 1473.4
v -0.508754 -177.855 1473.53
v -0.585017 -178.054 1473.54
v -0.8 -178.186 1475
v -0.595313 -178 1474.4
v -1.04844 -178.6 1475.4
v -1.03906 -178.8 1475.8
v -0.993078 -178.754 1475.29
v -0.8 -178.8 1475
v -0.8 -178.994 1475.61
v -0.8 -178.468 1475.78
v -0.511174 -178.548 1474.89
v -0.590654 -178.777 1475.18
v -0.489063 -178.6 1475.4
v -0.508979 -178.803 1475.63
v -0.604081 -178.916 1475.59
v -0.598406 -178.988 1475.9
v -0.986275 -178.8 1476.6
v -0.952307 -178.974 1477.17
v -0.985938 -178.8 1477.4
v -0.8 -179.124 1476.24
v -0.8 -178.612 1476.42
v -0.8 -178.623 1477.2
v -0.8 -179.142 1477.2
v -0.502855 -178.782 1476.73
v -0.6 -178.667 1477.2
v -0.604407 -179.078 1477.17
v -0.473757 -178.799 1477.36
v -0.899082 -176.542 1479.02
v -0.789436 -175.763 1479.19
v -0.617844 -176.55 1478.82
v -0.491281 -176.251 1479.06
v -0.937671 -177.924 1478.42
v -0.8 -178.305 1477.8
v -0.8 -178 1478.09
v -0.8 -178.319 1478.4
v -0.782606 -176.878 1479.12
v -0.509129 -177.976 1478.2
v -0.610166 -178.262 1478.4
v -0.448438 -176.8 1479
v -0.894478 -178.392 1477.81
v -0.935938 -178.6 1478
v -0.8 -178.459 1477.58
v -0.796999 -178.741 1477.97
v -0.6 -178.492 1477.6
v -0.473438 -178.8 1477.6
v -0.605316 -178.862 1477.79
v -0.498471 -178.518 1478.04
v -0.784271 -173.389 1480.36
v -0.6 -173.153 1480.4
v -0.864062 -174.6 1479.8
v -0.854688 -173.8 1480.2
v -0.832812 -174 1480.2
v -0.8 -174 1479.96
v -0.596993 -174.707 1479.56
v -0.599643 -173.819 1479.98
v -0.448881 -174.397 1479.93
v -0.454996 -173.737 1480.27
v -0.61734 -174.435 1480.12
v -0.600894 -173.752 1480.49
v -0.860938 -172.4 1482
v -0.8 -172.6 1481.14
v -0.8 -172.6 1481.7
v -0.492188 -172.6 1481.2
v -0.6 -172.73 1481.4
v -0.6 -172.31 1481.8
v -0.6 -172.545 1482
v -0.801587 -172.8 1483.8
v -0.8 -172.512 1482.6
v -0.8 -172.342 1483
v -0.8 -172.457 1483.45
v -0.554688 -172.4 1482.8
v -0.6 -172.6 1482.99
v -0.914063 -172.8 1484.4
v -0.72439 -172.6 1484
v -0.628205 -172.8 1484.2
v -0.800144 -172.898 1484.18
v -0.8 -172.672 1484.4
v -0.8 -172.935 1484.4
v -1.01423 -177.801 1473.22
v -1.01423 -177.801 1473.22
v -1.08284 -177.865 1473.54
v -0.813165 -178.008 1473.27
v -1 -177.556 1473.4
v -1 -177.556 1473.4
v -0.8 -177.6 1473.13
v -0.8 -177.6 1473.13
v -0.8 -177.8 1473.08
v -0.8 -177.8 1473.08
v -0.8 -177.8 1473.08
v -0.674738 -177.603 1473.21
v -0.8 -177.467 1473.4
v -0.8 -177.467 1473.4
v -0.8 -177.467 1473.4
v -0.613579 -177.796 1473.18
v -0.551562 -177.6 1473.4
v -0.551562 -177.6 1473.4
v -0.8 -178.186 1475
v -0.595313 -178 1474.4
v -1.04844 -178.6 1475.4
v -1.04844 -178.6 1475.4
v -1.03906 -178.8 1475.8
v -1.03906 -178.8 1475.8
v -1.03906 -178.8 1475.8
v -0.8 -178.8 1475
v -0.8 -178.994 1475.61
v -0.8 -178.468 1475.78
v -0.8 -178.468 1475.78
v -0.489063 -178.6 1475.4
v -0.604081 -178.916 1475.59
v -0.598406 -178.988 1475.9
v -0.986275 -178.8 1476.6
v -0.985938 -178.8 1477.4
v -0.985938 -178.8 1477.4
v -0.8 -179.124 1476.24
v -0.8 -178.612 1476.42
v -0.8 -178.623 1477.2
v -0.8 -179.142 1477.2
v -0.502855 -178.782 1476.73
v -0.473757 -178.799 1477.36
v -0.899082 -176.542 1479.02
v -0.899082 -176.542 1479.02
v -0.617844 -176.55 1478.82
v -0.617844 -176.55 1478.82
v -0.937671 -177.924 1478.42
v -0.937671 -177.924 1478.42
v -0.8 -178.305 1477.8
v -0.8 -178 1478.09
v -0.8 -178 1478.09
v -0.8 -178.319 1478.4
v -0.782606 -176.878 1479.12
v -0.509129 -177.976 1478.2
v -0.509129 -177.976 1478.2
v -0.448438 -176.8 1479
v -0.448438 -176.8 1479
v -0.894478 -178.392 1477.81
v -0.935938 -178.6 1478
v -0.8 -178.459 1477.58
v -0.796999 -178.741 1477.97
v -0.6 -178.492 1477.6
v -0.473438 -178.8 1477.6
v -0.473438 -178.8 1477.6
v -0.498471 -178.518 1478.04
v -0.6 -173.153 1480.4
v -0.6 -173.153 1480.4
v -0.864062 -174.6 1479.8
v -0.864062 -174.6 1479.8
v -0.854688 -173.8 1480.2
v -0.854688 -173.8 1480.2
v -0.854688 -173.8 1480.2
v -0.832812 -174 1480.2
v -0.8 -174 1479.96
v -0.596993 -174.707 1479.56
v -0.599643 -173.819 1479.98
v -0.448881 -174.397 1479.93
v -0.454996 -173.737 1480.27
v -0.61734 -174.435 1480.12
v -0.600894 -173.752 1480.49
v -0.860938 -172.4 1482
v -0.860938 -172.4 1482
v -0.860938 -172.4 1482
v -0.860938 -172.4 1482
v -0.8 -172.6 1481.14
v -0.8 -172.6 1481.14
v -0.8 -172.6 1481.14
v -0.8 -172.6 1481.14
v -0.8 -172.6 1481.14
v -0.8 -172.6 1481.7
v -0.492188 -172.6 1481.2
v -0.492188 -172.6 1481.2
v -0.492188 -172.6 1481.2
v -0.6 -172.73 1481.4
v -0.6 -172.73 1481.4
v -0.6 -172.31 1481.8
v -0.6 -172.31 1481.8
v -0.6 -172.31 1481.8
v -0.6 -172.545 1482
v -0.6 -172.545 1482
v -0.6 -172.545 1482
v -0.6 -172.545 1482
v -0.801587 -172.8 1483.8
v -0.801587 -172.8 1483.8
v -0.801587 -172.8 1483.8
v -0.801587 -172.8 1483.8
v -0.8 -172.512 1482.6
v -0.8 -172.512 1482.6
v -0.8 -172.512 1482.6
v -0.8 -172.512 1482.6
v -0.8 -172.512 1482.6
v -0.8 -172.342 1483
v -0.8 -172.342 1483
v -0.8 -172.342 1483
v -0.8 -172.457 1483.45
v -0.554688 -172.4 1482.8
v -0.554688 -172.4 1482.8
v -0.554688 -172.4 1482.8
v -0.554688 -172.4 1482.8
v -0.6 -172.6 1482.99
v -0.6 -172.6 1482.99
v -0.914063 -172.8 1484.4
v -0.914063 -172.8 1484.4
v -0.914063 -172.8 1484.4
v -0.72439 -172.6 1484
v -0.72439 -172.6 1484
v -0.72439 -172.6 1484
v -0.628205 -172.8 1484.2
v -0.628205 -172.8 1484.2
v -0.628205 -172.8 1484.2
v -0.800144 -172.898 1484.18
v -0.8 -172.672 1484.4
v -0.8 -172.672 1484.4
v -0.8 -172.672 1484.4
v -0.8 -172.672 1484.4
v -0.8 -172.935 1484.4
v -0.8 -172.935 1484.4
v -0.8 -172.935 1484.4
vn -0.96814 0.183519 -0.170371
vn -0.967236 0.253475 -0.0143091
vn -0.436553 -0.71738 -0.542943
vn -0.967236 0.253475 -0.0143091
vn -0.681549 -0.645797 -0.344148
vn -0.55645 0.532265 -0.63801
vn -0.529819 0.205889 -0.82274
vn 0.376827 0.850622 -0.366666
vn -0.371844 0.833133 -0.409417
vn 0.789511 0.109947 -0.603808
vn 0.950303 0.202354 -0.236593
vn 0.99497 -0.0254758 -0.0968806
vn 0.665103 -0.651896 -0.364238
vn -0.575775 0.74852 0.328939
vn 0.312671 0.879023 0.359939
vn -0.938041 0.316017 0.142171
vn -0.79374 0.58132 0.17901
vn -0.811161 -0.556473 -0.179875
vn -0.495354 -0.809001 -0.316451
vn -0.647917 -0.741119 -0.175916
vn -0.731753 0.653327 0.194167
vn 0.91421 -0.377586 -0.147137
vn 0.677526 -0.691351 -0.250984
vn 0.71594 0.666266 0.208616
vn 0.900934 -0.420456 -0.107402
vn 0.341911 -0.904205 -0.255951
vn 0.382337 -0.910232 -0.15905
vn -0.707551 0.704078 0.0603795
vn -0.863045 -0.486744 0.135034
vn -0.730643 0.641742 -0.233084
vn -0.740787 -0.668784 -0.0629576
vn -0.65932 0.746025 0.0935082
vn -0.736176 0.672288 -0.0779389
vn -0.745628 -0.648126 0.154824
vn 0.964915 -0.261997 -0.0172324
vn 0.537661 0.829632 -0.150438
vn 0.649184 -0.756487 0.0792885
vn 0.932408 -0.360445 -0.0263404
vn -0.638448 0.313486 -0.70293
vn -0.558238 0.3127 -0.768498
vn -0.456373 0.355597 -0.815644
vn 0.833004 0.184965 -0.521433
vn -0.837476 0.345346 -0.42352
vn -0.622138 0.589056 -0.515711
vn -0.516623 0.436608 -0.736529
vn -0.701556 -0.416189 0.578451
vn -0.812228 -0.213422 0.542897
vn 0.253135 0.575467 -0.777663
vn 0.414488 -0.545814 0.728208
vn 0.916294 0.143547 -0.373897
vn -0.672251 0.566346 -0.476792
vn -0.72424 -0.541265 0.427209
vn -0.705562 0.599247 -0.378265
vn -0.630104 -0.651048 0.423208
vn 0.135983 0.818626 -0.557996
vn 0.803903 -0.556585 0.209648
vn 0.435157 -0.763861 0.476607
vn 0.997202 0.0387169 -0.0639487
vn -0.662032 0.438252 -0.607988
vn -0.526028 0.521543 -0.67178
vn -0.647171 0.293045 -0.703771
vn -0.545349 0.500074 -0.672697
vn -0.990676 0.0164432 -0.135241
vn -0.461399 0.438242 -0.771399
vn -0.422117 0.355028 -0.83413
vn -0.460207 0.475248 -0.749899
vn 0.862257 0.213079 -0.459467
vn 0.851404 0.289764 -0.437205
vn 0.690854 -0.306792 0.654675
vn -0.632184 -0.345761 0.693392
vn -0.956581 -0.291465 0
vn -0.781267 0.430206 -0.452267
vn -0.956581 -0.291465 0
vn 0.898205 0.29563 -0.325317
vn -0.714651 -0.43988 0.543856
vn -0.413183 0.900888 -0.13297
vn -0.314709 -0.876119 0.365205
vn -0.787011 -0.599037 -0.147539
vn -0.48188 -0.868797 -0.113945
vn -0.999535 -0.0280631 0.0119474
vn -0.701602 0.692801 0.166679
vn 0.997929 -0.0416915 -0.0489773
vn 0.0345447 -0.971911 -0.232799
vn -0.701602 0.692801 0.166679
vn 0.277305 0.938114 0.20747
vn 0.91666 0.0433931 -0.397306
vn -0.776766 -0.616467 -0.128851
vn -0.738366 0.657626 0.149482
vn -0.759726 -0.641057 -0.108911
vn -0.647168 -0.566605 -0.510032
vn -0.61311 0.343099 -0.711603
vn -0.916354 -0.360631 -0.173899
vn 0.401352 -0.737722 -0.542847
vn -0.539677 0.671637 -0.507594
vn -0.497904 0.784012 0.370697
vn 0.302202 0.855524 -0.42042
vn 0.504472 0.25535 -0.824805
vn -0.435983 -0.586356 -0.68272
vn 0.470145 0.214259 -0.856187
vn 0.385512 -0.630337 -0.673836
vn 0.672006 0.318816 -0.668405
vn -0.377074 0.844851 0.379529
vn 0.376827 0.850622 -0.366666
vn 0.395882 0.84161 0.367383
vn 0.444833 -0.65941 -0.606054
vn 0.448256 0.838504 -0.309801
vn 0.441668 0.826181 0.349791
vn 0.245436 0.89913 0.36239
vn 0.866981 0.450993 0.212013
vn -0.957177 -0.271308 -0.101018
vn -0.700197 0.64807 0.29955
vn -0.957926 -0.265068 -0.110076
vn -0.722438 -0.684038 -0.10087
vn -0.997622 0.0204242 0.065834
vn 0.347855 -0.86901 -0.351879
vn 0.332525 -0.909827 -0.248279
vn 0.138591 0.931608 0.336004
vn 0.510408 0.830347 0.223626
vn 0.968305 -0.235656 -0.0827742
vn 0.778106 -0.605365 -0.167584
vn 0.901374 -0.429081 -0.0584284
vn -0.995804 -0.0852265 0.0333275
vn -0.935688 -0.333408 0.115447
vn -0.978462 0.206024 0.0128654
vn 0.370316 -0.924457 -0.0908023
vn 0.368099 0.928572 0.0475048
vn 0.201844 0.943851 -0.261543
vn 0.18643 -0.947167 0.260994
vn 0.539327 0.839986 0.059581
vn 0.841105 0.534659 -0.081743
vn -0.888022 0.203672 -0.412231
vn -0.878136 -0.167141 0.448265
vn 0.790888 0.219805 -0.571123
vn 0.301513 0.399099 -0.865915
vn -0.817978 -0.25708 0.514609
vn -0.988082 0.0793392 -0.131903
vn 0.0468467 0.752738 -0.656652
vn -0.767287 0.419643 -0.484943
vn 0.139028 0.620291 -0.771952
vn 0.184161 -0.578453 0.794656
vn 0.313742 -0.404194 0.859182
vn 0.837858 0.343916 -0.423929
vn 0.973927 0.114888 -0.195621
vn 0.526689 -0.339395 0.779365
vn 0.841487 -0.282835 0.460331
vn -0.987864 0.143348 -0.0597968
vn -0.987864 0.143348 -0.0597968
vn 0.18396 0.857333 -0.480769
vn 0.104114 -0.774535 0.623904
vn 0.87966 0.421172 -0.220937
vn 0.90305 0.370675 -0.217027
vn 0.998466 0.00315246 0.0552815
vn 0.735962 -0.472346 0.485025
vn 0.859117 0.305078 -0.410907
vn 0.114727 0.809969 -0.575141
vn -0.746923 -0.273532 0.606041
vn -0.980999 0.140378 -0.13392
vn -0.915909 0.272357 -0.294843
vn -0.735552 -0.324333 0.594787
vn -0.985042 -0.107745 -0.134472
vn -0.634349 -0.302054 0.711593
vn -0.990676 0.0164432 -0.135241
vn 0.773055 0.250437 -0.582809
vn 0.816898 0.275164 -0.506915
vn 0.752262 -0.267119 0.602287
vn 0.814407 -0.318826 0.484862
vn -0.620908 -0.346719 0.703036
vn 0.786745 -0.362783 0.499421
vn -0.413183 0.900888 -0.13297
vn -0.437848 -0.789411 0.430255
vn -0.48188 -0.868797 -0.113945
vn -0.984181 -0.16301 0.0693985
vn -0.822031 -0.327115 0.466112
vn -0.956581 -0.291465 0
vn -0.545542 -0.838083 0
vn -0.471152 0.851268 -0.230995
vn 0.0998231 0.860006 -0.500425
vn -0.400855 -0.882042 0.247622
vn 0.0998231 0.860006 -0.500425
vn 0.89723 -0.367841 0.244278
vn 0.986314 0.106872 0.125549
vn 0.860199 -0.39182 0.326396
vn -0.375065 -0.914873 0.149444
vn 0.0840895 0.902898 -0.42155
vn 0.998718 0.0328072 0.0385404
vn 0.284963 0.955735 0.0732608
vn -0.48188 -0.868797 -0.113945
vn 0.998718 0.0328072 0.0385404
vn 0.862116 -0.484112 0.149641
vn 0.306375 -0.939596 0.152622
vn 0.0345447 -0.971911 -0.232799
vn 0.885564 -0.451401 0.109607
vn 0.91666 0.0433931 -0.397306
vn 0.500416 -0.838177 -0.216894
vn -0.999535 -0.0280631 0.0119474
vn -0.781143 -0.606936 -0.146439
vn 0.0345447 -0.971911 -0.232799
vn 0.306375 -0.939596 0.152622
vn 0.652716 -0.599452 -0.46327
vn -0.662814 0.725978 0.183395
vn -0.348839 0.936605 -0.0328928
vn 0.34094 0.92805 0.149941
vn 0.31665 0.924145 0.21375
vn 0.33277 0.928192 0.166507
vn 0.306375 -0.939596 0.152622
vn 0.652716 -0.599452 -0.46327
vn 0.986989 -0.104541 0.12216
vn 0.951965 -0.282629 0.117825
vn 0.652716 -0.599452 -0.46327
vn -0.993152 0.107494 -0.0457636
vn -0.778262 -0.613317 -0.134723
vn 0 0 1
vn 0.951965 -0.282629 0.117825
vn 0.91666 0.0433931 -0.397306
vn 0.74947 0.6123 0.25176
vn 0.74947 0.6123 0.25176
vn 0.501181 -0.84609 -0.181517
vn 0.758491 0 0.651684
vn 0.501181 -0.84609 -0.181517
vn 0 0 1
vn 0.23797 0.947113 0.215284
vn 0.74947 0.6123 0.25176
vn 0.758491 0 0.651684
vn 0 0 1
vn 0.501288 -0.852891 -0.145901
vn 0.758491 0 0.651684
g grp1
usemtl mtl1
f 4//4 1//1 2//2 
f 90//90 5//5 92//92 
f 16//16 4//4 2//2 
f 92//92 5//5 18//18 
f 5//5 19//19 18//18 
f 92//92 18//18 110//110 
f 91//91 6//6 7//7 
f 3//3 90//90 98//98 
f 6//6 94//94 9//9 
f 6//6 91//91 94//94 
f 90//90 3//3 5//5 
f 5//5 3//3 19//19 
f 95//95 14//14 102//102 
f 95//95 111//111 14//14 
f 96//96 103//103 8//8 
f 101//101 11//11 10//10 
f 101//101 10//10 97//97 
f 97//97 10//10 99//99 
f 105//105 93//93 100//100 
f 106//106 8//8 103//103 
f 105//105 13//13 93//93 
f 93//93 13//13 115//115 
f 108//108 15//15 104//104 
f 10//10 11//11 12//12 
f 13//13 10//10 12//12 
f 107//107 104//104 15//15 
f 109//109 12//12 11//11 
f 13//13 12//12 22//22 
f 111//111 21//21 14//14 
f 117//117 15//15 108//108 
f 118//118 24//24 109//109 
f 109//109 24//24 12//12 
f 12//12 119//119 22//22 
f 17//17 21//21 111//111 
f 110//110 18//18 112//112 
f 18//18 19//19 20//20 
f 20//20 113//113 18//18 
f 17//17 28//28 21//21 
f 20//20 31//31 113//113 
f 23//23 115//115 13//13 
f 23//23 116//116 115//115 
f 23//23 26//26 116//116 
f 27//27 116//116 26//26 
f 27//27 125//125 116//116 
f 23//23 13//13 22//22 
f 22//22 119//119 23//23 
f 23//23 119//119 25//25 
f 23//23 25//25 120//120 
f 25//25 119//119 35//35 
f 121//121 120//120 25//25 
f 121//121 25//25 35//35 
f 24//24 118//118 129//129 
f 28//28 32//32 21//21 
f 29//29 122//122 114//114 
f 31//31 34//34 29//29 
f 113//113 31//31 29//29 
f 33//33 32//32 28//28 
f 33//33 28//28 30//30 
f 122//122 29//29 123//123 
f 30//30 53//53 33//33 
f 27//27 37//37 125//125 
f 37//37 128//128 125//125 
f 118//118 126//126 129//129 
f 129//129 126//126 36//36 
f 36//36 126//126 127//127 
f 36//36 127//127 55//55 
f 55//55 127//127 148//148 
f 57//57 128//128 37//37 
f 121//121 35//35 38//38 
f 121//121 38//38 37//37 
f 36//36 130//130 129//129 
f 36//36 150//150 130//130 
f 37//37 38//38 56//56 
f 151//151 130//130 150//150 
f 56//56 57//57 37//37 
f 61//61 40//40 39//39 
f 65//65 41//41 40//40 
f 40//40 41//41 39//39 
f 41//41 45//45 39//39 
f 133//133 163//163 42//42 
f 50//50 133//133 42//42 
f 163//163 67//67 42//42 
f 42//42 67//67 50//50 
f 144//144 165//165 69//69 
f 44//44 53//53 51//51 
f 44//44 51//51 138//138 
f 138//138 51//51 43//43 
f 46//46 135//135 52//52 
f 138//138 43//43 131//131 
f 132//132 135//135 47//47 
f 47//47 135//135 46//46 
f 148//148 137//137 55//55 
f 137//137 139//139 55//55 
f 55//55 139//139 48//48 
f 134//134 48//48 139//139 
f 141//141 140//140 49//49 
f 150//150 142//142 151//151 
f 143//143 50//50 58//58 
f 143//143 58//58 152//152 
f 49//49 153//153 145//145 
f 50//50 143//143 133//133 
f 49//49 144//144 141//141 
f 141//141 144//144 69//69 
f 53//53 30//30 51//51 
f 146//146 124//124 147//147 
f 123//123 29//29 52//52 
f 146//146 147//147 136//136 
f 54//54 52//52 29//29 
f 29//29 34//34 54//54 
f 52//52 54//54 46//46 
f 57//57 149//149 128//128 
f 49//49 140//140 149//149 
f 57//57 49//49 149//149 
f 57//57 56//56 153//153 
f 153//153 49//49 57//57 
f 59//59 66//66 62//62 
f 60//60 59//59 72//72 
f 158//158 72//72 59//59 
f 59//59 60//60 66//66 
f 173//173 159//159 75//75 
f 164//164 154//154 68//68 
f 64//64 65//65 61//61 
f 66//66 64//64 62//62 
f 160//160 162//162 63//63 
f 167//167 161//161 156//156 
f 157//157 63//63 162//162 
f 70//70 159//159 161//161 
f 65//65 64//64 66//66 
f 70//70 161//161 167//167 
f 159//159 70//70 75//75 
f 163//163 164//164 67//67 
f 164//164 68//68 67//67 
f 69//69 166//166 168//168 
f 165//165 166//166 69//69 
f 168//168 166//166 182//182 
f 156//156 132//132 47//47 
f 167//167 156//156 47//47 
f 65//65 40//40 61//61 
f 71//71 174//174 73//73 
f 183//183 178//178 175//175 
f 176//176 169//169 76//76 
f 77//77 178//178 183//183 
f 77//77 170//170 178//178 
f 187//187 79//79 171//171 
f 74//74 68//68 154//154 
f 177//177 179//179 155//155 
f 182//182 166//166 180//180 
f 184//184 179//179 177//177 
f 181//181 185//185 188//188 
f 182//182 180//180 189//189 
f 185//185 82//82 188//188 
f 172//172 195//195 80//80 
f 84//84 81//81 200//200 
f 80//80 195//195 210//210 
f 196//196 78//78 211//211 
f 76//76 169//169 201//201 
f 186//186 202//202 204//204 
f 197//197 83//83 191//191 
f 203//203 204//204 202//202 
f 204//204 203//203 85//85 
f 208//208 213//213 192//192 
f 214//214 86//86 193//193 
f 190//190 205//205 198//198 
f 209//209 199//199 206//206 
f 207//207 213//213 208//208 
f 81//81 84//84 88//88 
f 78//78 87//87 211//211 
f 87//87 89//89 211//211 
f 212//212 224//224 220//220 
f 85//85 203//203 221//221 
f 222//222 216//216 215//215 
f 194//194 217//217 219//219 
f 219//219 217//217 225//225 
f 218//218 223//223 226//226 
