v -1.07445 -50.9932 1464.61
v -0.991585 -51.2004 1464.54
v -0.790574 -51.0037 1464.44
v -0.78536 -51.209 1464.44
v -0.802619 -50.7282 1464.61
v -0.80147 -51.4481 1464.62
v -0.600079 -51.3909 1464.53
v -0.600412 -51.486 1464.65
v -0.421124 -50.8165 1464.6
v -0.413854 -51.1926 1464.49
v -0.405071 -51.4146 1464.65
v -0.21558 -51.0079 1464.65
v -1.1876 -50.9964 1464.83
v -1.19875 -51.2538 1465.24
v -1.18321 -51.1529 1464.8
v -1.05402 -51.4129 1464.91
v -1.1818 -51.0837 1465.54
v -0.98996 -50.7176 1464.81
v -1.0013 -50.8148 1465.41
v -0.778923 -50.632 1464.83
v -0.801697 -51.7506 1465.77
v -0.799941 -50.6959 1465.32
v -0.414135 -51.7824 1466.06
v -0.426676 -50.9836 1466.4
v -0.140705 -51.3752 1465.59
v -0.205581 -50.9622 1465.57
v -1.00756 -52.1509 1468.22
v -1.13452 -52.2828 1470.16
v -1.05702 -52.1404 1470.62
v -0.802901 -52.4917 1472.87
v -0.231242 -54.3301 1478.4
v -1.0483 -54.5451 1480.73
v -0.998424 -54.7454 1480.28
v -0.394548 -54.9444 1480.63
v -0.406668 -54.6677 1482.24
v -0.178004 -54.4292 1480.02
v -0.784212 -55.3639 1482.39
v -0.232136 -55.192 1482.37
v -0.400278 -55.7327 1484.09
v -0.191805 -55.4412 1483.98
v -1.02468 -55.5577 1484.42
v -0.24056 -55.2394 1484.15
v -1.02237 -55.8062 1486.21
v -0.995992 -55.5429 1485.37
v -0.968878 -56.004 1485.86
v -0.80206 -55.3331 1485.26
v -1.02497 -56.3927 1488.03
v -0.934205 -56.0197 1487.83
v -1.02945 -56.3908 1488.94
v -1.04792 -56.5845 1489.35
v -1.03026 -56.5924 1489.6
v -0.976064 -56.3945 1489.36
v -0.901252 -56.607 1489.79
v -0.798035 -56.4127 1489.78
v -0.606425 -56.1979 1489.33
v -0.59345 -56.408 1489.84
v -0.615211 -56.6003 1489.92
v -0.389833 -56.0957 1488.68
v -0.402676 -56.2802 1489.57
v -0.262732 -56.3989 1489.56
v -0.404579 -56.3966 1489.78
v -0.285103 -56.6014 1489.78
v -0.414814 -56.6016 1489.89
v -0.167405 -56.3429 1488.57
v -0.158845 -56.5971 1489.56
v -0.993824 -56.7815 1489.55
v -0.811815 -56.8732 1489.05
v -0.782167 -56.9713 1489.59
v -0.790985 -56.7966 1489.84
v -0.607036 -56.9042 1488.96
v -0.593188 -56.7917 1489.89
v -0.599548 -56.9123 1489.79
v -0.410163 -56.9408 1489.44
v -0.40268 -56.8484 1489.79
v -0.205322 -56.7109 1489.06
v -0.204653 -56.7916 1489.6
v -0.790574 -51.0037 1464.44
v -0.78536 -51.209 1464.44
v -0.802619 -50.7282 1464.61
v -0.802619 -50.7282 1464.61
v -0.421124 -50.8165 1464.6
v -0.421124 -50.8165 1464.6
v -0.421124 -50.8165 1464.6
v -0.413854 -51.1926 1464.49
v -0.405071 -51.4146 1464.65
v -0.21558 -51.0079 1464.65
v -0.21558 -51.0079 1464.65
v -0.21558 -51.0079 1464.65
v -0.778923 -50.632 1464.83
v -0.778923 -50.632 1464.83
v -0.140705 -51.3752 1465.59
v -0.205581 -50.9622 1465.57
v -0.205581 -50.9622 1465.57
v -0.998424 -54.7454 1480.28
v -0.394548 -54.9444 1480.63
v -0.406668 -54.6677 1482.24
v -0.178004 -54.4292 1480.02
v -0.995992 -55.5429 1485.37
v -1.03026 -56.5924 1489.6
v -0.901252 -56.607 1489.79
v -0.59345 -56.408 1489.84
v -0.389833 -56.0957 1488.68
v -0.402676 -56.2802 1489.57
v -0.404579 -56.3966 1489.78
v -0.285103 -56.6014 1489.78
v -0.158845 -56.5971 1489.56
v -0.158845 -56.5971 1489.56
v -0.782167 -56.9713 1489.59
v -0.790985 -56.7966 1489.84
v -0.599548 -56.9123 1489.79
v -0.40268 -56.8484 1489.79
v -0.205322 -56.7109 1489.06
v -0.204653 -56.7916 1489.6
v -0.204653 -56.7916 1489.6
vn -0.71154 0.286099 -0.641761
vn -0.62231 -0.313235 -0.717367
vn -0.469975 0.182843 -0.863535
vn -0.424365 -0.0102374 -0.905433
vn -0.469158 0.663147 -0.583204
vn -0.316445 -0.775949 -0.545679
vn 0.115533 -0.623959 -0.77287
vn 0.0990867 -0.916829 -0.386789
vn 0.278342 0.354761 -0.892564
vn 0.297326 -0.0574532 -0.953046
vn 0.452379 -0.763942 -0.460158
vn 0.459669 0.254905 -0.850722
vn -0.938593 0.321485 -0.125264
vn -0.967821 -0.244669 -0.0588179
vn -0.907932 -0.232532 -0.348695
vn -0.681579 -0.680339 -0.269423
vn -0.942837 0.325616 0.0709356
vn -0.596532 0.783186 -0.175411
vn -0.664921 0.733222 0.142357
vn -0.363533 0.923341 -0.123629
vn -0.294918 -0.931148 -0.214446
vn -0.180411 0.968391 0.172254
vn 0.394711 -0.895648 -0.204983
vn 0.333321 0.926874 0.17263
vn 0.88572 -0.368747 -0.282002
vn 0.686926 0.725411 -0.0437235
vn -0.752812 -0.644495 -0.133795
vn -0.996744 -0.0804169 -0.00587452
vn -0.797352 0.586421 0.14262
vn -0.32266 0.921257 0.217201
vn 0.829891 -0.547225 -0.108745
vn -0.966423 0.249369 0.0619835
vn -0.96652 -0.251236 -0.0521409
vn 0.0667759 -0.97393 -0.216797
vn 0.0771312 0.973193 0.216671
vn 0.693715 0.702333 0.159651
vn -0.316517 -0.925405 -0.208429
vn 0.827963 -0.54615 -0.127267
vn 0.492547 -0.848883 -0.191822
vn 0.974191 -0.220278 -0.0492886
vn -0.965265 -0.255347 -0.0553367
vn 0.853231 0.50938 0.111933
vn -0.96467 0.255288 0.0651159
vn -0.671338 0.718046 0.183618
vn -0.867119 -0.485376 -0.111871
vn -0.462497 0.863572 0.200846
vn -0.982407 -0.180024 -0.0496754
vn -0.789369 0.600452 0.127884
vn -0.950127 0.306765 0.0561588
vn -0.997847 0.0520334 0.0399343
vn -0.921965 -0.244947 0.299971
vn -0.756352 0.626773 0.187316
vn -0.796649 -0.292968 0.528696
vn -0.503068 0.632672 0.588768
vn -0.154266 0.945819 0.285707
vn -0.036587 0.924961 0.378298
vn -0.188773 0.129105 0.973497
vn 0.165977 0.963841 0.208477
vn -0.0202341 0.938599 0.344417
vn 0.759477 0.581742 0.291154
vn -0.0609554 0.902942 0.425417
vn 0.720596 0.409542 0.559478
vn 0.383886 0.0786907 0.920021
vn 0.956302 0.287034 0.0556597
vn 0.848638 0.444584 0.286632
vn -0.853865 -0.485232 0.188319
vn -0.565107 -0.809069 -0.161435
vn -0.18298 -0.98168 -0.0531301
vn -0.510432 -0.629691 0.585617
vn 0.00193454 -0.982475 -0.186386
vn 0.0604599 -0.403206 0.91311
vn -0.107729 -0.719614 0.685967
vn 0.370279 -0.928917 0.00277659
vn 0.492213 -0.406628 0.769662
vn 0.981851 -0.185116 -0.0412486
vn 0.97114 -0.235655 -0.0368004
vn 0.168138 0.271599 -0.947609
vn -0.0837453 -0.370616 -0.925003
vn 0.10183 0.516511 -0.850204
vn 0.197975 0.892115 -0.406125
vn 0.197975 0.892115 -0.406125
vn 0.686926 0.725411 -0.0437235
vn 0.375329 0.922804 0.0869592
vn 0.88572 -0.368747 -0.282002
vn 0.954242 -0.144605 -0.261749
vn 0.76818 -0.57248 -0.286648
vn 0.686926 0.725411 -0.0437235
vn 0.987847 0.154322 -0.0184992
vn 0.197975 0.892115 -0.406125
vn 0.412837 0.904126 0.110095
vn 0.958352 -0.27528 -0.0760439
vn 0.987787 0.155571 0.00861002
vn 0.439262 0.887366 0.140112
vn -0.589088 -0.790608 -0.167076
vn 0.762776 -0.631642 -0.138568
vn 0.711358 0.68638 0.151172
vn 0.979753 -0.196047 -0.0406138
vn -0.990728 0.132972 0.0278505
vn -0.821359 0.472206 0.319985
vn -0.538835 0.24441 0.806176
vn 0.0379857 0.397287 0.916908
vn 0.713348 0.685681 0.144834
vn 0.629473 0.726288 0.276169
vn 0.579777 0.505622 0.638909
vn 0.739664 -0.236048 0.630221
vn 0.977997 -0.20377 -0.0447263
vn 0.866598 -0.111909 0.486296
vn -0.49186 -0.726136 0.480416
vn -0.335451 -0.0734413 0.93919
vn 0.219654 -0.95503 0.199173
vn 0.380296 -0.895992 0.229289
vn 0.665994 -0.730727 -0.149968
vn 0.796822 -0.217567 0.563684
vn 0.560756 -0.826335 0.0521849
g grp1
usemtl mtl1
f 1//1 3//3 2//2 
f 18//18 1//1 13//13 
f 13//13 1//1 15//15 
f 1//1 2//2 15//15 
f 2//2 16//16 15//15 
f 5//5 3//3 1//1 
f 3//3 4//4 2//2 
f 6//6 2//2 78//78 
f 1//1 18//18 5//5 
f 5//5 18//18 20//20 
f 2//2 6//6 16//16 
f 16//16 6//6 21//21 
f 78//78 7//7 6//6 
f 6//6 7//7 8//8 
f 8//8 21//21 6//6 
f 77//77 79//79 9//9 
f 9//9 10//10 77//77 
f 77//77 10//10 78//78 
f 78//78 10//10 7//7 
f 7//7 10//10 11//11 
f 8//8 7//7 11//11 
f 89//89 81//81 80//80 
f 11//11 23//23 8//8 
f 23//23 21//21 8//8 
f 10//10 9//9 12//12 
f 86//86 25//25 84//84 
f 25//25 85//85 84//84 
f 11//11 91//91 23//23 
f 87//87 82//82 26//26 
f 91//91 88//88 92//92 
f 15//15 14//14 13//13 
f 19//19 18//18 13//13 
f 17//17 19//19 13//13 
f 15//15 16//16 14//14 
f 13//13 14//14 17//17 
f 20//20 18//18 22//22 
f 22//22 18//18 19//19 
f 30//30 22//22 19//19 
f 22//22 24//24 90//90 
f 24//24 22//22 30//30 
f 90//90 24//24 83//83 
f 93//93 24//24 36//36 
f 24//24 93//93 83//83 
f 91//91 92//92 97//97 
f 27//27 16//16 21//21 
f 14//14 28//28 17//17 
f 29//29 19//19 17//17 
f 17//17 28//28 29//29 
f 16//16 27//27 14//14 
f 14//14 27//27 28//28 
f 19//19 29//29 30//30 
f 27//27 33//33 28//28 
f 32//32 29//29 28//28 
f 28//28 33//33 32//32 
f 30//30 29//29 46//46 
f 24//24 30//30 46//46 
f 46//46 35//35 24//24 
f 27//27 21//21 94//94 
f 21//21 23//23 37//37 
f 37//37 94//94 21//21 
f 29//29 32//32 46//46 
f 23//23 34//34 37//37 
f 23//23 31//31 95//95 
f 23//23 91//91 31//31 
f 91//91 97//97 31//31 
f 33//33 41//41 32//32 
f 95//95 31//31 97//97 
f 96//96 36//36 24//24 
f 95//95 97//97 38//38 
f 94//94 37//37 41//41 
f 32//32 44//44 46//46 
f 41//41 98//98 32//32 
f 35//35 46//46 55//55 
f 55//55 58//58 35//35 
f 42//42 36//36 96//96 
f 102//102 42//42 96//96 
f 37//37 34//34 39//39 
f 38//38 40//40 39//39 
f 95//95 38//38 39//39 
f 38//38 97//97 40//40 
f 40//40 97//97 42//42 
f 98//98 41//41 43//43 
f 45//45 41//41 37//37 
f 43//43 41//41 45//45 
f 37//37 67//67 45//45 
f 64//64 40//40 42//42 
f 102//102 64//64 42//42 
f 43//43 45//45 47//47 
f 44//44 43//43 46//46 
f 47//47 45//45 67//67 
f 48//48 46//46 43//43 
f 67//67 37//37 70//70 
f 55//55 46//46 48//48 
f 37//37 39//39 70//70 
f 64//64 75//75 40//40 
f 40//40 112//112 39//39 
f 43//43 47//47 48//48 
f 47//47 49//49 48//48 
f 55//55 48//48 52//52 
f 70//70 39//39 73//73 
f 39//39 112//112 73//73 
f 50//50 52//52 49//49 
f 49//49 47//47 50//50 
f 50//50 66//66 51//51 
f 53//53 51//51 66//66 
f 48//48 49//49 52//52 
f 66//66 47//47 67//67 
f 50//50 47//47 66//66 
f 99//99 54//54 52//52 
f 50//50 99//99 52//52 
f 100//100 54//54 99//99 
f 54//54 100//100 57//57 
f 53//53 66//66 69//69 
f 57//57 100//100 109//109 
f 55//55 52//52 54//54 
f 56//56 55//55 54//54 
f 101//101 54//54 57//57 
f 57//57 109//109 71//71 
f 58//58 55//55 59//59 
f 59//59 55//55 61//61 
f 61//61 55//55 56//56 
f 63//63 104//104 101//101 
f 101//101 57//57 63//63 
f 63//63 57//57 71//71 
f 102//102 103//103 60//60 
f 104//104 60//60 103//103 
f 65//65 60//60 62//62 
f 60//60 104//104 62//62 
f 62//62 104//104 63//63 
f 74//74 105//105 63//63 
f 71//71 74//74 63//63 
f 75//75 64//64 106//106 
f 64//64 102//102 60//60 
f 60//60 65//65 64//64 
f 75//75 106//106 76//76 
f 113//113 107//107 105//105 
f 74//74 113//113 105//105 
f 66//66 67//67 68//68 
f 66//66 108//108 69//69 
f 67//67 70//70 68//68 
f 72//72 69//69 108//108 
f 72//72 71//71 69//69 
f 70//70 73//73 68//68 
f 73//73 110//110 68//68 
f 73//73 111//111 110//110 
f 74//74 71//71 72//72 
f 112//112 114//114 73//73 
f 114//114 111//111 73//73 
