v -30.1451 -56.5368 1550.94
v -30.2645 -56.4004 1551.1
v -30.2655 -56.5015 1551.1
v -30.1341 -56.4262 1550.93
v -30.1921 -56.2762 1551.1
v -30.1475 -56.64 1551.05
v -30.0506 -56.2934 1550.96
v -30.0931 -56.2158 1551.1
v -29.9248 -56.2487 1551.02
v -29.7398 -56.8649 1550.76
v -30.2294 -56.3057 1551.2
v -30.2762 -56.4037 1551.2
v -30.2733 -56.4964 1551.2
v -30.2205 -56.5944 1551.2
v -30.2332 -56.4003 1551.3
v -30.2264 -56.4999 1551.3
v -30.1002 -56.215 1551.2
v -30.0771 -56.6863 1551.18
v -30.0992 -56.3042 1551.35
v -30.0969 -56.5038 1551.39
v -30.1045 -56.5961 1551.33
v -30.102 -56.4061 1551.4
v -29.959 -56.226 1551.16
v -30.0016 -56.2447 1551.29
v -29.9949 -56.3056 1551.36
v -29.9629 -56.6144 1551.31
v -30.0031 -56.3968 1551.4
v -29.9953 -56.495 1551.4
v -29.8409 -56.32 1551.23
v -29.876 -56.4132 1551.33
v -29.7542 -56.5335 1551.23
v -29.3756 -56.7089 1550.24
v -29.1293 -56.6852 1550.16
v -28.9388 -57.0735 1549.81
v -28.9725 -57.165 1549.89
v -28.9179 -57.0872 1550.39
v -29.6005 -56.8595 1550.89
v -29.2389 -57.0868 1550.45
v -28.9368 -56.829 1550.47
v -28.6964 -57.3637 1549.83
v -28.6414 -56.8313 1549.96
v -28.0166 -57.2964 1549.13
v -27.5219 -57.4057 1549.31
v -28.0047 -57.6013 1549.11
v -27.7908 -57.7305 1549.32
v -27.6321 -57.6188 1548.78
v -27.6019 -57.5882 1549.39
v -26.8971 -58.0107 1548.3
v -26.9894 -58.1025 1548.5
v -26.8006 -58.1832 1548.56
v -26.8402 -57.6443 1548.45
v -26.6788 -57.9093 1548.16
v -26.6132 -57.7993 1548.7
v -27.0819 -57.5042 1548.87
v -26.7092 -57.8995 1548.8
v -26.7755 -57.9901 1548.81
v -25.6904 -58.3044 1547.56
v -26.1276 -57.8725 1548.18
v -26.1136 -58.2964 1548.38
v -25.91 -58.1996 1548.32
v -25.7571 -58.1123 1548.18
v -24.9186 -58.593 1547.17
v -25.423 -58.2933 1547.48
v -25.0371 -58.3309 1547.39
v -25.5689 -58.4986 1547.5
v -25.5935 -58.6225 1547.61
v -25.553 -58.6884 1547.72
v -24.9374 -58.6811 1547.79
v -24.3315 -58.909 1546.89
v -24.208 -59.1002 1546.91
v -24.1541 -59.1917 1547.02
v -24.7865 -58.3936 1547.6
v -24.8291 -58.8732 1547.63
v -24.8028 -58.5904 1547.74
v -24.523 -58.4501 1547.32
v -24.4533 -59.0865 1547.3
v -23.9469 -58.8159 1546.79
v -23.6151 -58.7577 1546.91
v -23.6155 -58.8967 1547.2
v -23.5144 -58.8044 1547.01
v -23.524 -59.2913 1547.12
v -23.8963 -59.0042 1547.34
v -23.0448 -59.2856 1546.38
v -22.571 -59.5068 1546.22
v -22.7835 -59.0554 1546.51
v -22.5414 -59.1017 1546.61
v -23.1866 -59.3974 1546.47
v -22.7991 -59.4888 1546.89
v -22.6224 -59.7165 1546.59
v -22.6942 -59.3059 1546.9
v -22.5903 -59.7068 1546.4
v -22.1612 -59.4852 1546.1
v -22.0008 -59.7951 1546.09
v -21.9662 -59.4132 1546.11
v -21.8269 -59.715 1545.99
v -21.6523 -59.3698 1546.27
v -22.4286 -59.2001 1546.71
v -22.165 -59.7928 1546.61
v -21.6923 -59.7935 1546.59
v -21.2076 -59.7913 1545.83
v -20.92 -60.0903 1545.79
v -20.8871 -60.2193 1545.9
v -21.5868 -59.6058 1546.57
v -21.3956 -59.497 1546.4
v -20.7215 -59.7995 1545.77
v -20.4096 -59.9132 1546.28
v -20.116 -59.8816 1545.73
v -20.7306 -60.0208 1545.71
v -20.75 -60.3045 1546.01
v -20.5229 -60.0783 1546.32
v -20.1486 -60.3006 1546.21
v -20.0228 -60.0908 1545.57
v -19.5573 -60.4891 1545.52
v -19.4733 -60.007 1545.69
v -19.5847 -59.9657 1545.92
v -19.5512 -60.6279 1545.92
v -18.9915 -60.4952 1545.38
v -18.998 -60.3034 1545.42
v -18.5468 -60.7149 1545.33
v -18.5617 -60.822 1545.4
v -19.2004 -60.7242 1545.61
v -19.2444 -60.2954 1546.09
v -18.4578 -60.2503 1545.7
v -18.1552 -60.416 1545.39
v -17.6561 -60.7103 1545.22
v -18.1574 -60.3905 1545.81
v -17.9272 -60.6989 1545.92
v -18.3616 -60.8067 1545.93
v -17.6475 -61.1712 1545.58
v -17.3109 -61.0974 1545.21
v -17.3006 -61.204 1545.31
v -17.1105 -61.001 1545.14
v -17.0481 -61.262 1545.7
v -16.1285 -60.9469 1545.68
v -16.2102 -61.2891 1545.77
v -16.1697 -61.0816 1545.76
v -15.9568 -61.0163 1545.12
v -15.7273 -60.926 1545.42
v -15.4071 -61.3453 1545.01
v -15.4315 -61.0392 1545.21
v -14.3315 -61.3049 1545.51
v -14.8869 -61.8582 1545.2
v -14.8827 -61.7002 1545.03
v -14.0613 -61.904 1545.63
v -13.9241 -61.69 1545.68
v -13.7782 -61.5765 1545.63
v -12.2303 -62.2451 1544.87
v -12.0409 -62.1694 1544.86
v -12.1878 -61.9379 1544.93
v -12.0897 -61.9605 1545.58
v -11.805 -62.1961 1544.89
v -11.8043 -62.0042 1544.95
v -11.9999 -61.8335 1545.11
v -11.717 -61.903 1545.2
v -11.9457 -61.8153 1545.3
v -11.7171 -61.9032 1545.3
v -11.996 -61.8325 1545.4
v -11.8804 -61.9356 1545.5
v -11.8086 -62.1029 1545.59
v -11.7002 -62.1002 1544.97
v -11.6488 -62.2035 1545
v -11.6616 -61.9988 1545.1
v -11.6238 -62.0033 1545.21
v -11.6604 -62.005 1545.4
v -11.6752 -62.1015 1545.5
v -11.6734 -62.2956 1545.5
v -11.6057 -62.106 1545.1
v -11.6044 -62.2922 1545.09
v -11.608 -62.381 1545.21
v -11.5685 -62.1973 1545.29
v -11.6058 -62.1967 1545.42
v -11.605 -62.3091 1545.39
v -12.137 -62.3656 1544.91
v -12.1744 -62.4518 1544.99
v -12.0812 -62.5501 1545.1
v -12.2609 -62.5299 1545.3
v -12.3912 -62.4673 1545.42
v -11.91 -62.3925 1544.9
v -11.9019 -62.5115 1545
v -11.9858 -62.4714 1545.51
v -11.8054 -62.5407 1545.1
v -11.8179 -62.5696 1545.2
v -11.8185 -62.5382 1545.39
v -11.8026 -62.4626 1545.5
v -11.708 -62.3962 1545.01
v -11.6959 -62.4971 1545.2
v -11.6992 -62.4607 1545.39
v -11.9943 -62.0846 1545.63
v -12.0004 -62.2724 1545.62
v -30.0969 -56.5038 1551.39
v -30.0969 -56.5038 1551.39
v -29.9949 -56.3056 1551.36
v -30.0031 -56.3968 1551.4
v -29.9953 -56.495 1551.4
v -27.5219 -57.4057 1549.31
v -27.7908 -57.7305 1549.32
v -26.6132 -57.7993 1548.7
v -27.0819 -57.5042 1548.87
v -26.1276 -57.8725 1548.18
v -21.5868 -59.6058 1546.57
v -20.4096 -59.9132 1546.28
v -18.1574 -60.3905 1545.81
v -18.3616 -60.8067 1545.93
v -16.1285 -60.9469 1545.68
v -11.6604 -62.005 1545.4
v -11.6752 -62.1015 1545.5
vn -0.769862 -0.21879 -0.599536
vn -0.892591 0.238744 -0.382469
vn -0.923287 -0.284889 -0.257643
vn -0.664786 0.26411 -0.698789
vn -0.64804 0.677988 -0.346953
vn -0.672531 -0.696279 -0.250794
vn -0.328342 0.717335 -0.61451
vn -0.172151 0.951071 -0.256571
vn 0.107589 0.943761 -0.312634
vn -0.43561 -0.900099 0.00810377
vn -0.7656 0.611381 0.200173
vn -0.981044 0.165904 0.100142
vn -0.950416 -0.209869 0.229486
vn -0.724201 -0.664599 0.183958
vn -0.783244 0.22734 0.578659
vn -0.709217 -0.27581 0.648799
vn -0.293366 0.934808 0.200177
vn -0.304902 -0.909842 0.281466
vn -0.323319 0.616818 0.717635
vn -0.559814 -0.247433 0.790813
vn -0.334267 -0.688137 0.643998
vn -0.343253 0.114071 0.93229
vn 0.298878 0.951413 0.0740565
vn 0.182475 0.857536 0.480972
vn -0.065023 0.584963 0.808449
vn 0.174465 -0.673098 0.71868
vn -0.0784993 0.282562 0.956032
vn -0.0534368 -0.0476651 0.997433
vn 0.604651 0.651369 0.458383
vn 0.598728 0.191979 0.777605
vn 0.575379 -0.239804 0.781942
vn -0.464204 0.460475 -0.756622
vn -0.0775236 0.840593 -0.53609
vn -0.658276 -0.0302225 -0.75217
vn -0.675123 -0.576044 -0.46085
vn 0.351333 -0.595963 0.722075
vn -0.0296506 -0.894981 0.445117
vn -0.133026 -0.924894 0.356196
vn 0.695099 0.277034 0.663392
vn -0.448823 -0.892114 -0.0518725
vn 0.418467 0.908228 0.00263771
vn -0.430342 0.433393 -0.791819
vn 0.616659 0.0885488 0.782234
vn -0.663817 -0.423674 -0.616318
vn -0.185384 -0.933169 0.307943
vn -0.590439 0.0173601 -0.806895
vn 0.504668 -0.222912 0.834039
vn -0.600909 -0.359362 -0.71398
vn -0.520155 -0.805343 -0.284362
vn -0.204126 -0.932074 0.299282
vn 0.0430727 0.881754 -0.469739
vn -0.408349 0.328606 -0.851628
vn 0.558495 0.721569 0.409171
vn 0.597984 0.674786 0.432527
vn 0.527025 -0.0244797 0.849497
vn 0.360216 -0.412313 0.836805
vn -0.404956 0.225472 -0.8861
vn 0.201939 0.945185 -0.256605
vn 0.226549 -0.57186 0.788449
vn 0.485853 -0.0217046 0.873771
vn 0.548976 0.541555 0.636665
vn -0.356443 0.219459 -0.908178
vn -0.184426 0.612382 -0.768749
vn 0.0813517 0.878356 -0.471034
vn -0.525205 -0.235153 -0.81784
vn -0.529838 -0.681146 -0.505284
vn -0.405398 -0.907582 -0.109309
vn 0.317352 -0.333747 0.887637
vn -0.426531 -0.112083 -0.897501
vn -0.486041 -0.6088 -0.626998
vn -0.408734 -0.883498 -0.228839
vn 0.484402 0.722239 0.493686
vn 0.0801964 -0.702961 0.706693
vn 0.478997 0.193163 0.8563
vn 0.312799 0.949378 -0.0289692
vn -0.199869 -0.929218 0.310816
vn -0.158056 0.533045 -0.831193
vn 0.258268 0.956253 -0.137394
vn 0.450553 0.435241 0.779466
vn 0.404084 0.857748 0.317781
vn 0.0660503 -0.640152 0.765404
vn 0.295896 -0.227555 0.92772
vn -0.328464 0.065222 -0.942262
vn -0.354978 -0.1796 -0.917461
vn 0.134467 0.895355 -0.424568
vn 0.332766 0.934407 0.127083
vn -0.4365 -0.45904 -0.773789
vn 0.161633 -0.421756 0.892187
vn -0.269739 -0.953194 0.136608
vn 0.341306 0.106203 0.933933
vn -0.395069 -0.838855 -0.374491
vn -0.210382 0.275527 -0.93799
vn -0.388367 -0.555713 -0.735088
vn -0.0372242 0.636279 -0.77056
vn -0.303417 -0.138286 -0.94277
vn 0.260493 0.962283 -0.0784473
vn 0.40869 0.653676 0.63693
vn -0.0304942 -0.726268 0.686735
vn 0.163419 -0.280306 0.945898
vn -0.169733 0.24934 -0.953426
vn -0.330463 -0.455217 -0.826784
vn -0.351276 -0.786454 -0.508031
vn 0.362507 0.524378 0.770465
vn 0.362406 0.759149 0.540698
vn -0.0339161 0.552413 -0.832881
vn 0.322766 0.666623 0.67189
vn 0.0917508 0.782353 -0.616041
vn -0.242122 -0.107027 -0.964325
vn -0.304444 -0.947897 -0.0938304
vn 0.195579 -0.0608878 0.978796
vn 0.0597837 -0.403221 0.913148
vn -0.0944097 0.324876 -0.941033
vn -0.291721 -0.500386 -0.815177
vn 0.206669 0.943789 -0.257974
vn 0.303429 0.901 0.310048
vn -0.184533 -0.897208 0.401206
vn -0.159422 -0.00834718 -0.987175
vn -0.0142716 0.469864 -0.882623
vn -0.215233 -0.330788 -0.918833
vn -0.276431 -0.659379 -0.699146
vn -0.303451 -0.894466 -0.328402
vn 0.205302 0.155963 0.966192
vn 0.261608 0.951453 0.162166
vn 0.105143 0.736071 -0.668689
vn -0.0199062 0.330844 -0.943475
vn 0.274509 0.853878 0.442195
vn 0.135706 0.10127 0.98556
vn -0.0996161 -0.683553 0.723071
vn -0.25032 -0.966116 0.0629252
vn -0.213313 -0.504813 -0.836457
vn -0.261048 -0.819098 -0.510816
vn -0.126634 -0.115661 -0.985183
vn -0.138846 -0.73175 0.667281
vn 0.229972 0.825667 0.515157
vn 0.000753756 -0.251367 0.967892
vn 0.136837 0.298632 0.944508
vn 0.0838251 0.583431 -0.807825
vn 0.240052 0.959579 0.146916
vn -0.0303268 0.117872 -0.992566
vn 0.178714 0.863935 -0.470826
vn 0.203748 0.79285 0.574347
vn -0.244206 -0.892038 -0.380305
vn -0.171724 -0.494129 -0.85226
vn -0.081763 -0.470023 0.878859
vn 0.0646768 0.13939 0.988123
vn 0.148323 0.517569 0.842688
vn -0.0575496 -0.198096 -0.978492
vn 0.0474809 0.065105 -0.996748
vn 0.121088 0.538911 -0.833614
vn 0.173707 0.525833 0.832662
vn 0.353675 0.0514605 -0.933952
vn 0.348871 0.582845 -0.733881
vn 0.263689 0.877537 -0.400496
vn 0.51475 0.835242 -0.193398
vn 0.293397 0.954601 0.0515324
vn 0.549479 0.806671 0.217613
vn 0.305448 0.858024 0.412912
vn 0.347793 0.69132 0.633338
vn 0.36232 0.240439 0.900507
vn 0.644916 0.302814 -0.701702
vn 0.745364 -0.0484749 -0.664893
vn 0.634691 0.629867 -0.4477
vn 0.859426 0.509657 -0.0404508
vn 0.441456 0.729701 0.522162
vn 0.480486 0.584627 0.653716
vn 0.621149 -0.228404 0.74967
vn 0.907575 0.226021 -0.353867
vn 0.917306 -0.186377 -0.351872
vn 0.890019 -0.449955 -0.0735325
vn 0.99583 0.0628765 0.0661003
vn 0.888816 0.0829553 0.450694
vn 0.894164 -0.294546 0.337215
vn -0.106795 -0.482106 -0.86958
vn -0.156483 -0.723926 -0.671895
vn -0.109092 -0.947596 -0.300269
vn -0.160089 -0.980794 0.111418
vn -0.154708 -0.863839 0.479424
vn 0.109525 -0.414325 -0.903515
vn 0.125522 -0.766655 -0.629671
vn -0.0308066 -0.712578 0.700917
vn 0.340772 -0.862302 -0.374579
vn 0.1905 -0.981416 -0.0230749
vn 0.207226 -0.916263 0.34281
vn 0.345483 -0.590245 0.729557
vn 0.617936 -0.488857 -0.61577
vn 0.647746 -0.757285 -0.0833289
vn 0.690326 -0.626714 0.361497
vn 0.134382 0.209816 0.968462
vn 0.127195 -0.245735 0.960956
vn 0.0363331 -0.561995 0.826343
vn -0.049078 -0.0424292 0.997893
vn 0.523827 0.503493 0.687095
vn 0.474316 0.178853 0.861995
vn 0.391208 -0.31521 0.864638
vn 0.622061 0.6171 0.4819
vn 0.213969 -0.669807 0.711038
vn 0.576657 0.197947 0.792644
vn 0.275113 0.948425 -0.157487
vn 0.505576 0.77919 0.370481
vn 0.249375 0.00179963 0.968405
vn 0.242833 0.19034 0.951211
vn 0.222193 0.451107 0.864368
vn 0.0580213 -0.20962 0.97606
vn 0.152765 0.432363 0.888665
vn 0.884743 0.389253 0.256341
vn 0.748045 0.108688 0.654687
g grp1
usemtl mtl1
f 4//4 34//34 1//1 
f 5//5 7//7 4//4 
f 5//5 4//4 2//2 
f 4//4 1//1 2//2 
f 1//1 3//3 2//2 
f 1//1 6//6 3//3 
f 5//5 2//2 11//11 
f 2//2 12//12 11//11 
f 2//2 3//3 12//12 
f 3//3 13//13 12//12 
f 3//3 14//14 13//13 
f 6//6 18//18 14//14 
f 3//3 6//6 14//14 
f 7//7 5//5 8//8 
f 8//8 5//5 17//17 
f 17//17 5//5 11//11 
f 9//9 7//7 8//8 
f 9//9 8//8 23//23 
f 23//23 8//8 17//17 
f 1//1 35//35 6//6 
f 6//6 35//35 10//10 
f 10//10 18//18 6//6 
f 41//41 9//9 23//23 
f 7//7 32//32 4//4 
f 7//7 9//9 33//33 
f 33//33 9//9 41//41 
f 34//34 4//4 32//32 
f 7//7 33//33 32//32 
f 34//34 35//35 1//1 
f 37//37 18//18 10//10 
f 19//19 11//11 15//15 
f 15//15 11//11 12//12 
f 12//12 13//13 15//15 
f 13//13 16//16 15//15 
f 14//14 16//16 13//13 
f 19//19 15//15 22//22 
f 22//22 15//15 16//16 
f 19//19 17//17 11//11 
f 22//22 16//16 20//20 
f 14//14 21//21 16//16 
f 16//16 21//21 20//20 
f 14//14 18//18 21//21 
f 23//23 17//17 24//24 
f 24//24 17//17 19//19 
f 25//25 24//24 19//19 
f 19//19 27//27 25//25 
f 190//190 21//21 26//26 
f 26//26 21//21 18//18 
f 37//37 26//26 18//18 
f 27//27 19//19 22//22 
f 191//191 28//28 22//22 
f 22//22 28//28 27//27 
f 190//190 26//26 194//194 
f 41//41 23//23 29//29 
f 29//29 23//23 24//24 
f 29//29 24//24 192//192 
f 30//30 192//192 193//193 
f 30//30 29//29 192//192 
f 30//30 194//194 31//31 
f 26//26 31//31 194//194 
f 26//26 36//36 31//31 
f 36//36 26//26 37//37 
f 194//194 30//30 193//193 
f 41//41 29//29 39//39 
f 30//30 39//39 29//29 
f 31//31 39//39 30//30 
f 10//10 35//35 40//40 
f 36//36 39//39 31//31 
f 38//38 37//37 10//10 
f 36//36 37//37 38//38 
f 34//34 32//32 42//42 
f 44//44 35//35 34//34 
f 44//44 34//34 42//42 
f 42//42 33//33 51//51 
f 45//45 38//38 40//40 
f 51//51 33//33 41//41 
f 44//44 40//40 35//35 
f 50//50 45//45 40//40 
f 42//42 32//32 33//33 
f 38//38 10//10 40//40 
f 36//36 47//47 39//39 
f 47//47 43//43 39//39 
f 41//41 39//39 54//54 
f 54//54 39//39 195//195 
f 42//42 46//46 44//44 
f 52//52 46//46 42//42 
f 52//52 42//42 51//51 
f 41//41 198//198 51//51 
f 49//49 50//50 40//40 
f 44//44 49//49 40//40 
f 36//36 38//38 196//196 
f 36//36 196//196 47//47 
f 196//196 56//56 47//47 
f 46//46 48//48 44//44 
f 52//52 48//48 46//46 
f 48//48 49//49 44//44 
f 54//54 195//195 53//53 
f 51//51 64//64 63//63 
f 52//52 51//51 63//63 
f 64//64 51//51 58//58 
f 58//58 51//51 198//198 
f 48//48 52//52 65//65 
f 65//65 66//66 48//48 
f 66//66 49//49 48//48 
f 49//49 66//66 67//67 
f 67//67 50//50 49//49 
f 54//54 53//53 199//199 
f 197//197 47//47 55//55 
f 55//55 56//56 60//60 
f 52//52 63//63 57//57 
f 57//57 65//65 52//52 
f 60//60 197//197 55//55 
f 197//197 43//43 47//47 
f 56//56 55//55 47//47 
f 196//196 59//59 56//56 
f 50//50 59//59 45//45 
f 56//56 59//59 60//60 
f 75//75 64//64 58//58 
f 61//61 199//199 53//53 
f 60//60 61//61 197//197 
f 60//60 59//59 68//68 
f 61//61 72//72 199//199 
f 61//61 74//74 72//72 
f 60//60 74//74 61//61 
f 74//74 60//60 68//68 
f 59//59 50//50 73//73 
f 73//73 68//68 59//59 
f 199//199 72//72 75//75 
f 62//62 65//65 57//57 
f 62//62 57//57 63//63 
f 63//63 64//64 77//77 
f 63//63 77//77 62//62 
f 76//76 67//67 71//71 
f 67//67 66//66 71//71 
f 50//50 67//67 76//76 
f 73//73 50//50 76//76 
f 65//65 70//70 66//66 
f 66//66 70//70 71//71 
f 62//62 69//69 65//65 
f 70//70 65//65 69//69 
f 77//77 64//64 85//85 
f 62//62 77//77 69//69 
f 74//74 68//68 82//82 
f 82//82 68//68 73//73 
f 72//72 80//80 75//75 
f 79//79 72//72 74//74 
f 79//79 74//74 82//82 
f 80//80 72//72 79//79 
f 78//78 85//85 64//64 
f 78//78 64//64 75//75 
f 78//78 75//75 80//80 
f 77//77 83//83 69//69 
f 81//81 88//88 82//82 
f 88//88 81//81 98//98 
f 98//98 81//81 76//76 
f 87//87 69//69 83//83 
f 87//87 70//70 69//69 
f 76//76 81//81 73//73 
f 73//73 81//81 82//82 
f 77//77 92//92 83//83 
f 92//92 84//84 83//83 
f 83//83 84//84 87//87 
f 77//77 85//85 94//94 
f 92//92 77//77 94//94 
f 97//97 80//80 79//79 
f 86//86 85//85 78//78 
f 80//80 86//86 78//78 
f 80//80 97//97 86//86 
f 87//87 91//91 70//70 
f 70//70 91//91 71//71 
f 90//90 79//79 82//82 
f 88//88 90//90 82//82 
f 89//89 71//71 91//91 
f 89//89 76//76 71//71 
f 89//89 98//98 76//76 
f 90//90 97//97 79//79 
f 99//99 88//88 98//98 
f 103//103 97//97 90//90 
f 90//90 88//88 99//99 
f 87//87 84//84 93//93 
f 91//91 87//87 93//93 
f 92//92 95//95 84//84 
f 95//95 93//93 84//84 
f 94//94 105//105 100//100 
f 92//92 94//94 100//100 
f 100//100 95//95 92//92 
f 94//94 107//107 105//105 
f 107//107 94//94 85//85 
f 96//96 85//85 86//86 
f 104//104 86//86 97//97 
f 86//86 104//104 96//96 
f 97//97 103//103 104//104 
f 200//200 90//90 99//99 
f 96//96 107//107 85//85 
f 95//95 101//101 93//93 
f 114//114 107//107 96//96 
f 108//108 101//101 95//95 
f 100//100 108//108 95//95 
f 101//101 102//102 93//93 
f 91//91 93//93 102//102 
f 91//91 102//102 109//109 
f 109//109 89//89 91//91 
f 116//116 89//89 109//109 
f 116//116 98//98 89//89 
f 100//100 112//112 108//108 
f 100//100 105//105 112//112 
f 103//103 106//106 104//104 
f 110//110 201//201 200//200 
f 111//111 98//98 116//116 
f 111//111 99//99 98//98 
f 110//110 200//200 99//99 
f 110//110 99//99 111//111 
f 113//113 102//102 101//101 
f 121//121 102//102 113//113 
f 121//121 109//109 102//102 
f 108//108 113//113 101//101 
f 116//116 109//109 121//121 
f 107//107 112//112 105//105 
f 112//112 107//107 118//118 
f 112//112 117//117 108//108 
f 117//117 113//113 108//108 
f 107//107 124//124 118//118 
f 115//115 114//114 96//96 
f 106//106 115//115 104//104 
f 104//104 115//115 96//96 
f 124//124 107//107 114//114 
f 121//121 129//129 116//116 
f 201//201 110//110 122//122 
f 122//122 110//110 111//111 
f 114//114 115//115 123//123 
f 128//128 111//111 116//116 
f 117//117 112//112 118//118 
f 119//119 113//113 117//117 
f 113//113 119//119 120//120 
f 120//120 121//121 113//113 
f 133//133 116//116 129//129 
f 128//128 116//116 133//133 
f 117//117 118//118 125//125 
f 125//125 132//132 117//117 
f 117//117 132//132 119//119 
f 124//124 125//125 118//118 
f 119//119 132//132 130//130 
f 130//130 120//120 119//119 
f 131//131 120//120 130//130 
f 121//121 120//120 131//131 
f 131//131 129//129 121//121 
f 126//126 123//123 115//115 
f 106//106 126//126 115//115 
f 122//122 202//202 201//201 
f 122//122 111//111 127//127 
f 111//111 203//203 127//127 
f 138//138 114//114 123//123 
f 123//123 126//126 138//138 
f 122//122 127//127 202//202 
f 133//133 135//135 128//128 
f 127//127 203//203 135//135 
f 124//124 114//114 140//140 
f 114//114 138//138 140//140 
f 124//124 140//140 137//137 
f 124//124 137//137 125//125 
f 137//137 139//139 125//125 
f 125//125 139//139 132//132 
f 134//134 138//138 126//126 
f 136//136 202//202 127//127 
f 202//202 136//136 204//204 
f 143//143 130//130 132//132 
f 143//143 131//131 130//130 
f 131//131 143//143 142//142 
f 129//129 131//131 142//142 
f 177//177 133//133 129//129 
f 136//136 127//127 135//135 
f 141//141 138//138 134//134 
f 144//144 133//133 177//177 
f 144//144 135//135 133//133 
f 137//137 149//149 139//139 
f 132//132 139//139 143//143 
f 140//140 149//149 137//137 
f 136//136 135//135 145//145 
f 204//204 136//136 145//145 
f 145//145 135//135 144//144 
f 141//141 134//134 146//146 
f 145//145 146//146 204//204 
f 129//129 142//142 176//176 
f 142//142 143//143 174//174 
f 174//174 175//175 142//142 
f 146//146 150//150 141//141 
f 173//173 174//174 143//143 
f 139//139 149//149 148//148 
f 153//153 149//149 140//140 
f 139//139 147//147 143//143 
f 143//143 147//147 173//173 
f 138//138 153//153 140//140 
f 138//138 157//157 155//155 
f 141//141 157//157 138//138 
f 177//177 129//129 176//176 
f 175//175 176//176 142//142 
f 180//180 144//144 177//177 
f 150//150 146//146 145//145 
f 188//188 150//150 145//145 
f 188//188 145//145 189//189 
f 148//148 147//147 139//139 
f 144//144 180//180 189//189 
f 151//151 178//178 148//148 
f 148//148 178//178 147//147 
f 152//152 149//149 153//153 
f 155//155 153//153 138//138 
f 158//158 157//157 141//141 
f 150//150 158//158 141//141 
f 188//188 159//159 150//150 
f 159//159 158//158 150//150 
f 180//180 184//184 189//189 
f 148//148 149//149 151//151 
f 152//152 160//160 151//151 
f 152//152 151//151 149//149 
f 151//151 185//185 178//178 
f 152//152 153//153 162//162 
f 152//152 162//162 160//160 
f 154//154 162//162 153//153 
f 155//155 154//154 153//153 
f 156//156 154//154 155//155 
f 157//157 156//156 155//155 
f 157//157 158//158 164//164 
f 164//164 158//158 165//165 
f 165//165 158//158 159//159 
f 166//166 206//206 159//159 
f 166//166 189//189 184//184 
f 161//161 151//151 160//160 
f 185//185 151//151 161//161 
f 162//162 167//167 160//160 
f 167//167 161//161 160//160 
f 161//161 168//168 185//185 
f 154//154 163//163 162//162 
f 162//162 163//163 167//167 
f 156//156 163//163 154//154 
f 205//205 163//163 156//156 
f 157//157 164//164 156//156 
f 163//163 205//205 170//170 
f 187//187 169//169 172//172 
f 205//205 206//206 171//171 
f 172//172 166//166 187//187 
f 166//166 171//171 206//206 
f 168//168 161//161 167//167 
f 163//163 170//170 167//167 
f 168//168 167//167 170//170 
f 168//168 170//170 169//169 
f 185//185 168//168 169//169 
f 169//169 170//170 172//172 
f 170//170 205//205 171//171 
f 172//172 170//170 171//171 
f 166//166 172//172 171//171 
f 173//173 147//147 178//178 
f 178//178 174//174 173//173 
f 174//174 178//178 179//179 
f 175//175 174//174 179//179 
f 183//183 177//177 176//176 
f 183//183 180//180 177//177 
f 178//178 185//185 179//179 
f 185//185 181//181 179//179 
f 179//179 181//181 175//175 
f 175//175 181//181 182//182 
f 175//175 182//182 176//176 
f 182//182 183//183 176//176 
f 184//184 180//180 183//183 
f 187//187 183//183 186//186 
f 186//186 183//183 182//182 
f 187//187 184//184 183//183 
f 187//187 166//166 184//184 
f 181//181 185//185 186//186 
f 186//186 185//185 169//169 
f 181//181 186//186 182//182 
f 187//187 186//186 169//169 
f 189//189 145//145 144//144 
f 159//159 188//188 189//189 
f 166//166 159//159 189//189 
