v -13.9851 -106.25 1521.01
v -14.1089 -106.248 1521.4
v -13.9888 -106.237 1521.81
v -14.0187 -105.853 1521.39
v -13.7474 -106.789 1521.19
v -13.7649 -106.787 1521.57
v -13.7471 -106.648 1521.81
v -13.5725 -106.89 1521.39
v -13.3784 -106.875 1521.21
v -13.3869 -106.866 1521.59
v -13.3849 -106.775 1521
v -13.174 -106.703 1520.99
v -13.18 -106.819 1521.18
v -13.1527 -106.836 1521.39
v -13.145 -106.697 1521.8
v -12.9835 -106.685 1521.19
v -13.7601 -106.64 1520.97
v -13.7588 -106.436 1520.83
v -13.7686 -106.065 1520.81
v -13.5548 -106.251 1520.73
v -13.5591 -105.861 1520.83
v -13.3908 -106.632 1520.86
v -13.3716 -105.646 1521
v -13.1879 -106.445 1520.8
v -13.1823 -106.069 1520.78
v -13.1599 -105.834 1520.9
v -12.9844 -106.442 1520.95
v -13.9307 -106.633 1521.21
v -13.9628 -106.594 1521.58
v -13.8497 -105.854 1521
v -13.9522 -105.829 1521.8
v -13.7518 -105.549 1521.39
v -13.5697 -105.64 1522.39
v -13.746 -105.455 1521.79
v -13.6509 -105.443 1522.18
v -13.5689 -106.058 1522.33
v -13.575 -105.651 1521.02
v -13.3497 -106.589 1522
v -13.3523 -106.228 1522.34
v -13.3591 -105.346 1521.4
v -13.3522 -105.122 1521.81
v -13.3447 -105.048 1522.2
v -13.14 -105.427 1521.29
v -12.8958 -106.631 1521.42
v -12.814 -106.433 1521.21
v -12.8921 -106.056 1521.02
v -12.9626 -105.607 1521.21
v -12.7544 -106.308 1522
v -12.6697 -106.252 1521.76
v -12.6164 -106.05 1521.57
v -12.7644 -105.26 1521.55
v -12.5809 -105.641 1521.55
v -13.0472 -105.658 1522.76
v -12.5622 -105.664 1522.82
v -12.7269 -104.949 1521.8
v -12.7494 -104.599 1522.38
v -12.5401 -104.592 1522.16
v -13.1993 -105.06 1522.58
v -12.4227 -104.883 1523.13
v -12.5549 -104.515 1522.78
v -12.3618 -105.86 1522.39
v -12.3778 -105.848 1521.98
v -11.8852 -105.444 1522.4
v -11.9725 -105.247 1522.08
v -11.9608 -105.482 1522.78
v -11.3389 -105.104 1522.81
v -12.1909 -104.884 1521.95
v -11.9097 -104.446 1522.22
v -11.5903 -104.642 1522.22
v -11.6888 -104.225 1523.3
v -11.3361 -104.977 1523.19
v -11.3539 -104.468 1523.48
v -11.3874 -103.881 1522.8
v -11.1838 -104.908 1522.58
v -10.3564 -104.56 1522.99
v -10.3597 -104.52 1523.36
v -10.4861 -103.662 1522.76
v -10.2228 -104.265 1522.73
v -10.253 -103.886 1522.66
v -10.1295 -103.653 1523.7
v -9.70069 -103.836 1522.78
v -9.56591 -104.126 1522.99
v -9.43946 -103.888 1523.78
v -10.0994 -103.396 1523.01
v -10.0238 -103.33 1523.37
v -9.71602 -103.456 1522.88
v -9.02879 -104.042 1523.39
v -8.32635 -103.641 1523.16
v -7.91018 -103.664 1523.81
v -9.10405 -103.075 1523.61
v -9.00162 -103.015 1523.39
v -8.29926 -102.856 1523.6
v -8.17947 -103.257 1523.11
v -8.07982 -102.882 1523.39
v -7.9729 -103.051 1524.04
v -7.40066 -103.596 1523.59
v -7.3093 -102.792 1524
v -7.17333 -102.687 1523.79
v -6.78595 -102.867 1523.47
v -6.59816 -103.07 1523.46
v -6.31455 -103.269 1523.61
v -6.18748 -102.669 1523.8
v -5.9729 -103.418 1523.99
v -5.41052 -103.059 1523.8
v -5.24729 -102.858 1523.9
v -4.59121 -103.044 1524.11
v -6.02753 -103.075 1524.45
v -5.97524 -102.642 1524.18
v -5.56898 -102.618 1524.18
v -5.04368 -102.666 1524.4
v -5.01163 -102.686 1524.18
v -4.4429 -103.451 1524.59
v -4.5729 -103.315 1524.79
v -4.53137 -102.858 1524.21
v -4.53996 -102.731 1524.41
v -4.61526 -102.876 1524.79
v -4.12951 -103.482 1524.82
v -3.34335 -103.651 1525.39
v -3.18625 -103.732 1525.19
v -2.95312 -103.654 1525.12
v -4.25679 -103.246 1524.3
v -4.1729 -103.251 1525.05
v -3.99188 -103.061 1524.4
v -3.89165 -103.448 1524.61
v -3.77159 -103.258 1524.51
v -3.8003 -102.919 1524.97
v -3.6009 -102.983 1524.78
v -3.34527 -103.453 1524.8
v -3.3729 -103.451 1525.49
v -3.38897 -103.249 1524.73
v -3.01333 -103.451 1524.99
v -3.06463 -103.264 1525
v -2.9729 -103.283 1525.59
v -2.52759 -103.651 1525.39
v -2.76409 -103.968 1525.83
v -2.5729 -103.851 1526.14
v -2.29224 -104.027 1525.76
v -2.10571 -104.451 1526.59
v -1.99556 -104.051 1525.99
v -2.02015 -103.836 1526.15
v -2.00421 -104.457 1526.36
v -1.9638 -104.573 1526.6
v -1.9729 -104.451 1526.86
v -1.7729 -104.624 1526.59
v -1.7729 -104.63 1526.79
v -1.59093 -104.451 1526.59
v -1.5829 -104.451 1526.79
v -1.7729 -104.451 1526.94
v -1.62446 -104.251 1526.59
v -1.7729 -104.251 1526.87
v -2.7729 -103.287 1525.39
v -12.5809 -105.641 1521.55
v -12.4227 -104.883 1523.13
v -12.3618 -105.86 1522.39
v -11.6888 -104.225 1523.3
v -10.1295 -103.653 1523.7
v -9.02879 -104.042 1523.39
v -8.32635 -103.641 1523.16
v -7.91018 -103.664 1523.81
v -7.91018 -103.664 1523.81
v -7.9729 -103.051 1524.04
v -7.40066 -103.596 1523.59
v -6.31455 -103.269 1523.61
v -5.9729 -103.418 1523.99
v -5.9729 -103.418 1523.99
v -6.02753 -103.075 1524.45
v -6.02753 -103.075 1524.45
v -4.4429 -103.451 1524.59
v -4.5729 -103.315 1524.79
v -4.61526 -102.876 1524.79
v -4.12951 -103.482 1524.82
v -3.34335 -103.651 1525.39
v -2.95312 -103.654 1525.12
v -4.25679 -103.246 1524.3
v -4.1729 -103.251 1525.05
v -3.3729 -103.451 1525.49
v -2.9729 -103.283 1525.59
v -2.9729 -103.283 1525.59
v -2.52759 -103.651 1525.39
v -2.76409 -103.968 1525.83
v -2.5729 -103.851 1526.14
v -2.29224 -104.027 1525.76
v -2.10571 -104.451 1526.59
v -1.99556 -104.051 1525.99
v -2.02015 -103.836 1526.15
v -2.00421 -104.457 1526.36
v -1.9638 -104.573 1526.6
v -1.9729 -104.451 1526.86
v -1.7729 -104.624 1526.59
v -1.7729 -104.624 1526.59
v -1.7729 -104.63 1526.79
v -1.7729 -104.63 1526.79
v -1.7729 -104.63 1526.79
v -1.59093 -104.451 1526.59
v -1.59093 -104.451 1526.59
v -1.5829 -104.451 1526.79
v -1.5829 -104.451 1526.79
v -1.5829 -104.451 1526.79
v -1.7729 -104.451 1526.94
v -1.7729 -104.451 1526.94
v -1.7729 -104.451 1526.94
v -1.62446 -104.251 1526.59
v -1.7729 -104.251 1526.87
vn -0.852173 -0.0528089 -0.520589
vn -0.99725 -0.0722816 0.0163344
vn -0.841378 -0.165058 0.514626
vn -0.888321 0.433162 -0.1525
vn -0.41416 -0.859534 -0.299455
vn -0.501293 -0.839009 0.211589
vn -0.452212 -0.640178 0.621028
vn -0.209833 -0.977723 0.00532272
vn 0.0526382 -0.975879 -0.211873
vn 0.0192501 -0.941109 0.337555
vn 0.000592884 -0.825804 -0.563957
vn 0.40831 -0.661602 -0.62894
vn 0.365109 -0.869811 -0.331849
vn 0.437613 -0.898108 0.0435446
vn 0.40911 -0.810304 0.419567
vn 0.672852 -0.668927 -0.315923
vn -0.485911 -0.614407 -0.621606
vn -0.457342 -0.302049 -0.836424
vn -0.513327 0.185626 -0.837877
vn -0.0869805 -0.0575878 -0.994544
vn -0.124072 0.489986 -0.862855
vn -0.00957675 -0.55075 -0.834615
vn 0.040048 0.711636 -0.701406
vn 0.330904 -0.30892 -0.891667
vn 0.377729 0.157161 -0.912481
vn 0.39959 0.501978 -0.767037
vn 0.684124 -0.287298 -0.670399
vn -0.793571 -0.565047 -0.225759
vn -0.813612 -0.516281 0.267375
vn -0.645551 0.52692 -0.552827
vn -0.916985 0.262706 0.300206
vn -0.580859 0.74495 -0.328104
vn -0.726606 0.0754105 0.682904
vn -0.771854 0.635769 0.00627979
vn -0.825662 0.43405 0.360393
vn -0.576791 -0.311188 0.755297
vn -0.307153 0.745135 -0.591971
vn -0.00961829 -0.761857 0.647674
vn -0.233685 -0.574445 0.784477
vn -0.220007 0.812187 -0.540324
vn -0.50565 0.814522 -0.28438
vn -0.689226 0.716548 0.107359
vn 0.167318 0.682601 -0.711379
vn 0.742617 -0.667278 0.0571073
vn 0.88578 -0.337734 -0.318323
vn 0.775496 0.0806223 -0.626184
vn 0.483782 0.494525 -0.72208
vn 0.656821 -0.709988 0.253975
vn 0.859069 -0.510255 -0.0404903
vn 0.90862 -0.219669 -0.355183
vn 0.370711 0.474393 -0.798452
vn 0.600472 0.285336 -0.747005
vn -0.368995 -0.285753 0.884414
vn 0.138192 -0.664422 0.73447
vn 0.119621 0.61549 -0.779014
vn -0.49825 0.857349 -0.129229
vn -0.196654 0.800016 -0.566834
vn -0.705266 0.442088 0.554219
vn -0.549111 0.256012 0.795572
vn -0.592634 0.713651 0.37348
vn 0.320107 -0.795086 0.51514
vn 0.816677 -0.516379 -0.257666
vn 0.662191 -0.719544 -0.209189
vn 0.651453 -0.278286 -0.705809
vn 0.460916 -0.838488 0.290679
vn 0.511174 -0.859218 0.021117
vn 0.36498 0.285556 -0.886142
vn 0.0823076 0.504694 -0.859366
vn 0.390061 -0.0340071 -0.920161
vn -0.425724 0.295325 0.855302
vn 0.250058 -0.753336 0.60824
vn -0.169161 -0.174261 0.970061
vn -0.386227 0.913545 -0.127531
vn 0.570641 -0.601407 -0.559177
vn 0.465824 -0.835118 -0.292552
vn 0.346578 -0.872299 0.344931
vn -0.0934462 0.686052 -0.721527
vn 0.411052 -0.439798 -0.798507
vn 0.187708 0.189636 -0.963745
vn -0.201849 0.0408776 0.978563
vn 0.268638 -0.132482 -0.954087
vn 0.397604 -0.668731 -0.628259
vn 0.0642425 -0.52808 0.846761
vn -0.199478 0.879657 -0.431754
vn -0.375498 0.894416 0.242944
vn 0.0338267 0.531286 -0.846517
vn 0.24281 -0.902138 0.356638
vn 0.271098 -0.305148 -0.912902
vn 0.16232 -0.957702 0.237612
vn -0.290609 0.841733 0.455008
vn -0.229076 0.96533 -0.12515
vn -0.194516 0.977119 0.0860301
vn 0.161369 0.217462 -0.962637
vn -0.0444287 0.83842 -0.543211
vn -0.238379 0.647913 0.723453
vn 0.179803 -0.97698 0.11481
vn -0.214478 0.753515 0.621462
vn -0.101576 0.994821 -0.00365612
vn 0.147874 0.539242 -0.829066
vn 0.254019 -0.0125626 -0.967118
vn 0.216053 -0.837949 -0.501162
vn 0.0703695 0.907984 -0.413054
vn 0.213748 -0.828463 -0.517649
vn 0.311646 -0.144143 -0.939202
vn 0.286004 0.460332 -0.840415
vn 0.393652 0.0830248 -0.915503
vn -0.193602 -0.372803 0.907489
vn -0.0989284 0.942264 0.319925
vn 0.0321164 0.999214 -0.0232418
vn 0.0222633 0.966455 0.255868
vn 0.205058 0.898056 -0.389162
vn 0.0973517 -0.896195 -0.432849
vn -0.280264 -0.812815 0.51067
vn 0.387668 0.624756 -0.677786
vn 0.258513 0.947058 -0.190401
vn -0.378139 0.120889 0.917822
vn -0.402289 -0.749595 0.525614
vn -0.391761 -0.917762 0.0650908
vn -0.103126 -0.933911 -0.34231
vn 0.489218 -0.3777 -0.786135
vn 0.172482 -0.770356 -0.613842
vn -0.508017 -0.000649769 0.861347
vn 0.482983 0.242896 -0.841266
vn 0.122075 -0.821009 -0.557712
vn 0.413244 -0.27847 -0.866997
vn 0.138631 0.953917 0.266127
vn 0.465875 0.7811 -0.415745
vn 0.354446 -0.49567 -0.792893
vn -0.632517 -0.439115 0.638044
vn 0.562295 0.178121 -0.807526
vn 0.575131 -0.0899838 -0.813097
vn 0.643291 0.457053 -0.614231
vn -0.443856 0.400775 0.801481
vn 0.749106 0.415754 -0.515741
vn -0.321189 -0.914611 -0.24561
vn -0.784057 -0.332558 0.52408
vn -0.0787832 -0.88667 -0.455642
vn -0.537918 -0.815354 -0.214108
vn 0.436789 -0.553931 -0.708785
vn 0.802086 0.44242 -0.40115
vn -0.384534 -0.85767 -0.341373
vn -0.391064 -0.891242 -0.229687
vn -0.612831 -0.632467 0.473734
vn 0.373318 -0.597528 -0.709643
vn -0.446962 -0.702679 0.553595
vn 0.949691 0.159218 -0.269697
vn 0.685962 -0.727117 -0.027538
vn -0.302448 -0.607943 0.734119
vn 0.919254 0.239673 -0.312297
vn -0.424019 0.362215 0.830065
vn 0.538887 0.832745 -0.12703
vn 0.847752 -0.208502 -0.487692
vn -0.144793 -0.348021 0.926238
vn 0.698062 -0.715902 -0.0139197
vn -0.447188 0.803266 0.393429
vn -0.350945 0.687591 0.635654
vn 0.370033 -0.822601 -0.431744
vn 0.310941 -0.837703 -0.448965
vn -0.0790643 -0.368409 0.926296
vn 0.0444139 -0.798107 0.600877
vn -0.100851 -0.270159 0.957519
vn 0.266282 -0.814088 -0.516096
vn 0.273215 -0.362041 -0.891224
vn 0.127321 -0.991778 -0.0129042
vn -0.139793 -0.826504 0.545297
vn -0.224786 0.2796 0.933432
vn -0.109292 -0.802813 0.586129
vn -0.274515 -0.868668 0.41238
vn -0.388509 -0.0316242 0.920902
vn -0.114048 0.795661 0.594909
vn -0.145719 -0.983517 -0.107055
vn -0.584614 -0.510842 0.630291
vn 0.088498 -0.804365 -0.587507
vn 0.366567 -0.246637 -0.897106
vn -0.458795 -0.609311 0.64672
vn -0.413236 0.293092 0.862168
vn -0.0931516 0.797859 0.595603
vn 0.279095 0.905025 0.320991
vn 0.512273 -0.392699 -0.763783
vn -0.728953 -0.356571 0.584368
vn -0.471304 0.422632 0.774115
vn 0.4944 -0.4858 -0.72081
vn -0.783097 -0.433338 0.44607
vn 0.839954 0.320494 -0.437904
vn 0.3767 0.861802 0.339697
vn 0.34724 -0.635287 -0.689807
vn -0.597812 -0.731909 0.327001
vn -0.466412 0.360133 0.807938
vn -0.261908 -0.941791 -0.210794
vn 0.689789 -0.723706 -0.0210014
vn -0.259666 -0.965292 -0.028012
vn 0.687881 -0.725417 -0.0242699
vn 0.515575 -0.546508 0.659933
vn 0.500733 -0.525354 -0.687946
vn 0.687881 -0.725417 -0.0242699
vn 0.515575 -0.546508 0.659933
vn 0.985464 0.165215 -0.0395616
vn 0.689126 0.414008 0.594729
vn -0.363629 0.297911 0.882623
vn 0.515575 -0.546508 0.659933
vn 0.59496 0.257044 0.761545
vn 0.645514 0.683405 0.340983
vn 0.567109 0.660011 0.492721
g grp1
usemtl mtl1
f 28//28 29//29 2//2 
f 2//2 4//4 1//1 
f 2//2 31//31 4//4 
f 2//2 3//3 31//31 
f 1//1 4//4 30//30 
f 30//30 4//4 32//32 
f 17//17 22//22 11//11 
f 22//22 24//24 12//12 
f 11//11 22//22 12//12 
f 17//17 5//5 28//28 
f 28//28 5//5 6//6 
f 29//29 28//28 6//6 
f 29//29 6//6 7//7 
f 9//9 5//5 11//11 
f 5//5 17//17 11//11 
f 8//8 5//5 9//9 
f 6//6 5//5 8//8 
f 10//10 6//6 8//8 
f 7//7 6//6 10//10 
f 9//9 10//10 8//8 
f 7//7 10//10 38//38 
f 14//14 10//10 9//9 
f 9//9 11//11 13//13 
f 11//11 12//12 13//13 
f 9//9 13//13 14//14 
f 14//14 15//15 10//10 
f 38//38 10//10 15//15 
f 12//12 16//16 13//13 
f 13//13 16//16 14//14 
f 44//44 15//15 14//14 
f 44//44 14//14 16//16 
f 1//1 18//18 17//17 
f 18//18 19//19 20//20 
f 18//18 1//1 19//19 
f 1//1 30//30 19//19 
f 22//22 18//18 20//20 
f 22//22 17//17 18//18 
f 20//20 19//19 21//21 
f 21//21 19//19 30//30 
f 25//25 20//20 21//21 
f 21//21 37//37 23//23 
f 20//20 24//24 22//22 
f 24//24 20//20 25//25 
f 21//21 26//26 25//25 
f 23//23 26//26 21//21 
f 12//12 24//24 27//27 
f 25//25 27//27 24//24 
f 46//46 45//45 27//27 
f 25//25 46//46 27//27 
f 46//46 25//25 26//26 
f 2//2 1//1 28//28 
f 1//1 17//17 28//28 
f 29//29 3//3 2//2 
f 29//29 7//7 3//3 
f 33//33 31//31 3//3 
f 4//4 31//31 34//34 
f 32//32 4//4 34//34 
f 7//7 36//36 3//3 
f 36//36 33//33 3//3 
f 30//30 37//37 21//21 
f 32//32 37//37 30//30 
f 40//40 37//37 32//32 
f 35//35 34//34 31//31 
f 31//31 33//33 35//35 
f 32//32 34//34 41//41 
f 40//40 32//32 41//41 
f 34//34 35//35 42//42 
f 7//7 38//38 39//39 
f 39//39 36//36 7//7 
f 53//53 36//36 39//39 
f 36//36 53//53 33//33 
f 37//37 40//40 23//23 
f 58//58 35//35 33//33 
f 41//41 34//34 42//42 
f 42//42 35//35 58//58 
f 38//38 15//15 54//54 
f 39//39 38//38 54//54 
f 26//26 23//23 43//43 
f 43//43 23//23 40//40 
f 40//40 41//41 57//57 
f 47//47 26//26 43//43 
f 12//12 27//27 16//16 
f 16//16 27//27 45//45 
f 16//16 45//45 44//44 
f 45//45 49//49 44//44 
f 44//44 48//48 15//15 
f 49//49 48//48 44//44 
f 50//50 45//45 46//46 
f 48//48 54//54 15//15 
f 26//26 52//52 46//46 
f 46//46 152//152 50//50 
f 47//47 52//52 26//26 
f 43//43 51//51 47//47 
f 55//55 51//51 43//43 
f 49//49 45//45 50//50 
f 49//49 50//50 62//62 
f 51//51 52//52 47//47 
f 48//48 49//49 62//62 
f 48//48 61//61 54//54 
f 152//152 62//62 50//50 
f 53//53 39//39 54//54 
f 58//58 33//33 59//59 
f 59//59 33//33 53//53 
f 153//153 53//53 54//54 
f 71//71 72//72 54//54 
f 72//72 153//153 54//54 
f 41//41 42//42 56//56 
f 57//57 41//41 56//56 
f 42//42 58//58 60//60 
f 56//56 42//42 60//60 
f 43//43 40//40 57//57 
f 55//55 43//43 57//57 
f 58//58 59//59 60//60 
f 60//60 59//59 70//70 
f 154//154 48//48 62//62 
f 152//152 64//64 62//62 
f 62//62 64//64 63//63 
f 154//154 62//62 63//63 
f 67//67 64//64 52//52 
f 51//51 67//67 52//52 
f 64//64 74//74 63//63 
f 61//61 65//65 54//54 
f 71//71 54//54 65//65 
f 65//65 154//154 63//63 
f 66//66 65//65 63//63 
f 66//66 71//71 65//65 
f 63//63 74//74 66//66 
f 76//76 71//71 66//66 
f 67//67 51//51 55//55 
f 68//68 67//67 55//55 
f 57//57 68//68 55//55 
f 69//69 64//64 67//67 
f 67//67 68//68 69//69 
f 77//77 68//68 57//57 
f 64//64 69//69 74//74 
f 72//72 70//70 59//59 
f 56//56 60//60 73//73 
f 60//60 155//155 73//73 
f 72//72 80//80 70//70 
f 57//57 56//56 73//73 
f 74//74 75//75 66//66 
f 75//75 76//76 66//66 
f 72//72 71//71 83//83 
f 77//77 57//57 73//73 
f 76//76 83//83 71//71 
f 74//74 69//69 78//78 
f 79//79 78//78 69//69 
f 68//68 79//79 69//69 
f 77//77 73//73 84//84 
f 75//75 87//87 76//76 
f 75//75 74//74 78//78 
f 83//83 80//80 72//72 
f 79//79 68//68 77//77 
f 155//155 156//156 85//85 
f 86//86 79//79 77//77 
f 86//86 77//77 84//84 
f 75//75 78//78 82//82 
f 82//82 157//157 75//75 
f 87//87 83//83 76//76 
f 81//81 78//78 79//79 
f 81//81 79//79 86//86 
f 82//82 78//78 81//81 
f 85//85 73//73 155//155 
f 84//84 73//73 85//85 
f 91//91 84//84 85//85 
f 91//91 85//85 90//90 
f 85//85 156//156 90//90 
f 156//156 95//95 90//90 
f 161//161 80//80 83//83 
f 87//87 89//89 83//83 
f 159//159 161//161 83//83 
f 88//88 82//82 81//81 
f 82//82 158//158 157//157 
f 93//93 81//81 86//86 
f 93//93 88//88 81//81 
f 89//89 87//87 96//96 
f 94//94 86//86 84//84 
f 91//91 94//94 84//84 
f 94//94 93//93 86//86 
f 90//90 95//95 97//97 
f 94//94 91//91 92//92 
f 91//91 90//90 92//92 
f 92//92 90//90 97//97 
f 94//94 92//92 98//98 
f 98//98 92//92 97//97 
f 88//88 93//93 100//100 
f 158//158 162//162 157//157 
f 158//158 101//101 162//162 
f 94//94 98//98 102//102 
f 88//88 100//100 163//163 
f 93//93 99//99 100//100 
f 94//94 99//99 93//93 
f 99//99 94//94 102//102 
f 107//107 161//161 159//159 
f 98//98 108//108 102//102 
f 100//100 99//99 105//105 
f 99//99 102//102 105//105 
f 101//101 103//103 162//162 
f 96//96 164//164 89//89 
f 166//166 97//97 95//95 
f 108//108 98//98 97//97 
f 101//101 112//112 103//103 
f 102//102 108//108 109//109 
f 101//101 121//121 112//112 
f 104//104 163//163 100//100 
f 163//163 104//104 174//174 
f 104//104 100//100 105//105 
f 102//102 111//111 105//105 
f 109//109 111//111 102//102 
f 106//106 174//174 104//104 
f 106//106 104//104 105//105 
f 114//114 105//105 111//111 
f 105//105 114//114 106//106 
f 167//167 160//160 165//165 
f 168//168 113//113 165//165 
f 165//165 113//113 167//167 
f 97//97 166//166 116//116 
f 108//108 110//110 109//109 
f 108//108 170//170 110//110 
f 108//108 97//97 170//170 
f 109//109 110//110 111//111 
f 116//116 166//166 169//169 
f 169//169 122//122 116//116 
f 114//114 111//111 115//115 
f 111//111 110//110 115//115 
f 115//115 110//110 126//126 
f 110//110 170//170 126//126 
f 117//117 113//113 168//168 
f 113//113 117//117 175//175 
f 127//127 114//114 115//115 
f 127//127 115//115 126//126 
f 112//112 121//121 124//124 
f 171//171 112//112 124//124 
f 124//124 119//119 171//171 
f 124//124 128//128 119//119 
f 119//119 118//118 171//171 
f 175//175 117//117 172//172 
f 172//172 129//129 175//175 
f 128//128 131//131 120//120 
f 128//128 173//173 119//119 
f 119//119 135//135 118//118 
f 172//172 180//180 129//129 
f 129//129 180//180 136//136 
f 181//181 133//133 176//176 
f 173//173 137//137 119//119 
f 119//119 137//137 135//135 
f 123//123 174//174 106//106 
f 127//127 123//123 114//114 
f 114//114 123//123 106//106 
f 125//125 124//124 121//121 
f 123//123 125//125 174//174 
f 128//128 124//124 125//125 
f 130//130 128//128 125//125 
f 122//122 176//176 116//116 
f 127//127 130//130 123//123 
f 123//123 130//130 125//125 
f 128//128 130//130 131//131 
f 133//133 116//116 176//176 
f 177//177 126//126 170//170 
f 130//130 132//132 131//131 
f 132//132 130//130 127//127 
f 132//132 127//127 151//151 
f 127//127 126//126 151//151 
f 151//151 126//126 178//178 
f 132//132 134//134 131//131 
f 132//132 151//151 134//134 
f 120//120 131//131 179//179 
f 182//182 120//120 179//179 
f 135//135 141//141 138//138 
f 182//182 139//139 186//186 
f 135//135 137//137 141//141 
f 180//180 183//183 136//136 
f 182//182 179//179 139//139 
f 141//141 142//142 138//138 
f 187//187 145//145 143//143 
f 183//183 187//187 143//143 
f 181//181 188//188 133//133 
f 136//136 183//183 143//143 
f 184//184 134//134 140//140 
f 140//140 134//134 151//151 
f 178//178 185//185 151//151 
f 139//139 144//144 186//186 
f 141//141 189//189 142//142 
f 189//189 191//191 142//142 
f 143//143 145//145 148//148 
f 199//199 150//150 188//188 
f 149//149 146//146 184//184 
f 178//178 203//203 185//185 
f 150//150 133//133 188//188 
f 149//149 184//184 140//140 
f 144//144 139//139 194//194 
f 192//192 190//190 195//195 
f 147//147 192//192 195//195 
f 193//193 196//196 200//200 
f 146//146 149//149 197//197 
f 198//198 202//202 203//203 
f 201//201 198//198 203//203 
f 203//203 202//202 185//185 
