v -17.98 -103.011 1403.8
v -17.8522 -103.015 1403.39
v -17.6353 -102.613 1403.42
v -17.7867 -102.624 1403.8
v -17.8104 -103.644 1403.54
v -17.8304 -102.813 1404.18
v -17.796 -103.017 1404.36
v -17.9773 -103.246 1404
v -17.881 -103.402 1404.19
v -16.5698 -103.809 1401.97
v -16.4564 -105.011 1401.98
v -16.0746 -104.846 1401.37
v -17.5407 -102.855 1403.12
v -17.5757 -102.444 1403.79
v -17.3801 -102.479 1403.4
v -17.1914 -102.321 1403.78
v -16.9527 -102.936 1402.79
v -16.7621 -102.476 1403.51
v -16.8207 -102.366 1403.81
v -16.5857 -102.507 1403.79
v -17.1785 -103.809 1402.43
v -16.3131 -104.648 1403.38
v -16.1458 -105.289 1402.41
v -17.5821 -102.545 1404.18
v -17.5763 -102.803 1404.46
v -17.194 -102.339 1404.01
v -17.0297 -102.533 1404.38
v -17.0051 -102.819 1404.6
v -16.8067 -102.452 1404.18
v -16.801 -102.598 1404.39
v -16.6048 -102.606 1404.22
v -16.6052 -102.813 1404.42
v -16.3286 -102.841 1403.96
v -17.5599 -103.21 1404.56
v -17.3428 -103.964 1404.14
v -16.9927 -103.208 1404.69
v -17.0105 -103.586 1404.59
v -16.7191 -103.836 1404.31
v -16.4104 -103.219 1404.34
v -16.6227 -103.18 1404.55
v -16.6049 -103.418 1404.5
v -14.7894 -106.222 1400.6
v -15.3119 -104.684 1401.01
v -15.3594 -104.11 1401.62
v -14.5627 -104.674 1401.91
v -14.9765 -105.908 1402
v -14.3732 -105.087 1401.97
v -14.6255 -105.753 1402.06
v -14.3965 -106.677 1400.91
v -16.0079 -103.944 1403.66
v -15.7985 -103.442 1402.66
v -15.7578 -103.632 1403.21
v -15.6357 -104.412 1403.17
v -15.1052 -104.205 1402.41
v -15.1292 -104.385 1402.62
v -13.3557 -105.877 1400.06
v -12.9321 -106.872 1399.42
v -13.7187 -106.98 1400.98
v -13.3239 -106.963 1401.04
v -13.5961 -106.384 1401.39
v -12.3294 -106.561 1400.52
v -11.8113 -106.794 1399.84
v -11.9078 -107.489 1400.43
v -11.817 -108.396 1399.1
v -8.86749 -110.279 1397.66
v -8.30218 -109.52 1398.26
v -7.91675 -110.179 1397.3
v -7.79071 -109.938 1397.59
v -7.11827 -111.629 1397.29
v -6.65767 -111.264 1396.49
v -6.6295 -111.563 1397.56
v -8.21722 -110.059 1398.58
v -6.96542 -110.651 1397.81
v -7.91434 -110.992 1398.03
v -5.64379 -112.159 1395.85
v -5.19587 -112.199 1395.53
v -5.01123 -112.573 1395.61
v -6.41223 -110.882 1396.81
v -6.47646 -111.963 1396.64
v -6.39355 -111.924 1397.17
v -6.25872 -111.538 1397.43
v -5.42755 -112.171 1396.76
v -5.39372 -111.81 1396.85
v -5.02093 -112.566 1396.21
v -4.80847 -112.721 1395.81
v -4.48345 -112.598 1395.2
v -4.06246 -112.375 1394.96
v -4.08335 -111.937 1395.52
v -3.86993 -112.123 1395.08
v -3.65789 -112.196 1395.61
v -3.76223 -112.405 1395.8
v -3.94907 -112.896 1395.58
v -3.7982 -112.964 1395.2
v -3.7186 -112.737 1395.71
v -3.36829 -112.795 1394.69
v -4.47293 -112.154 1396.22
v -4.47206 -111.889 1396.05
v -2.43776 -112.591 1394.41
v -1.98635 -112.99 1394.34
v -3.1188 -112.204 1395.04
v -3.19349 -112.606 1395.53
v -3.02093 -112.399 1395.37
v -2.57654 -112.297 1394.79
v -2.55276 -112.601 1395.27
v -2.38187 -112.358 1395
v -1.74714 -112.462 1394.41
v -2.7811 -112.974 1395.24
v -2.61197 -113.086 1394.62
v -2.31065 -113.162 1394.84
v -1.87413 -113.189 1394.6
v -1.76455 -113.16 1394.81
v -0.683296 -112.794 1394.14
v -1.32162 -112.402 1394.61
v -1.25225 -112.503 1394.81
v -0.6 -112.43 1394.4
v -0.627203 -112.449 1394.6
v -0.631977 -112.596 1394.8
v -0.4 -112.534 1394.4
v -0.358907 -112.611 1394.6
v -1.43161 -112.801 1394.99
v -0.6 -113.208 1394.4
v -0.661651 -113.182 1394.6
v -0.421487 -112.8 1394.79
v -0.631265 -112.799 1394.88
v -0.64877 -112.993 1394.83
v -0.289067 -112.801 1394.41
v -0.4 -113.095 1394.4
v -0.286289 -112.8 1394.6
v -0.341975 -112.99 1394.6
v -17.98 -103.011 1403.8
v -17.9773 -103.246 1404
v -17.881 -103.402 1404.19
v -17.3428 -103.964 1404.14
v -16.9927 -103.208 1404.69
v -17.0105 -103.586 1404.59
v -7.91675 -110.179 1397.3
v -6.65767 -111.264 1396.49
v -6.41223 -110.882 1396.81
v -3.86993 -112.123 1395.08
v -3.65789 -112.196 1395.61
v -3.7186 -112.737 1395.71
v -2.57654 -112.297 1394.79
v -2.55276 -112.601 1395.27
v -0.6 -112.43 1394.4
v -0.4 -112.534 1394.4
v -0.4 -112.534 1394.4
v -0.358907 -112.611 1394.6
v -1.43161 -112.801 1394.99
v -0.6 -113.208 1394.4
v -0.421487 -112.8 1394.79
v -0.631265 -112.799 1394.88
v -0.289067 -112.801 1394.41
v -0.289067 -112.801 1394.41
v -0.4 -113.095 1394.4
v -0.4 -113.095 1394.4
v -0.286289 -112.8 1394.6
v -0.286289 -112.8 1394.6
v -0.286289 -112.8 1394.6
v -0.341975 -112.99 1394.6
vn -0.956466 -0.157976 -0.245391
vn -0.864529 0.215742 -0.453922
vn -0.629139 0.64935 -0.427234
vn -0.793564 0.606608 -0.0477876
vn -0.877637 -0.461097 -0.130933
vn -0.824786 0.42797 0.369554
vn -0.780708 0.125509 0.612162
vn -0.943601 -0.325498 -0.060564
vn -0.804269 -0.579934 0.12972
vn -0.356651 0.478334 -0.802494
vn -0.769412 -0.560385 -0.306551
vn -0.62273 -0.0128377 -0.782332
vn -0.520517 0.486896 -0.701423
vn -0.468834 0.881953 -0.04851
vn -0.223249 0.839578 -0.495247
vn -0.0588681 0.984094 -0.167609
vn -0.0827072 0.728124 -0.680438
vn 0.30568 0.87141 -0.383671
vn 0.30032 0.953764 -0.0119092
vn 0.625389 0.78006 0.0198907
vn -0.766646 -0.0135646 -0.641927
vn 0.0914202 -0.713495 0.69467
vn -0.459751 -0.835073 0.302129
vn -0.487155 0.768894 0.414103
vn -0.438371 0.471381 0.765265
vn -0.0899803 0.958823 0.269375
vn -0.0404305 0.7649 0.642879
vn 0.0877513 0.388794 0.917136
vn 0.345716 0.867536 0.357577
vn 0.354382 0.654427 0.667936
vn 0.639344 0.659966 0.394569
vn 0.62909 0.388996 0.672999
vn 0.834125 0.471601 0.286057
vn -0.433003 -0.126463 0.892477
vn -0.680661 -0.717368 0.148608
vn -0.22017 -0.0102906 0.975407
vn -0.224284 -0.531139 0.817061
vn 0.341353 -0.579047 0.740394
vn 0.808056 0.0773188 0.58401
vn 0.516614 0.0903689 0.851436
vn 0.523918 -0.281587 0.803877
vn -0.689294 -0.454744 -0.563988
vn -0.193262 0.507573 -0.839655
vn 0.324673 0.816261 -0.477813
vn 0.735243 0.634539 0.238282
vn -0.0601975 -0.733093 0.677459
vn 0.68722 0.166636 0.707079
vn 0.373776 -0.380211 0.846009
vn -0.575945 -0.816813 0.0332286
vn 0.751004 -0.164166 0.639565
vn 0.718574 0.694732 -0.0315931
vn 0.859011 0.289617 0.422165
vn 0.658482 -0.157211 0.735993
vn 0.793326 0.495753 0.353361
vn 0.781917 0.258889 0.567083
vn 0.189307 0.721143 -0.66642
vn -0.394375 0.114687 -0.911765
vn -0.250685 -0.803361 0.540155
vn 0.142082 -0.505412 0.8511
vn 0.375041 -0.259923 0.889823
vn 0.686473 0.445403 0.574779
vn 0.602882 0.79688 -0.0389169
vn 0.451589 -0.0796781 0.888661
vn -0.643303 -0.661342 -0.38573
vn -0.511701 -0.157132 -0.844673
vn 0.656607 0.706386 0.264359
vn 0.0934235 0.65627 -0.74872
vn 0.394741 0.825553 -0.403289
vn -0.454467 -0.879996 0.138085
vn -0.363041 0.251016 -0.897325
vn 0.168457 -0.543775 0.82215
vn 0.452774 -0.0294222 0.89114
vn 0.644329 0.486604 0.589963
vn -0.234401 -0.793039 0.562268
vn -0.622907 -0.377981 -0.684921
vn -0.532391 -0.154444 -0.83229
vn -0.519146 -0.700721 -0.489363
vn 0.00428673 0.688666 -0.725066
vn -0.56566 -0.768568 -0.298884
vn -0.155565 -0.869662 0.468495
vn 0.469442 -0.15837 0.868645
vn 0.277693 -0.554496 0.784488
vn 0.542103 -0.0493551 0.838861
vn -0.0734988 -0.892794 0.444429
vn -0.303997 -0.952161 0.0312287
vn -0.479285 -0.456189 -0.749785
vn -0.35503 0.212936 -0.910281
vn 0.405635 0.910484 0.0804997
vn -0.157724 0.645322 -0.747451
vn 0.429272 0.837532 0.338032
vn 0.481856 0.147158 0.863805
vn 0.00147603 -0.911588 0.411102
vn -0.294597 -0.91815 -0.26498
vn 0.151428 -0.740841 0.654388
vn -0.359981 -0.392853 -0.846215
vn 0.58304 0.210239 0.78477
vn 0.591278 0.61891 0.51705
vn -0.183081 0.38307 -0.905394
vn -0.174313 -0.501559 -0.84738
vn 0.251311 0.957635 0.140636
vn 0.401634 -0.0402296 0.914916
vn 0.399737 0.586522 0.704416
vn -0.0489551 0.837796 -0.543785
vn 0.312298 0.490991 0.813264
vn 0.227558 0.863878 0.449368
vn -0.0531412 0.783553 -0.619049
vn 0.214945 -0.589496 0.778648
vn -0.223358 -0.857732 -0.463041
vn -0.0467742 -0.985071 0.165673
vn -0.0628202 -0.985185 -0.159576
vn 0.0754806 -0.842914 0.532728
vn 0.189383 0.080525 -0.978596
vn 0.0745074 0.992763 0.0941808
vn 0.168801 0.712301 0.681273
vn 0.122817 0.551932 -0.824795
vn 0.289719 0.888811 0.355074
vn 0.293984 0.553542 0.779208
vn 0.418047 0.36405 -0.832289
vn 0.584127 0.616205 0.528287
vn 0.156319 -0.395406 0.905107
vn 0.0392511 -0.623015 -0.781224
vn 0.264637 -0.898308 0.350729
vn 0.571976 0.391629 0.720743
vn 0.256008 0.360971 0.89675
vn 0.287115 -0.516672 0.806607
vn 0.558878 0.00996796 -0.82919
vn 0.414426 -0.330409 -0.847986
vn 0.933312 0.358753 -0.015
vn 0.586978 -0.584343 0.560358
vn -0.926379 0.375045 0.0341103
vn -0.924084 0.12359 0.361655
vn -0.728576 -0.240438 0.641379
vn -0.228657 -0.70423 0.672143
vn 0.34 -0.0678365 0.937975
vn 0.348637 -0.358434 0.866012
vn -0.361282 0.155556 -0.91939
vn -0.416971 0.232794 -0.878602
vn 0.483028 0.874519 -0.0436077
vn 0.156075 0.955265 -0.251215
vn 0.51959 0.438467 0.73333
vn 0.440304 -0.191857 0.877111
vn 0.140237 0.989127 0.0442938
vn 0.282885 -0.25367 0.925002
vn 0.172149 0.985016 0.0104292
vn 0.480806 0.857244 0.184278
vn 0.923153 0.382127 -0.042038
vn 0.928393 0.370504 -0.028524
vn 0.170528 0.396988 0.901843
vn 0.248669 -0.948267 0.197365
vn 0.584486 -0.328359 0.741995
vn 0.264554 -0.262652 0.927914
vn 0.928393 0.370504 -0.028524
vn 0.947599 -0.315426 -0.0506298
vn 0.484742 -0.831999 0.269821
vn 0.932943 -0.349059 -0.0881732
vn 0.771816 0.296676 0.562391
vn 0.959643 -0.280923 -0.0129468
vn 0.786034 -0.229351 0.574064
vn 0.947599 -0.315426 -0.0506298
g grp1
usemtl mtl1
f 1//1 5//5 8//8 
f 4//4 2//2 130//130 
f 2//2 5//5 1//1 
f 13//13 2//2 3//3 
f 3//3 4//4 14//14 
f 2//2 4//4 3//3 
f 5//5 9//9 8//8 
f 35//35 9//9 5//5 
f 130//130 131//131 6//6 
f 131//131 7//7 6//6 
f 25//25 6//6 7//7 
f 24//24 14//14 4//4 
f 4//4 6//6 24//24 
f 130//130 6//6 4//4 
f 24//24 6//6 25//25 
f 34//34 25//25 7//7 
f 131//131 132//132 7//7 
f 132//132 34//34 7//7 
f 132//132 133//133 34//34 
f 21//21 12//12 11//11 
f 13//13 10//10 21//21 
f 13//13 17//17 10//10 
f 21//21 10//10 12//12 
f 44//44 10//10 17//17 
f 5//5 11//11 23//23 
f 3//3 15//15 13//13 
f 15//15 3//3 14//14 
f 13//13 15//15 17//17 
f 16//16 15//15 14//14 
f 16//16 14//14 26//26 
f 44//44 17//17 18//18 
f 18//18 17//17 15//15 
f 18//18 15//15 16//16 
f 18//18 16//16 19//19 
f 19//19 16//16 26//26 
f 51//51 44//44 18//18 
f 20//20 51//51 18//18 
f 19//19 20//20 18//18 
f 33//33 51//51 20//20 
f 51//51 33//33 52//52 
f 2//2 21//21 5//5 
f 21//21 11//11 5//5 
f 23//23 22//22 133//133 
f 5//5 23//23 35//35 
f 21//21 2//2 13//13 
f 27//27 24//24 25//25 
f 27//27 25//25 28//28 
f 36//36 28//28 34//34 
f 28//28 25//25 34//34 
f 14//14 24//24 26//26 
f 24//24 27//27 26//26 
f 27//27 29//29 26//26 
f 29//29 19//19 26//26 
f 27//27 30//30 29//29 
f 28//28 30//30 27//27 
f 19//19 29//29 20//20 
f 31//31 29//29 30//30 
f 32//32 31//31 30//30 
f 32//32 30//30 28//28 
f 40//40 32//32 28//28 
f 40//40 28//28 134//134 
f 31//31 33//33 20//20 
f 29//29 31//31 20//20 
f 31//31 32//32 33//33 
f 32//32 39//39 33//33 
f 39//39 32//32 40//40 
f 39//39 52//52 33//33 
f 34//34 133//133 37//37 
f 36//36 34//34 37//37 
f 38//38 37//37 133//133 
f 133//133 22//22 38//38 
f 135//135 38//38 41//41 
f 135//135 41//41 134//134 
f 53//53 38//38 22//22 
f 38//38 50//50 41//41 
f 38//38 53//53 50//50 
f 41//41 40//40 134//134 
f 41//41 39//39 40//40 
f 50//50 39//39 41//41 
f 50//50 52//52 39//39 
f 43//43 57//57 12//12 
f 12//12 57//57 42//42 
f 12//12 42//42 11//11 
f 10//10 44//44 43//43 
f 51//51 45//45 44//44 
f 57//57 43//43 56//56 
f 43//43 44//44 56//56 
f 51//51 54//54 45//45 
f 45//45 54//54 47//47 
f 10//10 43//43 12//12 
f 49//49 23//23 11//11 
f 23//23 46//46 22//22 
f 23//23 49//49 58//58 
f 23//23 58//58 46//46 
f 59//59 46//46 58//58 
f 59//59 48//48 46//46 
f 48//48 47//47 53//53 
f 59//59 60//60 48//48 
f 42//42 49//49 11//11 
f 64//64 49//49 42//42 
f 52//52 54//54 51//51 
f 52//52 50//50 53//53 
f 52//52 55//55 54//54 
f 53//53 55//55 52//52 
f 55//55 47//47 54//54 
f 53//53 47//47 55//55 
f 46//46 48//48 22//22 
f 22//22 48//48 53//53 
f 62//62 56//56 44//44 
f 45//45 47//47 61//61 
f 48//48 60//60 47//47 
f 45//45 62//62 44//44 
f 60//60 63//63 47//47 
f 45//45 61//61 62//62 
f 59//59 63//63 60//60 
f 68//68 67//67 56//56 
f 67//67 57//57 56//56 
f 57//57 64//64 42//42 
f 64//64 57//57 65//65 
f 136//136 65//65 57//57 
f 47//47 63//63 61//61 
f 62//62 68//68 56//56 
f 74//74 58//58 49//49 
f 74//74 59//59 58//58 
f 65//65 136//136 70//70 
f 65//65 137//137 79//79 
f 62//62 66//66 68//68 
f 62//62 61//61 66//66 
f 72//72 66//66 61//61 
f 63//63 72//72 61//61 
f 74//74 72//72 59//59 
f 59//59 72//72 63//63 
f 65//65 79//79 64//64 
f 49//49 64//64 74//74 
f 66//66 72//72 73//73 
f 67//67 78//78 137//137 
f 68//68 78//78 67//67 
f 66//66 138//138 68//68 
f 73//73 138//138 66//66 
f 79//79 69//69 64//64 
f 80//80 74//74 69//69 
f 71//71 74//74 80//80 
f 82//82 71//71 80//80 
f 72//72 74//74 71//71 
f 72//72 81//81 73//73 
f 69//69 74//74 64//64 
f 71//71 81//81 72//72 
f 137//137 75//75 79//79 
f 76//76 75//75 137//137 
f 78//78 89//89 137//137 
f 76//76 137//137 87//87 
f 77//77 79//79 75//75 
f 77//77 75//75 76//76 
f 89//89 87//87 137//137 
f 77//77 85//85 79//79 
f 76//76 87//87 86//86 
f 86//86 77//77 76//76 
f 77//77 86//86 93//93 
f 85//85 77//77 93//93 
f 84//84 79//79 85//85 
f 79//79 80//80 69//69 
f 81//81 71//71 82//82 
f 83//83 73//73 81//81 
f 84//84 80//80 79//79 
f 82//82 80//80 84//84 
f 81//81 82//82 83//83 
f 88//88 139//139 138//138 
f 88//88 138//138 73//73 
f 94//94 82//82 84//84 
f 82//82 141//141 83//83 
f 96//96 73//73 83//83 
f 141//141 96//96 83//83 
f 73//73 97//97 88//88 
f 92//92 84//84 85//85 
f 97//97 90//90 88//88 
f 87//87 95//95 86//86 
f 86//86 95//95 93//93 
f 91//91 141//141 101//101 
f 102//102 140//140 91//91 
f 102//102 91//91 101//101 
f 100//100 139//139 88//88 
f 102//102 100//100 90//90 
f 90//90 100//100 88//88 
f 93//93 92//92 85//85 
f 95//95 108//108 93//93 
f 109//109 93//93 108//108 
f 92//92 93//93 109//109 
f 107//107 94//94 92//92 
f 97//97 73//73 96//96 
f 92//92 94//94 84//84 
f 140//140 97//97 96//96 
f 140//140 96//96 91//91 
f 96//96 141//141 91//91 
f 98//98 99//99 95//95 
f 106//106 115//115 112//112 
f 98//98 106//106 112//112 
f 99//99 98//98 112//112 
f 101//101 141//141 107//107 
f 87//87 98//98 95//95 
f 98//98 87//87 89//89 
f 103//103 98//98 89//89 
f 142//142 139//139 100//100 
f 104//104 102//102 101//101 
f 143//143 101//101 107//107 
f 106//106 98//98 103//103 
f 105//105 142//142 100//100 
f 105//105 100//100 102//102 
f 104//104 105//105 102//102 
f 113//113 106//106 103//103 
f 143//143 107//107 120//120 
f 105//105 113//113 142//142 
f 106//106 113//113 144//144 
f 105//105 114//114 113//113 
f 105//105 104//104 114//114 
f 107//107 92//92 109//109 
f 99//99 108//108 95//95 
f 99//99 110//110 108//108 
f 110//110 109//109 108//108 
f 111//111 107//107 109//109 
f 111//111 109//109 110//110 
f 120//120 107//107 111//111 
f 118//118 112//112 115//115 
f 112//112 118//118 126//126 
f 121//121 99//99 112//112 
f 127//127 121//121 112//112 
f 127//127 112//112 126//126 
f 148//148 114//114 104//104 
f 116//116 144//144 113//113 
f 116//116 113//113 114//114 
f 117//117 116//116 114//114 
f 117//117 114//114 148//148 
f 117//117 148//148 124//124 
f 145//145 144//144 116//116 
f 119//119 116//116 117//117 
f 123//123 119//119 117//117 
f 124//124 123//123 117//117 
f 147//147 152//152 146//146 
f 116//116 119//119 145//145 
f 152//152 147//147 128//128 
f 123//123 156//156 119//119 
f 151//151 120//120 125//125 
f 120//120 111//111 125//125 
f 121//121 110//110 99//99 
f 111//111 122//122 125//125 
f 110//110 122//122 111//111 
f 149//149 122//122 110//110 
f 154//154 129//129 122//122 
f 154//154 122//122 149//149 
f 125//125 122//122 129//129 
f 125//125 150//150 151//151 
f 153//153 157//157 159//159 
f 155//155 153//153 159//159 
f 129//129 158//158 150//150 
f 125//125 129//129 150//150 
