v -25.9959 -93.2834 1430.32
v -26.0389 -92.716 1430.14
v -26.6588 -93.2792 1430.43
v -24.9984 -92.5161 1430.62
v -26.638 -92.728 1430.22
v -27.3121 -92.6236 1430.65
v -26.0938 -92.0365 1430.3
v -26.7679 -92.0125 1430.42
v -26.0929 -93.7952 1431.24
v -25.0363 -91.7567 1430.85
v -25.0062 -93.4755 1432.21
v -26.1898 -93.6772 1432.33
v -27.6568 -92.9893 1431.72
v -25.6861 -90.9607 1430.98
v -26.282 -90.9622 1430.88
v -24.3065 -91.9179 1432.22
v -28.1138 -92.2402 1432.06
v -27.8965 -91.6693 1431.71
v -26.93 -90.7276 1431.44
v -25.2032 -90.4074 1432.05
v -25.8692 -90.1244 1431.93
v -24.4863 -90.9513 1433.55
v -26.5809 -89.8951 1432.61
v -25.4214 -89.8387 1433.53
v -26.0864 -89.5981 1433.38
v -27.7641 -90.2064 1433.65
v -25.793 -92.3423 1439.45
v -28.8585 -90.957 1435.78
v -28.3763 -92.3544 1437.97
v -29.0829 -91.6245 1437.52
v -24.7561 -91.5711 1438.55
v -24.7738 -90.9234 1438.68
v -28.1217 -89.0158 1437.52
v -27.1445 -91.5796 1442.98
v -27.7956 -91.6775 1442.75
v -28.4799 -91.2711 1443.38
v -27.3025 -90.7819 1443.96
v -27.9126 -91.0938 1444
v -29.3244 -91.2439 1440.81
v -29.1153 -89.5254 1440.2
v -27.1519 -88.5131 1439.81
v -25.4576 -90.1693 1441.44
v -25.6476 -89.5954 1440.84
v -28.449 -88.7446 1440.7
v -27.8801 -88.4532 1440.64
v -26.005 -91.0777 1442.32
v -26.7753 -88.7919 1442.11
v -27.3976 -88.5205 1441.96
v -28.0104 -88.6536 1442.48
v -26.3616 -90.1647 1443.29
v -29.2866 -90.4464 1443.03
v -26.3778 -89.5824 1443.02
v -29.2624 -89.8575 1442.74
v -27.429 -88.9611 1443.27
v -28.602 -89.005 1442.59
v -27.9869 -90.5301 1444.31
v -28.5425 -90.6831 1444.03
v -27.4269 -89.9794 1444.16
v -28.6015 -90.07 1444.09
v -27.422 -89.4337 1443.87
v -28.6433 -89.5531 1443.72
v -28.0533 -89.0162 1443.43
v -28.0413 -89.8949 1444.28
v -29.5196 -90.6543 1440.49
v -25.9959 -93.2834 1430.32
v -25.9959 -93.2834 1430.32
v -25.9959 -93.2834 1430.32
v -24.9984 -92.5161 1430.62
v -24.9984 -92.5161 1430.62
v -26.0929 -93.7952 1431.24
v -26.0929 -93.7952 1431.24
v -25.0062 -93.4755 1432.21
v -25.793 -92.3423 1439.45
v -27.9869 -90.5301 1444.31
v -28.6015 -90.07 1444.09
v -28.0413 -89.8949 1444.28
vn -0.0828643 -0.867764 -0.490019
vn 0.156704 -0.0282603 -0.987241
vn -0.441376 -0.644672 -0.624168
vn 0.775521 -0.541665 -0.324293
vn -0.286138 -0.0588608 -0.956379
vn -0.750413 -0.12254 -0.649511
vn 0.116964 0.344677 -0.931406
vn -0.441382 0.371188 -0.816946
vn -0.355739 -0.908946 -0.21741
vn 0.636421 0.399457 -0.65985
vn 0.770853 -0.618316 -0.153199
vn -0.130175 -0.984048 0.121259
vn -0.683303 -0.713736 -0.153876
vn 0.326504 0.612213 -0.720132
vn -0.113668 0.631322 -0.767145
vn 0.97533 0.070285 -0.209264
vn -0.944059 -0.147447 -0.294976
vn -0.802946 0.353948 -0.479581
vn -0.467577 0.682166 -0.562158
vn 0.666867 0.645535 -0.372255
vn 0.127555 0.870416 -0.475507
vn 0.910832 0.411381 -0.0339265
vn -0.302341 0.88104 -0.363812
vn 0.559803 0.817985 -0.132369
vn 0.0869066 0.968946 -0.231496
vn -0.690738 0.644967 -0.326954
vn 0.0148396 -0.98224 0.187039
vn -0.9383 0.273052 -0.212216
vn -0.442441 -0.891198 0.100061
vn -0.911359 -0.40515 -0.0726561
vn 0.939407 -0.281263 0.195973
vn 0.965039 0.233868 0.118346
vn -0.493515 0.843737 -0.211069
vn 0.331172 -0.82028 0.466333
vn -0.186182 -0.947643 0.259441
vn -0.520959 -0.768625 0.371238
vn 0.515958 -0.406249 0.754154
vn -0.0377482 -0.741394 0.670007
vn -0.753415 -0.647447 0.114797
vn -0.847778 0.524889 -0.0759219
vn 0.272262 0.960471 -0.0580502
vn 0.937385 0.142753 0.317696
vn 0.764965 0.636849 0.0961884
vn -0.589052 0.80791 -0.0173177
vn -0.217623 0.975756 -0.0232421
vn 0.757809 -0.463353 0.45938
vn 0.524561 0.825611 0.207851
vn 0.152123 0.974942 0.162316
vn -0.249282 0.945285 0.210463
vn 0.762735 0.059251 0.643991
vn -0.920906 -0.147508 0.360797
vn 0.707258 0.549925 0.444262
vn -0.900128 0.398752 0.175406
vn 0.267224 0.859208 0.436295
vn -0.643378 0.743445 0.18263
vn 0.301732 -0.177983 0.936632
vn -0.570322 -0.422907 0.704189
vn 0.436795 0.132868 0.889694
vn -0.641591 0.00797627 0.767006
vn 0.36185 0.585219 0.725661
vn -0.647201 0.546948 0.531017
vn -0.205903 0.820974 0.532547
vn -0.0637792 0.511228 0.857075
vn -0.999562 0.0176582 -0.0237296
vn 0.588621 -0.712455 -0.382011
vn 0.442696 -0.238039 -0.864499
vn -0.127778 -0.327357 -0.936221
vn 0.411087 0.0956483 -0.906564
vn 0.876888 0.179407 -0.445961
vn 0.543375 -0.757055 -0.362783
vn 0.179015 -0.976209 0.122354
vn 0.180916 -0.97248 0.146807
vn 0.658733 -0.692224 0.294782
vn -0.348905 -0.201337 0.915275
vn -0.409701 0.512553 0.754609
vn -0.321118 0.0261577 0.946678
g grp1
usemtl mtl1
f 9//9 3//3 1//1 
f 4//4 11//11 65//65 
f 2//2 68//68 66//66 
f 5//5 2//2 67//67 
f 67//67 3//3 5//5 
f 68//68 2//2 7//7 
f 2//2 5//5 7//7 
f 11//11 70//70 65//65 
f 13//13 3//3 9//9 
f 3//3 6//6 5//5 
f 13//13 17//17 6//6 
f 3//3 13//13 6//6 
f 10//10 68//68 7//7 
f 5//5 8//8 7//7 
f 6//6 8//8 5//5 
f 10//10 7//7 14//14 
f 14//14 7//7 15//15 
f 15//15 7//7 8//8 
f 72//72 12//12 71//71 
f 12//12 13//13 9//9 
f 11//11 4//4 16//16 
f 10//10 16//16 69//69 
f 6//6 18//18 8//8 
f 18//18 6//6 17//17 
f 20//20 10//10 14//14 
f 8//8 18//18 19//19 
f 15//15 8//8 19//19 
f 10//10 20//20 16//16 
f 20//20 14//14 21//21 
f 14//14 15//15 21//21 
f 21//21 15//15 19//19 
f 27//27 12//12 72//72 
f 12//12 29//29 13//13 
f 31//31 11//11 16//16 
f 31//31 16//16 22//22 
f 22//22 16//16 20//20 
f 26//26 19//19 18//18 
f 27//27 29//29 12//12 
f 32//32 31//31 22//22 
f 21//21 24//24 20//20 
f 21//21 19//19 23//23 
f 73//73 11//11 31//31 
f 17//17 13//13 30//30 
f 22//22 20//20 24//24 
f 19//19 26//26 23//23 
f 25//25 24//24 21//21 
f 25//25 21//21 23//23 
f 43//43 32//32 22//22 
f 25//25 23//23 33//33 
f 26//26 33//33 23//23 
f 43//43 22//22 24//24 
f 24//24 41//41 43//43 
f 25//25 41//41 24//24 
f 41//41 25//25 33//33 
f 28//28 18//18 17//17 
f 30//30 28//28 17//17 
f 28//28 26//26 18//18 
f 29//29 35//35 39//39 
f 31//31 46//46 73//73 
f 27//27 35//35 29//29 
f 33//33 26//26 28//28 
f 30//30 13//13 29//29 
f 40//40 33//33 28//28 
f 39//39 30//30 29//29 
f 44//44 33//33 40//40 
f 42//42 46//46 31//31 
f 42//42 31//31 32//32 
f 43//43 42//42 32//32 
f 28//28 64//64 40//40 
f 30//30 64//64 28//28 
f 30//30 39//39 64//64 
f 46//46 34//34 73//73 
f 27//27 34//34 35//35 
f 35//35 36//36 39//39 
f 34//34 38//38 35//35 
f 46//46 37//37 34//34 
f 34//34 37//37 38//38 
f 38//38 36//36 35//35 
f 38//38 57//57 36//36 
f 56//56 38//38 37//37 
f 57//57 38//38 74//74 
f 48//48 41//41 45//45 
f 41//41 33//33 45//45 
f 44//44 45//45 33//33 
f 52//52 42//42 43//43 
f 47//47 52//52 43//43 
f 47//47 43//43 41//41 
f 48//48 47//47 41//41 
f 51//51 64//64 39//39 
f 50//50 46//46 42//42 
f 39//39 36//36 51//51 
f 52//52 50//50 42//42 
f 53//53 64//64 51//51 
f 55//55 40//40 53//53 
f 53//53 40//40 64//64 
f 54//54 52//52 47//47 
f 49//49 44//44 55//55 
f 55//55 44//44 40//40 
f 54//54 47//47 48//48 
f 49//49 54//54 48//48 
f 45//45 49//49 48//48 
f 44//44 49//49 45//45 
f 50//50 37//37 46//46 
f 37//37 50//50 58//58 
f 36//36 57//57 51//51 
f 52//52 60//60 50//50 
f 50//50 60//60 58//58 
f 51//51 61//61 53//53 
f 60//60 52//52 54//54 
f 61//61 55//55 53//53 
f 62//62 54//54 49//49 
f 61//61 62//62 55//55 
f 55//55 62//62 49//49 
f 56//56 37//37 58//58 
f 59//59 57//57 74//74 
f 57//57 59//59 51//51 
f 58//58 60//60 63//63 
f 63//63 61//61 75//75 
f 51//51 59//59 61//61 
f 60//60 54//54 62//62 
f 60//60 62//62 63//63 
f 62//62 61//61 63//63 
f 56//56 58//58 63//63 
f 74//74 76//76 59//59 
