v -40.9701 -102.409 1490.31
v -41.2438 -102.171 1489.67
v -41.2671 -101.864 1490.17
v -40.9893 -102.555 1489.66
v -40.9917 -102.185 1489.27
v -40.709 -102.564 1489.36
v -40.7093 -102.723 1489.65
v -40.7001 -102.75 1489.94
v -40.6825 -102.192 1489.09
v -40.4175 -102.752 1489.65
v -40.4096 -102.787 1489.97
v -40.4077 -102.688 1490.27
v -40.4099 -102.49 1489.24
v -40.4097 -101.898 1489.01
v -40.1135 -102.519 1489.38
v -40.0994 -102.677 1489.96
v -40.086 -102.587 1490.29
v -40.1306 -102.18 1489.14
v -39.6172 -101.873 1489.7
v -40.3729 -101.956 1491.17
v -40.0481 -102.135 1490.94
v -41.0802 -101.612 1489.37
v -41.2394 -101.595 1489.7
v -40.9874 -101.202 1489.71
v -40.7022 -101.632 1489.1
v -40.6841 -101.216 1489.41
v -40.4148 -100.37 1490.56
v -40.1168 -101.558 1489.2
v -40.0692 -100.403 1490.33
v -39.2204 -101.245 1490.59
v -39.39 -100.425 1490.6
v -40.868 -101.297 1491.16
v -40.9605 -100.995 1490.83
v -40.354 -100.42 1492.04
v -40.3018 -100.082 1491.78
v -39.7565 -100.697 1492.66
v -39.7163 -101.294 1492.1
v -39.3395 -101.626 1490.83
v -39.5312 -99.5006 1491.75
v -39.4542 -99.3106 1492.69
v -39.1212 -99.4847 1491.69
v -39.2097 -99.4938 1493.5
v -38.6846 -100.696 1491.48
v -38.8437 -100.426 1491.15
v -38.6677 -100.902 1492.28
v -38.4986 -99.4715 1491.96
v -38.1599 -99.8149 1492.08
v -37.7063 -100.096 1492.86
v -38.8471 -100.569 1493.3
v -38.006 -100.381 1493.55
v -37.9617 -100.14 1494.19
v -37.3368 -99.5647 1495.21
v -36.8099 -99.6513 1495.35
v -38.642 -98.8864 1493.87
v -38.1735 -98.8466 1494.58
v -38.2481 -98.6165 1493.49
v -37.4285 -99.1236 1495.39
v -36.7262 -98.8847 1493.7
v -36.1669 -99.5106 1494.75
v -36.4764 -99.216 1493.94
v -36.4622 -98.1533 1494.49
v -34.5692 -98.5456 1495.72
v -36.5727 -97.9112 1495.59
v -35.7309 -98.9352 1496.8
v -35.9489 -97.6952 1495.62
v -35.0099 -99.1497 1496.85
v -35.0342 -97.6644 1497.39
v -34.9489 -97.3915 1496.9
v -34.4795 -98.8676 1496.09
v -34.2662 -97.2586 1496.98
v -33.7852 -97.7328 1496.53
v -33.2 -97.1898 1497.45
v -32.0249 -97.9989 1500.15
v -32.106 -97.1707 1500.24
v -32.0789 -96.8213 1498.69
v -31.4972 -97.1219 1498.6
v -31.3968 -97.4432 1498.53
v -31.0015 -98.2039 1499.8
v -30.8476 -97.7343 1499.14
v -29.9905 -97.3643 1500.24
v -30.2649 -97.0889 1499.83
v -31.2423 -97.047 1501.8
v -30.5099 -97.795 1501.95
v -30.0319 -97.682 1500.5
v -30.1893 -97.5798 1502.61
v -29.4274 -97.0592 1502.11
v -31.6602 -96.6184 1499.94
v -31.2233 -96.5461 1499.75
v -30.9004 -96.7238 1499.5
v -30.8022 -96.5039 1499.99
v -30.2487 -96.5031 1500.45
v -31.1821 -96.5131 1501.09
v -31.0193 -96.4551 1502.32
v -30.8099 -96.3589 1500.52
v -30.2032 -95.9715 1501.97
v -29.6394 -96.4229 1501.72
v -30.8388 -96.1676 1504.52
v -30.5841 -96.7817 1504.59
v -30.7149 -95.6452 1504.85
v -30.543 -95.8425 1502.88
v -30.6943 -95.6437 1507.45
v -30.6842 -95.0602 1507.5
v -30.4024 -95.9491 1507.69
v -30.4817 -95.3034 1508.22
v -30.1737 -95.5963 1508.37
v -30.2165 -94.7688 1508.2
v -30.221 -94.5961 1507.33
v -29.9095 -95.0143 1508.45
v -29.9108 -94.6461 1508.2
v -29.637 -96.1066 1507.75
v -29.6202 -95.5743 1508.41
v -29.6442 -94.5657 1507.32
v -29.6077 -94.7007 1508.2
v -29.3447 -96.731 1504.81
v -29.2851 -95.9092 1507.79
v -29.2958 -95.5978 1508.2
v -29.3337 -95.029 1508.25
v -29.2417 -94.7911 1507.46
v -29.036 -95.4152 1507.3
v -41.2438 -102.171 1489.67
v -40.4097 -101.898 1489.01
v -40.1306 -102.18 1489.14
v -40.7022 -101.632 1489.1
v -37.7063 -100.096 1492.86
v -36.1669 -99.5106 1494.75
v -35.0099 -99.1497 1496.85
v -32.0249 -97.9989 1500.15
v -32.106 -97.1707 1500.24
v -31.0015 -98.2039 1499.8
v -31.2423 -97.047 1501.8
v -30.5099 -97.795 1501.95
v -30.5099 -97.795 1501.95
v -30.5099 -97.795 1501.95
v -30.1893 -97.5798 1502.61
v -29.4274 -97.0592 1502.11
v -30.4817 -95.3034 1508.22
v -30.1737 -95.5963 1508.37
v -30.1737 -95.5963 1508.37
v -30.2165 -94.7688 1508.2
v -29.9108 -94.6461 1508.2
v -29.6202 -95.5743 1508.41
v -29.6077 -94.7007 1508.2
v -29.3447 -96.731 1504.81
v -29.2851 -95.9092 1507.79
v -29.2958 -95.5978 1508.2
v -29.2958 -95.5978 1508.2
v -29.3337 -95.029 1508.25
vn -0.666968 -0.590916 0.453841
vn -0.914089 -0.124255 -0.386009
vn -0.96925 -0.0800136 0.232705
vn -0.678337 -0.704939 -0.207172
vn -0.654991 -0.277074 -0.703005
vn -0.314028 -0.722982 -0.615372
vn -0.306707 -0.910804 -0.276347
vn -0.336337 -0.93329 0.125889
vn -0.220175 -0.316081 -0.92283
vn 0.0938698 -0.945083 -0.313059
vn 0.102682 -0.989202 0.104576
vn -0.00036827 -0.883039 0.469299
vn 0.0782563 -0.663299 -0.744252
vn -0.107287 -0.170643 -0.979475
vn 0.552218 -0.678226 -0.484835
vn 0.575618 -0.81765 0.0105512
vn 0.467629 -0.805757 0.363426
vn 0.164992 -0.425807 -0.889644
vn 0.883338 -0.203515 -0.422251
vn -0.247354 -0.714982 0.653924
vn 0.273959 -0.819395 0.503526
vn -0.728996 0.302705 -0.61395
vn -0.941282 0.284556 -0.181701
vn -0.695202 0.634031 -0.338673
vn -0.474836 0.156044 -0.86613
vn -0.26178 0.701673 -0.662666
vn -0.536119 0.785693 -0.308647
vn 0.397169 0.425583 -0.813103
vn 0.020735 0.788441 -0.614761
vn 0.890794 -0.114957 -0.439625
vn 0.589955 0.431609 -0.682398
vn -0.840142 -0.14916 0.521452
vn -0.909295 0.396778 0.125499
vn -0.862475 0.124792 0.490473
vn -0.786305 0.605965 0.120541
vn -0.575649 -0.438919 0.689912
vn -0.0249133 -0.829496 0.557957
vn 0.803074 -0.595727 0.0134429
vn -0.353373 0.884767 -0.303834
vn -0.661295 0.742496 0.106712
vn 0.103707 0.824013 -0.556998
vn -0.806179 0.236643 0.542287
vn 0.863251 -0.342386 -0.370904
vn 0.793857 0.050492 -0.606004
vn 0.592359 -0.800659 0.0897551
vn 0.4563 0.564544 -0.687809
vn 0.755898 0.0569406 -0.652209
vn 0.620321 -0.774829 -0.121827
vn -0.154625 -0.815587 0.557592
vn 0.30072 -0.931015 0.206828
vn -0.0737133 -0.878734 0.471586
vn -0.377038 -0.656147 0.653692
vn -0.0348392 -0.91248 0.407634
vn -0.665122 0.689422 0.286898
vn -0.722766 0.398755 0.56445
vn -0.280534 0.941598 -0.186264
vn -0.665235 -0.138594 0.733658
vn 0.625402 0.271092 -0.731698
vn 0.68459 -0.559712 -0.466968
vn 0.730241 -0.327063 -0.599815
vn 0.223867 0.805363 -0.548884
vn 0.691478 -0.159983 -0.704459
vn -0.510791 0.831097 0.219931
vn -0.400354 -0.646472 0.649454
vn -0.15946 0.970028 -0.183352
vn 0.320279 -0.945866 -0.052535
vn -0.634278 0.569858 0.52245
vn -0.35796 0.925862 0.12101
vn 0.564527 -0.729148 -0.386849
vn -0.0294678 0.969262 -0.24426
vn 0.534749 0.431707 -0.726411
vn 0.278286 0.79989 -0.531727
vn -0.69151 -0.297882 0.658088
vn -0.751865 -0.0218806 0.658954
vn 0.145143 0.913096 -0.381036
vn 0.529579 0.532648 -0.660176
vn 0.67452 0.143392 -0.724198
vn 0.494231 -0.856178 -0.150648
vn 0.726698 -0.397049 -0.560591
vn 0.905946 -0.0956762 -0.412441
vn 0.755977 0.306385 -0.57847
vn -0.809781 -0.425646 0.403832
vn -0.6896 -0.590583 0.419122
vn 0.712698 -0.677324 -0.182463
vn 0.488148 -0.866269 0.106256
vn 0.983389 -0.046264 -0.175518
vn -0.400054 0.907449 0.128423
vn 0.00319953 0.96632 -0.257326
vn 0.376213 0.771306 -0.513372
vn 0.199426 0.915286 -0.349974
vn 0.47285 0.78488 -0.400469
vn -0.720341 0.682121 0.125777
vn -0.87973 0.475176 0.0168268
vn -0.114213 0.976272 -0.183977
vn 0.129075 0.951859 -0.278035
vn 0.808488 0.50725 -0.298405
vn -0.994091 -0.0557065 0.0931618
vn -0.696044 -0.672367 0.251884
vn -0.873871 0.482189 -0.0619895
vn -0.571291 0.810596 -0.128689
vn -0.932248 -0.288932 0.217788
vn -0.920814 0.372381 0.115901
vn -0.56029 -0.733708 0.38438
vn -0.895729 -0.140326 0.421876
vn -0.710725 -0.49547 0.499379
vn -0.650791 0.718723 0.244764
vn -0.443209 0.894774 -0.0542707
vn -0.0617189 0.276646 0.958988
vn -0.082705 0.987241 0.136071
vn 0.153427 -0.874882 0.459393
vn 0.156349 -0.769402 0.619334
vn 0.280152 0.956698 -0.0790109
vn 0.467315 0.864562 0.184793
vn 0.464989 -0.866843 0.179912
vn 0.4112 -0.815306 0.407664
vn 0.337524 -0.740232 0.581493
vn 0.409945 0.151881 0.899376
vn 0.774228 0.632005 0.0337742
vn 0.997459 0.00303905 0.0711796
vn -0.853671 -0.487939 0.182101
vn 0.29896 0.258604 -0.918557
vn 0.687647 -0.0703635 -0.722628
vn 0.0832413 0.510739 -0.855696
vn 0.786295 -0.323404 -0.526451
vn 0.373754 -0.927516 -0.00467915
vn -0.202314 -0.842265 0.499659
vn -0.153803 -0.913072 0.377682
vn -0.670239 0.654063 0.350686
vn -0.090439 -0.951191 0.295054
vn -0.926484 0.347079 0.145474
vn -0.122083 -0.969488 0.212575
vn 0.466289 -0.882506 0.0613047
vn -0.103052 -0.929682 0.353654
vn -0.25723 -0.917376 0.303733
vn 0.598019 -0.797375 0.0810349
vn -0.441587 0.151473 0.88434
vn -0.238312 -0.0393681 0.97039
vn -0.114471 -0.811686 0.572767
vn -0.351579 0.415247 0.839024
vn -0.0606459 0.567236 0.821319
vn 0.281063 -0.0180394 0.95952
vn 0.210984 0.478226 0.852517
vn 0.952084 -0.302936 0.0420303
vn 0.934882 -0.319865 0.153888
vn 0.5367 -0.0308178 0.84321
vn 0.960443 -0.109467 0.256059
vn 0.908651 0.326083 0.260815
g grp1
usemtl mtl1
f 5//5 4//4 2//2 
f 4//4 1//1 120//120 
f 1//1 3//3 120//120 
f 1//1 32//32 3//3 
f 22//22 5//5 2//2 
f 23//23 22//22 2//2 
f 3//3 23//23 2//2 
f 3//3 32//32 33//33 
f 5//5 6//6 4//4 
f 4//4 6//6 7//7 
f 7//7 8//8 4//4 
f 4//4 8//8 1//1 
f 6//6 5//5 9//9 
f 25//25 9//9 5//5 
f 5//5 22//22 25//25 
f 10//10 11//11 8//8 
f 6//6 13//13 10//10 
f 6//6 10//10 7//7 
f 8//8 7//7 10//10 
f 11//11 12//12 8//8 
f 12//12 1//1 8//8 
f 12//12 20//20 1//1 
f 14//14 18//18 9//9 
f 18//18 13//13 9//9 
f 13//13 6//6 9//9 
f 9//9 25//25 14//14 
f 10//10 16//16 11//11 
f 13//13 18//18 15//15 
f 10//10 13//13 15//15 
f 15//15 16//16 10//10 
f 16//16 12//12 11//11 
f 16//16 17//17 12//12 
f 28//28 122//122 121//121 
f 123//123 28//28 121//121 
f 16//16 38//38 17//17 
f 38//38 21//21 17//17 
f 16//16 15//15 19//19 
f 15//15 122//122 19//19 
f 38//38 16//16 19//19 
f 28//28 19//19 122//122 
f 19//19 28//28 31//31 
f 38//38 19//19 30//30 
f 19//19 31//31 30//30 
f 12//12 17//17 21//21 
f 21//21 20//20 12//12 
f 3//3 33//33 23//23 
f 22//22 23//23 24//24 
f 22//22 26//26 25//25 
f 22//22 24//24 26//26 
f 33//33 24//24 23//23 
f 24//24 33//33 27//27 
f 26//26 24//24 27//27 
f 123//123 26//26 28//28 
f 29//29 28//28 26//26 
f 31//31 28//28 29//29 
f 29//29 26//26 27//27 
f 29//29 27//27 39//39 
f 43//43 38//38 30//30 
f 31//31 44//44 30//30 
f 30//30 44//44 43//43 
f 34//34 35//35 33//33 
f 32//32 34//34 33//33 
f 27//27 33//33 35//35 
f 1//1 36//36 32//32 
f 1//1 20//20 36//36 
f 32//32 36//36 34//34 
f 35//35 39//39 27//27 
f 39//39 35//35 40//40 
f 42//42 40//40 35//35 
f 42//42 35//35 34//34 
f 36//36 20//20 37//37 
f 37//37 20//20 21//21 
f 36//36 42//42 34//34 
f 38//38 45//45 21//21 
f 43//43 45//45 38//38 
f 21//21 45//45 37//37 
f 37//37 45//45 50//50 
f 36//36 37//37 49//49 
f 49//49 37//37 50//50 
f 29//29 41//41 31//31 
f 41//41 29//29 39//39 
f 41//41 46//46 31//31 
f 57//57 42//42 36//36 
f 36//36 49//49 52//52 
f 57//57 36//36 52//52 
f 40//40 42//42 54//54 
f 48//48 45//45 43//43 
f 44//44 47//47 43//43 
f 124//124 43//43 47//47 
f 31//31 47//47 44//44 
f 41//41 61//61 46//46 
f 50//50 45//45 48//48 
f 47//47 31//31 46//46 
f 61//61 58//58 46//46 
f 60//60 124//124 47//47 
f 46//46 58//58 47//47 
f 47//47 58//58 60//60 
f 124//124 60//60 59//59 
f 50//50 48//48 125//125 
f 52//52 49//49 51//51 
f 51//51 49//49 50//50 
f 42//42 57//57 55//55 
f 50//50 53//53 51//51 
f 51//51 53//53 52//52 
f 125//125 53//53 50//50 
f 56//56 41//41 39//39 
f 40//40 56//56 39//39 
f 42//42 55//55 54//54 
f 40//40 54//54 56//56 
f 56//56 61//61 41//41 
f 55//55 63//63 54//54 
f 54//54 63//63 56//56 
f 69//69 59//59 60//60 
f 64//64 52//52 53//53 
f 66//66 53//53 125//125 
f 126//126 64//64 53//53 
f 125//125 69//69 66//66 
f 58//58 62//62 60//60 
f 60//60 62//62 69//69 
f 61//61 56//56 65//65 
f 56//56 63//63 65//65 
f 58//58 61//61 71//71 
f 62//62 58//58 71//71 
f 64//64 57//57 52//52 
f 55//55 67//67 63//63 
f 67//67 68//68 63//63 
f 67//67 55//55 57//57 
f 68//68 67//67 87//87 
f 65//65 63//63 68//68 
f 67//67 57//57 74//74 
f 65//65 70//70 61//61 
f 70//70 65//65 68//68 
f 67//67 128//128 87//87 
f 57//57 64//64 73//73 
f 68//68 87//87 70//70 
f 127//127 64//64 126//126 
f 71//71 61//61 72//72 
f 72//72 61//61 70//70 
f 57//57 73//73 74//74 
f 69//69 78//78 66//66 
f 71//71 72//72 76//76 
f 77//77 62//62 71//71 
f 77//77 71//71 76//76 
f 127//127 126//126 129//129 
f 72//72 70//70 75//75 
f 75//75 89//89 72//72 
f 128//128 92//92 87//87 
f 82//82 74//74 73//73 
f 128//128 130//130 92//92 
f 70//70 87//87 88//88 
f 75//75 70//70 88//88 
f 89//89 75//75 88//88 
f 77//77 76//76 81//81 
f 76//76 72//72 89//89 
f 76//76 89//89 81//81 
f 62//62 79//79 69//69 
f 69//69 79//79 78//78 
f 62//62 77//77 79//79 
f 78//78 79//79 84//84 
f 81//81 79//79 77//77 
f 84//84 79//79 80//80 
f 86//86 84//84 80//80 
f 81//81 80//80 79//79 
f 80//80 81//81 96//96 
f 80//80 96//96 86//86 
f 89//89 91//91 81//81 
f 81//81 91//91 96//96 
f 83//83 82//82 73//73 
f 127//127 129//129 131//131 
f 78//78 85//85 132//132 
f 84//84 85//85 78//78 
f 84//84 135//135 85//85 
f 135//135 114//114 85//85 
f 96//96 119//119 86//86 
f 83//83 98//98 82//82 
f 134//134 98//98 133//133 
f 114//114 110//110 85//85 
f 89//89 88//88 90//90 
f 94//94 90//90 88//88 
f 90//90 91//91 89//89 
f 91//91 90//90 94//94 
f 93//93 92//92 130//130 
f 88//88 87//87 94//94 
f 94//94 87//87 92//92 
f 94//94 92//92 100//100 
f 92//92 93//93 100//100 
f 91//91 94//94 95//95 
f 95//95 94//94 100//100 
f 93//93 130//130 99//99 
f 100//100 93//93 99//99 
f 130//130 97//97 99//99 
f 107//107 100//100 99//99 
f 100//100 107//107 95//95 
f 91//91 95//95 96//96 
f 82//82 98//98 97//97 
f 98//98 101//101 97//97 
f 99//99 102//102 107//107 
f 99//99 97//97 102//102 
f 97//97 101//101 102//102 
f 134//134 103//103 98//98 
f 134//134 110//110 103//103 
f 95//95 112//112 96//96 
f 112//112 95//95 107//107 
f 114//114 115//115 110//110 
f 118//118 96//96 112//112 
f 98//98 103//103 101//101 
f 103//103 104//104 101//101 
f 101//101 104//104 102//102 
f 104//104 103//103 105//105 
f 136//136 137//137 108//108 
f 102//102 104//104 106//106 
f 139//139 136//136 108//108 
f 102//102 106//106 107//107 
f 110//110 138//138 103//103 
f 138//138 110//110 111//111 
f 141//141 108//108 137//137 
f 107//107 106//106 109//109 
f 107//107 109//109 112//112 
f 139//139 108//108 140//140 
f 112//112 109//109 113//113 
f 142//142 140//140 108//108 
f 110//110 116//116 111//111 
f 145//145 117//117 141//141 
f 117//117 108//108 141//141 
f 147//147 118//118 113//113 
f 113//113 118//118 112//112 
f 117//117 142//142 108//108 
f 86//86 119//119 143//143 
f 143//143 119//119 144//144 
f 118//118 119//119 96//96 
f 116//116 110//110 115//115 
f 144//144 119//119 146//146 
f 119//119 118//118 147//147 
f 146//146 119//119 147//147 
