v -5.01174 -125.171 1514.75
v -4.94425 -125.002 1515.06
v -4.8874 -125.301 1514.31
v -4.92528 -125.02 1514.45
v -4.85842 -124.723 1514.75
v -4.8826 -125.585 1514.46
v -4.80125 -125.795 1514.9
v -4.86274 -125.478 1515.2
v -4.81296 -125.158 1515.35
v -4.3362 -124.99 1513.96
v -4.35267 -125.311 1513.93
v -4.12902 -125.538 1513.96
v -3.89388 -125.202 1513.95
v -4.20853 -124.367 1514.9
v -3.90478 -124.401 1514.61
v -4.64789 -125.147 1514.07
v -4.63501 -124.607 1514.44
v -4.63092 -124.502 1514.76
v -4.3316 -124.435 1514.46
v -4.20467 -124.615 1514.16
v -3.90381 -124.857 1514.02
v -3.90478 -124.533 1514.3
v -4.66453 -125.578 1514.16
v -4.7474 -125.783 1514.46
v -4.44348 -125.788 1514.17
v -3.7337 -126.923 1514.9
v -4.72136 -124.703 1515.18
v -4.65237 -124.864 1515.41
v -4.58942 -125.51 1515.51
v -4.49156 -124.528 1515.19
v -4.49313 -124.7 1515.4
v -4.48282 -124.852 1515.51
v -4.47251 -125.179 1515.6
v -4.20431 -124.555 1515.35
v -4.21507 -124.707 1515.5
v -4.17295 -124.914 1515.61
v -4.02667 -124.729 1515.5
v -3.89875 -124.488 1515.18
v -3.70558 -124.783 1515.43
v -3.90238 -126.06 1515.88
v -3.77807 -125.879 1515.94
v -3.69418 -127.012 1515.63
v -2.41099 -133.44 1511.38
v -2.41098 -132.614 1512.52
v -3.54958 -125.222 1514.11
v -3.61315 -124.848 1514.19
v -3.60558 -124.611 1514.46
v -3.61306 -124.526 1514.77
v -3.35516 -125.07 1514.35
v -3.35716 -124.796 1514.78
v -3.47567 -126.633 1514.48
v -2.8847 -126.749 1514.53
v -2.75942 -127.759 1514.82
v -2.47359 -129.742 1514.78
v -3.54179 -124.72 1515.21
v -3.31617 -125.87 1515.98
v -2.72986 -126.022 1515.88
v -3.25952 -127.64 1515.19
v -3.01956 -126.928 1516.22
v -3.09257 -127.994 1515.63
v -2.66584 -128.889 1515.57
v -2.50073 -129.055 1515.78
v -2.56904 -128.259 1516.15
v -1.45223 -146.764 1501.7
v -1.42401 -145.888 1501.94
v -1.47242 -146.395 1501.92
v -1.33634 -146.395 1501.71
v -1.43112 -147.2 1501.7
v -1.35 -147.2 1501.53
v -1.25536 -147.2 1501.7
v -1.33887 -142.263 1503.13
v -1.44492 -143.75 1502.75
v -1.35 -146.554 1502
v -1.34764 -139.723 1504.25
v -1.44304 -140.908 1503.81
v -1.45715 -141.031 1503.96
v -1.34943 -140.87 1504.23
v -1.43975 -142.087 1503.36
v -1.38139 -142.251 1503.51
v -1.59128 -138.354 1505.31
v -1.62827 -138.498 1505.48
v -1.34303 -138.373 1505.04
v -1.52271 -139.704 1504.56
v -1.47286 -139.858 1504.7
v -1.33867 -139.861 1504.85
v -1.35 -139.1 1505.4
v -1.34891 -140.16 1504.65
v -1.50056 -137.264 1505.97
v -1.5 -137.6 1506.76
v -1.80504 -135.548 1507.84
v -1.38133 -135.993 1507.26
v -1.83991 -136.709 1506.83
v -1.7988 -137.187 1506.89
v -1.33906 -137.05 1507.41
v -2.14046 -134.788 1509.06
v -1.28553 -134.731 1509.1
v -2.14483 -135.461 1508.55
v -1.51157 -135.579 1509.34
v -2.17253 -133.23 1510.86
v -1.9094 -132.886 1511.08
v -1.6121 -133.443 1510.45
v -1.36815 -133.642 1510.46
v -2.25489 -134.342 1510.73
v -1.49502 -132.39 1511.76
v -2.35702 -133.238 1512.06
v -2.08347 -133.857 1511.7
v -2.10106 -133.048 1512.69
v -1.78259 -133.201 1512.61
v -1.67298 -130.253 1513.68
v -2.35354 -131.379 1513.3
v -2.09137 -131.162 1513.06
v -1.52253 -131.196 1512.91
v -1.35324 -130.401 1513.67
v -2.32865 -131.863 1513.55
v -1.23348 -132.479 1513.03
v -2.3161 -126.554 1514.86
v -2.39183 -127.596 1514.72
v -1.85115 -127.663 1514.88
v -2.41586 -128.572 1514.78
v -1.94266 -128.226 1514.7
v -1.38619 -128.693 1514.77
v -2.21995 -130.022 1514.12
v -2.08509 -129.354 1514.37
v -1.39264 -129.493 1514.29
v -1.3656 -131.078 1514.67
v -1.94639 -131.811 1514.07
v -2.37743 -126.163 1515.61
v -2.25625 -126.314 1515.17
v -2.29281 -126.94 1516.18
v -2.25247 -127.709 1516.32
v -1.80203 -127.168 1515.18
v -1.96324 -126.962 1515.93
v -1.68546 -127.229 1515.5
v -1.68509 -127.836 1516.09
v -1.4666 -127.833 1515.79
v -2.22216 -129.071 1515.99
v -1.81116 -128.722 1516.14
v -1.27668 -128.301 1515.34
v -1.3282 -128.455 1515.8
v -2.3301 -130.127 1515.14
v -1.96855 -130.115 1515.47
v -1.66326 -129.636 1515.78
v -1.36275 -129.984 1515.47
v -1.34797 -129.215 1515.77
v -1.63963 -130.424 1515.31
v -1.2 -146.75 1501.68
v -1.15592 -146.521 1501.88
v -1.2 -144.441 1502.75
v -1.2 -145.1 1502.09
v -1.13047 -145.719 1502
v -1.19302 -145.296 1502.42
v -1.04202 -144.639 1502.37
v -1.05 -145.132 1502.3
v -1.05448 -144.755 1502.5
v -1.2 -140.9 1504.3
v -0.823827 -140.75 1503.95
v -1.05 -141.2 1503.46
v -0.899999 -141.808 1503.35
v -0.882888 -141.197 1503.96
v -1.05 -142.7 1503.41
v -0.91532 -142.751 1503.18
v -1.07533 -137.783 1505.55
v -0.858373 -138.479 1505.36
v -1.05 -139.25 1504.45
v -1.06358 -139.872 1504.88
v -1.05512 -138.98 1505.48
v -0.856754 -139.547 1504.88
v -1.21093 -140.224 1504.68
v -1.06777 -137.966 1506.31
v -1.21303 -136.155 1507.17
v -1.10118 -136.715 1507.53
v -1.02027 -136.659 1506.9
v -1.18348 -134.895 1509.51
v -1.19899 -133.026 1511.64
v -1.2164 -131.312 1513.06
v -1.10197 -131.642 1513.03
v -1.09809 -129.821 1514.41
v -1.00806 -130.508 1514.36
v -1.14437 -128.984 1515.44
v -1.11778 -129.947 1515.19
v -1.45223 -146.764 1501.7
v -1.47242 -146.395 1501.92
v -1.47242 -146.395 1501.92
v -1.33634 -146.395 1501.71
v -1.33634 -146.395 1501.71
v -1.43112 -147.2 1501.7
v -1.43112 -147.2 1501.7
v -1.43112 -147.2 1501.7
v -1.35 -147.2 1501.53
v -1.35 -147.2 1501.53
v -1.35 -147.2 1501.53
v -1.35 -147.2 1501.53
v -1.25536 -147.2 1501.7
v -1.25536 -147.2 1501.7
v -1.25536 -147.2 1501.7
v -1.33887 -142.263 1503.13
v -1.44492 -143.75 1502.75
v -1.35 -146.554 1502
v -1.35 -146.554 1502
v -1.35 -139.1 1505.4
v -1.5 -137.6 1506.76
v -2.10106 -133.048 1512.69
v -2.09137 -131.162 1513.06
v -1.23348 -132.479 1513.03
v -2.41586 -128.572 1514.78
v -1.94266 -128.226 1514.7
v -2.08509 -129.354 1514.37
v -1.39264 -129.493 1514.29
v -1.2 -146.75 1501.68
v -1.2 -146.75 1501.68
v -1.15592 -146.521 1501.88
v -1.15592 -146.521 1501.88
v -1.2 -144.441 1502.75
v -1.2 -144.441 1502.75
v -1.2 -145.1 1502.09
v -1.2 -145.1 1502.09
v -1.04202 -144.639 1502.37
v -1.05 -145.132 1502.3
v -1.05 -145.132 1502.3
v -1.05448 -144.755 1502.5
v -0.823827 -140.75 1503.95
v -1.05 -141.2 1503.46
v -1.05 -141.2 1503.46
v -0.899999 -141.808 1503.35
v -0.899999 -141.808 1503.35
v -0.899999 -141.808 1503.35
v -0.882888 -141.197 1503.96
v -1.05 -142.7 1503.41
v -0.91532 -142.751 1503.18
v -0.858373 -138.479 1505.36
v -1.05 -139.25 1504.45
v -0.856754 -139.547 1504.88
v -1.06777 -137.966 1506.31
v -1.18348 -134.895 1509.51
vn -0.999194 -0.0269798 -0.0297088
vn -0.907592 0.245444 0.340636
vn -0.856964 -0.0762305 -0.509708
vn -0.8544 0.313931 -0.414062
vn -0.842254 0.537719 -0.0382945
vn -0.877773 -0.376783 -0.295888
vn -0.852062 -0.52186 0.0406557
vn -0.876109 -0.255842 0.408629
vn -0.752699 0.0494015 0.656508
vn -0.224128 0.341425 -0.912795
vn -0.245337 -0.136386 -0.959796
vn -0.0285864 -0.330625 -0.943329
vn 0.204862 0.0259454 -0.978447
vn -0.093699 0.983832 0.15263
vn 0.258879 0.955066 -0.144328
vn -0.601691 0.167691 -0.780927
vn -0.573236 0.635672 -0.517031
vn -0.527534 0.84949 0.00864036
vn -0.183195 0.921558 -0.342303
vn -0.138864 0.680316 -0.719644
vn 0.253539 0.417672 -0.872507
vn 0.256794 0.782345 -0.567445
vn -0.607681 -0.354386 -0.710728
vn -0.687113 -0.618413 -0.381368
vn -0.377804 -0.545574 -0.748073
vn -0.665268 -0.650791 -0.365909
vn -0.681149 0.618026 0.392531
vn -0.636221 0.366403 0.678949
vn -0.653519 -0.198217 0.730495
vn -0.38567 0.832302 0.39816
vn -0.397037 0.632517 0.665044
vn -0.349699 0.395277 0.849392
vn -0.453367 0.11571 0.883781
vn -0.0615169 0.809927 0.583295
vn -0.115652 0.579316 0.806857
vn -0.105549 0.355819 0.928575
vn 0.158012 0.608299 0.777821
vn 0.291156 0.864564 0.409583
vn 0.356621 0.630133 0.689749
vn -0.520665 -0.146708 0.841062
vn -0.24991 0.139881 0.958112
vn -0.752621 -0.454569 0.47637
vn -0.999144 -0.0239981 -0.0336999
vn -0.988852 -0.0989558 0.111261
vn 0.539574 0.149445 -0.828569
vn 0.563356 0.473334 -0.677189
vn 0.620822 0.694241 -0.364155
vn 0.568802 0.821361 0.0427786
vn 0.762725 0.41084 -0.499462
vn 0.783544 0.617489 -0.0690352
vn -0.209178 -0.494393 -0.843694
vn 0.234592 -0.150914 -0.960308
vn -0.356747 -0.347896 -0.867006
vn -0.955297 0.0826156 -0.28387
vn 0.600278 0.703473 0.380517
vn 0.10679 0.374166 0.921193
vn 0.489858 0.548224 0.677856
vn -0.766987 -0.494253 -0.4092
vn -0.283587 -0.0197736 0.958743
vn -0.849936 -0.481182 0.214644
vn -0.937562 -0.34751 0.0146425
vn -0.702617 -0.419573 0.574707
vn -0.481432 -0.308215 0.820504
vn -0.692661 0.235936 -0.681583
vn -0.808877 0.174947 -0.561348
vn -0.870344 0.162271 -0.46494
vn -0.649821 0.232645 -0.723609
vn -0.974236 -0.0469744 -0.220586
vn -0.55346 0.195705 -0.809556
vn 0 -1 0
vn -0.662458 0.268158 -0.699457
vn -0.877392 0.163763 -0.45096
vn -0.686593 -0.214118 0.694797
vn -0.553591 0.376247 -0.74295
vn -0.903302 0.162731 -0.396945
vn -0.96451 -0.145841 0.220114
vn -0.612383 -0.39079 0.687219
vn -0.992176 0.0325401 -0.12053
vn -0.705736 -0.298651 0.642452
vn -0.845262 0.262884 -0.465214
vn -0.977231 -0.184039 0.105587
vn -0.282095 0.54656 -0.788476
vn -0.985611 0.0362328 -0.165099
vn -0.807841 -0.337358 0.483304
vn -0.403036 -0.497014 0.768465
vn -0.710979 -0.473384 0.520015
vn -0.534714 -0.446252 0.717593
vn -0.362473 0.612629 -0.702353
vn -0.629304 -0.607285 0.484956
vn -0.453727 0.651425 -0.608093
vn 0.134244 0.744454 -0.654039
vn -0.908985 0.225684 -0.350447
vn -0.900332 -0.377002 0.21742
vn 0.342468 -0.708516 0.617025
vn -0.84418 0.375033 -0.383028
vn 0.810778 0.480403 -0.334444
vn -0.993626 -0.0297517 -0.108729
vn 0.312554 -0.753417 0.578509
vn -0.607652 0.594721 -0.526371
vn -0.0563544 0.754056 -0.654388
vn 0.418289 0.715373 -0.559711
vn 0.677497 0.578266 -0.45454
vn -0.76291 -0.549665 0.340347
vn 0.529272 0.617663 -0.581691
vn -0.856731 -0.401992 0.323132
vn -0.431616 -0.729089 0.531165
vn -0.702172 -0.522354 0.483839
vn 0.11777 -0.755899 0.644008
vn -0.0723057 0.5983 -0.798003
vn -0.94414 0.235074 -0.230954
vn -0.796235 0.398632 -0.455085
vn 0.233893 0.656625 -0.717034
vn 0.482171 0.540608 -0.689387
vn -0.898963 -0.305393 0.314009
vn 0.590214 -0.627472 0.507865
vn 0.682114 0.260076 -0.683433
vn 0.0228222 -0.0409634 -0.9989
vn 0.464892 0.21762 -0.858206
vn -0.456629 -0.110651 -0.882749
vn 0.363854 0.315826 -0.876279
vn 0.655401 0.364896 -0.661287
vn -0.635822 0.441389 -0.633171
vn -0.70516 0.259749 -0.659758
vn 0.0761027 0.499283 -0.86309
vn 0.542691 -0.567578 0.619146
vn -0.308247 -0.65094 0.69373
vn 0.763771 0.593538 0.253706
vn 0.834997 0.494928 -0.24047
vn 0.327893 0.312727 0.891453
vn 0.0923401 -0.0023319 0.995725
vn 0.806683 0.381446 -0.451399
vn 0.724418 0.456273 0.516752
vn 0.888816 0.458012 0.0152311
vn 0.606713 0.169442 0.776653
vn 0.888784 0.316626 0.331378
vn -0.296219 -0.402551 0.866145
vn 0.252512 -0.183632 0.950009
vn 0.9482 0.297393 -0.111684
vn 0.839739 0.0865741 0.536044
vn -0.801469 -0.409789 0.435569
vn -0.360559 -0.532445 0.765832
vn 0.155638 -0.421549 0.893349
vn 0.536077 -0.418132 0.73334
vn 0.682423 -0.177786 0.709007
vn 0.106759 -0.587169 0.802393
vn 0.327044 0.206669 -0.922133
vn 0.624724 -0.286248 0.726486
vn -0.694796 -0.2464 0.675682
vn -0.429305 0.292552 -0.854465
vn 0.786909 0.114389 -0.606374
vn 0.631023 -0.298042 0.716227
vn 0.999026 -0.0285967 -0.0336075
vn 0.878874 0.0834495 -0.469699
vn 0.99749 -0.0519827 0.0480785
vn -0.0702612 -0.473157 0.878172
vn 0.780414 0.294473 -0.551579
vn -0.256474 0.414542 -0.873141
vn 0.177488 0.290482 -0.940276
vn 0.991412 -0.0895883 0.0952661
vn 0.686593 -0.303848 0.660505
vn 0.997777 -0.0244068 -0.0620063
vn 0.47312 0.598084 -0.64688
vn 0.847452 0.335868 -0.411119
vn -0.0502381 0.520142 -0.852601
vn 0.222504 -0.51478 0.827945
vn 0.322105 -0.566118 0.758788
vn 0.977692 -0.0959146 0.186863
vn -0.267574 -0.483172 0.833636
vn 0.206695 -0.659904 0.72236
vn 0.598197 0.62547 -0.500946
vn 0.83635 -0.378465 0.396589
vn 0.944636 0.274521 -0.179726
vn 0.777519 -0.479774 0.406547
vn 0.942999 0.234946 -0.235697
vn 0.698226 0.461472 -0.547288
vn 0.935562 0.210928 -0.283256
vn 0.864626 0.315098 -0.391326
vn 0.992048 -0.0879543 0.0900241
vn 0.978898 0.0665061 0.193226
vn 0.866977 -0.232209 0.440942
vn -0.974236 -0.0469744 -0.220586
vn -0.998773 -0.0483993 -0.0105076
vn -0.715854 -0.209884 0.66596
vn 0.681522 0.203075 -0.703057
vn 0.327044 0.206669 -0.922133
vn -0.719623 -0.215894 0.659949
vn 0 -1 0
vn 0 -0.420882 0.907115
vn -0.906114 -0.0434481 -0.420796
vn 0 -1 0
vn 0.327044 0.206669 -0.922133
vn 0.871906 -0.128916 -0.472399
vn 0 -0.420882 0.907115
vn 0.951165 -0.129847 -0.280045
vn 0.546221 -0.285418 0.787515
vn 0.177488 0.290482 -0.940276
vn -0.782578 -0.203578 0.588327
vn 0 -0.420882 0.907115
vn 0.4887 -0.316177 0.813145
vn 0.0431853 -0.609136 0.791889
vn 0.0705644 -0.750433 0.657169
vn -0.20027 -0.739872 0.642248
vn -0.236366 0.672786 -0.701064
vn 0.96757 -0.188545 0.168103
vn -0.873728 0.0400058 -0.484767
vn -0.17935 0.186422 -0.965961
vn -0.123953 0.417077 -0.900379
vn 0.619899 0.41866 -0.663664
vn 0.951165 -0.129847 -0.280045
vn 0.754763 0.339439 -0.561351
vn 0.834115 0.149486 -0.530949
vn 0.989254 -0.125159 -0.0755698
vn 0.525247 -0.318391 0.789141
vn -0.195116 -0.335044 0.921778
vn 0.724121 0.159542 -0.670966
vn 0.113919 0.347179 -0.930854
vn 0.748362 0.14224 -0.64786
vn 0.774488 -0.263785 0.574966
vn 0.997166 -0.0260336 0.0705873
vn 0.706062 -0.287247 0.647276
vn 0.987158 -0.0966991 0.127156
vn 0.239753 0.231651 -0.942792
vn 0.726286 0.30439 -0.616324
vn 0.998462 -0.0415724 -0.036674
vn 0.660869 0.21587 -0.718785
vn 0.735852 0.293147 -0.610399
vn 0.591985 -0.383469 0.708876
vn -0.27802 -0.387428 0.878979
vn 0.80915 -0.258008 0.527928
vn 0.966221 -0.134057 0.220104
vn 0.798493 0.321857 -0.508741
vn 0.603184 -0.451609 0.657433
vn 0.814951 -0.371219 0.445029
vn 0.995516 0.0884985 -0.0334112
g grp1
usemtl mtl1
f 4//4 1//1 5//5 
f 1//1 8//8 2//2 
f 9//9 2//2 8//8 
f 4//4 16//16 3//3 
f 3//3 16//16 23//23 
f 4//4 3//3 1//1 
f 3//3 6//6 1//1 
f 3//3 23//23 6//6 
f 1//1 6//6 7//7 
f 5//5 17//17 4//4 
f 27//27 5//5 2//2 
f 1//1 2//2 5//5 
f 1//1 7//7 8//8 
f 6//6 24//24 7//7 
f 24//24 26//26 7//7 
f 7//7 42//42 8//8 
f 7//7 26//26 42//42 
f 28//28 2//2 9//9 
f 8//8 29//29 9//9 
f 33//33 9//9 29//29 
f 10//10 11//11 16//16 
f 10//10 13//13 11//11 
f 13//13 12//12 11//11 
f 11//11 12//12 25//25 
f 21//21 13//13 10//10 
f 25//25 12//12 51//51 
f 14//14 19//19 18//18 
f 14//14 18//18 30//30 
f 15//15 19//19 14//14 
f 15//15 14//14 38//38 
f 17//17 16//16 4//4 
f 16//16 11//11 23//23 
f 18//18 19//19 17//17 
f 5//5 18//18 17//17 
f 27//27 18//18 5//5 
f 30//30 18//18 27//27 
f 16//16 17//17 10//10 
f 25//25 23//23 11//11 
f 17//17 20//20 10//10 
f 20//20 17//17 19//19 
f 20//20 21//21 10//10 
f 21//21 20//20 22//22 
f 19//19 22//22 20//20 
f 22//22 19//19 15//15 
f 22//22 46//46 21//21 
f 46//46 22//22 47//47 
f 15//15 47//47 22//22 
f 13//13 21//21 45//45 
f 21//21 46//46 45//45 
f 48//48 47//47 15//15 
f 48//48 15//15 38//38 
f 24//24 23//23 25//25 
f 6//6 23//23 24//24 
f 25//25 26//26 24//24 
f 25//25 51//51 26//26 
f 52//52 51//51 12//12 
f 13//13 52//52 12//12 
f 27//27 2//2 28//28 
f 28//28 9//9 33//33 
f 30//30 27//27 31//31 
f 31//31 28//28 32//32 
f 31//31 27//27 28//28 
f 33//33 32//32 28//28 
f 33//33 29//29 40//40 
f 30//30 34//34 14//14 
f 31//31 34//34 30//30 
f 35//35 34//34 31//31 
f 35//35 31//31 32//32 
f 36//36 35//35 32//32 
f 32//32 33//33 36//36 
f 36//36 33//33 41//41 
f 33//33 40//40 41//41 
f 36//36 41//41 56//56 
f 38//38 14//14 34//34 
f 34//34 37//37 38//38 
f 37//37 34//34 35//35 
f 36//36 37//37 35//35 
f 39//39 38//38 37//37 
f 37//37 36//36 56//56 
f 38//38 39//39 55//55 
f 37//37 56//56 39//39 
f 29//29 8//8 42//42 
f 41//41 40//40 59//59 
f 56//56 41//41 59//59 
f 29//29 42//42 40//40 
f 40//40 42//42 59//59 
f 103//103 105//105 43//43 
f 110//110 43//43 44//44 
f 43//43 105//105 44//44 
f 46//46 49//49 45//45 
f 47//47 49//49 46//46 
f 47//47 48//48 50//50 
f 47//47 50//50 49//49 
f 49//49 50//50 128//128 
f 55//55 50//50 48//48 
f 38//38 55//55 48//48 
f 50//50 55//55 127//127 
f 49//49 116//116 45//45 
f 127//127 128//128 50//50 
f 45//45 52//52 13//13 
f 116//116 52//52 45//45 
f 116//116 49//49 128//128 
f 51//51 53//53 26//26 
f 53//53 58//58 26//26 
f 53//53 51//51 52//52 
f 117//117 53//53 52//52 
f 116//116 118//118 52//52 
f 52//52 118//118 117//117 
f 58//58 53//53 119//119 
f 54//54 205//205 123//123 
f 59//59 42//42 63//63 
f 55//55 39//39 57//57 
f 57//57 39//39 56//56 
f 129//129 56//56 59//59 
f 129//129 57//57 56//56 
f 55//55 57//57 127//127 
f 26//26 60//60 42//42 
f 58//58 60//60 26//26 
f 42//42 60//60 63//63 
f 60//60 62//62 63//63 
f 129//129 59//59 130//130 
f 59//59 63//63 130//130 
f 61//61 60//60 58//58 
f 58//58 119//119 61//61 
f 205//205 54//54 61//61 
f 140//140 62//62 61//61 
f 61//61 62//62 60//60 
f 140//140 141//141 62//62 
f 61//61 54//54 140//140 
f 67//67 71//71 149//149 
f 67//67 69//69 64//64 
f 181//181 189//189 68//68 
f 71//71 67//67 65//65 
f 65//65 67//67 66//66 
f 67//67 64//64 66//66 
f 181//181 68//68 182//182 
f 71//71 65//65 72//72 
f 65//65 66//66 72//72 
f 183//183 73//73 197//197 
f 183//183 186//186 73//73 
f 190//190 70//70 187//187 
f 188//188 193//193 198//198 
f 197//197 73//73 148//148 
f 151//151 199//199 147//147 
f 213//213 199//199 151//151 
f 83//83 74//74 75//75 
f 74//74 71//71 75//75 
f 75//75 76//76 83//83 
f 76//76 84//84 83//83 
f 77//77 84//84 76//76 
f 168//168 77//77 155//155 
f 75//75 71//71 78//78 
f 71//71 72//72 78//78 
f 75//75 78//78 76//76 
f 78//78 79//79 76//76 
f 197//197 79//79 78//78 
f 77//77 76//76 79//79 
f 77//77 79//79 155//155 
f 197//197 148//148 79//79 
f 80//80 83//83 81//81 
f 81//81 86//86 93//93 
f 80//80 88//88 82//82 
f 82//82 88//88 162//162 
f 81//81 83//83 84//84 
f 83//83 80//80 74//74 
f 74//74 80//80 82//82 
f 84//84 85//85 86//86 
f 81//81 84//84 86//86 
f 74//74 82//82 164//164 
f 87//87 84//84 77//77 
f 84//84 87//87 85//85 
f 87//87 77//77 168//168 
f 87//87 168//168 85//85 
f 88//88 92//92 90//90 
f 89//89 93//93 86//86 
f 91//91 88//88 90//90 
f 162//162 88//88 91//91 
f 80//80 81//81 92//92 
f 81//81 93//93 92//92 
f 80//80 92//92 88//88 
f 169//169 200//200 166//166 
f 169//169 201//201 200//200 
f 92//92 93//93 97//97 
f 89//89 103//103 93//93 
f 91//91 170//170 162//162 
f 169//169 94//94 201//201 
f 95//95 90//90 92//92 
f 92//92 97//97 95//95 
f 90//90 100//100 91//91 
f 101//101 96//96 170//170 
f 101//101 170//170 91//91 
f 170//170 96//96 172//172 
f 201//201 98//98 103//103 
f 94//94 171//171 98//98 
f 171//171 173//173 98//98 
f 94//94 98//98 201//201 
f 101//101 102//102 96//96 
f 102//102 174//174 96//96 
f 99//99 90//90 95//95 
f 91//91 100//100 101//101 
f 96//96 174//174 234//234 
f 98//98 173//173 115//115 
f 97//97 93//93 103//103 
f 99//99 110//110 111//111 
f 100//100 99//99 203//203 
f 110//110 99//99 95//95 
f 110//110 95//95 43//43 
f 100//100 90//90 99//99 
f 102//102 101//101 104//104 
f 104//104 174//174 102//102 
f 174//174 204//204 234//234 
f 95//95 97//97 43//43 
f 43//43 97//97 103//103 
f 98//98 106//106 103//103 
f 100//100 203//203 112//112 
f 112//112 104//104 100//100 
f 175//175 104//104 112//112 
f 100//100 104//104 101//101 
f 175//175 174//174 104//104 
f 105//105 106//106 107//107 
f 105//105 103//103 106//106 
f 108//108 202//202 106//106 
f 98//98 108//108 106//106 
f 109//109 124//124 113//113 
f 208//208 177//177 113//113 
f 111//111 110//110 54//54 
f 110//110 114//114 54//54 
f 112//112 203//203 109//109 
f 109//109 203//203 122//122 
f 112//112 109//109 113//113 
f 175//175 112//112 113//113 
f 113//113 177//177 175//175 
f 110//110 44//44 114//114 
f 44//44 105//105 114//114 
f 114//114 105//105 107//107 
f 202//202 108//108 126//126 
f 115//115 108//108 98//98 
f 116//116 128//128 131//131 
f 120//120 117//117 118//118 
f 116//116 131//131 118//118 
f 117//117 206//206 119//119 
f 119//119 53//53 117//117 
f 207//207 119//119 206//206 
f 206//206 124//124 207//207 
f 120//120 118//118 121//121 
f 120//120 121//121 208//208 
f 131//131 121//121 118//118 
f 177//177 208//208 121//121 
f 177//177 121//121 138//138 
f 138//138 121//121 131//131 
f 122//122 111//111 54//54 
f 54//54 123//123 122//122 
f 109//109 122//122 123//123 
f 124//124 109//109 207//207 
f 54//54 114//114 140//140 
f 114//114 126//126 140//140 
f 140//140 126//126 141//141 
f 126//126 145//145 141//141 
f 125//125 126//126 108//108 
f 125//125 145//145 126//126 
f 115//115 125//125 108//108 
f 114//114 107//107 126//126 
f 132//132 127//127 57//57 
f 133//133 131//131 128//128 
f 128//128 127//127 133//133 
f 57//57 129//129 132//132 
f 129//129 134//134 132//132 
f 134//134 129//129 130//130 
f 127//127 132//132 133//133 
f 138//138 131//131 133//133 
f 133//133 135//135 138//138 
f 133//133 132//132 135//135 
f 132//132 134//134 135//135 
f 139//139 135//135 134//134 
f 137//137 139//139 134//134 
f 62//62 141//141 136//136 
f 63//63 62//62 136//136 
f 134//134 130//130 137//137 
f 130//130 63//63 137//137 
f 63//63 136//136 137//137 
f 138//138 139//139 179//179 
f 138//138 135//135 139//139 
f 179//179 139//139 144//144 
f 144//144 139//139 137//137 
f 141//141 145//145 142//142 
f 136//136 142//142 137//137 
f 141//141 142//142 136//136 
f 137//137 142//142 144//144 
f 145//145 143//143 142//142 
f 142//142 143//143 144//144 
f 145//145 125//125 143//143 
f 184//184 215//215 150//150 
f 146//146 191//191 185//185 
f 194//194 192//192 209//209 
f 184//184 211//211 210//210 
f 147//147 199//199 195//195 
f 212//212 194//194 209//209 
f 184//184 150//150 211//211 
f 74//74 157//157 71//71 
f 158//158 196//196 222//222 
f 224//224 161//161 152//152 
f 152//152 161//161 154//154 
f 220//220 229//229 160//160 
f 196//196 158//158 216//216 
f 213//213 220//220 160//160 
f 217//217 215//215 225//225 
f 150//150 215//215 153//153 
f 215//215 217//217 153//153 
f 153//153 211//211 150//150 
f 218//218 151//151 147//147 
f 218//218 220//220 151//151 
f 151//151 220//220 213//213 
f 152//152 154//154 219//219 
f 164//164 157//157 74//74 
f 231//231 156//156 223//223 
f 226//226 223//223 156//156 
f 224//224 221//221 159//159 
f 224//224 159//159 161//161 
f 221//221 167//167 159//159 
f 155//155 227//227 165//165 
f 227//227 155//155 160//160 
f 214//214 228//228 79//79 
f 79//79 228//228 155//155 
f 227//227 160//160 229//229 
f 82//82 162//162 164//164 
f 162//162 163//163 231//231 
f 221//221 230//230 167//167 
f 165//165 200//200 85//85 
f 165//165 166//166 200//200 
f 163//163 156//156 231//231 
f 232//232 166//166 165//165 
f 165//165 168//168 155//155 
f 85//85 168//168 165//165 
f 165//165 227//227 232//232 
f 162//162 170//170 172//172 
f 163//163 162//162 172//172 
f 232//232 169//169 166//166 
f 230//230 172//172 171//171 
f 233//233 171//171 94//94 
f 233//233 167//167 230//230 
f 230//230 171//171 233//233 
f 96//96 234//234 172//172 
f 172//172 234//234 171//171 
f 175//175 176//176 174//174 
f 176//176 178//178 174//174 
f 174//174 178//178 204//204 
f 175//175 177//177 176//176 
f 177//177 138//138 179//179 
f 180//180 125//125 178//178 
f 143//143 125//125 180//180 
f 177//177 179//179 178//178 
f 178//178 179//179 180//180 
f 204//204 178//178 125//125 
f 176//176 177//177 178//178 
f 144//144 180//180 179//179 
f 143//143 180//180 144//144 
