v -21.9807 -126.605 1499.41
v -22.001 -126.019 1499.61
v -22.1317 -126.4 1499.61
v -22.1555 -126.791 1499.8
v -21.9362 -126.215 1499.4
v -21.8106 -125.802 1499.62
v -21.7927 -127.156 1499.6
v -21.5806 -126.398 1499.15
v -21.5978 -126.805 1499.2
v -21.6065 -126 1499.29
v -21.3172 -125.6 1499.64
v -20.9997 -125.935 1499.25
v -20.9256 -126.327 1499.13
v -21.1163 -126.774 1499.15
v -21.4013 -127.174 1499.38
v -21.354 -127.333 1499.63
v -21.0197 -127.163 1499.43
v -21.2175 -125.523 1500.4
v -22.2307 -126.385 1500
v -22.1911 -126.791 1500.19
v -22.0591 -126.022 1500.4
v -22.1905 -126.395 1500.39
v -22.1331 -126.777 1500.42
v -22.0309 -126.996 1500.4
v -22.0771 -126.399 1500.6
v -21.9867 -125.824 1500
v -21.9933 -127.125 1500.01
v -21.7729 -125.649 1500
v -21.7894 -125.725 1500.39
v -21.7772 -127.117 1500.6
v -21.7921 -126.781 1500.82
v -21.5341 -126.013 1500.85
v -21.2933 -126.971 1500.9
v -21.2501 -126.561 1501.05
v -21.7756 -127.311 1499.99
v -21.7871 -127.248 1500.38
v -21.3366 -127.428 1500.2
v -21.3936 -127.295 1500.59
v -19.4043 -125.387 1500.98
v -20.0888 -126.12 1501.17
v -19.4414 -127.096 1500.02
v -20.4779 -127.217 1500.61
v -18.8611 -124.942 1500.61
v -18.1123 -124.661 1500.23
v -17.7916 -124.526 1501.01
v -18.0215 -126.593 1500.81
v -18.0751 -125.986 1501.39
v -17.0591 -124.874 1499.84
v -17.7908 -126.026 1499.68
v -16.1797 -123.452 1501.27
v -17.6716 -124.839 1501.45
v -17.302 -126.348 1500.43
v -16.8552 -125.855 1501.38
v -16.5612 -125.876 1501.21
v -16.2207 -125.642 1500.41
v -16.4191 -123.808 1501.79
v -16.3147 -125.096 1501.92
v -16.2172 -124.242 1502.16
v -15.4863 -123.478 1500.8
v -14.7564 -123.8 1500.8
v -14.5541 -122.975 1501.29
v -16 -124.8 1500.08
v -15.6125 -125.385 1501.19
v -14.9625 -124.762 1501
v -14.5804 -122.295 1502.2
v -15.7713 -123.194 1502.03
v -15.4374 -123.214 1502.6
v -15.1965 -123.621 1502.86
v -15.8181 -125.215 1501.8
v -14.7752 -124.677 1502.05
v -14.5224 -122.22 1503.21
v -14.4628 -122.619 1503.6
v -13.5703 -122.015 1502.39
v -13.8306 -123.612 1501.63
v -13.3801 -122.795 1502.03
v -14.5065 -124.12 1502.77
v -14.1691 -124.275 1501.86
v -13.8426 -121.975 1504.31
v -14.1738 -123.023 1503.75
v -13.612 -123.514 1503.43
v -13.1749 -122.675 1504.65
v -12.8917 -122.852 1504.49
v -13.4412 -122.227 1504.8
v -12.5815 -122.774 1503.1
v -12.6523 -120.964 1504.18
v -12.0664 -121.471 1503.79
v -12.5077 -122.906 1503.74
v -11.5524 -120.439 1506.23
v -12.4987 -120.893 1505.97
v -11.4095 -120.836 1505.06
v -12.4311 -121.487 1506.45
v -11.8 -122.18 1506.4
v -11.56 -121.853 1507.75
v -11.5859 -121.404 1508.04
v -11 -122.114 1506.2
v -10.6609 -121.4 1505.8
v -9.94073 -120.783 1508
v -10.343 -120.892 1506.72
v -9.93271 -121.818 1507.37
v -11.1415 -120.853 1508.34
v -10.8 -122.32 1508
v -10 -122.27 1508
v -10.7309 -121.593 1509.56
v -10.7186 -121.972 1509.52
v -10.0758 -122 1510.55
v -10.0156 -121.591 1510.46
v -9.76037 -121.098 1510
v -10.2153 -122.413 1510.06
v -9.09198 -121.574 1508.76
v -8.6 -122.4 1509.56
v -9.57869 -122.016 1511.14
v -8.13572 -121.856 1510.22
v -9.58504 -122.903 1510.35
v -9.53942 -122.427 1511.18
v -9.14814 -122.993 1510.01
v -8.14555 -123.479 1511.07
v -9.1442 -121.833 1511.38
v -8.58812 -122.613 1512.21
v -7.81013 -123.378 1510.98
v -7.23539 -122.848 1511.04
v -7.59103 -122.008 1511.97
v -7.87184 -123.67 1512.52
v -6.76939 -123.609 1511.67
v -7.47233 -124.004 1512.46
v -7.18114 -123.991 1512
v -7.7436 -122.662 1512.84
v -7.18763 -123.501 1513.48
v -6.60654 -124.253 1513.83
v -6.37458 -122.895 1511.93
v -5.51234 -123.102 1513.27
v -6.37484 -124.638 1513.19
v -6.259 -124.704 1513.74
v -5.98474 -124.572 1512.82
v -5.17981 -124.261 1512.85
v -5.28798 -125.226 1513.63
v -5.4009 -125.319 1514.02
v -5.29363 -123.764 1514.56
v -5.8057 -123.994 1514.53
v -5.43803 -125.208 1514.58
v -4.66615 -123.834 1513.45
v -4.45365 -123.825 1514.2
v -4.64972 -125.014 1513.43
v -4.03308 -124.723 1513.74
v -3.65573 -125.351 1514.05
v -3.4727 -125.183 1514.21
v -4.06492 -125.756 1514.08
v -3.86348 -125.551 1514
v -3.60367 -125.633 1514.22
v -4.85487 -123.665 1514.35
v -4.90558 -125.319 1515.27
v -4.66571 -125.142 1515.47
v -4.27067 -124.761 1515.5
v -4.07044 -124.547 1515.34
v -3.99985 -125.199 1515.64
v -3.82266 -124.502 1515.14
v -3.80622 -124.814 1515.47
v -3.49012 -124.786 1514.36
v -3.57665 -124.568 1514.58
v -3.51758 -125.2 1515.39
v -3.36506 -125.406 1514.4
v -3.37491 -124.814 1514.62
v -3.277 -125.19 1514.6
v -3.28742 -125.409 1514.61
v -3.4022 -124.796 1514.99
v -3.30758 -125.007 1514.98
v -3.31461 -125.4 1515
v -3.4218 -124.991 1515.22
v -4.64798 -125.947 1514.78
v -4.61913 -125.846 1515.17
v -4.44709 -126.024 1514.56
v -4.40288 -125.778 1515.41
v -4.21181 -126.011 1514.38
v -4.19313 -126.103 1514.61
v -4.20627 -126.084 1514.99
v -4.18758 -125.597 1515.57
v -4.00761 -125.967 1515.23
v -3.80517 -125.943 1514.39
v -3.82669 -126.04 1514.61
v -3.78843 -125.999 1515
v -3.48662 -125.781 1514.6
v -3.63631 -125.598 1515.38
v -18.1123 -124.661 1500.23
v -16.1797 -123.452 1501.27
v -14.5541 -122.975 1501.29
v -16 -124.8 1500.08
v -14.5804 -122.295 1502.2
v -12.6523 -120.964 1504.18
v -12.0664 -121.471 1503.79
v -11.5524 -120.439 1506.23
v -12.4987 -120.893 1505.97
v -11.4095 -120.836 1505.06
v -11 -122.114 1506.2
v -10.6609 -121.4 1505.8
v -10.343 -120.892 1506.72
v -9.93271 -121.818 1507.37
v -11.1415 -120.853 1508.34
v -9.76037 -121.098 1510
v -4.40288 -125.778 1515.41
v -4.18758 -125.597 1515.57
vn -0.695932 -0.180931 -0.69494
vn -0.773027 0.459948 -0.436896
vn -0.89358 0.0881489 -0.440163
vn -0.896925 -0.323094 -0.301888
vn -0.651387 0.242331 -0.719007
vn -0.519176 0.733253 -0.439087
vn -0.562824 -0.663095 -0.493492
vn -0.27028 0.0949236 -0.958091
vn -0.354412 -0.360862 -0.862654
vn -0.360049 0.534482 -0.764653
vn -0.221345 0.875481 -0.429581
vn -0.0669451 0.529878 -0.845428
vn 0.069979 0.0893072 -0.993543
vn 0.062668 -0.319591 -0.945481
vn -0.123595 -0.680611 -0.722145
vn -0.0667521 -0.92853 -0.365206
vn 0.19148 -0.708168 -0.679583
vn -0.269415 0.912961 0.306459
vn -0.981641 0.175954 -0.0736344
vn -0.948663 -0.301896 0.0943305
vn -0.807064 0.456547 0.374449
vn -0.954466 0.0713726 0.289657
vn -0.855203 -0.247282 0.455499
vn -0.763098 -0.532345 0.366455
vn -0.748581 0.109542 0.653932
vn -0.778239 0.62518 -0.0591116
vn -0.761545 -0.646057 -0.051577
vn -0.434247 0.897905 -0.0720853
vn -0.530263 0.763943 0.367712
vn -0.467047 -0.621314 0.629156
vn -0.54957 -0.2364 0.801304
vn -0.391488 0.429327 0.81389
vn -0.130571 -0.533308 0.835784
vn -0.212142 -0.0615217 0.9753
vn -0.441879 -0.890886 -0.105189
vn -0.50134 -0.821196 0.272571
vn -0.060587 -0.993609 0.0952433
vn -0.156961 -0.83113 0.533467
vn -0.323584 0.685018 0.65272
vn -0.196926 0.237899 0.951117
vn 0.265392 -0.93626 -0.230182
vn 0.125623 -0.855778 0.50186
vn -0.33518 0.898728 0.282741
vn -0.365682 0.929148 0.0544021
vn -0.506819 0.800739 0.3193
vn 0.244864 -0.875741 0.416076
vn -0.0528514 -0.397141 0.916235
vn 0.0690702 0.380115 -0.922357
vn 0.317768 -0.419491 -0.850324
vn -0.291852 0.82925 -0.47662
vn -0.43876 0.40581 0.801753
vn 0.44493 -0.877781 -0.17759
vn 0.16732 -0.735141 0.656941
vn 0.356845 -0.857902 0.369684
vn 0.563333 -0.650833 -0.508991
vn -0.66345 0.563655 0.492064
vn -0.154204 -0.445494 0.881905
vn -0.515488 0.0784402 0.853299
vn -0.0434315 0.666342 -0.74438
vn 0.507975 0.123279 -0.852504
vn 0.359964 0.435523 -0.825073
vn 0.194387 0.285276 -0.938526
vn 0.562689 -0.826465 -0.0183566
vn 0.688517 -0.520114 -0.505397
vn -0.173395 0.826859 -0.535012
vn -0.730174 0.615321 0.297029
vn -0.731802 0.304083 0.609917
vn -0.510866 -0.206653 0.834452
vn 0.165493 -0.725542 0.667983
vn 0.384848 -0.843939 0.37371
vn -0.738209 0.623721 0.256944
vn -0.757603 0.0612403 0.649836
vn 0.198021 0.718875 -0.666339
vn 0.758166 -0.306562 -0.575503
vn 0.638476 0.199488 -0.743339
vn -0.0362125 -0.679848 0.732458
vn 0.701863 -0.692947 -0.164965
vn -0.832766 0.166658 0.527946
vn -0.438415 -0.495429 0.749895
vn 0.0508981 -0.821551 0.567859
vn -0.399666 -0.681591 0.612944
vn 0.0713922 -0.927401 0.367194
vn -0.685641 -0.300536 0.663004
vn 0.820343 -0.380206 -0.427178
vn 0.135717 0.866031 -0.481218
vn 0.367713 0.682073 -0.63211
vn 0.528764 -0.843698 0.092638
vn 0.323275 0.911278 -0.25508
vn -0.828642 0.331982 0.45071
vn 0.288139 0.88188 -0.373181
vn -0.801843 -0.267714 0.534206
vn -0.294045 -0.919321 0.261509
vn -0.732941 -0.609517 0.302138
vn -0.878471 0.05442 0.474686
vn 0.736626 -0.597311 -0.317177
vn 0.836287 0.203084 -0.509294
vn 0.456537 0.884836 -0.0929424
vn 0.554913 0.792102 -0.254257
vn 0.887684 0.0720652 -0.45478
vn -0.168399 0.963485 0.208178
vn -0.269992 -0.961677 -0.0477761
vn 0.352774 -0.86094 -0.366515
vn -0.814805 0.19936 0.544379
vn -0.851975 -0.258907 0.455089
vn -0.811743 -0.0388466 0.582721
vn -0.621293 0.501186 0.602335
vn 0.138163 0.980247 0.141517
vn -0.763584 -0.51855 0.384766
vn 0.84801 0.247021 -0.468893
vn 0.698752 -0.330133 -0.634632
vn -0.690964 0.222025 0.687949
vn 0.761512 0.507931 -0.402624
vn -0.528001 -0.844689 0.087839
vn -0.774269 -0.232414 0.588635
vn 0.0174574 -0.925071 -0.379393
vn -0.0628028 -0.915258 -0.397943
vn -0.399961 0.634777 0.661128
vn -0.682185 0.0621217 0.728536
vn 0.292377 -0.702827 -0.648499
vn 0.619615 -0.295052 -0.727339
vn 0.201127 0.923487 0.326681
vn -0.715545 -0.554406 0.425006
vn 0.424505 -0.477996 -0.768971
vn -0.423351 -0.902686 -0.0770117
vn -0.0680144 -0.881965 -0.466381
vn -0.371522 0.539297 0.755732
vn -0.66919 -0.0532264 0.741182
vn -0.730816 -0.465154 0.49954
vn 0.726565 0.200128 -0.657306
vn 0.571891 0.816143 -0.0827692
vn -0.387183 -0.892744 -0.230429
vn -0.630209 -0.756377 0.175303
vn 0.0359095 -0.76066 -0.648157
vn 0.461841 -0.278865 -0.841984
vn -0.206683 -0.822131 -0.530456
vn -0.543308 -0.83339 -0.101382
vn -0.0867735 0.711036 0.69778
vn -0.419749 0.355336 0.835193
vn -0.705938 -0.644384 0.293974
vn 0.720266 0.574536 -0.388747
vn 0.581832 0.811465 0.0547387
vn 0.164076 -0.584261 -0.794807
vn 0.686918 0.151055 -0.710863
vn 0.627109 -0.184102 -0.756862
vn 0.798308 0.070816 -0.598072
vn 0.127992 -0.685305 -0.71692
vn 0.38867 -0.477584 -0.78794
vn 0.626164 -0.482591 -0.612392
vn 0.272838 0.866566 0.417879
vn -0.664096 -0.340789 0.665462
vn -0.445408 -0.00970467 0.895275
vn -0.129242 0.433572 0.891803
vn 0.160063 0.709034 0.686768
vn 0.147177 0.028362 0.988703
vn 0.517297 0.746 0.419389
vn 0.399986 0.459411 0.793066
vn 0.808044 0.381796 -0.448662
vn 0.711525 0.698609 -0.0753535
vn 0.679368 0.00840797 0.73375
vn 0.842186 -0.235074 -0.485245
vn 0.889029 0.439265 -0.129126
vn 0.970821 0.0963616 -0.219592
vn 0.954557 -0.265849 -0.134707
vn 0.779797 0.576346 0.24442
vn 0.959118 0.211072 0.188523
vn 0.918932 -0.262314 0.294542
vn 0.782904 0.31895 0.534165
vn -0.53885 -0.837454 0.0911687
vn -0.563016 -0.698133 0.442294
vn -0.355792 -0.910339 -0.211412
vn -0.511895 -0.330999 0.792718
vn -0.0260298 -0.874728 -0.483915
vn -0.0498401 -0.984083 -0.170576
vn -0.117724 -0.965163 0.233669
vn -0.346327 -0.15382 0.925417
vn 0.161766 -0.780976 0.603247
vn 0.386723 -0.754992 -0.529559
vn 0.325446 -0.933202 -0.152377
vn 0.523492 -0.809995 0.264319
vn 0.758543 -0.630261 -0.165483
vn 0.543691 -0.457614 0.703555
vn -0.151527 0.749211 -0.644765
vn -0.622489 0.77324 0.120865
vn -0.111469 0.793509 -0.598262
vn 0.575527 -0.380942 -0.723638
vn -0.561298 0.82712 -0.0285778
vn -0.515515 0.85687 -0.00427874
vn 0.809271 0.0918936 -0.580203
vn -0.31319 0.936854 0.155618
vn -0.494757 0.864094 0.0925031
vn 0.779508 0.346784 -0.521641
vn 0.137838 -0.984541 0.108074
vn 0.686774 -0.61093 -0.393835
vn 0.863214 0.136771 -0.485957
vn 0.511783 -0.723221 -0.463713
vn -0.698355 0.508717 0.503495
vn -0.327637 0.78105 0.531615
vn -0.144461 -0.792525 0.592483
vn 0.197106 -0.528664 0.825629
g grp1
usemtl mtl1
f 6//6 28//28 11//11 
f 3//3 4//4 19//19 
f 4//4 20//20 19//19 
f 1//1 4//4 3//3 
f 1//1 7//7 4//4 
f 26//26 6//6 2//2 
f 19//19 26//26 2//2 
f 2//2 3//3 19//19 
f 4//4 27//27 20//20 
f 10//10 8//8 5//5 
f 2//2 10//10 5//5 
f 1//1 5//5 8//8 
f 10//10 2//2 6//6 
f 3//3 2//2 5//5 
f 5//5 1//1 3//3 
f 6//6 26//26 28//28 
f 9//9 1//1 8//8 
f 7//7 1//1 9//9 
f 7//7 9//9 15//15 
f 16//16 7//7 15//15 
f 10//10 6//6 11//11 
f 10//10 11//11 12//12 
f 8//8 10//10 12//12 
f 12//12 13//13 8//8 
f 13//13 14//14 8//8 
f 8//8 14//14 9//9 
f 9//9 14//14 15//15 
f 17//17 14//14 49//49 
f 7//7 35//35 27//27 
f 4//4 7//7 27//27 
f 35//35 7//7 16//16 
f 16//16 37//37 35//35 
f 15//15 14//14 17//17 
f 16//16 15//15 17//17 
f 17//17 49//49 41//41 
f 16//16 17//17 41//41 
f 18//18 11//11 28//28 
f 18//18 44//44 11//11 
f 19//19 20//20 22//22 
f 20//20 23//23 22//22 
f 20//20 24//24 23//23 
f 24//24 20//20 27//27 
f 27//27 36//36 24//24 
f 22//22 21//21 19//19 
f 25//25 21//21 22//22 
f 23//23 25//25 22//22 
f 23//23 31//31 25//25 
f 30//30 31//31 24//24 
f 24//24 31//31 23//23 
f 29//29 21//21 32//32 
f 32//32 21//21 25//25 
f 29//29 28//28 26//26 
f 26//26 21//21 29//29 
f 19//19 21//21 26//26 
f 30//30 24//24 36//36 
f 32//32 25//25 31//31 
f 28//28 29//29 18//18 
f 18//18 29//29 32//32 
f 34//34 32//32 31//31 
f 31//31 30//30 33//33 
f 31//31 33//33 34//34 
f 32//32 39//39 18//18 
f 32//32 34//34 40//40 
f 39//39 32//32 40//40 
f 27//27 35//35 36//36 
f 37//37 36//36 35//35 
f 30//30 36//36 38//38 
f 38//38 36//36 37//37 
f 30//30 38//38 33//33 
f 42//42 38//38 37//37 
f 11//11 182//182 12//12 
f 48//48 12//12 182//182 
f 13//13 49//49 14//14 
f 13//13 12//12 48//48 
f 16//16 41//41 37//37 
f 18//18 43//43 44//44 
f 18//18 39//39 43//43 
f 34//34 33//33 47//47 
f 40//40 34//34 47//47 
f 42//42 47//47 33//33 
f 47//47 42//42 46//46 
f 42//42 33//33 38//38 
f 41//41 42//42 37//37 
f 41//41 46//46 42//42 
f 39//39 40//40 51//51 
f 39//39 45//45 43//43 
f 51//51 45//45 39//39 
f 44//44 43//43 45//45 
f 47//47 46//46 53//53 
f 51//51 40//40 47//47 
f 41//41 52//52 46//46 
f 41//41 49//49 52//52 
f 49//49 13//13 48//48 
f 49//49 48//48 62//62 
f 55//55 49//49 185//185 
f 182//182 50//50 59//59 
f 183//183 56//56 66//66 
f 65//65 59//59 50//50 
f 58//58 51//51 47//47 
f 48//48 182//182 59//59 
f 44//44 45//45 183//183 
f 56//56 51//51 58//58 
f 56//56 45//45 51//51 
f 56//56 183//183 45//45 
f 59//59 62//62 48//48 
f 54//54 70//70 69//69 
f 53//53 46//46 54//54 
f 49//49 55//55 52//52 
f 52//52 54//54 46//46 
f 55//55 63//63 52//52 
f 54//54 52//52 63//63 
f 54//54 69//69 53//53 
f 57//57 47//47 69//69 
f 58//58 47//47 57//57 
f 57//57 68//68 58//58 
f 69//69 47//47 53//53 
f 59//59 61//61 60//60 
f 65//65 184//184 59//59 
f 184//184 65//65 73//73 
f 64//64 55//55 185//185 
f 63//63 55//55 64//64 
f 54//54 63//63 70//70 
f 64//64 185//185 60//60 
f 59//59 60//60 62//62 
f 77//77 70//70 63//63 
f 64//64 77//77 63//63 
f 60//60 74//74 64//64 
f 183//183 71//71 186//186 
f 71//71 183//183 66//66 
f 67//67 71//71 66//66 
f 56//56 67//67 66//66 
f 67//67 56//56 58//58 
f 67//67 58//58 68//68 
f 76//76 57//57 69//69 
f 68//68 57//57 76//76 
f 70//70 76//76 69//69 
f 79//79 68//68 76//76 
f 72//72 67//67 68//68 
f 72//72 71//71 67//67 
f 72//72 78//78 71//71 
f 78//78 72//72 83//83 
f 74//74 60//60 75//75 
f 64//64 74//74 77//77 
f 61//61 73//73 75//75 
f 65//65 85//85 73//73 
f 77//77 74//74 84//84 
f 77//77 84//84 87//87 
f 75//75 60//60 61//61 
f 77//77 87//87 70//70 
f 87//87 80//80 70//70 
f 74//74 75//75 84//84 
f 80//80 76//76 70//70 
f 80//80 79//79 76//76 
f 78//78 89//89 71//71 
f 186//186 71//71 187//187 
f 72//72 68//68 79//79 
f 83//83 72//72 79//79 
f 79//79 80//80 81//81 
f 79//79 81//81 83//83 
f 82//82 81//81 80//80 
f 83//83 91//91 78//78 
f 83//83 81//81 91//91 
f 90//90 85//85 88//88 
f 75//75 73//73 86//86 
f 73//73 85//85 86//86 
f 90//90 86//86 85//85 
f 84//84 75//75 188//188 
f 84//84 188//188 96//96 
f 188//188 191//191 96//96 
f 87//87 82//82 80//80 
f 187//187 71//71 190//190 
f 187//187 190//190 189//189 
f 189//189 190//190 100//100 
f 88//88 98//98 90//90 
f 92//92 91//91 81//81 
f 92//92 81//81 82//82 
f 87//87 84//84 95//95 
f 87//87 192//192 82//82 
f 89//89 78//78 91//91 
f 92//92 93//93 91//91 
f 94//94 89//89 91//91 
f 94//94 196//196 89//89 
f 93//93 94//94 91//91 
f 196//196 94//94 103//103 
f 94//94 93//93 104//104 
f 88//88 97//97 98//98 
f 191//191 194//194 96//96 
f 193//193 95//95 84//84 
f 97//97 189//189 100//100 
f 92//92 82//82 192//192 
f 92//92 192//192 102//102 
f 92//92 101//101 93//93 
f 102//102 101//101 92//92 
f 194//194 99//99 96//96 
f 95//95 193//193 102//102 
f 193//193 195//195 102//102 
f 110//110 102//102 195//195 
f 100//100 107//107 97//97 
f 121//121 97//97 107//107 
f 103//103 94//94 104//104 
f 113//113 93//93 101//101 
f 93//93 108//108 104//104 
f 102//102 115//115 101//101 
f 113//113 101//101 115//115 
f 196//196 103//103 106//106 
f 103//103 104//104 105//105 
f 106//106 103//103 105//105 
f 197//197 196//196 106//106 
f 104//104 108//108 105//105 
f 197//197 106//106 117//117 
f 106//106 105//105 111//111 
f 117//117 106//106 111//111 
f 111//111 105//105 114//114 
f 114//114 105//105 108//108 
f 93//93 113//113 108//108 
f 108//108 113//113 122//122 
f 194//194 110//110 99//99 
f 98//98 97//97 109//109 
f 110//110 194//194 109//109 
f 109//109 97//97 112//112 
f 110//110 109//109 112//112 
f 102//102 110//110 115//115 
f 112//112 97//97 121//121 
f 113//113 115//115 124//124 
f 124//124 122//122 113//113 
f 110//110 119//119 115//115 
f 119//119 116//116 115//115 
f 116//116 124//124 115//115 
f 117//117 111//111 118//118 
f 197//197 117//117 121//121 
f 117//117 118//118 126//126 
f 108//108 122//122 114//114 
f 118//118 111//111 114//114 
f 114//114 122//122 118//118 
f 116//116 125//125 124//124 
f 112//112 130//130 129//129 
f 112//112 129//129 110//110 
f 120//120 119//119 110//110 
f 120//120 110//110 129//129 
f 126//126 121//121 117//117 
f 112//112 121//121 130//130 
f 149//149 130//130 121//121 
f 119//119 125//125 116//116 
f 132//132 122//122 124//124 
f 119//119 123//123 125//125 
f 120//120 123//123 119//119 
f 123//123 120//120 129//129 
f 134//134 133//133 123//123 
f 125//125 131//131 124//124 
f 123//123 133//133 125//125 
f 133//133 131//131 125//125 
f 122//122 132//132 128//128 
f 126//126 118//118 127//127 
f 118//118 122//122 127//127 
f 127//127 122//122 128//128 
f 121//121 137//137 149//149 
f 126//126 137//137 121//121 
f 127//127 128//128 150//150 
f 137//137 126//126 138//138 
f 126//126 127//127 138//138 
f 124//124 131//131 132//132 
f 134//134 142//142 133//133 
f 129//129 134//134 123//123 
f 140//140 129//129 130//130 
f 128//128 132//132 139//139 
f 128//128 139//139 150//150 
f 131//131 133//133 135//135 
f 136//136 132//132 131//131 
f 139//139 132//132 136//136 
f 136//136 131//131 135//135 
f 143//143 134//134 129//129 
f 137//137 138//138 152//152 
f 138//138 127//127 151//151 
f 136//136 168//168 139//139 
f 143//143 129//129 140//140 
f 141//141 140//140 130//130 
f 149//149 141//141 130//130 
f 141//141 158//158 140//140 
f 133//133 142//142 135//135 
f 147//147 142//142 134//134 
f 144//144 134//134 143//143 
f 134//134 144//144 147//147 
f 144//144 148//148 147//147 
f 144//144 143//143 145//145 
f 160//160 148//148 144//144 
f 143//143 140//140 157//157 
f 145//145 160//160 144//144 
f 145//145 143//143 157//157 
f 162//162 145//145 157//157 
f 160//160 145//145 162//162 
f 170//170 135//135 172//172 
f 146//146 135//135 142//142 
f 172//172 135//135 146//146 
f 172//172 146//146 177//177 
f 147//147 146//146 142//142 
f 147//147 177//177 146//146 
f 148//148 177//177 147//147 
f 148//148 180//180 177//177 
f 180//180 148//148 160//160 
f 127//127 150//150 151//151 
f 151//151 150//150 171//171 
f 141//141 149//149 155//155 
f 149//149 153//153 155//155 
f 153//153 149//149 137//137 
f 153//153 137//137 152//152 
f 152//152 138//138 151//151 
f 151//151 171//171 175//175 
f 154//154 152//152 151//151 
f 151//151 175//175 154//154 
f 153//153 152//152 156//156 
f 152//152 154//154 156//156 
f 155//155 153//153 156//156 
f 158//158 141//141 155//155 
f 167//167 155//155 156//156 
f 167//167 156//156 159//159 
f 159//159 156//156 154//154 
f 158//158 157//157 140//140 
f 161//161 157//157 158//158 
f 155//155 167//167 164//164 
f 181//181 159//159 154//154 
f 157//157 161//161 162//162 
f 160//160 162//162 163//163 
f 164//164 161//161 158//158 
f 155//155 164//164 158//158 
f 161//161 164//164 165//165 
f 161//161 165//165 162//162 
f 162//162 165//165 166//166 
f 162//162 166//166 163//163 
f 165//165 164//164 167//167 
f 166//166 165//165 167//167 
f 159//159 166//166 167//167 
f 181//181 166//166 159//159 
f 168//168 136//136 170//170 
f 170//170 174//174 168//168 
f 150//150 139//139 169//169 
f 169//169 139//139 168//168 
f 150//150 169//169 171//171 
f 170//170 136//136 135//135 
f 174//174 169//169 168//168 
f 198//198 169//169 174//174 
f 172//172 173//173 170//170 
f 173//173 174//174 170//170 
f 176//176 198//198 174//174 
f 176//176 199//199 198//198 
f 177//177 178//178 172//172 
f 178//178 173//173 172//172 
f 178//178 174//174 173//173 
f 181//181 199//199 176//176 
f 179//179 174//174 178//178 
f 179//179 176//176 174//174 
f 179//179 181//181 176//176 
f 181//181 154//154 199//199 
f 177//177 180//180 178//178 
f 180//180 160//160 163//163 
f 179//179 180//180 166//166 
f 178//178 180//180 179//179 
f 181//181 179//179 166//166 
f 163//163 166//166 180//180 
