v -25.7837 -124.6 1501.92
v -25.783 -124.979 1501.92
v -25.7998 -124.611 1502.2
v -25.6241 -125.199 1501.68
v -25.6779 -124.397 1501.95
v -25.718 -125.192 1502.19
v -25.75 -124.989 1502.39
v -25.3996 -131.394 1473.4
v -25.4512 -131.6 1473.41
v -25.4416 -131.39 1473.66
v -25.4776 -131.585 1473.67
v -25.4254 -131.788 1473.62
v -25.4344 -131.591 1473.88
v -25.2744 -131.589 1473.21
v -25.2916 -131.208 1473.61
v -25.1942 -131.818 1473.23
v -25.1592 -131.073 1474.21
v -25.196 -131.898 1473.99
v -25.0113 -131.298 1473.22
v -24.9911 -131.877 1473.22
v -25.0062 -131.12 1473.46
v -24.9062 -130.913 1474.62
v -24.8177 -131.599 1473.15
v -24.799 -131.214 1473.37
v -24.7997 -131.942 1474.19
v -24.5552 -131.382 1473.52
v -24.5428 -131.609 1473.44
v -24.5992 -131.854 1473.64
v -24.5832 -130.997 1474.28
v -24.5953 -131.872 1474.06
v -25.1888 -132.019 1473.6
v -24.9996 -132.032 1473.41
v -24.9998 -132.068 1473.6
v -24.9995 -132.027 1473.82
v -24.7983 -131.974 1473.4
v -24.8051 -132.025 1473.62
v -25.2589 -131.613 1474.41
v -25.1039 -131.204 1475.39
v -24.9809 -131.866 1474.44
v -24.7962 -131.656 1475.71
v -24.605 -131.812 1474.95
v -24.5992 -131.757 1475.47
v -24.251 -131.42 1474.62
v -24.3944 -131.715 1474.83
v -24.3614 -131.701 1475.47
v -24.0983 -130.991 1475.68
v -24.0353 -131.416 1475.96
v -24.4701 -131.183 1479.01
v -24.2142 -131.497 1478.45
v -24.1049 -130.557 1481.3
v -24.1442 -125.205 1497.13
v -24.1838 -124.358 1497.79
v -24.1322 -125.465 1498.09
v -25.0421 -124.995 1499.51
v -24.8735 -124.627 1499.01
v -24.7991 -125.216 1499.21
v -24.661 -124.217 1499.28
v -24.1873 -124.169 1498.57
v -25.5242 -124.622 1500.94
v -25.3815 -124.406 1500.76
v -25.1964 -124.175 1500.99
v -24.7705 -124.093 1500.53
v -24.4314 -125.409 1500.26
v -24.0671 -125.197 1500.25
v -24.1198 -124.434 1500.63
v -25.5908 -125.328 1502.19
v -25.5955 -124.372 1502.38
v -25.5959 -125.247 1502.4
v -25.5983 -124.617 1502.59
v -25.586 -124.997 1502.61
v -25.3589 -125.437 1501.88
v -25.3648 -124.183 1502.14
v -25.3985 -125.393 1502.38
v -25.3871 -124.415 1502.61
v -25.3875 -124.795 1502.75
v -25.3851 -125.008 1502.73
v -25.3993 -125.236 1502.59
v -25.1707 -125.489 1502.13
v -25.1935 -125.427 1502.41
v -25.1997 -125.198 1502.68
v -24.9986 -124.35 1502.57
v -25.0095 -124.61 1502.75
v -25.013 -124.992 1502.76
v -24.9972 -125.264 1502.59
v -24.7636 -124.215 1501.95
v -24.8082 -125.382 1502.19
v -24.6654 -124.413 1502.34
v -24.7304 -124.598 1502.59
v -24.7987 -124.8 1502.7
v -24.7204 -125.013 1502.57
v -24.5454 -125.182 1502.04
v -24.5116 -124.79 1502.31
v -23.8313 -131.194 1476.89
v -23.866 -131.386 1477.3
v -23.643 -130.266 1480.11
v -23.5039 -130.602 1479.35
v -23.6276 -131.296 1479.86
v -23.3755 -130.806 1479.59
v -23.2672 -130.97 1480.5
v -24.0551 -130.291 1480.41
v -23.8181 -130.532 1482.35
v -23.7865 -131.111 1481.15
v -23.1421 -130.399 1480.98
v -23.7058 -129.921 1482.55
v -23.3924 -129.645 1482.71
v -22.9623 -129.715 1482.54
v -22.5585 -129.991 1483.05
v -23.1886 -130.515 1483.39
v -23 -130.742 1482.6
v -23.1806 -130.155 1484.13
v -22.5855 -129.669 1485.54
v -22.582 -128.2 1486.6
v -22.9828 -129 1485.6
v -22.7418 -128.992 1486.34
v -22.6385 -125.824 1492.64
v -23.3175 -125.393 1494.78
v -22.8041 -126.005 1493.65
v -22.6654 -125.977 1495.08
v -23.3811 -124.835 1495.36
v -23.4067 -124.421 1496.44
v -22.8096 -124.571 1495.64
v -22.8077 -124.634 1496.63
v -23.3705 -125.699 1495.72
v -23.6446 -124.262 1498.28
v -23.6 -125.47 1498.2
v -22.7905 -125.052 1497.03
v -23.9069 -124.823 1500.25
v -22.4 -130.048 1484.4
v -21.9139 -129.282 1485.62
v -22.4352 -128.385 1485.73
v -21.6635 -128.397 1486.4
v -22.0159 -127.202 1488.24
v -21.4671 -127.075 1488.57
v -21.6273 -126.304 1490.08
v -21.1921 -126.817 1489.62
v -22.2804 -127.272 1488.93
v -22 -127.8 1489.45
v -21.6 -127.908 1489.4
v -21.2066 -127.441 1489.67
v -22.2592 -126.964 1490.49
v -22.1943 -126.417 1490.47
v -22 -127.073 1491.2
v -21.6 -126.889 1491.8
v -21.4344 -125.81 1491.8
v -21.2453 -126.413 1491.76
v -22.2264 -125.449 1492.4
v -21.8248 -125.518 1492.07
v -22.3912 -126.47 1492.55
v -22.018 -126.701 1492.38
v -21.6578 -126.329 1493.02
v -22.4376 -124.954 1493.89
v -22.0292 -125.071 1493.82
v -21.7288 -125.427 1493.67
v -22.4009 -126.311 1493.59
v -22.2 -126 1494.6
v -22.0171 -126.308 1493.6
v -25.1942 -131.818 1473.23
v -25.1592 -131.073 1474.21
v -25.0113 -131.298 1473.22
v -25.0113 -131.298 1473.22
v -24.9911 -131.877 1473.22
v -24.8177 -131.599 1473.15
v -24.8177 -131.599 1473.15
v -24.2142 -131.497 1478.45
v -24.0551 -130.291 1480.41
v -23.7865 -131.111 1481.15
v -23.1421 -130.399 1480.98
v -23.3924 -129.645 1482.71
v -22.9623 -129.715 1482.54
v -22.5585 -129.991 1483.05
v -22.5585 -129.991 1483.05
v -23 -130.742 1482.6
v -22.582 -128.2 1486.6
v -22.6385 -125.824 1492.64
v -22.6385 -125.824 1492.64
v -23.6 -125.47 1498.2
v -23.9069 -124.823 1500.25
v -22.4 -130.048 1484.4
v -21.9139 -129.282 1485.62
v -22.4352 -128.385 1485.73
v -21.6635 -128.397 1486.4
v -21.6635 -128.397 1486.4
v -22.0159 -127.202 1488.24
v -21.4671 -127.075 1488.57
v -21.6273 -126.304 1490.08
v -22.2804 -127.272 1488.93
v -22.2804 -127.272 1488.93
v -22 -127.8 1489.45
v -21.2066 -127.441 1489.67
v -22.2592 -126.964 1490.49
v -22.1943 -126.417 1490.47
v -22.1943 -126.417 1490.47
v -21.6 -126.889 1491.8
vn -0.94702 0.275204 -0.165577
vn -0.974368 -0.182389 -0.131687
vn -0.951041 0.254954 0.174699
vn -0.762312 -0.615694 -0.1995
vn -0.742456 0.667774 -0.0532614
vn -0.852286 -0.517508 0.0761269
vn -0.913656 -0.190036 0.359331
vn -0.692756 0.531998 -0.486896
vn -0.922945 -0.0908085 -0.374067
vn -0.909847 0.414447 -0.0202873
vn -0.997202 -0.0181608 0.0725197
vn -0.854937 -0.518371 0.0193385
vn -0.94099 -0.240654 0.237957
vn -0.470261 0.0704108 -0.879714
vn -0.616473 0.766483 -0.180182
vn -0.592394 -0.628694 -0.503799
vn -0.823599 0.562399 0.073434
vn -0.572782 -0.770433 0.279917
vn -0.36338 0.464171 -0.807774
vn -0.10896 -0.153484 -0.982125
vn -0.175931 0.920612 -0.348601
vn -0.173911 0.978009 -0.115127
vn -0.122065 -0.0468118 -0.991418
vn 0.452126 0.682942 -0.573736
vn 0.148858 -0.975571 0.161564
vn 0.813105 0.398161 -0.42465
vn 0.868681 -0.182082 -0.460695
vn 0.778912 -0.605458 -0.163453
vn 0.424396 0.872109 -0.243543
vn 0.608628 -0.79337 0.0116801
vn -0.474643 -0.878733 -0.0504223
vn -0.0511098 -0.917116 -0.395331
vn -0.0170661 -0.999854 -0.000206101
vn -0.116244 -0.969197 0.217127
vn 0.539077 -0.682136 -0.494051
vn 0.373413 -0.92746 -0.0194913
vn -0.800798 -0.523227 0.291472
vn -0.980127 0.0616922 0.188532
vn -0.317913 -0.918807 0.233934
vn -0.631189 -0.748211 0.204405
vn 0.227273 -0.969541 0.0913096
vn -0.024773 -0.992621 0.118697
vn 0.96068 -0.216523 -0.173817
vn 0.673303 -0.738085 -0.0435043
vn 0.452783 -0.891528 0.0128692
vn 0.864119 0.453763 -0.217711
vn 0.843405 -0.527814 -0.100403
vn -0.809347 -0.547576 0.21241
vn -0.494965 -0.852591 0.167626
vn -0.976038 0.13476 0.170851
vn -0.839229 -0.474567 -0.265482
vn -0.579723 0.759723 -0.294519
vn -0.386278 -0.921209 -0.0465173
vn -0.914661 -0.27001 -0.300816
vn -0.900635 0.269862 -0.340634
vn -0.588127 -0.787579 -0.183917
vn -0.54518 0.809279 -0.218737
vn -0.143181 0.981538 -0.126817
vn -0.94903 0.127347 -0.288312
vn -0.798275 0.550123 -0.245196
vn -0.488701 0.863393 -0.125391
vn -0.0423087 0.998994 -0.0148558
vn 0.161206 -0.985801 0.0470114
vn 0.719698 -0.649204 0.246108
vn 0.835806 0.486696 0.254077
vn -0.606201 -0.793112 0.0591015
vn -0.648015 0.674644 0.353457
vn -0.660627 -0.609962 0.437629
vn -0.711319 0.241685 0.66001
vn -0.642007 -0.250812 0.724514
vn -0.372365 -0.92479 -0.0781592
vn -0.227096 0.95765 0.177015
vn -0.365639 -0.882673 0.295291
vn -0.266059 0.630731 0.728965
vn -0.297894 0.0904776 0.950302
vn -0.282372 -0.304464 0.909707
vn -0.365953 -0.634448 0.680848
vn -0.0312369 -0.994993 0.0949363
vn 0.0122241 -0.881168 0.472645
vn -0.0465601 -0.587393 0.807961
vn 0.239658 0.784005 0.572626
vn 0.166217 0.309373 0.936301
vn 0.190409 -0.245706 0.950459
vn 0.34041 -0.672451 0.657214
vn 0.381683 0.902579 0.19917
vn 0.48297 -0.822641 0.300002
vn 0.699215 0.599524 0.389448
vn 0.635582 0.371408 0.676824
vn 0.590772 0.000803201 0.806838
vn 0.679074 -0.415866 0.604908
vn 0.783304 -0.556169 0.277687
vn 0.904358 0.0431329 0.424589
vn 0.976014 -0.15378 -0.154103
vn 0.787818 -0.611302 -0.0751849
vn 0.326217 0.919448 -0.219541
vn 0.80855 0.546763 -0.217478
vn 0.414028 -0.908922 0.0494051
vn 0.976484 0.114402 -0.182733
vn 0.915808 -0.384213 -0.116946
vn -0.288727 0.951514 -0.106106
vn -0.825612 -0.459985 0.326771
vn -0.63281 -0.723737 0.275238
vn 0.712837 0.633859 -0.300144
vn -0.789179 0.614163 0.000925705
vn -0.048262 0.958761 -0.280087
vn 0.777862 0.514515 -0.36084
vn 0.961191 0.0209353 -0.275089
vn -0.207431 -0.910375 0.358036
vn 0.0956094 -0.964422 0.246472
vn -0.582909 -0.694326 0.422053
vn -0.233398 -0.871749 0.43079
vn -0.658707 0.713961 -0.237414
vn -0.947217 0.293884 0.128109
vn -0.89894 -0.274832 0.341138
vn -0.926591 -0.351653 -0.1333
vn -0.940801 -0.168621 -0.294042
vn -0.819295 -0.56218 -0.112736
vn -0.0324712 -0.983135 0.179976
vn -0.702211 0.607501 -0.37127
vn -0.172405 0.96112 -0.215698
vn 0.30391 0.950019 -0.0714297
vn 0.767639 0.618773 0.166886
vn -0.641983 -0.761728 -0.0873358
vn 0.383626 0.921667 0.0579689
vn 0.679138 -0.674071 0.290516
vn 0.92541 -0.176775 0.335211
vn 0.928732 0.233858 0.287693
vn 0.304061 -0.90164 0.307558
vn 0.963785 -0.225729 -0.142007
vn -0.667383 0.725176 -0.169465
vn 0.80703 0.420005 -0.415088
vn -0.699456 0.674122 -0.237321
vn 0.190577 0.862993 -0.467893
vn -0.237224 0.885185 -0.400215
vn 0.898895 0.392945 -0.193858
vn -0.977565 -0.143719 0.153986
vn -0.856031 -0.447745 0.258333
vn 0.334773 -0.877636 0.343048
vn 0.705926 -0.657627 0.263051
vn -0.850493 -0.51236 0.118948
vn -0.986332 0.113355 -0.119583
vn -0.442355 -0.852974 0.277053
vn -0.0719998 -0.938795 0.336869
vn 0.747349 0.653241 -0.121433
vn 0.97596 -0.125937 0.177882
vn -0.450337 0.809226 -0.377293
vn 0.195502 0.938349 -0.285095
vn -0.710358 -0.69909 0.0816371
vn -0.234281 -0.937206 0.258372
vn 0.791168 -0.50089 0.350944
vn -0.0910074 0.956252 -0.27803
vn 0.551029 0.832065 -0.0635253
vn 0.942522 0.271908 0.19421
vn -0.283655 -0.941841 0.180207
vn 0.547365 -0.762004 0.346037
vn 0.28035 -0.903638 0.323794
vn -0.119494 -0.135814 -0.983502
vn -0.414262 0.905378 -0.0931523
vn 0.106889 0.803522 -0.5856
vn 0.408053 0.434872 -0.802733
vn 0.147353 -0.699184 -0.699592
vn 0.594106 0.351181 -0.723678
vn 0.572473 -0.428927 -0.698782
vn 0.142331 -0.986143 0.0852267
vn -0.837502 0.543031 0.0608943
vn 0.0408605 -0.980857 0.190396
vn 0.972624 0.0716471 -0.221062
vn -0.636918 0.76716 -0.0761637
vn 0.149169 0.924525 -0.350716
vn 0.794083 0.481226 -0.371285
vn 0.92627 -0.3521 -0.134347
vn 0.824894 -0.561654 -0.0639952
vn -0.973572 0.136255 0.183281
vn -0.803538 0.476409 -0.356876
vn -0.967686 0.107778 -0.227965
vn 0.0370702 -0.991204 0.127043
vn 0.895246 -0.345202 0.281727
vn 0.901093 -0.415654 -0.123542
vn 0.660312 -0.721768 0.207459
vn 0.22297 0.86948 -0.440782
vn 0.41063 0.79082 -0.453857
vn 0.980979 0.0201507 -0.193067
vn -0.0971513 0.904891 -0.414408
vn 0.72795 0.598068 -0.335267
vn 0.529166 0.792535 -0.303104
vn -0.993018 0.117557 -0.00975095
vn -0.748409 0.62433 -0.22382
vn -0.1764 -0.897967 0.403162
vn 0.994371 -0.0881657 -0.0587691
vn -0.986332 0.113355 -0.119583
vn -0.803183 0.539019 -0.253684
vn -0.532169 0.766971 -0.358542
vn 0.693214 -0.647879 0.315764
g grp1
usemtl mtl1
f 1//1 59//59 2//2 
f 3//3 5//5 1//1 
f 1//1 2//2 3//3 
f 2//2 7//7 3//3 
f 2//2 6//6 7//7 
f 5//5 61//61 60//60 
f 60//60 1//1 5//5 
f 72//72 61//61 5//5 
f 6//6 2//2 4//4 
f 4//4 66//66 6//6 
f 67//67 72//72 5//5 
f 3//3 67//67 5//5 
f 6//6 68//68 7//7 
f 6//6 66//66 68//68 
f 74//74 67//67 69//69 
f 69//69 67//67 3//3 
f 3//3 7//7 69//69 
f 7//7 70//70 69//69 
f 68//68 70//70 7//7 
f 69//69 70//70 75//75 
f 8//8 14//14 9//9 
f 14//14 16//16 9//9 
f 15//15 21//21 8//8 
f 10//10 15//15 8//8 
f 8//8 9//9 10//10 
f 9//9 11//11 10//10 
f 9//9 12//12 11//11 
f 16//16 31//31 12//12 
f 9//9 16//16 12//12 
f 17//17 15//15 10//10 
f 38//38 17//17 10//10 
f 10//10 11//11 38//38 
f 11//11 13//13 38//38 
f 12//12 13//13 11//11 
f 38//38 13//13 37//37 
f 8//8 19//19 14//14 
f 19//19 8//8 21//21 
f 158//158 21//21 15//15 
f 12//12 31//31 18//18 
f 13//13 12//12 37//37 
f 12//12 18//18 37//37 
f 19//19 23//23 14//14 
f 14//14 23//23 157//157 
f 157//157 23//23 20//20 
f 32//32 16//16 161//161 
f 22//22 21//21 158//158 
f 34//34 39//39 18//18 
f 22//22 158//158 100//100 
f 37//37 18//18 39//39 
f 159//159 21//21 24//24 
f 162//162 160//160 24//24 
f 24//24 21//21 29//29 
f 29//29 21//21 22//22 
f 36//36 25//25 34//34 
f 25//25 39//39 34//34 
f 95//95 22//22 100//100 
f 25//25 41//41 39//39 
f 24//24 26//26 162//162 
f 27//27 35//35 163//163 
f 29//29 26//26 24//24 
f 36//36 35//35 28//28 
f 28//28 30//30 36//36 
f 30//30 25//25 36//36 
f 29//29 22//22 95//95 
f 30//30 41//41 25//25 
f 27//27 162//162 26//26 
f 26//26 43//43 27//27 
f 27//27 43//43 28//28 
f 35//35 27//27 28//28 
f 46//46 26//26 29//29 
f 43//43 26//26 46//46 
f 30//30 28//28 43//43 
f 16//16 32//32 31//31 
f 31//31 32//32 33//33 
f 34//34 18//18 31//31 
f 34//34 31//31 33//33 
f 161//161 163//163 35//35 
f 32//32 161//161 35//35 
f 35//35 36//36 32//32 
f 36//36 33//33 32//32 
f 36//36 34//34 33//33 
f 38//38 37//37 40//40 
f 17//17 38//38 165//165 
f 37//37 39//39 40//40 
f 41//41 42//42 39//39 
f 42//42 40//40 39//39 
f 46//46 29//29 95//95 
f 44//44 30//30 43//43 
f 30//30 44//44 41//41 
f 44//44 45//45 41//41 
f 45//45 42//42 41//41 
f 43//43 47//47 44//44 
f 44//44 47//47 45//45 
f 165//165 38//38 50//50 
f 40//40 48//48 38//38 
f 38//38 48//48 50//50 
f 42//42 49//49 40//40 
f 48//48 40//40 49//49 
f 102//102 48//48 49//49 
f 45//45 164//164 42//42 
f 164//164 97//97 166//166 
f 104//104 165//165 50//50 
f 48//48 101//101 50//50 
f 48//48 102//102 101//101 
f 104//104 50//50 113//113 
f 113//113 50//50 101//101 
f 55//55 116//116 51//51 
f 51//51 54//54 55//55 
f 54//54 51//51 56//56 
f 53//53 63//63 56//56 
f 60//60 57//57 55//55 
f 61//61 62//62 57//57 
f 57//57 60//60 61//61 
f 55//55 57//57 52//52 
f 56//56 63//63 71//71 
f 58//58 52//52 57//57 
f 58//58 57//57 62//62 
f 58//58 62//62 124//124 
f 55//55 54//54 59//59 
f 60//60 59//59 1//1 
f 59//59 54//54 2//2 
f 54//54 4//4 2//2 
f 59//59 60//60 55//55 
f 56//56 4//4 54//54 
f 4//4 56//56 71//71 
f 62//62 61//61 72//72 
f 62//62 72//72 85//85 
f 124//124 62//62 85//85 
f 65//65 124//124 85//85 
f 125//125 64//64 63//63 
f 64//64 91//91 63//63 
f 87//87 65//65 85//85 
f 87//87 92//92 65//65 
f 65//65 92//92 127//127 
f 124//124 65//65 122//122 
f 64//64 177//177 91//91 
f 71//71 73//73 66//66 
f 4//4 71//71 66//66 
f 73//73 68//68 66//66 
f 67//67 74//74 72//72 
f 77//77 68//68 73//73 
f 74//74 69//69 75//75 
f 75//75 70//70 76//76 
f 68//68 77//77 70//70 
f 70//70 77//77 76//76 
f 63//63 78//78 71//71 
f 78//78 73//73 71//71 
f 79//79 73//73 78//78 
f 79//79 77//77 73//73 
f 82//82 74//74 75//75 
f 75//75 76//76 83//83 
f 83//83 76//76 80//80 
f 76//76 77//77 80//80 
f 79//79 80//80 77//77 
f 75//75 83//83 82//82 
f 86//86 78//78 63//63 
f 86//86 79//79 78//78 
f 81//81 85//85 72//72 
f 81//81 72//72 74//74 
f 81//81 74//74 82//82 
f 83//83 80//80 84//84 
f 84//84 80//80 79//79 
f 85//85 81//81 87//87 
f 86//86 84//84 79//79 
f 87//87 81//81 88//88 
f 88//88 81//81 82//82 
f 88//88 82//82 89//89 
f 89//89 82//82 83//83 
f 63//63 91//91 86//86 
f 91//91 90//90 86//86 
f 87//87 88//88 92//92 
f 90//90 84//84 86//86 
f 89//89 92//92 88//88 
f 90//90 92//92 89//89 
f 83//83 90//90 89//89 
f 90//90 83//83 84//84 
f 177//177 92//92 91//91 
f 90//90 91//91 92//92 
f 43//43 46//46 93//93 
f 47//47 43//43 93//93 
f 47//47 93//93 94//94 
f 45//45 47//47 94//94 
f 95//95 96//96 46//46 
f 94//94 97//97 45//45 
f 97//97 164//164 45//45 
f 46//46 96//96 98//98 
f 46//46 98//98 93//93 
f 93//93 98//98 99//99 
f 94//94 93//93 99//99 
f 94//94 99//99 97//97 
f 105//105 95//95 100//100 
f 95//95 103//103 96//96 
f 98//98 167//167 99//99 
f 98//98 96//96 167//167 
f 104//104 168//168 165//165 
f 103//103 95//95 106//106 
f 169//169 95//95 105//105 
f 167//167 107//107 99//99 
f 103//103 106//106 170//170 
f 102//102 108//108 101//101 
f 166//166 97//97 109//109 
f 109//109 108//108 166//166 
f 172//172 97//97 99//99 
f 168//168 104//104 130//130 
f 101//101 108//108 110//110 
f 169//169 105//105 180//180 
f 128//128 108//108 109//109 
f 99//99 171//171 172//172 
f 178//178 172//172 171//171 
f 106//106 131//131 170//170 
f 113//113 130//130 104//104 
f 111//111 110//110 108//108 
f 112//112 130//130 113//113 
f 101//101 114//114 113//113 
f 114//114 101//101 110//110 
f 128//128 111//111 108//108 
f 138//138 111//111 128//128 
f 169//169 180//180 181//181 
f 114//114 173//173 113//113 
f 114//114 110//110 111//111 
f 140//140 148//148 115//115 
f 148//148 154//154 117//117 
f 119//119 151//151 146//146 
f 119//119 146//146 174//174 
f 115//115 117//117 116//116 
f 121//121 152//152 151//151 
f 116//116 117//117 123//123 
f 115//115 148//148 117//117 
f 123//123 117//117 154//154 
f 154//154 118//118 123//123 
f 55//55 52//52 119//119 
f 119//119 116//116 55//55 
f 174//174 116//116 119//119 
f 119//119 52//52 120//120 
f 120//120 52//52 58//58 
f 123//123 51//51 116//116 
f 121//121 151//151 120//120 
f 151//151 119//119 120//120 
f 121//121 120//120 124//124 
f 124//124 122//122 121//121 
f 123//123 53//53 51//51 
f 51//51 53//53 56//56 
f 118//118 53//53 123//123 
f 120//120 58//58 124//124 
f 155//155 176//176 118//118 
f 126//126 155//155 150//150 
f 125//125 155//155 126//126 
f 118//118 176//176 53//53 
f 176//176 63//63 53//53 
f 122//122 65//65 126//126 
f 65//65 127//127 126//126 
f 177//177 64//64 126//126 
f 125//125 126//126 64//64 
f 180//180 133//133 181//181 
f 129//129 171//171 182//182 
f 178//178 171//171 129//129 
f 128//128 179//179 138//138 
f 179//179 139//139 138//138 
f 129//129 182//182 189//189 
f 114//114 111//111 137//137 
f 173//173 114//114 136//136 
f 130//130 112//112 132//132 
f 111//111 138//138 188//188 
f 183//183 133//133 180//180 
f 182//182 135//135 189//189 
f 136//136 137//137 140//140 
f 141//141 186//186 190//190 
f 137//137 142//142 140//140 
f 132//132 112//112 187//187 
f 187//187 191//191 132//132 
f 183//183 192//192 134//134 
f 134//134 133//133 183//183 
f 135//135 184//184 185//185 
f 184//184 135//135 182//182 
f 114//114 137//137 136//136 
f 138//138 143//143 188//188 
f 142//142 188//188 143//143 
f 174//174 146//146 192//192 
f 141//141 190//190 175//175 
f 148//148 140//140 142//142 
f 149//149 148//148 142//142 
f 134//134 146//146 147//147 
f 134//134 192//192 146//146 
f 143//143 149//149 142//142 
f 185//185 147//147 144//144 
f 139//139 193//193 138//138 
f 144//144 135//135 185//185 
f 135//135 144//144 145//145 
f 145//145 193//193 139//139 
f 135//135 145//145 189//189 
f 147//147 146//146 151//151 
f 153//153 145//145 144//144 
f 148//148 149//149 154//154 
f 143//143 156//156 154//154 
f 154//154 149//149 143//143 
f 150//150 156//156 193//193 
f 145//145 150//150 193//193 
f 145//145 153//153 150//150 
f 152//152 121//121 122//122 
f 152//152 147//147 151//151 
f 152//152 144//144 147//147 
f 153//153 144//144 152//152 
f 122//122 153//153 152//152 
f 156//156 118//118 154//154 
f 156//156 155//155 118//118 
f 156//156 150//150 155//155 
f 122//122 126//126 153//153 
f 153//153 126//126 150//150 
