v -8.08547 -97.9941 1532.78
v -8.02343 -97.7926 1532.56
v -8.27781 -97.7828 1533.34
v -8.06821 -98.1795 1533.35
v -8.13061 -97.7935 1533.74
v -8.19763 -97.5957 1532.77
v -8.12049 -97.205 1532.75
v -8.2463 -97.2157 1533.15
v -8.16238 -97.3851 1533.7
v -7.77514 -98.3706 1532.93
v -7.78404 -97.9888 1532.48
v -7.21067 -98.4954 1532.99
v -7.33197 -98.1867 1532.5
v -7.41143 -97.7938 1532.28
v -7.11337 -97.7861 1532.31
v -7.726 -98.0037 1533.98
v -7.50205 -98.4847 1533.38
v -6.39794 -98.3556 1534.15
v -6.62659 -97.801 1534.49
v -7.80102 -97.0105 1532.58
v -7.99242 -96.8825 1532.95
v -7.79795 -97.4271 1532.38
v -7.77571 -96.725 1532.96
v -7.36158 -97.3869 1532.29
v -7.32539 -96.7227 1532.77
v -7.96068 -96.8261 1533.35
v -7.71079 -97.4132 1534.11
v -7.68648 -96.8575 1533.77
v -7.33414 -96.59 1533.36
v -6.52816 -97.4091 1534.54
v -6.12809 -98.3484 1532.93
v -5.86388 -97.9782 1532.7
v -5.41714 -97.7909 1534.68
v -5.26913 -98.5097 1533.73
v -5.82741 -97.2115 1532.67
v -4.90669 -97.2094 1532.67
v -6.41753 -97.0167 1534.41
v -5.98788 -96.5613 1533.34
v -5.58205 -96.5752 1534.13
v -4.82459 -96.3406 1533.69
v -5.03632 -97.1949 1534.72
v -4.4821 -97.8084 1532.71
v -3.37996 -98.1222 1532.93
v -4.71005 -98.2449 1534.32
v -4.33723 -98.3562 1533.31
v -3.41137 -98.2806 1533.54
v -4.74407 -96.6124 1532.97
v -3.76943 -97.5964 1532.52
v -3.80016 -97.0008 1532.45
v -3.39769 -96.3918 1532.54
v -3.81751 -97.4079 1534.67
v -3.65636 -96.8091 1534.56
v -2.45181 -97.8816 1532.36
v -1.82518 -97.7653 1531.79
v -3.08734 -97.7802 1534.32
v -3.01044 -98.0837 1533.94
v -2.2092 -98.0237 1533.36
v -2.00639 -97.7382 1533.74
v -1.64818 -96.4088 1529.77
v -2.13482 -96.8259 1531.11
v -2.09699 -96.3994 1531.13
v -1.90539 -96.6133 1530.19
v -1.79205 -96.1842 1530.2
v -1.81742 -97.3868 1530.98
v -1.74541 -97.1977 1530.2
v -2.97506 -97.3826 1532.14
v -3.11093 -96.7933 1532.15
v -2.4409 -96.8018 1531.58
v -2.56834 -96.2078 1532.02
v -2.36433 -97.208 1531.6
v -3.18825 -97.002 1534.55
v -3.25852 -96.2873 1534.12
v -2.81701 -96.6163 1534.33
v -2.4341 -97.1863 1534.29
v -2.36807 -96.2171 1533.93
v -2.01996 -97.4059 1534.02
v -1.82758 -96.6078 1533.95
v -2.87202 -95.9568 1532.75
v -1.75315 -95.6418 1532.15
v -2.01647 -95.7912 1533.12
v -1.1661 -97.6471 1530.33
v -1.05158 -97.7823 1531.16
v -0.44681 -97.6561 1530.45
v -1.63981 -97.9363 1532.5
v -0.58925 -97.66 1531.75
v -1.38803 -97.7356 1533.1
v -1.58337 -96.9584 1529.73
v -1.36882 -97.1814 1529.68
v -0.998568 -96.4286 1529.37
v -0.780907 -97.1805 1529.5
v -0.415686 -97.4258 1529.8
v -0.206167 -97.1861 1529.67
v -0.216276 -96.6254 1529.44
v -0.224502 -96.1896 1529.51
v -1.54746 -97.5952 1530.94
v -0.621556 -97.4018 1532.59
v -0.483986 -97.0078 1532.75
v -0.443706 -96.6165 1532.78
v -0.408088 -96.2233 1532.6
v -0.134085 -97.1857 1531.96
v -0.13492 -96.6073 1532.32
v -0.0913927 -96.2094 1532.12
v -1.59274 -97.3851 1533.73
v -1.61192 -97.0071 1533.87
v -1.43754 -96.2047 1533.51
v -1.18119 -97.3978 1533.33
v -1.16176 -97.0015 1533.51
v -1.17433 -96.5844 1533.51
v -1.38036 -96.0133 1529.72
v -0.963918 -95.8257 1529.65
v -1.62422 -95.7316 1531.17
v -1.16649 -95.5204 1530.37
v -0.615543 -95.4082 1530.98
v -0.399628 -95.5696 1529.97
v -0.407987 -95.4184 1530.38
v -0.206945 -95.5257 1530.98
v -1.21028 -95.4976 1531.57
v -0.825459 -95.9267 1532.77
v -0.619902 -95.6665 1532.11
v -0.227034 -95.9953 1532.15
v -0.14675 -95.8008 1531.71
v 0.0711482 -96.9763 1529.78
v 0.177305 -96.4158 1529.77
v -0.0158346 -97.4196 1530.58
v -0.0152739 -97.3532 1530.14
v 0.14235 -97.1864 1530.98
v 0.257464 -97.0064 1530.19
v 0.363024 -96.5841 1530.15
v 0.263422 -96.3965 1531.37
v 0.400464 -96.6137 1530.6
v 0.189481 -96.8013 1531.53
v 0.17161 -96.0125 1529.97
v 0.145895 -96.008 1531.38
v 0.12697 -95.7993 1530.96
v -0.00492694 -95.6162 1530.37
v 0.313025 -96.0278 1530.58
v -5.82741 -97.2115 1532.67
v -4.90669 -97.2094 1532.67
v -1.36882 -97.1814 1529.68
v -0.963918 -95.8257 1529.65
v -0.399628 -95.5696 1529.97
vn -0.786387 -0.48858 -0.378001
vn -0.683009 -0.212666 -0.698764
vn -0.979695 -0.191693 0.0587474
vn -0.708231 -0.682979 0.178743
vn -0.775102 -0.26016 0.575789
vn -0.8987 -0.0211455 -0.438054
vn -0.780348 0.353421 -0.515898
vn -0.944061 0.326983 -0.0427782
vn -0.831889 0.277869 0.480363
vn -0.417442 -0.843229 -0.338684
vn -0.42626 -0.474836 -0.769956
vn -0.0177513 -0.948594 -0.315998
vn -0.0084074 -0.671212 -0.741218
vn -0.125481 -0.232092 -0.964566
vn 0.18314 -0.194199 -0.963715
vn -0.446744 -0.548701 0.706645
vn -0.255527 -0.94412 0.208191
vn -0.124302 -0.780801 0.61229
vn -0.260549 -0.298466 0.918168
vn -0.391869 0.597707 -0.699418
vn -0.697507 0.65934 -0.280633
vn -0.494892 0.100615 -0.86311
vn -0.374395 0.887392 -0.269004
vn -0.00140414 0.301013 -0.953619
vn -0.0106525 0.816159 -0.577729
vn -0.634618 0.751273 0.181241
vn -0.480141 0.143483 0.865377
vn -0.411066 0.709518 0.572371
vn -0.178251 0.981945 0.0633298
vn -0.225435 0.124286 0.966298
vn 0.120921 -0.735734 -0.666389
vn 0.158972 -0.374307 -0.913576
vn -0.0501353 -0.324591 0.944525
vn 0.0489231 -0.993385 0.10389
vn 0.135283 -0.0192636 -0.99062
vn -0.122398 -0.138181 -0.982815
vn -0.227849 0.539191 0.810776
vn -0.0588443 0.945835 -0.31927
vn -0.13356 0.861035 0.490694
vn -0.185543 0.982612 0.00691486
vn -0.0644476 0.302572 0.950945
vn -0.00981599 -0.453619 -0.891142
vn -0.0274836 -0.854542 -0.518654
vn 0.115671 -0.781844 0.612651
vn 0.081659 -0.907886 -0.411187
vn 0.153058 -0.987556 0.036142
vn -0.226813 0.673195 -0.703821
vn -0.217242 -0.411859 -0.884974
vn -0.349451 0.164994 -0.922313
vn -0.438804 0.531525 -0.724522
vn 0.152017 -0.181862 0.971502
vn 0.0359825 0.450586 0.892008
vn -0.184872 -0.809968 -0.556574
vn -0.369848 -0.842339 -0.392017
vn 0.305378 -0.540994 0.783626
vn 0.272293 -0.849668 0.451576
vn 0.324155 -0.911886 0.251769
vn 0.448924 -0.688234 0.569914
vn -0.731923 0.182268 -0.656557
vn -0.896705 -0.170282 -0.408564
vn -0.881176 0.298174 -0.366908
vn -0.930244 0.00253842 -0.366932
vn -0.808271 0.500586 -0.310019
vn -0.716276 -0.604026 -0.349429
vn -0.747563 -0.567245 -0.345518
vn -0.464756 -0.356348 -0.810566
vn -0.547585 0.197903 -0.81301
vn -0.754704 0.0339831 -0.655185
vn -0.628037 0.572614 -0.526957
vn -0.680124 -0.412635 -0.605941
vn 0.228337 0.132861 0.964474
vn -0.0167971 0.811179 0.584556
vn 0.237786 0.416969 0.877266
vn 0.379682 -0.0853284 0.921174
vn 0.215269 0.686887 0.694151
vn 0.464732 -0.389429 0.795216
vn 0.430196 0.29316 0.853808
vn -0.347804 0.882556 -0.31643
vn -0.365187 0.924368 -0.110378
vn 0.0148274 0.950927 0.309058
vn -0.238006 -0.906728 -0.348134
vn -0.112058 -0.981178 -0.157267
vn 0.272896 -0.953291 -0.129472
vn 0.138743 -0.986915 -0.0821521
vn 0.522522 -0.837262 0.161131
vn 0.473945 -0.816919 0.328664
vn -0.697813 -0.219351 -0.681866
vn -0.464808 -0.734571 -0.494327
vn -0.24373 0.0873142 -0.965905
vn -0.00825818 -0.547206 -0.836957
vn 0.223544 -0.836352 -0.500543
vn 0.457088 -0.540867 -0.706069
vn 0.396107 -0.120554 -0.910256
vn 0.355618 0.4042 -0.842709
vn -0.470332 -0.845821 -0.251744
vn 0.661869 -0.636453 0.396052
vn 0.779726 -0.297069 0.551161
vn 0.767524 0.0449058 0.639445
vn 0.727635 0.345402 0.592659
vn 0.799818 -0.494721 0.339917
vn 0.876901 -0.0284392 0.479828
vn 0.847849 0.286955 0.44588
vn 0.57234 -0.407349 0.711683
vn 0.548151 -0.0767754 0.832848
vn 0.403825 0.611843 0.680128
vn 0.630505 -0.522103 0.574345
vn 0.679586 -0.164144 0.714996
vn 0.621492 0.243896 0.744488
vn -0.562168 0.547691 -0.619679
vn -0.0503783 0.499065 -0.865099
vn -0.618506 0.760963 -0.195924
vn -0.368783 0.897049 -0.243521
vn 0.0648337 0.993992 0.0881879
vn 0.410418 0.720209 -0.559335
vn 0.18454 0.974314 -0.129062
vn 0.460599 0.874018 0.154728
vn -0.174637 0.982616 0.0629881
vn 0.490579 0.665248 0.56283
vn 0.326057 0.88703 0.3269
vn 0.687324 0.569292 0.451102
vn 0.644444 0.6951 0.318634
vn 0.749211 -0.348733 -0.563088
vn 0.767174 0.0766099 -0.636848
vn 0.666931 -0.745119 -0.000975528
vn 0.621167 -0.717769 -0.314577
vn 0.830025 -0.541327 0.134253
vn 0.881331 -0.444271 -0.16087
vn 0.958625 -0.0163032 -0.284203
vn 0.952261 0.116517 0.282175
vn 0.989608 -0.1302 0.0610302
vn 0.929868 -0.23309 0.284629
vn 0.764298 0.467855 -0.443802
vn 0.853352 0.42999 0.294785
vn 0.747441 0.644684 0.160355
vn 0.632316 0.761888 -0.140364
vn 0.934687 0.355408 0.00670533
vn 0.035433 0.623061 -0.78137
vn -0.128856 0.473701 -0.871208
vn -0.340947 -0.212992 -0.915636
vn -0.300532 0.844521 -0.443243
vn -0.142502 0.912624 -0.383159
g grp1
usemtl mtl1
f 1//1 10//10 4//4 
f 1//1 4//4 3//3 
f 6//6 2//2 1//1 
f 1//1 3//3 6//6 
f 4//4 5//5 3//3 
f 8//8 7//7 6//6 
f 22//22 2//2 6//6 
f 6//6 7//7 22//22 
f 21//21 7//7 8//8 
f 20//20 7//7 21//21 
f 21//21 8//8 26//26 
f 3//3 8//8 6//6 
f 3//3 9//9 8//8 
f 3//3 5//5 9//9 
f 10//10 1//1 11//11 
f 11//11 1//1 2//2 
f 11//11 2//2 22//22 
f 13//13 10//10 11//11 
f 14//14 11//11 22//22 
f 14//14 22//22 24//24 
f 10//10 13//13 12//12 
f 13//13 11//11 14//14 
f 15//15 13//13 14//14 
f 15//15 14//14 24//24 
f 12//12 13//13 31//31 
f 31//31 45//45 12//12 
f 45//45 34//34 12//12 
f 4//4 10//10 17//17 
f 16//16 4//4 17//17 
f 16//16 5//5 4//4 
f 16//16 27//27 5//5 
f 5//5 27//27 9//9 
f 12//12 17//17 10//10 
f 16//16 19//19 27//27 
f 12//12 34//34 17//17 
f 30//30 27//27 19//19 
f 34//34 18//18 17//17 
f 17//17 18//18 16//16 
f 19//19 16//16 18//18 
f 22//22 7//7 20//20 
f 23//23 20//20 21//21 
f 26//26 23//23 21//21 
f 24//24 22//22 20//20 
f 29//29 23//23 26//26 
f 20//20 25//25 24//24 
f 25//25 20//20 23//23 
f 23//23 29//29 25//25 
f 15//15 24//24 35//35 
f 137//137 24//24 25//25 
f 38//38 137//137 25//25 
f 9//9 26//26 8//8 
f 9//9 27//27 28//28 
f 26//26 9//9 28//28 
f 26//26 28//28 29//29 
f 37//37 27//27 30//30 
f 29//29 28//28 39//39 
f 37//37 28//28 27//27 
f 29//29 39//39 38//38 
f 38//38 25//25 29//29 
f 28//28 37//37 39//39 
f 13//13 32//32 31//31 
f 13//13 15//15 32//32 
f 31//31 42//42 45//45 
f 31//31 32//32 42//42 
f 35//35 32//32 15//15 
f 32//32 35//35 42//42 
f 36//36 42//42 35//35 
f 34//34 44//44 18//18 
f 19//19 18//18 33//33 
f 44//44 33//33 18//18 
f 41//41 33//33 51//51 
f 138//138 137//137 47//47 
f 138//138 47//47 49//49 
f 33//33 30//30 19//19 
f 41//41 37//37 30//30 
f 47//47 137//137 38//38 
f 47//47 38//38 40//40 
f 39//39 37//37 41//41 
f 38//38 39//39 40//40 
f 33//33 41//41 30//30 
f 45//45 42//42 43//43 
f 42//42 48//48 43//43 
f 33//33 44//44 51//51 
f 43//43 46//46 45//45 
f 46//46 34//34 45//45 
f 34//34 46//46 44//44 
f 44//44 55//55 51//51 
f 44//44 56//56 55//55 
f 56//56 44//44 46//46 
f 50//50 49//49 47//47 
f 78//78 50//50 47//47 
f 48//48 42//42 36//36 
f 49//49 48//48 36//36 
f 50//50 67//67 49//49 
f 48//48 49//49 66//66 
f 50//50 78//78 69//69 
f 80//80 40//40 72//72 
f 40//40 39//39 72//72 
f 47//47 40//40 78//78 
f 78//78 40//40 80//80 
f 52//52 72//72 39//39 
f 73//73 72//72 52//52 
f 79//79 78//78 80//80 
f 71//71 52//52 51//51 
f 52//52 71//71 73//73 
f 52//52 39//39 41//41 
f 51//51 52//52 41//41 
f 53//53 48//48 66//66 
f 43//43 48//48 53//53 
f 66//66 54//54 53//53 
f 84//84 46//46 43//43 
f 43//43 53//53 84//84 
f 57//57 46//46 84//84 
f 53//53 54//54 84//84 
f 46//46 57//57 56//56 
f 58//58 56//56 57//57 
f 56//56 58//58 55//55 
f 86//86 58//58 57//57 
f 59//59 89//89 87//87 
f 59//59 87//87 62//62 
f 68//68 60//60 70//70 
f 61//61 60//60 68//68 
f 68//68 69//69 61//61 
f 65//65 64//64 60//60 
f 65//65 60//60 62//62 
f 60//60 61//61 62//62 
f 62//62 61//61 63//63 
f 65//65 95//95 64//64 
f 54//54 64//64 95//95 
f 62//62 87//87 65//65 
f 62//62 63//63 59//59 
f 111//111 63//63 61//61 
f 67//67 66//66 49//49 
f 66//66 68//68 70//70 
f 67//67 68//68 66//66 
f 67//67 50//50 69//69 
f 70//70 64//64 54//54 
f 66//66 70//70 54//54 
f 68//68 67//67 69//69 
f 64//64 70//70 60//60 
f 74//74 71//71 51//51 
f 74//74 73//73 71//71 
f 51//51 55//55 74//74 
f 80//80 72//72 75//75 
f 75//75 72//72 73//73 
f 55//55 76//76 74//74 
f 55//55 58//58 76//76 
f 74//74 77//77 73//73 
f 75//75 73//73 77//77 
f 104//104 77//77 74//74 
f 105//105 75//75 77//77 
f 76//76 58//58 103//103 
f 104//104 76//76 103//103 
f 76//76 104//104 74//74 
f 111//111 61//61 69//69 
f 112//112 63//63 111//111 
f 69//69 78//78 79//79 
f 111//111 69//69 79//79 
f 117//117 79//79 80//80 
f 88//88 90//90 81//81 
f 90//90 91//91 81//81 
f 65//65 81//81 95//95 
f 54//54 95//95 82//82 
f 82//82 84//84 54//54 
f 81//81 82//82 95//95 
f 84//84 82//82 83//83 
f 81//81 83//83 82//82 
f 85//85 83//83 124//124 
f 84//84 86//86 57//57 
f 85//85 86//86 84//84 
f 83//83 85//85 84//84 
f 65//65 87//87 88//88 
f 89//89 90//90 139//139 
f 87//87 89//89 139//139 
f 59//59 63//63 109//109 
f 93//93 90//90 89//89 
f 90//90 92//92 91//91 
f 93//93 92//92 90//90 
f 91//91 83//83 81//81 
f 91//91 125//125 83//83 
f 91//91 92//92 125//125 
f 89//89 94//94 93//93 
f 110//110 94//94 89//89 
f 92//92 122//122 125//125 
f 93//93 122//122 92//92 
f 93//93 94//94 123//123 
f 81//81 65//65 88//88 
f 83//83 125//125 124//124 
f 85//85 124//124 126//126 
f 100//100 85//85 126//126 
f 97//97 106//106 96//96 
f 108//108 118//118 105//105 
f 85//85 96//96 86//86 
f 106//106 97//97 107//107 
f 96//96 85//85 100//100 
f 107//107 97//97 98//98 
f 107//107 98//98 108//108 
f 99//99 98//98 101//101 
f 98//98 99//99 108//108 
f 99//99 118//118 108//108 
f 100//100 97//97 96//96 
f 101//101 102//102 99//99 
f 120//120 99//99 102//102 
f 101//101 97//97 100//100 
f 97//97 101//101 98//98 
f 133//133 120//120 102//102 
f 77//77 104//104 108//108 
f 108//108 105//105 77//77 
f 86//86 106//106 58//58 
f 96//96 106//106 86//86 
f 106//106 103//103 58//58 
f 104//104 103//103 107//107 
f 103//103 106//106 107//107 
f 104//104 107//107 108//108 
f 109//109 63//63 112//112 
f 89//89 109//109 110//110 
f 89//89 59//59 109//109 
f 109//109 112//112 140//140 
f 94//94 110//110 114//114 
f 112//112 111//111 117//117 
f 140//140 112//112 141//141 
f 112//112 115//115 141//141 
f 117//117 119//119 113//113 
f 112//112 117//117 113//113 
f 115//115 113//113 116//116 
f 116//116 113//113 119//119 
f 113//113 115//115 112//112 
f 135//135 114//114 115//115 
f 134//134 116//116 121//121 
f 135//135 115//115 116//116 
f 119//119 121//121 116//116 
f 111//111 79//79 117//117 
f 118//118 80//80 105//105 
f 80//80 119//119 117//117 
f 80//80 118//118 119//119 
f 118//118 120//120 119//119 
f 120//120 118//118 99//99 
f 120//120 121//121 119//119 
f 133//133 121//121 120//120 
f 105//105 80//80 75//75 
f 128//128 127//127 122//122 
f 122//122 93//93 123//123 
f 122//122 123//123 128//128 
f 123//123 132//132 128//128 
f 123//123 94//94 132//132 
f 127//127 124//124 125//125 
f 126//126 124//124 127//127 
f 125//125 122//122 127//127 
f 127//127 130//130 126//126 
f 130//130 131//131 126//126 
f 126//126 131//131 100//100 
f 127//127 128//128 130//130 
f 131//131 130//130 129//129 
f 136//136 129//129 130//130 
f 128//128 136//136 130//130 
f 136//136 133//133 129//129 
f 136//136 134//134 133//133 
f 101//101 100//100 131//131 
f 131//131 129//129 101//101 
f 101//101 129//129 102//102 
f 133//133 102//102 129//129 
f 94//94 114//114 132//132 
f 135//135 132//132 114//114 
f 132//132 135//135 136//136 
f 132//132 136//136 128//128 
f 136//136 135//135 134//134 
f 135//135 116//116 134//134 
f 134//134 121//121 133//133 
