v -3.20292 -87.2185 1561.83
v -3.37389 -87.7022 1562.61
v -3.28003 -88.0671 1562.73
v -3.45804 -88.3186 1563.35
v -3.37541 -88.1193 1563.63
v -3.50349 -88.4884 1563.99
v -3.38758 -88.7159 1564.74
v -3.47468 -88.7975 1564.31
v -3.28695 -88.9148 1564.26
v -3.42089 -88.9785 1564.96
v -3.32105 -89.2016 1565.15
v -3.16986 -89.2172 1565.85
v -3.16022 -87.1235 1561.92
v -3.09846 -87.0857 1561.8
v -3.08805 -87.0589 1561.9
v -3.10517 -87.1189 1562.04
v -2.9102 -87.0771 1561.8
v -2.82032 -87.1102 1561.9
v -2.9124 -87.09 1562.01
v -3.18442 -87.4218 1561.86
v -3.09078 -87.2056 1561.7
v -3.00444 -87.4093 1561.73
v -2.90185 -87.2065 1561.69
v -2.91585 -87.5223 1561.88
v -2.78317 -87.1962 1561.8
v -2.77857 -87.3044 1561.8
v -2.76119 -87.2255 1561.92
v -2.78991 -87.436 1561.96
v -2.8003 -87.239 1562.06
v -3.09843 -87.5806 1562.78
v -2.91315 -87.7959 1562.61
v -2.97075 -87.715 1562.81
v -3.08977 -88.1549 1562.89
v -3.01852 -88.225 1563.46
v -3.1 -88.1 1563.55
v -3.08047 -88.5 1563.6
v -3.08179 -88.7458 1564.97
v -3.1 -89.1586 1564.8
v -2.95723 -89.5246 1565.76
v -2.9 -89.1648 1566.1
v -2.75372 -89.2962 1565.76
v -2.55632 -89.6021 1566.34
v -2.67937 -89.413 1566.82
v -2.54609 -89.4 1566.4
v -2.46717 -89.4405 1566.96
v -2.65801 -89.7906 1567
v -2.34955 -89.7893 1567.67
v -2.29637 -90.0157 1567.4
v -2.19071 -89.5995 1567.2
v -2.10315 -89.7981 1567.24
v -2.12742 -90.0198 1567.43
v -1.7511 -90.1132 1567.96
v -2.01657 -89.7414 1567.97
v -1.84815 -90.284 1568.45
v -1.82953 -89.7902 1568.08
v -1.80948 -90.2705 1568.19
v -1.82554 -90.1876 1568.65
v -1.55361 -89.9912 1568.34
v -1.59888 -89.9683 1568.6
v -1.37583 -90.1961 1568.59
v -1.5 -90.5 1568.76
v -1.62017 -90.1024 1568.86
v -1.58907 -90.3192 1569.11
v -1.29106 -90.2044 1568.9
v -1.31437 -90.2772 1569.27
v -1.60453 -90.4857 1568.87
v -1.57746 -90.5029 1569.1
v -1.40663 -90.6883 1569.2
v -1.21021 -90.4204 1568.98
v -1.2 -90.7727 1569.3
v -1.39207 -90.7345 1569.68
v -1.2996 -90.5271 1569.65
v -1.30175 -90.9212 1569.63
v -1.10883 -90.4964 1569.57
v -1.09405 -90.686 1569.93
v -0.93869 -90.812 1569.91
v -0.910592 -91.0301 1569.93
v -1.09925 -91.1286 1570.51
v -1.18993 -91.5919 1570.68
v -1.17734 -91.5 1570.8
v -1.11587 -91.8805 1570.89
v -1.09424 -91.5698 1570.46
v -1.0054 -91.9176 1570.85
v -0.910828 -91.637 1570.54
v -0.814928 -91.3239 1570.52
v -0.90989 -91.2959 1570.7
v -1.00171 -92.3039 1571.86
v -1.10703 -92.5 1572
v -1.14021 -92.7446 1571.95
v -1.12922 -93.3763 1572.58
v -1.16038 -93.2629 1572.66
v -1.09531 -93.1482 1572.7
v -1.09381 -93.4407 1572.7
v -1.00536 -93.288 1572.35
v -1.00113 -93.4862 1572.6
v -0.999943 -93.4952 1572.7
v -0.815431 -93.3057 1572.5
v -0.90451 -93.4036 1572.52
v -0.808971 -93.3898 1572.7
v -0.903192 -93.4762 1572.7
v -1.09262 -93.3005 1572.8
v -1.0033 -93.1728 1572.79
v -0.99235 -93.2997 1572.85
v -0.999726 -93.4311 1572.79
v -0.900481 -93.142 1572.73
v -0.851829 -93.3008 1572.79
v -0.901922 -93.3968 1572.81
v -0.793614 -91.9623 1571.36
v -0.765737 -92.1268 1571.32
v -0.779669 -93.2507 1572.55
v -0.7852 -93.2207 1572.62
v -3.20292 -87.2185 1561.83
v -3.37389 -87.7022 1562.61
v -3.28003 -88.0671 1562.73
v -3.45804 -88.3186 1563.35
v -3.45804 -88.3186 1563.35
v -3.37541 -88.1193 1563.63
v -3.47468 -88.7975 1564.31
v -3.09846 -87.0857 1561.8
v -3.09846 -87.0857 1561.8
v -3.08805 -87.0589 1561.9
v -3.10517 -87.1189 1562.04
v -2.9102 -87.0771 1561.8
v -2.9102 -87.0771 1561.8
v -2.82032 -87.1102 1561.9
v -2.9124 -87.09 1562.01
v -3.09078 -87.2056 1561.7
v -3.09078 -87.2056 1561.7
v -3.09078 -87.2056 1561.7
v -3.00444 -87.4093 1561.73
v -3.00444 -87.4093 1561.73
v -2.90185 -87.2065 1561.69
v -2.90185 -87.2065 1561.69
v -2.90185 -87.2065 1561.69
v -2.91585 -87.5223 1561.88
v -2.78317 -87.1962 1561.8
v -2.77857 -87.3044 1561.8
v -3.09843 -87.5806 1562.78
v -3.09843 -87.5806 1562.78
v -3.08047 -88.5 1563.6
v -3.08179 -88.7458 1564.97
v -3.08179 -88.7458 1564.97
v -3.08179 -88.7458 1564.97
v -3.1 -89.1586 1564.8
v -3.1 -89.1586 1564.8
v -3.1 -89.1586 1564.8
v -2.95723 -89.5246 1565.76
v -2.95723 -89.5246 1565.76
v -2.9 -89.1648 1566.1
v -2.75372 -89.2962 1565.76
v -2.75372 -89.2962 1565.76
v -2.75372 -89.2962 1565.76
v -2.55632 -89.6021 1566.34
v -2.54609 -89.4 1566.4
v -2.19071 -89.5995 1567.2
v -2.10315 -89.7981 1567.24
v -1.84815 -90.284 1568.45
v -1.82554 -90.1876 1568.65
v -1.59888 -89.9683 1568.6
v -1.5 -90.5 1568.76
v -1.58907 -90.3192 1569.11
v -1.31437 -90.2772 1569.27
v -1.21021 -90.4204 1568.98
v -1.2 -90.7727 1569.3
v -1.39207 -90.7345 1569.68
v -1.10883 -90.4964 1569.57
v -1.10883 -90.4964 1569.57
v -1.10883 -90.4964 1569.57
v -1.09405 -90.686 1569.93
v -0.93869 -90.812 1569.91
v -1.17734 -91.5 1570.8
v -0.90989 -91.2959 1570.7
v -1.00171 -92.3039 1571.86
v -1.10703 -92.5 1572
v -1.14021 -92.7446 1571.95
v -1.12922 -93.3763 1572.58
v -1.09381 -93.4407 1572.7
v -1.00113 -93.4862 1572.6
v -0.999943 -93.4952 1572.7
v -0.999943 -93.4952 1572.7
v -0.999943 -93.4952 1572.7
v -0.903192 -93.4762 1572.7
v -1.09262 -93.3005 1572.8
v -1.0033 -93.1728 1572.79
v -0.99235 -93.2997 1572.85
v -0.999726 -93.4311 1572.79
v -0.851829 -93.3008 1572.79
v -0.901922 -93.3968 1572.81
vn -0.835134 0.484069 -0.261206
vn -0.812654 0.539225 0.220974
vn -0.865359 -0.342594 -0.365763
vn -0.492267 -0.766778 -0.411975
vn -0.737746 0.617334 0.273185
vn -0.971625 0.209811 0.109196
vn -0.633956 0.672704 0.381535
vn -0.562155 -0.759782 -0.326669
vn -0.205711 -0.889882 -0.407177
vn -0.984705 0.00177007 0.174221
vn -0.765189 -0.64227 -0.0444463
vn -0.88079 0.254883 0.399054
vn -0.770485 0.635587 0.0488043
vn -0.741883 0.5933 -0.312417
vn -0.654767 0.753292 0.061895
vn -0.63327 0.698162 0.333973
vn -0.0315455 0.653575 -0.756204
vn 0.802406 0.591929 0.0759267
vn 0.0765302 0.960338 0.268131
vn -0.744222 -0.356538 -0.564813
vn -0.699557 0.440216 -0.562877
vn -0.352163 -0.654193 -0.669337
vn -0.0341627 0.655687 -0.75426
vn -0.0308601 -0.837583 -0.545439
vn 0.819777 0.471286 -0.325354
vn 0.601567 -0.377615 -0.703934
vn 0.988207 0.136981 0.0684359
vn 0.88631 -0.430595 -0.170419
vn 0.801108 0.440244 0.405476
vn -0.5524 0.740515 0.382741
vn 0.982469 -0.173603 0.0679422
vn 0.832164 0.404046 0.379803
vn 0.481242 -0.785656 -0.38878
vn 0.99155 0.0695665 0.109494
vn 0.556979 0.708868 0.432759
vn 0.466457 -0.786937 -0.403916
vn -0.127364 0.900353 0.416105
vn 0.984843 -0.0848637 -0.151272
vn -0.44283 -0.879589 -0.173853
vn -0.354075 0.843892 0.403084
vn 0.941239 0.0907686 -0.325316
vn 0.647233 -0.581292 -0.493141
vn -0.446586 0.776973 0.443704
vn 0.587055 0.807343 -0.0597012
vn 0.184032 0.962691 0.19839
vn -0.813596 -0.546784 0.197711
vn -0.788116 0.343902 0.510495
vn -0.258276 -0.951577 -0.166717
vn 0.556675 0.830001 -0.0348115
vn 0.899764 0.174917 -0.399785
vn 0.428785 -0.780382 -0.455134
vn 0.695983 -0.475224 -0.538302
vn -0.211993 0.88825 0.407517
vn -0.513416 -0.85691 -0.045939
vn 0.400426 0.911706 0.0919318
vn -0.0741546 -0.950858 -0.300617
vn -0.894981 -0.263782 0.359761
vn 0.822821 0.51205 -0.246515
vn -0.0646712 0.91557 0.396926
vn 0.908133 0.154411 -0.389167
vn 0.487855 -0.687428 -0.537997
vn -0.476499 0.699638 0.532405
vn -0.699087 0.475893 0.53367
vn 0.777379 0.628358 -0.0291238
vn -0.0786316 0.85532 0.512099
vn -0.544579 -0.831663 -0.108488
vn -0.869886 -0.474278 0.135492
vn -0.454068 -0.84999 -0.267093
vn 0.679548 -0.496038 -0.540519
vn -0.216166 -0.858114 -0.465738
vn -0.962162 -0.255887 0.093622
vn -0.418139 0.708177 0.568898
vn -0.65682 -0.698238 -0.284696
vn 0.567059 0.800377 0.19453
vn -0.0111252 0.828044 0.560552
vn 0.666532 0.655094 0.35579
vn 0.902021 -0.24009 -0.358768
vn -0.289602 0.729407 0.619755
vn -0.905402 -0.373853 -0.201199
vn -0.650729 0.549491 0.524034
vn -0.643144 -0.587911 -0.490639
vn -0.411858 -0.740118 -0.5316
vn -0.218332 -0.735281 -0.641633
vn 0.409648 -0.682751 -0.605012
vn 0.964749 0.24705 0.0906915
vn 0.72426 0.587323 0.361247
vn -0.495227 0.637859 0.589819
vn -0.460935 0.658315 0.595113
vn -0.703664 -0.528805 -0.474576
vn -0.968236 -0.248854 -0.024296
vn -0.978464 0.00319275 0.206393
vn -0.637998 0.509417 0.577454
vn -0.764529 -0.481335 0.428733
vn -0.296525 -0.719203 -0.628347
vn -0.544777 -0.788291 -0.286034
vn -0.500412 -0.86269 -0.0731756
vn 0.759545 -0.544397 -0.355983
vn 0.418288 -0.752937 -0.508056
vn 0.899236 -0.393441 0.191256
vn 0.499316 -0.823718 -0.268647
vn -0.593911 0.389381 0.704025
vn -0.427613 0.509973 0.746375
vn -0.35766 0.371422 0.856811
vn -0.368303 -0.508872 0.778076
vn 0.471642 0.548611 0.690348
vn 0.856881 0.0599551 0.512015
vn 0.540824 -0.6177 0.570925
vn 0.776864 0.475177 0.413146
vn 0.972309 -0.16158 -0.168844
vn 0.975546 -0.202157 -0.086268
vn 0.943729 0.176639 0.279596
vn -0.865156 -0.140788 -0.481336
vn -0.900117 -0.271302 -0.340858
vn -0.175071 -0.830042 -0.52951
vn -0.854711 -0.346632 -0.386414
vn -0.992927 -0.0757934 -0.0913872
vn -0.0270119 0.875679 0.482137
vn -0.97262 -0.229968 -0.0335331
vn -0.0289279 0.651453 -0.758137
vn -0.0439274 0.964119 -0.261811
vn 0.00367521 0.998064 0.0620832
vn -0.0627506 0.886822 0.45783
vn 0.128329 0.990626 -0.0468234
vn 0.592041 0.63637 -0.494491
vn 0.285985 0.95623 0.0619392
vn 0.622397 0.618037 0.480263
vn -0.0315455 0.653575 -0.756204
vn -0.647098 -0.240147 -0.723598
vn -0.0499152 -0.1408 -0.988779
vn -0.0499152 -0.1408 -0.988779
vn 0.466781 -0.452141 -0.760055
vn 0.533495 0.575228 -0.620077
vn -0.0499152 -0.1408 -0.988779
vn 0.580645 -0.167017 -0.796842
vn 0.621999 -0.609639 -0.491383
vn 0.68308 0.0381235 -0.729348
vn 0.992281 -0.050132 -0.113427
vn 0.461089 0.708972 0.533626
vn -0.0447044 0.844459 0.533752
vn 0.965985 -0.250497 -0.0642251
vn 0.877846 0.440176 0.188762
vn 0.987921 0.0189589 -0.153797
vn 0.783402 0.613227 0.101165
vn 0.235973 -0.853519 -0.464565
vn -0.31028 -0.902574 -0.298472
vn 0.705304 -0.620856 -0.342175
vn 0.641483 -0.622075 -0.448912
vn 0.0458613 -0.951559 -0.304028
vn 0.614786 0.788659 0.00743486
vn 0.677938 -0.594441 -0.432481
vn 0.694205 0.719474 0.0208893
vn 0.951853 0.0415608 -0.303724
vn 0.926786 0.0625076 -0.370352
vn 0.922405 0.153466 -0.354425
vn 0.881452 0.320671 -0.346716
vn 0.676979 -0.528311 -0.512432
vn -0.87253 -0.393608 0.289422
vn -0.730371 0.433012 0.52826
vn 0.544384 0.834313 0.0869978
vn -0.323174 -0.906064 -0.273141
vn -0.931702 -0.0849374 0.353154
vn 0.516878 0.832896 0.197793
vn 0.947452 0.263565 -0.181296
vn 0.666796 -0.505292 -0.54778
vn -0.767232 0.410055 0.493164
vn 0.0803801 0.861675 0.501053
vn 0.931492 0.345124 -0.114942
vn 0.623519 0.702092 0.343935
vn 0.619661 0.692297 0.369789
vn 0.968045 0.199021 -0.152577
vn -0.992279 0.0258832 0.121294
vn 0.170469 0.753765 0.634649
vn 0.230439 0.722133 0.652244
vn -0.962987 0.196297 0.184726
vn -0.999146 0.0249978 0.0328923
vn -0.576771 -0.682633 -0.448717
vn -0.558123 -0.816118 -0.14983
vn 0.250297 -0.896211 -0.366274
vn -0.434493 -0.740006 0.513427
vn 0.187116 -0.978011 -0.0920944
vn 0.187394 -0.807782 0.558902
vn 0.33338 -0.774283 0.537907
vn -0.652122 -0.377652 0.657355
vn 0.230587 0.583938 0.778361
vn 0.140268 0.0216899 0.989876
vn 0.190105 -0.805894 0.560709
vn 0.352035 0.197185 0.914981
vn 0.177138 -0.212065 0.961067
g grp1
usemtl mtl1
f 13//13 14//14 1//1 
f 13//13 1//1 2//2 
f 20//20 113//113 112//112 
f 20//20 3//3 113//113 
f 2//2 5//5 30//30 
f 114//114 9//9 4//4 
f 113//113 3//3 115//115 
f 33//33 9//9 114//114 
f 2//2 116//116 6//6 
f 5//5 2//2 6//6 
f 6//6 7//7 5//5 
f 8//8 4//4 9//9 
f 6//6 116//116 118//118 
f 10//10 6//6 118//118 
f 10//10 7//7 6//6 
f 9//9 11//11 8//8 
f 118//118 11//11 10//10 
f 10//10 12//12 7//7 
f 10//10 11//11 12//12 
f 21//21 1//1 14//14 
f 13//13 15//15 14//14 
f 16//16 15//15 13//13 
f 16//16 2//2 30//30 
f 16//16 13//13 2//2 
f 119//119 17//17 127//127 
f 123//123 120//120 121//121 
f 23//23 127//127 17//17 
f 123//123 121//121 19//19 
f 19//19 121//121 122//122 
f 29//29 126//126 138//138 
f 139//139 19//19 122//122 
f 124//124 25//25 132//132 
f 18//18 25//25 124//124 
f 19//19 125//125 123//123 
f 18//18 27//27 25//25 
f 29//29 27//27 18//18 
f 126//126 29//29 18//18 
f 112//112 128//128 20//20 
f 20//20 128//128 22//22 
f 22//22 114//114 20//20 
f 129//129 133//133 130//130 
f 114//114 22//22 24//24 
f 24//24 33//33 114//114 
f 134//134 26//26 131//131 
f 26//26 135//135 131//131 
f 33//33 28//28 31//31 
f 27//27 29//29 31//31 
f 26//26 134//134 136//136 
f 28//28 135//135 26//26 
f 25//25 27//27 137//137 
f 137//137 27//27 28//28 
f 135//135 28//28 33//33 
f 28//28 27//27 31//31 
f 35//35 138//138 117//117 
f 138//138 35//35 32//32 
f 29//29 138//138 32//32 
f 29//29 32//32 31//31 
f 9//9 33//33 36//36 
f 33//33 31//31 36//36 
f 31//31 32//32 34//34 
f 117//117 7//7 37//37 
f 31//31 34//34 140//140 
f 37//37 35//35 117//117 
f 35//35 141//141 34//34 
f 140//140 34//34 38//38 
f 34//34 142//142 38//38 
f 32//32 35//35 34//34 
f 9//9 36//36 144//144 
f 145//145 39//39 9//9 
f 39//39 11//11 9//9 
f 7//7 40//40 37//37 
f 38//38 142//142 41//41 
f 146//146 150//150 147//147 
f 46//46 12//12 11//11 
f 11//11 39//39 46//46 
f 47//47 12//12 46//46 
f 40//40 7//7 12//12 
f 151//151 143//143 149//149 
f 147//147 150//150 42//42 
f 151//151 149//149 44//44 
f 12//12 47//47 43//43 
f 43//43 40//40 12//12 
f 149//149 49//49 44//44 
f 45//45 49//49 149//149 
f 40//40 43//43 45//45 
f 153//153 152//152 154//154 
f 154//154 155//155 50//50 
f 42//42 51//51 147//147 
f 48//48 46//46 39//39 
f 153//153 154//154 50//50 
f 51//51 48//48 148//148 
f 51//51 42//42 156//156 
f 43//43 53//53 45//45 
f 49//49 45//45 55//55 
f 55//55 45//45 53//53 
f 55//55 58//58 49//49 
f 43//43 47//47 53//53 
f 47//47 46//46 57//57 
f 53//53 47//47 62//62 
f 46//46 48//48 54//54 
f 158//158 62//62 47//47 
f 46//46 157//157 57//57 
f 50//50 155//155 58//58 
f 156//156 52//52 51//51 
f 52//52 56//56 51//51 
f 51//51 56//56 48//48 
f 56//56 54//54 48//48 
f 52//52 50//50 58//58 
f 55//55 53//53 59//59 
f 66//66 54//54 56//56 
f 157//157 67//67 57//57 
f 66//66 67//67 54//54 
f 52//52 61//61 56//56 
f 159//159 58//58 55//55 
f 62//62 158//158 63//63 
f 161//161 57//57 67//67 
f 59//59 53//53 62//62 
f 72//72 62//62 63//63 
f 52//52 58//58 60//60 
f 64//64 58//58 159//159 
f 58//58 64//64 60//60 
f 52//52 69//69 61//61 
f 69//69 52//52 60//60 
f 66//66 56//56 160//160 
f 59//59 62//62 65//65 
f 62//62 72//72 65//65 
f 162//162 64//64 159//159 
f 163//163 60//60 64//64 
f 64//64 162//162 74//74 
f 72//72 166//166 65//65 
f 160//160 68//68 66//66 
f 67//67 66//66 68//68 
f 67//67 71//71 161//161 
f 67//67 73//73 71//71 
f 67//67 68//68 73//73 
f 72//72 63//63 165//165 
f 68//68 160//160 70//70 
f 73//73 68//68 70//70 
f 69//69 164//164 61//61 
f 72//72 75//75 166//166 
f 167//167 163//163 64//64 
f 165//165 80//80 72//72 
f 71//71 79//79 171//171 
f 71//71 73//73 79//79 
f 72//72 80//80 78//78 
f 75//75 72//72 78//78 
f 168//168 169//169 76//76 
f 167//167 170//170 163//163 
f 69//69 77//77 164//164 
f 77//77 84//84 164//164 
f 163//163 170//170 77//77 
f 169//169 86//86 76//76 
f 73//73 70//70 82//82 
f 82//82 79//79 73//73 
f 84//84 82//82 70//70 
f 82//82 84//84 83//83 
f 77//77 170//170 85//85 
f 82//82 81//81 79//79 
f 79//79 81//81 89//89 
f 79//79 175//175 171//171 
f 81//81 94//94 89//89 
f 83//83 81//81 82//82 
f 80//80 87//87 78//78 
f 78//78 172//172 75//75 
f 173//173 172//172 78//78 
f 76//76 86//86 85//85 
f 109//109 84//84 77//77 
f 172//172 173//173 108//108 
f 81//81 83//83 94//94 
f 84//84 94//94 83//83 
f 87//87 80//80 88//88 
f 171//171 175//175 174//174 
f 175//175 91//91 174//174 
f 173//173 105//105 108//108 
f 92//92 87//87 88//88 
f 174//174 91//91 92//92 
f 111//111 108//108 105//105 
f 175//175 90//90 91//91 
f 90//90 93//93 91//91 
f 101//101 92//92 91//91 
f 91//91 93//93 183//183 
f 94//94 176//176 89//89 
f 176//176 94//94 95//95 
f 177//177 176//176 95//95 
f 95//95 96//96 177//177 
f 183//183 93//93 104//104 
f 93//93 179//179 104//104 
f 84//84 98//98 94//94 
f 98//98 178//178 94//94 
f 178//178 98//98 100//100 
f 178//178 100//100 180//180 
f 182//182 186//186 181//181 
f 84//84 97//97 98//98 
f 97//97 99//99 100//100 
f 98//98 97//97 100//100 
f 111//111 105//105 106//106 
f 106//106 107//107 99//99 
f 99//99 107//107 182//182 
f 87//87 92//92 102//102 
f 92//92 101//101 102//102 
f 102//102 101//101 103//103 
f 183//183 104//104 185//185 
f 105//105 173//173 184//184 
f 105//105 184//184 185//185 
f 185//185 104//104 188//188 
f 182//182 107//107 186//186 
f 185//185 187//187 105//105 
f 188//188 187//187 185//185 
f 109//109 77//77 85//85 
f 86//86 108//108 85//85 
f 84//84 109//109 97//97 
f 85//85 108//108 109//109 
f 109//109 108//108 111//111 
f 110//110 97//97 109//109 
f 109//109 111//111 110//110 
f 110//110 111//111 99//99 
f 97//97 110//110 99//99 
f 111//111 106//106 99//99 
