v -22.0941 -97.27 1414.66
v -22.3479 -97.2657 1415.29
v -22.1119 -97.0475 1414.8
v -22.0978 -97.2548 1415.41
v -22.7586 -97.7788 1415.43
v -22.7105 -97.6589 1415.72
v -22.4902 -97.3792 1415.17
v -22.4267 -97.4139 1414.94
v -22.5 -97.9 1415
v -22.4884 -97.5316 1415.75
v -22.3557 -97.4044 1415.55
v -22.2444 -98.2862 1415.58
v -22.2585 -97.5008 1415.68
v -22.128 -97.4086 1415.54
v -22.904 -98.1459 1416.23
v -22.8369 -98.275 1415.8
v -22.6124 -97.7599 1416.45
v -22.3634 -97.6091 1415.92
v -22.3592 -97.741 1416.31
v -22.1325 -97.6896 1415.8
v -22.1006 -97.9 1416.05
v -22.0983 -98.2493 1416.05
v -22.0869 -98.025 1416.68
v -22.6022 -98.6226 1416.77
v -22.769 -98.0222 1417.17
v -22.5504 -97.9288 1417.68
v -22.3726 -97.8302 1417.04
v -22.1447 -97.9352 1417.02
v -22.0855 -97.9094 1417.65
v -22.1933 -98.6445 1417.12
v -22.6396 -98.3881 1418.17
v -22.3671 -98.6337 1418.8
v -22.2399 -98.7326 1418.74
v -22.1711 -98.1589 1419.87
v -22.1008 -98.0253 1419.89
v -22.0576 -98.1577 1420.16
v -22.1517 -98.3991 1419.96
v -21.5642 -96.7215 1414.5
v -21.2864 -96.8204 1414.41
v -21.0906 -97.025 1414.55
v -21.7657 -97.5237 1414.68
v -21.982 -97.3018 1415.42
v -21.7395 -96.7496 1415.06
v -21.6644 -96.8459 1415.17
v -21.623 -96.569 1414.81
v -21.5327 -97.0467 1415.23
v -21.9818 -98.0297 1415.45
v -21.998 -97.5228 1415.55
v -21.9466 -97.8748 1415.55
v -21.7312 -97.7303 1415.06
v -21.7556 -97.4077 1415.36
v -21.7125 -97.5395 1415.3
v -21.5057 -97.3557 1415.17
v -21.7474 -98.1455 1418.13
v -21.6144 -98.4847 1418.6
v -21.9761 -98.0287 1420.17
v -21.888 -97.8764 1419.98
v -21.8762 -98.154 1420.32
v -21.7497 -98.0274 1420.29
v -21.7502 -98.1504 1420.36
v -21.7573 -98.2787 1420.37
v -21.678 -97.813 1419.77
v -21.6268 -97.8913 1420.15
v -21.6253 -98.1578 1420.36
v -21.5001 -98.0325 1420.25
v -21.3134 -98.0303 1419.67
v -21.4046 -97.9122 1419.87
v -21.3857 -98.2751 1420.27
v -21.2411 -98.1757 1419.72
v -21.2473 -98.147 1420.04
v -22.0036 -98.6269 1419.99
v -21.9911 -98.3919 1420.24
v -21.8657 -98.5163 1420.27
v -21.7853 -98.7668 1419.79
v -21.7398 -98.6733 1420.16
v -21.6253 -98.4009 1420.36
v -21.5189 -98.7267 1419.85
v -21.3974 -98.5203 1420.19
v -21.302 -98.5192 1419.67
v -21.241 -98.3992 1420.04
v -20.3423 -95.5243 1414.56
v -20.1631 -95.5901 1414.35
v -20.7765 -96.0692 1415
v -20.5864 -95.7285 1414.8
v -20.4329 -96.0797 1415.03
v -20.1969 -96.1173 1414.95
v -20.9996 -96.6571 1415.09
v -20.5174 -96.5598 1414.82
v -18.2688 -93.9059 1414.68
v -18.1837 -93.8353 1414.41
v -19.0167 -94.4513 1414.67
v -18.6399 -94.4148 1414.29
v -18.6501 -94.6529 1414.29
v -18.25 -94.6197 1414.43
v -18.5827 -94.3474 1414.88
v -18.9787 -94.4903 1414.8
v -18.5004 -94.5069 1414.92
v -17.0396 -93.166 1413.57
v -17.3823 -93.2056 1414.28
v -17.3636 -93.2442 1414.42
v -17.1721 -93.2789 1413.8
v -17.125 -93.0466 1413.81
v -17.121 -93.036 1414.17
v -17.1159 -93.1493 1414.35
v -17.1253 -93.2744 1414.46
v -17.9094 -93.93 1414.19
v -17.8824 -94.1584 1414.25
v -18.0134 -94.435 1414.66
v -17.7441 -93.5035 1414.54
v -17.7712 -93.6766 1414.71
v -17.739 -93.8885 1414.78
v -17.6447 -93.6634 1414.11
v -17.4965 -93.7651 1414.1
v -17.3903 -93.4111 1413.99
v -17.3187 -93.8777 1414.28
v -17.383 -93.4066 1414.58
v -17.3899 -93.5397 1414.64
v -17.2464 -93.4844 1413.93
v -17.291 -93.6797 1414.6
v -17.0901 -93.3925 1413.79
v -17.1338 -93.4083 1414.52
v -17.112 -93.6769 1414.43
v -18.019 -94.0431 1414.84
v -18.0515 -94.3047 1414.82
v -16.9352 -92.9127 1413.32
v -16.9585 -93.1456 1413.32
v -16.867 -93.0252 1413.16
v -16.8858 -93.3319 1413.55
v -16.7569 -92.9057 1413.16
v -16.7412 -93.0251 1413.12
v -16.7576 -93.1452 1413.14
v -16.637 -92.9058 1413.19
v -16.7532 -93.2681 1413.27
v -16.7564 -92.8076 1413.33
v -16.7532 -93.3567 1413.56
v -16.6309 -93.1501 1413.16
v -16.5749 -93.0254 1413.19
v -16.6296 -93.2826 1413.32
v -16.5282 -92.9172 1413.45
v -16.625 -93.3287 1413.68
v -16.5049 -93.1486 1413.33
v -17.0057 -92.917 1413.8
v -16.8646 -92.9092 1413.94
v -16.8788 -93.0331 1414.17
v -16.8887 -93.1549 1414.29
v -16.8875 -93.2824 1414.33
v -16.7502 -93.1541 1414.17
v -16.6422 -93.0259 1413.94
v -16.5941 -93.1581 1413.9
v -17.0131 -93.5358 1413.92
v -17.0012 -93.5143 1414.42
v -16.778 -93.3888 1414.17
v -16.8943 -93.5336 1414.21
v -16.7127 -93.4 1413.93
v -22.0941 -97.27 1414.66
v -22.5 -97.9 1415
v -22.5 -97.9 1415
v -22.904 -98.1459 1416.23
v -22.8369 -98.275 1415.8
v -22.8369 -98.275 1415.8
v -22.6124 -97.7599 1416.45
v -22.0983 -98.2493 1416.05
v -22.0869 -98.025 1416.68
v -22.6022 -98.6226 1416.77
v -22.1933 -98.6445 1417.12
v -22.2399 -98.7326 1418.74
v -21.5642 -96.7215 1414.5
v -21.0906 -97.025 1414.55
v -21.7657 -97.5237 1414.68
v -21.9818 -98.0297 1415.45
v -21.7312 -97.7303 1415.06
v -21.7125 -97.5395 1415.3
v -21.8657 -98.5163 1420.27
v -21.241 -98.3992 1420.04
v -21.241 -98.3992 1420.04
v -20.1631 -95.5901 1414.35
v -20.5174 -96.5598 1414.82
v -18.1837 -93.8353 1414.41
v -18.1837 -93.8353 1414.41
v -18.6399 -94.4148 1414.29
v -18.25 -94.6197 1414.43
v -17.0396 -93.166 1413.57
v -17.9094 -93.93 1414.19
v -17.8824 -94.1584 1414.25
v -18.0134 -94.435 1414.66
v -18.0134 -94.435 1414.66
v -17.4965 -93.7651 1414.1
v -17.3187 -93.8777 1414.28
v -16.9352 -92.9127 1413.32
v -16.9585 -93.1456 1413.32
v -16.867 -93.0252 1413.16
v -16.7569 -92.9057 1413.16
v -16.7576 -93.1452 1413.14
v -16.637 -92.9058 1413.19
v -16.637 -92.9058 1413.19
v -16.637 -92.9058 1413.19
v -16.7564 -92.8076 1413.33
v -16.7564 -92.8076 1413.33
v -16.6309 -93.1501 1413.16
v -16.6309 -93.1501 1413.16
v -16.5749 -93.0254 1413.19
v -16.5749 -93.0254 1413.19
v -16.5282 -92.9172 1413.45
v -17.0131 -93.5358 1413.92
v -16.7127 -93.4 1413.93
vn -0.660802 0.253735 -0.70637
vn -0.454549 0.814936 0.359533
vn -0.706322 0.55382 -0.440901
vn -0.0573354 0.646279 0.760944
vn -0.94101 0.206565 -0.268012
vn -0.729447 0.674054 0.116442
vn -0.774406 0.625436 -0.0955246
vn -0.80125 0.284746 -0.526231
vn -0.802084 -0.0484167 -0.595245
vn -0.117326 0.915061 0.385872
vn -0.0452801 0.818438 0.572807
vn 0.325057 -0.880046 -0.346203
vn 0.187068 0.799206 0.571205
vn 0.228746 0.646016 0.728244
vn -0.975043 0.22167 0.0124233
vn -0.943905 -0.0868545 -0.318589
vn -0.563117 0.809065 0.168265
vn 0.286667 0.870316 0.400465
vn 0.428657 0.876974 0.217186
vn 0.624141 0.593627 0.507991
vn 0.890256 0.391044 0.233512
vn 0.695255 -0.700453 -0.161202
vn 0.668847 0.743084 -0.021678
vn 0.00221415 -0.979993 -0.19902
vn -0.838915 0.516523 0.171538
vn -0.349684 0.929838 0.114555
vn 0.155001 0.983699 0.0911686
vn 0.566527 0.823676 -0.0246068
vn 0.448975 0.888525 -0.0945743
vn 0.734473 -0.655157 -0.176973
vn -0.961427 -0.209335 0.178429
vn -0.74822 -0.641724 0.168396
vn 0.0197805 -0.998367 -0.0535937
vn -0.927866 0.240991 0.284583
vn -0.758948 0.59701 0.259956
vn -0.819213 0.222118 0.528728
vn -0.905346 -0.228509 0.357955
vn -0.603434 0.57316 -0.554396
vn -0.0520091 -0.158777 -0.985944
vn 0.245827 -0.411467 -0.877647
vn -0.0692014 -0.359214 -0.930686
vn 0.271111 0.433838 0.859234
vn -0.419298 0.69685 0.581884
vn -0.0679958 0.387835 0.919217
vn -0.652802 0.756658 -0.0363042
vn 0.272005 0.18632 0.944086
vn 0.651084 -0.743853 -0.150902
vn 0.554976 0.353535 0.753003
vn 0.901544 -0.054035 0.4293
vn 0.556341 -0.769462 -0.313709
vn 0.573682 0.0608694 0.816813
vn 0.810492 -0.483384 0.330822
vn 0.600098 -0.307169 0.738599
vn 0.900319 0.360053 -0.244514
vn 0.936651 -0.210223 -0.280164
vn -0.573532 0.606573 0.550573
vn -0.372877 0.877336 0.302066
vn -0.470215 0.249772 0.84647
vn -0.142381 0.630668 0.76288
vn -0.140465 0.287934 0.947293
vn -0.212877 -0.0547785 0.975542
vn 0.060873 0.996706 0.0535916
vn 0.129373 0.891992 0.433143
vn 0.187701 0.236598 0.953305
vn 0.459494 0.579054 0.67347
vn 0.818756 0.555274 -0.145979
vn 0.569965 0.814285 0.109909
vn 0.62828 0.0253967 0.777573
vn 0.982061 0.0826818 -0.169472
vn 0.881571 0.381618 0.27785
vn -0.601549 -0.717674 0.350832
vn -0.67248 -0.214768 0.708269
vn -0.202369 -0.367388 0.907784
vn -0.0942987 -0.989357 0.110821
vn -0.0252949 -0.843556 0.536445
vn 0.165031 -0.318812 0.93334
vn 0.466791 -0.876977 0.11409
vn 0.541954 -0.587222 0.601212
vn 0.860716 -0.485837 -0.152084
vn 0.818764 -0.10544 0.564365
vn -0.615747 0.722987 -0.313282
vn -0.478411 0.547934 -0.686215
vn -0.301789 0.480331 0.823533
vn -0.573291 0.742122 0.347265
vn 0.0714406 0.0336426 0.996877
vn 0.418069 -0.428208 0.80116
vn 0.315159 -0.154951 0.936304
vn 0.544916 -0.490947 0.679733
vn -0.495012 0.745387 0.446499
vn -0.486764 0.40649 -0.773193
vn -0.603169 0.785854 0.136456
vn -0.418266 0.488495 -0.765784
vn 0.113899 -0.231072 -0.966247
vn 0.321774 -0.487387 -0.811736
vn -0.207106 0.387335 0.898376
vn -0.469259 0.652009 0.59555
vn 0.153664 -0.072888 0.985431
vn -0.928479 0.0745587 -0.363825
vn -0.63528 0.771625 -0.0318621
vn -0.245615 0.791476 0.559677
vn -0.703547 -0.135997 -0.697514
vn -0.874509 0.333094 -0.352536
vn -0.242848 0.896237 0.371193
vn 0.0437241 0.740197 0.670967
vn 0.218738 0.525246 0.822357
vn -0.0837378 -0.149406 -0.985224
vn 0.114725 -0.368982 -0.922329
vn 0.620718 -0.761603 -0.186201
vn -0.452468 0.791861 0.410157
vn -0.151397 0.512003 0.845536
vn 0.254087 0.0476676 0.966006
vn -0.383295 0.0355574 -0.922941
vn -0.231988 -0.22485 -0.946374
vn -0.616068 0.126507 -0.777468
vn 0.3302 -0.767808 -0.549034
vn -0.0179755 0.576047 0.817219
vn 0.224732 0.244303 0.943298
vn -0.380606 -0.377229 -0.844297
vn 0.550446 -0.270875 0.789706
vn -0.496955 -0.542877 -0.676993
vn 0.429356 0.183424 0.884313
vn 0.684216 -0.606246 0.405358
vn 0.0721446 0.145638 0.986704
vn 0.430957 -0.344637 0.833967
vn -0.914426 0.100364 -0.392112
vn -0.929197 0.0507837 -0.36608
vn -0.889207 0.0990346 -0.446657
vn -0.449521 -0.760528 -0.468539
vn -0.309893 0.538936 -0.783272
vn 0.0772208 0.101054 -0.99188
vn -0.350163 -0.370257 -0.860404
vn 0.095014 0.858314 -0.504251
vn -0.17035 -0.837836 -0.518663
vn -0.389888 0.910745 -0.136128
vn 0.135194 -0.955335 -0.262788
vn 0.26335 -0.0865704 -0.960808
vn 0.375597 0.109757 -0.920261
vn 0.407288 -0.841734 -0.354402
vn 0.43291 0.894399 0.11242
vn 0.694546 -0.719398 -0.00851527
vn 0.931967 -0.292449 -0.21427
vn -0.507589 0.861352 0.0206362
vn 0.127404 0.942371 0.309364
vn 0.298734 0.747991 0.592679
vn 0.427117 0.498761 0.754194
vn 0.640786 0.115388 0.758999
vn 0.744159 0.23994 0.623423
vn 0.688894 0.566092 0.45273
vn 0.945436 -0.125305 0.300749
vn -0.224485 -0.693311 -0.684782
vn 0.706714 -0.279301 0.650035
vn 0.835006 -0.306861 0.456729
vn 0.731763 -0.626602 0.26813
vn 0.813409 -0.552247 0.182728
vn -0.222337 -0.2052 -0.953131
vn -0.216951 -0.355547 -0.909131
vn -0.025197 -0.836561 -0.547293
vn -0.86399 -0.501919 0.0399809
vn -0.164055 -0.902995 -0.397097
vn -0.855602 -0.517179 0.0217199
vn 0.0225432 0.980344 0.196003
vn 0.989549 -0.103549 0.100356
vn 0.985106 -0.111161 -0.131186
vn -0.783822 -0.618237 0.0583627
vn 0.522178 -0.837915 -0.158836
vn -0.528299 -0.838715 0.132123
vn -0.270053 0.0921519 -0.958426
vn 0.61748 -0.765279 -0.181843
vn 0.342402 -0.790787 -0.507362
vn 0.925377 -0.333495 0.180165
vn 0.792271 -0.478025 0.379209
vn 0.692213 -0.0917317 0.715839
vn -0.564393 -0.635152 0.527298
vn 0.996701 -0.0658796 -0.0473965
vn 0.716547 -0.684732 0.133046
vn -0.110231 0.0588782 -0.99216
vn 0.656937 -0.746074 -0.108659
vn -0.607326 0.794383 -0.0105658
vn -0.595736 0.656656 -0.462495
vn -0.115134 0.0354602 -0.992717
vn 0.687418 -0.713983 -0.132982
vn -0.676238 -0.52855 -0.513164
vn -0.491145 0.410646 -0.76821
vn 0.517844 -0.720989 -0.460447
vn 0.569939 -0.560888 0.600479
vn 0.655381 -0.748252 0.10293
vn 0.249861 -0.708546 -0.659949
vn 0.642549 -0.760313 0.0951571
vn -0.585606 0.742918 -0.324251
vn -0.606297 -0.616193 -0.502704
vn -0.495267 0.0794046 -0.865104
vn 0.095014 0.858314 -0.504251
vn 0.0806728 -0.708852 -0.700729
vn 0.273563 0.283822 -0.919026
vn 0.494455 0.852376 -0.170201
vn 0.836893 0.434966 -0.332288
vn 0.095014 0.858314 -0.504251
vn 0.423502 0.905634 0.021775
vn 0.127981 -0.730861 -0.67042
vn 0.728711 -0.406878 -0.550846
vn 0.892635 0.335678 -0.30087
vn 0.776431 -0.224461 -0.588874
vn 0.967885 0.247126 -0.046126
vn 0.320715 -0.853833 -0.410013
vn 0.379856 -0.890818 -0.249306
g grp1
usemtl mtl1
f 38//38 1//1 3//3 
f 39//39 155//155 167//167 
f 3//3 1//1 8//8 
f 7//7 3//3 8//8 
f 7//7 2//2 45//45 
f 3//3 7//7 45//45 
f 43//43 45//45 2//2 
f 11//11 4//4 2//2 
f 14//14 4//4 11//11 
f 43//43 2//2 4//4 
f 42//42 4//4 14//14 
f 48//48 42//42 14//14 
f 5//5 9//9 16//16 
f 7//7 5//5 6//6 
f 8//8 9//9 5//5 
f 6//6 2//2 7//7 
f 2//2 6//6 10//10 
f 9//9 8//8 1//1 
f 155//155 41//41 156//156 
f 8//8 5//5 7//7 
f 157//157 12//12 159//159 
f 169//169 12//12 157//157 
f 11//11 2//2 10//10 
f 11//11 13//13 14//14 
f 11//11 10//10 13//13 
f 18//18 13//13 10//10 
f 13//13 18//18 20//20 
f 13//13 20//20 14//14 
f 50//50 12//12 169//169 
f 22//22 12//12 47//47 
f 20//20 48//48 14//14 
f 48//48 20//20 49//49 
f 49//49 162//162 170//170 
f 15//15 5//5 16//16 
f 5//5 15//15 6//6 
f 25//25 6//6 15//15 
f 17//17 6//6 25//25 
f 6//6 17//17 10//10 
f 18//18 10//10 19//19 
f 19//19 10//10 161//161 
f 27//27 19//19 161//161 
f 23//23 19//19 28//28 
f 19//19 20//20 18//18 
f 19//19 23//23 21//21 
f 20//20 21//21 49//49 
f 19//19 21//21 20//20 
f 49//49 21//21 162//162 
f 21//21 163//163 162//162 
f 30//30 12//12 22//22 
f 165//165 162//162 163//163 
f 159//159 12//12 24//24 
f 12//12 165//165 24//24 
f 15//15 31//31 25//25 
f 25//25 26//26 17//17 
f 27//27 161//161 26//26 
f 28//28 19//19 27//27 
f 27//27 29//29 28//28 
f 29//29 23//23 28//28 
f 160//160 164//164 158//158 
f 164//164 31//31 158//158 
f 165//165 163//163 55//55 
f 35//35 26//26 25//25 
f 25//25 31//31 34//34 
f 25//25 34//34 35//35 
f 29//29 27//27 26//26 
f 164//164 32//32 31//31 
f 33//33 24//24 165//165 
f 164//164 166//166 32//32 
f 33//33 165//165 74//74 
f 34//34 31//31 37//37 
f 35//35 57//57 26//26 
f 31//31 32//32 37//37 
f 32//32 71//71 37//37 
f 166//166 74//74 71//71 
f 32//32 166//166 71//71 
f 35//35 34//34 36//36 
f 36//36 34//34 37//37 
f 56//56 35//35 36//36 
f 36//36 37//37 72//72 
f 72//72 37//37 71//71 
f 81//81 82//82 38//38 
f 81//81 38//38 45//45 
f 81//81 45//45 84//84 
f 41//41 155//155 39//39 
f 3//3 45//45 38//38 
f 167//167 176//176 39//39 
f 40//40 41//41 39//39 
f 169//169 168//168 50//50 
f 83//83 43//43 44//44 
f 45//45 43//43 84//84 
f 4//4 42//42 46//46 
f 42//42 51//51 46//46 
f 51//51 42//42 48//48 
f 44//44 43//43 4//4 
f 44//44 4//4 46//46 
f 53//53 46//46 51//51 
f 83//83 44//44 85//85 
f 85//85 44//44 87//87 
f 87//87 44//44 46//46 
f 88//88 87//87 53//53 
f 53//53 87//87 46//46 
f 49//49 51//51 48//48 
f 12//12 50//50 47//47 
f 52//52 49//49 171//171 
f 49//49 170//170 171//171 
f 51//51 172//172 53//53 
f 53//53 52//52 171//171 
f 49//49 172//172 51//51 
f 88//88 53//53 171//171 
f 23//23 29//29 54//54 
f 163//163 54//54 55//55 
f 165//165 55//55 79//79 
f 54//54 29//29 66//66 
f 26//26 57//57 62//62 
f 62//62 29//29 26//26 
f 54//54 66//66 69//69 
f 54//54 69//69 55//55 
f 74//74 165//165 77//77 
f 79//79 77//77 165//165 
f 79//79 55//55 69//69 
f 57//57 35//35 56//56 
f 56//56 36//36 58//58 
f 72//72 58//58 36//36 
f 58//58 72//72 61//61 
f 57//57 56//56 59//59 
f 56//56 58//58 59//59 
f 59//59 58//58 60//60 
f 60//60 58//58 61//61 
f 63//63 62//62 57//57 
f 57//57 59//59 63//63 
f 59//59 60//60 64//64 
f 60//60 61//61 64//64 
f 64//64 61//61 76//76 
f 63//63 59//59 65//65 
f 65//65 59//59 64//64 
f 65//65 64//64 68//68 
f 68//68 64//64 76//76 
f 62//62 63//63 67//67 
f 63//63 65//65 67//67 
f 29//29 62//62 67//67 
f 66//66 29//29 67//67 
f 66//66 67//67 70//70 
f 66//66 70//70 69//69 
f 70//70 67//67 65//65 
f 68//68 70//70 65//65 
f 80//80 70//70 68//68 
f 70//70 174//174 69//69 
f 75//75 71//71 74//74 
f 72//72 73//73 61//61 
f 72//72 71//71 173//173 
f 75//75 173//173 71//71 
f 73//73 75//75 76//76 
f 61//61 73//73 76//76 
f 77//77 75//75 74//74 
f 76//76 78//78 68//68 
f 77//77 78//78 75//75 
f 75//75 78//78 76//76 
f 79//79 175//175 77//77 
f 78//78 77//77 175//175 
f 78//78 80//80 68//68 
f 174//174 79//79 69//69 
f 176//176 93//93 39//39 
f 39//39 93//93 40//40 
f 94//94 40//40 93//93 
f 168//168 177//177 50//50 
f 84//84 43//43 83//83 
f 85//85 87//87 86//86 
f 88//88 86//86 87//87 
f 82//82 90//90 92//92 
f 82//82 81//81 90//90 
f 84//84 91//91 81//81 
f 96//96 91//91 84//84 
f 93//93 176//176 180//180 
f 91//91 178//178 81//81 
f 181//181 108//108 168//168 
f 168//168 108//108 177//177 
f 83//83 96//96 84//84 
f 96//96 83//83 95//95 
f 95//95 83//83 85//85 
f 185//185 86//86 88//88 
f 91//91 89//89 178//178 
f 91//91 96//96 89//89 
f 89//89 96//96 95//95 
f 106//106 93//93 180//180 
f 107//107 94//94 93//93 
f 123//123 95//95 97//97 
f 95//95 123//123 110//110 
f 123//123 97//97 124//124 
f 89//89 95//95 110//110 
f 85//85 86//86 97//97 
f 97//97 95//95 85//85 
f 185//185 124//124 86//86 
f 97//97 86//86 124//124 
f 102//102 98//98 101//101 
f 102//102 125//125 126//126 
f 126//126 98//98 102//102 
f 182//182 120//120 101//101 
f 182//182 128//128 120//120 
f 102//102 114//114 99//99 
f 114//114 102//102 101//101 
f 102//102 99//99 142//142 
f 100//100 116//116 105//105 
f 142//142 99//99 103//103 
f 103//103 99//99 100//100 
f 104//104 103//103 100//100 
f 104//104 100//100 105//105 
f 121//121 105//105 116//116 
f 121//121 116//116 117//117 
f 120//120 118//118 101//101 
f 144//144 103//103 104//104 
f 145//145 144//144 104//104 
f 105//105 145//145 104//104 
f 106//106 107//107 93//93 
f 92//92 90//90 183//183 
f 106//106 113//113 107//107 
f 109//109 99//99 178//178 
f 109//109 89//89 110//110 
f 109//109 178//178 89//89 
f 112//112 183//183 90//90 
f 184//184 108//108 181//181 
f 99//99 109//109 100//100 
f 116//116 100//100 109//109 
f 110//110 116//116 109//109 
f 185//185 119//119 124//124 
f 124//124 119//119 111//111 
f 179//179 99//99 114//114 
f 90//90 114//114 112//112 
f 114//114 113//113 112//112 
f 112//112 113//113 106//106 
f 117//117 116//116 110//110 
f 111//111 117//117 110//110 
f 184//184 115//115 108//108 
f 186//186 188//188 122//122 
f 122//122 119//119 185//185 
f 118//118 114//114 101//101 
f 118//118 113//113 114//114 
f 187//187 115//115 184//184 
f 117//117 111//111 119//119 
f 150//150 113//113 118//118 
f 187//187 204//204 115//115 
f 119//119 121//121 117//117 
f 150//150 118//118 120//120 
f 151//151 122//122 153//153 
f 188//188 153//153 122//122 
f 151//151 121//121 119//119 
f 122//122 151//151 119//119 
f 111//111 110//110 123//123 
f 124//124 111//111 123//123 
f 125//125 127//127 126//126 
f 142//142 134//134 189//189 
f 102//102 142//142 189//189 
f 190//190 128//128 182//182 
f 134//134 129//129 189//189 
f 191//191 189//189 129//129 
f 191//191 129//129 130//130 
f 130//130 131//131 191//191 
f 191//191 131//131 190//190 
f 190//190 131//131 133//133 
f 128//128 190//190 133//133 
f 128//128 133//133 135//135 
f 134//134 142//142 143//143 
f 192//192 197//197 132//132 
f 194//194 130//130 129//129 
f 130//130 136//136 131//131 
f 133//133 193//193 199//199 
f 195//195 198//198 139//139 
f 133//133 199//199 138//138 
f 138//138 135//135 133//133 
f 138//138 140//140 135//135 
f 143//143 139//139 198//198 
f 136//136 130//130 137//137 
f 196//196 203//203 201//201 
f 194//194 137//137 130//130 
f 202//202 141//141 200//200 
f 141//141 138//138 200//200 
f 140//140 138//138 141//141 
f 149//149 140//140 141//141 
f 140//140 149//149 154//154 
f 141//141 201//201 203//203 
f 203//203 149//149 141//141 
f 120//120 128//128 150//150 
f 128//128 135//135 150//150 
f 142//142 103//103 143//143 
f 143//143 103//103 144//144 
f 146//146 145//145 105//105 
f 121//121 146//146 105//105 
f 148//148 143//143 144//144 
f 148//148 144//144 147//147 
f 147//147 144//144 145//145 
f 146//146 147//147 145//145 
f 146//146 151//151 152//152 
f 121//121 151//151 146//146 
f 143//143 148//148 139//139 
f 205//205 135//135 140//140 
f 148//148 147//147 149//149 
f 149//149 147//147 152//152 
f 152//152 147//147 146//146 
f 154//154 149//149 152//152 
f 149//149 203//203 148//148 
f 204//204 205//205 115//115 
f 154//154 153//153 188//188 
f 152//152 153//153 154//154 
f 151//151 153//153 152//152 
f 204//204 135//135 205//205 
