v -6.91506 -99.8009 1533.5
v -6.91031 -99.9006 1533.5
v -6.92415 -99.8924 1533.6
v -6.89321 -99.7555 1533.6
v -6.83941 -99.9916 1533.61
v -6.87597 -99.8018 1533.7
v -6.86641 -99.8984 1533.71
v -6.79518 -99.802 1533.39
v -6.7966 -99.9054 1533.39
v -6.78938 -99.6779 1533.52
v -6.79801 -100.019 1533.5
v -6.78612 -99.7052 1533.71
v -6.69901 -99.8974 1533.38
v -6.68118 -99.7044 1533.47
v -6.6877 -100.017 1533.51
v -6.68708 -100.034 1533.62
v -6.58958 -99.7996 1533.45
v -6.57775 -99.8969 1533.47
v -6.50288 -99.6533 1533.71
v -6.68876 -99.7989 1533.89
v -6.61679 -99.6979 1533.91
v -6.59125 -99.6446 1533.81
v -6.58766 -99.9561 1533.9
v -6.4 -99.6 1534.09
v -6.38697 -99.6904 1534.24
v -6.31858 -99.7948 1534.29
v -6.2929 -99.6869 1533.82
v -6.18859 -99.7873 1533.9
v -6.23104 -99.8951 1533.96
v -6.20892 -99.5393 1534.1
v -6.08087 -99.7912 1534.42
v -5.90464 -99.4058 1534.43
v -5.83381 -99.5064 1534.38
v -5.74979 -99.5768 1534.52
v -5.8 -99.2258 1534.8
v -5.50822 -99.1959 1534.88
v -5.99318 -99.5871 1534.7
v -5.93989 -99.3857 1534.8
v -5.57896 -99.3727 1535.14
v -5.50351 -99.4026 1535.01
v -5.42598 -98.9519 1535.54
v -4.92603 -98.3042 1536.1
v -5.39274 -98.8341 1535.42
v -5.25024 -99.1117 1535.47
v -5.1 -98.6461 1535.6
v -4.90504 -98.6985 1535.78
v -4.95773 -98.3188 1536.17
v -4.54701 -98.2681 1536.43
v -4.6 -98.1227 1536.7
v -4.47475 -97.9305 1536.5
v -4.33359 -97.5 1537.1
v -3.9025 -97.3 1537.3
v -3.96217 -97.3338 1537.54
v -3.2 -96.1009 1538.4
v -3.6442 -96.6331 1537.9
v -3.51267 -96.4452 1538.25
v -2.98454 -96.1 1538.7
v -2.92543 -95.7932 1538.9
v -2.9 -95.7 1538.81
v -2.5 -95.5 1539.03
v -2.2 -95.1 1539.31
v -2.2 -95.0383 1539.4
v -2.05234 -95.1 1539.4
v -2.1 -95.1 1539.51
v -6.91506 -99.8009 1533.5
v -6.91506 -99.8009 1533.5
v -6.91031 -99.9006 1533.5
v -6.91031 -99.9006 1533.5
v -6.92415 -99.8924 1533.6
v -6.79518 -99.802 1533.39
v -6.7966 -99.9054 1533.39
v -6.7966 -99.9054 1533.39
v -6.7966 -99.9054 1533.39
v -6.79801 -100.019 1533.5
v -6.79801 -100.019 1533.5
v -6.69901 -99.8974 1533.38
v -6.57775 -99.8969 1533.47
v -6.68876 -99.7989 1533.89
v -6.58766 -99.9561 1533.9
v -6.38697 -99.6904 1534.24
v -6.31858 -99.7948 1534.29
v -6.08087 -99.7912 1534.42
v -5.74979 -99.5768 1534.52
v -5.8 -99.2258 1534.8
v -5.8 -99.2258 1534.8
v -5.50822 -99.1959 1534.88
v -5.50822 -99.1959 1534.88
v -5.99318 -99.5871 1534.7
v -5.93989 -99.3857 1534.8
v -5.50351 -99.4026 1535.01
v -5.42598 -98.9519 1535.54
v -5.42598 -98.9519 1535.54
v -5.42598 -98.9519 1535.54
v -5.39274 -98.8341 1535.42
v -5.25024 -99.1117 1535.47
v -5.1 -98.6461 1535.6
v -5.1 -98.6461 1535.6
v -4.54701 -98.2681 1536.43
v -4.6 -98.1227 1536.7
v -4.47475 -97.9305 1536.5
v -4.33359 -97.5 1537.1
v -3.9025 -97.3 1537.3
v -3.9025 -97.3 1537.3
v -3.96217 -97.3338 1537.54
v -3.96217 -97.3338 1537.54
v -3.2 -96.1009 1538.4
v -3.2 -96.1009 1538.4
v -3.2 -96.1009 1538.4
v -3.6442 -96.6331 1537.9
v -3.51267 -96.4452 1538.25
v -3.51267 -96.4452 1538.25
v -2.98454 -96.1 1538.7
v -2.98454 -96.1 1538.7
v -2.98454 -96.1 1538.7
v -2.92543 -95.7932 1538.9
v -2.92543 -95.7932 1538.9
v -2.9 -95.7 1538.81
v -2.9 -95.7 1538.81
v -2.9 -95.7 1538.81
v -2.5 -95.5 1539.03
v -2.2 -95.1 1539.31
v -2.2 -95.1 1539.31
v -2.2 -95.0383 1539.4
v -2.2 -95.0383 1539.4
v -2.2 -95.0383 1539.4
v -2.2 -95.0383 1539.4
v -2.05234 -95.1 1539.4
v -2.05234 -95.1 1539.4
v -2.05234 -95.1 1539.4
v -2.05234 -95.1 1539.4
v -2.1 -95.1 1539.51
v -2.1 -95.1 1539.51
v -2.1 -95.1 1539.51
vn -0.620786 0.679223 -0.39151
vn -0.682331 -0.00148103 -0.731042
vn -0.978832 0.0873958 0.185065
vn -0.815637 0.557154 0.155934
vn -0.575173 -0.790646 0.209894
vn -0.814299 0.271432 0.513071
vn -0.725322 -0.356175 0.589108
vn -0.0481086 0.458184 -0.887554
vn -0.684942 0.00425036 -0.728585
vn -0.332003 0.908948 -0.252167
vn -0.669619 -0.650114 -0.359113
vn -0.577756 0.723297 0.378205
vn 0.259101 0.087243 -0.961902
vn 0.240955 0.74859 -0.6177
vn 0.266425 -0.828128 -0.493174
vn -0.00227326 -0.996495 0.0836185
vn 0.53836 0.271306 -0.797848
vn 0.660674 -0.0475506 -0.749165
vn 0.158679 0.931057 -0.328564
vn -0.6859 0.466111 0.558822
vn -0.637063 0.634794 0.43725
vn -0.313898 0.945454 0.0870914
vn -0.335334 -0.801455 0.495198
vn -0.593148 0.777896 0.207494
vn -0.73255 0.517084 0.442714
vn -0.714634 -0.230607 0.660393
vn 0.511292 0.614294 -0.601019
vn 0.792317 -0.129558 -0.596195
vn 0.509366 -0.84577 -0.158808
vn -0.00899332 0.94462 -0.328044
vn 0.374095 -0.915384 0.148742
vn 0.253625 0.795708 -0.550021
vn 0.714093 0.274503 -0.643988
vn 0.852681 -0.220063 -0.473822
vn -0.0134234 0.889004 -0.457703
vn 0.0662709 0.835897 -0.54487
vn -0.764293 -0.111646 0.635131
vn -0.779071 0.573851 0.252476
vn -0.133825 -0.775292 0.617263
vn 0.365591 -0.892561 0.263967
vn -0.801651 -0.064861 0.594264
vn -0.504736 0.80354 -0.31554
vn -0.79087 0.60281 0.105566
vn 0.18523 -0.834135 0.519527
vn 0.100298 0.761945 -0.639828
vn 0.878968 -0.174448 -0.443828
vn -0.78862 0.614772 0.0115489
vn 0.830617 -0.55488 -0.0467229
vn 0.025916 -0.775199 0.631186
vn -0.304707 0.807093 -0.505721
vn -0.584769 0.764029 -0.272589
vn 0.447673 0.473795 -0.758358
vn 0.343319 -0.799759 0.49246
vn 0.0838801 0.646482 -0.758304
vn -0.653154 0.726434 -0.213737
vn -0.625811 -0.258421 0.735921
vn 0.784683 -0.171761 -0.595626
vn -0.338212 -0.461206 0.820306
vn -0.681189 0.705891 -0.194163
vn 0.307317 0.437201 -0.845228
vn -0.284793 0.789761 -0.543296
vn -0.780579 0.534755 0.323624
vn 0.508667 0.201222 -0.837119
vn -0.6684 0.158782 0.726657
vn -0.679689 -0.00721236 -0.733465
vn -0.995936 0.0896416 -0.00872006
vn -0.990191 -0.0425596 -0.133077
vn -0.707712 -0.658042 -0.257145
vn -0.756559 -0.635075 0.155878
vn -0.682331 -0.00148103 -0.731042
vn -0.575847 -0.569412 -0.586661
vn -0.0805532 -0.00595097 -0.996733
vn 0.0249024 -0.711402 -0.702344
vn -0.129956 -0.991484 -0.00847336
vn 0.0466342 -0.700488 -0.712139
vn 0.226865 -0.692816 -0.684499
vn 0.583401 -0.623524 -0.520442
vn -0.683607 -0.218699 0.696314
vn -0.283973 -0.795112 0.53587
vn -0.736452 -0.137037 0.662464
vn -0.306162 -0.758692 0.575022
vn -0.286097 -0.757136 0.587277
vn 0.538594 -0.84228 0.0219357
vn -0.741018 0.646861 0.180177
vn -0.368654 0.875671 -0.311922
vn 0.443177 0.601724 -0.664472
vn 0.803816 0.097947 -0.586759
vn -0.354423 -0.669023 0.653294
vn -0.776586 -0.085445 0.62419
vn 0.83212 -0.530707 -0.161017
vn -0.486245 -0.506395 0.712131
vn -0.850552 0.485619 0.20183
vn -0.799095 -0.0433355 0.59964
vn -0.30065 0.86226 -0.407576
vn 0.772671 -0.634641 -0.0145004
vn 0.694126 0.2852 -0.660947
vn -0.282533 0.84564 -0.452845
vn 0.325709 -0.806867 0.492828
vn -0.745269 -0.123508 0.655225
vn 0.6364 0.319448 -0.702102
vn -0.791135 -0.052974 0.609343
vn 0.824067 -0.56623 -0.0172486
vn 0.810769 0.0592267 -0.582362
vn 0.758941 -0.643519 0.0994598
vn -0.486692 -0.381361 0.785936
vn 0.805441 -0.131255 -0.57796
vn -0.697412 0.700793 -0.150019
vn 0.0719948 0.681695 -0.728086
vn 0.313631 0.563105 -0.764558
vn -0.71412 0.688697 -0.125414
vn -0.832696 0.487787 0.26207
vn 0.737366 -0.669428 0.0903146
vn -0.299977 -0.475082 0.827231
vn 0.601615 -0.751105 0.271845
vn -0.807518 0.511829 0.293166
vn -0.6684 0.158782 0.726657
vn -0.807518 0.511829 0.293166
vn -0.284793 0.789761 -0.543296
vn 0.193112 0.5416 -0.818155
vn 0.755695 -0.283927 -0.590178
vn 0.411165 0.292592 -0.863327
vn 0.325621 0.778977 -0.535878
vn -0.284793 0.789761 -0.543296
vn -0.6684 0.158782 0.726657
vn 0.325621 0.778977 -0.535878
vn 0.379946 0.908937 0.171682
vn 0.738473 -0.250109 -0.626182
vn 0.325621 0.778977 -0.535878
vn 0.379946 0.908937 0.171682
vn 0.601615 -0.751105 0.271845
vn -0.196033 -0.50406 0.841127
vn 0.379946 0.908937 0.171682
vn 0.601615 -0.751105 0.271845
g grp1
usemtl mtl1
f 10//10 8//8 1//1 
f 70//70 9//9 2//2 
f 65//65 70//70 2//2 
f 4//4 10//10 1//1 
f 3//3 4//4 66//66 
f 66//66 67//67 3//3 
f 4//4 3//3 6//6 
f 6//6 3//3 7//7 
f 71//71 11//11 68//68 
f 10//10 4//4 12//12 
f 69//69 68//68 5//5 
f 74//74 16//16 5//5 
f 68//68 11//11 5//5 
f 12//12 4//4 6//6 
f 7//7 5//5 23//23 
f 7//7 69//69 5//5 
f 5//5 16//16 23//23 
f 12//12 6//6 20//20 
f 6//6 7//7 78//78 
f 7//7 23//23 78//78 
f 17//17 13//13 8//8 
f 8//8 13//13 72//72 
f 73//73 76//76 15//15 
f 8//8 10//10 14//14 
f 17//17 8//8 14//14 
f 15//15 75//75 73//73 
f 15//15 16//16 74//74 
f 14//14 27//27 17//17 
f 17//17 18//18 13//13 
f 77//77 15//15 76//76 
f 27//27 14//14 19//19 
f 19//19 14//14 10//10 
f 10//10 12//12 22//22 
f 19//19 10//10 22//22 
f 29//29 15//15 77//77 
f 15//15 29//29 16//16 
f 17//17 27//27 28//28 
f 18//18 17//17 28//28 
f 19//19 30//30 27//27 
f 29//29 77//77 28//28 
f 12//12 21//21 22//22 
f 20//20 21//21 12//12 
f 78//78 23//23 26//26 
f 21//21 25//25 24//24 
f 21//21 24//24 22//22 
f 20//20 25//25 21//21 
f 26//26 80//80 78//78 
f 30//30 19//19 22//22 
f 16//16 29//29 23//23 
f 30//30 22//22 24//24 
f 29//29 31//31 23//23 
f 25//25 38//38 24//24 
f 79//79 82//82 81//81 
f 80//80 37//37 89//89 
f 80//80 26//26 37//37 
f 32//32 35//35 36//36 
f 35//35 30//30 24//24 
f 38//38 84//84 24//24 
f 88//88 81//81 82//82 
f 27//27 30//30 32//32 
f 30//30 35//35 32//32 
f 27//27 32//32 33//33 
f 28//28 27//27 33//33 
f 33//33 34//34 28//28 
f 28//28 34//34 29//29 
f 32//32 86//86 33//33 
f 31//31 29//29 83//83 
f 34//34 33//33 87//87 
f 83//83 40//40 31//31 
f 89//89 37//37 41//41 
f 43//43 84//84 38//38 
f 91//91 88//88 39//39 
f 36//36 35//35 45//45 
f 38//38 92//92 43//43 
f 96//96 46//46 87//87 
f 85//85 94//94 97//97 
f 31//31 40//40 39//39 
f 88//88 82//82 39//39 
f 44//44 39//39 40//40 
f 34//34 46//46 90//90 
f 46//46 95//95 90//90 
f 87//87 46//46 34//34 
f 43//43 92//92 47//47 
f 42//42 97//97 94//94 
f 47//47 42//42 43//43 
f 48//48 95//95 46//46 
f 91//91 39//39 49//49 
f 49//49 39//39 44//44 
f 98//98 49//49 44//44 
f 51//51 42//42 47//47 
f 51//51 97//97 42//42 
f 47//47 92//92 51//51 
f 50//50 51//51 55//55 
f 100//100 109//109 52//52 
f 46//46 96//96 100//100 
f 50//50 97//97 51//51 
f 46//46 100//100 52//52 
f 46//46 102//102 48//48 
f 98//98 53//53 49//49 
f 101//101 93//93 99//99 
f 48//48 102//102 104//104 
f 56//56 101//101 99//99 
f 56//56 99//99 105//105 
f 110//110 55//55 51//51 
f 109//109 54//54 52//52 
f 57//57 103//103 106//106 
f 107//107 55//55 110//110 
f 102//102 112//112 104//104 
f 58//58 56//56 105//105 
f 113//113 58//58 105//105 
f 59//59 107//107 110//110 
f 62//62 117//117 115//115 
f 118//118 123//123 61//61 
f 119//119 121//121 60//60 
f 64//64 124//124 116//116 
f 117//117 111//111 115//115 
f 119//119 60//60 108//108 
f 57//57 106//106 120//120 
f 113//113 131//131 58//58 
f 121//121 63//63 60//60 
f 127//127 57//57 120//120 
f 122//122 125//125 128//128 
f 132//132 129//129 126//126 
f 130//130 133//133 114//114 
