v -35.7023 -97.8833 1249.52
v -35.2984 -96.5875 1251.3
v -36.643 -98.6905 1252.18
v -36.8733 -99.6931 1252.19
v -37.113 -100.141 1254.04
v -31.862 -94.0329 1244.7
v -31.3238 -92.8671 1247.36
v -33.1479 -95.3481 1252.33
v -34.3501 -100.532 1249.26
v -35.8937 -100.628 1250.83
v -36.3015 -98.6383 1254.65
v -36.9886 -102.012 1254.37
v -36.5176 -102.687 1254.33
v -37.2591 -102.07 1256.27
v -36.8666 -103.566 1256.87
v -35.7661 -100.354 1258.57
v -36.8524 -101.072 1257.69
v -36.9625 -102.662 1258.41
v -26.8121 -91.4796 1239.47
v -28.0672 -93.1686 1239.67
v -27.2166 -90.5963 1243.06
v -30.9612 -96.0972 1242.88
v -30.6522 -97.2859 1243.76
v -29.9437 -95.2176 1252.32
v -33.2577 -101.226 1249.82
v -34.5841 -102.506 1252.07
v -32.7985 -97.2817 1255.19
v -35.7017 -104.485 1256.2
v -33.7085 -100.316 1259.49
v -35.9063 -104.943 1257.51
v -36.1525 -104.937 1258.87
v -35.2105 -105.88 1259.22
v -34.2397 -101.884 1260.9
v -35.7983 -102.69 1260.41
v -35.1126 -104.012 1261.32
v -34.1204 -103.169 1261.56
v -35.7861 -104.737 1260.47
v -22.7744 -88.8531 1239.61
v -27.2175 -94.8534 1239.11
v -26.2168 -96.5751 1241.18
v -26.2542 -91.2014 1247.17
v -28.7296 -97.6638 1244.11
v -26.5158 -92.9852 1249.39
v -30.6554 -100.34 1248.94
v -28.0516 -96.4448 1251.81
v -29.1999 -100.224 1250.56
v -30.4351 -97.5177 1254.31
v -29.3828 -99.7253 1253.68
v -31.9473 -102.536 1252.66
v -30.2457 -101.534 1253.31
v -31.301 -103.057 1254.66
v -30.5671 -102.566 1255.91
v -33.2888 -103.574 1253.82
v -31.4263 -99.6203 1257.07
v -30.4409 -101.22 1256.66
v -32.9514 -105.37 1256.74
v -32.5034 -100.765 1259.57
v -31.4538 -102.483 1260.18
v -34.469 -105.723 1257.39
v -33.8015 -106.363 1258.72
v -32.0732 -105.532 1257.78
v -33.0339 -102.178 1261.08
v -32.0743 -102.968 1261.09
v -34.1397 -104.512 1261.78
v -32.7971 -103.727 1261.7
v -33.1219 -104.368 1261.85
v -33.5047 -105.169 1261.81
v -32.1725 -103.972 1261.5
v -32.514 -104.54 1261.71
v -32.7758 -105.121 1261.71
v -32.0272 -104.715 1261.37
v -34.9677 -105.871 1260.54
v -34.8406 -105.397 1261.25
v -34.392 -105.05 1261.65
v -34.1955 -105.471 1261.58
v -33.9475 -106.446 1260.25
v -33.9024 -106.111 1261.09
v -33.3043 -105.588 1261.62
v -33.2069 -106.302 1260.78
v -32.4356 -105.747 1261.05
v -20.8157 -90.9851 1235.3
v -21.1339 -91.8209 1235.16
v -20.2133 -88.6676 1238.15
v -22.9366 -91.0733 1236.24
v -22.3188 -89.5588 1237.15
v -20.9591 -89.8601 1236.12
v -22.4743 -92.5585 1235.76
v -19.8883 -88.3094 1240.29
v -20.9221 -88.7264 1243.11
v -26.2339 -97.4872 1244.83
v -24.5247 -97.0219 1245.68
v -23.0263 -92.783 1247.75
v -25.6069 -97.5194 1246.31
v -25.0679 -97.2462 1247
v -25.2618 -94.2058 1249.34
v -28.0773 -99.0588 1251.01
v -30.941 -103.536 1259.6
v -31.1738 -104.799 1258.52
v -30.9013 -104.055 1259.06
v -31.1433 -104.814 1259.39
v -31.0505 -104.31 1259.82
v -32.4326 -106.236 1259.48
v -31.6031 -105.586 1259.35
v -31.4088 -103.801 1260.76
v -31.7962 -105.464 1260.54
v -19.5371 -89.7357 1236.1
v -18.0165 -89.8516 1236.3
v -19.7138 -90.7603 1235.26
v -19.9437 -91.3248 1235.03
v -19.6261 -92.0734 1234.9
v -18.6208 -90.6301 1235.44
v -18.986 -91.3947 1235.03
v -18.6565 -92.2033 1234.97
v -21.1501 -92.5402 1235.16
v -20.1856 -92.5368 1234.96
v -20.222 -93.2786 1235.17
v -19.3393 -92.9191 1235
v -18.1658 -89.2115 1237.24
v -21.7767 -93.455 1235.69
v -20.9403 -94.3426 1236.02
v -22.8687 -95.6661 1238.27
v -17.8548 -88.8791 1242.9
v -18.9639 -90.364 1245.24
v -23.5278 -96.8953 1242.47
v -22.233 -96.6185 1244.5
v -22.5331 -94.5563 1247.6
v -24.1918 -96.2522 1247.78
v -23.7801 -96.6073 1246.42
v -21.9507 -95.4431 1246.68
v -17.0317 -90.6208 1236.09
v -18.0183 -91.5138 1235.19
v -17.528 -92.4892 1235.28
v -16.9977 -92.0179 1235.52
v -16.6265 -92.6941 1235.78
v -15.9483 -91.7813 1236.29
v -18.3245 -93.4115 1235.3
v -17.0196 -89.7983 1237.01
v -15.6707 -90.0912 1238.14
v -15.6804 -91.0194 1236.92
v -19.0177 -94.1549 1235.63
v -19.5828 -95.1391 1236.62
v -17.5859 -93.8867 1235.78
v -17.7213 -94.7501 1236.43
v -17.1933 -88.885 1239.41
v -18.573 -96.2642 1238.69
v -16.0832 -89.554 1242.45
v -16.5979 -90.168 1244.12
v -15.04 -91.8361 1237.29
v -14.6115 -91.291 1238.48
v -15.2139 -93.1429 1237.23
v -14.379 -93.1515 1238.71
v -16.7264 -94.1168 1236.39
v -16.4827 -94.917 1237.4
v -15.1576 -89.9839 1240.4
v -14.339 -91.0092 1240.68
v -14.0249 -92.0156 1240.79
v -15.0296 -94.6169 1238.79
v -15.3697 -90.7609 1243.34
v -14.8616 -90.4973 1241.9
v -14.3246 -91.4284 1241.84
v -14.4301 -92.4537 1242.78
v -18.7565 -96.8647 1240.91
v -16.9406 -96.5446 1240.1
v -16.486 -96.5094 1241.56
v -15.8361 -96.1103 1240.62
v -16.7813 -91.944 1245.11
v -15.4233 -93.1497 1244.3
v -17.1905 -94.0288 1245.28
v -17.0706 -95.4517 1244.37
v -15.928 -94.8525 1244.17
v -15.9487 -95.6718 1243.34
v -15.0988 -94.5953 1243.36
v -18.1606 -96.3864 1243.44
v -14.0867 -93.2393 1241.22
v -14.574 -94.5988 1240.16
v -15.1602 -95.5092 1241.94
v -24.1918 -96.2522 1247.78
vn -0.89739 0.170218 -0.407084
vn -0.753529 0.657245 0.0149408
vn -0.917701 0.393018 -0.0579866
vn -0.95766 -0.0332073 -0.285979
vn -0.981596 0.190824 0.00751294
vn -0.775594 0.518606 -0.359864
vn -0.525876 0.846159 0.0864298
vn -0.341965 0.836526 0.428116
vn -0.403326 -0.679653 -0.612699
vn -0.71759 -0.452549 -0.5294
vn -0.752518 0.610084 0.248021
vn -0.910683 -0.316412 -0.265592
vn -0.660519 -0.628725 -0.41039
vn -0.998437 -0.0530933 0.0174668
vn -0.861748 -0.483946 -0.152274
vn -0.512146 0.662647 0.546448
vn -0.875595 0.362212 0.319587
vn -0.957871 -0.0661852 0.279468
vn -0.613271 0.652284 -0.445449
vn -0.687809 0.16982 -0.705748
vn -0.458048 0.88835 -0.0320307
vn -0.69746 -0.259281 -0.668074
vn -0.248573 -0.769434 -0.588373
vn 0.327324 0.57178 0.752281
vn -0.00613137 -0.853186 -0.521571
vn -0.270144 -0.805761 -0.52704
vn 0.201227 0.748554 0.631803
vn -0.547153 -0.735773 -0.399076
vn -0.0236931 0.757718 0.652152
vn -0.630867 -0.735889 -0.245914
vn -0.843524 -0.531895 0.0745309
vn -0.579776 -0.814169 -0.0314407
vn -0.252413 0.564839 0.785649
vn -0.687211 0.293818 0.664389
vn -0.573811 0.0257674 0.818582
vn -0.195334 0.306603 0.931579
vn -0.836521 -0.323054 0.44257
vn -0.327227 0.933749 -0.145034
vn -0.427609 -0.522097 -0.737946
vn -0.0764806 -0.93009 -0.359281
vn -0.0343443 0.842342 0.537848
vn 0.0400468 -0.908782 -0.415346
vn 0.28225 0.590891 0.755766
vn 0.28002 -0.876344 -0.391932
vn 0.703423 0.0853344 0.705631
vn 0.561884 -0.821711 -0.0952808
vn 0.606807 0.440255 0.661786
vn 0.919802 -0.148237 0.363305
vn 0.455275 -0.827256 -0.3292
vn 0.750672 -0.654107 -0.0929242
vn 0.596273 -0.717735 -0.359604
vn 0.919899 -0.389542 -0.0452042
vn 0.203637 -0.857512 -0.472447
vn 0.622854 0.563527 0.542669
vn 0.939401 0.132582 0.316146
vn 0.186962 -0.855499 -0.482874
vn 0.429018 0.650251 0.626991
vn 0.766315 0.393565 0.507808
vn -0.287719 -0.873328 -0.393085
vn -0.0166808 -0.96604 -0.257852
vn 0.514778 -0.792659 -0.326643
vn 0.181103 0.534392 0.825607
vn 0.51769 0.400326 0.756132
vn -0.234149 0.0278504 0.971802
vn 0.232874 0.263435 0.936147
vn 0.0744497 0.0471966 0.996107
vn -0.044824 -0.226963 0.972871
vn 0.541637 0.134878 0.829721
vn 0.3811 -0.0212425 0.92429
vn 0.3326 -0.309699 0.890766
vn 0.658847 -0.238464 0.713481
vn -0.59005 -0.733643 0.33706
vn -0.57649 -0.441057 0.687843
vn -0.386081 -0.183065 0.904117
vn -0.262898 -0.482767 0.835357
vn -0.176951 -0.975659 0.129531
vn -0.231239 -0.785976 0.573386
vn 0.119321 -0.599621 0.791339
vn 0.199286 -0.887727 0.415
vn 0.511545 -0.658358 0.552164
vn -0.249267 0.4123 -0.876285
vn -0.288605 0.121219 -0.949744
vn -0.0415071 0.944051 -0.327178
vn -0.496954 0.378539 -0.780862
vn -0.385468 0.778701 -0.495015
vn -0.208932 0.697504 -0.685446
vn -0.487088 -0.0526012 -0.871767
vn 0.0157189 0.999829 -0.00969831
vn -0.098319 0.951085 0.292867
vn 0.232042 -0.941375 -0.244886
vn 0.325743 -0.944919 0.0319396
vn 0.353109 0.376416 0.856519
vn 0.43372 -0.894786 -0.106043
vn 0.535595 -0.838063 0.103867
vn 0.523687 0.119048 0.843552
vn 0.821351 -0.471186 0.321508
vn 0.95607 0.0576344 0.287416
vn 0.853234 -0.49717 -0.157525
vn 0.978947 -0.195419 0.0589422
vn 0.908941 -0.40518 0.0982664
vn 0.936698 -0.211984 0.278674
vn 0.419781 -0.9073 0.0243041
vn 0.748632 -0.662593 -0.0228419
vn 0.824754 0.0315735 0.564609
vn 0.781831 -0.51012 0.358494
vn 0.0380985 0.77159 -0.634978
vn 0.263324 0.72802 -0.632968
vn -0.0248819 0.513344 -0.857822
vn -0.0857093 0.261454 -0.961403
vn -0.0280015 0.0415535 -0.998744
vn 0.191902 0.536162 -0.822012
vn 0.101545 0.273598 -0.956469
vn 0.168959 -0.0320644 -0.985101
vn -0.297724 -0.168833 -0.939604
vn -0.132655 -0.119491 -0.983933
vn -0.144427 -0.407212 -0.901842
vn 0.0335673 -0.269617 -0.962382
vn 0.20904 0.887991 -0.409602
vn -0.333853 -0.398112 -0.854429
vn -0.196714 -0.647703 -0.73606
vn -0.175186 -0.828035 -0.532605
vn 0.236096 0.917092 0.321251
vn 0.202486 0.654078 0.728822
vn 0.0864023 -0.995142 -0.0471902
vn 0.244629 -0.937385 0.247924
vn 0.452909 -0.254615 0.854427
vn 0.612299 -0.292991 0.734334
vn 0.433686 -0.865944 0.249113
vn 0.365435 -0.719574 0.590484
vn 0.447895 0.500005 -0.741205
vn 0.301093 0.251786 -0.919754
vn 0.351475 -0.134278 -0.926517
vn 0.479152 0.143099 -0.865988
vn 0.549142 -0.208205 -0.809378
vn 0.651677 0.144375 -0.744629
vn 0.201825 -0.350336 -0.914621
vn 0.444947 0.761479 -0.471352
vn 0.619627 0.715772 -0.322076
vn 0.663248 0.492375 -0.563622
vn 0.0477942 -0.585165 -0.809505
vn -0.027647 -0.795791 -0.60494
vn 0.331897 -0.468995 -0.818467
vn 0.238231 -0.729174 -0.641523
vn 0.345616 0.929175 -0.131084
vn 0.0688364 -0.910355 -0.408063
vn 0.540482 0.804676 0.245715
vn 0.460787 0.629418 0.625706
vn 0.830419 0.122597 -0.543484
vn 0.875717 0.382412 -0.294754
vn 0.733319 -0.297822 -0.611184
vn 0.940635 -0.154833 -0.302048
vn 0.503877 -0.510209 -0.69699
vn 0.470468 -0.722086 -0.507201
vn 0.675827 0.735083 -0.0539513
vn 0.883519 0.468395 -0.000145659
vn 0.992572 0.121527 0.00572221
vn 0.730003 -0.55878 -0.393522
vn 0.7293 0.429414 0.532659
vn 0.764199 0.606016 0.220781
vn 0.903508 0.337445 0.264204
vn 0.918585 0.0559644 0.391241
vn 0.0544827 -0.997738 -0.0393639
vn 0.282317 -0.924523 -0.256034
vn 0.36382 -0.925026 0.109366
vn 0.593791 -0.781141 -0.192952
vn 0.474093 0.205014 0.856274
vn 0.700696 -0.0258699 0.71299
vn 0.455639 -0.247079 0.855187
vn 0.358789 -0.643287 0.676352
vn 0.569384 -0.44166 0.693353
vn 0.514736 -0.740029 0.432902
vn 0.827732 -0.359475 0.430857
vn 0.205936 -0.910089 0.359621
vn 0.970443 -0.221124 0.0966719
vn 0.863925 -0.487052 -0.128116
vn 0.767035 -0.625385 0.143358
vn 0.561415 -0.774919 0.290366
g grp1
usemtl mtl1
f 6//6 22//22 1//1 
f 1//1 2//2 6//6 
f 2//2 7//7 6//6 
f 1//1 3//3 2//2 
f 11//11 2//2 3//3 
f 2//2 11//11 8//8 
f 1//1 4//4 3//3 
f 4//4 5//5 3//3 
f 10//10 4//4 1//1 
f 4//4 12//12 5//5 
f 3//3 5//5 11//11 
f 20//20 22//22 6//6 
f 41//41 21//21 7//7 
f 7//7 8//8 41//41 
f 10//10 1//1 22//22 
f 22//22 9//9 10//10 
f 23//23 25//25 9//9 
f 2//2 8//8 7//7 
f 12//12 4//4 10//10 
f 9//9 26//26 10//10 
f 8//8 27//27 41//41 
f 11//11 16//16 8//8 
f 8//8 29//29 27//27 
f 12//12 14//14 5//5 
f 10//10 13//13 12//12 
f 26//26 13//13 10//10 
f 28//28 13//13 26//26 
f 16//16 11//11 17//17 
f 8//8 16//16 29//29 
f 17//17 5//5 14//14 
f 5//5 17//17 11//11 
f 14//14 12//12 15//15 
f 13//13 15//15 12//12 
f 13//13 28//28 15//15 
f 18//18 17//17 14//14 
f 17//17 18//18 34//34 
f 34//34 16//16 17//17 
f 14//14 15//15 18//18 
f 30//30 15//15 28//28 
f 21//21 38//38 19//19 
f 6//6 19//19 20//20 
f 7//7 21//21 6//6 
f 19//19 6//6 21//21 
f 20//20 39//39 22//22 
f 22//22 39//39 23//23 
f 42//42 25//25 23//23 
f 25//25 42//42 90//90 
f 25//25 90//90 44//44 
f 23//23 9//9 22//22 
f 27//27 24//24 41//41 
f 43//43 41//41 24//24 
f 47//47 24//24 27//27 
f 53//53 25//25 44//44 
f 9//9 25//25 26//26 
f 53//53 26//26 25//25 
f 29//29 16//16 33//33 
f 57//57 27//27 29//29 
f 57//57 29//29 62//62 
f 15//15 30//30 31//31 
f 15//15 31//31 18//18 
f 37//37 18//18 31//31 
f 26//26 59//59 28//28 
f 59//59 32//32 30//30 
f 28//28 59//59 30//30 
f 32//32 31//31 30//30 
f 32//32 37//37 31//31 
f 29//29 33//33 62//62 
f 34//34 33//33 16//16 
f 36//36 34//34 35//35 
f 62//62 33//33 36//36 
f 33//33 34//34 36//36 
f 36//36 35//35 64//64 
f 64//64 35//35 74//74 
f 35//35 34//34 37//37 
f 37//37 34//34 18//18 
f 37//37 73//73 35//35 
f 72//72 37//37 32//32 
f 72//72 73//73 37//37 
f 74//74 35//35 73//73 
f 85//85 84//84 19//19 
f 19//19 84//84 20//20 
f 21//21 89//89 38//38 
f 19//19 38//38 85//85 
f 40//40 23//23 39//39 
f 39//39 121//121 40//40 
f 40//40 42//42 23//23 
f 21//21 41//41 89//89 
f 90//90 42//42 40//40 
f 44//44 90//90 46//46 
f 95//95 43//43 24//24 
f 24//24 45//45 95//95 
f 44//44 46//46 49//49 
f 24//24 47//47 45//45 
f 45//45 47//47 48//48 
f 45//45 48//48 96//96 
f 48//48 47//47 55//55 
f 46//46 96//96 50//50 
f 46//46 50//50 49//49 
f 50//50 96//96 48//48 
f 52//52 48//48 55//55 
f 53//53 44//44 49//49 
f 27//27 54//54 47//47 
f 47//47 54//54 55//55 
f 48//48 52//52 50//50 
f 50//50 51//51 49//49 
f 49//49 51//51 53//53 
f 52//52 51//51 50//50 
f 57//57 54//54 27//27 
f 52//52 55//55 99//99 
f 56//56 26//26 53//53 
f 26//26 56//56 59//59 
f 56//56 53//53 51//51 
f 61//61 56//56 51//51 
f 57//57 58//58 54//54 
f 58//58 55//55 54//54 
f 58//58 97//97 55//55 
f 60//60 32//32 59//59 
f 60//60 59//59 56//56 
f 56//56 61//61 60//60 
f 61//61 102//102 60//60 
f 63//63 57//57 62//62 
f 63//63 62//62 65//65 
f 57//57 63//63 58//58 
f 36//36 64//64 66//66 
f 36//36 65//65 62//62 
f 64//64 74//74 67//67 
f 66//66 65//65 36//36 
f 66//66 64//64 67//67 
f 66//66 67//67 70//70 
f 70//70 67//67 78//78 
f 65//65 68//68 63//63 
f 69//69 68//68 65//65 
f 69//69 65//65 66//66 
f 69//69 66//66 70//70 
f 63//63 68//68 104//104 
f 71//71 68//68 69//69 
f 71//71 69//69 70//70 
f 71//71 70//70 80//80 
f 78//78 80//80 70//70 
f 58//58 63//63 104//104 
f 104//104 68//68 71//71 
f 76//76 72//72 32//32 
f 74//74 73//73 75//75 
f 72//72 77//77 73//73 
f 76//76 77//77 72//72 
f 67//67 74//74 75//75 
f 77//77 75//75 73//73 
f 67//67 75//75 78//78 
f 76//76 32//32 60//60 
f 76//76 79//79 77//77 
f 77//77 78//78 75//75 
f 79//79 78//78 77//77 
f 102//102 76//76 60//60 
f 102//102 79//79 76//76 
f 78//78 79//79 80//80 
f 81//81 82//82 84//84 
f 82//82 114//114 87//87 
f 85//85 38//38 83//83 
f 81//81 84//84 86//86 
f 84//84 85//85 86//86 
f 82//82 87//87 84//84 
f 83//83 86//86 85//85 
f 20//20 84//84 87//87 
f 87//87 39//39 20//20 
f 39//39 87//87 119//119 
f 39//39 119//119 120//120 
f 88//88 38//38 89//89 
f 83//83 38//38 88//88 
f 39//39 120//120 121//121 
f 92//92 123//123 41//41 
f 123//123 92//92 166//166 
f 93//93 90//90 91//91 
f 90//90 40//40 124//124 
f 91//91 90//90 124//124 
f 92//92 41//41 43//43 
f 92//92 43//43 95//95 
f 126//126 92//92 95//95 
f 166//166 92//92 126//126 
f 126//126 95//95 127//127 
f 177//177 96//96 46//46 
f 177//177 46//46 94//94 
f 93//93 94//94 46//46 
f 94//94 93//93 91//91 
f 94//94 91//91 128//128 
f 90//90 93//93 46//46 
f 95//95 45//45 127//127 
f 45//45 96//96 127//127 
f 99//99 55//55 97//97 
f 58//58 104//104 97//97 
f 51//51 52//52 98//98 
f 52//52 99//99 98//98 
f 51//51 98//98 61//61 
f 99//99 97//97 101//101 
f 99//99 100//100 98//98 
f 99//99 101//101 100//100 
f 98//98 100//100 103//103 
f 100//100 101//101 105//105 
f 100//100 105//105 103//103 
f 103//103 105//105 102//102 
f 97//97 104//104 101//101 
f 101//101 104//104 105//105 
f 61//61 103//103 102//102 
f 103//103 61//61 98//98 
f 80//80 105//105 71//71 
f 71//71 105//105 104//104 
f 80//80 102//102 105//105 
f 80//80 79//79 102//102 
f 108//108 106//106 111//111 
f 106//106 107//107 111//111 
f 108//108 109//109 81//81 
f 86//86 106//106 108//108 
f 108//108 81//81 86//86 
f 82//82 81//81 109//109 
f 106//106 86//86 83//83 
f 109//109 110//110 82//82 
f 115//115 82//82 110//110 
f 110//110 117//117 115//115 
f 108//108 112//112 109//109 
f 112//112 110//110 109//109 
f 111//111 112//112 108//108 
f 112//112 113//113 110//110 
f 113//113 117//117 110//110 
f 112//112 131//131 113//113 
f 130//130 111//111 107//107 
f 111//111 131//131 112//112 
f 115//115 114//114 82//82 
f 116//116 114//114 115//115 
f 116//116 115//115 117//117 
f 140//140 116//116 117//117 
f 136//136 140//140 117//117 
f 118//118 83//83 144//144 
f 106//106 83//83 118//118 
f 107//107 106//106 118//118 
f 107//107 118//118 137//137 
f 137//137 118//118 144//144 
f 114//114 119//119 87//87 
f 116//116 119//119 114//114 
f 120//120 119//119 116//116 
f 116//116 140//140 120//120 
f 120//120 140//140 141//141 
f 121//121 120//120 141//141 
f 88//88 89//89 122//122 
f 144//144 83//83 88//88 
f 144//144 88//88 122//122 
f 121//121 141//141 145//145 
f 123//123 122//122 89//89 
f 145//145 40//40 121//121 
f 40//40 162//162 124//124 
f 41//41 123//123 89//89 
f 125//125 91//91 124//124 
f 125//125 128//128 91//91 
f 177//177 94//94 128//128 
f 127//127 129//129 126//126 
f 125//125 177//177 128//128 
f 177//177 125//125 129//129 
f 130//130 131//131 111//111 
f 117//117 113//113 136//136 
f 133//133 132//132 131//131 
f 131//131 132//132 113//113 
f 132//132 136//136 113//113 
f 133//133 134//134 132//132 
f 132//132 142//142 136//136 
f 130//130 133//133 131//131 
f 134//134 142//142 132//132 
f 134//134 152//152 142//142 
f 130//130 135//135 133//133 
f 135//135 134//134 133//133 
f 150//150 134//134 135//135 
f 150//150 152//152 134//134 
f 138//138 137//137 144//144 
f 130//130 107//107 137//137 
f 137//137 139//139 130//130 
f 137//137 138//138 139//139 
f 130//130 139//139 135//135 
f 142//142 140//140 136//136 
f 143//143 140//140 142//142 
f 143//143 141//141 140//140 
f 142//142 152//152 143//143 
f 145//145 143//143 153//153 
f 143//143 145//145 141//141 
f 146//146 144//144 122//122 
f 144//144 154//154 138//138 
f 154//154 144//144 146//146 
f 154//154 146//146 159//159 
f 146//146 122//122 147//147 
f 147//147 122//122 123//123 
f 159//159 146//146 158//158 
f 147//147 158//158 146//146 
f 145//145 162//162 40//40 
f 166//166 147//147 123//123 
f 162//162 125//125 124//124 
f 173//173 125//125 162//162 
f 168//168 166//166 126//126 
f 169//169 126//126 129//129 
f 168//168 126//126 169//169 
f 135//135 139//139 148//148 
f 149//149 148//148 139//139 
f 139//139 138//138 149//149 
f 138//138 154//154 149//149 
f 148//148 149//149 151//151 
f 150//150 135//135 148//148 
f 150//150 148//148 151//151 
f 150//150 153//153 152//152 
f 151//151 157//157 150//150 
f 153//153 150//150 157//157 
f 152//152 153//153 143//143 
f 159//159 155//155 154//154 
f 154//154 155//155 149//149 
f 160//160 155//155 159//159 
f 156//156 149//149 155//155 
f 155//155 160//160 156//156 
f 174//174 151//151 156//156 
f 151//151 149//149 156//156 
f 156//156 160//160 161//161 
f 151//151 174//174 175//175 
f 175//175 157//157 151//151 
f 157//157 175//175 165//165 
f 163//163 145//145 153//153 
f 153//153 157//157 165//165 
f 153//153 165//165 163//163 
f 158//158 160//160 159//159 
f 160//160 158//158 161//161 
f 161//161 158//158 167//167 
f 156//156 161//161 174//174 
f 174//174 161//161 172//172 
f 167//167 172//172 161//161 
f 172//172 171//171 176//176 
f 145//145 163//163 162//162 
f 164//164 173//173 162//162 
f 163//163 164//164 162//162 
f 164//164 171//171 173//173 
f 164//164 163//163 165//165 
f 176//176 164//164 165//165 
f 171//171 164//164 176//176 
f 158//158 147//147 166//166 
f 166//166 168//168 167//167 
f 158//158 166//166 167//167 
f 171//171 169//169 173//173 
f 168//168 170//170 167//167 
f 169//169 170//170 168//168 
f 170//170 172//172 167//167 
f 171//171 172//172 170//170 
f 169//169 171//171 170//170 
f 173//173 129//129 125//125 
f 169//169 129//129 173//173 
f 175//175 174//174 176//176 
f 165//165 175//175 176//176 
f 174//174 172//172 176//176 
