v 155.637 -173.06 -68.9892
v 155.807 -172.93 -69.207
v 156.073 -173.78 -68.4022
v 156.257 -172.649 -69.2568
v 156.49 -173.643 -68.4895
v 155.945 -173.819 -68.0735
v 156.292 -174.047 -67.9526
v 155.514 -172.664 -69.2993
v 155.429 -172.805 -68.9618
v 155.253 -171.783 -69.4672
v 155.092 -171.88 -69.1486
v 155.707 -172.301 -69.4506
v 155.005 -170.588 -69.3857
v 155.611 -170.601 -69.609
v 155.233 -172.643 -67.341
v 155 -170.016 -69.1883
v 146.371 -158.768 -66.8671
v 146.668 -159.564 -65.9334
v 145.999 -159.293 -65.2645
v 145.263 -158.112 -67.9914
v 145.335 -156.679 -68.9653
v 145.749 -158.407 -67.7848
v 146.135 -156.95 -69.0979
v 146.143 -158.226 -67.9029
v 146.677 -157.321 -68.635
v 146.952 -157.957 -68.0344
v 144.559 -158.356 -66.9174
v 143.988 -158.21 -64.1334
v 145.839 -155.686 -69.4437
v 145.605 -154.089 -69.2966
v 143.57 -155.52 -68.2661
v 143.193 -156.828 -67.2578
v 142.888 -157.028 -66.5734
v 142.277 -155.334 -67.0818
v 141.989 -155.555 -66.5464
v 142.619 -154.713 -67.4163
v 141.944 -154.814 -66.6216
v 141.609 -155.064 -65.8013
v 142.245 -154.333 -66.7318
v 141.798 -154.383 -65.8046
v 142.403 -153.859 -66.1376
v 141.789 -155.794 -65.6066
v 141.539 -155.232 -64.5031
v 141.801 -155.886 -63.9728
v 141.78 -154.456 -65.1547
v 141.582 -154.813 -64.6567
v 141.689 -155.517 -63.2882
v 142.33 -154.435 -64.4665
v 141.886 -154.898 -63.7484
v 156.736 -173.846 -68.0675
v 158.904 -172.481 -68.3073
v 156.73 -173.943 -67.3201
v 156.134 -173.57 -66.1444
v 157.172 -173.677 -65.5219
v 156.696 -173.244 -64.8978
v 157.218 -171.016 -69.2269
v 157.231 -170.167 -68.8157
v 155.738 -170.128 -69.4002
v 155.153 -171.794 -65.0781
v 154.54 -169.372 -68.4845
v 154.209 -169.597 -68.1085
v 155.177 -169.421 -68.7739
v 155.038 -168.395 -68.2822
v 156.033 -169.301 -68.478
v 155.511 -168.508 -68.2371
v 156.65 -168.635 -68.0668
v 153.586 -168.835 -66.1998
v 153.06 -167.3 -67.3605
v 154.118 -167.396 -67.861
v 152.359 -166.76 -66.0665
v 153.007 -165.679 -67.4457
v 151.7 -165.341 -66.9495
v 151.682 -162.904 -67.3685
v 150.081 -163.014 -66.8774
v 149.783 -157.382 -67.622
v 146.39 -159.688 -64.6725
v 147.523 -155.127 -69.4968
v 143.683 -156.167 -61.6558
v 147.168 -151.561 -68.1587
v 146.433 -151.752 -67.5144
v 145.13 -152.401 -67.951
v 142.274 -155.22 -62.9399
v 161.801 -170.157 -69.878
v 162.252 -170.643 -69.5987
v 161.81 -169.522 -69.7311
v 159.29 -171.392 -68.838
v 160.022 -171.409 -68.9062
v 160.057 -170.537 -69.1429
v 160.915 -171.869 -68.3202
v 158.324 -173.366 -65.501
v 157.263 -172.883 -64.2662
v 158.036 -173.23 -64.4845
v 158.767 -172.375 -63.9589
v 160.632 -169.201 -69.5314
v 159.046 -170.108 -68.7263
v 158.617 -168.655 -68.4483
v 156.285 -170.638 -63.8974
v 155.816 -171.784 -64.294
v 158.565 -166.44 -67.9866
v 154.506 -169.178 -64.5281
v 155.74 -169.059 -63.9546
v 155.386 -165.364 -67.4319
v 154.426 -167.233 -63.8047
v 153.035 -160.806 -66.7727
v 151.793 -153.881 -68.1543
v 150.621 -151.443 -68.4279
v 144.628 -154.957 -61.8175
v 146.676 -154.023 -61.3227
v 148.391 -151.083 -67.7183
v 148.051 -151.205 -66.9214
v 163.146 -171.207 -68.183
v 162.759 -171.629 -67.4088
v 163.13 -171.58 -66.5765
v 163.528 -171.044 -67.0317
v 163.319 -171.179 -66.3169
v 162.59 -170.895 -69.2372
v 162.665 -170.605 -69.5198
v 162.543 -170.13 -69.7297
v 162.906 -170.542 -69.3054
v 162.686 -169.97 -69.3177
v 163.259 -170.401 -68.2712
v 163.426 -170.761 -66.5758
v 163.186 -169.927 -66.7283
v 161.182 -172.062 -64.7581
v 161.948 -170.649 -64.8686
v 160.407 -170.667 -64.1402
v 161.301 -168.994 -68.7792
v 161.945 -168.824 -67.8669
v 161.451 -168.447 -67.4678
v 162.385 -168.762 -66.7447
v 158.816 -168.12 -64.2797
v 159.579 -166.886 -68.2627
v 160.336 -167.171 -65.7525
v 157.691 -164.844 -66.807
v 157.459 -164.493 -63.7017
v 153.848 -160.915 -61.7194
v 154.821 -159.05 -64.9628
v 154.905 -158.636 -64.1439
v 151.658 -160.365 -61.6683
v 152.657 -155.288 -66.584
v 153.183 -156.821 -65.9521
v 153.116 -155.062 -66.1979
v 154.017 -156.668 -64.8176
v 152.835 -153.51 -67.5222
v 152.512 -154.669 -67.1468
v 152.944 -154.32 -66.7967
v 153.253 -153.475 -66.6438
v 148.593 -156.413 -60.2267
v 146.919 -154.659 -60.4763
v 150.113 -149.678 -66.3738
v 162.715 -169.694 -65.8295
v 162.64 -169.265 -66.068
v 161.984 -168.937 -65.5082
v 154.424 -159.045 -62.2315
v 153.917 -155.406 -64.5984
v 153.881 -155.622 -63.2504
v 152.128 -156.916 -60.6501
v 153.688 -152.695 -65.836
v 150.682 -153.901 -60.3641
v 152.776 -150.617 -66.5454
v 153.183 -150.6 -64.5764
v 152.401 -150.791 -62.7734
v 149.506 -152.123 -60.9535
v 151.229 -148.88 -66.2362
v 152.046 -149.153 -64.4155
v 151.152 -148.707 -63.6404
v 151.418 -148.922 -63.3131
v 151.028 -148.833 -63.3966
v 152.057 -149.575 -63.1813
v 151.594 -149.952 -62.3223
v 156.292 -174.047 -67.9526
v 155.253 -171.783 -69.4672
v 146.371 -158.768 -66.8671
v 146.952 -157.957 -68.0344
v 146.952 -157.957 -68.0344
v 141.689 -155.517 -63.2882
v 153.06 -167.3 -67.3605
v 151.7 -165.341 -66.9495
v 146.39 -159.688 -64.6725
v 143.683 -156.167 -61.6558
v 147.168 -151.561 -68.1587
v 161.81 -169.522 -69.7311
v 159.29 -171.392 -68.838
v 160.632 -169.201 -69.5314
v 160.632 -169.201 -69.5314
v 155.74 -169.059 -63.9546
v 154.426 -167.233 -63.8047
v 148.391 -151.083 -67.7183
v 163.146 -171.207 -68.183
v 163.528 -171.044 -67.0317
v 162.665 -170.605 -69.5198
v 162.543 -170.13 -69.7297
v 162.543 -170.13 -69.7297
v 162.543 -170.13 -69.7297
v 162.906 -170.542 -69.3054
v 162.906 -170.542 -69.3054
v 161.301 -168.994 -68.7792
v 159.579 -166.886 -68.2627
v 159.579 -166.886 -68.2627
v 160.336 -167.171 -65.7525
v 160.336 -167.171 -65.7525
v 157.691 -164.844 -66.807
v 157.459 -164.493 -63.7017
v 146.919 -154.659 -60.4763
v 150.113 -149.678 -66.3738
v 150.682 -153.901 -60.3641
v 151.229 -148.88 -66.2362
v 151.229 -148.88 -66.2362
v 151.229 -148.88 -66.2362
v 151.152 -148.707 -63.6404
v 151.152 -148.707 -63.6404
v 151.418 -148.922 -63.3131
v 151.594 -149.952 -62.3223
vn -0.583147 -0.656438 -0.47857
vn -0.0464064 -0.571073 -0.819587
vn -0.25494 -0.796412 -0.548392
vn 0.261571 -0.356274 -0.897023
vn 0.240011 -0.697813 -0.674871
vn -0.715832 -0.69057 -0.103427
vn 0.263041 -0.872504 -0.41176
vn -0.551987 -0.459106 -0.696084
vn -0.84262 -0.484004 -0.236077
vn -0.227694 -0.120766 -0.966215
vn -0.897971 -0.288455 -0.332329
vn 0.0353969 -0.216654 -0.975606
vn -0.682039 0.047697 -0.729759
vn -0.0744396 0.155143 -0.985084
vn -0.897016 -0.441906 -0.00901012
vn -0.435889 0.401212 -0.805623
vn -0.655847 -0.61012 -0.444544
vn -0.65876 -0.699689 -0.276534
vn -0.436287 -0.865531 -0.245989
vn -0.381142 -0.645686 -0.66168
vn -0.431157 -0.381751 -0.817539
vn -0.0424689 -0.827561 -0.559767
vn -0.0131071 -0.50374 -0.863756
vn 0.155808 -0.761637 -0.628993
vn 0.201497 -0.591631 -0.780622
vn 0.181007 -0.717347 -0.672793
vn -0.500732 -0.805732 -0.31633
vn -0.607184 -0.777479 0.163875
vn -0.245908 -0.13429 -0.959945
vn -0.295222 0.295159 -0.908694
vn -0.57796 -0.123629 -0.806646
vn -0.64271 -0.479169 -0.597763
vn -0.73265 -0.624978 -0.269491
vn -0.756339 -0.156172 -0.635265
vn -0.849705 -0.311228 -0.425605
vn -0.663222 0.259592 -0.70196
vn -0.862568 0.153008 -0.48225
vn -0.978957 -0.00828463 -0.203897
vn -0.713609 0.526444 -0.46219
vn -0.850505 0.498947 -0.166411
vn -0.556811 0.830634 -0.00290549
vn -0.870981 -0.476822 -0.118462
vn -0.988012 -0.154038 0.01022
vn -0.842833 -0.534783 0.0603258
vn -0.611601 0.76633 0.196676
vn -0.859678 0.487051 0.154059
vn -0.790994 0.384308 0.476064
vn -0.385898 0.863141 0.325685
vn -0.518068 0.751306 0.408833
vn 0.395038 -0.852667 -0.341912
vn 0.307238 -0.715701 -0.627197
vn 0.23424 -0.9719 0.0232984
vn -0.525507 -0.808632 0.264491
vn -0.0328919 -0.960207 0.277347
vn -0.39997 -0.738437 0.542895
vn 0.232749 0.0562927 -0.970906
vn 0.157788 0.49165 -0.856378
vn 0.127667 0.542893 -0.830041
vn -0.7811 -0.481483 0.397564
vn -0.475485 0.251872 -0.842897
vn -0.872075 -0.112235 -0.476327
vn -0.0386762 0.545331 -0.837328
vn -0.0603843 0.330121 -0.942005
vn 0.189186 0.540963 -0.819492
vn 0.187191 0.354152 -0.916262
vn 0.0154187 0.307323 -0.95148
vn -0.89144 -0.44916 0.0599117
vn -0.883794 -0.417473 -0.211247
vn -0.254527 0.145087 -0.95612
vn -0.823507 -0.531904 0.197265
vn -0.218402 -0.023686 -0.975571
vn -0.792642 -0.517502 -0.322352
vn 0.0073596 -0.0297927 -0.999529
vn -0.57022 -0.46411 -0.677828
vn 0.389434 -0.262851 -0.882752
vn -0.668657 -0.683719 -0.292279
vn 0.201035 -0.170155 -0.964693
vn -0.404625 -0.537152 0.740099
vn -0.157616 0.60099 -0.783561
vn -0.386921 0.919578 0.068322
vn -0.52209 0.708563 -0.474721
vn -0.505833 0.536456 0.675535
vn -0.0882958 -0.141754 -0.985956
vn 0.116351 -0.594583 -0.795571
vn 0.040688 0.224457 -0.973634
vn -0.12494 -0.288458 -0.949306
vn -0.0623086 -0.485914 -0.871783
vn -0.339507 -0.095873 -0.935705
vn 0.201425 -0.820953 -0.534289
vn 0.339214 -0.94041 0.0237126
vn -0.196183 -0.484316 0.852614
vn 0.106993 -0.83513 0.539546
vn 0.122641 -0.336847 0.933538
vn -0.294375 0.147775 -0.944196
vn -0.113313 0.211714 -0.970741
vn -0.294387 0.110003 -0.949334
vn -0.141981 -0.0730291 0.987172
vn -0.503974 -0.383641 0.773841
vn -0.0911694 0.431538 -0.897476
vn -0.65158 -0.292542 0.699902
vn -0.392939 -0.224602 0.891714
vn 0.0278341 0.246191 -0.968822
vn -0.576672 -0.427779 0.696028
vn 0.353081 0.214533 -0.910664
vn 0.470663 -0.207003 -0.857686
vn 0.144223 0.468415 -0.871658
vn -0.398349 0.73102 0.554011
vn -0.53992 0.703359 0.462356
vn -0.0831087 0.758917 -0.645862
vn -0.47598 0.871624 0.117114
vn 0.500143 -0.801786 -0.327102
vn 0.339818 -0.909753 -0.23848
vn 0.607949 -0.791044 0.0681642
vn 0.987439 -0.146735 0.0585853
vn 0.82783 -0.225626 0.513605
vn 0.366659 -0.744269 -0.558234
vn 0.35053 -0.590433 -0.726992
vn 0.201613 -0.347845 -0.915618
vn 0.59868 -0.629663 -0.495082
vn 0.728352 0.590999 -0.346732
vn 0.93851 0.257678 -0.229787
vn 0.930956 0.172391 0.321873
vn 0.904803 0.408391 0.12062
vn 0.481397 -0.596546 0.642176
vn 0.55998 0.0884689 0.823769
vn 0.264386 0.0123592 0.964338
vn 0.38792 0.852718 -0.349841
vn 0.432638 0.832827 -0.345287
vn 0.328937 0.850385 -0.410665
vn 0.718969 0.69482 -0.0175711
vn 0.282237 0.0844229 0.955623
vn 0.523036 0.580157 -0.624381
vn 0.56023 0.793114 -0.238983
vn 0.182059 0.491102 -0.851864
vn 0.841482 0.530888 0.100329
vn 0.190396 -0.207189 0.959595
vn 0.732799 0.356615 -0.57951
vn 0.923209 0.383499 -0.0247662
vn -0.243205 -0.527663 0.813894
vn 0.641738 -0.293119 -0.708699
vn 0.642748 0.0450945 -0.764749
vn 0.822459 -0.105208 -0.55901
vn 0.918184 0.197535 -0.343391
vn 0.759339 -0.0744859 -0.646418
vn 0.643919 -0.406034 -0.648463
vn 0.827967 -0.300156 -0.473684
vn 0.913309 -0.205929 -0.351368
vn -0.0822317 -0.20763 0.974745
vn -0.140613 0.0761569 0.987131
vn -0.240533 0.706035 -0.666077
vn 0.782534 0.272837 0.559643
vn 0.772155 0.534005 0.344406
vn 0.599523 0.507755 0.618673
vn 0.816935 0.284672 0.501576
vn 0.976831 0.0468303 -0.208823
vn 0.9419 0.215219 0.257886
vn 0.520721 0.086534 0.84933
vn 0.961436 0.0195755 -0.274332
vn 0.0377718 0.185484 0.981921
vn 0.755105 0.465374 -0.461784
vn 0.904108 0.40591 0.133513
vn 0.760808 0.275218 0.587729
vn -0.232102 0.548396 0.803362
vn -0.384747 0.650953 -0.654393
vn 0.665404 0.746184 0.021161
vn -0.639718 0.768038 -0.029658
vn 0.59049 0.743188 0.314632
vn -0.414526 0.805614 0.423267
vn 0.728675 0.553981 0.402664
vn 0.645354 0.424268 0.635229
vn -0.40663 -0.912554 0.0435505
vn -0.834364 -0.240592 -0.495935
vn 0.126 -0.888678 -0.440881
vn -0.425898 -0.443963 -0.788357
vn 0.143333 0.00384577 -0.989667
vn -0.772067 -0.580072 0.259669
vn -0.527912 -0.0150837 -0.849165
vn -0.398752 -0.123537 -0.9087
vn -0.513958 -0.632524 0.579449
vn -0.502226 0.379677 0.776926
vn -0.351511 0.932454 -0.0834866
vn 0.397534 0.828321 -0.394779
vn 0.204595 0.123471 -0.971028
vn 0.176127 0.897771 -0.403715
vn 0.523036 0.580157 -0.624381
vn 0.0959273 0.0302636 0.994928
vn 0.0777314 -0.143545 0.986586
vn -0.469588 0.880432 -0.0657717
vn 0.941532 -0.164028 -0.294298
vn 0.94292 -0.16375 -0.289978
vn 0.678458 -0.144417 -0.720304
vn 0.183408 0.21891 -0.958353
vn 0.728796 0.514461 -0.451869
vn 0.678458 -0.144417 -0.720304
vn 0.916245 0.166274 -0.364483
vn 0.678458 -0.144417 -0.720304
vn 0.523036 0.580157 -0.624381
vn 0.010045 0.543017 -0.839662
vn 0.715833 0.684479 -0.138103
vn 0.672467 0.670798 0.312759
vn 0.549215 0.318799 0.772483
vn 0.785603 0.606844 -0.1207
vn 0.576021 0.0778502 0.813719
vn -0.478739 0.585576 0.654148
vn -0.609683 0.790585 -0.0571128
vn 0.632882 0.224193 0.741079
vn 0.439151 0.521535 -0.731538
vn 0.57332 0.807926 -0.136236
vn -0.574336 0.815502 -0.0713812
vn 0.472677 0.880431 0.0376626
vn 0.0915575 0.864815 0.493673
vn 0.0483411 0.787993 0.613784
vn 8.89172e-05 0.591153 0.80656
g grp1
usemtl mtl1
f 2//2 3//3 1//1 
f 8//8 2//2 1//1 
f 12//12 2//2 8//8 
f 1//1 9//9 8//8 
f 5//5 2//2 4//4 
f 3//3 2//2 5//5 
f 3//3 6//6 1//1 
f 4//4 2//2 12//12 
f 1//1 6//6 9//9 
f 6//6 15//15 9//9 
f 5//5 7//7 3//3 
f 171//171 6//6 3//3 
f 51//51 5//5 4//4 
f 4//4 12//12 56//56 
f 7//7 50//50 52//52 
f 5//5 51//51 50//50 
f 7//7 5//5 50//50 
f 171//171 53//53 6//6 
f 6//6 53//53 15//15 
f 53//53 171//171 52//52 
f 11//11 8//8 9//9 
f 9//9 15//15 11//11 
f 12//12 8//8 10//10 
f 8//8 11//11 172//172 
f 14//14 12//12 10//10 
f 13//13 14//14 10//10 
f 11//11 13//13 172//172 
f 14//14 56//56 12//12 
f 14//14 13//13 16//16 
f 56//56 14//14 58//58 
f 58//58 14//14 16//16 
f 16//16 62//62 58//58 
f 61//61 60//60 16//16 
f 61//61 16//16 13//13 
f 13//13 11//11 61//61 
f 74//74 18//18 17//17 
f 18//18 19//19 17//17 
f 77//77 25//25 23//23 
f 23//23 22//22 20//20 
f 21//21 29//29 23//23 
f 23//23 20//20 21//21 
f 22//22 25//25 24//24 
f 22//22 23//23 25//25 
f 22//22 24//24 173//173 
f 173//173 24//24 26//26 
f 24//24 25//25 26//26 
f 75//75 26//26 25//25 
f 32//32 27//27 33//33 
f 20//20 27//27 32//32 
f 32//32 21//21 20//20 
f 22//22 27//27 20//20 
f 19//19 22//22 173//173 
f 22//22 19//19 27//27 
f 28//28 27//27 19//19 
f 33//33 27//27 28//28 
f 77//77 23//23 29//29 
f 30//30 77//77 29//29 
f 21//21 31//31 29//29 
f 30//30 29//29 31//31 
f 31//31 36//36 30//30 
f 21//21 32//32 31//31 
f 33//33 35//35 32//32 
f 33//33 42//42 35//35 
f 33//33 28//28 42//42 
f 139//139 78//78 28//28 
f 81//81 30//30 36//36 
f 80//80 81//81 41//41 
f 31//31 32//32 34//34 
f 32//32 35//35 34//34 
f 36//36 31//31 34//34 
f 34//34 37//37 36//36 
f 34//34 35//35 37//37 
f 39//39 36//36 37//37 
f 38//38 37//37 35//35 
f 42//42 38//38 35//35 
f 39//39 37//37 40//40 
f 81//81 36//36 39//39 
f 38//38 40//40 37//37 
f 40//40 38//38 46//46 
f 39//39 40//40 41//41 
f 41//41 40//40 45//45 
f 40//40 46//46 45//45 
f 81//81 39//39 41//41 
f 45//45 48//48 41//41 
f 28//28 44//44 42//42 
f 43//43 38//38 42//42 
f 42//42 44//44 43//43 
f 38//38 43//43 46//46 
f 43//43 47//47 46//46 
f 48//48 45//45 46//46 
f 44//44 28//28 176//176 
f 43//43 44//44 176//176 
f 46//46 49//49 48//48 
f 46//46 47//47 49//49 
f 28//28 78//78 176//176 
f 180//180 82//82 47//47 
f 48//48 49//49 107//107 
f 82//82 107//107 49//49 
f 82//82 49//49 47//47 
f 86//86 51//51 56//56 
f 183//183 56//56 95//95 
f 4//4 56//56 51//51 
f 51//51 52//52 50//50 
f 51//51 90//90 52//52 
f 53//53 52//52 54//54 
f 53//53 54//54 55//55 
f 55//55 59//59 53//53 
f 90//90 54//54 52//52 
f 95//95 56//56 57//57 
f 66//66 95//95 57//57 
f 57//57 56//56 58//58 
f 57//57 58//58 64//64 
f 64//64 58//58 62//62 
f 57//57 64//64 66//66 
f 53//53 59//59 15//15 
f 67//67 15//15 59//59 
f 67//67 59//59 100//100 
f 100//100 59//59 98//98 
f 16//16 60//60 62//62 
f 11//11 15//15 61//61 
f 15//15 68//68 61//61 
f 67//67 68//68 15//15 
f 61//61 177//177 60//60 
f 68//68 67//67 72//72 
f 65//65 64//64 62//62 
f 65//65 62//62 63//63 
f 62//62 60//60 63//63 
f 65//65 63//63 102//102 
f 66//66 64//64 65//65 
f 66//66 65//65 102//102 
f 100//100 70//70 67//67 
f 69//69 63//63 60//60 
f 60//60 177//177 69//69 
f 177//177 178//178 69//69 
f 69//69 71//71 102//102 
f 69//69 178//178 71//71 
f 63//63 69//69 102//102 
f 72//72 67//67 70//70 
f 178//178 74//74 71//71 
f 73//73 102//102 71//71 
f 71//71 74//74 73//73 
f 72//72 76//76 74//74 
f 76//76 18//18 74//74 
f 76//76 72//72 70//70 
f 174//174 74//74 17//17 
f 174//174 73//73 74//74 
f 73//73 75//75 104//104 
f 73//73 175//175 75//75 
f 18//18 76//76 19//19 
f 76//76 28//28 19//19 
f 28//28 179//179 139//139 
f 75//75 25//25 77//77 
f 30//30 106//106 77//77 
f 82//82 180//180 107//107 
f 30//30 81//81 79//79 
f 181//181 81//81 80//80 
f 110//110 181//181 80//80 
f 110//110 80//80 48//48 
f 41//41 48//48 80//80 
f 110//110 48//48 107//107 
f 111//111 112//112 89//89 
f 84//84 87//87 83//83 
f 118//118 84//84 83//83 
f 117//117 116//116 84//84 
f 116//116 111//111 89//89 
f 84//84 116//116 89//89 
f 118//118 117//117 84//84 
f 83//83 85//85 192//192 
f 86//86 87//87 51//51 
f 51//51 89//89 112//112 
f 89//89 51//51 87//87 
f 88//88 83//83 87//87 
f 87//87 86//86 88//88 
f 86//86 95//95 88//88 
f 87//87 84//84 89//89 
f 112//112 90//90 51//51 
f 112//112 113//113 90//90 
f 113//113 124//124 90//90 
f 90//90 92//92 54//54 
f 55//55 54//54 92//92 
f 55//55 92//92 91//91 
f 91//91 98//98 55//55 
f 98//98 91//91 97//97 
f 92//92 90//90 124//124 
f 92//92 93//93 91//91 
f 93//93 97//97 91//91 
f 124//124 93//93 92//92 
f 97//97 93//93 126//126 
f 59//59 55//55 98//98 
f 85//85 83//83 94//94 
f 127//127 182//182 184//184 
f 96//96 95//95 66//66 
f 83//83 88//88 94//94 
f 88//88 95//95 96//96 
f 88//88 96//96 94//94 
f 94//94 96//96 99//99 
f 197//197 185//185 132//132 
f 126//126 131//131 97//97 
f 98//98 97//97 100//100 
f 102//102 96//96 66//66 
f 96//96 102//102 99//99 
f 198//198 94//94 99//99 
f 198//198 99//99 134//134 
f 134//134 99//99 102//102 
f 101//101 100//100 97//97 
f 101//101 103//103 100//100 
f 97//97 131//131 186//186 
f 131//131 187//187 186//186 
f 103//103 179//179 70//70 
f 103//103 70//70 100//100 
f 131//131 139//139 187//187 
f 134//134 102//102 104//104 
f 139//139 179//179 103//103 
f 73//73 104//104 102//102 
f 134//134 104//104 137//137 
f 141//141 104//104 75//75 
f 137//137 104//104 141//141 
f 75//75 140//140 141//141 
f 105//105 75//75 77//77 
f 148//148 78//78 139//139 
f 105//105 77//77 106//106 
f 107//107 108//108 110//110 
f 149//149 78//78 148//148 
f 204//204 107//107 180//180 
f 108//108 107//107 204//204 
f 30//30 79//79 106//106 
f 106//106 109//109 150//150 
f 79//79 109//109 106//106 
f 188//188 181//181 110//110 
f 205//205 188//188 110//110 
f 111//111 113//113 112//112 
f 111//111 114//114 113//113 
f 121//121 190//190 189//189 
f 114//114 122//122 115//115 
f 114//114 115//115 113//113 
f 122//122 114//114 123//123 
f 115//115 122//122 151//151 
f 115//115 124//124 113//113 
f 116//116 117//117 119//119 
f 116//116 119//119 111//111 
f 193//193 120//120 195//195 
f 191//191 194//194 196//196 
f 193//193 182//182 120//120 
f 120//120 182//182 128//128 
f 182//182 127//127 128//128 
f 121//121 189//189 195//195 
f 120//120 121//121 195//195 
f 120//120 130//130 121//121 
f 120//120 128//128 130//130 
f 121//121 123//123 114//114 
f 121//121 130//130 123//123 
f 128//128 133//133 130//130 
f 122//122 123//123 151//151 
f 130//130 153//153 152//152 
f 126//126 124//124 125//125 
f 125//125 124//124 115//115 
f 126//126 125//125 131//131 
f 125//125 115//115 151//151 
f 126//126 93//93 124//124 
f 129//129 128//128 127//127 
f 129//129 127//127 133//133 
f 133//133 127//127 199//199 
f 133//133 128//128 129//129 
f 200//200 153//153 130//130 
f 202//202 133//133 199//199 
f 131//131 153//153 201//201 
f 202//202 135//135 133//133 
f 201//201 203//203 131//131 
f 136//136 139//139 131//131 
f 138//138 135//135 202//202 
f 202//202 137//137 138//138 
f 135//135 138//138 154//154 
f 154//154 138//138 156//156 
f 143//143 138//138 137//137 
f 143//143 137//137 141//141 
f 156//156 138//138 143//143 
f 75//75 145//145 140//140 
f 140//140 145//145 146//146 
f 141//141 140//140 142//142 
f 146//146 142//142 140//140 
f 142//142 143//143 141//141 
f 143//143 142//142 155//155 
f 139//139 136//136 148//148 
f 145//145 105//105 144//144 
f 144//144 105//105 106//106 
f 144//144 158//158 147//147 
f 75//75 105//105 145//145 
f 145//145 144//144 146//146 
f 144//144 147//147 146//146 
f 147//147 158//158 146//146 
f 142//142 146//146 158//158 
f 158//158 144//144 160//160 
f 160//160 144//144 106//106 
f 205//205 110//110 168//168 
f 159//159 149//149 148//148 
f 204//204 163//163 108//108 
f 149//149 159//159 163//163 
f 164//164 106//106 150//150 
f 160//160 106//106 207//207 
f 123//123 152//152 151//151 
f 152//152 123//123 130//130 
f 151//151 152//152 153//153 
f 125//125 151//151 153//153 
f 125//125 153//153 131//131 
f 131//131 203//203 136//136 
f 156//156 157//157 154//154 
f 157//157 136//136 203//203 
f 157//157 203//203 154//154 
f 143//143 155//155 156//156 
f 156//156 162//162 157//157 
f 136//136 157//157 148//148 
f 155//155 142//142 158//158 
f 158//158 156//156 155//155 
f 156//156 158//158 161//161 
f 156//156 161//161 162//162 
f 162//162 206//206 157//157 
f 157//157 159//159 148//148 
f 158//158 160//160 161//161 
f 161//161 165//165 169//169 
f 162//162 161//161 169//169 
f 162//162 170//170 206//206 
f 159//159 213//213 163//163 
f 165//165 160//160 208//208 
f 166//166 209//209 205//205 
f 165//165 208//208 210//210 
f 205//205 168//168 166//166 
f 161//161 160//160 165//165 
f 165//165 210//210 167//167 
f 212//212 211//211 168//168 
f 163//163 213//213 168//168 
f 168//168 213//213 212//212 
f 165//165 167//167 169//169 
f 162//162 169//169 170//170 
f 169//169 167//167 170//170 
f 110//110 108//108 168//168 
f 163//163 168//168 108//108 
