v -155.835 -172.942 -69.1642
v -156.067 -173.726 -68.4252
v -155.658 -173.082 -68.9502
v -155.511 -172.625 -69.2777
v -155.753 -172.236 -69.4277
v -155.438 -172.799 -68.8878
v -156.526 -173.576 -68.4948
v -156.361 -172.615 -69.196
v -155.918 -173.721 -68.0531
v -155.16 -172.379 -67.3497
v -156.306 -173.989 -67.9158
v -158.829 -172.476 -68.2761
v -157.218 -171.053 -69.192
v -156.805 -173.783 -68.0551
v -156.831 -173.856 -67.2492
v -156.142 -173.513 -66.227
v -155.095 -171.84 -69.0764
v -155.278 -171.75 -69.4469
v -155.621 -170.668 -69.5586
v -155.013 -170.624 -69.3321
v -155.011 -170.005 -69.1441
v -155.794 -170.121 -69.3281
v -155.202 -169.393 -68.754
v -154.289 -169.718 -68.1737
v -154.521 -169.246 -68.4432
v -149.878 -162.719 -66.8544
v -146.76 -159.669 -65.9338
v -146.371 -158.768 -66.8671
v -145.933 -159.207 -65.4067
v -147.622 -155.149 -69.3406
v -146.75 -157.323 -68.5733
v -146.123 -156.936 -69.0218
v -145.772 -158.355 -67.7364
v -145.214 -157.987 -67.9887
v -145.239 -156.665 -68.8619
v -145.805 -155.683 -69.3576
v -146.199 -158.204 -67.8869
v -146.952 -157.957 -68.0344
v -149.943 -157.35 -67.6111
v -143.286 -156.794 -67.2942
v -144.553 -158.28 -66.8432
v -142.934 -157.011 -66.4846
v -144.079 -158.093 -64.1846
v -145.692 -154.036 -69.1382
v -143.679 -155.524 -68.2579
v -142.777 -154.661 -67.4568
v -142.049 -155.602 -66.5341
v -141.888 -155.861 -65.5429
v -151.347 -160.468 -61.9017
v -143.683 -156.167 -61.6558
v -145.004 -152.581 -67.8723
v -146.178 -151.928 -67.3652
v -142.564 -153.82 -66.1605
v -142.356 -155.361 -67.1083
v -141.978 -154.829 -66.6118
v -142.347 -154.281 -66.7414
v -141.644 -155.074 -65.7681
v -141.829 -154.413 -65.8132
v -141.63 -154.82 -64.6623
v -141.837 -154.438 -65.1787
v -142.601 -154.305 -64.5849
v -141.889 -155.941 -64.0478
v -141.573 -155.268 -64.5322
v -141.689 -155.517 -63.2882
v -142.007 -154.91 -63.6969
v -142.404 -155.248 -62.887
v -144.622 -154.847 -62.0474
v -159.243 -171.339 -68.8411
v -158.886 -170.098 -68.7318
v -158.567 -173.235 -65.6542
v -157.182 -173.631 -65.5536
v -156.679 -173.161 -64.9152
v -155.185 -171.741 -65.1705
v -157.176 -170.108 -68.8087
v -156.705 -168.644 -68.1208
v -156.04 -169.311 -68.5099
v -153.601 -168.831 -66.206
v -154.555 -169.22 -64.5739
v -155.85 -171.737 -64.342
v -153.06 -167.3 -67.3605
v -151.7 -165.341 -66.9495
v -155.539 -168.457 -68.2335
v -155.021 -168.322 -68.2585
v -155.386 -165.516 -67.4856
v -152.359 -166.76 -66.0665
v -154.056 -167.304 -67.8236
v -152.925 -165.511 -67.4186
v -151.626 -162.68 -67.3674
v -146.39 -159.688 -64.6725
v -153.167 -160.854 -66.7612
v -150.621 -151.443 -68.4279
v -147.199 -151.647 -68.1123
v -147.882 -151.354 -66.5927
v -163.062 -171.194 -68.152
v -162.418 -171.711 -67.4058
v -161.033 -171.781 -68.3699
v -162.163 -170.678 -69.5369
v -160.112 -171.365 -68.9237
v -161.695 -170.171 -69.7972
v -162.543 -170.13 -69.7297
v -162.645 -170.597 -69.5065
v -162.549 -170.908 -69.1893
v -161.81 -169.522 -69.7311
v -160.024 -170.465 -69.1261
v -162.924 -171.608 -66.5709
v -161.064 -172.021 -64.8283
v -158.073 -173.168 -64.5508
v -157.241 -172.763 -64.2784
v -156.471 -170.621 -63.9555
v -158.741 -172.283 -64.0276
v -160.218 -170.677 -64.1825
v -160.632 -169.201 -69.5314
v -161.237 -168.875 -68.6561
v -158.573 -168.608 -68.4562
v -158.531 -166.542 -68.0078
v -159.579 -166.886 -68.2627
v -158.553 -167.916 -64.2165
v -157.691 -164.844 -66.807
v -155.783 -168.999 -63.9887
v -154.203 -166.921 -63.8799
v -154.778 -159.15 -65.098
v -153.136 -156.926 -65.9911
v -152.595 -155.356 -66.6122
v -151.588 -153.979 -68.1298
v -148.813 -156.551 -60.3972
v -146.919 -153.72 -61.5782
v -146.993 -154.642 -60.5974
v -148.496 -151.07 -67.6623
v -150.106 -149.743 -66.3096
v -163.467 -171.006 -67.0427
v -163.203 -170.372 -68.1988
v -163.377 -170.706 -66.5574
v -163.189 -171.138 -66.2505
v -163.147 -169.939 -66.7334
v -162.714 -169.769 -65.8626
v -162.885 -170.539 -69.2529
v -162.645 -169.921 -69.1876
v -161.891 -168.82 -67.8814
v -162.364 -168.843 -66.8025
v -160.336 -167.171 -65.7525
v -161.884 -168.936 -65.5248
v -162.623 -169.281 -66.0954
v -161.836 -170.548 -64.9182
v -161.4 -168.421 -67.4639
v -157.459 -164.493 -63.7017
v -153.823 -160.98 -61.8012
v -154.991 -158.876 -64.1773
v -154.46 -159.027 -62.3686
v -153.827 -155.537 -63.3376
v -154.008 -156.691 -64.8286
v -152.416 -154.707 -67.1791
v -152.952 -154.286 -66.7695
v -153.164 -155.091 -66.1207
v -153.871 -155.337 -64.6763
v -152.769 -153.425 -67.4402
v -153.603 -152.855 -65.8219
v -153.231 -153.482 -66.6532
v -152.679 -150.7 -66.475
v -151.028 -148.833 -63.3966
v -150.598 -153.835 -60.5322
v -149.486 -152.145 -61.0779
v -151.229 -148.88 -66.2362
v -152.295 -156.993 -60.9112
v -152.373 -151.154 -62.7126
v -153.11 -150.758 -64.5324
v -152.03 -149.231 -64.445
v -152.067 -149.647 -63.2345
v -151.517 -150.094 -62.3287
v -151.152 -148.707 -63.6404
v -151.445 -148.986 -63.3291
v -156.067 -173.726 -68.4252
v -155.658 -173.082 -68.9502
v -155.511 -172.625 -69.2777
v -156.306 -173.989 -67.9158
v -156.306 -173.989 -67.9158
v -158.829 -172.476 -68.2761
v -155.278 -171.75 -69.4469
v -155.013 -170.624 -69.3321
v -155.011 -170.005 -69.1441
v -146.371 -158.768 -66.8671
v -146.952 -157.957 -68.0344
v -146.952 -157.957 -68.0344
v -143.683 -156.167 -61.6558
v -141.63 -154.82 -64.6623
v -141.689 -155.517 -63.2882
v -141.689 -155.517 -63.2882
v -159.243 -171.339 -68.8411
v -153.06 -167.3 -67.3605
v -151.7 -165.341 -66.9495
v -146.39 -159.688 -64.6725
v -147.199 -151.647 -68.1123
v -163.062 -171.194 -68.152
v -162.543 -170.13 -69.7297
v -162.543 -170.13 -69.7297
v -162.645 -170.597 -69.5065
v -161.81 -169.522 -69.7311
v -158.073 -173.168 -64.5508
v -160.632 -169.201 -69.5314
v -159.579 -166.886 -68.2627
v -157.691 -164.844 -66.807
v -154.203 -166.921 -63.8799
v -146.993 -154.642 -60.5974
v -148.496 -151.07 -67.6623
v -150.106 -149.743 -66.3096
v -163.467 -171.006 -67.0427
v -163.467 -171.006 -67.0427
v -163.203 -170.372 -68.1988
v -162.885 -170.539 -69.2529
v -162.885 -170.539 -69.2529
v -162.885 -170.539 -69.2529
v -160.336 -167.171 -65.7525
v -160.336 -167.171 -65.7525
v -157.459 -164.493 -63.7017
v -153.603 -152.855 -65.8219
v -151.229 -148.88 -66.2362
v -151.229 -148.88 -66.2362
v -151.229 -148.88 -66.2362
v -151.152 -148.707 -63.6404
v -151.152 -148.707 -63.6404
vn 0.0149096 -0.556962 -0.830404
vn -0.0166809 -0.752276 -0.658637
vn 0.304847 -0.66161 -0.685085
vn 0.198726 -0.41435 -0.888157
vn -0.0610604 -0.206904 -0.976454
vn 0.861292 -0.466818 -0.200643
vn -0.254837 -0.695886 -0.671418
vn -0.280849 -0.350601 -0.893422
vn 0.739759 -0.670174 -0.0601894
vn 0.900055 -0.435768 -0.00282297
vn -0.255892 -0.885522 -0.387777
vn -0.21197 -0.507822 -0.834977
vn -0.229855 0.0408964 -0.972365
vn -0.385022 -0.859717 -0.335626
vn -0.237308 -0.971215 0.0206557
vn 0.538477 -0.800493 0.26316
vn 0.905172 -0.284583 -0.315714
vn 0.203461 -0.10532 -0.973402
vn 0.0654274 0.150295 -0.986474
vn 0.335968 0.145434 -0.930577
vn 0.20533 0.462844 -0.862331
vn -0.129554 0.51142 -0.849509
vn 0.0265313 0.518222 -0.854834
vn 0.869699 -0.124926 -0.477512
vn 0.456933 0.235704 -0.857704
vn 0.562886 -0.466402 -0.68237
vn 0.658545 -0.699542 -0.277414
vn 0.645306 -0.614182 -0.45427
vn 0.470885 -0.848903 -0.240065
vn -0.197367 -0.155866 -0.96786
vn -0.152337 -0.56369 -0.811817
vn 0.0257067 -0.494035 -0.869062
vn 0.112419 -0.81191 -0.572857
vn 0.38856 -0.644891 -0.658132
vn 0.433633 -0.375485 -0.81913
vn 0.234973 -0.105439 -0.966266
vn -0.0736313 -0.748366 -0.659186
vn -0.158708 -0.702498 -0.693764
vn -0.384829 -0.241485 -0.890838
vn 0.640394 -0.486902 -0.593988
vn 0.513969 -0.802269 -0.303644
vn 0.724741 -0.644399 -0.243926
vn 0.606244 -0.777909 0.165306
vn 0.286072 0.304935 -0.908393
vn 0.566629 -0.0958848 -0.818375
vn 0.63661 0.27187 -0.721675
vn 0.844114 -0.341761 -0.413123
vn 0.849521 -0.516381 -0.108004
vn 0.266582 -0.529983 0.805017
vn 0.394857 -0.550794 0.735333
vn 0.517327 0.7011 -0.490746
vn 0.397426 0.916592 0.043719
vn 0.542037 0.840282 -0.0110258
vn 0.740811 -0.150439 -0.654651
vn 0.854458 0.152611 -0.496599
vn 0.695793 0.551412 -0.460236
vn 0.979427 -0.0306044 -0.199465
vn 0.843686 0.509684 -0.168569
vn 0.963668 0.266872 0.0110918
vn 0.599765 0.775491 0.19722
vn 0.381648 0.86322 0.330449
vn 0.812438 -0.581737 0.0390783
vn 0.981845 -0.18947 -0.00906604
vn 0.979189 0.160791 0.123834
vn 0.480025 0.771341 0.417863
vn 0.467211 0.577741 0.669275
vn 0.394152 0.737833 0.547948
vn 0.113497 -0.28855 -0.950714
vn 0.0919729 0.205863 -0.974249
vn -0.34741 -0.937513 0.0193814
vn 0.0287128 -0.960846 0.275591
vn 0.409989 -0.727757 0.549799
vn 0.786172 -0.480615 0.388513
vn -0.150528 0.460709 -0.874693
vn -0.00701325 0.302112 -0.953247
vn -0.172255 0.52062 -0.836231
vn 0.88746 -0.45624 0.0652738
vn 0.642813 -0.303656 0.703267
vn 0.5026 -0.372734 0.78004
vn 0.883099 -0.421884 -0.205307
vn 0.791558 -0.518019 -0.324178
vn -0.154274 0.348456 -0.924542
vn 0.0684613 0.323503 -0.943747
vn -0.0188442 0.242384 -0.969997
vn 0.818168 -0.539521 0.19879
vn 0.25556 0.139873 -0.956621
vn 0.218253 -0.0295643 -0.975444
vn -0.00370476 -0.0374096 -0.999293
vn 0.680132 -0.676324 -0.282855
vn -0.354073 0.218689 -0.909289
vn -0.14113 0.456594 -0.87841
vn 0.178733 0.587346 -0.789354
vn 0.485008 0.866462 0.118369
vn -0.484377 -0.816198 -0.314959
vn -0.329826 -0.912574 -0.241711
vn -0.202928 -0.822898 -0.530716
vn -0.078484 -0.607896 -0.790128
vn 0.0661277 -0.480828 -0.874318
vn 0.126427 -0.184195 -0.974725
vn -0.10009 -0.24144 -0.96524
vn -0.321317 -0.62648 -0.710126
vn -0.371318 -0.756569 -0.538262
vn 0.0292208 0.106488 -0.993885
vn 0.316442 -0.0922825 -0.944112
vn -0.571904 -0.81653 0.0787617
vn -0.474813 -0.594245 0.649173
vn -0.325215 -0.923846 0.201851
vn 0.184944 -0.466803 0.864807
vn 0.132137 -0.0771957 0.988221
vn -0.133858 -0.324915 0.936222
vn -0.260726 -0.0117422 0.965341
vn 0.297604 0.120689 -0.94703
vn -0.441311 0.806248 -0.393966
vn 0.274959 0.12192 -0.953694
vn 0.107613 0.417121 -0.902458
vn -0.679824 0.669322 -0.299744
vn -0.263044 0.0598683 0.962925
vn -0.162709 0.47432 -0.865186
vn 0.161237 -0.108332 0.980952
vn 0.570182 -0.433223 0.698004
vn -0.720489 0.359284 -0.593136
vn -0.639741 0.0566159 -0.766503
vn -0.639468 -0.272407 -0.71894
vn -0.461756 -0.190076 -0.866402
vn 0.0661603 -0.203725 0.97679
vn 0.540043 0.696098 0.473076
vn 0.120631 0.0676939 0.990387
vn 0.100208 0.756365 -0.646429
vn 0.278055 0.715085 -0.641357
vn -0.84472 -0.520952 0.122706
vn -0.942056 -0.177642 -0.284558
vn -0.931651 0.139198 0.335634
vn -0.79377 -0.279249 0.540323
vn -0.903546 0.415772 0.103628
vn -0.767183 0.259272 0.586693
vn -0.614829 -0.640251 -0.460505
vn -0.737176 0.605084 -0.300742
vn -0.470503 0.820855 -0.323764
vn -0.716952 0.696763 -0.0223586
vn -0.575811 0.786346 -0.223835
vn -0.593692 0.509049 0.623217
vn -0.760728 0.551304 0.342574
vn -0.542259 0.0741843 0.83693
vn -0.367595 0.846659 -0.384764
vn -0.840753 0.533002 0.095099
vn -0.168024 -0.212346 0.962641
vn -0.920893 0.388243 -0.0349908
vn -0.815141 0.295031 0.4985
vn -0.940064 0.225245 0.256018
vn -0.912947 0.20052 -0.355416
vn -0.633927 -0.358304 -0.685387
vn -0.816824 -0.273539 -0.507912
vn -0.825442 -0.091126 -0.557083
vn -0.977653 0.0649908 -0.199926
vn -0.738771 -0.0212879 -0.67362
vn -0.954313 0.205416 -0.217002
vn -0.903271 -0.126971 -0.409852
vn -0.777564 0.443732 -0.445529
vn 0.378539 0.809163 0.449403
vn -0.245937 0.199244 0.948587
vn 0.223739 0.534627 0.814932
vn 0.45085 0.639478 -0.622738
vn -0.523543 0.0981954 0.846322
vn -0.753448 0.25903 0.604334
vn -0.914834 0.383085 0.127769
vn -0.709231 0.704737 0.018368
vn -0.745732 0.519239 0.417462
vn -0.357577 0.50563 0.785161
vn 0.658912 0.751473 -0.0335097
vn -0.459637 0.751765 0.472845
vn 0.608767 -0.757653 -0.235297
vn 0.757989 -0.590046 -0.278026
vn 0.823913 -0.403347 -0.398094
vn 0.56478 -0.825081 -0.0163037
vn 0.089754 -0.960817 0.262251
vn -0.392041 -0.893755 -0.217958
vn 0.847412 -0.235075 -0.476059
vn 0.854615 -0.0416378 -0.517591
vn 0.77999 0.116687 -0.614817
vn -0.0493274 -0.89253 -0.448282
vn 0.423069 -0.454198 -0.784039
vn -0.140344 -0.000945612 -0.990102
vn 0.472667 0.448412 0.758626
vn 0.555577 0.758743 0.340063
vn 0.746139 -0.627155 0.223502
vn 0.625434 0.530603 0.572095
vn -0.188159 0.139685 -0.972155
vn 0.510407 -0.0029804 -0.859928
vn 0.386529 -0.115998 -0.914954
vn 0.516292 -0.617141 0.593784
vn 0.371994 0.924221 -0.0862257
vn -0.942056 -0.177642 -0.284558
vn -0.751525 0.555542 -0.355785
vn -0.733504 -0.156717 -0.661372
vn -0.733504 -0.156717 -0.661372
vn -0.423184 0.822796 -0.379372
vn -0.0082961 -0.718969 0.694992
vn -0.371744 0.756044 -0.538706
vn 0.038729 0.51632 -0.855519
vn -0.784321 0.608552 -0.120436
vn -0.0438557 -0.142792 0.988781
vn 0.470662 0.598476 0.648308
vn 0.494228 0.867692 -0.0533759
vn 0.618668 0.783126 -0.0629542
vn -0.933574 -0.177703 -0.311224
vn -0.955456 0.293983 -0.0260213
vn -0.867647 0.465653 -0.174227
vn -0.872929 0.372595 -0.31491
vn -0.733504 -0.156717 -0.661372
vn -0.949801 -0.177441 -0.257669
vn -0.695183 0.649552 0.307901
vn -0.550708 0.293254 0.781488
vn -0.558566 0.0659897 0.826831
vn -0.913883 -0.177277 -0.365228
vn -0.499406 0.491583 -0.7134
vn -0.629217 0.766103 -0.131039
vn 0.604987 0.793081 -0.0708056
vn -0.545019 0.83698 0.0491829
vn -0.214976 0.818719 0.532432
g grp1
usemtl mtl1
f 3//3 2//2 1//1 
f 3//3 1//1 4//4 
f 4//4 1//1 5//5 
f 173//173 6//6 172//172 
f 8//8 1//1 7//7 
f 7//7 1//1 2//2 
f 172//172 9//9 171//171 
f 5//5 1//1 8//8 
f 6//6 9//9 172//172 
f 6//6 10//10 9//9 
f 2//2 11//11 7//7 
f 171//171 9//9 174//174 
f 8//8 7//7 12//12 
f 13//13 5//5 8//8 
f 15//15 14//14 11//11 
f 14//14 12//12 7//7 
f 14//14 7//7 11//11 
f 9//9 16//16 174//174 
f 10//10 16//16 9//9 
f 15//15 175//175 16//16 
f 6//6 173//173 17//17 
f 17//17 10//10 6//6 
f 18//18 4//4 5//5 
f 177//177 17//17 173//173 
f 18//18 5//5 19//19 
f 18//18 19//19 20//20 
f 177//177 178//178 17//17 
f 5//5 13//13 19//19 
f 21//21 20//20 19//19 
f 22//22 19//19 13//13 
f 21//21 19//19 22//22 
f 22//22 23//23 21//21 
f 179//179 25//25 24//24 
f 178//178 179//179 24//24 
f 24//24 17//17 178//178 
f 28//28 27//27 26//26 
f 28//28 29//29 27//27 
f 32//32 31//31 30//30 
f 34//34 33//33 32//32 
f 32//32 36//36 35//35 
f 35//35 34//34 32//32 
f 37//37 31//31 33//33 
f 31//31 32//32 33//33 
f 180//180 37//37 33//33 
f 38//38 37//37 180//180 
f 38//38 31//31 37//37 
f 31//31 38//38 39//39 
f 42//42 41//41 40//40 
f 40//40 41//41 34//34 
f 34//34 35//35 40//40 
f 34//34 41//41 33//33 
f 180//180 33//33 29//29 
f 41//41 29//29 33//33 
f 29//29 41//41 43//43 
f 43//43 41//41 42//42 
f 36//36 32//32 30//30 
f 36//36 30//30 44//44 
f 36//36 45//45 35//35 
f 45//45 36//36 44//44 
f 44//44 46//46 45//45 
f 45//45 40//40 35//35 
f 40//40 47//47 42//42 
f 47//47 48//48 42//42 
f 48//48 43//43 42//42 
f 43//43 50//50 49//49 
f 46//46 44//44 51//51 
f 53//53 51//51 52//52 
f 54//54 40//40 45//45 
f 54//54 47//47 40//40 
f 54//54 45//45 46//46 
f 46//46 55//55 54//54 
f 55//55 47//47 54//54 
f 55//55 46//46 56//56 
f 47//47 55//55 57//57 
f 47//47 57//57 48//48 
f 58//58 55//55 56//56 
f 56//56 46//46 51//51 
f 55//55 58//58 57//57 
f 59//59 57//57 58//58 
f 53//53 58//58 56//56 
f 60//60 58//58 53//53 
f 60//60 59//59 58//58 
f 53//53 56//56 51//51 
f 53//53 61//61 60//60 
f 48//48 62//62 43//43 
f 48//48 57//57 63//63 
f 63//63 62//62 48//48 
f 59//59 63//63 57//57 
f 59//59 64//64 63//63 
f 184//184 60//60 61//61 
f 185//185 43//43 62//62 
f 185//185 62//62 63//63 
f 61//61 65//65 184//184 
f 65//65 186//186 184//184 
f 185//185 50//50 43//43 
f 186//186 66//66 183//183 
f 67//67 65//65 61//61 
f 65//65 67//67 66//66 
f 186//186 65//65 66//66 
f 13//13 12//12 68//68 
f 69//69 13//13 187//187 
f 12//12 13//13 8//8 
f 14//14 15//15 176//176 
f 15//15 70//70 176//176 
f 71//71 15//15 16//16 
f 72//72 71//71 16//16 
f 16//16 73//73 72//72 
f 15//15 71//71 70//70 
f 74//74 13//13 69//69 
f 74//74 69//69 75//75 
f 22//22 13//13 74//74 
f 76//76 22//22 74//74 
f 23//23 22//22 76//76 
f 75//75 76//76 74//74 
f 10//10 73//73 16//16 
f 73//73 10//10 77//77 
f 78//78 73//73 77//77 
f 79//79 73//73 78//78 
f 23//23 25//25 21//21 
f 24//24 10//10 17//17 
f 24//24 80//80 10//10 
f 10//10 80//80 77//77 
f 25//25 188//188 24//24 
f 81//81 77//77 80//80 
f 23//23 76//76 82//82 
f 83//83 23//23 82//82 
f 83//83 25//25 23//23 
f 84//84 83//83 82//82 
f 82//82 76//76 75//75 
f 84//84 82//82 75//75 
f 77//77 85//85 78//78 
f 25//25 83//83 86//86 
f 86//86 188//188 25//25 
f 86//86 189//189 188//188 
f 84//84 87//87 86//86 
f 87//87 189//189 86//86 
f 84//84 86//86 83//83 
f 85//85 77//77 81//81 
f 87//87 26//26 189//189 
f 87//87 84//84 88//88 
f 88//88 26//26 87//87 
f 26//26 89//89 81//81 
f 26//26 27//27 89//89 
f 85//85 81//81 89//89 
f 28//28 26//26 181//181 
f 26//26 88//88 181//181 
f 90//90 39//39 88//88 
f 39//39 182//182 88//88 
f 29//29 89//89 27//27 
f 29//29 43//43 89//89 
f 49//49 190//190 43//43 
f 30//30 31//31 39//39 
f 30//30 91//91 44//44 
f 67//67 183//183 66//66 
f 92//92 51//51 44//44 
f 52//52 51//51 191//191 
f 52//52 191//191 93//93 
f 61//61 52//52 93//93 
f 52//52 61//61 53//53 
f 67//67 61//61 93//93 
f 96//96 95//95 94//94 
f 99//99 98//98 97//97 
f 99//99 97//97 100//100 
f 97//97 102//102 101//101 
f 96//96 94//94 102//102 
f 96//96 102//102 97//97 
f 97//97 101//101 100//100 
f 100//100 103//103 99//99 
f 12//12 98//98 68//68 
f 95//95 96//96 176//176 
f 98//98 12//12 96//96 
f 98//98 99//99 104//104 
f 104//104 68//68 98//98 
f 104//104 69//69 68//68 
f 96//96 97//97 98//98 
f 176//176 70//70 95//95 
f 70//70 105//105 95//95 
f 70//70 106//106 105//105 
f 71//71 107//107 70//70 
f 197//197 71//71 72//72 
f 108//108 197//197 72//72 
f 72//72 79//79 108//108 
f 109//109 108//108 79//79 
f 106//106 70//70 107//107 
f 108//108 110//110 197//197 
f 108//108 109//109 110//110 
f 197//197 110//110 106//106 
f 111//111 110//110 109//109 
f 79//79 72//72 73//73 
f 112//112 99//99 103//103 
f 198//198 196//196 113//113 
f 75//75 69//69 114//114 
f 112//112 104//104 99//99 
f 114//114 69//69 104//104 
f 112//112 114//114 104//104 
f 115//115 114//114 112//112 
f 116//116 198//198 113//113 
f 109//109 117//117 111//111 
f 78//78 109//109 79//79 
f 75//75 114//114 84//84 
f 115//115 84//84 114//114 
f 115//115 112//112 199//199 
f 118//118 115//115 199//199 
f 84//84 115//115 118//118 
f 109//109 78//78 119//119 
f 78//78 120//120 119//119 
f 119//119 117//117 109//109 
f 119//119 201//201 117//117 
f 85//85 190//190 120//120 
f 78//78 85//85 120//120 
f 201//201 49//49 117//117 
f 90//90 84//84 118//118 
f 120//120 190//190 49//49 
f 84//84 90//90 88//88 
f 121//121 90//90 118//118 
f 39//39 90//90 122//122 
f 122//122 90//90 121//121 
f 122//122 123//123 39//39 
f 30//30 39//39 124//124 
f 49//49 50//50 125//125 
f 91//91 30//30 124//124 
f 93//93 126//126 67//67 
f 125//125 50//50 127//127 
f 183//183 67//67 202//202 
f 202//202 67//67 126//126 
f 91//91 92//92 44//44 
f 129//129 128//128 91//91 
f 91//91 128//128 92//92 
f 93//93 191//191 203//203 
f 93//93 203//203 204//204 
f 95//95 105//105 94//94 
f 105//105 130//130 94//94 
f 192//192 205//205 131//131 
f 133//133 132//132 130//130 
f 105//105 133//133 130//130 
f 134//134 206//206 132//132 
f 135//135 132//132 133//133 
f 105//105 106//106 133//133 
f 136//136 101//101 102//102 
f 94//94 136//136 102//102 
f 208//208 137//137 193//193 
f 209//209 194//194 195//195 
f 137//137 196//196 193//193 
f 138//138 196//196 137//137 
f 138//138 113//113 196//196 
f 210//210 192//192 131//131 
f 208//208 207//207 137//137 
f 207//207 139//139 137//137 
f 139//139 138//138 137//137 
f 206//206 134//134 207//207 
f 134//134 139//139 207//207 
f 139//139 140//140 138//138 
f 135//135 134//134 132//132 
f 142//142 141//141 139//139 
f 143//143 106//106 111//111 
f 133//133 106//106 143//143 
f 117//117 143//143 111//111 
f 135//135 133//133 143//143 
f 106//106 110//110 111//111 
f 113//113 138//138 144//144 
f 140//140 113//113 144//144 
f 116//116 113//113 140//140 
f 144//144 138//138 140//140 
f 139//139 141//141 211//211 
f 116//116 140//140 200//200 
f 212//212 141//141 117//117 
f 140//140 145//145 200//200 
f 117//117 213//213 212//212 
f 117//117 49//49 146//146 
f 200//200 145//145 147//147 
f 147//147 121//121 200//200 
f 148//148 147//147 145//145 
f 149//149 147//147 148//148 
f 121//121 147//147 150//150 
f 122//122 121//121 150//150 
f 150//150 147//147 149//149 
f 123//123 151//151 39//39 
f 152//152 151//151 123//123 
f 153//153 123//123 122//122 
f 123//123 153//153 152//152 
f 122//122 150//150 153//153 
f 154//154 153//153 150//150 
f 125//125 146//146 49//49 
f 155//155 124//124 151//151 
f 91//91 124//124 155//155 
f 157//157 156//156 155//155 
f 151//151 124//124 39//39 
f 152//152 155//155 151//151 
f 152//152 157//157 155//155 
f 152//152 214//214 157//157 
f 214//214 152//152 153//153 
f 158//158 155//155 156//156 
f 91//91 155//155 158//158 
f 159//159 93//93 204//204 
f 125//125 127//127 160//160 
f 126//126 161//161 202//202 
f 161//161 160//160 127//127 
f 129//129 91//91 162//162 
f 215//215 91//91 158//158 
f 135//135 142//142 134//134 
f 139//139 134//134 142//142 
f 141//141 142//142 135//135 
f 141//141 135//135 143//143 
f 117//117 141//141 143//143 
f 146//146 213//213 117//117 
f 148//148 163//163 149//149 
f 213//213 146//146 163//163 
f 148//148 213//213 163//163 
f 149//149 154//154 150//150 
f 163//163 164//164 149//149 
f 125//125 163//163 146//146 
f 214//214 153//153 154//154 
f 154//154 149//149 156//156 
f 165//165 156//156 149//149 
f 164//164 165//165 149//149 
f 163//163 160//160 164//164 
f 125//125 160//160 163//163 
f 165//165 158//158 156//156 
f 167//167 166//166 165//165 
f 167//167 165//165 164//164 
f 160//160 168//168 164//164 
f 161//161 168//168 160//160 
f 216//216 158//158 166//166 
f 204//204 217//217 169//169 
f 218//218 216//216 166//166 
f 169//169 159//159 204//204 
f 166//166 158//158 165//165 
f 170//170 218//218 166//166 
f 159//159 219//219 170//170 
f 159//159 168//168 161//161 
f 170//170 168//168 159//159 
f 167//167 170//170 166//166 
f 168//168 167//167 164//164 
f 168//168 170//170 167//167 
f 159//159 126//126 93//93 
f 126//126 159//159 161//161 
