v -43.0514 -85.0709 1510.49
v -43.4577 -85.3421 1510.27
v -43.1651 -85.1289 1510.32
v -42.8595 -84.9962 1510.62
v -42.8832 -84.9993 1510.47
v -43.2848 -85.2668 1510.15
v -43.5032 -85.2976 1510.12
v -43.8038 -85.5526 1509.79
v -43.2941 -85.4002 1510.06
v -42.7655 -85.1461 1510.41
v -42.8182 -85.0334 1510.45
v -42.8269 -85.0656 1510.56
v -42.8649 -85.1241 1510.73
v -43.2423 -85.3259 1510.49
v -43.7107 -85.622 1510.19
v -43.8715 -85.5652 1509.97
v -43.6993 -85.4118 1510.03
v -43.8597 -85.4955 1509.87
v -43.8546 -85.6573 1509.92
v -43.8123 -85.7204 1509.87
v -43.7224 -85.6946 1509.77
v -43.7527 -85.8604 1509.94
v -43.6431 -85.8566 1509.88
v -43.7379 -85.9619 1510.01
v -43.4088 -85.8203 1510.18
v -43.1582 -85.6562 1510.24
v -42.844 -85.522 1510.54
v -43.2051 -85.6894 1510.38
v -43.0378 -85.56 1510.54
v -42.7247 -85.4559 1510.66
v -42.8246 -85.3671 1510.74
v -42.7482 -85.2918 1510.67
v -42.7719 -85.1712 1510.61
v -42.6353 -85.2577 1510.51
v -42.6196 -85.3661 1510.6
v -42.7438 -85.3976 1510.48
v -43.2796 -85.6327 1510.1
v -43.0039 -85.3723 1510.25
v -43.1939 -85.4088 1510.55
v -43.6799 -85.7423 1510.21
v -43.1956 -85.5262 1510.52
v -43.5897 -85.8338 1510.19
v -43.8625 -85.8508 1510.08
v -43.0514 -85.0709 1510.49
v -43.1651 -85.1289 1510.32
v -42.8595 -84.9962 1510.62
v -42.8595 -84.9962 1510.62
v -42.8595 -84.9962 1510.62
v -42.8832 -84.9993 1510.47
v -42.8832 -84.9993 1510.47
v -42.8832 -84.9993 1510.47
v -43.5032 -85.2976 1510.12
v -43.8038 -85.5526 1509.79
v -42.7655 -85.1461 1510.41
v -42.8182 -85.0334 1510.45
v -42.8182 -85.0334 1510.45
v -42.8269 -85.0656 1510.56
v -42.8269 -85.0656 1510.56
v -42.8649 -85.1241 1510.73
v -43.8715 -85.5652 1509.97
v -43.8597 -85.4955 1509.87
v -43.8597 -85.4955 1509.87
v -43.7224 -85.6946 1509.77
v -43.6431 -85.8566 1509.88
v -43.7379 -85.9619 1510.01
v -43.7379 -85.9619 1510.01
v -43.4088 -85.8203 1510.18
v -42.844 -85.522 1510.54
v -42.7247 -85.4559 1510.66
v -42.7247 -85.4559 1510.66
v -42.8246 -85.3671 1510.74
v -42.6353 -85.2577 1510.51
v -42.6353 -85.2577 1510.51
v -42.6196 -85.3661 1510.6
v -42.6196 -85.3661 1510.6
v -42.6196 -85.3661 1510.6
v -43.8625 -85.8508 1510.08
v -43.8625 -85.8508 1510.08
vn -0.449043 0.893501 -0.00401414
vn -0.644722 0.562129 0.518019
vn -0.488608 0.865562 0.10984
vn -0.362877 0.930924 -0.0412428
vn -0.439985 0.896556 0.0509973
vn 0.140086 0.658454 -0.739469
vn -0.0319388 0.797128 -0.602965
vn 0.153047 0.641312 -0.751861
vn 0.409683 0.303313 -0.860326
vn 0.448499 0.253219 -0.857163
vn 0.22757 0.567645 -0.791196
vn 0.880746 0.414155 0.2297
vn 0.798718 0.336632 0.498728
vn -0.635767 0.315037 0.704664
vn -0.656546 0.21261 0.723702
vn -0.710187 0.455495 0.536804
vn -0.632044 0.693978 0.34484
vn -0.622413 0.749754 0.224657
vn -0.921358 -0.174072 -0.347561
vn -0.747645 -0.376623 -0.546975
vn -0.546344 -0.497703 -0.673647
vn -0.547931 -0.556388 -0.624663
vn -0.352693 -0.606705 -0.712403
vn -0.550778 -0.536871 -0.639072
vn 0.548784 -0.780399 -0.29969
vn 0.627934 -0.633998 -0.451381
vn 0.629858 -0.714502 -0.304575
vn 0.133503 -0.863555 0.486261
vn -0.0234823 -0.761053 0.648265
vn 0.0744985 -0.837785 0.540894
vn -0.309452 -0.388788 0.867803
vn 0.664422 0.264555 0.698966
vn 0.763038 0.554081 0.332818
vn 0.666253 0.487376 0.564422
vn 0.628729 0.548534 0.551191
vn 0.649281 -0.536623 -0.538953
vn 0.630789 -0.319101 -0.707305
vn 0.592172 -0.117963 -0.79713
vn -0.536924 0.00425822 0.84362
vn -0.4658 -0.22997 0.854484
vn -0.343198 -0.402302 0.848745
vn -0.131007 -0.700218 0.701806
vn -0.266576 -0.59398 0.759029
vn -0.615208 0.358079 0.702352
vn -0.0177588 0.776643 -0.629691
vn 0.839804 0.523586 -0.143482
vn 0.941477 0.196058 0.274196
vn -0.627783 0.441249 0.641239
vn 0.0626056 0.727555 -0.683187
vn 0.512575 0.810378 0.283821
vn 0.839804 0.523586 -0.143482
vn -0.570834 0.769114 0.287424
vn -0.803064 -0.229636 -0.549868
vn 0.812536 0.567526 0.133041
vn 0.913878 0.362794 0.182229
vn 0.512575 0.810378 0.283821
vn 0.512575 0.810378 0.283821
vn 0.839804 0.523586 -0.143482
vn -0.606866 0.295895 0.737672
vn -0.981679 -0.0892373 -0.168352
vn -0.0292975 0.803647 -0.594385
vn -0.934367 -0.132017 -0.330952
vn 0.539265 -0.00272345 -0.842132
vn 0.608193 -0.586538 -0.534859
vn 0.501702 -0.813794 -0.293315
vn -0.0722072 -0.781947 0.619149
vn 0.153381 -0.880942 0.447678
vn 0.212506 -0.899891 0.380839
vn 0.570399 0.0182147 0.821166
vn 0.591674 -0.74388 -0.310747
vn 0.612382 0.0812164 0.786379
vn 0.63837 -0.268709 -0.721304
vn 0.592852 0.79673 0.11725
vn 0.675291 -0.410659 -0.612651
vn 0.50273 -0.802784 -0.320624
vn 0.493874 0.00350854 0.869526
vn -0.680847 0.115306 0.723293
vn -0.840788 -0.35641 -0.40749
g grp1
usemtl mtl1
f 3//3 2//2 1//1 
f 3//3 1//1 4//4 
f 3//3 4//4 5//5 
f 45//45 49//49 6//6 
f 7//7 45//45 6//6 
f 8//8 7//7 6//6 
f 9//9 8//8 6//6 
f 6//6 10//10 9//9 
f 10//10 6//6 11//11 
f 55//55 12//12 54//54 
f 57//57 56//56 50//50 
f 46//46 58//58 51//51 
f 47//47 13//13 12//12 
f 2//2 59//59 48//48 
f 44//44 2//2 48//48 
f 14//14 59//59 2//2 
f 2//2 15//15 14//14 
f 16//16 15//15 2//2 
f 17//17 16//16 2//2 
f 17//17 2//2 52//52 
f 18//18 17//17 52//52 
f 61//61 7//7 8//8 
f 19//19 62//62 53//53 
f 20//20 19//19 53//53 
f 20//20 53//53 21//21 
f 22//22 20//20 21//21 
f 22//22 21//21 23//23 
f 24//24 22//22 23//23 
f 25//25 65//65 64//64 
f 25//25 64//64 26//26 
f 25//25 26//26 27//27 
f 68//68 28//28 67//67 
f 29//29 28//28 68//68 
f 29//29 68//68 30//30 
f 31//31 29//29 30//30 
f 71//71 69//69 32//32 
f 13//13 71//71 32//32 
f 32//32 33//33 13//13 
f 34//34 33//33 32//32 
f 34//34 32//32 35//35 
f 74//74 36//36 72//72 
f 70//70 36//36 75//75 
f 69//69 76//76 32//32 
f 70//70 27//27 36//36 
f 27//27 26//26 36//36 
f 26//26 37//37 36//36 
f 26//26 64//64 37//37 
f 64//64 63//63 37//37 
f 38//38 37//37 63//63 
f 63//63 9//9 38//38 
f 9//9 63//63 8//8 
f 38//38 9//9 10//10 
f 72//72 38//38 10//10 
f 73//73 54//54 33//33 
f 33//33 54//54 12//12 
f 13//13 33//33 12//12 
f 36//36 38//38 72//72 
f 36//36 37//37 38//38 
f 39//39 31//31 59//59 
f 39//39 59//59 14//14 
f 15//15 39//39 14//14 
f 39//39 15//15 40//40 
f 40//40 41//41 39//39 
f 40//40 42//42 41//41 
f 40//40 43//43 42//42 
f 40//40 15//15 77//77 
f 77//77 15//15 16//16 
f 19//19 78//78 60//60 
f 19//19 60//60 62//62 
f 18//18 16//16 17//17 
f 78//78 19//19 20//20 
f 20//20 22//22 78//78 
f 24//24 78//78 22//22 
f 43//43 66//66 42//42 
f 42//42 66//66 67//67 
f 28//28 42//42 67//67 
f 28//28 29//29 42//42 
f 41//41 42//42 29//29 
f 31//31 41//41 29//29 
f 39//39 41//41 31//31 
f 3//3 52//52 2//2 
f 6//6 49//49 11//11 
