v 43.0514 -85.0709 1510.49
v 43.486 -85.3554 1510.26
v 43.1589 -85.1245 1510.32
v 42.8595 -84.9962 1510.62
v 42.8832 -84.9993 1510.47
v 43.3091 -85.2767 1510.13
v 43.5032 -85.2976 1510.12
v 43.8038 -85.5526 1509.79
v 43.2891 -85.3989 1510.06
v 42.7655 -85.1461 1510.41
v 42.8182 -85.0334 1510.45
v 42.8268 -85.0628 1510.56
v 42.8649 -85.1241 1510.73
v 43.2267 -85.3146 1510.5
v 43.7455 -85.6402 1510.17
v 43.8715 -85.5652 1509.97
v 43.7045 -85.4085 1510.03
v 43.8597 -85.4955 1509.87
v 43.8573 -85.6619 1509.92
v 43.8152 -85.7195 1509.87
v 43.7224 -85.6946 1509.77
v 43.752 -85.8701 1509.94
v 43.6431 -85.8566 1509.88
v 43.7379 -85.9619 1510.01
v 43.4088 -85.8203 1510.18
v 43.1531 -85.6587 1510.24
v 42.844 -85.522 1510.54
v 43.2011 -85.69 1510.38
v 43.0317 -85.5585 1510.55
v 42.7247 -85.4559 1510.66
v 42.8246 -85.3671 1510.74
v 42.75 -85.2921 1510.68
v 42.7727 -85.1699 1510.62
v 42.6353 -85.2577 1510.51
v 42.6196 -85.3661 1510.6
v 42.7103 -85.3824 1510.5
v 43.2863 -85.6415 1510.09
v 42.9889 -85.3615 1510.25
v 43.18 -85.3991 1510.56
v 43.7169 -85.7629 1510.19
v 43.1791 -85.513 1510.54
v 43.6213 -85.8555 1510.17
v 43.8625 -85.8508 1510.08
v 43.0514 -85.0709 1510.49
v 43.1589 -85.1245 1510.32
v 42.8595 -84.9962 1510.62
v 42.8595 -84.9962 1510.62
v 42.8595 -84.9962 1510.62
v 42.8832 -84.9993 1510.47
v 42.8832 -84.9993 1510.47
v 42.8832 -84.9993 1510.47
v 43.5032 -85.2976 1510.12
v 43.8038 -85.5526 1509.79
v 43.8038 -85.5526 1509.79
v 42.7655 -85.1461 1510.41
v 42.8182 -85.0334 1510.45
v 42.8182 -85.0334 1510.45
v 42.8268 -85.0628 1510.56
v 42.8268 -85.0628 1510.56
v 42.8649 -85.1241 1510.73
v 43.8715 -85.5652 1509.97
v 43.8597 -85.4955 1509.87
v 43.8597 -85.4955 1509.87
v 43.7224 -85.6946 1509.77
v 43.6431 -85.8566 1509.88
v 43.7379 -85.9619 1510.01
v 43.7379 -85.9619 1510.01
v 43.4088 -85.8203 1510.18
v 42.844 -85.522 1510.54
v 42.7247 -85.4559 1510.66
v 42.7247 -85.4559 1510.66
v 42.8246 -85.3671 1510.74
v 42.6353 -85.2577 1510.51
v 42.6353 -85.2577 1510.51
v 42.6196 -85.3661 1510.6
v 42.6196 -85.3661 1510.6
v 42.6196 -85.3661 1510.6
v 43.8625 -85.8508 1510.08
v 43.8625 -85.8508 1510.08
vn 0.448825 0.893617 0.00219576
vn 0.64264 0.565623 0.516803
vn 0.487034 0.866503 0.109415
vn 0.366045 0.930025 -0.0326284
vn 0.435967 0.898479 0.0516576
vn -0.123346 0.675894 -0.726603
vn 0.0541141 0.812204 -0.580858
vn 0.0482463 0.813328 -0.579802
vn -0.410729 0.294206 -0.862986
vn -0.447667 0.25458 -0.857195
vn -0.211907 0.592647 -0.777087
vn -0.881451 0.41163 0.231528
vn -0.79445 0.337669 0.504806
vn 0.630287 0.308757 0.712326
vn 0.663515 0.204404 0.719699
vn 0.725182 0.45383 0.517831
vn 0.625561 0.715163 0.311794
vn 0.608019 0.776074 0.167396
vn 0.92799 -0.162402 -0.335351
vn 0.744264 -0.375406 -0.552397
vn 0.515188 -0.499286 -0.696631
vn 0.526436 -0.571787 -0.629226
vn 0.297213 -0.625249 -0.721615
vn 0.524469 -0.569605 -0.632837
vn -0.542874 -0.786891 -0.293413
vn -0.620683 -0.654588 -0.431587
vn -0.618185 -0.73633 -0.275074
vn -0.170177 -0.881658 0.440134
vn 0.00985056 -0.76799 0.640386
vn -0.104494 -0.84128 0.530404
vn 0.312964 -0.368508 0.87536
vn -0.675133 0.257172 0.691418
vn -0.76821 0.545395 0.335258
vn -0.677141 0.480379 0.557419
vn -0.636779 0.546867 0.543552
vn -0.650143 -0.543417 -0.531048
vn -0.626476 -0.329149 -0.706533
vn -0.588319 -0.109579 -0.80117
vn 0.539325 0.0226568 0.841793
vn 0.469663 -0.235064 0.850977
vn 0.358628 -0.375249 0.854736
vn 0.120143 -0.719458 0.684065
vn 0.279764 -0.61017 0.741232
vn 0.612329 0.374355 0.696356
vn 0.0535973 0.806071 -0.589386
vn -0.832072 0.535263 -0.145429
vn -0.93496 0.207395 0.287815
vn 0.62329 0.450341 0.639299
vn -0.0323761 0.758008 -0.651442
vn -0.522209 0.815056 0.250961
vn -0.832072 0.535263 -0.145429
vn 0.554804 0.794287 0.247589
vn -0.33293 0.40498 -0.851557
vn 0.79828 -0.219385 -0.560909
vn -0.816875 0.563476 0.123329
vn -0.915975 0.366004 0.164411
vn -0.522209 0.815056 0.250961
vn -0.522209 0.815056 0.250961
vn -0.832072 0.535263 -0.145429
vn 0.604241 0.296124 0.739731
vn 0.987852 -0.0698945 -0.13879
vn 0.0289423 0.805804 -0.591475
vn 0.939542 -0.114744 -0.322637
vn -0.533079 -0.00568238 -0.846047
vn -0.597497 -0.601139 -0.530687
vn -0.498855 -0.812986 -0.300329
vn 0.066875 -0.799788 0.596546
vn -0.188764 -0.894629 0.404977
vn -0.238752 -0.906301 0.348734
vn -0.59056 -0.000159429 0.806993
vn -0.578841 -0.756775 -0.303703
vn -0.630118 0.0825417 0.772099
vn -0.646784 -0.262424 -0.716103
vn -0.595917 0.795381 0.110688
vn -0.699689 -0.396477 -0.594341
vn -0.496357 -0.801864 -0.332632
vn -0.506953 -0.0192799 0.861758
vn 0.707643 0.0954352 0.700095
vn 0.848606 -0.360351 -0.387317
g grp1
usemtl mtl1
f 1//1 2//2 3//3 
f 4//4 1//1 3//3 
f 5//5 4//4 3//3 
f 6//6 49//49 45//45 
f 6//6 45//45 7//7 
f 6//6 7//7 8//8 
f 6//6 53//53 9//9 
f 9//9 10//10 6//6 
f 11//11 6//6 10//10 
f 55//55 12//12 56//56 
f 50//50 57//57 58//58 
f 51//51 59//59 46//46 
f 12//12 13//13 47//47 
f 48//48 60//60 2//2 
f 48//48 2//2 44//44 
f 2//2 60//60 14//14 
f 14//14 15//15 2//2 
f 2//2 15//15 16//16 
f 2//2 16//16 17//17 
f 52//52 2//2 17//17 
f 52//52 17//17 18//18 
f 8//8 7//7 62//62 
f 54//54 63//63 19//19 
f 54//54 19//19 20//20 
f 21//21 54//54 20//20 
f 21//21 20//20 22//22 
f 23//23 21//21 22//22 
f 23//23 22//22 24//24 
f 65//65 66//66 25//25 
f 26//26 65//65 25//25 
f 27//27 26//26 25//25 
f 68//68 28//28 69//69 
f 69//69 28//28 29//29 
f 30//30 69//69 29//29 
f 30//30 29//29 31//31 
f 32//32 70//70 72//72 
f 32//32 72//72 13//13 
f 13//13 33//33 32//32 
f 32//32 33//33 34//34 
f 35//35 32//32 34//34 
f 73//73 36//36 75//75 
f 76//76 36//36 71//71 
f 32//32 77//77 70//70 
f 36//36 27//27 71//71 
f 36//36 26//26 27//27 
f 36//36 37//37 26//26 
f 37//37 65//65 26//26 
f 37//37 64//64 65//65 
f 64//64 37//37 38//38 
f 38//38 9//9 64//64 
f 53//53 64//64 9//9 
f 10//10 9//9 38//38 
f 10//10 38//38 73//73 
f 33//33 55//55 74//74 
f 12//12 55//55 33//33 
f 12//12 33//33 13//13 
f 73//73 38//38 36//36 
f 38//38 37//37 36//36 
f 60//60 31//31 39//39 
f 14//14 60//60 39//39 
f 14//14 39//39 15//15 
f 40//40 15//15 39//39 
f 39//39 41//41 40//40 
f 41//41 42//42 40//40 
f 42//42 43//43 40//40 
f 78//78 15//15 40//40 
f 16//16 15//15 78//78 
f 61//61 79//79 19//19 
f 63//63 61//61 19//19 
f 17//17 16//16 18//18 
f 20//20 19//19 79//79 
f 79//79 22//22 20//20 
f 22//22 79//79 24//24 
f 42//42 67//67 43//43 
f 68//68 67//67 42//42 
f 68//68 42//42 28//28 
f 42//42 29//29 28//28 
f 29//29 42//42 41//41 
f 29//29 41//41 31//31 
f 31//31 41//41 39//39 
f 2//2 52//52 3//3 
f 11//11 49//49 6//6 
