v -43.4558 -84.4961 1514.86
v -43.5368 -84.534 1515.39
v -43.4534 -84.33 1515.08
v -43.3204 -84.2898 1514.44
v -43.3332 -84.0764 1514.53
v -43.4694 -84.1074 1515.04
v -43.4885 -83.9857 1514.91
v -43.4603 -83.8448 1514.53
v -43.3316 -83.9116 1514.32
v -43.2597 -84.1073 1514.28
v -43.2715 -84.2594 1514.26
v -43.4345 -84.4649 1514.35
v -43.5901 -84.5888 1514.61
v -43.5898 -84.6593 1515.17
v -43.7241 -84.722 1515.04
v -43.7393 -84.799 1515.38
v -43.8834 -84.7954 1515.28
v -43.8192 -84.7042 1515.44
v -43.5917 -84.6351 1515.51
v -43.6035 -84.3624 1515.6
v -43.6071 -84.217 1515.56
v -43.6308 -83.9461 1515.06
v -43.6938 -83.8345 1514.77
v -43.537 -83.7444 1514.37
v -43.5819 -83.8486 1514.26
v -43.7395 -83.7354 1514.24
v -43.9361 -83.8537 1514.17
v -43.7316 -84.1893 1514.11
v -43.4014 -84.1142 1514.26
v -43.4711 -84.4511 1514.18
v -43.6997 -84.4632 1514.05
v -43.7933 -84.6222 1514.64
v -43.9994 -84.5845 1514.87
v -44.04 -84.6829 1515.29
v -44.0389 -84.5422 1515.43
v -43.8356 -84.4429 1515.57
v -43.6829 -84.5399 1515.56
v -43.736 -84.1594 1515.58
v -44.039 -84.2572 1515.5
v -44.2024 -84.4906 1515.28
v -44.1084 -84.3258 1514.69
v -44.1748 -84.1759 1514.92
v -44.2252 -84.1961 1515.35
v -44.0683 -83.9918 1514.86
v -44.0421 -84.0003 1514.4
v -44.0169 -84.1585 1514.18
v -43.8582 -84.3529 1514
v -43.9399 -84.1729 1513.97
v -43.9848 -83.9792 1514.06
v -43.9284 -84.4629 1514.41
v -43.9042 -83.8245 1514.37
v -43.8353 -83.824 1514.64
v -44.0003 -83.9978 1515.24
v -44.0091 -84.0631 1515.49
v -43.8363 -83.9918 1515.34
v -43.3316 -83.9116 1514.32
v -43.2597 -84.1073 1514.28
v -43.2715 -84.2594 1514.26
v -43.7393 -84.799 1515.38
v -43.8834 -84.7954 1515.28
v -43.8834 -84.7954 1515.28
v -43.5917 -84.6351 1515.51
v -43.6035 -84.3624 1515.6
v -43.6071 -84.217 1515.56
v -43.537 -83.7444 1514.37
v -43.7395 -83.7354 1514.24
v -43.9361 -83.8537 1514.17
v -43.4711 -84.4511 1514.18
v -43.6997 -84.4632 1514.05
v -43.6997 -84.4632 1514.05
v -43.7933 -84.6222 1514.64
v -44.04 -84.6829 1515.29
v -43.736 -84.1594 1515.58
v -44.2024 -84.4906 1515.28
v -44.1748 -84.1759 1514.92
v -44.2252 -84.1961 1515.35
v -44.2252 -84.1961 1515.35
v -43.8582 -84.3529 1514
v -43.9399 -84.1729 1513.97
v -43.9848 -83.9792 1514.06
v -44.0091 -84.0631 1515.49
vn 0.847547 -0.528271 0.0509216
vn 0.951187 -0.247149 0.184827
vn 0.972334 -0.0153922 0.233086
vn 0.944997 -0.272678 0.180628
vn 0.932055 0.239694 0.271699
vn 0.917517 0.280201 0.282223
vn 0.759028 0.574742 0.305856
vn 0.625122 0.72255 0.295203
vn 0.82014 0.509345 0.260651
vn 0.96368 0.0396057 0.264107
vn 0.876823 -0.47713 0.0594
vn 0.697957 -0.714076 -0.0543311
vn 0.392299 -0.904434 -0.167635
vn 0.718042 -0.695342 -0.030246
vn 0.278891 -0.938517 -0.203485
vn 0.485056 -0.867436 -0.110796
vn 0.0903157 -0.968608 -0.231608
vn -0.312997 -0.585222 0.748029
vn 0.0150893 -0.482266 0.875895
vn 0.952196 0.0184799 0.304928
vn 0.807068 0.472579 0.353991
vn 0.424483 0.832567 0.355874
vn 0.104615 0.958862 0.263894
vn 0.340852 0.907779 0.244454
vn 0.322208 0.355977 -0.87719
vn 0.363768 0.373767 -0.853212
vn 0.331942 0.311767 -0.89029
vn 0.438747 0.276392 -0.855049
vn 0.257882 0.185173 -0.948265
vn 0.356813 0.182188 -0.916238
vn 0.159966 -0.956027 -0.245811
vn 0.103025 -0.962423 -0.251253
vn -0.660274 -0.701534 -0.268119
vn -0.661807 -0.712701 -0.232526
vn -0.550321 -0.404453 0.730455
vn -0.270792 -0.207041 0.94011
vn -0.0481595 -0.377545 0.924738
vn -0.111464 0.108252 0.987855
vn -0.512574 -0.0574585 0.856719
vn -0.67657 -0.313054 0.666522
vn -0.916097 -0.310904 -0.253188
vn -0.979526 -0.0708281 -0.188445
vn -0.991766 -0.0486467 -0.118464
vn -0.715932 0.697613 0.0278796
vn -0.934184 0.337333 -0.116221
vn -0.952651 -0.163805 -0.256173
vn -0.770699 -0.563361 -0.297736
vn -0.913984 -0.252075 -0.31795
vn -0.963821 0.157189 -0.215267
vn -0.626746 -0.721596 -0.294088
vn -0.611364 0.790652 0.033224
vn -0.314698 0.934452 0.166628
vn -0.430368 0.884504 0.180103
vn -0.237362 0.90982 0.340423
vn 0.0351337 0.940307 0.33851
vn 0.264807 0.368375 -0.891166
vn 0.161467 0.184428 -0.969492
vn 0.195202 0.141925 -0.97044
vn -0.257485 -0.6521 0.713069
vn -0.434624 -0.691822 0.576615
vn -0.531073 -0.804654 -0.265505
vn 0.892062 -0.42405 0.156224
vn 0.0731763 -0.0521717 0.995954
vn 0.260373 0.261608 0.929391
vn 0.402603 0.585466 -0.703662
vn -0.281252 0.953099 0.111799
vn -0.745948 0.66441 -0.0460501
vn 0.465129 -0.859536 -0.211787
vn 0.456461 0.246426 -0.854937
vn -0.474929 -0.826564 -0.302048
vn -0.480224 -0.826589 -0.293488
vn -0.532734 -0.609712 0.586895
vn 0.31221 0.829399 0.463274
vn -0.912062 -0.35228 -0.209863
vn -0.873115 0.482609 -0.0689795
vn -0.714828 0.695045 0.0770289
vn -0.634258 -0.0472764 0.771674
vn 0.5067 0.1843 -0.842193
vn 0.554233 0.292826 -0.779153
vn 0.521315 0.448916 -0.725745
vn -0.445566 0.111113 0.888327
g grp1
usemtl mtl1
f 3//3 2//2 1//1 
f 3//3 1//1 4//4 
f 3//3 4//4 5//5 
f 6//6 3//3 5//5 
f 7//7 6//6 5//5 
f 5//5 8//8 7//7 
f 9//9 8//8 5//5 
f 5//5 10//10 9//9 
f 5//5 4//4 10//10 
f 4//4 11//11 10//10 
f 4//4 12//12 11//11 
f 4//4 1//1 12//12 
f 13//13 12//12 1//1 
f 13//13 1//1 14//14 
f 15//15 13//13 14//14 
f 15//15 14//14 16//16 
f 17//17 15//15 16//16 
f 59//59 18//18 60//60 
f 59//59 19//19 18//18 
f 14//14 62//62 16//16 
f 62//62 14//14 2//2 
f 20//20 62//62 2//2 
f 20//20 2//2 3//3 
f 3//3 21//21 20//20 
f 3//3 6//6 21//21 
f 7//7 21//21 6//6 
f 7//7 22//22 21//21 
f 22//22 7//7 8//8 
f 23//23 22//22 8//8 
f 24//24 23//23 8//8 
f 24//24 8//8 9//9 
f 65//65 56//56 25//25 
f 25//25 26//26 65//65 
f 25//25 27//27 26//26 
f 28//28 27//27 25//25 
f 29//29 28//28 25//25 
f 29//29 25//25 56//56 
f 57//57 29//29 56//56 
f 29//29 57//57 58//58 
f 30//30 29//29 58//58 
f 68//68 11//11 12//12 
f 13//13 68//68 12//12 
f 31//31 68//68 13//13 
f 32//32 31//31 13//13 
f 15//15 32//32 13//13 
f 17//17 32//32 15//15 
f 61//61 33//33 71//71 
f 61//61 34//34 33//33 
f 18//18 72//72 60//60 
f 18//18 35//35 72//72 
f 36//36 35//35 18//18 
f 18//18 37//37 36//36 
f 19//19 37//37 18//18 
f 63//63 37//37 19//19 
f 63//63 36//36 37//37 
f 36//36 63//63 38//38 
f 36//36 38//38 39//39 
f 39//39 35//35 36//36 
f 35//35 39//39 40//40 
f 72//72 35//35 40//40 
f 33//33 34//34 74//74 
f 74//74 41//41 33//33 
f 74//74 42//42 41//41 
f 42//42 74//74 43//43 
f 75//75 76//76 44//44 
f 75//75 44//44 45//45 
f 41//41 42//42 45//45 
f 41//41 45//45 46//46 
f 47//47 41//41 46//46 
f 48//48 47//47 46//46 
f 46//46 49//49 48//48 
f 46//46 45//45 49//49 
f 49//49 45//45 67//67 
f 28//28 80//80 27//27 
f 79//79 80//80 28//28 
f 28//28 78//78 79//79 
f 28//28 69//69 78//78 
f 69//69 28//28 30//30 
f 28//28 29//29 30//30 
f 50//50 47//47 70//70 
f 71//71 50//50 70//70 
f 33//33 50//50 71//71 
f 33//33 41//41 50//50 
f 50//50 41//41 47//47 
f 51//51 67//67 45//45 
f 45//45 44//44 51//51 
f 44//44 52//52 51//51 
f 44//44 53//53 52//52 
f 44//44 76//76 53//53 
f 76//76 54//54 53//53 
f 39//39 81//81 77//77 
f 40//40 39//39 77//77 
f 39//39 38//38 81//81 
f 73//73 55//55 54//54 
f 55//55 73//73 22//22 
f 55//55 22//22 23//23 
f 23//23 52//52 55//55 
f 52//52 23//23 66//66 
f 51//51 52//52 66//66 
f 67//67 51//51 66//66 
f 66//66 23//23 24//24 
f 52//52 53//53 55//55 
f 53//53 54//54 55//55 
f 73//73 21//21 22//22 
f 63//63 64//64 38//38 
f 2//2 14//14 1//1 
