v -59.3012 -80.5572 1512.13
v -59.2984 -80.5526 1512.14
v -59.3022 -80.5531 1512.15
v -59.2958 -80.5557 1512.12
v -59.3058 -80.5603 1512.12
v -59.3086 -80.5594 1512.15
v -59.307 -80.554 1512.16
v -59.3112 -80.5598 1512.14
v -59.309 -80.5632 1512.12
v -59.3025 -80.561 1512.11
v -59.5093 -80.6453 1512.08
v -59.5333 -80.6335 1512.07
v -59.5462 -80.6471 1512.08
v -59.5043 -80.6359 1512.07
v -58.103 -78.9874 1509.6
v -58.1023 -78.9853 1509.6
v -58.1032 -78.988 1509.6
v -58.1014 -78.9821 1509.59
v -58.1012 -78.9814 1509.59
v -58.1019 -78.984 1509.6
v -59.62 -80.6453 1512.08
v -59.6393 -80.6358 1512.07
v -59.647 -80.6434 1512.07
v -59.606 -80.6316 1512.07
v -59.6212 -80.6223 1512.07
v -59.645 -80.6273 1512.08
v -59.6411 -80.6313 1512.08
v -59.6062 -80.6321 1512.08
v -59.6512 -80.6349 1512.08
v -59.5836 -80.6218 1512.07
v -59.5689 -80.6335 1512.09
v -59.5837 -80.6466 1512.08
v -59.531 -80.6344 1512.09
v -59.5461 -80.6235 1512.08
v -59.5689 -80.6316 1512.07
v -59.513 -80.6269 1512.08
v -59.5023 -80.628 1512.08
v -59.4898 -80.6335 1512.08
v -59.4091 -76.6244 1507.06
v -59.3033 -76.2514 1506.9
v -59.2777 -76.4672 1507.35
v -59.0994 -80.8658 1511.67
v -59.3858 -80.7642 1511.87
v -59.2893 -80.5896 1512.01
v -59.1051 -80.2715 1511.81
v -59.5239 -80.9022 1511.91
v -59.5479 -80.7099 1512.02
v -59.2966 -81.3297 1511.51
v -59.5226 -80.9645 1511.61
v -59.5774 -81.0895 1511.8
v -59.5627 -80.582 1511.11
v -59.2919 -80.5354 1511.69
v -59.5427 -80.9036 1511.24
v -59.2655 -81.1724 1511.06
v -59.1838 -80.1533 1511.45
v -59.5136 -77.1077 1507.82
v -58.9563 -76.8779 1508.33
v -59.1355 -77.7371 1508.92
v -59.0781 -76.5891 1507.79
v -59.1896 -76.3073 1507.37
v -58.8994 -79.8368 1511.32
v -59.4903 -79.8998 1510.83
v -58.9925 -79.4941 1511.07
v -58.9785 -76.9069 1506.69
v -59.174 -76.5484 1506.65
v -59.2225 -77.1537 1507
v -58.8659 -77.4572 1507.2
v -59.1607 -77.5088 1507.27
v -59.0049 -77.8125 1507.73
v -58.8435 -78.186 1508.39
v -59.3136 -78.1681 1508.04
v -59.3731 -78.6785 1508.57
v -58.8281 -81.4088 1511.1
v -59.0467 -81.5026 1511.24
v -58.839 -78.2375 1509.91
v -58.7859 -79.13 1510.96
v -59.074 -78.8105 1510.19
v -58.8802 -76.9199 1508.14
v -58.7468 -77.1901 1508.96
v -58.4399 -78.2884 1508.69
v -58.7543 -78.9185 1509.42
v -58.571 -77.7975 1507.88
v -58.8489 -77.2238 1506.87
v -58.5031 -78.6598 1509.23
v -58.3098 -78.9565 1509.56
v -58.5663 -80.3132 1510.75
v -58.5891 -80.7973 1510.83
v -58.7841 -80.5807 1511.22
v -58.6375 -81.2066 1510.94
v -58.3495 -79.779 1510.37
v -58.7259 -80.3218 1510.59
v -58.6422 -79.5581 1510.13
v -58.3876 -79.5965 1510.19
v -58.3406 -77.8651 1508.07
v -58.597 -77.4353 1507.48
v -58.4688 -78.9526 1510.31
v -58.2079 -79.3371 1509.96
v -58.5959 -79.5559 1510.77
v -58.1243 -78.8691 1509.45
v -58.412 -78.3253 1509.7
v -58.1424 -78.3645 1508.77
v -58.3619 -77.9186 1509.04
v -58.4575 -77.6325 1508.28
v -58.8032 -77.0736 1507.44
v -58.9491 -79.4313 1509.86
v -59.1443 -80.0118 1510.19
v -58.8654 -81.159 1510.98
v -58.7126 -78.5909 1510.58
v -58.6687 -77.9929 1510.01
v -58.6348 -77.4934 1509.47
v -58.8298 -77.3795 1509.01
v -59.1436 -80.7437 1510.71
v -59.1338 -76.5267 1506.91
v -59.5265 -79.3761 1509.28
v -59.3889 -78.4511 1509.44
v -59.4979 -80.1988 1510.15
v -59.5844 -77.9645 1507.76
v -59.4536 -76.9221 1507.07
v -59.7262 -77.7058 1507.66
v -59.3209 -76.4625 1506.71
v -59.7513 -80.3445 1510.48
v -59.8349 -79.9083 1509.79
v -59.7922 -78.8231 1508.49
v -59.9367 -79.9212 1510.31
v -59.6798 -77.9956 1508.66
v -60.0179 -78.0889 1508.39
v -59.8827 -79.5576 1510.19
v -59.9612 -77.7677 1507.95
v -59.6629 -77.1101 1507.45
v -59.6108 -79.0615 1509.96
v -60.0822 -78.9259 1509.33
v -60.0247 -79.1862 1508.87
v -60.0303 -78.4995 1508.31
v -60.2025 -79.016 1508.84
v -60.2686 -79.0736 1509.14
v -60.11 -79.4901 1509.42
v -60.1961 -78.584 1508.61
v -60.1634 -79.3883 1509.66
v -59.6236 -80.8866 1511.85
v -59.6211 -80.7724 1511.95
v -59.7493 -80.833 1511.94
v -59.6055 -80.7568 1511.96
v -59.6435 -80.781 1512
v -59.671 -80.8587 1511.96
v -59.2984 -80.5526 1512.14
v -59.3022 -80.5531 1512.15
v -59.2958 -80.5557 1512.12
v -59.3058 -80.5603 1512.12
v -59.3086 -80.5594 1512.15
v -59.3086 -80.5594 1512.15
v -59.307 -80.554 1512.16
v -59.307 -80.554 1512.16
v -59.3112 -80.5598 1512.14
v -59.3112 -80.5598 1512.14
v -59.3112 -80.5598 1512.14
v -59.309 -80.5632 1512.12
v -59.3025 -80.561 1512.11
v -59.5093 -80.6453 1512.08
v -59.5093 -80.6453 1512.08
v -59.5093 -80.6453 1512.08
v -59.5333 -80.6335 1512.07
v -59.5462 -80.6471 1512.08
v -59.5043 -80.6359 1512.07
v -59.5043 -80.6359 1512.07
v -58.103 -78.9874 1509.6
v -58.103 -78.9874 1509.6
v -58.1023 -78.9853 1509.6
v -58.1023 -78.9853 1509.6
v -58.1032 -78.988 1509.6
v -58.1032 -78.988 1509.6
v -58.1014 -78.9821 1509.59
v -58.1012 -78.9814 1509.59
v -58.1012 -78.9814 1509.59
v -58.1012 -78.9814 1509.59
v -58.1019 -78.984 1509.6
v -58.1019 -78.984 1509.6
v -59.62 -80.6453 1512.08
v -59.62 -80.6453 1512.08
v -59.6393 -80.6358 1512.07
v -59.6393 -80.6358 1512.07
v -59.647 -80.6434 1512.07
v -59.647 -80.6434 1512.07
v -59.647 -80.6434 1512.07
v -59.606 -80.6316 1512.07
v -59.6212 -80.6223 1512.07
v -59.6212 -80.6223 1512.07
v -59.6212 -80.6223 1512.07
v -59.645 -80.6273 1512.08
v -59.6411 -80.6313 1512.08
v -59.6411 -80.6313 1512.08
v -59.6411 -80.6313 1512.08
v -59.6411 -80.6313 1512.08
v -59.6062 -80.6321 1512.08
v -59.6512 -80.6349 1512.08
v -59.6512 -80.6349 1512.08
v -59.5836 -80.6218 1512.07
v -59.5689 -80.6335 1512.09
v -59.5837 -80.6466 1512.08
v -59.531 -80.6344 1512.09
v -59.531 -80.6344 1512.09
v -59.5461 -80.6235 1512.08
v -59.5689 -80.6316 1512.07
v -59.513 -80.6269 1512.08
v -59.513 -80.6269 1512.08
v -59.5023 -80.628 1512.08
v -59.5023 -80.628 1512.08
v -59.4898 -80.6335 1512.08
v -59.4898 -80.6335 1512.08
v -59.4898 -80.6335 1512.08
v -59.3033 -76.2514 1506.9
v -59.3033 -76.2514 1506.9
v -59.0994 -80.8658 1511.67
v -59.3858 -80.7642 1511.87
v -59.3858 -80.7642 1511.87
v -59.3858 -80.7642 1511.87
v -59.2893 -80.5896 1512.01
v -59.2893 -80.5896 1512.01
v -59.1051 -80.2715 1511.81
v -59.5239 -80.9022 1511.91
v -59.5239 -80.9022 1511.91
v -59.5239 -80.9022 1511.91
v -59.5479 -80.7099 1512.02
v -59.5479 -80.7099 1512.02
v -59.5479 -80.7099 1512.02
v -59.5479 -80.7099 1512.02
v -59.2966 -81.3297 1511.51
v -59.5226 -80.9645 1511.61
v -59.5226 -80.9645 1511.61
v -59.5774 -81.0895 1511.8
v -59.5774 -81.0895 1511.8
v -59.5774 -81.0895 1511.8
v -59.5627 -80.582 1511.11
v -59.2655 -81.1724 1511.06
v -59.1838 -80.1533 1511.45
v -58.9563 -76.8779 1508.33
v -59.0781 -76.5891 1507.79
v -59.1896 -76.3073 1507.37
v -58.8994 -79.8368 1511.32
v -58.8994 -79.8368 1511.32
v -58.9785 -76.9069 1506.69
v -59.174 -76.5484 1506.65
v -59.174 -76.5484 1506.65
v -58.8281 -81.4088 1511.1
v -59.0467 -81.5026 1511.24
v -59.0467 -81.5026 1511.24
v -58.7859 -79.13 1510.96
v -58.7468 -77.1901 1508.96
v -58.8489 -77.2238 1506.87
v -58.8489 -77.2238 1506.87
v -58.5663 -80.3132 1510.75
v -58.5891 -80.7973 1510.83
v -58.5891 -80.7973 1510.83
v -58.6375 -81.2066 1510.94
v -58.3495 -79.779 1510.37
v -58.3406 -77.8651 1508.07
v -58.597 -77.4353 1507.48
v -58.2079 -79.3371 1509.96
v -58.1243 -78.8691 1509.45
v -58.1424 -78.3645 1508.77
v -58.7126 -78.5909 1510.58
v -58.6687 -77.9929 1510.01
v -58.6348 -77.4934 1509.47
v -59.3209 -76.4625 1506.71
v -59.3209 -76.4625 1506.71
v -59.7513 -80.3445 1510.48
v -59.8349 -79.9083 1509.79
v -59.9367 -79.9212 1510.31
v -59.9612 -77.7677 1507.95
v -59.6629 -77.1101 1507.45
v -60.2686 -79.0736 1509.14
v -60.1961 -78.584 1508.61
v -60.1634 -79.3883 1509.66
v -59.6236 -80.8866 1511.85
v -59.6236 -80.8866 1511.85
v -59.6236 -80.8866 1511.85
v -59.6236 -80.8866 1511.85
v -59.6236 -80.8866 1511.85
v -59.6236 -80.8866 1511.85
v -59.6211 -80.7724 1511.95
v -59.6211 -80.7724 1511.95
v -59.6211 -80.7724 1511.95
v -59.7493 -80.833 1511.94
v -59.7493 -80.833 1511.94
v -59.7493 -80.833 1511.94
v -59.6055 -80.7568 1511.96
v -59.6055 -80.7568 1511.96
v -59.6055 -80.7568 1511.96
v -59.6055 -80.7568 1511.96
v -59.6435 -80.781 1512
v -59.6435 -80.781 1512
v -59.6435 -80.781 1512
v -59.6435 -80.781 1512
v -59.671 -80.8587 1511.96
v -59.671 -80.8587 1511.96
vn -0.504171 0.845591 -0.175466
vn -0.58634 0.786917 -0.192269
vn -0.503749 0.84502 -0.179382
vn -0.529979 0.831362 -0.167215
vn 0.531986 -0.829592 0.169614
vn 0.657162 -0.734209 0.170512
vn 0.543081 -0.821097 0.175675
vn -0.948695 -0.188727 0.253692
vn 0.573407 -0.795062 0.19769
vn 0.510448 -0.840148 0.183288
vn -0.0147141 -0.663986 -0.7476
vn -0.0200625 -0.634763 -0.772446
vn -0.0028567 -0.578721 -0.815521
vn -0.0590198 -0.712828 -0.698851
vn 0 0 1
vn 0 0 1
vn 0 0 1
vn -0.955561 0.294681 0.00816708
vn -0.962309 0.271957 0.000302954
vn 0.956863 -0.290446 -0.00735259
vn 0.126372 -0.521483 -0.843852
vn 0.200105 -0.488423 -0.849353
vn 0.310438 -0.31449 -0.897064
vn 0.0202503 -0.592007 -0.805679
vn 0 0 -1
vn -0.488079 0.508073 -0.709677
vn 0.161083 0.156787 0.974408
vn -0.0381192 0.753633 0.656189
vn 0 0 1
vn -0.0815339 0.784836 0.614316
vn -0.0730686 0.779911 0.621611
vn -0.0905871 -0.3463 0.93374
vn 0.0083799 -0.625292 0.780346
vn -0.0072642 0.750848 0.660435
vn 0.104237 0.395329 -0.912606
vn 0.0748723 0.728775 0.680648
vn 0.0748306 0.728819 0.680605
vn 0 0 -1
vn -0.943221 0.331854 -0.0143667
vn -0.932764 0.341685 0.114906
vn -0.837038 0.445167 0.318109
vn 0.238335 -0.684341 0.689111
vn 0.238335 -0.684341 0.689111
vn 0.238335 -0.684341 0.689111
vn 0.856948 -0.0529533 0.512675
vn 0.360607 -0.392825 0.845961
vn 0.378758 -0.423416 0.822959
vn -0.798939 -0.539639 -0.265493
vn -0.937149 -0.276153 -0.213285
vn -0.874204 -0.249818 -0.416363
vn -0.80649 0.367573 0.463102
vn -0.861174 0.456065 0.224465
vn -0.928651 -0.368727 -0.0405919
vn -0.735413 -0.62027 -0.272823
vn -0.761801 0.486989 0.427202
vn -0.709375 0.576021 0.406186
vn -0.706348 0.510348 0.490527
vn -0.654208 0.551731 0.517306
vn -0.718024 0.517389 0.465565
vn -0.836652 0.409368 0.363911
vn -0.613813 0.70063 0.3638
vn -0.676748 0.451933 0.581179
vn -0.544143 0.53493 0.646342
vn -0.460117 -0.479677 -0.747129
vn -0.542431 -0.38624 -0.746047
vn -0.458727 -0.482467 -0.746187
vn 0.146171 -0.825237 -0.545543
vn -0.0320105 -0.753388 -0.656797
vn 0.221033 -0.810369 -0.542629
vn 0.316672 -0.768665 -0.555764
vn 0.290247 -0.726158 -0.623258
vn 0.418747 -0.690667 -0.589602
vn 0.69144 -0.329499 0.642916
vn 0.551291 -0.435121 0.711863
vn -0.775486 0.466546 0.42539
vn -0.677168 0.491456 0.547644
vn -0.638265 0.568297 0.519284
vn 0.814086 0.57784 0.0580096
vn 0.833497 0.547053 0.0775605
vn 0.104841 -0.818649 -0.564643
vn 0.351082 -0.719146 -0.599642
vn 0.320442 -0.771809 -0.549206
vn -0.09814 -0.730543 -0.675778
vn 0.133869 -0.780255 -0.610968
vn 0.0232454 -0.748996 -0.662167
vn 0.888937 0.0241507 0.457392
vn 0.899868 0.0202243 0.435692
vn 0.878558 0.00575527 0.4776
vn 0.83881 -0.0987779 0.535388
vn 0.379414 -0.646224 -0.662147
vn 0.365761 -0.491642 -0.790258
vn 0.235643 -0.624454 -0.744667
vn 0.16076 -0.647231 -0.74515
vn 0.154684 -0.790931 -0.592032
vn 0.549512 -0.604672 -0.576549
vn 0.872788 0.243475 0.423038
vn 0.881135 0.187938 0.433912
vn 0.867876 0.119467 0.482203
vn 0.891853 0.303211 0.335651
vn 0.889798 0.3174 0.327897
vn -0.0243634 -0.807107 -0.589902
vn 0.905401 0.399296 0.144261
vn 0.882833 0.469232 0.0206635
vn 0.888121 0.454877 -0.0657782
vn 0.450022 -0.61976 -0.642945
vn 0.412788 -0.558961 -0.719144
vn -0.113207 -0.46316 -0.879015
vn -0.839498 0.397825 0.370104
vn -0.822964 0.431968 0.368963
vn -0.78534 0.459673 0.414659
vn -0.74451 0.478622 0.465431
vn 0.183975 -0.566778 -0.803067
vn 0.87045 0.471658 -0.140911
vn 0.364946 -0.694312 -0.620278
vn -0.544313 0.632068 0.551556
vn 0.264154 -0.644025 -0.717952
vn -0.1572 -0.631601 -0.759189
vn -0.822333 -0.114849 -0.557295
vn -0.570352 -0.381922 -0.72721
vn -0.566565 -0.384964 -0.728565
vn -0.683057 -0.658422 -0.31609
vn 0.200915 -0.698684 -0.686639
vn 0.112148 -0.698727 -0.706544
vn -0.757363 0.302834 0.578526
vn -0.555257 0.627749 0.545546
vn -0.744333 0.54467 0.386398
vn -0.676992 0.456575 0.577253
vn -0.806555 -0.151543 -0.571406
vn -0.744237 0.596774 0.299953
vn -0.536482 0.614719 0.578193
vn -0.692739 0.542077 0.475673
vn -0.226529 -0.730582 -0.644154
vn -0.547939 -0.449505 -0.705485
vn -0.76156 -0.451312 -0.465128
vn -0.923069 -0.336051 -0.187116
vn -0.777535 -0.575671 -0.253064
vn -0.887359 -0.179868 -0.424548
vn -0.916048 -0.399559 -0.0347758
vn -0.355332 0.775669 -0.521609
vn -0.263625 0.671994 -0.692045
vn -0.324733 0.756822 -0.567246
vn -0.359218 0.802864 -0.475786
vn 0.1708 -0.473035 0.86433
vn 0.223131 -0.307253 0.925099
vn 0.537572 -0.828222 0.158321
vn 0.362634 -0.927506 0.0907117
vn 0.445611 -0.876758 0.180903
vn 0.0231244 -0.999168 0.0335997
vn -0.948695 -0.188727 0.253692
vn 0.0231244 -0.999168 0.0335997
vn -0.948695 -0.188727 0.253692
vn -0.476483 0.866137 -0.150899
vn -0.447292 0.875609 -0.182316
vn 0.0231244 -0.999168 0.0335997
vn 0.573126 -0.795146 0.198164
vn -0.46458 0.869958 -0.165346
vn -0.488897 0.861906 -0.134527
vn 0.180604 -0.073062 0.980838
vn 0.0311933 -0.641585 0.766417
vn 0.45472 -0.751302 -0.478304
vn 0.0600627 0.751353 -0.657162
vn 0.00280777 -0.617563 0.786517
vn 0.148487 0.795984 -0.586823
vn 0.45472 -0.751302 -0.478304
vn -0.948216 0.317221 0.0160261
vn 0.951054 -0.308825 -0.0111307
vn -0.955561 0.294681 0.00816708
vn 0.948511 -0.31617 -0.0190377
vn -0.950833 0.309384 0.0140995
vn 0.948511 -0.31617 -0.0190377
vn 0.956863 -0.290446 -0.00735259
vn 0.962303 -0.271955 -0.00357165
vn -0.950833 0.309384 0.0140995
vn 0.948511 -0.31617 -0.0190377
vn -0.950833 0.309384 0.0140995
vn 0 0 1
vn 0 0 1
vn -0.33174 -0.500051 0.799936
vn 0 0 -1
vn -0.499739 0.515336 -0.696196
vn 0.244667 -0.686054 0.685178
vn -0.33174 -0.500051 0.799936
vn -0.522419 0.529238 -0.668569
vn 0 0 -1
vn -0.418282 0.560663 -0.714631
vn 0.31392 0.305549 0.89894
vn 0.00368412 0.717163 0.696896
vn 0.161083 0.156787 0.974408
vn 0.0166963 0.726685 0.686768
vn 0.244667 -0.686054 0.685178
vn 0 0 1
vn -0.33174 -0.500051 0.799936
vn -0.086228 -0.134547 0.987148
vn 0.244667 -0.686054 0.685178
vn -0.538815 0.490904 -0.684611
vn 0.0869925 0.130523 -0.987621
vn -0.0927203 -0.541158 0.835794
vn -0.00927425 -0.560854 -0.827863
vn 0.0554052 0.715879 0.696023
vn 0.354287 -0.143324 0.924088
vn 0.126756 0.63773 -0.759759
vn -0.0127534 -0.560026 -0.828377
vn 0 0 -1
vn 0.124867 0.782567 -0.609915
vn 0 0 -1
vn 0.180604 -0.073062 0.980838
vn 0 0 1
vn 0.231772 0.81482 -0.531366
vn 0.45472 -0.751302 -0.478304
vn 0.84376 0.513037 -0.157676
vn 0.0840466 0.662865 -0.744007
vn 0.685081 -0.272763 0.675473
vn 0.53231 -0.303393 0.790315
vn -0.891234 0.442808 0.098092
vn -0.355332 0.775669 -0.521609
vn 0.820122 -0.12375 0.558646
vn -0.867458 0.4893 0.0900122
vn -0.774514 0.57285 0.268276
vn -0.677868 -0.132091 -0.723219
vn -0.499285 -0.518549 0.694134
vn 0.487847 0.568935 -0.662056
vn -0.420675 0.865379 -0.272307
vn -0.588921 0.660889 0.465186
vn 0.297838 0.592619 -0.748395
vn -0.321575 0.724488 -0.609677
vn 0.428527 -0.489103 0.759699
vn -0.872756 0.423977 0.24195
vn -0.384998 0.817918 -0.427536
vn -0.379665 -0.625958 0.681198
vn -0.558699 0.0760053 -0.82588
vn 0.227338 -0.540576 0.809997
vn -0.979035 -0.110063 0.171393
vn 0.0280682 -0.619911 -0.78417
vn -0.215311 0.529568 0.820487
vn 0.726907 0.671327 0.14466
vn 0.843331 0.532294 0.0738595
vn 0.87954 0.472094 -0.0594654
vn -0.298751 0.500991 0.812254
vn 0.862394 0.0959466 0.497062
vn 0.906113 0.396515 -0.14743
vn 0.857791 0.484295 -0.172201
vn 0.0840466 0.662865 -0.744007
vn -0.286522 -0.454904 -0.843189
vn -0.24381 -0.503595 -0.828823
vn -0.72885 -0.629582 -0.269081
vn 0.855767 0.166888 0.489706
vn -0.753827 0.46731 0.461915
vn 0.906381 0.384441 -0.175154
vn 0.744221 -0.473193 -0.471405
vn 0.668544 -0.396335 -0.629259
vn 0.712793 -0.150248 -0.685093
vn -0.0543479 -0.336632 -0.940067
vn -0.223567 -0.343093 -0.912307
vn 0.870233 0.0796615 0.486157
vn 0.88573 0.464158 -0.00629078
vn 0.869303 0.482679 -0.106462
vn 0.0473472 -0.709237 -0.703379
vn -0.0227404 -0.768421 -0.639541
vn 0.914301 0.377516 0.146748
vn 0.86554 0.252868 0.432317
vn 0.866736 0.323484 0.37964
vn 0.893227 0.378841 0.242125
vn -0.970797 0.175743 -0.163303
vn 0.0840466 0.662865 -0.744007
vn -0.959886 -0.236883 0.15002
vn -0.5934 -0.700982 -0.395601
vn -0.919391 -0.391877 0.0339355
vn -0.808029 0.522493 0.272194
vn -0.890274 0.0857521 -0.44728
vn -0.782062 0.479344 0.398257
vn -0.835717 0.459461 0.300787
vn -0.765841 0.412662 0.49315
vn -0.928325 -0.125243 -0.350038
vn -0.246485 0.641428 -0.726509
vn -0.499285 -0.518549 0.694134
vn 0.487847 0.568935 -0.662056
vn -0.558699 0.0760053 -0.82588
vn 0.297838 0.592619 -0.748395
vn 0.487847 0.568935 -0.662056
vn 0.303383 -0.0651555 0.950638
vn 0.756616 -0.610662 0.233721
vn -0.363192 -0.488304 0.793505
vn -0.558699 0.0760053 -0.82588
vn -0.588921 0.660889 0.465186
vn -0.677868 -0.132091 -0.723219
vn -0.499285 -0.518549 0.694134
vn 0.644719 -0.747458 0.160139
vn 0.297838 0.592619 -0.748395
vn -0.677868 -0.132091 -0.723219
vn -0.335157 -0.335107 0.880553
vn -0.588921 0.660889 0.465186
vn 0.756616 -0.610662 0.233721
vn -0.363192 -0.488304 0.793505
vn 0.840784 -0.451485 0.298737
g grp1
usemtl mtl1
f 3//3 2//2 1//1 
f 2//2 4//4 1//1 
f 147//147 145//145 5//5 
f 145//145 6//6 5//5 
f 145//145 7//7 6//6 
f 151//151 8//8 149//149 
f 153//153 152//152 3//3 
f 150//150 154//154 148//148 
f 155//155 9//9 5//5 
f 9//9 10//10 5//5 
f 13//13 12//12 11//11 
f 12//12 14//14 11//11 
f 17//17 16//16 15//15 
f 167//167 18//18 165//165 
f 18//18 167//167 19//19 
f 20//20 171//171 172//172 
f 169//169 175//175 173//173 
f 171//171 20//20 166//166 
f 176//176 17//17 15//15 
f 168//168 170//170 174//174 
f 23//23 22//22 21//21 
f 22//22 24//24 21//21 
f 184//184 179//179 25//25 
f 180//180 26//26 185//185 
f 188//188 27//27 186//186 
f 189//189 28//28 187//187 
f 29//29 27//27 188//188 
f 190//190 194//194 181//181 
f 187//187 28//28 30//30 
f 28//28 31//31 30//30 
f 197//197 193//193 32//32 
f 193//193 177//177 32//32 
f 33//33 197//197 162//162 
f 197//197 32//32 162//162 
f 30//30 31//31 34//34 
f 31//31 199//199 34//34 
f 161//161 35//35 201//201 
f 35//35 196//196 201//201 
f 34//34 199//199 36//36 
f 199//199 37//37 36//36 
f 205//205 38//38 203//203 
f 207//207 206//206 158//158 
f 208//208 163//163 204//204 
f 180//180 195//195 26//26 
f 35//35 184//184 196//196 
f 184//184 25//25 196//196 
f 193//193 191//191 177//177 
f 192//192 182//182 178//178 
f 195//195 180//180 183//183 
f 21//21 24//24 198//198 
f 24//24 202//202 198//198 
f 163//163 161//161 204//204 
f 161//161 201//201 204//204 
f 206//206 200//200 158//158 
f 33//33 162//162 159//159 
f 198//198 202//202 13//13 
f 202//202 12//12 13//13 
f 164//164 209//209 160//160 
f 157//157 156//156 1//1 
f 7//7 145//145 146//146 
f 156//156 153//153 1//1 
f 153//153 3//3 1//1 
f 10//10 147//147 5//5 
f 4//4 157//157 1//1 
f 41//41 40//40 39//39 
f 44//44 43//43 42//42 
f 45//45 216//216 212//212 
f 213//213 47//47 46//46 
f 50//50 49//49 48//48 
f 52//52 51//51 227//227 
f 49//49 232//232 53//53 
f 49//49 53//53 48//48 
f 48//48 53//53 54//54 
f 55//55 52//52 218//218 
f 218//218 52//52 217//217 
f 58//58 57//57 56//56 
f 41//41 56//56 59//59 
f 59//59 56//56 57//57 
f 41//41 59//59 60//60 
f 61//61 55//55 218//218 
f 63//63 62//62 55//55 
f 66//66 65//65 64//64 
f 69//69 68//68 67//67 
f 72//72 71//71 70//70 
f 212//212 74//74 73//73 
f 77//77 76//76 75//75 
f 77//77 75//75 58//58 
f 76//76 63//63 238//238 
f 79//79 78//78 235//235 
f 81//81 70//70 80//80 
f 67//67 83//83 82//82 
f 81//81 80//80 84//84 
f 81//81 84//84 85//85 
f 88//88 87//87 86//86 
f 88//88 89//89 87//87 
f 91//91 90//90 250//250 
f 93//93 92//92 85//85 
f 82//82 95//95 94//94 
f 98//98 97//97 96//96 
f 98//98 254//254 97//97 
f 90//90 93//93 257//257 
f 99//99 96//96 97//97 
f 96//96 99//99 100//100 
f 257//257 85//85 258//258 
f 80//80 101//101 85//85 
f 101//101 80//80 94//94 
f 103//103 102//102 259//259 
f 99//99 259//259 100//100 
f 259//259 102//102 100//100 
f 85//85 101//101 258//258 
f 259//259 255//255 103//103 
f 256//256 104//104 255//255 
f 104//104 103//103 255//255 
f 80//80 82//82 94//94 
f 257//257 93//93 85//85 
f 84//84 80//80 85//85 
f 79//79 102//102 103//103 
f 78//78 79//79 103//103 
f 78//78 103//103 104//104 
f 82//82 70//70 69//69 
f 106//106 105//105 92//92 
f 89//89 212//212 73//73 
f 253//253 243//243 107//107 
f 104//104 256//256 248//248 
f 91//91 106//106 92//92 
f 109//109 75//75 108//108 
f 98//98 260//260 246//246 
f 260//260 98//98 96//96 
f 88//88 212//212 89//89 
f 88//88 98//98 239//239 
f 246//246 239//239 98//98 
f 111//111 110//110 247//247 
f 261//261 100//100 262//262 
f 75//75 109//109 110//110 
f 262//262 100//100 102//102 
f 75//75 110//110 111//111 
f 262//262 102//102 79//79 
f 91//91 93//93 90//90 
f 98//98 86//86 254//254 
f 91//91 92//92 93//93 
f 92//92 81//81 85//85 
f 249//249 95//95 82//82 
f 70//70 82//82 80//80 
f 105//105 81//81 92//92 
f 251//251 91//91 250//250 
f 107//107 91//91 252//252 
f 253//253 107//107 252//252 
f 98//98 88//88 86//86 
f 260//260 96//96 100//100 
f 261//261 260//260 100//100 
f 111//111 247//247 57//57 
f 75//75 111//111 58//58 
f 108//108 75//75 76//76 
f 76//76 77//77 63//63 
f 107//107 243//243 244//244 
f 112//112 106//106 91//91 
f 70//70 71//71 69//69 
f 83//83 67//67 68//68 
f 104//104 248//248 240//240 
f 78//78 104//104 236//236 
f 237//237 236//236 104//104 
f 241//241 113//113 240//240 
f 81//81 72//72 70//70 
f 104//104 240//240 113//113 
f 68//68 66//66 83//83 
f 91//91 107//107 112//112 
f 105//105 114//114 81//81 
f 69//69 67//67 82//82 
f 83//83 66//66 64//64 
f 58//58 115//115 77//77 
f 58//58 111//111 57//57 
f 235//235 78//78 236//236 
f 45//45 88//88 239//239 
f 107//107 233//233 112//112 
f 237//237 104//104 113//113 
f 62//62 63//63 77//77 
f 238//238 63//63 234//234 
f 112//112 116//116 106//106 
f 116//116 112//112 233//233 
f 106//106 114//114 105//105 
f 117//117 68//68 71//71 
f 119//119 118//118 66//66 
f 114//114 72//72 81//81 
f 118//118 120//120 66//66 
f 241//241 210//210 113//113 
f 39//39 263//263 118//118 
f 217//217 52//52 214//214 
f 214//214 52//52 227//227 
f 54//54 53//53 121//121 
f 117//117 66//66 68//68 
f 116//116 233//233 122//122 
f 119//119 66//66 117//117 
f 114//114 123//123 72//72 
f 51//51 62//62 124//124 
f 56//56 126//126 125//125 
f 62//62 127//127 124//124 
f 118//118 119//119 128//128 
f 56//56 39//39 129//129 
f 128//128 269//269 118//118 
f 129//129 268//268 56//56 
f 125//125 131//131 130//130 
f 131//131 127//127 130//130 
f 122//122 132//132 114//114 
f 132//132 123//123 114//114 
f 133//133 117//117 123//123 
f 117//117 133//133 119//119 
f 136//136 135//135 134//134 
f 132//132 134//134 133//133 
f 133//133 137//137 128//128 
f 271//271 126//126 268//268 
f 131//131 126//126 271//271 
f 134//134 135//135 137//137 
f 134//134 137//137 133//133 
f 271//271 270//270 131//131 
f 136//136 138//138 135//135 
f 270//270 272//272 131//131 
f 125//125 126//126 131//131 
f 136//136 134//134 132//132 
f 121//121 136//136 266//266 
f 136//136 267//267 138//138 
f 133//133 123//123 132//132 
f 119//119 133//133 128//128 
f 266//266 136//136 132//132 
f 265//265 267//267 136//136 
f 124//124 127//127 272//272 
f 272//272 127//127 131//131 
f 115//115 125//125 130//130 
f 72//72 123//123 71//71 
f 268//268 126//126 56//56 
f 265//265 232//232 267//267 
f 122//122 114//114 116//116 
f 71//71 123//123 117//117 
f 54//54 121//121 266//266 
f 232//232 265//265 53//53 
f 118//118 269//269 39//39 
f 114//114 106//106 116//116 
f 125//125 58//58 56//56 
f 62//62 51//51 55//55 
f 127//127 62//62 130//130 
f 41//41 39//39 56//56 
f 39//39 40//40 263//263 
f 242//242 264//264 211//211 
f 120//120 65//65 66//66 
f 68//68 69//69 71//71 
f 113//113 210//210 237//237 
f 41//41 60//60 40//40 
f 77//77 115//115 130//130 
f 51//51 52//52 55//55 
f 212//212 88//88 45//45 
f 226//226 74//74 212//212 
f 244//244 233//233 107//107 
f 139//139 215//215 228//228 
f 50//50 273//273 49//49 
f 141//141 140//140 274//274 
f 140//140 141//141 142//142 
f 142//142 141//141 222//222 
f 143//143 46//46 47//47 
f 289//289 285//285 219//219 
f 286//286 275//275 220//220 
f 276//276 279//279 221//221 
f 280//280 144//144 46//46 
f 293//293 282//282 229//229 
f 230//230 283//283 277//277 
f 282//282 293//293 290//290 
f 144//144 231//231 46//46 
f 284//284 291//291 223//223 
f 287//287 292//292 281//281 
f 292//292 294//294 281//281 
f 288//288 224//224 278//278 
f 139//139 225//225 215//215 
f 46//46 231//231 226//226 
f 212//212 213//213 46//46 
f 48//48 54//54 245//245 
f 226//226 212//212 46//46 
f 77//77 130//130 62//62 
f 125//125 115//115 58//58 
