v 14.1302 -174.684 1452.27
v 13.2036 -176.545 1453.38
v 14.3693 -175.057 1454.25
v 12.2888 -175.438 1454.01
v 12.1605 -176.119 1453.86
v 14.8069 -175.602 1453.44
v 13.4968 -175.561 1452.27
v 13.9825 -174.909 1453.48
v 10.6499 -177.719 1453.21
v 11.6801 -177.305 1453.17
v 13.5817 -176.445 1452.77
v 11.1045 -175.498 1452.36
v 10.8597 -177.036 1451.67
v 7.16859 -179.105 1452.52
v 7.98655 -178.563 1451.9
v 11.4127 -177.424 1452.47
v 10.6271 -176.743 1453.6
v 6.60794 -176.586 1449.92
v 7.32176 -177.386 1450.83
v 12.5906 -174.999 1451.44
v 10.0577 -175.862 1450.83
v 6.00549 -176.946 1452.99
v 10.7637 -176.174 1451.28
v 6.81307 -176.566 1451.52
v 8.88099 -178.14 1453.14
v 7.91315 -176.483 1450.44
v 4.70325 -179.269 1451.75
v 5.84467 -176.728 1449.91
v 5.55029 -179.103 1452.78
v 5.7942 -178.078 1453.05
v 9.53145 -178.433 1452.74
v 9.06209 -176.289 1453.35
v 3.79884 -178.387 1450.7
v 4.60144 -176.729 1449.6
v 1.60076 -177.031 1449.26
v -0.00880874 -177.362 1449.97
v 1.49901 -178.855 1450.93
v 2.47936 -178.141 1450.48
v -0.0785035 -176.975 1449.45
v 0.208856 -178.233 1450.64
v 3.99304 -178.984 1450.98
v -3.81289 -179.364 1451.72
v 1.49624 -176.967 1450.82
v -2.21842 -178.263 1450.53
v 2.92649 -179.19 1451.31
v 3.04034 -176.922 1449.22
v 6.63085 -178.295 1451.18
v -1.43031 -177.143 1449.67
v 4.21097 -179.567 1452.52
v 0.720778 -179.613 1452.48
v 2.37101 -177.462 1450.01
v 2.33404 -177.219 1452.87
v -2.37122 -177.27 1449.64
v -2.86542 -179.1 1450.77
v 0.387945 -178.1 1452.94
v -3.44292 -177.494 1450
v -1.51116 -177.095 1450.96
v -4.92303 -177.868 1452.97
v -4.57947 -178.995 1451.03
v -0.864949 -178.896 1452.76
v -3.22036 -177.079 1452.75
v -5.22202 -176.645 1452.7
v -2.15434 -179.146 1451.16
v 0.463833 -179.539 1451.83
v -8.17789 -176.399 1451.78
v -5.72164 -178.345 1450.83
v -0.95298 -177.2 1452.87
v -6.35875 -179.294 1452.36
v -4.83662 -176.715 1451.17
v -3.11085 -179.302 1452.73
v -9.41339 -177.466 1453.33
v -3.94384 -179.637 1452.45
v -6.07105 -177.252 1450.43
v -8.45299 -177.678 1451.32
v -9.29933 -178.28 1452.12
v -4.77266 -176.792 1449.72
v -7.43166 -176.555 1450.28
v -6.51656 -178.999 1452.8
v -9.2594 -176.637 1451.15
v -11.7214 -176.341 1453.64
v -7.38014 -178.66 1451.63
v -8.73732 -178.675 1452.57
v -12.3553 -175.922 1452.45
v -10.6986 -177.271 1451.97
v -12.9426 -175.615 1453.37
v -10.7936 -176.177 1452.5
v -11.8191 -176.812 1452.83
v -9.36376 -176.041 1453.31
v -10.4717 -177.719 1453.1
v -11.3514 -175.842 1453.83
v -8.27378 -177.225 1453.27
v -10.465 -178.05 1452.75
v -7.53352 -176.389 1452.93
v 15.1948 -174.883 1453.82
v -11.1916 -176.504 1451.82
v 14.0546 -175.744 1453.89
v 14.1302 -174.684 1452.27
v 14.3693 -175.057 1454.25
v 12.2888 -175.438 1454.01
v 14.8069 -175.602 1453.44
v 10.6499 -177.719 1453.21
v 11.6801 -177.305 1453.17
v 13.5817 -176.445 1452.77
v 7.16859 -179.105 1452.52
v 11.4127 -177.424 1452.47
v 6.60794 -176.586 1449.92
v 12.5906 -174.999 1451.44
v 10.0577 -175.862 1450.83
v 6.00549 -176.946 1452.99
v 7.91315 -176.483 1450.44
v 7.91315 -176.483 1450.44
v 5.84467 -176.728 1449.91
v 5.84467 -176.728 1449.91
v 5.84467 -176.728 1449.91
v 9.53145 -178.433 1452.74
v 9.53145 -178.433 1452.74
v 9.06209 -176.289 1453.35
v 4.60144 -176.729 1449.6
v 1.60076 -177.031 1449.26
v -0.0785035 -176.975 1449.45
v 3.04034 -176.922 1449.22
v 3.04034 -176.922 1449.22
v -1.43031 -177.143 1449.67
v -1.43031 -177.143 1449.67
v 4.21097 -179.567 1452.52
v 0.720778 -179.613 1452.48
v 2.33404 -177.219 1452.87
v -2.37122 -177.27 1449.64
v -2.37122 -177.27 1449.64
v -2.86542 -179.1 1450.77
v -2.86542 -179.1 1450.77
v -3.44292 -177.494 1450
v -4.57947 -178.995 1451.03
v -3.22036 -177.079 1452.75
v -5.22202 -176.645 1452.7
v -0.95298 -177.2 1452.87
v -6.35875 -179.294 1452.36
v -3.94384 -179.637 1452.45
v -4.77266 -176.792 1449.72
v -7.43166 -176.555 1450.28
v -9.2594 -176.637 1451.15
v -11.7214 -176.341 1453.64
v -8.73732 -178.675 1452.57
v -12.3553 -175.922 1452.45
v -12.9426 -175.615 1453.37
v -12.9426 -175.615 1453.37
v -12.9426 -175.615 1453.37
v -11.8191 -176.812 1452.83
v -9.36376 -176.041 1453.31
v -11.3514 -175.842 1453.83
v -10.465 -178.05 1452.75
v -7.53352 -176.389 1452.93
v 15.1948 -174.883 1453.82
v 15.1948 -174.883 1453.82
v -11.1916 -176.504 1451.82
vn -0.193146 0.970634 0.143405
vn 0.369703 -0.828199 0.421196
vn -0.144799 0.954919 0.259158
vn -0.116508 -0.153691 0.981226
vn 0.0427039 -0.434493 0.899662
vn 0.683178 -0.30604 -0.663029
vn 0.487764 -0.404262 -0.77373
vn -0.173611 0.964728 0.197887
vn 0.430327 -0.898685 0.0847636
vn 0.135807 -0.475474 0.869184
vn 0.486368 -0.493533 -0.721021
vn -0.267676 0.958506 0.098057
vn 0.335861 -0.535927 -0.774583
vn 0.21402 -0.898328 -0.38367
vn 0.27636 -0.777274 -0.565216
vn 0.427456 -0.901937 0.0615736
vn -0.0279197 -0.27276 0.961677
vn -0.130967 0.991377 0.00446853
vn 0.216353 -0.508517 -0.833428
vn -0.288772 0.956013 0.0514778
vn 0.320276 -0.466062 -0.824748
vn -0.151537 0.973891 0.169035
vn 0.328065 -0.451064 -0.830009
vn -0.146727 0.988601 0.0337622
vn 0.0266383 -0.428628 0.903089
vn 0.28602 -0.522244 -0.803401
vn 0.138475 -0.889409 -0.435632
vn 0.193955 -0.717653 -0.668847
vn 0.0253689 -0.457029 0.88909
vn -0.0459888 -0.05744 0.997289
vn 0.483727 -0.861456 0.154602
vn -0.132112 -0.0509641 0.989924
vn 0.118775 -0.446723 -0.886753
vn -0.0506287 0.99675 -0.0626616
vn -0.024177 -0.844611 -0.534835
vn -0.00404087 -0.733558 -0.679615
vn -0.0154096 -0.658587 -0.752347
vn 0.00605384 -0.512346 -0.858758
vn -0.0473403 0.998778 -0.0142107
vn -0.00311789 -0.554647 -0.83208
vn 0.0903909 -0.66939 -0.737392
vn -0.0893766 -0.909611 -0.405734
vn -0.0499779 0.998329 0.0289908
vn 0.0300685 -0.52758 -0.848973
vn 0.0154046 -0.865769 -0.500207
vn -0.0911274 0.994066 -0.0594018
vn 0.21905 -0.598366 -0.770698
vn 0.0124278 -0.685238 -0.728213
vn 0.0726209 -0.967251 -0.24321
vn 0.0102807 -0.992977 -0.117858
vn 0.0591508 -0.705669 -0.706068
vn -0.0191642 0.0856725 0.996139
vn 0.0540552 0.993963 -0.0954754
vn -0.155785 -0.155105 -0.975537
vn -0.00860795 -0.0779758 0.996918
vn -0.118883 -0.57309 -0.810823
vn -0.0104577 0.999935 -0.00460772
vn 0.0506004 0.0148899 0.998608
vn -0.0920622 -0.962204 -0.256296
vn 0.0226281 -0.232107 0.972427
vn 0.127921 0.990463 0.0511843
vn 0.0734141 0.235582 0.969078
vn 0.0492988 -0.794558 -0.605184
vn 0.0101561 -0.927846 -0.372826
vn 0.0377094 0.987113 -0.155519
vn -0.180523 -0.506433 -0.84317
vn -0.0256183 0.0352859 0.999049
vn -0.179296 -0.884541 -0.430627
vn 0.122689 0.991678 -0.0390029
vn 0.00515109 -0.373939 0.927439
vn -0.0164618 -0.350545 0.936401
vn -0.0470731 -0.958384 -0.281574
vn -0.235011 -0.519251 -0.821674
vn -0.294294 -0.475655 -0.828941
vn -0.349355 -0.734522 -0.581746
vn 0.136204 0.989554 -0.0472303
vn 0.0133184 0.995663 -0.0920753
vn -0.0808425 -0.57897 0.811331
vn -0.0694468 0.951548 -0.299557
vn -0.541682 -0.698193 0.468088
vn -0.248681 -0.778755 -0.575933
vn -0.147937 -0.687369 0.711083
vn 0.161395 0.918192 -0.361766
vn -0.458009 -0.549107 -0.699078
vn -0.526146 -0.707603 0.471665
vn 0.0696652 0.952501 -0.29646
vn -0.657505 -0.590387 -0.468114
vn 0.248197 0.195766 0.948722
vn -0.295397 -0.628202 0.719794
vn 0.0104794 -0.112969 0.993543
vn 0.161758 0.0758254 0.983913
vn -0.476643 -0.749394 -0.459587
vn 0.163821 0.229518 0.959419
vn -0.0768303 0.976234 0.202644
vn 0.0411459 0.891486 -0.451175
vn 0.327365 -0.62582 0.707941
vn 0.646953 -0.315013 -0.694419
vn 0.1667 -0.437532 0.883616
vn -0.247614 0.947692 0.201413
vn 0.485131 -0.757797 0.436338
vn 0.121307 -0.476483 0.870775
vn 0.41125 -0.911517 -0.00324472
vn 0.4478 -0.884209 0.132854
vn 0.120319 -0.694525 0.709336
vn 0.361952 -0.735675 -0.572515
vn 0.179813 -0.948161 -0.262029
vn 0.41313 -0.435037 -0.800042
vn -0.264896 0.960478 -0.0855132
vn -0.0846259 0.0682825 0.99407
vn 0.179813 -0.948161 -0.262029
vn -0.162142 0.982746 -0.0890004
vn 0.243299 -0.0642459 -0.967821
vn -0.0779592 0.995526 -0.0533875
vn 0.179813 -0.948161 -0.262029
vn 0.130082 -0.686839 0.715074
vn 0.317348 -0.831411 -0.45612
vn -0.259615 0.951751 0.163618
vn 0.243299 -0.0642459 -0.967821
vn -0.0241374 0.9988 -0.0426166
vn -0.0445136 -0.804407 -0.592409
vn 0.243299 -0.0642459 -0.967821
vn 0.109265 -0.862264 -0.494533
vn -0.131505 0.990309 -0.0446493
vn 0.1387 -0.972401 -0.18761
vn 0.0553926 -0.608188 0.791858
vn 0.0089188 -0.401637 0.915756
vn -0.056445 0.98501 0.163001
vn -0.145918 -0.593146 -0.791761
vn 0.1387 -0.972401 -0.18761
vn -0.0621588 -0.998053 -0.00515829
vn 0.389603 -0.51639 -0.762595
vn 0.1387 -0.972401 -0.18761
vn -0.157232 -0.408416 -0.899152
vn -0.00502501 0.151868 0.988388
vn 0.16013 0.987085 -0.00471481
vn 0.0059388 0.997157 0.0751188
vn -0.157989 -0.848927 0.504343
vn -0.0598016 -0.705094 0.706588
vn -0.18132 -0.609505 -0.771768
vn -0.250444 -0.64666 -0.720492
vn -0.304383 -0.463158 -0.832368
vn -0.13702 -0.300272 0.943961
vn -0.297807 -0.874815 -0.382111
vn -0.684417 -0.593152 -0.423962
vn -0.289983 -0.130264 0.948125
vn 0.174716 0.96582 -0.191486
vn -0.759745 -0.581699 -0.29054
vn -0.539955 -0.673424 0.504924
vn 0.0766207 0.980581 -0.180525
vn 0.111996 0.973609 -0.198853
vn -0.367356 -0.679502 0.63508
vn 0.119359 0.991145 -0.0581812
vn 0.809287 -0.132085 -0.57237
vn 0.480873 -0.584273 0.653748
vn -0.532375 -0.513951 -0.67263
g grp1
usemtl mtl1
f 1//1 8//8 94//94 
f 6//6 97//97 153//153 
f 154//154 96//96 100//100 
f 2//2 100//100 96//96 
f 2//2 96//96 5//5 
f 5//5 10//10 2//2 
f 16//16 2//2 102//102 
f 16//16 102//102 9//9 
f 31//31 16//16 9//9 
f 25//25 115//115 101//101 
f 25//25 101//101 17//17 
f 32//32 25//25 17//17 
f 32//32 17//17 4//4 
f 12//12 117//117 99//99 
f 12//12 99//99 8//8 
f 1//1 12//12 8//8 
f 20//20 12//12 1//1 
f 107//107 97//97 7//7 
f 23//23 107//107 7//7 
f 23//23 7//7 13//13 
f 19//19 23//23 13//13 
f 19//19 13//13 47//47 
f 33//33 19//19 47//47 
f 41//41 33//33 47//47 
f 27//27 41//41 47//47 
f 47//47 15//15 27//27 
f 15//15 14//14 27//27 
f 27//27 14//14 49//49 
f 64//64 27//27 49//49 
f 64//64 49//49 50//50 
f 64//64 50//50 72//72 
f 42//42 64//64 72//72 
f 68//68 42//42 72//72 
f 137//137 138//138 78//78 
f 82//82 137//137 78//78 
f 71//71 82//82 78//78 
f 71//71 78//78 58//58 
f 71//71 58//58 91//91 
f 90//90 71//71 91//91 
f 88//88 90//90 91//91 
f 88//88 91//91 93//93 
f 65//65 149//149 152//152 
f 65//65 152//152 69//69 
f 65//65 69//69 77//77 
f 65//65 77//77 79//79 
f 86//86 65//65 79//79 
f 95//95 86//86 79//79 
f 155//155 141//141 84//84 
f 87//87 155//155 84//84 
f 84//84 92//92 87//87 
f 151//151 89//89 148//148 
f 148//148 89//89 80//80 
f 85//85 148//148 80//80 
f 145//145 142//142 90//90 
f 86//86 146//146 150//150 
f 86//86 150//150 149//149 
f 86//86 149//149 65//65 
f 83//83 146//146 86//86 
f 86//86 95//95 83//83 
f 87//87 144//144 155//155 
f 144//144 87//87 147//147 
f 142//142 71//71 90//90 
f 142//142 89//89 71//71 
f 82//82 71//71 89//89 
f 82//82 89//89 151//151 
f 92//92 75//75 143//143 
f 75//75 81//81 143//143 
f 81//81 68//68 143//143 
f 81//81 42//42 68//68 
f 59//59 42//42 81//81 
f 66//66 133//133 81//81 
f 74//74 66//66 81//81 
f 75//75 74//74 81//81 
f 75//75 84//84 74//74 
f 141//141 74//74 84//84 
f 141//141 73//73 74//74 
f 73//73 66//66 74//74 
f 66//66 73//73 56//56 
f 66//66 56//56 44//44 
f 66//66 44//44 133//133 
f 44//44 54//54 133//133 
f 59//59 130//130 63//63 
f 59//59 63//63 42//42 
f 64//64 42//42 63//63 
f 63//63 37//37 64//64 
f 64//64 37//37 45//45 
f 64//64 45//45 27//27 
f 45//45 41//41 27//27 
f 37//37 41//41 45//45 
f 37//37 38//38 41//41 
f 33//33 41//41 38//38 
f 38//38 51//51 33//33 
f 51//51 19//19 33//33 
f 51//51 28//28 19//19 
f 19//19 28//28 26//26 
f 26//26 23//23 19//19 
f 26//26 21//21 23//23 
f 21//21 107//107 23//23 
f 108//108 12//12 20//20 
f 108//108 24//24 12//12 
f 24//24 117//117 12//12 
f 117//117 24//24 22//22 
f 32//32 109//109 30//30 
f 32//32 30//30 25//25 
f 30//30 29//29 25//25 
f 29//29 104//104 25//25 
f 104//104 115//115 25//25 
f 15//15 116//116 14//14 
f 15//15 105//105 116//116 
f 13//13 105//105 15//15 
f 13//13 15//15 47//47 
f 13//13 11//11 105//105 
f 16//16 103//103 2//2 
f 103//103 100//100 2//2 
f 7//7 6//6 11//11 
f 13//13 7//7 11//11 
f 7//7 97//97 6//6 
f 104//104 29//29 125//125 
f 29//29 126//126 125//125 
f 55//55 126//126 29//29 
f 30//30 55//55 29//29 
f 55//55 30//30 52//52 
f 67//67 55//55 52//52 
f 43//43 136//136 127//127 
f 43//43 127//127 24//24 
f 43//43 24//24 34//34 
f 46//46 43//43 34//34 
f 121//121 118//118 112//112 
f 122//122 28//28 51//51 
f 51//51 35//35 122//122 
f 119//119 43//43 46//46 
f 39//39 43//43 119//119 
f 120//120 35//35 36//36 
f 120//120 36//36 48//48 
f 57//57 39//39 123//123 
f 57//57 123//123 53//53 
f 69//69 57//57 53//53 
f 76//76 69//69 53//53 
f 139//139 128//128 56//56 
f 139//139 56//56 73//73 
f 73//73 140//140 139//139 
f 77//77 69//69 76//76 
f 141//141 140//140 73//73 
f 129//129 124//124 132//132 
f 48//48 44//44 56//56 
f 48//48 36//36 44//44 
f 36//36 40//40 44//44 
f 44//44 40//40 63//63 
f 44//44 63//63 131//131 
f 40//40 37//37 63//63 
f 40//40 38//38 37//37 
f 40//40 51//51 38//38 
f 36//36 51//51 40//40 
f 35//35 51//51 36//36 
f 69//69 61//61 57//57 
f 57//57 61//61 136//136 
f 57//57 136//136 43//43 
f 39//39 57//57 43//43 
f 67//67 134//134 55//55 
f 134//134 58//58 55//55 
f 58//58 60//60 55//55 
f 60//60 126//126 55//55 
f 60//60 70//70 126//126 
f 138//138 126//126 70//70 
f 78//78 138//138 70//70 
f 58//58 78//78 70//70 
f 58//58 70//70 60//60 
f 62//62 58//58 134//134 
f 135//135 61//61 69//69 
f 69//69 152//152 135//135 
f 93//93 58//58 62//62 
f 93//93 91//91 58//58 
f 34//34 24//24 113//113 
f 113//113 24//24 18//18 
f 114//114 106//106 110//110 
f 24//24 111//111 18//18 
f 111//111 24//24 108//108 
f 24//24 127//127 22//22 
f 109//109 52//52 30//30 
f 84//84 75//75 92//92 
f 8//8 99//99 3//3 
f 8//8 3//3 94//94 
f 98//98 96//96 154//154 
f 98//98 5//5 96//96 
f 4//4 5//5 98//98 
f 4//4 17//17 5//5 
f 5//5 17//17 10//10 
f 17//17 101//101 10//10 
