v 19.2948 -85.0575 1390.87
v 18.8328 -85.3769 1392.27
v 18.64 -85.1208 1392.04
v 19.0488 -84.7877 1390.77
v 18.6411 -84.7135 1392.09
v 19.0526 -84.3893 1391.52
v 19.5359 -84.5098 1390.27
v 20.2318 -84.454 1389.62
v 20.9365 -84.5999 1389.36
v 20.5779 -84.1849 1389.3
v 21.42 -84.2245 1388.92
v 21.9096 -84.5171 1388.88
v 22.0122 -84.2919 1388.77
v 22.1564 -84.5859 1388.87
v 22.5294 -84.653 1388.93
v 22.4601 -84.8822 1389.03
v 21.9267 -84.7098 1389.03
v 22.3738 -85.3332 1389.5
v 21.3339 -85.8926 1391.73
v 18.6044 -85.4992 1394.09
v 18.1676 -85.1819 1393.43
v 17.9387 -84.6213 1394.55
v 17.7143 -84.5073 1397.89
v 17.6135 -84.1051 1397.83
v 18.1386 -83.2754 1397.42
v 21.9757 -84.1526 1394.55
v 20.8243 -83.1005 1400.5
v 22.2051 -83.5694 1399.67
v 21.6503 -83.1997 1401.4
v 21.8582 -83.5651 1400.98
v 22.1907 -83.9457 1399.1
v 21.9491 -84.036 1399.64
v 22.2488 -84.9952 1394.9
v 22.4971 -84.6885 1394.41
v 22.5529 -84.3368 1390.09
v 22.2533 -84.1109 1389.4
v 22.6686 -84.5307 1389.17
v 22.4609 -84.4224 1388.95
v 22.0519 -84.1276 1388.91
v 21.6707 -84.0394 1388.98
v 22.0296 -84.0206 1389.38
v 21.595 -84.0034 1389.38
v 21.4129 -84.0699 1389.08
v 20.4028 -84.1233 1390.07
v 22.7743 -84.8089 1389.45
v 22.6355 -85.0477 1389.21
v 22.6684 -85.1309 1389.95
v 20.8094 -85.427 1396.53
v 18.0692 -84.8729 1400.5
v 17.7988 -84.5263 1403.86
v 17.6248 -84.2543 1403.71
v 17.8221 -83.6636 1402.19
v 18.3539 -83.5359 1403.66
v 17.7385 -84.1058 1404.69
v 17.816 -84.1837 1404.88
v 18.0813 -83.9124 1404.55
v 18.8772 -84.0997 1404.19
v 19.6359 -84.082 1403.55
v 21.1411 -83.5731 1402.21
v 21.5049 -83.7591 1402.01
v 21.2707 -84.0072 1401.7
v 19.2727 -84.3835 1403.27
v 18.8157 -84.3823 1404.23
v 18.39 -84.3387 1404.15
v 17.984 -84.4831 1404.07
v 17.9877 -84.4221 1404.58
v 18.4441 -84.1595 1404.43
v 17.7517 -84.5016 1404.58
v 17.707 -84.2877 1404.6
v 18.64 -85.1208 1392.04
v 19.0488 -84.7877 1390.77
v 19.0488 -84.7877 1390.77
v 19.5359 -84.5098 1390.27
v 20.2318 -84.454 1389.62
v 20.5779 -84.1849 1389.3
v 20.5779 -84.1849 1389.3
v 20.5779 -84.1849 1389.3
v 21.42 -84.2245 1388.92
v 22.0122 -84.2919 1388.77
v 22.5294 -84.653 1388.93
v 22.3738 -85.3332 1389.5
v 18.1676 -85.1819 1393.43
v 17.7143 -84.5073 1397.89
v 17.6135 -84.1051 1397.83
v 18.1386 -83.2754 1397.42
v 22.2051 -83.5694 1399.67
v 22.2051 -83.5694 1399.67
v 21.6503 -83.1997 1401.4
v 21.6503 -83.1997 1401.4
v 21.8582 -83.5651 1400.98
v 22.4971 -84.6885 1394.41
v 22.6686 -84.5307 1389.17
v 22.4609 -84.4224 1388.95
v 22.0519 -84.1276 1388.91
v 21.6707 -84.0394 1388.98
v 21.4129 -84.0699 1389.08
v 22.7743 -84.8089 1389.45
v 22.6355 -85.0477 1389.21
v 18.0692 -84.8729 1400.5
v 17.7988 -84.5263 1403.86
v 17.6248 -84.2543 1403.71
v 18.3539 -83.5359 1403.66
v 18.3539 -83.5359 1403.66
v 18.3539 -83.5359 1403.66
v 17.7385 -84.1058 1404.69
v 17.7385 -84.1058 1404.69
v 17.816 -84.1837 1404.88
v 17.816 -84.1837 1404.88
v 17.816 -84.1837 1404.88
v 17.816 -84.1837 1404.88
v 18.0813 -83.9124 1404.55
v 18.0813 -83.9124 1404.55
v 18.8772 -84.0997 1404.19
v 19.6359 -84.082 1403.55
v 19.6359 -84.082 1403.55
v 21.5049 -83.7591 1402.01
v 21.5049 -83.7591 1402.01
v 18.8157 -84.3823 1404.23
v 18.4441 -84.1595 1404.43
v 18.4441 -84.1595 1404.43
v 17.7517 -84.5016 1404.58
v 17.7517 -84.5016 1404.58
vn -0.407828 -0.784412 -0.467304
vn -0.441733 -0.867613 -0.228297
vn -0.609868 -0.720782 -0.329445
vn -0.526939 -0.678312 -0.512082
vn -0.915878 0.275536 -0.291972
vn -0.549976 0.803678 -0.227218
vn -0.533962 0.805537 -0.256894
vn -0.680361 -0.0520768 -0.731025
vn -0.351259 -0.598791 -0.719768
vn -0.386998 -0.45778 -0.800419
vn -0.334948 -0.435439 -0.835585
vn -0.262891 -0.490101 -0.831077
vn -0.110959 -0.345089 -0.931988
vn -0.0837989 -0.471549 -0.877849
vn 0.185063 -0.395964 -0.899425
vn 0.0131519 -0.60151 -0.798757
vn -0.249995 -0.63898 -0.727466
vn -0.212907 -0.768334 -0.6036
vn 0.11561 -0.991382 -0.0616101
vn -0.326657 -0.944727 0.0280406
vn -0.591745 -0.798913 -0.10759
vn -0.95527 0.230255 -0.185586
vn -0.91508 -0.402787 -0.0197739
vn -0.968597 -0.246769 -0.0304237
vn -0.830633 0.539949 -0.136031
vn 0.277834 0.960067 -0.0328506
vn 0.0980863 0.994099 -0.0463304
vn 0.413161 0.902369 -0.122592
vn 0.119501 0.992834 -0.000245891
vn 0.935487 0.191538 0.296948
vn 0.858399 -0.478507 0.184883
vn 0.665244 -0.716041 0.21151
vn 0.659751 -0.738484 0.139176
vn 0.926904 -0.363292 0.0941642
vn 0.784847 0.619242 0.0235691
vn 0.543672 0.831327 -0.115397
vn 0.76824 0.634036 -0.0883469
vn 0.605702 0.756622 -0.246268
vn 0.226494 0.591127 -0.774125
vn -0.161384 0.617314 -0.769986
vn 0.206332 0.974608 -0.0869884
vn -0.0824336 0.99463 -0.0625772
vn -0.162073 0.979802 -0.117137
vn -0.257375 0.961884 -0.0923976
vn 0.945876 -0.221335 -0.237338
vn 0.871046 -0.43618 -0.225888
vn 0.778995 -0.626972 0.00856561
vn 0.1978 -0.967185 0.159463
vn 0.0326586 -0.995219 0.0920468
vn -0.810474 -0.585748 -0.00561059
vn -0.955443 -0.293592 0.0305279
vn -0.747969 0.660844 0.0618627
vn -0.397621 0.914026 0.0803316
vn -0.702445 0.711255 -0.026222
vn -0.139983 0.89901 0.414952
vn -0.613305 0.776991 0.141922
vn 0.387348 0.794337 0.467963
vn 0.448435 0.6149 0.648694
vn 0.4675 0.586642 0.661283
vn 0.59132 0.412585 0.692903
vn 0.46005 -0.854517 0.241153
vn 0.315603 -0.929905 0.188867
vn 0.0997346 -0.955267 0.278421
vn 0.18393 -0.942323 0.279638
vn 0.246656 -0.96413 0.0980565
vn 0.410899 -0.810485 0.417464
vn 0.547077 -0.636021 0.544228
vn 0.235381 -0.692957 0.681474
vn -0.965173 -0.0819889 0.248434
vn -0.950632 0.0401244 -0.307715
vn -0.852952 0.416833 -0.314204
vn -0.674376 -0.112349 -0.729791
vn -0.680361 -0.0520768 -0.731025
vn -0.399954 -0.604169 -0.689214
vn -0.257708 0.956771 -0.134814
vn -0.683849 0.00838681 -0.729575
vn -0.276736 0.682298 -0.676673
vn -0.250814 0.628314 -0.736419
vn 0.186909 0.494076 -0.84909
vn 0.7811 0.0809392 -0.619138
vn 0.606052 -0.794453 -0.0393182
vn -0.974538 -0.0258371 -0.222727
vn -0.395039 -0.916854 0.0576423
vn -0.891302 0.450114 -0.054571
vn -0.0704776 0.99584 -0.0577518
vn 0.936376 0.249443 0.246937
vn 0.943723 -0.286138 0.165869
vn 0.935487 0.191538 0.296948
vn 0.458202 0.659969 0.595392
vn 0.849456 -0.471774 0.236333
vn 0.798285 0.602279 -0.00128391
vn 0.844436 0.0844048 -0.528965
vn 0.55924 0.345607 -0.75353
vn 0.38908 0.893404 -0.224599
vn 0.0200832 0.990065 -0.139167
vn -0.296818 0.677537 -0.672936
vn 0.923834 0.380847 0.0385576
vn 0.215497 -0.61022 -0.76236
vn -0.747066 -0.664696 0.00844844
vn 0.141561 -0.986851 0.0780113
vn -0.796396 0.601965 0.0582382
vn -0.139983 0.89901 0.414952
vn -0.613305 0.776991 0.141922
vn 0.35619 0.765955 0.535202
vn -0.139983 0.89901 0.414952
vn -0.970448 0.0602118 0.233676
vn -0.613305 0.776991 0.141922
vn 0.520973 0.418774 0.743784
vn 0.382865 -0.606331 0.696977
vn -0.909218 -0.11833 0.399149
vn 0.395153 0.794775 0.460638
vn 0.486984 0.340749 0.804199
vn 0.53148 0.100082 0.841138
vn 0.43689 -0.859368 0.265734
vn 0.642095 -0.00712196 0.766592
vn 0.92912 0.132511 0.34522
vn 0.646859 -0.715942 0.26268
vn 0.567071 0.0190109 0.82345
vn -0.188532 -0.806734 0.560033
vn 0.491939 0.244313 0.835647
vn -0.925383 -0.342197 0.162997
vn 0.24859 -0.965435 0.0783523
g grp1
usemtl mtl1
f 1//1 2//2 3//3 
f 4//4 1//1 3//3 
f 71//71 70//70 5//5 
f 71//71 5//5 6//6 
f 71//71 6//6 7//7 
f 72//72 73//73 8//8 
f 4//4 74//74 1//1 
f 9//9 1//1 74//74 
f 9//9 74//74 10//10 
f 10//10 11//11 9//9 
f 12//12 9//9 11//11 
f 11//11 13//13 12//12 
f 14//14 12//12 13//13 
f 14//14 13//13 15//15 
f 15//15 16//16 14//14 
f 14//14 16//16 17//17 
f 12//12 14//14 17//17 
f 9//9 12//12 17//17 
f 9//9 17//17 18//18 
f 1//1 9//9 18//18 
f 18//18 19//19 1//1 
f 1//1 19//19 2//2 
f 19//19 20//20 2//2 
f 2//2 20//20 21//21 
f 3//3 2//2 21//21 
f 5//5 70//70 82//82 
f 22//22 5//5 82//82 
f 82//82 23//23 22//22 
f 22//22 23//23 24//24 
f 22//22 84//84 25//25 
f 6//6 22//22 25//25 
f 26//26 6//6 85//85 
f 26//26 85//85 27//27 
f 28//28 26//26 27//27 
f 28//28 27//27 29//29 
f 88//88 30//30 86//86 
f 31//31 87//87 90//90 
f 31//31 90//90 32//32 
f 32//32 33//33 31//31 
f 31//31 33//33 34//34 
f 31//31 34//34 87//87 
f 28//28 91//91 26//26 
f 91//91 35//35 26//26 
f 36//36 26//26 35//35 
f 36//36 35//35 37//37 
f 38//38 36//36 37//37 
f 92//92 80//80 93//93 
f 79//79 93//93 80//80 
f 39//39 93//93 79//79 
f 39//39 79//79 40//40 
f 94//94 95//95 41//41 
f 36//36 94//94 41//41 
f 36//36 41//41 26//26 
f 42//42 26//26 41//41 
f 41//41 95//95 42//42 
f 95//95 43//43 42//42 
f 42//42 43//43 75//75 
f 42//42 75//75 44//44 
f 42//42 44//44 26//26 
f 6//6 26//26 44//44 
f 44//44 7//7 6//6 
f 75//75 7//7 44//44 
f 73//73 76//76 8//8 
f 77//77 96//96 78//78 
f 96//96 40//40 78//78 
f 79//79 78//78 40//40 
f 36//36 38//38 94//94 
f 92//92 45//45 80//80 
f 46//46 80//80 45//45 
f 46//46 45//45 47//47 
f 47//47 81//81 46//46 
f 18//18 16//16 98//98 
f 16//16 15//15 98//98 
f 16//16 18//18 17//17 
f 19//19 81//81 47//47 
f 33//33 19//19 47//47 
f 47//47 34//34 33//33 
f 47//47 45//45 34//34 
f 97//97 35//35 91//91 
f 37//37 35//35 97//97 
f 33//33 48//48 19//19 
f 19//19 48//48 20//20 
f 48//48 83//83 20//20 
f 20//20 83//83 21//21 
f 83//83 48//48 49//49 
f 99//99 50//50 23//23 
f 50//50 51//51 23//23 
f 24//24 23//23 51//51 
f 84//84 101//101 52//52 
f 84//84 52//52 25//25 
f 53//53 85//85 52//52 
f 101//101 53//53 52//52 
f 101//101 54//54 53//53 
f 102//102 105//105 55//55 
f 107//107 56//56 103//103 
f 111//111 57//57 104//104 
f 57//57 58//58 104//104 
f 58//58 59//59 104//104 
f 89//89 104//104 59//59 
f 89//89 59//59 60//60 
f 30//30 88//88 116//116 
f 117//117 32//32 90//90 
f 117//117 61//61 32//32 
f 48//48 32//32 61//61 
f 61//61 114//114 48//48 
f 48//48 114//114 62//62 
f 49//49 48//48 62//62 
f 49//49 62//62 63//63 
f 49//49 63//63 64//64 
f 65//65 49//49 64//64 
f 66//66 65//65 64//64 
f 67//67 66//66 64//64 
f 64//64 63//63 119//119 
f 120//120 118//118 113//113 
f 120//120 113//113 112//112 
f 120//120 112//112 108//108 
f 66//66 67//67 109//109 
f 68//68 66//66 109//109 
f 121//121 110//110 69//69 
f 121//121 69//69 51//51 
f 51//51 50//50 121//121 
f 122//122 100//100 65//65 
f 66//66 122//122 65//65 
f 49//49 65//65 100//100 
f 51//51 69//69 106//106 
f 69//69 110//110 106//106 
f 115//115 113//113 118//118 
f 62//62 114//114 63//63 
f 117//117 114//114 61//61 
f 58//58 60//60 59//59 
f 32//32 48//48 33//33 
f 27//27 53//53 29//29 
f 85//85 53//53 27//27 
f 5//5 22//22 6//6 
