v -25.733 -77.727 1420.5
v -25.6566 -77.5941 1420.55
v -25.8196 -77.6128 1420.46
v -26.6253 -77.5337 1420.28
v -26.7875 -77.5495 1420.3
v -26.8693 -77.6061 1420.21
v -26.8487 -77.7713 1419.73
v -26.9953 -78.6673 1420.14
v -27.1468 -78.6581 1420.06
v -27.1105 -78.6685 1420.15
v -26.6914 -78.5296 1418.85
v -27.2736 -78.5563 1418.63
v -27.2679 -78.8034 1417.66
v -27.7008 -78.5224 1418.02
v -27.3613 -78.1918 1418.88
v -27.6236 -78.2733 1419.97
v -27.2973 -78.632 1420.05
v -27.605 -78.4073 1419.95
v -27.6516 -78.4915 1420.06
v -27.4148 -78.5885 1420.05
v -27.497 -78.0527 1420.08
v -27.611 -78.177 1420.08
v -27.6784 -78.2625 1420.07
v -27.359 -77.9365 1420.09
v -27.1003 -77.7268 1420.2
v -27.2291 -77.8214 1420.18
v -27.2313 -77.9239 1418.91
v -27.2323 -77.559 1418.34
v -27.653 -77.7436 1418.09
v -25.703 -78.5554 1409.3
v -27.7651 -79.1394 1409.11
v -26.7391 -78.9255 1413.4
v -27.7843 -79.0579 1415.3
v -28.2651 -78.9255 1415.43
v -28.0499 -79.002 1415.91
v -28.0673 -77.7295 1416.83
v -27.4978 -77.3314 1417.35
v -27.9623 -77.373 1415.49
v -28.3174 -77.7433 1414.74
v -28.169 -78.3085 1416.41
v -28.5414 -79.0722 1413.99
v -28.4501 -79.2654 1412.57
v -28.6601 -79.335 1410.27
v -29.1211 -78.9381 1410.27
v -28.7732 -79.1348 1412.49
v -29.0221 -79.2586 1410.63
v -28.5361 -78.4531 1413.76
v -28.8059 -78.2848 1411.53
v -28.299 -77.5054 1413.27
v -27.7734 -77.0708 1414
v -27.9988 -78.9337 1416.87
v -27.7352 -78.7885 1417.73
v -27.8193 -78.1853 1417.78
v -27.3791 -77.0636 1416.41
v -27.3138 -77.0162 1415.03
v -27.5629 -77.4519 1409.65
v -27.1103 -77.1131 1410.98
v -27.5931 -77.1215 1412.37
v -27.3724 -77.825 1406.51
v -28.0515 -77.9952 1407.33
v -28.6893 -79.2204 1405.31
v -28.8726 -79.2972 1405.65
v -28.5401 -79.2609 1406.07
v -28.3243 -78.9561 1405.35
v -28.172 -78.4188 1405.95
v -28.7995 -79.0318 1405.43
v -29.1307 -79.024 1406.1
v -28.8278 -78.775 1406.09
v -28.6521 -78.5557 1407.09
v -29.1464 -79.2498 1406.62
v -28.8517 -79.3118 1408.05
v -29.1415 -79.2528 1408.74
v -28.718 -78.3736 1409.52
v -28.3435 -77.6773 1411.45
v -28.2778 -77.9851 1408.61
v -27.4831 -78.1598 1405.75
v -27.8434 -78.5474 1405.72
v -27.7233 -78.9025 1405.83
v -28.2144 -79.2039 1405.41
v -27.5779 -79.0071 1406.38
v -29.1816 -79.0073 1407.51
v -27.3231 -77.9438 1405.81
v -26.8882 -78.4241 1406.29
v -26.2201 -77.0194 1411.33
v -26.9906 -77.0161 1413.52
v -25.7553 -77.4804 1415.62
v -26.5499 -77.31 1418.63
v -26.4706 -77.1838 1409.14
v -24.929 -77.8145 1416.65
v -25.1515 -77.4886 1417.35
v -24.7824 -77.6479 1413.41
v -25.3958 -77.3277 1412.31
v -24.547 -77.9295 1414.95
v -24.4491 -78.2017 1415.71
v -25.4183 -77.3474 1418.09
v -24.5311 -77.6341 1418.59
v -25.4654 -77.4107 1419.17
v -24.8241 -77.5054 1419.23
v -24.4575 -78.4768 1418.25
v -25.1176 -78.558 1417.5
v -25.2012 -78.4886 1418.47
v -24.736 -78.3231 1412.68
v -24.5829 -78.3803 1416.94
v -24.4527 -78.1186 1409.4
v -24.9309 -78.2514 1407.84
v -24.5982 -77.5087 1407.96
v -24.9598 -77.3524 1407.36
v -24.5369 -77.8645 1407.73
v -24.7637 -77.1639 1407.88
v -24.5964 -77.4485 1408.79
v -25.0191 -77.0587 1409.66
v -25.172 -77.8606 1407.26
v -24.7807 -78.163 1407.51
v -25.7535 -78.257 1419.33
v -24.555 -78.2245 1418.86
v -26.2212 -77.186 1416.34
v -24.4287 -77.9483 1417.65
v -24.2599 -77.909 1418.46
v -24.4571 -78.2416 1417.03
v -24.0704 -78.2217 1417.77
v -24.2462 -77.6916 1419.11
v -24.3211 -77.9238 1419.1
v -24.1215 -78.3047 1418.19
v -24.2711 -78.4498 1417.83
v -26.4721 -78.3836 1419.65
v -26.3845 -78.5104 1420.31
v -26.2973 -78.3765 1420.35
v -26.0234 -77.6015 1419.55
v -25.6336 -77.912 1419.66
v -26.0936 -77.9797 1420.34
v -26.0031 -77.8607 1420.32
v -26.3316 -77.5141 1420.42
v -26.0828 -77.5532 1420.44
v -26.2047 -77.5328 1420.43
v -26.4581 -77.4953 1420.4
v -26.5601 -77.5911 1419.24
v -26.6791 -77.1182 1417.76
v -26.8225 -77.0242 1416.66
v -26.2363 -78.2435 1420.34
v -26.1668 -78.1136 1420.36
v -26.5055 -78.5341 1420.23
v -25.9302 -78.5301 1407.06
v -26.7654 -78.7793 1406.51
v -26.5088 -77.5844 1406.12
v -26.6345 -77.7305 1405.81
v -26.1868 -77.7639 1406.25
v -25.6175 -77.0839 1409.32
v -25.8995 -77.537 1406.67
v -25.7115 -77.2908 1407.28
v -26.3999 -77.4425 1406.94
v -25.9796 -77.9992 1406.75
v -26.6405 -77.9786 1406.09
v -24.4597 -77.8051 1412.23
v -24.64 -77.5192 1411.18
v -24.4159 -78.1645 1412.89
v -24.9604 -77.2488 1410.55
v -24.4379 -77.7928 1410.03
v -24.3719 -77.8704 1408.4
v -25.0792 -77.1639 1408.02
v -26.2217 -78.6887 1407.38
v -25.3867 -77.5003 1406.82
v -25.3532 -78.2516 1407.3
v -26.2704 -78.7006 1417.61
v -26.7333 -78.6055 1420.18
v -26.6225 -78.5701 1420.2
v -25.0815 -77.7087 1419.37
v -27.5326 -78.5439 1420.06
v -26.8822 -78.6707 1420.2
v -26.9902 -77.654 1420.2
v -26.5804 -77.4707 1420.38
v -25.9725 -77.5086 1420.51
v -25.8711 -77.822 1420.5
v -25.8196 -77.6128 1420.46
v -25.8196 -77.6128 1420.46
v -26.6253 -77.5337 1420.28
v -26.6253 -77.5337 1420.28
v -26.6253 -77.5337 1420.28
v -26.6253 -77.5337 1420.28
v -26.6253 -77.5337 1420.28
v -26.9953 -78.6673 1420.14
v -27.1468 -78.6581 1420.06
v -27.1468 -78.6581 1420.06
v -27.1468 -78.6581 1420.06
v -27.1468 -78.6581 1420.06
v -27.2736 -78.5563 1418.63
v -27.2736 -78.5563 1418.63
v -27.3613 -78.1918 1418.88
v -27.3613 -78.1918 1418.88
v -27.3613 -78.1918 1418.88
v -27.6236 -78.2733 1419.97
v -27.6236 -78.2733 1419.97
v -27.6236 -78.2733 1419.97
v -27.6236 -78.2733 1419.97
v -27.2973 -78.632 1420.05
v -27.2973 -78.632 1420.05
v -27.2973 -78.632 1420.05
v -27.605 -78.4073 1419.95
v -27.6516 -78.4915 1420.06
v -27.6516 -78.4915 1420.06
v -27.4148 -78.5885 1420.05
v -27.359 -77.9365 1420.09
v -27.359 -77.9365 1420.09
v -27.2313 -77.9239 1418.91
v -28.2651 -78.9255 1415.43
v -28.0673 -77.7295 1416.83
v -28.5414 -79.0722 1413.99
v -28.7732 -79.1348 1412.49
v -29.0221 -79.2586 1410.63
v -27.9988 -78.9337 1416.87
v -27.7352 -78.7885 1417.73
v -28.6893 -79.2204 1405.31
v -28.6893 -79.2204 1405.31
v -28.6893 -79.2204 1405.31
v -28.8726 -79.2972 1405.65
v -28.3243 -78.9561 1405.35
v -28.7995 -79.0318 1405.43
v -29.1307 -79.024 1406.1
v -29.1464 -79.2498 1406.62
v -29.1415 -79.2528 1408.74
v -27.4831 -78.1598 1405.75
v -27.8434 -78.5474 1405.72
v -27.7233 -78.9025 1405.83
v -28.2144 -79.2039 1405.41
v -28.2144 -79.2039 1405.41
v -29.1816 -79.0073 1407.51
v -27.3231 -77.9438 1405.81
v -24.4491 -78.2017 1415.71
v -24.8241 -77.5054 1419.23
v -24.4527 -78.1186 1409.4
v -24.9598 -77.3524 1407.36
v -24.9598 -77.3524 1407.36
v -24.5369 -77.8645 1407.73
v -24.5369 -77.8645 1407.73
v -24.7637 -77.1639 1407.88
v -25.0191 -77.0587 1409.66
v -24.7807 -78.163 1407.51
v -24.7807 -78.163 1407.51
v -25.7535 -78.257 1419.33
v -24.555 -78.2245 1418.86
v -24.555 -78.2245 1418.86
v -24.2599 -77.909 1418.46
v -24.2599 -77.909 1418.46
v -24.4571 -78.2416 1417.03
v -24.0704 -78.2217 1417.77
v -24.0704 -78.2217 1417.77
v -24.2462 -77.6916 1419.11
v -24.2462 -77.6916 1419.11
v -24.3211 -77.9238 1419.1
v -24.3211 -77.9238 1419.1
v -24.1215 -78.3047 1418.19
v -26.4721 -78.3836 1419.65
v -26.3845 -78.5104 1420.31
v -26.0234 -77.6015 1419.55
v -26.0234 -77.6015 1419.55
v -25.6336 -77.912 1419.66
v -25.6336 -77.912 1419.66
v -25.6336 -77.912 1419.66
v -26.0936 -77.9797 1420.34
v -26.0936 -77.9797 1420.34
v -26.0936 -77.9797 1420.34
v -26.0031 -77.8607 1420.32
v -26.0031 -77.8607 1420.32
v -26.3316 -77.5141 1420.42
v -26.3316 -77.5141 1420.42
v -26.3316 -77.5141 1420.42
v -26.5601 -77.5911 1419.24
v -26.2363 -78.2435 1420.34
v -26.2363 -78.2435 1420.34
v -26.7654 -78.7793 1406.51
v -26.5088 -77.5844 1406.12
v -26.6345 -77.7305 1405.81
v -26.6345 -77.7305 1405.81
v -26.6345 -77.7305 1405.81
v -26.1868 -77.7639 1406.25
v -26.1868 -77.7639 1406.25
v -25.8995 -77.537 1406.67
v -24.4159 -78.1645 1412.89
v -24.3719 -77.8704 1408.4
v -24.3719 -77.8704 1408.4
v -25.3867 -77.5003 1406.82
v -25.8711 -77.822 1420.5
vn 0.323165 -0.0853811 -0.942483
vn 0.478126 0.0552472 -0.876552
vn 0.323165 -0.0853811 -0.942483
vn -0.160783 0.91051 -0.380947
vn -0.140137 0.890725 -0.4324
vn -0.216481 0.90657 -0.362308
vn -0.429283 0.879497 -0.205431
vn 0.000396534 -0.993358 -0.115063
vn 0.000396534 -0.993358 -0.115063
vn 0.000396534 -0.993358 -0.115063
vn 0.136596 -0.980044 0.144415
vn 0.0111962 -0.990137 0.139656
vn 0.0416338 -0.984897 0.168064
vn -0.871332 -0.278661 0.403892
vn -0.889152 -0.0344619 0.456313
vn 0.0323955 -0.189605 -0.981326
vn 0.0323955 -0.189605 -0.981326
vn 0.427185 0.191317 -0.883692
vn -0.294172 -0.695064 -0.65601
vn 0.26143 0.706118 -0.658066
vn -0.559674 0.603984 -0.567422
vn -0.669195 0.595328 -0.444705
vn -0.680963 0.587806 -0.436776
vn -0.82988 0.546238 -0.113679
vn -0.524412 0.794816 -0.305383
vn -0.558852 0.800424 -0.216806
vn -0.5819 0.756272 0.299072
vn -0.515374 0.768331 0.379548
vn -0.789683 0.477457 0.385273
vn 0.303643 -0.952597 -0.0189896
vn 0.230219 -0.973008 -0.0159412
vn 0.234373 -0.972144 -0.00246689
vn -0.00761643 -0.997673 0.0677561
vn -0.337841 -0.938797 0.0672613
vn -0.27818 -0.95951 0.0442445
vn -0.72089 0.674491 0.159311
vn -0.529584 0.815043 0.235044
vn -0.647556 0.755856 0.0967113
vn -0.936062 0.339135 0.0936785
vn -0.983756 -0.0125636 0.179073
vn -0.27119 -0.954873 0.121137
vn -0.133115 -0.988456 0.0723581
vn 0.00593401 -0.999954 0.00755804
vn -0.973935 0.220725 0.0522622
vn -0.98859 -0.0101547 0.150285
vn -0.976916 -0.188319 0.100856
vn -0.982693 0.128494 0.133431
vn -0.88869 0.457944 0.0227546
vn -0.786871 0.616852 0.0181252
vn -0.37928 0.925232 0.00959412
vn -0.120362 -0.986866 0.107741
vn 0.00115895 -0.978229 0.207523
vn -0.949667 -0.00616464 0.3132
vn -0.340132 0.934855 0.101764
vn -0.0326953 0.999463 -0.00223254
vn -0.393819 0.911401 -0.119393
vn -0.20754 0.974271 -0.0878851
vn -0.328594 0.941789 -0.0711327
vn -0.391148 0.906144 -0.160952
vn -0.534121 0.83205 -0.149691
vn 0.138089 -0.987193 -0.0798834
vn 0.132148 -0.991047 -0.0190412
vn 0.133355 -0.990902 -0.0181785
vn -0.199271 0.657525 -0.726603
vn -0.445124 0.772577 -0.452758
vn -0.411186 0.715028 -0.565386
vn -0.642166 0.754632 -0.134736
vn -0.566939 0.798286 -0.203272
vn -0.670615 0.737562 -0.0792315
vn -0.0720153 -0.99737 0.00822384
vn -0.0197359 -0.999743 -0.0111385
vn -0.194954 -0.980801 0.00479026
vn -0.800199 0.595801 -0.0685832
vn -0.658594 0.74831 -0.079284
vn -0.633889 0.767305 -0.0970972
vn -0.305835 0.432174 -0.848346
vn -0.275774 0.605143 -0.746827
vn 0.591837 -0.0795712 -0.80212
vn 0.426619 -0.0298752 -0.903938
vn 0.343661 -0.932395 -0.11197
vn -0.997491 -0.0707013 -0.00358815
vn -0.260929 0.433169 -0.862717
vn 0.539809 -0.375529 -0.753382
vn 0.048476 0.998659 0.0181467
vn 0.116362 0.992687 0.0321279
vn 0.372805 0.927191 -0.0365217
vn -0.266046 0.90861 0.321942
vn -0.170879 0.980066 -0.101346
vn 0.632358 0.769718 -0.0875074
vn 0.467133 0.873173 -0.139123
vn 0.43516 0.896442 0.0838266
vn 0.315583 0.942692 0.108352
vn 0.720063 0.69085 0.0650818
vn 0.797788 0.600134 0.0580726
vn 0.252119 0.967658 0.0086132
vn 0.430272 0.894935 -0.118142
vn 0.107676 0.941115 0.320481
vn 0.226675 0.969708 -0.0910217
vn 0.257158 -0.943065 0.210946
vn 0.151947 -0.988327 0.0110335
vn 0.107678 -0.966278 0.233906
vn 0.416484 -0.908897 -0.0211535
vn 0.552204 -0.821681 -0.141105
vn 0.446171 -0.893488 -0.051101
vn 0.489593 -0.863794 -0.118986
vn 0.890524 0.393662 -0.228029
vn 0.839932 0.352626 -0.412516
vn 0.881577 0.355187 -0.310909
vn 0.866027 0.480928 -0.136767
vn 0.816571 0.576765 0.0235175
vn 0.757029 0.648821 0.077057
vn 0.588343 -0.227527 -0.775941
vn 0.493317 -0.0844107 -0.865744
vn 0.202695 -0.925746 0.319233
vn 0.26529 -0.826884 0.495868
vn 0.304467 0.948439 -0.0881162
vn 0.647919 0.725463 -0.232172
vn 0.639547 0.742116 -0.200609
vn 0.792155 -0.570891 -0.215812
vn 0.753879 -0.607954 -0.249116
vn 0.947338 -0.309174 0.0834387
vn 0.871999 -0.484156 0.0721878
vn 0.927239 0.0737847 0.367129
vn 0.46502 -0.882769 -0.0668994
vn 0.864757 -0.455557 -0.211338
vn 0.846912 -0.489983 -0.206533
vn 0.864757 -0.455557 -0.211338
vn 0.517706 0.77962 0.352383
vn 0.533295 0.746804 0.397342
vn 0.547103 0.711492 0.440973
vn -0.258281 0.034002 -0.965471
vn -0.258281 0.034002 -0.965471
vn 0.145823 0.346667 -0.926584
vn 0.0621637 -0.109224 -0.992071
vn 0.229282 0.787799 -0.571666
vn 0.0489332 0.997448 -0.0519853
vn -0.0890155 0.98359 0.156928
vn 0.0887345 0.995827 0.0213314
vn 0.809777 -0.506933 0.295433
vn 0.879062 -0.475518 0.0336696
vn 0.331676 -0.917615 -0.219029
vn 0.52489 -0.663431 -0.533246
vn 0.581915 -0.281091 -0.763127
vn 0.561022 0.57529 -0.595227
vn 0.566084 0.633055 -0.528005
vn 0.561022 0.57529 -0.595227
vn -0.0620687 0.995501 -0.0715853
vn 0.0527654 0.928352 -0.367939
vn -0.0134345 0.970513 -0.240675
vn -0.17101 0.969335 -0.176482
vn 0.547248 -0.50749 -0.665562
vn 0.479857 -0.633358 -0.60712
vn 0.857066 0.513414 0.0429366
vn 0.646967 0.759582 0.0668583
vn 0.449635 -0.893138 -0.0115119
vn 0.481582 0.868935 0.11415
vn 0.964821 0.262305 0.0177734
vn 0.901456 0.424693 -0.0837414
vn -0.0292986 0.987352 -0.15581
vn 0.309142 -0.948705 -0.0662579
vn 0.647255 -0.459103 -0.608511
vn 0.471816 -0.590816 -0.654466
vn 0.108355 -0.987659 0.113093
vn 0.273744 -0.86364 -0.423308
vn 0.335108 -0.916347 -0.219114
vn 0.242764 0.388192 0.889029
vn -0.334712 -0.759556 -0.557712
vn 0.270372 -0.786785 -0.554859
vn -0.420622 0.841837 -0.338213
vn 0.250882 0.764191 -0.594197
vn 0.202826 0.649561 -0.732756
vn 0.799456 -0.296774 -0.522299
vn 0.182708 0.52835 -0.829135
vn 0.799456 -0.296774 -0.522299
vn 0.533295 0.746804 0.397342
vn 0.229282 0.787799 -0.571666
vn 0.0489332 0.997448 -0.0519853
vn 0.385259 0.344226 -0.856203
vn -0.624751 0.776504 -0.082023
vn 0.270006 -0.771299 -0.576363
vn 0.248827 -0.938943 -0.237637
vn -0.959038 -0.275619 0.0654163
vn 0.0323955 -0.189605 -0.981326
vn -0.591977 -0.780535 -0.20082
vn -0.731143 -0.477239 0.487518
vn -0.959038 -0.275619 0.0654163
vn -0.959038 -0.275619 0.0654163
vn -0.82988 0.546238 -0.113679
vn -0.591977 -0.780535 -0.20082
vn 0.427185 0.191317 -0.883692
vn -0.602569 0.600701 -0.525422
vn -0.755542 0.641275 -0.133873
vn -0.591977 -0.780535 -0.20082
vn 0.427185 0.191317 -0.883692
vn -0.294172 -0.695064 -0.65601
vn 0.26143 0.706118 -0.658066
vn -0.294172 -0.695064 -0.65601
vn 0.26143 0.706118 -0.658066
vn -0.334712 -0.759556 -0.557712
vn -0.334712 -0.759556 -0.557712
vn -0.468411 0.860766 -0.199181
vn -0.449373 0.591547 -0.669429
vn -0.891798 0.443025 -0.0917832
vn -0.984995 -0.0417578 0.167453
vn -0.971203 0.0715097 0.227268
vn -0.983618 0.0718674 0.165317
vn -0.395894 -0.912122 0.106304
vn -0.254364 -0.965466 0.0563311
vn -0.954492 -0.142334 0.262079
vn -0.839755 -0.350164 0.414966
vn -0.848537 -0.178989 -0.497944
vn -0.216286 0.431004 -0.876046
vn 0.208636 -0.141989 -0.967631
vn -0.883618 -0.254046 -0.393293
vn 0.497404 -0.0301013 -0.866996
vn -0.870571 -0.148906 -0.468971
vn -0.949683 -0.20094 -0.24026
vn -0.97377 -0.21011 -0.0873285
vn -0.989187 -0.143818 0.0287174
vn 0.440336 -0.558028 -0.703356
vn 0.559151 -0.179348 -0.809435
vn 0.499083 -0.818082 -0.285758
vn 0.673584 -0.673567 -0.30429
vn 0.146649 -0.989102 -0.0130903
vn -0.657494 0.753225 -0.0187866
vn -0.376522 0.898414 -0.226018
vn 0.630298 -0.77612 -0.019027
vn 0.143808 0.419152 0.896454
vn 0.996666 -0.0796089 0.0178659
vn 0.703812 -0.154092 -0.693473
vn 0.028965 0.95358 -0.299743
vn 0.596856 0.007903 -0.80231
vn 0.698625 -0.715343 -0.0144284
vn -0.0804073 0.980402 -0.179854
vn 0.0584008 0.998284 0.00426558
vn 0.209616 -0.963786 -0.164856
vn 0.712778 -0.686853 0.142062
vn 0.723716 -0.593478 0.352163
vn 0.7649 -0.641504 0.0583077
vn 0.832131 -0.0831159 0.548315
vn 0.871999 -0.484156 0.0721878
vn 0.927239 0.0737847 0.367129
vn 0.700061 0.68122 -0.214134
vn 0.960693 0.225779 0.161532
vn 0.639333 0.722975 -0.26184
vn 0.471535 0.866838 -0.162006
vn 0.291447 0.0673127 0.954216
vn 0.344519 0.0576957 0.937005
vn 0.267111 -0.719449 0.641128
vn 0.578506 -0.796439 0.176112
vn 0.298217 -0.949697 -0.0956191
vn 0.325664 -0.919563 -0.219881
vn 0.0489332 0.997448 -0.0519853
vn 0.0328282 0.812687 0.581775
vn 0.75227 -0.508561 0.418874
vn 0.304262 0.41352 0.858153
vn 0.267962 -0.718455 0.641887
vn -0.258281 0.034002 -0.965471
vn 0.385259 0.344226 -0.856203
vn 0.848309 -0.458882 0.264196
vn 0.146155 0.392269 -0.908165
vn 0.799456 -0.296774 -0.522299
vn 0.101529 0.145325 -0.984161
vn 0.207331 0.810201 -0.548259
vn 0.385259 0.344226 -0.856203
vn -0.480349 0.841777 0.246324
vn 0.881281 -0.420435 -0.215821
vn 0.224537 -0.967094 0.119637
vn 0.314319 -0.936857 -0.153304
vn -0.216244 0.954999 -0.203016
vn 0.451517 -0.670735 -0.588428
vn -0.104568 0.337572 -0.935473
vn -0.280964 0.907029 -0.31362
vn 0.534196 -0.645602 -0.54574
vn 0.0950848 0.84594 -0.524733
vn 0.551539 0.51299 -0.657758
vn 0.984709 0.173636 0.0141178
vn 0.989797 -0.134666 0.0465507
vn 0.656985 -0.738351 -0.152344
vn 0.0854701 0.90374 -0.419463
vn 0.152649 -0.2219 -0.963047
g grp1
usemtl mtl1
f 3//3 2//2 1//1 
f 6//6 5//5 4//4 
f 7//7 6//6 4//4 
f 10//10 9//9 8//8 
f 181//181 12//12 11//11 
f 11//11 12//12 13//13 
f 15//15 14//14 185//185 
f 186//186 182//182 187//187 
f 17//17 16//16 183//183 
f 18//18 190//190 194//194 
f 19//19 197//197 195//195 
f 20//20 198//198 196//196 
f 191//191 22//22 21//21 
f 23//23 22//22 191//191 
f 188//188 192//192 24//24 
f 26//26 25//25 201//201 
f 201//201 7//7 27//27 
f 24//24 203//203 188//188 
f 29//29 27//27 28//28 
f 32//32 31//31 30//30 
f 35//35 34//34 33//33 
f 37//37 36//36 29//29 
f 37//37 38//38 36//36 
f 39//39 36//36 38//38 
f 40//40 205//205 39//39 
f 34//34 41//41 33//33 
f 33//33 41//41 42//42 
f 42//42 43//43 32//32 
f 32//32 43//43 31//31 
f 46//46 45//45 44//44 
f 45//45 47//47 44//44 
f 44//44 47//47 48//48 
f 47//47 40//40 39//39 
f 204//204 47//47 206//206 
f 38//38 50//50 49//49 
f 52//52 51//51 13//13 
f 13//13 51//51 33//33 
f 12//12 52//52 13//13 
f 53//53 15//15 29//29 
f 210//210 185//185 14//14 
f 54//54 38//38 37//37 
f 38//38 54//54 55//55 
f 50//50 38//38 55//55 
f 58//58 57//57 56//56 
f 60//60 56//56 59//59 
f 63//63 62//62 61//61 
f 66//66 65//65 64//64 
f 69//69 68//68 67//67 
f 216//216 214//214 217//217 
f 70//70 62//62 63//63 
f 71//71 70//70 63//63 
f 72//72 70//70 71//71 
f 44//44 48//48 73//73 
f 47//47 49//49 48//48 
f 39//39 38//38 49//49 
f 74//74 58//58 56//56 
f 75//75 56//56 60//60 
f 69//69 60//60 65//65 
f 77//77 65//65 76//76 
f 78//78 215//215 221//221 
f 78//78 79//79 215//215 
f 80//80 223//223 222//222 
f 31//31 63//63 80//80 
f 80//80 63//63 224//224 
f 77//77 64//64 65//65 
f 69//69 73//73 75//75 
f 75//75 60//60 69//69 
f 219//219 44//44 81//81 
f 218//218 81//81 217//217 
f 214//214 218//218 217//217 
f 73//73 74//74 75//75 
f 74//74 56//56 75//75 
f 48//48 49//49 74//74 
f 46//46 44//44 219//219 
f 43//43 208//208 72//72 
f 31//31 71//71 63//63 
f 68//68 65//65 66//66 
f 211//211 214//214 216//216 
f 43//43 72//72 71//71 
f 219//219 81//81 218//218 
f 67//67 68//68 66//66 
f 67//67 225//225 69//69 
f 225//225 44//44 69//69 
f 44//44 73//73 69//69 
f 68//68 69//69 65//65 
f 212//212 66//66 64//64 
f 79//79 213//213 215//215 
f 63//63 61//61 224//224 
f 31//31 43//43 71//71 
f 76//76 65//65 82//82 
f 65//65 59//59 226//226 
f 65//65 60//60 59//59 
f 49//49 50//50 58//58 
f 74//74 49//49 58//58 
f 47//47 45//45 206//206 
f 47//47 39//39 49//49 
f 207//207 208//208 42//42 
f 48//48 74//74 73//73 
f 208//208 43//43 42//42 
f 41//41 207//207 42//42 
f 204//204 40//40 47//47 
f 35//35 51//51 34//34 
f 209//209 40//40 204//204 
f 209//209 53//53 40//40 
f 53//53 205//205 40//40 
f 28//28 37//37 29//29 
f 29//29 205//205 53//53 
f 209//209 210//210 14//14 
f 53//53 209//209 14//14 
f 51//51 35//35 33//33 
f 33//33 42//42 32//32 
f 221//221 220//220 83//83 
f 57//57 58//58 84//84 
f 58//58 85//85 84//84 
f 85//85 55//55 86//86 
f 37//37 28//28 87//87 
f 57//57 84//84 88//88 
f 56//56 57//57 88//88 
f 86//86 90//90 89//89 
f 92//92 85//85 91//91 
f 89//89 93//93 86//86 
f 91//91 86//86 93//93 
f 89//89 94//94 93//93 
f 97//97 96//96 95//95 
f 98//98 96//96 97//97 
f 101//101 100//100 99//99 
f 227//227 103//103 102//102 
f 102//102 30//30 104//104 
f 104//104 30//30 105//105 
f 108//108 107//107 106//106 
f 111//111 110//110 109//109 
f 112//112 230//230 232//232 
f 113//113 112//112 232//232 
f 103//103 32//32 102//102 
f 115//115 114//114 101//101 
f 116//116 95//95 90//90 
f 95//95 96//96 90//90 
f 96//96 118//118 117//117 
f 120//120 103//103 119//119 
f 122//122 241//241 121//121 
f 118//118 96//96 246//246 
f 123//123 244//244 242//242 
f 118//118 245//245 117//117 
f 250//250 124//124 120//120 
f 250//250 115//115 99//99 
f 117//117 245//245 243//243 
f 90//90 96//96 117//117 
f 127//127 126//126 125//125 
f 175//175 129//129 128//128 
f 130//130 129//129 175//175 
f 258//258 132//132 131//131 
f 263//263 133//133 261//261 
f 133//133 173//173 261//261 
f 263//263 134//134 133//133 
f 176//176 135//135 264//264 
f 136//136 177//177 253//253 
f 138//138 137//137 95//95 
f 116//116 138//138 95//95 
f 137//137 97//97 95//95 
f 266//266 254//254 87//87 
f 87//87 28//28 266//266 
f 137//137 87//87 97//97 
f 178//178 265//265 259//259 
f 139//139 255//255 260//260 
f 260//260 140//140 139//139 
f 252//252 141//141 251//251 
f 143//143 83//83 142//142 
f 146//146 145//145 144//144 
f 88//88 84//84 147//147 
f 150//150 149//149 148//148 
f 142//142 83//83 151//151 
f 151//151 152//152 274//274 
f 148//148 270//270 150//150 
f 146//146 144//144 276//276 
f 88//88 147//147 149//149 
f 154//154 91//91 153//153 
f 227//227 102//102 155//155 
f 93//93 277//277 153//153 
f 94//94 277//277 93//93 
f 154//154 110//110 156//156 
f 155//155 102//102 104//104 
f 277//277 229//229 157//157 
f 110//110 157//157 158//158 
f 157//157 229//229 278//278 
f 279//279 105//105 233//233 
f 104//104 105//105 279//279 
f 154//154 157//157 110//110 
f 159//159 147//147 235//235 
f 30//30 160//160 105//105 
f 105//105 160//160 142//142 
f 149//149 147//147 159//159 
f 84//84 156//156 235//235 
f 147//147 84//84 235//235 
f 149//149 159//159 231//231 
f 161//161 230//230 112//112 
f 280//280 149//149 231//231 
f 105//105 142//142 162//162 
f 159//159 234//234 231//231 
f 111//111 156//156 110//110 
f 153//153 157//157 154//154 
f 153//153 277//277 157//157 
f 93//93 153//153 91//91 
f 91//91 154//154 92//92 
f 92//92 154//154 156//156 
f 84//84 92//92 156//156 
f 148//148 149//149 280//280 
f 151//151 274//274 161//161 
f 275//275 148//148 280//280 
f 112//112 151//151 161//161 
f 112//112 162//162 151//151 
f 142//142 151//151 162//162 
f 56//56 88//88 150//150 
f 160//160 80//80 269//269 
f 59//59 270//270 226//226 
f 143//143 78//78 83//83 
f 152//152 271//271 274//274 
f 152//152 220//220 271//271 
f 76//76 82//82 272//272 
f 226//226 270//270 273//273 
f 88//88 149//149 150//150 
f 59//59 150//150 270//270 
f 152//152 151//151 83//83 
f 160//160 269//269 142//142 
f 32//32 30//30 102//102 
f 33//33 32//32 100//100 
f 163//163 33//33 100//100 
f 164//164 181//181 251//251 
f 251//251 181//181 11//11 
f 141//141 165//165 251//251 
f 165//165 164//164 251//251 
f 267//267 127//127 125//125 
f 268//268 251//251 114//114 
f 251//251 11//11 114//114 
f 101//101 11//11 163//163 
f 11//11 13//13 163//163 
f 114//114 11//11 101//101 
f 255//255 139//139 238//238 
f 254//254 256//256 166//166 
f 97//97 254//254 166//166 
f 87//87 254//254 97//97 
f 101//101 163//163 100//100 
f 257//257 114//114 115//115 
f 97//97 166//166 228//228 
f 256//256 248//248 166//166 
f 249//249 257//257 115//115 
f 100//100 32//32 103//103 
f 105//105 162//162 236//236 
f 113//113 162//162 112//112 
f 106//106 109//109 110//110 
f 159//159 235//235 234//234 
f 110//110 158//158 106//106 
f 158//158 108//108 106//106 
f 109//109 106//106 107//107 
f 105//105 237//237 233//233 
f 124//124 100//100 103//103 
f 115//115 101//101 99//99 
f 98//98 246//246 96//96 
f 228//228 166//166 247//247 
f 166//166 248//248 247//247 
f 241//241 122//122 239//239 
f 123//123 242//242 240//240 
f 99//99 100//100 124//124 
f 250//250 99//99 124//124 
f 103//103 120//120 124//124 
f 243//243 89//89 117//117 
f 119//119 103//103 227//227 
f 85//85 86//86 91//91 
f 89//89 243//243 94//94 
f 117//117 89//89 90//90 
f 90//90 86//86 116//116 
f 85//85 92//92 84//84 
f 55//55 116//116 86//86 
f 37//37 87//87 137//137 
f 54//54 137//137 138//138 
f 55//55 138//138 116//116 
f 220//220 152//152 83//83 
f 78//78 221//221 83//83 
f 59//59 56//56 150//150 
f 58//58 50//50 85//85 
f 50//50 55//55 85//85 
f 54//54 138//138 55//55 
f 37//37 137//137 54//54 
f 29//29 15//15 27//27 
f 53//53 14//14 15//15 
f 201//201 25//25 7//7 
f 21//21 202//202 191//191 
f 167//167 199//199 200//200 
f 184//184 193//193 189//189 
f 160//160 31//31 80//80 
f 80//80 222//222 269//269 
f 30//30 31//31 160//160 
f 13//13 33//33 163//163 
f 180//180 181//181 164//164 
f 168//168 180//180 164//164 
f 27//27 7//7 266//266 
f 28//28 27//27 266//266 
f 7//7 179//179 266//266 
f 25//25 169//169 7//7 
f 169//169 6//6 7//7 
f 170//170 135//135 176//176 
f 133//133 171//171 173//173 
f 174//174 172//172 262//262 
f 281//281 3//3 1//1 
