v 25.8971 -73.1901 1444.69
v 26.6985 -73.3192 1437.83
v 24.286 -73.7319 1443.52
v 26.4111 -72.6318 1438.08
v 26.1669 -75.3746 1436.02
v 24.204 -75.8584 1435
v 23.3771 -73.1322 1445.62
v 24.6053 -72.5296 1445.93
v 23.7947 -74.1071 1440.15
v 23.073 -72.5384 1445.75
v 23.1522 -74.83 1435.35
v 23.4129 -74.447 1437.77
v 22.4058 -73.9403 1438.86
v 22.7057 -71.5337 1445.33
v 26.2445 -74.2713 1436.35
v 22.3068 -72.4251 1441.64
v 21.6434 -73.7438 1437.83
v 22.4186 -73.6674 1437.28
v 24.1449 -74.2962 1438.97
v 24.2533 -75.4079 1434.81
v 22.1634 -73.1371 1438.42
v 26.2572 -72.1299 1440.75
v 26.5083 -73.2598 1443.22
v 23.7137 -72.2585 1446.19
v 23.3309 -73.1476 1437.25
v 22.8369 -72.0116 1445.88
v 23.848 -71.5541 1444.47
v 22.5836 -72.5938 1445.42
v 27.0507 -73.3754 1441.71
v 24.731 -73.4714 1436.85
v 26.2828 -73.7319 1442.16
v 27.1107 -73.7909 1438.36
v 22.939 -73.3444 1444.6
v 26.4998 -72.4137 1439.29
v 25.4612 -76.2844 1434.77
v 23.9471 -72.9689 1446.19
v 22.0896 -72.7185 1443.04
v 27.1661 -73.886 1439.73
v 23.276 -71.8435 1445.91
v 24.5924 -73.5589 1445.41
v 24.8043 -72.2625 1445.21
v 25.3036 -71.7296 1440.89
v 21.9864 -73.4109 1440.65
v 27.0338 -73.105 1440.24
v 26.3722 -72.8109 1442.66
v 24.481 -75.7831 1434.72
v 26.1157 -74.8831 1435.72
v 25.2964 -73.7768 1441.5
v 25.1693 -71.8028 1442.81
v 27.1685 -74.3297 1438.42
v 25.4005 -73.5995 1444.37
v 25.2273 -76.1286 1434.35
v 22.9752 -72.8408 1438.27
v 22.427 -73.5293 1441.88
v 25.3641 -73.3026 1445.67
v 24.549 -73.4146 1445.96
v 23.3999 -72.1104 1439.58
v 22.3853 -71.9216 1444.31
v 25.9958 -73.4817 1436.91
v 22.8026 -74.4799 1436.39
v 22.8454 -71.5866 1445.77
v 21.7264 -73.3241 1439.68
v 24.3184 -71.6982 1440.12
v 23.3175 -73.8367 1441.96
v 22.8071 -74.4022 1435.84
v 26.7092 -74.3019 1439.35
v 25.6468 -74.3733 1439.61
v 24.5596 -73.5288 1444.18
v 26.8026 -74.685 1437.32
v 24.7415 -75.966 1435.2
v 24.6479 -72.4906 1438.3
v 25.4658 -75.3716 1436.51
v 22.2654 -74.1186 1437.32
v 23.8036 -74.4502 1435.59
v 23.8244 -71.8502 1446.04
v 25.7502 -72.5697 1438.11
v 23.7143 -73.5761 1444.54
v 23.3845 -71.5713 1442.81
v 24.4201 -73.9049 1442.24
v 23.6175 -75.5016 1435.13
v 24.6693 -76.2353 1434.56
v 25.5993 -75.5447 1434.88
v 25.0451 -73.5676 1442.94
v 25.0758 -76.5084 1434.51
v 22.8132 -73.6303 1436.71
v 22.4297 -71.9311 1445.42
v 25.8971 -73.1901 1444.69
v 26.4111 -72.6318 1438.08
v 26.1669 -75.3746 1436.02
v 24.204 -75.8584 1435
v 24.204 -75.8584 1435
v 24.6053 -72.5296 1445.93
v 23.073 -72.5384 1445.75
v 23.1522 -74.83 1435.35
v 23.1522 -74.83 1435.35
v 22.7057 -71.5337 1445.33
v 21.6434 -73.7438 1437.83
v 21.6434 -73.7438 1437.83
v 22.4186 -73.6674 1437.28
v 22.4186 -73.6674 1437.28
v 24.2533 -75.4079 1434.81
v 24.2533 -75.4079 1434.81
v 24.2533 -75.4079 1434.81
v 26.5083 -73.2598 1443.22
v 23.7137 -72.2585 1446.19
v 23.7137 -72.2585 1446.19
v 22.8369 -72.0116 1445.88
v 27.0507 -73.3754 1441.71
v 27.0507 -73.3754 1441.71
v 26.4998 -72.4137 1439.29
v 25.4612 -76.2844 1434.77
v 23.9471 -72.9689 1446.19
v 23.9471 -72.9689 1446.19
v 22.0896 -72.7185 1443.04
v 27.1661 -73.886 1439.73
v 23.276 -71.8435 1445.91
v 24.481 -75.7831 1434.72
v 24.481 -75.7831 1434.72
v 24.481 -75.7831 1434.72
v 26.1157 -74.8831 1435.72
v 27.1685 -74.3297 1438.42
v 25.2273 -76.1286 1434.35
v 25.2273 -76.1286 1434.35
v 25.3641 -73.3026 1445.67
v 25.3641 -73.3026 1445.67
v 24.549 -73.4146 1445.96
v 22.8026 -74.4799 1436.39
v 22.8026 -74.4799 1436.39
v 22.8454 -71.5866 1445.77
v 22.8454 -71.5866 1445.77
v 22.8454 -71.5866 1445.77
v 21.7264 -73.3241 1439.68
v 22.8071 -74.4022 1435.84
v 22.8071 -74.4022 1435.84
v 26.8026 -74.685 1437.32
v 22.2654 -74.1186 1437.32
v 23.8244 -71.8502 1446.04
v 23.8244 -71.8502 1446.04
v 23.3845 -71.5713 1442.81
v 23.6175 -75.5016 1435.13
v 23.6175 -75.5016 1435.13
v 23.6175 -75.5016 1435.13
v 24.6693 -76.2353 1434.56
v 24.6693 -76.2353 1434.56
v 24.6693 -76.2353 1434.56
v 25.5993 -75.5447 1434.88
v 25.0758 -76.5084 1434.51
v 25.0758 -76.5084 1434.51
v 25.0758 -76.5084 1434.51
v 22.4297 -71.9311 1445.42
vn 0.717606 0.596431 0.3596
vn 0.823608 0.434107 -0.364994
vn 0.129357 -0.97871 0.159352
vn 0.797822 0.472686 -0.374229
vn 0.902422 -0.135492 -0.408994
vn -0.341588 -0.799727 0.493715
vn -0.441411 -0.707333 0.552119
vn 0.338621 0.0926578 0.93635
vn -0.0632889 -0.98977 0.127868
vn 0.00446361 -0.236009 0.971741
vn -0.446614 -0.0104169 -0.894666
vn -0.258805 -0.949155 0.179235
vn -0.406859 -0.902791 0.139408
vn 0.047464 0.998088 0.0395944
vn 0.641491 0.491595 -0.588918
vn -0.637046 0.762622 -0.112161
vn -0.558859 0.771946 -0.302944
vn -0.926195 -0.372261 -0.0598723
vn -0.115805 -0.964784 0.23618
vn 0.0477344 0.635242 -0.770836
vn -0.522358 0.802654 -0.287903
vn 0.622499 0.779631 0.0683453
vn 0.780257 0.565589 0.267035
vn 0.326261 0.169921 0.929882
vn -0.148053 0.850863 -0.504096
vn -0.0896126 0.00413007 0.995968
vn 0.169063 0.982429 0.0790579
vn -0.715525 -0.448297 0.535774
vn 0.767542 0.614621 0.18199
vn 0.0397825 0.779394 -0.62527
vn 0.270084 -0.935712 0.226932
vn 0.949977 0.232143 -0.208933
vn -0.524784 -0.818366 0.234264
vn 0.857898 0.504132 -0.0993083
vn 0.075449 -0.850136 0.52113
vn 0.335338 0.0564788 0.940403
vn -0.836018 -0.511149 0.199501
vn 0.52225 -0.812574 0.258802
vn -0.153433 0.147534 0.977083
vn -0.0227808 -0.986171 0.164156
vn 0.645687 0.693097 0.320475
vn 0.225202 0.970951 -0.080856
vn -0.701221 -0.696356 0.152897
vn 0.882467 0.4703 -0.00837438
vn 0.729728 0.646474 0.22264
vn -0.700912 -0.0360062 -0.712338
vn 0.91288 -0.0238011 -0.407535
vn -0.0193342 -0.987197 0.158332
vn 0.485186 0.858151 0.167841
vn 0.420916 -0.876135 0.234983
vn 0.171738 -0.975328 0.138716
vn 0.10458 0.629545 -0.769894
vn -0.405957 0.829987 -0.38252
vn -0.568787 -0.806914 0.159286
vn 0.340119 -0.911246 0.232272
vn -0.144614 -0.919146 0.366411
vn -0.325421 0.896732 -0.299954
vn -0.780133 0.62299 -0.0572339
vn 0.305558 0.692766 -0.65323
vn -0.864323 -0.496337 -0.081213
vn 0.147312 0.979342 0.138519
vn -0.736575 0.670139 -0.0914952
vn -0.1267 0.963357 -0.236413
vn -0.201762 -0.971884 0.121382
vn -0.135567 0.716783 -0.683991
vn 0.36371 -0.900069 0.239982
vn -0.0462294 -0.960104 0.275795
vn 0.0728145 -0.99496 0.0689413
vn 0.310318 -0.917983 0.247002
vn -0.253625 -0.831441 0.494349
vn -0.0608586 0.880285 -0.470526
vn -0.0786886 -0.919143 0.385986
vn -0.702787 0.182596 -0.687567
vn -0.0183681 0.717844 -0.695962
vn 0.453779 0.852263 0.260255
vn 0.081172 0.906193 -0.415001
vn -0.114921 -0.977128 0.178925
vn -0.50163 0.848829 -0.166904
vn 0.125134 -0.983615 0.129781
vn -0.444129 -0.0299844 -0.895461
vn -0.403687 -0.825978 0.393442
vn 0.1794 0.667286 -0.722873
vn 0.102544 -0.987515 0.119578
vn -0.48346 -0.785884 0.385556
vn -0.386978 0.764034 -0.516237
vn -0.842294 -0.074822 0.5338
vn 0.529065 -0.817625 0.227111
vn 0.0726416 0.913432 -0.400455
vn 0.274198 -0.874125 0.4009
vn -0.700912 -0.0360062 -0.712338
vn -0.496508 -0.57155 -0.653308
vn 0.679492 0.597132 0.42629
vn -0.483811 -0.315436 0.81635
vn -0.105856 0.652187 -0.75063
vn -0.827013 -0.554721 -0.0912857
vn -0.719388 0.691491 0.0657447
vn -0.462756 -0.868375 0.178273
vn -0.583422 0.132816 -0.801236
vn -0.522372 0.733535 -0.434802
vn -0.702787 0.182596 -0.687567
vn -0.444129 -0.0299844 -0.895461
vn -0.460263 -0.463712 0.757053
vn -0.357834 0.104822 -0.927883
vn 0.518664 -0.816693 0.252982
vn -0.202544 0.384748 0.900525
vn -0.549728 -0.218833 0.806171
vn -0.670754 -0.137409 0.72884
vn 0.52778 -0.813105 0.245576
vn 0.987586 0.15612 0.0173441
vn 0.221258 0.957208 -0.18654
vn 0.825049 -0.230718 -0.515814
vn -0.659343 -0.218847 0.719287
vn -0.346733 -0.752343 0.56014
vn -0.904328 0.426767 -0.00781957
vn 0.988918 0.147781 -0.0142448
vn -0.557795 -0.0372722 0.829141
vn -0.496508 -0.57155 -0.653308
vn -0.441471 -0.0495403 -0.895907
vn -0.460263 -0.463712 0.757053
vn 0.273326 0.663925 -0.696058
vn 0.979027 0.084584 -0.185342
vn -0.32708 -0.0817969 -0.94145
vn 0.778934 -0.295271 -0.553242
vn 0.337153 0.0159509 0.941315
vn 0.708598 0.546019 0.446936
vn 0.348867 0.0150364 0.937051
vn -0.801317 0.226964 -0.553514
vn -0.320121 -0.907031 0.273528
vn -0.712707 0.185003 0.676626
vn -0.744769 0.592453 0.307114
vn -0.198285 0.211538 0.957045
vn -0.666765 -0.726541 0.166019
vn -0.878953 -0.471231 -0.0733733
vn -0.716618 0.524201 -0.460077
vn 0.907127 0.125298 -0.401773
vn -0.358945 -0.921191 0.150218
vn 0.341376 0.240191 0.908719
vn -0.211796 0.283398 0.935322
vn 0.0395957 0.998966 -0.0223425
vn -0.832916 -0.544906 -0.0965784
vn -0.32211 -0.799282 0.50734
vn -0.496508 -0.57155 -0.653308
vn -0.700912 -0.0360062 -0.712338
vn -0.460263 -0.463712 0.757053
vn -0.32708 -0.0817969 -0.94145
vn 0.882497 -0.115932 -0.455806
vn -0.284565 -0.265474 -0.921166
vn 0.0326551 -0.776354 0.629451
vn 0.661882 -0.495486 -0.562499
vn -0.857734 0.497066 0.131217
g grp1
usemtl mtl1
f 79//79 48//48 83//83 
f 40//40 51//51 55//55 
f 75//75 41//41 49//49 
f 7//7 40//40 56//56 
f 83//83 3//3 79//79 
f 68//68 3//3 83//83 
f 40//40 55//55 56//56 
f 126//126 124//124 8//8 
f 45//45 41//41 1//1 
f 23//23 45//45 1//1 
f 29//29 45//45 23//23 
f 45//45 44//44 22//22 
f 66//66 38//38 108//108 
f 38//38 66//66 50//50 
f 69//69 50//50 66//66 
f 32//32 121//121 135//135 
f 44//44 115//115 32//32 
f 15//15 59//59 2//2 
f 135//135 5//5 47//47 
f 41//41 92//92 1//1 
f 41//41 45//45 49//49 
f 74//74 30//30 82//82 
f 9//9 48//48 79//79 
f 20//20 82//82 52//52 
f 71//71 63//63 76//76 
f 63//63 42//42 76//76 
f 81//81 84//84 70//70 
f 81//81 70//70 6//6 
f 77//77 40//40 7//7 
f 8//8 24//24 36//36 
f 137//137 24//24 8//8 
f 90//90 46//46 143//143 
f 64//64 3//3 77//77 
f 138//138 39//39 105//105 
f 63//63 16//16 78//78 
f 63//63 57//57 16//16 
f 11//11 101//101 80//80 
f 64//64 77//77 33//33 
f 27//27 61//61 75//75 
f 25//25 53//53 57//57 
f 33//33 77//77 7//7 
f 39//39 26//26 10//10 
f 14//14 27//27 139//139 
f 21//21 16//16 57//57 
f 65//65 85//85 74//74 
f 94//94 65//65 74//74 
f 54//54 64//64 33//33 
f 28//28 93//93 107//107 
f 133//133 60//60 18//18 
f 37//37 33//33 28//28 
f 86//86 107//107 129//129 
f 99//99 21//21 53//53 
f 37//37 54//54 33//33 
f 37//37 28//28 86//86 
f 43//43 54//54 37//37 
f 100//100 127//127 73//73 
f 16//16 62//62 114//114 
f 16//16 21//21 62//62 
f 21//21 17//17 62//62 
f 13//13 132//132 97//97 
f 98//98 100//100 73//73 
f 21//21 99//99 17//17 
f 132//132 43//43 37//37 
f 132//132 13//13 43//43 
f 136//136 13//13 97//97 
f 16//16 114//114 58//58 
f 16//16 58//58 78//78 
f 58//58 114//114 150//150 
f 96//96 58//58 150//150 
f 86//86 28//28 107//107 
f 43//43 13//13 54//54 
f 58//58 96//96 78//78 
f 13//13 64//64 54//54 
f 85//85 134//134 99//99 
f 96//96 150//150 130//130 
f 136//136 12//12 13//13 
f 85//85 99//99 53//53 
f 7//7 93//93 28//28 
f 128//128 12//12 136//136 
f 133//133 95//95 60//60 
f 85//85 25//25 74//74 
f 57//57 53//53 21//21 
f 131//131 26//26 39//39 
f 13//13 9//9 64//64 
f 85//85 53//53 25//25 
f 28//28 33//33 7//7 
f 95//95 140//140 60//60 
f 12//12 9//9 13//13 
f 128//128 141//141 72//72 
f 14//14 61//61 27//27 
f 93//93 106//106 116//116 
f 12//12 19//19 9//9 
f 94//94 74//74 20//20 
f 74//74 25//25 30//30 
f 25//25 71//71 30//30 
f 39//39 138//138 131//131 
f 93//93 7//7 106//106 
f 128//128 72//72 12//12 
f 9//9 79//79 64//64 
f 117//117 91//91 142//142 
f 63//63 139//139 42//42 
f 42//42 27//27 49//49 
f 6//6 70//70 72//72 
f 42//42 139//139 27//27 
f 63//63 71//71 57//57 
f 101//101 118//118 80//80 
f 141//141 6//6 72//72 
f 25//25 57//57 71//71 
f 112//112 106//106 7//7 
f 79//79 3//3 64//64 
f 12//12 72//72 19//19 
f 67//67 19//19 72//72 
f 119//119 102//102 144//144 
f 145//145 122//122 147//147 
f 74//74 82//82 20//20 
f 103//103 122//122 145//145 
f 148//148 35//35 70//70 
f 82//82 15//15 120//120 
f 72//72 66//66 67//67 
f 48//48 31//31 51//51 
f 48//48 67//67 31//31 
f 55//55 51//51 87//87 
f 104//104 87//87 51//51 
f 48//48 51//51 83//83 
f 31//31 108//108 104//104 
f 31//31 66//66 108//108 
f 2//2 44//44 32//32 
f 2//2 34//34 44//44 
f 2//2 4//4 34//34 
f 2//2 32//32 135//135 
f 72//72 69//69 66//66 
f 59//59 4//4 2//2 
f 66//66 31//31 67//67 
f 104//104 51//51 31//31 
f 59//59 76//76 88//88 
f 89//89 72//72 35//35 
f 123//123 146//146 111//111 
f 59//59 15//15 82//82 
f 76//76 42//42 110//110 
f 35//35 72//72 70//70 
f 123//123 111//111 149//149 
f 30//30 59//59 82//82 
f 71//71 76//76 30//30 
f 5//5 111//111 146//146 
f 146//146 47//47 5//5 
f 30//30 76//76 59//59 
f 42//42 49//49 22//22 
f 22//22 49//49 45//45 
f 42//42 22//22 110//110 
f 76//76 110//110 88//88 
f 72//72 89//89 69//69 
f 15//15 135//135 47//47 
f 15//15 2//2 135//135 
f 32//32 115//115 121//121 
f 115//115 44//44 109//109 
f 22//22 44//44 34//34 
f 44//44 45//45 29//29 
f 1//1 92//92 125//125 
f 68//68 40//40 77//77 
f 27//27 75//75 49//49 
f 41//41 75//75 92//92 
f 8//8 36//36 126//126 
f 113//113 7//7 56//56 
f 3//3 68//68 77//77 
f 19//19 48//48 9//9 
f 48//48 19//19 67//67 
f 68//68 51//51 40//40 
f 68//68 83//83 51//51 
