v 18.2102 -78.1998 1377.36
v 20.5495 -78.1274 1376.19
v 18.4962 -80.0976 1380.03
v 17.9653 -78.7844 1378.54
v 17.7994 -78.0675 1377.88
v 18.0765 -77.8061 1377.05
v 19.344 -77.4942 1375.86
v 19.4023 -77.2105 1375.66
v 20.4296 -77.28 1375.38
v 21.598 -77.4555 1375.42
v 22.3555 -78.1916 1376.73
v 21.0591 -79.186 1377.94
v 19.4817 -80.1743 1379.59
v 19.5713 -81.1843 1381.4
v 19.6671 -82.9015 1384.15
v 20.9037 -80.9827 1381.4
v 22.6801 -79.826 1380.42
v 22.4704 -81.3992 1382.76
v 21.8863 -82.0628 1383.59
v 21.1844 -82.9968 1384.69
v 20.6948 -83.3203 1385.1
v 19.8846 -83.7609 1386.13
v 21.087 -83.4207 1385.55
v 21.134 -84.1489 1387
v 19.8625 -84.3221 1387.62
v 19.3871 -84.1876 1387.43
v 18.5471 -83.1477 1385.39
v 18.035 -82.5281 1385.12
v 18.133 -81.4498 1383.06
v 17.9789 -80.1028 1381.57
v 17.8559 -77.9318 1378.69
v 17.9478 -77.6167 1377.26
v 18.6052 -76.7235 1377.39
v 20.0677 -76.6246 1376.51
v 19.9971 -76.7089 1376.87
v 20.4809 -76.7283 1376.62
v 20.3724 -76.6116 1376.32
v 21.4265 -76.5243 1376.25
v 20.279 -77.9267 1378.64
v 21.336 -79.0792 1381.35
v 22.6729 -76.6932 1377.58
v 22.9767 -75.5483 1375.81
v 22.891 -75.603 1375.5
v 23.2471 -75.5321 1375.53
v 23.2104 -75.6047 1375.87
v 23.4787 -75.9391 1375.69
v 23.4249 -76.2296 1374.96
v 23.307 -76.3673 1374.67
v 22.0201 -76.4609 1375.09
v 22.2076 -76.6711 1374.95
v 21.1326 -76.908 1375.01
v 20.5148 -76.8659 1375.25
v 22.5187 -77.1313 1375.23
v 23.2797 -77.0843 1375.5
v 22.9848 -78.504 1378.34
v 22.9841 -79.1128 1379.95
v 22.8691 -80.4448 1381.87
v 22.978 -80.8025 1382.97
v 22.6689 -83.575 1385.79
v 22.906 -83.3166 1386.04
v 22.8994 -82.9113 1386.1
v 22.8977 -83.4742 1386.4
v 22.8295 -83.7022 1386.44
v 22.8028 -83.574 1386.71
v 22.5033 -83.1743 1386.77
v 22.5125 -82.2645 1385.82
v 21.3597 -82.9541 1386.9
v 22.0163 -83.6159 1387.33
v 22.3486 -83.9688 1386.94
v 21.4943 -84.1278 1387.25
v 19.9147 -84.1769 1387.84
v 19.2582 -84.147 1388.03
v 19.7183 -83.8312 1388.08
v 19.0534 -83.8384 1388.38
v 19.2646 -83.6319 1388.36
v 18.4896 -83.7407 1388.52
v 18.6492 -83.9581 1388.43
v 18.2523 -83.8659 1388.39
v 18.2608 -83.6744 1388.48
v 18.3647 -83.4668 1388.45
v 18.1204 -83.375 1388.32
v 18.048 -83.5775 1388.28
v 17.9664 -83.2838 1388.08
v 17.9648 -83.494 1388.07
v 17.9065 -83.2553 1387.44
v 18.0494 -83.6991 1388
v 18.0163 -83.3718 1387.01
v 18.299 -83.8388 1387.53
v 18.4046 -84.0392 1387.98
v 18.6288 -84.021 1387.8
v 18.5937 -84.1178 1388.17
v 18.8086 -84.0834 1388.22
v 18.8126 -84.0765 1387.99
v 18.8728 -83.862 1387.26
v 19.0151 -84.1154 1388.04
v 18.5375 -83.7035 1386.98
v 17.994 -82.3092 1385.13
v 18.1038 -81.4555 1383.72
v 18.3989 -80.8959 1383.83
v 18.6428 -79.4132 1382.05
v 18.5443 -77.176 1378.26
v 20.2678 -81.6938 1385.03
v 22.344 -78.7667 1381.18
v 22.8225 -79.8334 1382.42
v 22.9349 -80.3604 1382.94
v 23.0384 -80.0809 1382.35
v 22.9828 -79.7098 1381.95
v 23.0211 -79.9173 1381.9
v 23.0363 -80.2714 1382.27
v 23.0527 -78.5723 1380.04
v 22.9072 -78.1186 1379.89
v 22.8251 -77.6433 1379.21
v 23.1052 -76.7523 1377.42
v 23.0782 -77.9484 1379.05
v 23.4898 -77.031 1376.06
v 23.5249 -76.3522 1375.16
v 23.4542 -76.4551 1374.86
v 23.1926 -76.6297 1374.83
v 18.5403 -82.3319 1387.27
v 18.3869 -82.7656 1387.92
v 19.2206 -83.2958 1388.23
v 19.7713 -83.4183 1388.11
v 18.0686 -82.8387 1387.9
v 18.1833 -82.4044 1387.3
v 18.3813 -81.8228 1385.72
v 18.6419 -81.8376 1385.92
v 18.6979 -81.5855 1385.34
v 18.8788 -80.864 1384.02
v 18.4931 -81.4347 1384.94
v 18.2484 -81.5952 1384.69
v 18.0638 -82.0235 1384.93
v 17.9866 -82.6676 1387.37
v 17.9494 -82.9904 1387.81
v 22.2971 -84.1443 1386.71
v 22.6774 -83.9267 1386.6
v 22.5946 -83.9654 1386.36
v 22.3572 -83.979 1386.31
v 22.3192 -83.2751 1385.25
v 21.7503 -83.1687 1385.25
v 19.4023 -77.2105 1375.66
v 22.4704 -81.3992 1382.76
v 19.8625 -84.3221 1387.62
v 17.9478 -77.6167 1377.26
v 18.6052 -76.7235 1377.39
v 18.6052 -76.7235 1377.39
v 20.0677 -76.6246 1376.51
v 20.3724 -76.6116 1376.32
v 22.891 -75.603 1375.5
v 23.2471 -75.5321 1375.53
v 23.2471 -75.5321 1375.53
v 23.2104 -75.6047 1375.87
v 23.307 -76.3673 1374.67
v 23.307 -76.3673 1374.67
v 23.307 -76.3673 1374.67
v 22.0201 -76.4609 1375.09
v 22.2076 -76.6711 1374.95
v 21.1326 -76.908 1375.01
v 20.5148 -76.8659 1375.25
v 20.5148 -76.8659 1375.25
v 22.6689 -83.575 1385.79
v 22.0163 -83.6159 1387.33
v 21.4943 -84.1278 1387.25
v 19.2582 -84.147 1388.03
v 18.2523 -83.8659 1388.39
v 18.2608 -83.6744 1388.48
v 18.4046 -84.0392 1387.98
v 18.5937 -84.1178 1388.17
v 18.8086 -84.0834 1388.22
v 19.0151 -84.1154 1388.04
v 18.5443 -77.176 1378.26
v 22.9828 -79.7098 1381.95
v 23.0527 -78.5723 1380.04
v 22.9072 -78.1186 1379.89
v 22.8251 -77.6433 1379.21
v 23.1052 -76.7523 1377.42
v 23.0782 -77.9484 1379.05
v 23.4542 -76.4551 1374.86
v 19.7713 -83.4183 1388.11
v 18.0686 -82.8387 1387.9
v 18.1833 -82.4044 1387.3
v 18.3813 -81.8228 1385.72
v 18.4931 -81.4347 1384.94
vn -0.489064 -0.699318 -0.521315
vn -0.10227 -0.79638 -0.596087
vn -0.49685 -0.743282 -0.447963
vn -0.745538 -0.57686 -0.333775
vn -0.941459 -0.242652 -0.234038
vn -0.72421 -0.347544 -0.595594
vn -0.349086 -0.619077 -0.703479
vn -0.379965 -0.320393 -0.867741
vn -0.17122 -0.5939 -0.786108
vn 0.0404786 -0.688749 -0.723869
vn 0.297796 -0.827419 -0.476126
vn 0.110442 -0.864852 -0.489728
vn -0.139123 -0.84676 -0.513462
vn -0.0329258 -0.867642 -0.496098
vn -0.0699295 -0.880094 -0.469622
vn 0.214295 -0.844854 -0.490204
vn 0.603392 -0.701861 -0.378562
vn 0.187666 -0.810173 -0.555338
vn 0.133467 -0.825724 -0.548056
vn 0.198192 -0.851663 -0.48517
vn 0.120671 -0.904365 -0.409343
vn -0.0352214 -0.926407 -0.374873
vn 0.136024 -0.902618 -0.408386
vn -0.0256687 -0.936355 -0.350114
vn -0.0857184 -0.977057 -0.194969
vn -0.274408 -0.936657 -0.217656
vn -0.424263 -0.835243 -0.349814
vn -0.846325 -0.46774 -0.254858
vn -0.941552 -0.281281 -0.185368
vn -0.992217 -0.123603 -0.0150897
vn -0.824908 0.507227 0.249495
vn -0.886711 0.460179 0.0444865
vn -0.497987 0.747352 -0.439856
vn -0.291971 0.903684 -0.313223
vn 0.192961 0.893869 0.404678
vn 0.119234 0.909698 0.397786
vn 0.0521768 0.937825 0.343164
vn -0.288903 0.938031 0.191396
vn 0.107549 0.867512 0.48565
vn -0.120706 0.858089 0.499112
vn -0.0280911 0.859745 0.509951
vn -0.184067 0.953554 0.238439
vn -0.454664 0.880397 -0.134838
vn -0.00410925 0.998586 0.0530021
vn 0.193069 0.866758 0.459843
vn 0.93874 0.335053 0.0806685
vn 0.841637 0.402089 -0.360515
vn 0.720287 0.464405 -0.515281
vn -0.249962 0.509232 -0.82353
vn -0.230393 0.379109 -0.896212
vn -0.197864 0.53963 -0.818321
vn -0.247511 0.624311 -0.740927
vn 0.119868 -0.715155 -0.688611
vn 0.534801 -0.72669 -0.431172
vn 0.864455 -0.470724 -0.176458
vn 0.931856 -0.329397 -0.152123
vn 0.88275 -0.403604 -0.240534
vn 0.96769 -0.227131 -0.109487
vn 0.796112 -0.501758 -0.338296
vn 0.957761 -0.249234 -0.143447
vn 0.89659 0.296263 0.329173
vn 0.988213 -0.0930425 0.121567
vn 0.887049 -0.456914 -0.0661408
vn 0.832128 -0.0622782 0.551076
vn 0.468863 0.562224 0.681228
vn 0.402551 0.703129 0.586142
vn 0.167538 0.7713 0.614025
vn 0.369148 0.581152 0.725253
vn 0.525604 -0.563381 0.63745
vn 0.318281 -0.665275 0.675357
vn 0.250946 -0.624544 0.739575
vn 0.156475 -0.68964 0.707045
vn 0.355351 -0.346705 0.868056
vn 0.257981 -0.530972 0.807164
vn 0.293205 0.0898523 0.951818
vn -0.0074651 -0.125575 0.992056
vn 0.0132513 -0.659395 0.75168
vn -0.510978 -0.694068 0.507121
vn -0.270365 -0.367959 0.889668
vn -0.0442972 0.409135 0.911398
vn -0.507781 0.378474 0.773897
vn -0.857135 -0.167413 0.487127
vn -0.910234 0.16831 0.378347
vn -0.966622 -0.205705 0.152733
vn -0.991454 -0.127732 -0.0265191
vn -0.829016 -0.559149 -0.00919883
vn -0.789031 -0.573819 -0.219458
vn -0.424491 -0.855118 -0.297625
vn -0.640259 -0.767926 0.0189231
vn -0.112756 -0.945945 -0.304096
vn 0.00285851 -0.983287 -0.182042
vn 0.231388 -0.779367 0.582276
vn -0.0314891 -0.983296 -0.179272
vn -0.232873 -0.927851 -0.291311
vn -0.231754 -0.965189 -0.121248
vn -0.186774 -0.928885 -0.319824
vn -0.997443 0.0681634 -0.0214841
vn -0.957664 0.260185 0.123224
vn -0.692854 0.605092 0.392196
vn -0.168256 0.828879 0.533526
vn -0.560565 0.729729 0.391489
vn 0.10464 0.863054 0.494154
vn 0.090774 0.828972 0.551875
vn 0.631359 0.628129 0.454795
vn 0.836646 0.415743 0.356625
vn 0.955449 0.232073 0.182372
vn 0.719609 0.573878 0.390931
vn 0.997021 -0.0362112 -0.0680972
vn 0.978764 -0.166936 -0.118968
vn 0.995154 -0.0929167 -0.0321779
vn 0.864582 0.423375 0.270652
vn 0.202669 0.841785 0.500323
vn 0.307052 0.796733 0.520514
vn 0.867441 0.413002 0.277444
vn 0.983273 -0.182032 -0.0062743
vn 0.981208 0.112951 -0.15644
vn 0.73169 -0.535026 -0.422346
vn 0.220261 -0.653215 -0.724428
vn 0.0220476 0.900516 0.434263
vn -0.0190815 0.732685 0.6803
vn 0.219701 0.573671 0.789071
vn 0.294343 0.602629 0.741755
vn -0.211133 0.71178 0.669919
vn -0.169421 0.866462 0.469616
vn -0.184638 0.914552 0.359866
vn -0.0437007 0.929351 0.366601
vn -0.0612573 0.899739 0.432109
vn -0.104971 0.847327 0.520594
vn -0.199549 0.877592 0.435904
vn -0.809344 0.536132 0.239843
vn -0.870179 0.47169 0.142471
vn -0.91046 0.389298 0.139681
vn -0.938788 0.264899 0.220239
vn 0.259619 -0.965038 0.0360399
vn 0.716922 -0.655315 0.237877
vn 0.490782 -0.817914 -0.300249
vn 0.0314757 -0.873101 -0.486522
vn -0.011577 -0.825155 -0.564788
vn 0.0475295 -0.863637 -0.501869
vn -0.562958 0.672116 -0.480977
vn 0.747376 -0.567969 -0.344732
vn 0.170536 -0.833197 0.526023
vn -0.828311 0.192353 -0.526214
vn 0.124306 0.92595 0.356602
vn -0.713321 0.668257 0.211203
vn 0.135683 0.953458 0.269273
vn -0.148601 0.957365 -0.24773
vn -0.184983 0.672792 -0.716333
vn 0.816189 0.543811 -0.195205
vn -0.087906 0.708365 -0.700351
vn 0.813569 0.500221 0.296453
vn -0.232573 0.562056 -0.793727
vn 0.46106 -0.598221 -0.655405
vn -0.0851033 -0.489118 -0.868056
vn -0.448774 0.874847 -0.182332
vn -0.0193837 -0.532607 -0.846141
vn -0.163297 -0.406064 -0.899136
vn -0.239001 0.945153 -0.22263
vn -0.361174 0.0487303 -0.931224
vn 0.180251 -0.810842 -0.556816
vn 0.395072 -0.356233 0.846768
vn 0.0611152 -0.998123 -0.00388866
vn -0.20205 -0.979115 0.0225819
vn -0.715398 -0.24739 0.653455
vn -0.487756 0.0867675 0.868657
vn -0.169102 -0.936108 -0.308393
vn -0.255553 -0.866719 0.428358
vn -0.00895953 -0.9995 -0.0303115
vn 0.149202 -0.779225 0.608726
vn 0.220631 0.841871 0.492519
vn 0.983165 0.165554 0.0773197
vn 0.832671 0.456505 0.313469
vn 0.308796 0.788683 0.531624
vn 0.804616 0.502313 0.316662
vn 0.892956 0.3278 0.308506
vn 0.984449 -0.175495 0.00781845
vn 0.867485 0.298418 -0.398016
vn 0.403282 -0.11115 0.9083
vn -0.774674 0.475754 0.41658
vn -0.753686 0.626801 0.197683
vn -0.769509 0.606416 0.20029
vn -0.715673 0.634061 0.29288
g grp1
usemtl mtl1
f 1//1 2//2 3//3 
f 1//1 3//3 4//4 
f 1//1 4//4 5//5 
f 5//5 6//6 1//1 
f 7//7 1//1 6//6 
f 6//6 8//8 7//7 
f 7//7 8//8 9//9 
f 9//9 2//2 7//7 
f 1//1 7//7 2//2 
f 9//9 10//10 2//2 
f 10//10 11//11 2//2 
f 2//2 11//11 12//12 
f 2//2 12//12 13//13 
f 2//2 13//13 3//3 
f 3//3 13//13 14//14 
f 15//15 3//3 14//14 
f 16//16 15//15 14//14 
f 14//14 12//12 16//16 
f 11//11 16//16 12//12 
f 11//11 17//17 16//16 
f 16//16 17//17 18//18 
f 18//18 19//19 16//16 
f 16//16 19//19 20//20 
f 20//20 15//15 16//16 
f 15//15 20//20 21//21 
f 22//22 15//15 21//21 
f 21//21 23//23 22//22 
f 23//23 24//24 22//22 
f 22//22 24//24 25//25 
f 22//22 25//25 26//26 
f 26//26 15//15 22//22 
f 15//15 26//26 27//27 
f 3//3 15//15 27//27 
f 3//3 27//27 28//28 
f 28//28 29//29 3//3 
f 3//3 29//29 30//30 
f 4//4 3//3 30//30 
f 4//4 30//30 5//5 
f 5//5 30//30 31//31 
f 5//5 31//31 32//32 
f 6//6 5//5 143//143 
f 6//6 143//143 140//140 
f 143//143 33//33 140//140 
f 34//34 140//140 33//33 
f 146//146 144//144 35//35 
f 146//146 35//35 36//36 
f 37//37 146//146 36//36 
f 38//38 37//37 36//36 
f 36//36 39//39 38//38 
f 39//39 40//40 38//38 
f 38//38 40//40 41//41 
f 38//38 41//41 42//42 
f 43//43 38//38 42//42 
f 44//44 43//43 42//42 
f 44//44 42//42 45//45 
f 151//151 46//46 149//149 
f 149//149 46//46 47//47 
f 149//149 47//47 48//48 
f 152//152 148//148 150//150 
f 49//49 148//148 152//152 
f 152//152 50//50 49//49 
f 50//50 51//51 49//49 
f 51//51 52//52 49//49 
f 38//38 155//155 158//158 
f 158//158 147//147 38//38 
f 158//158 34//34 147//147 
f 158//158 140//140 34//34 
f 159//159 157//157 8//8 
f 157//157 9//9 8//8 
f 9//9 157//157 10//10 
f 157//157 156//156 10//10 
f 10//10 156//156 53//53 
f 53//53 11//11 10//10 
f 53//53 54//54 11//11 
f 11//11 54//54 55//55 
f 11//11 55//55 17//17 
f 17//17 55//55 56//56 
f 17//17 56//56 57//57 
f 141//141 17//17 57//57 
f 141//141 57//57 58//58 
f 59//59 141//141 58//58 
f 60//60 59//59 58//58 
f 60//60 58//58 61//61 
f 60//60 61//61 62//62 
f 63//63 60//60 62//62 
f 64//64 63//63 62//62 
f 62//62 61//61 64//64 
f 65//65 64//64 61//61 
f 61//61 66//66 65//65 
f 65//65 66//66 67//67 
f 65//65 67//67 68//68 
f 64//64 65//65 68//68 
f 69//69 64//64 161//161 
f 70//70 69//69 161//161 
f 70//70 161//161 71//71 
f 142//142 70//70 71//71 
f 72//72 142//142 71//71 
f 71//71 73//73 72//72 
f 74//74 72//72 73//73 
f 74//74 73//73 75//75 
f 74//74 75//75 76//76 
f 77//77 74//74 76//76 
f 78//78 77//77 76//76 
f 79//79 78//78 76//76 
f 76//76 80//80 165//165 
f 80//80 81//81 165//165 
f 82//82 165//165 81//81 
f 82//82 81//81 83//83 
f 84//84 82//82 83//83 
f 83//83 85//85 84//84 
f 86//86 84//84 85//85 
f 87//87 86//86 85//85 
f 87//87 85//85 28//28 
f 28//28 27//27 87//87 
f 87//87 27//27 88//88 
f 87//87 88//88 86//86 
f 89//89 86//86 88//88 
f 88//88 90//90 166//166 
f 90//90 91//91 166//166 
f 167//167 78//78 89//89 
f 78//78 86//86 89//89 
f 78//78 82//82 86//86 
f 86//86 82//82 84//84 
f 164//164 165//165 82//82 
f 77//77 78//78 167//167 
f 92//92 77//77 167//167 
f 93//93 168//168 91//91 
f 93//93 91//91 90//90 
f 90//90 94//94 93//93 
f 93//93 94//94 95//95 
f 95//95 168//168 93//93 
f 92//92 169//169 74//74 
f 77//77 92//92 74//74 
f 169//169 72//72 74//74 
f 163//163 95//95 26//26 
f 26//26 25//25 163//163 
f 26//26 95//95 94//94 
f 27//27 26//26 94//94 
f 27//27 94//94 96//96 
f 27//27 96//96 88//88 
f 96//96 94//94 88//88 
f 88//88 94//94 90//90 
f 28//28 85//85 97//97 
f 97//97 29//29 28//28 
f 29//29 97//97 98//98 
f 98//98 30//30 29//29 
f 98//98 99//99 30//30 
f 30//30 99//99 31//31 
f 31//31 99//99 100//100 
f 31//31 100//100 101//101 
f 101//101 145//145 31//31 
f 32//32 31//31 145//145 
f 144//144 170//170 35//35 
f 170//170 39//39 35//35 
f 36//36 35//35 39//39 
f 39//39 170//170 100//100 
f 100//100 40//40 39//39 
f 100//100 102//102 40//40 
f 102//102 67//67 40//40 
f 103//103 40//40 67//67 
f 67//67 66//66 103//103 
f 104//104 103//103 66//66 
f 104//104 66//66 105//105 
f 105//105 106//106 104//104 
f 107//107 104//104 106//106 
f 108//108 171//171 106//106 
f 106//106 109//109 108//108 
f 57//57 108//108 109//109 
f 57//57 109//109 58//58 
f 109//109 106//106 58//58 
f 58//58 106//106 105//105 
f 58//58 105//105 61//61 
f 61//61 105//105 66//66 
f 108//108 57//57 110//110 
f 110//110 171//171 108//108 
f 104//104 107//107 172//172 
f 104//104 172//172 111//111 
f 173//173 103//103 104//104 
f 173//173 112//112 103//103 
f 103//103 112//112 41//41 
f 40//40 103//103 41//41 
f 113//113 41//41 112//112 
f 174//174 114//114 175//175 
f 114//114 115//115 175//175 
f 115//115 46//46 175//175 
f 175//175 46//46 151//151 
f 41//41 113//113 45//45 
f 45//45 42//42 41//41 
f 116//116 46//46 115//115 
f 117//117 116//116 115//115 
f 54//54 117//117 115//115 
f 54//54 115//115 55//55 
f 176//176 55//55 115//115 
f 55//55 176//176 110//110 
f 55//55 110//110 56//56 
f 56//56 110//110 57//57 
f 111//111 172//172 114//114 
f 111//111 114//114 174//174 
f 117//117 54//54 118//118 
f 118//118 153//153 117//117 
f 47//47 177//177 48//48 
f 47//47 116//116 177//177 
f 46//46 116//116 47//47 
f 118//118 156//156 154//154 
f 53//53 156//156 118//118 
f 118//118 54//54 53//53 
f 102//102 119//119 67//67 
f 67//67 119//119 120//120 
f 120//120 121//121 67//67 
f 121//121 122//122 67//67 
f 122//122 68//68 67//67 
f 73//73 161//161 178//178 
f 73//73 178//178 75//75 
f 75//75 122//122 121//121 
f 80//80 75//75 121//121 
f 121//121 120//120 80//80 
f 81//81 80//80 120//120 
f 123//123 81//81 120//120 
f 124//124 123//123 120//120 
f 124//124 120//120 119//119 
f 125//125 124//124 119//119 
f 126//126 125//125 119//119 
f 126//126 119//119 102//102 
f 127//127 126//126 102//102 
f 128//128 127//127 102//102 
f 128//128 102//102 100//100 
f 100//100 99//99 128//128 
f 99//99 129//129 128//128 
f 128//128 129//129 127//127 
f 129//129 125//125 127//127 
f 127//127 125//125 126//126 
f 182//182 130//130 181//181 
f 130//130 131//131 181//181 
f 131//131 180//180 181//181 
f 132//132 180//180 131//131 
f 97//97 132//132 131//131 
f 98//98 97//97 131//131 
f 98//98 131//131 130//130 
f 99//99 98//98 130//130 
f 130//130 182//182 99//99 
f 97//97 85//85 132//132 
f 85//85 133//133 132//132 
f 133//133 179//179 132//132 
f 180//180 132//132 179//179 
f 83//83 179//179 133//133 
f 85//85 83//83 133//133 
f 83//83 81//81 179//179 
f 80//80 76//76 75//75 
f 71//71 161//161 73//73 
f 24//24 162//162 25//25 
f 162//162 24//24 134//134 
f 70//70 134//134 69//69 
f 69//69 134//134 135//135 
f 135//135 64//64 69//69 
f 64//64 135//135 63//63 
f 135//135 136//136 63//63 
f 136//136 59//59 63//63 
f 59//59 60//60 63//63 
f 137//137 160//160 136//136 
f 134//134 137//137 136//136 
f 135//135 134//134 136//136 
f 137//137 134//134 24//24 
f 24//24 138//138 137//137 
f 138//138 160//160 137//137 
f 138//138 18//18 160//160 
f 19//19 18//18 138//138 
f 138//138 139//139 19//19 
f 139//139 20//20 19//19 
f 20//20 139//139 23//23 
f 21//21 20//20 23//23 
f 23//23 139//139 24//24 
f 138//138 24//24 139//139 
f 155//155 38//38 43//43 
f 12//12 14//14 13//13 
