v -50.9103 -114.889 818.073
v -53.1255 -113.545 819.873
v -50.6752 -114.015 819.695
v -50.8473 -110.502 822.283
v -53.2587 -109.238 824.177
v -50.0326 -112.329 820.235
v -53.2146 -107.46 825.745
v -51.7089 -107.688 825.03
v -53.4735 -106.836 826.519
v -54.301 -110.633 822.54
v -54.9036 -111.743 820.791
v -53.2835 -112.989 819.613
v -55.1064 -112.21 821.593
v -55.2131 -111.594 822.893
v -55.7117 -105.908 829.148
v -53.7132 -108.967 826.049
v -57.6844 -105.615 830.763
v -56.991 -108.337 827.767
v -56.6311 -110.938 823.587
v -54.4487 -110.748 824.297
v -56.2932 -110.581 822.608
v -57.4617 -108.371 826.049
v -58.1073 -109.127 825.165
v -60.1342 -106.435 831.16
v -57.6017 -110.109 825.042
v -59.0204 -109.062 827.099
v -59.2967 -108.574 826.742
v -58.3182 -103.319 831.731
v -60.0962 -101.892 834.05
v -60.0677 -103.267 832.706
v -59.8288 -107.966 827.493
v -61.136 -106.623 829.796
v -60.7172 -105.143 831.163
v -61.5706 -100.751 835.752
v -62.4369 -101.292 835.48
v -62.7674 -104.786 832.6
v -62.5606 -105.836 832.625
v -61.8819 -106.6 831.549
v -63.1066 -105.049 833.695
v -61.0077 -104.197 833.695
v -63.6723 -103.966 834.953
v -64.1696 -102.876 836.134
v -63.7135 -101.675 837.047
v -63.7686 -102.961 834.73
v -64.2662 -101.876 835.917
v -64.5815 -100.784 837.078
v -64.2001 -99.9439 837.529
v -63.9355 -100.395 838.032
v -64.5592 -100.776 838.022
v -64.5983 -101.734 837.154
v -61.7943 -101.409 836.253
v -62.927 -99.956 836.971
v -60.7188 -107.626 829.774
v -59.0838 -103.307 833.295
v -56.6152 -105.984 828.552
v -57.4034 -103.89 831.031
v -56.1959 -104.827 829.253
v -54.7932 -106.047 827.62
v -52.7612 -107.785 826.318
v -51.7562 -113.363 818.562
v -50.9444 -111.316 823.003
v -50.8436 -108.711 823.797
v -51.7344 -113.853 818.149
v -50.5537 -109.684 824.033
v -48.7083 -113.649 820.192
v -49.7705 -115.736 816.566
v -49.4607 -115.454 815.799
v -47.4747 -115.279 816.18
v -49.4581 -110.605 821.89
v -48.1673 -116.515 815.983
v -48.6946 -111.795 821.267
v -44.9878 -117.695 812.727
v -48.2001 -115.999 814.704
v -45.4257 -114.994 816.882
v -46.6583 -114.459 818.838
v -47.8852 -112.613 819.658
v -44.1147 -116.778 816.011
v -44.0207 -118.523 813.592
v -41.9139 -118.985 811.516
v -42.6441 -120.068 809.738
v -42.4558 -120.886 810.003
v -44.712 -119.258 812.051
v -40.5787 -120.663 811.244
v -41.2339 -118.268 812.818
v -43.3755 -116.818 814.969
v -41.7575 -118.641 813.72
v -40.4992 -122.563 807.81
v -39.4464 -122.869 808.235
v -41.0853 -121.643 808.45
v -40.4885 -121.839 807.396
v -40.3456 -119.494 812.529
v -38.7697 -121.224 809.275
v -39.0955 -122.183 807.552
v -38.8364 -120.876 811.221
v -36.1739 -125.817 805.396
v -39.1177 -123.873 805.999
v -39.3405 -119.828 811.043
v -37.8545 -124.356 804.343
v -39.1956 -123.117 805.627
v -37.7033 -125.065 804.653
v -37.0451 -124.109 805.485
v -38.1941 -121.123 809.666
v -38.1105 -121.517 809.922
v -37.7352 -122.652 809.409
v -36.9548 -122.803 808.015
v -36.1688 -126.256 803.708
v -35.9317 -123.978 806.91
v -36.553 -124.06 807.993
v -34.0059 -126.021 805.405
v -36.5173 -125.382 803.54
v -34.4968 -126.236 804.228
v -33.2266 -128.657 802.293
v -34.6617 -127.344 802.62
v -33.4663 -127.87 801.866
v -35.172 -126.433 802.726
v -33.285 -127.737 802.529
v -32.0717 -129.286 801.012
v -31.1283 -130.154 800.458
v -31.2185 -130.834 800.902
v -29.9405 -131.592 800.242
v -29.9393 -132.272 800.789
v -29.5503 -132.394 801.177
v -29.462 -131.717 801.045
v -29.6975 -131.262 802.547
v -30.1414 -130.184 802.749
v -29.5623 -132.087 802.012
v -30.3157 -130.692 803.327
v -30.8127 -129.564 804.129
v -30.4746 -130.323 801.724
v -31.3387 -128.624 803.717
v -32.5795 -128.261 804.644
v -31.6178 -130.024 802.689
v -33.8631 -126.958 805.588
v -35.1973 -125.564 806.712
v -45.3208 -118.151 812.043
v -46.8792 -117.755 813.908
v -47.7617 -116.786 814.272
v -48.5314 -112.434 821.251
v -50.9103 -114.889 818.073
v -53.1255 -113.545 819.873
v -51.7089 -107.688 825.03
v -53.4735 -106.836 826.519
v -54.9036 -111.743 820.791
v -54.9036 -111.743 820.791
v -53.2835 -112.989 819.613
v -53.2835 -112.989 819.613
v -55.1064 -112.21 821.593
v -55.7117 -105.908 829.148
v -56.6311 -110.938 823.587
v -56.2932 -110.581 822.608
v -58.1073 -109.127 825.165
v -58.1073 -109.127 825.165
v -57.6017 -110.109 825.042
v -59.0204 -109.062 827.099
v -59.2967 -108.574 826.742
v -58.3182 -103.319 831.731
v -58.3182 -103.319 831.731
v -60.0962 -101.892 834.05
v -59.8288 -107.966 827.493
v -59.8288 -107.966 827.493
v -61.136 -106.623 829.796
v -61.5706 -100.751 835.752
v -62.7674 -104.786 832.6
v -62.5606 -105.836 832.625
v -61.8819 -106.6 831.549
v -63.1066 -105.049 833.695
v -63.6723 -103.966 834.953
v -64.1696 -102.876 836.134
v -63.7686 -102.961 834.73
v -64.2662 -101.876 835.917
v -64.5815 -100.784 837.078
v -64.2001 -99.9439 837.529
v -64.2001 -99.9439 837.529
v -64.2001 -99.9439 837.529
v -63.9355 -100.395 838.032
v -63.9355 -100.395 838.032
v -63.9355 -100.395 838.032
v -64.5592 -100.776 838.022
v -64.5592 -100.776 838.022
v -64.5983 -101.734 837.154
v -61.7943 -101.409 836.253
v -62.927 -99.956 836.971
v -62.927 -99.956 836.971
v -60.7188 -107.626 829.774
v -59.0838 -103.307 833.295
v -59.0838 -103.307 833.295
v -57.4034 -103.89 831.031
v -57.4034 -103.89 831.031
v -56.1959 -104.827 829.253
v -56.1959 -104.827 829.253
v -54.7932 -106.047 827.62
v -52.7612 -107.785 826.318
v -51.7562 -113.363 818.562
v -51.7562 -113.363 818.562
v -50.8436 -108.711 823.797
v -51.7344 -113.853 818.149
v -50.5537 -109.684 824.033
v -49.7705 -115.736 816.566
v -49.4607 -115.454 815.799
v -49.4581 -110.605 821.89
v -48.2001 -115.999 814.704
v -45.4257 -114.994 816.882
v -46.6583 -114.459 818.838
v -47.8852 -112.613 819.658
v -44.1147 -116.778 816.011
v -42.6441 -120.068 809.738
v -42.4558 -120.886 810.003
v -44.712 -119.258 812.051
v -41.2339 -118.268 812.818
v -41.7575 -118.641 813.72
v -40.4992 -122.563 807.81
v -40.4885 -121.839 807.396
v -40.3456 -119.494 812.529
v -38.8364 -120.876 811.221
v -39.1177 -123.873 805.999
v -39.3405 -119.828 811.043
v -37.8545 -124.356 804.343
v -39.1956 -123.117 805.627
v -37.7033 -125.065 804.653
v -38.1941 -121.123 809.666
v -37.7352 -122.652 809.409
v -36.9548 -122.803 808.015
v -36.1688 -126.256 803.708
v -35.9317 -123.978 806.91
v -36.553 -124.06 807.993
v -34.0059 -126.021 805.405
v -36.5173 -125.382 803.54
v -33.4663 -127.87 801.866
v -35.172 -126.433 802.726
v -32.0717 -129.286 801.012
v -31.1283 -130.154 800.458
v -31.2185 -130.834 800.902
v -29.9405 -131.592 800.242
v -29.9405 -131.592 800.242
v -29.9393 -132.272 800.789
v -29.9393 -132.272 800.789
v -29.5503 -132.394 801.177
v -29.5503 -132.394 801.177
v -29.462 -131.717 801.045
v -29.6975 -131.262 802.547
v -29.5623 -132.087 802.012
v -29.5623 -132.087 802.012
v -30.3157 -130.692 803.327
v -30.8127 -129.564 804.129
v -30.8127 -129.564 804.129
v -31.3387 -128.624 803.717
v -32.5795 -128.261 804.644
v -33.8631 -126.958 805.588
v -35.1973 -125.564 806.712
v -45.3208 -118.151 812.043
v -45.3208 -118.151 812.043
v -46.8792 -117.755 813.908
v -47.7617 -116.786 814.272
v -48.5314 -112.434 821.251
vn -0.210474 -0.887884 0.4091
vn -0.128158 -0.856819 0.499436
vn -0.0892037 -0.847699 0.522923
vn -0.18551 0.66851 -0.720195
vn -0.184069 0.704928 -0.684978
vn -0.0481717 0.766413 -0.640539
vn -0.24182 0.671281 -0.700646
vn -0.220594 0.693909 -0.68544
vn -0.141281 0.746645 -0.650047
vn -0.00947564 0.821537 -0.570077
vn -0.769573 -0.43121 -0.470973
vn -0.719309 -0.481494 -0.500757
vn -0.176399 -0.878927 0.443137
vn -0.145265 -0.865402 0.47956
vn 0.492207 -0.457103 0.740803
vn 0.328349 -0.594339 0.73413
vn 0.397043 -0.577145 0.713625
vn 0.190941 -0.753495 0.629116
vn -0.132147 -0.870426 0.474232
vn 0.0258321 -0.812342 0.582609
vn -0.0511849 0.832903 -0.551047
vn -0.175764 0.779934 -0.600674
vn -0.179042 0.808143 -0.561114
vn 0.250654 -0.716873 0.650589
vn -0.846096 -0.389995 -0.363353
vn 0.0394432 -0.854346 0.518205
vn -0.769338 -0.598887 -0.22238
vn -0.38164 0.609707 -0.6947
vn -0.279418 0.677271 -0.68061
vn -0.309368 0.652274 -0.691975
vn -0.20929 0.797103 -0.566414
vn -0.295029 0.722283 -0.625512
vn -0.319075 0.668596 -0.671692
vn -0.222543 0.697812 -0.680833
vn -0.307591 0.6476 -0.697139
vn -0.912453 -0.193965 -0.360287
vn -0.905751 -0.187522 -0.380065
vn -0.874916 -0.162984 -0.456025
vn -0.932584 -0.154831 -0.326058
vn 0.321428 -0.630446 0.706556
vn 0.275752 -0.654709 0.703787
vn 0.231747 -0.642078 0.730773
vn 0.274094 -0.59983 0.751716
vn -0.948539 -0.152134 -0.277721
vn -0.961801 -0.0994066 -0.255065
vn -0.38305 0.597763 -0.704238
vn -0.349373 0.615996 -0.706036
vn -0.369854 0.586511 0.720564
vn -0.369854 0.586511 0.720564
vn 0.133685 -0.650254 0.747862
vn 0.391718 -0.545735 0.740763
vn 0.701295 0.210266 0.681156
vn 0.168043 -0.80238 0.572667
vn 0.443761 -0.52683 0.724932
vn -0.313843 0.642814 -0.698779
vn 0.666151 0.673157 0.321094
vn -0.385074 0.576137 -0.720961
vn 0.764138 0.494409 0.41431
vn 0.74637 0.332221 0.57668
vn 0.0631411 0.841507 -0.536543
vn 0.231306 -0.644623 0.728669
vn -0.228224 0.641325 -0.732541
vn -0.342007 0.596405 -0.726177
vn 0.347575 -0.536425 0.769051
vn 0.136501 -0.719175 0.681289
vn -0.76931 -0.496113 -0.402535
vn -0.772276 -0.428128 -0.469357
vn 0.108498 0.845191 -0.523335
vn -0.134853 0.684942 -0.71601
vn -0.228125 -0.88909 0.396835
vn 0.876877 0.359959 0.318617
vn 0.121392 0.834685 -0.537182
vn 0.114796 0.84754 -0.518168
vn 0.803096 0.323355 0.500478
vn 0.848397 0.369431 0.379135
vn 0.857365 0.435758 0.273936
vn 0.035918 -0.77446 0.631602
vn -0.123687 -0.842318 0.524597
vn 0.152123 0.827959 -0.539762
vn 0.154476 0.834277 -0.529263
vn -0.277316 -0.856573 0.435177
vn -0.190771 -0.856105 0.480302
vn -0.128161 -0.803775 0.580965
vn 0.153577 0.829393 -0.537142
vn 0.773184 0.283237 0.567418
vn -0.0148871 -0.784982 0.61934
vn -0.382964 -0.864238 0.326237
vn -0.332308 -0.835721 0.437198
vn -0.815713 -0.283137 -0.504426
vn -0.846726 -0.322166 -0.423396
vn 0.0128392 -0.740556 0.671872
vn 0.245316 0.799947 -0.547635
vn 0.276924 0.837659 -0.470788
vn -0.0805441 -0.732994 0.67545
vn -0.477329 -0.807986 0.345422
vn -0.46033 -0.842936 0.278487
vn 0.820346 0.443296 0.361277
vn -0.723034 -0.393229 -0.567973
vn -0.815353 -0.336666 -0.471015
vn -0.758357 -0.375706 -0.532672
vn 0.412638 0.80936 -0.417931
vn 0.868954 0.385542 0.310283
vn 0.876259 0.262618 0.403982
vn -0.202876 -0.787476 0.581999
vn 0.873596 0.304248 0.37982
vn -0.684756 -0.375757 -0.624433
vn 0.810143 0.3225 0.489553
vn 0.816539 0.203083 0.540391
vn 0.735341 0.227027 0.63854
vn 0.43223 0.816695 -0.382343
vn 0.500273 0.795097 -0.342854
vn -0.717802 -0.663966 -0.209546
vn -0.666623 -0.452359 -0.592439
vn -0.664372 -0.417458 -0.619951
vn -0.658509 -0.316324 -0.682865
vn 0.546203 0.771822 -0.325506
vn -0.742319 -0.400749 -0.536994
vn 0.610225 0.728068 -0.312317
vn -0.670238 -0.402987 -0.623203
vn 0.684408 -0.387228 -0.61777
vn 0.502573 -0.541337 -0.674073
vn 0.684408 -0.387228 -0.61777
vn 0.894537 0.432822 -0.111661
vn 0.971947 0.204768 0.115707
vn 0.84081 0.540653 -0.02709
vn 0.569816 -0.379326 0.728986
vn 0.640897 -0.281801 0.71403
vn 0.797244 0.490721 0.351561
vn 0.659072 0.68798 -0.30382
vn 0.57309 0.746407 -0.338297
vn -0.420454 -0.736109 0.530436
vn -0.61207 -0.735834 0.289686
vn 0.739368 0.235973 0.630596
vn 0.757672 0.184832 0.625916
vn -0.742106 -0.414368 -0.526857
vn -0.738387 -0.46891 -0.484673
vn -0.746264 -0.477432 -0.463842
vn 0.245464 -0.627223 0.739148
vn -0.738864 -0.532882 -0.412452
vn -0.724684 -0.46388 -0.509557
vn 0.794578 0.29361 0.531449
vn 0.715895 0.507593 0.47942
vn 0.0239755 0.840389 -0.541453
vn -0.555491 0.0617278 -0.829228
vn -0.555491 0.0617278 -0.829228
vn -0.352447 0.59364 -0.723445
vn -0.807192 -0.397831 -0.436088
vn 0.79713 0.393423 0.458041
vn -0.846978 -0.359443 -0.391701
vn -0.841716 -0.344379 -0.415834
vn -0.819877 -0.43964 -0.366767
vn -0.782538 0.07809 -0.617686
vn -0.0806566 -0.899346 0.429733
vn -0.805115 -0.528247 -0.269712
vn -0.782538 0.07809 -0.617686
vn 0.760662 0.534504 0.368373
vn 0.411058 0.891455 -0.19063
vn 0.812284 0.275635 0.514023
vn -0.847163 -0.48255 -0.222396
vn -0.782538 0.07809 -0.617686
vn -0.887165 -0.362748 -0.285224
vn 0.762499 0.207915 0.612672
vn -0.358236 0.647801 -0.672325
vn 0.248321 -0.703192 0.666227
vn 0.209614 -0.756093 0.619989
vn 0.277228 -0.682145 0.676626
vn -0.944344 -0.142312 -0.296582
vn -0.955314 -0.147828 -0.255973
vn -0.374027 0.608003 -0.700311
vn -0.36367 0.617025 -0.697871
vn -0.986726 0.144313 -0.0744688
vn -0.369854 0.586511 0.720564
vn -0.914041 0.405214 0.0181614
vn 0.256061 0.782719 0.56726
vn 0.353229 -0.531222 0.770086
vn 0.676711 0.174232 0.715336
vn 0.256061 0.782719 0.56726
vn 0.227466 -0.609516 0.75944
vn -0.976018 0.216652 0.0212228
vn -0.986057 -0.0434577 -0.160632
vn 0.750428 0.216332 0.624546
vn 0.256061 0.782719 0.56726
vn -0.255911 0.67656 -0.69049
vn -0.876692 -0.351016 -0.328935
vn 0.779525 0.451414 0.434242
vn 0.811957 0.155748 0.562555
vn 0.838291 0.25122 0.483897
vn 0.411058 0.891455 -0.19063
vn 0.411058 0.891455 -0.19063
vn 0.83803 0.333428 0.431893
vn -0.267986 0.646901 -0.713934
vn 0.398621 -0.49644 0.771135
vn -0.555491 0.0617278 -0.829228
vn -0.368738 0.571797 -0.732858
vn 0.883747 0.341262 0.320205
vn -0.760345 -0.520281 -0.388823
vn 0.868951 0.292781 0.399003
vn -0.330496 -0.89775 0.291233
vn -0.481124 0.409984 -0.774875
vn 0.877174 0.402926 0.261181
vn -0.591106 0.216281 -0.777056
vn 0.0497699 0.806035 -0.589771
vn 0.223888 -0.649214 0.726908
vn -0.0937484 0.709868 -0.698068
vn 0.795516 0.346222 0.497277
vn -0.777362 -0.401125 -0.484568
vn -0.769735 -0.291423 -0.567962
vn -0.748972 -0.41577 -0.515922
vn 0.762543 0.340139 0.550304
vn 0.756606 0.333689 0.562316
vn -0.831781 -0.175541 -0.526617
vn 0.262019 0.866718 -0.424435
vn 0.763342 0.43474 0.477818
vn 0.858682 0.33757 0.385632
vn -0.832224 -0.295503 -0.469129
vn 0.187325 0.807503 -0.559328
vn 0.360702 0.825423 -0.434247
vn 0.32471 0.842958 -0.428936
vn -0.511624 -0.833359 0.209173
vn 0.249268 0.78337 -0.569383
vn 0.821012 0.0134204 0.570753
vn 0.347954 0.798763 -0.490822
vn -0.602615 -0.796218 0.053779
vn 0.459259 0.777019 -0.43049
vn -0.33202 -0.794319 0.508743
vn 0.496448 0.778926 -0.383163
vn -0.677589 -0.389668 -0.623724
vn 0.549242 0.777503 -0.306305
vn 0.497174 0.807496 -0.317441
vn 0.524882 0.768724 -0.365462
vn -0.640672 -0.35837 -0.679051
vn -0.699463 -0.696621 0.159592
vn -0.604276 -0.441086 -0.663546
vn 0.704308 0.644418 -0.297785
vn -0.612217 -0.496246 -0.615573
vn -0.664524 -0.705141 0.247354
vn 0.996585 0.054086 0.0623881
vn -0.612577 -0.72907 0.305297
vn 0.82519 -0.209892 -0.52441
vn 0.640897 -0.281801 0.71403
vn 0.97832 0.198539 -0.0589336
vn -0.607672 -0.717258 0.340993
vn -0.473201 -0.707131 0.525401
vn -0.252823 -0.632249 0.732354
vn 0.702501 -0.180108 0.688515
vn 0.722383 0.440669 0.532892
vn 0.658369 0.32252 0.680096
vn -0.420946 -0.772318 0.475741
vn -0.423369 -0.778069 0.464077
vn 0.0778846 0.811965 -0.578486
vn -0.660402 0.0433874 -0.749658
vn -0.227077 -0.881461 0.414081
vn -0.649364 0.0544084 -0.758529
vn 0.864342 0.210071 0.456928
g grp1
usemtl mtl1
f 3//3 2//2 1//1 
f 6//6 5//5 4//4 
f 9//9 8//8 7//7 
f 10//10 5//5 6//6 
f 12//12 140//140 11//11 
f 3//3 14//14 13//13 
f 17//17 16//16 15//15 
f 17//17 18//18 16//16 
f 19//19 13//13 14//14 
f 20//20 19//19 14//14 
f 23//23 22//22 21//21 
f 17//17 24//24 18//18 
f 25//25 151//151 149//149 
f 20//20 26//26 153//153 
f 26//26 20//20 18//18 
f 151//151 154//154 27//27 
f 30//30 29//29 28//28 
f 32//32 22//22 31//31 
f 32//32 33//33 22//22 
f 35//35 34//34 29//29 
f 30//30 33//33 35//35 
f 38//38 37//37 36//36 
f 37//37 39//39 36//36 
f 42//42 41//41 40//40 
f 41//41 166//166 40//40 
f 43//43 42//42 40//40 
f 44//44 167//167 168//168 
f 44//44 168//168 45//45 
f 170//170 46//46 35//35 
f 35//35 46//46 47//47 
f 172//172 49//49 48//48 
f 178//178 43//43 175//175 
f 178//178 50//50 43//43 
f 50//50 42//42 43//43 
f 180//180 171//171 45//45 
f 179//179 173//173 171//171 
f 180//180 179//179 171//171 
f 168//168 180//180 45//45 
f 51//51 175//175 43//43 
f 181//181 52//52 176//176 
f 174//174 177//177 182//182 
f 167//167 44//44 36//36 
f 167//167 36//36 39//39 
f 181//181 162//162 52//52 
f 43//43 40//40 51//51 
f 183//183 35//35 47//47 
f 169//169 170//170 35//35 
f 33//33 163//163 169//169 
f 40//40 166//166 164//164 
f 34//34 35//35 183//183 
f 164//164 24//24 40//40 
f 164//164 165//165 24//24 
f 163//163 33//33 32//32 
f 169//169 35//35 33//33 
f 24//24 165//165 53//53 
f 38//38 36//36 184//184 
f 184//184 36//36 161//161 
f 184//184 161//161 159//159 
f 51//51 40//40 54//54 
f 181//181 185//185 158//158 
f 181//181 158//158 162//162 
f 35//35 29//29 30//30 
f 33//33 30//30 55//55 
f 159//159 27//27 154//154 
f 184//184 159//159 154//154 
f 18//18 53//53 26//26 
f 24//24 53//53 18//18 
f 54//54 40//40 17//17 
f 158//158 185//185 156//156 
f 30//30 28//28 55//55 
f 56//56 156//156 185//185 
f 155//155 160//160 152//152 
f 31//31 22//22 23//23 
f 28//28 57//57 55//55 
f 17//17 15//15 54//54 
f 148//148 187//187 186//186 
f 40//40 24//24 17//17 
f 154//154 151//151 25//25 
f 157//157 188//188 189//189 
f 149//149 151//151 150//150 
f 22//22 33//33 55//55 
f 187//187 148//148 190//190 
f 153//153 19//19 20//20 
f 21//21 22//22 10//10 
f 147//147 150//150 11//11 
f 149//149 150//150 147//147 
f 148//148 58//58 190//190 
f 57//57 191//191 55//55 
f 7//7 55//55 191//191 
f 59//59 142//142 148//148 
f 11//11 140//140 147//147 
f 192//192 15//15 16//16 
f 20//20 14//14 3//3 
f 21//21 10//10 143//143 
f 22//22 5//5 10//10 
f 5//5 22//22 55//55 
f 7//7 191//191 9//9 
f 58//58 148//148 142//142 
f 20//20 16//16 18//18 
f 3//3 13//13 2//2 
f 55//55 7//7 5//5 
f 143//143 10//10 60//60 
f 144//144 193//193 145//145 
f 16//16 20//20 61//61 
f 142//142 59//59 141//141 
f 7//7 8//8 62//62 
f 146//146 194//194 63//63 
f 139//139 12//12 196//196 
f 12//12 139//139 140//140 
f 64//64 192//192 16//16 
f 20//20 3//3 65//65 
f 66//66 139//139 196//196 
f 66//66 196//196 67//67 
f 63//63 194//194 199//199 
f 195//195 141//141 197//197 
f 60//60 6//6 68//68 
f 4//4 62//62 69//69 
f 4//4 69//69 6//6 
f 198//198 70//70 1//1 
f 71//71 200//200 197//197 
f 73//73 68//68 72//72 
f 76//76 75//75 74//74 
f 65//65 3//3 77//77 
f 74//74 75//75 205//205 
f 3//3 70//70 78//78 
f 80//80 72//72 79//79 
f 72//72 68//68 79//79 
f 77//77 3//3 78//78 
f 83//83 82//82 81//81 
f 68//68 202//202 79//79 
f 202//202 84//84 79//79 
f 74//74 85//85 209//209 
f 77//77 78//78 86//86 
f 78//78 83//83 86//86 
f 88//88 81//81 87//87 
f 207//207 89//89 211//211 
f 89//89 206//206 90//90 
f 81//81 88//88 83//83 
f 91//91 86//86 83//83 
f 93//93 79//79 92//92 
f 91//91 83//83 94//94 
f 88//88 96//96 95//95 
f 213//213 214//214 97//97 
f 100//100 99//99 98//98 
f 218//218 101//101 217//217 
f 97//97 103//103 102//102 
f 83//83 104//104 94//94 
f 104//104 83//83 88//88 
f 95//95 96//96 219//219 
f 103//103 105//105 102//102 
f 220//220 222//222 92//92 
f 93//93 92//92 222//222 
f 100//100 98//98 106//106 
f 105//105 108//108 107//107 
f 101//101 222//222 224//224 
f 95//95 219//219 223//223 
f 107//107 108//108 109//109 
f 101//101 111//111 110//110 
f 95//95 223//223 112//112 
f 223//223 113//113 112//112 
f 113//113 115//115 114//114 
f 229//229 116//116 228//228 
f 117//117 112//112 114//114 
f 116//116 118//118 230//230 
f 231//231 119//119 117//117 
f 122//122 121//121 120//120 
f 124//124 237//237 123//123 
f 124//124 123//123 125//125 
f 240//240 127//127 126//126 
f 128//128 124//124 125//125 
f 116//116 130//130 129//129 
f 130//130 125//125 129//129 
f 128//128 125//125 246//246 
f 129//129 118//118 116//116 
f 132//132 243//243 131//131 
f 116//116 111//111 130//130 
f 226//226 130//130 111//111 
f 247//247 246//246 109//109 
f 247//247 109//109 133//133 
f 95//95 112//112 132//132 
f 117//117 119//119 112//112 
f 232//232 132//132 112//112 
f 119//119 231//231 233//233 
f 243//243 244//244 131//131 
f 247//247 128//128 246//246 
f 240//240 245//245 127//127 
f 125//125 123//123 129//129 
f 241//241 237//237 124//124 
f 129//129 123//123 234//234 
f 119//119 233//233 235//235 
f 239//239 122//122 120//120 
f 132//132 236//236 238//238 
f 242//242 132//132 238//238 
f 243//243 132//132 242//242 
f 132//132 232//232 236//236 
f 129//129 234//234 118//118 
f 228//228 116//116 230//230 
f 113//113 114//114 112//112 
f 131//131 95//95 132//132 
f 95//95 131//131 248//248 
f 111//111 116//116 229//229 
f 115//115 106//106 227//227 
f 133//133 109//109 134//134 
f 101//101 226//226 111//111 
f 113//113 106//106 115//115 
f 249//249 95//95 248//248 
f 110//110 111//111 229//229 
f 101//101 224//224 226//226 
f 134//134 109//109 108//108 
f 225//225 95//95 249//249 
f 225//225 88//88 95//95 
f 106//106 98//98 227//227 
f 110//110 217//217 101//101 
f 93//93 222//222 101//101 
f 108//108 105//105 103//103 
f 221//221 108//108 103//103 
f 104//104 88//88 225//225 
f 214//214 221//221 103//103 
f 214//214 103//103 97//97 
f 215//215 99//99 100//100 
f 213//213 97//97 209//209 
f 216//216 220//220 92//92 
f 79//79 216//216 92//92 
f 212//212 93//93 218//218 
f 215//215 211//211 90//90 
f 90//90 99//99 215//215 
f 218//218 93//93 101//101 
f 88//88 87//87 96//96 
f 79//79 84//84 216//216 
f 211//211 89//89 90//90 
f 80//80 79//79 93//93 
f 80//80 93//93 212//212 
f 89//89 207//207 206//206 
f 210//210 213//213 209//209 
f 210//210 209//209 85//85 
f 210//210 85//85 205//205 
f 206//206 207//207 135//135 
f 208//208 135//135 207//207 
f 82//82 83//83 78//78 
f 250//250 72//72 80//80 
f 85//85 74//74 205//205 
f 208//208 136//136 135//135 
f 203//203 65//65 77//77 
f 73//73 72//72 250//250 
f 136//136 137//137 135//135 
f 252//252 82//82 78//78 
f 6//6 202//202 68//68 
f 251//251 253//253 201//201 
f 70//70 252//252 78//78 
f 253//253 199//199 201//201 
f 65//65 203//203 138//138 
f 76//76 71//71 75//75 
f 204//204 202//202 6//6 
f 75//75 71//71 254//254 
f 137//137 66//66 67//67 
f 70//70 198//198 252//252 
f 66//66 137//137 136//136 
f 71//71 197//197 254//254 
f 200//200 71//71 76//76 
f 6//6 69//69 204//204 
f 64//64 61//61 138//138 
f 61//61 65//65 138//138 
f 3//3 1//1 70//70 
f 5//5 62//62 4//4 
f 197//197 200//200 195//195 
f 20//20 65//65 61//61 
f 199//199 194//194 201//201 
f 60//60 68//68 73//73 
f 59//59 197//197 141//141 
f 60//60 10//10 6//6 
f 5//5 7//7 62//62 
f 16//16 61//61 64//64 
