v 125.985 -134.68 884.12
v 127.113 -134.202 882.867
v 125.96 -127.213 882.571
v 125.447 -133.408 892.376
v 125.329 -127.077 879.951
v 127.78 -127.072 884.337
v 130.24 -130.561 890.856
v 125.058 -128.593 885.727
v 125.887 -131.596 890.614
v 127.488 -126.513 882.238
v 126.671 -126.587 880.756
v 125.817 -129.278 887.446
v 129.546 -134.126 882.418
v 132.254 -135.074 895.131
v 124.446 -132.043 884.262
v 129.797 -136.974 885.903
v 124.567 -127.589 881.891
v 133.76 -136.101 896.101
v 130.034 -136.192 884.78
v 123.858 -129.959 883.123
v 132.113 -137.91 897.162
v 123.063 -128.318 883.167
v 124.988 -130.244 881.196
v 123.963 -137.193 895.361
v 124.213 -129.71 881.699
v 131.506 -130.435 884.439
v 128.607 -129.784 880.345
v 129.653 -131.288 881.047
v 128.34 -127.497 885.701
v 131.393 -138.357 896.09
v 127.46 -127.517 879.54
v 124.542 -128.116 884.052
v 127.066 -131.322 880.742
v 127.229 -137.54 886.781
v 128.458 -138.319 888.625
v 127.112 -136.316 884.977
v 133.002 -136.769 893.634
v 124.003 -131.123 884.757
v 126.471 -136.854 895.48
v 130.592 -132.497 881.992
v 129.731 -129.576 889.578
v 133.194 -134.26 887.449
v 128.571 -137.627 886.799
v 126.514 -128.436 886.34
v 126.411 -127.472 884.056
v 127.499 -133.571 893.014
v 131.146 -130.251 883.288
v 130.728 -131.338 882.015
v 125.074 -138.219 892.12
v 129.05 -128.375 887.609
v 130.657 -130.272 882.256
v 132.798 -133.774 885.987
v 123.989 -135.383 889.386
v 132.991 -137.031 896.672
v 126.945 -135.24 883.914
v 129.72 -138.864 897.575
v 128.685 -134.08 893.676
v 132.306 -132.554 893.234
v 130.218 -137.741 896.763
v 124.494 -137.847 893.934
v 125.014 -134.631 885.435
v 127.043 -130.065 880.036
v 128.146 -134.037 882.372
v 129.944 -133.282 881.924
v 123.72 -130.773 886.639
v 129.824 -130.161 881.235
v 131.073 -135.301 884.438
v 129.24 -126.356 883.936
v 132.336 -135.122 886.165
v 123.505 -127.764 880.563
v 125.83 -138.532 896.687
v 123.537 -130.956 889.038
v 134.258 -135.054 895.458
v 129.114 -132.164 892.133
v 123.397 -129.899 887.357
v 129.583 -135.635 883.89
v 131.076 -137.646 889.492
v 131.136 -136.926 887.349
v 133.79 -132.934 889.676
v 132.904 -136.576 890.853
v 125.665 -130.442 889.097
v 126.087 -129.318 879.825
v 127.254 -126.198 879.327
v 127.302 -128.915 879.651
v 132.317 -136.274 888.271
v 123.619 -132.172 890.595
v 128.48 -136.617 884.992
v 124.924 -131.787 882.808
v 128.213 -127.065 880.516
v 127.88 -125.96 880.483
v 131.086 -133.854 883.145
v 127.036 -138.861 897.162
v 131.583 -129.579 887.139
v 125.025 -127.185 878.761
v 127.312 -138.951 891.791
v 128.385 -138.827 890.842
v 125.995 -132.56 882.222
v 128.453 -125.959 881.849
v 123.527 -129.758 885.135
v 133.268 -132.892 887.453
v 133.716 -135.128 890.222
v 123.159 -128.035 881.794
v 124.473 -137.593 891.205
v 130.589 -138.74 895.356
v 123.685 -132.59 890.068
v 128.399 -135.23 883.416
v 133.992 -131.737 893.029
v 133.11 -135.17 888.257
v 132.216 -132.992 884.503
v 132.669 -131.504 886.982
v 130.032 -134.871 883.221
v 126.996 -138.283 888.662
v 128.366 -138.963 897.469
v 130.395 -129.214 883.004
v 134.137 -132.714 892.145
v 133.653 -135.976 893.486
v 132.144 -137.54 893.074
v 125.829 -128.124 879.207
v 123.153 -128.885 885.085
v 132.762 -132.577 885.778
v 124.714 -137.323 889.184
v 124.332 -136.401 888.73
v 131.541 -132.417 883.181
v 131.81 -131.457 883.907
v 125.936 -136.638 886.24
v 123.917 -137.024 893.214
v 129.694 -138.97 893.556
v 128.429 -139.116 893.647
v 133.378 -135.885 890.433
v 124.457 -134.629 886.868
v 129.827 -137.809 888.03
v 125.358 -138.458 894.713
v 129.466 -132.422 881.307
v 127.132 -132.664 881.645
v 129.763 -138.575 890.762
v 126.07 -138.669 891.738
v 133.034 -130.323 891.523
v 123.473 -135.196 893.707
v 132.531 -130.195 889.568
v 125.074 -134.794 893.577
v 124.759 -137.992 896.086
v 133.485 -131.414 890.814
v 125.861 -130.695 880.867
v 131.555 -138.133 893.855
v 129.091 -127.595 881.822
v 125.95 -137.511 887.589
v 124.621 -128.943 880.404
v 130.542 -128.761 884.448
v 124.036 -132.279 886.871
v 123.568 -133.814 892.396
v 131.211 -136.225 885.941
v 134.398 -133.904 893.812
v 130.185 -127.752 885.18
v 124.077 -127.499 879.469
v 129.575 -139.029 895.878
v 124.957 -136.707 887.632
v 123.616 -135.877 892.799
v 134.217 -133.93 891.996
v 123.988 -133.55 888.406
v 123.674 -134.435 891.352
v 128.478 -128.351 880.424
v 129.563 -129.168 881.411
v 131.018 -138.545 897.477
v 134.057 -135.009 892.644
v 128.396 -131.321 880.628
v 134.478 -133.948 894.744
v 126.757 -138.928 895.813
v 125.688 -137.898 888.777
v 126.092 -138.769 893.948
v 126.853 -138.649 890.236
v 125.481 -138.188 890.222
v 132.152 -137.263 890.936
v 127.183 -139.028 893.733
v 132.121 -134.191 884.746
v 126.222 -126.717 878.661
v 132.265 -137.621 895.148
v 128.434 -132.841 881.484
v 134.4 -132.846 893.951
v 130.319 -127.346 886.659
v 128.344 -139.102 896.089
v 133.768 -134.069 889.449
v 130.95 -138.364 892.346
v 124.014 -136.527 890.631
v 123.519 -136.216 894.576
v 131.624 -128.73 889.265
v 133.76 -136.101 896.101
v 132.113 -137.91 897.162
v 123.063 -128.318 883.167
v 123.963 -137.193 895.361
v 132.991 -137.031 896.672
v 129.72 -138.864 897.575
v 129.24 -126.356 883.936
v 123.505 -127.764 880.563
v 125.83 -138.532 896.687
v 123.537 -130.956 889.038
v 134.258 -135.054 895.458
v 123.397 -129.899 887.357
v 127.254 -126.198 879.327
v 123.619 -132.172 890.595
v 127.88 -125.96 880.483
v 127.036 -138.861 897.162
v 125.025 -127.185 878.761
v 128.453 -125.959 881.849
v 123.159 -128.035 881.794
v 133.992 -131.737 893.029
v 128.366 -138.963 897.469
v 123.153 -128.885 885.085
v 133.034 -130.323 891.523
v 123.473 -135.196 893.707
v 124.759 -137.992 896.086
v 123.568 -133.814 892.396
v 124.077 -127.499 879.469
v 131.018 -138.545 897.477
v 134.478 -133.948 894.744
v 126.222 -126.717 878.661
v 134.4 -132.846 893.951
v 130.319 -127.346 886.659
v 123.519 -136.216 894.576
v 131.624 -128.73 889.265
vn -0.577369 -0.571045 -0.583569
vn -0.354384 -0.615861 -0.703653
vn -0.348495 0.91171 0.217568
vn -0.17177 0.674921 0.717619
vn -0.362986 0.930682 0.0455185
vn -0.316577 0.880445 0.352982
vn -0.207166 0.70166 0.68173
vn -0.279123 0.875375 0.394727
vn -0.204785 0.728112 0.654153
vn -0.378517 0.893918 0.240072
vn -0.394967 0.909505 0.129622
vn -0.25211 0.831071 0.495743
vn 0.170322 -0.614815 -0.77006
vn -0.141084 0.584143 0.799295
vn -0.905503 -0.335095 -0.260337
vn 0.293956 -0.851876 -0.43347
vn -0.325093 0.931589 0.162657
vn -0.127075 0.576366 0.807251
vn 0.317663 -0.775997 -0.544903
vn -0.885374 -0.413426 -0.212584
vn -0.121975 0.585457 0.801475
vn -0.288988 0.930009 0.227086
vn -0.612115 -0.544125 -0.573797
vn -0.118117 0.594493 0.795378
vn -0.763872 -0.484868 -0.425914
vn 0.86223 0.460469 -0.211013
vn 0.482487 -0.036654 -0.875136
vn 0.5196 -0.126887 -0.844935
vn -0.290504 0.850961 0.437577
vn 0.528398 -0.848517 -0.0285544
vn 0.562988 -0.0837664 -0.822209
vn -0.297783 0.913245 0.278045
vn -0.20362 -0.511706 -0.834683
vn -0.1807 -0.87071 -0.457397
vn 0.0807763 -0.951679 -0.296281
vn -0.31529 -0.73392 -0.601625
vn 0.721204 -0.689328 -0.0684963
vn -0.943093 -0.304908 -0.132694
vn -0.123149 0.615143 0.778738
vn 0.636295 -0.232881 -0.735456
vn -0.2311 0.759484 0.608093
vn 0.927889 -0.225772 -0.296732
vn 0.0838616 -0.908483 -0.409421
vn -0.276448 0.850599 0.447279
vn -0.324979 0.898078 0.296387
vn -0.175227 0.622431 0.762807
vn 0.855588 0.420761 -0.301545
vn 0.780292 0.0611311 -0.62242
vn -0.526311 -0.847605 -0.0675452
vn -0.257862 0.811509 0.524366
vn 0.816054 0.3149 -0.484659
vn 0.921556 -0.162078 -0.352797
vn -0.97574 -0.139334 -0.168869
vn -0.12497 0.584164 0.801957
vn -0.364839 -0.657732 -0.659
vn -0.10565 0.618651 0.77853
vn -0.160602 0.621749 0.766574
vn -0.188595 0.625794 0.756844
vn -0.115214 0.59813 0.793074
vn -0.699536 -0.71442 -0.0159313
vn -0.794519 -0.431201 -0.427557
vn -0.0392953 -0.411196 -0.9107
vn -0.141552 -0.620398 -0.771408
vn 0.337001 -0.496165 -0.800157
vn -0.960734 -0.262471 -0.0899992
vn 0.692165 0.171744 -0.701008
vn 0.550451 -0.631073 -0.546581
vn -0.330477 0.874747 0.354404
vn 0.788028 -0.490862 -0.371573
vn -0.319294 0.942401 0.0996527
vn -0.134753 0.611864 0.7794
vn -0.207534 0.793736 0.571762
vn -0.138633 0.560858 0.816222
vn -0.17713 0.67113 0.719868
vn -0.238026 0.840187 0.487268
vn 0.196598 -0.739894 -0.643355
vn 0.503045 -0.832547 -0.231973
vn 0.506751 -0.803356 -0.312767
vn 0.964429 0.184815 -0.189
vn 0.723668 -0.675288 -0.142447
vn -0.223205 0.787499 0.574477
vn -0.229851 -0.473474 -0.850289
vn -0.422305 0.905751 0.0357033
vn 0.274376 -0.220387 -0.936027
vn 0.685671 -0.673647 -0.27578
vn -0.18472 0.743993 0.642147
vn 0.00345178 -0.821378 -0.570373
vn -0.736923 -0.480737 -0.475223
vn 0.83028 0.211971 -0.515464
vn -0.434779 0.889152 0.142746
vn 0.644014 -0.41535 -0.64244
vn -0.136068 0.613672 0.777749
vn 0.859756 0.470585 -0.198417
vn -0.340747 0.940154 0.00154809
vn -0.106014 -0.98918 -0.101413
vn 0.0529906 -0.983964 -0.170314
vn -0.532147 -0.539037 -0.652885
vn -0.406709 0.87992 0.245619
vn -0.93093 -0.353713 -0.0908622
vn 0.96293 0.0934111 -0.253062
vn 0.92607 -0.323082 -0.194966
vn -0.308099 0.940057 0.146177
vn -0.754966 -0.644407 -0.121516
vn 0.386489 -0.921883 -0.0275314
vn -0.991332 -0.0995855 -0.0856931
vn -0.0916892 -0.704616 -0.70364
vn -0.203724 0.61249 0.763775
vn 0.862502 -0.419679 -0.28277
vn 0.88349 -0.0792264 -0.461701
vn 0.887253 0.410908 -0.209612
vn 0.29845 -0.655207 -0.693997
vn -0.157197 -0.939735 -0.303624
vn -0.11929 0.622438 0.773525
vn 0.822996 0.475379 -0.310954
vn 0.974654 0.17348 -0.141261
vn 0.837606 -0.541146 -0.0746832
vn 0.655102 -0.750064 -0.0908084
vn -0.0632026 -0.46351 -0.883835
vn -0.273711 0.897436 0.345962
vn 0.938081 0.141535 -0.316182
vn -0.737741 -0.627644 -0.248598
vn -0.903189 -0.339983 -0.262034
vn 0.83908 -0.0720971 -0.53921
vn 0.89856 0.232586 -0.372148
vn -0.527706 -0.670693 -0.521246
vn -0.893452 -0.443835 -0.068953
vn 0.230042 -0.970086 -0.0775475
vn 0.0270325 -0.998691 -0.0434159
vn 0.830205 -0.528033 -0.178722
vn -0.933075 -0.240369 -0.267569
vn 0.31586 -0.899027 -0.303286
vn -0.46431 -0.885338 0.0243264
vn 0.288226 -0.389104 -0.874942
vn -0.302706 -0.563615 -0.768575
vn 0.289947 -0.9366 -0.196751
vn -0.310443 -0.946237 -0.0908847
vn -0.222265 0.669509 0.708771
vn -0.102401 0.6567 0.747167
vn 0.852898 0.483518 -0.196914
vn -0.129277 0.657055 0.742675
vn -0.124162 0.605502 0.786099
vn 0.902828 0.392167 -0.17637
vn -0.443708 -0.534703 -0.719177
vn 0.570967 -0.818175 -0.0677241
vn 0.847314 0.364359 -0.386396
vn -0.419576 -0.806585 -0.416385
vn -0.577184 -0.546456 -0.606831
vn 0.857377 0.466867 -0.216658
vn -0.966706 -0.212082 -0.143178
vn -0.134355 0.697174 0.7042
vn 0.562181 -0.719501 -0.407763
vn 0.990417 -0.096173 -0.0991211
vn 0.876341 0.441102 -0.193533
vn -0.327451 0.944577 0.0234798
vn 0.175779 -0.984011 0.0286943
vn -0.726925 -0.557947 -0.400343
vn -0.979414 -0.171892 -0.105838
vn 0.989372 -0.0526121 -0.135555
vn -0.981672 -0.121104 -0.147151
vn -0.991691 -0.0716283 -0.106854
vn 0.711057 0.144069 -0.688216
vn 0.756748 0.321953 -0.568927
vn -0.10232 0.601284 0.792457
vn 0.946368 -0.305761 -0.104397
vn 0.128145 -0.367188 -0.921277
vn -0.14388 0.56353 0.81347
vn -0.246493 -0.967813 0.0507799
vn -0.446803 -0.840642 -0.306085
vn -0.334761 -0.942198 -0.0140976
vn -0.200787 -0.959428 -0.197944
vn -0.481314 -0.857709 -0.180757
vn 0.628108 -0.762589 -0.154722
vn -0.158144 -0.98724 -0.0186698
vn 0.805271 -0.348761 -0.479483
vn -0.395322 0.918377 -0.0174296
vn 0.66233 -0.746942 -0.058274
vn -0.0312271 -0.542553 -0.839441
vn -0.174031 0.583629 0.793153
vn -0.270692 0.830665 0.48654
vn -0.0294209 -0.997909 0.0575465
vn 0.967705 -0.134655 -0.21311
vn 0.484781 -0.865793 -0.124054
vn -0.942859 -0.302149 -0.140436
vn -0.105693 0.616573 0.780171
vn -0.2337 0.762055 0.603869
vn 0.80667 -0.588128 -0.0582238
vn 0.602013 -0.797768 -0.0338538
vn -0.90135 -0.418963 -0.109718
vn -0.820629 -0.571462 0.000108434
vn 0.716086 -0.695857 -0.0547985
vn 0.128072 -0.987846 0.0880796
vn 0.882834 0.406218 -0.235777
vn -0.688707 -0.59645 -0.412225
vn -0.381113 -0.920988 0.0808406
vn -0.979671 -0.178502 -0.0915568
vn 0.935808 -0.344519 -0.0746286
vn -0.94311 -0.322055 -0.0826125
vn 0.74375 0.0724931 -0.664515
vn -0.995466 -0.0708725 -0.0634426
vn 0.864201 0.247813 -0.437887
vn -0.175056 -0.979906 0.095596
vn -0.132831 -0.515897 -0.84629
vn 0.878176 0.316305 -0.358829
vn -0.800973 -0.504284 -0.322708
vn 0.931214 0.334957 -0.143683
vn -0.0173613 -0.994789 0.100469
vn -0.914575 -0.397051 -0.0768348
vn 0.864184 0.473285 -0.170842
vn -0.993791 -0.0642396 -0.090841
vn -0.605031 -0.794729 0.0484015
vn -0.996101 -0.0330446 -0.0817948
vn -0.447992 -0.606123 -0.657205
vn 0.370142 -0.928496 0.0298289
vn 0.988325 -0.122507 -0.0905893
vn 0.331063 -0.291916 -0.89732
vn 0.988688 0.0935081 -0.117274
vn 0.87522 0.441171 -0.198389
vn -0.958889 -0.276036 -0.0658423
vn 0.857858 0.474335 -0.1977
g grp1
usemtl mtl1
f 137//137 58//58 107//107 
f 6//6 68//68 10//10 
f 113//113 56//56 39//39 
f 175//175 5//5 83//83 
f 107//107 58//58 178//178 
f 8//8 32//32 119//119 
f 184//184 24//24 39//39 
f 70//70 102//102 17//17 
f 11//11 83//83 5//5 
f 59//59 39//39 56//56 
f 46//46 57//57 74//74 
f 14//14 59//59 21//21 
f 4//4 74//74 9//9 
f 32//32 45//45 3//3 
f 4//4 9//9 86//86 
f 41//41 81//81 9//9 
f 22//22 17//17 102//102 
f 178//178 14//14 166//166 
f 154//154 5//5 94//94 
f 98//98 90//90 10//10 
f 10//10 45//45 6//6 
f 3//3 45//45 10//10 
f 17//17 5//5 70//70 
f 32//32 8//8 45//45 
f 179//179 50//50 185//185 
f 154//154 70//70 5//5 
f 54//54 18//18 14//14 
f 57//57 140//140 39//39 
f 179//179 29//29 50//50 
f 44//44 6//6 8//8 
f 21//21 54//54 14//14 
f 44//44 8//8 12//12 
f 50//50 12//12 81//81 
f 150//150 4//4 86//86 
f 32//32 3//3 17//17 
f 17//17 3//3 11//11 
f 11//11 10//10 90//90 
f 22//22 119//119 32//32 
f 141//141 71//71 39//39 
f 9//9 7//7 41//41 
f 41//41 185//185 50//50 
f 92//92 39//39 71//71 
f 140//140 57//57 4//4 
f 113//113 39//39 92//92 
f 18//18 73//73 14//14 
f 72//72 86//86 81//81 
f 50//50 81//81 41//41 
f 184//184 39//39 138//138 
f 9//9 81//81 86//86 
f 138//138 140//140 150//150 
f 46//46 4//4 57//57 
f 14//14 178//178 58//58 
f 57//57 14//14 58//58 
f 179//179 68//68 29//29 
f 57//57 39//39 14//14 
f 98//98 10//10 68//68 
f 12//12 50//50 44//44 
f 75//75 12//12 8//8 
f 185//185 7//7 137//137 
f 74//74 4//4 46//46 
f 24//24 141//141 39//39 
f 140//140 138//138 39//39 
f 166//166 14//14 73//73 
f 137//137 7//7 58//58 
f 8//8 6//6 45//45 
f 81//81 12//12 75//75 
f 75//75 8//8 119//119 
f 7//7 9//9 74//74 
f 90//90 83//83 11//11 
f 72//72 81//81 75//75 
f 74//74 58//58 7//7 
f 3//3 10//10 11//11 
f 58//58 74//74 57//57 
f 59//59 14//14 39//39 
f 163//163 21//21 59//59 
f 68//68 6//6 29//29 
f 41//41 7//7 185//185 
f 175//175 94//94 5//5 
f 32//32 17//17 22//22 
f 11//11 5//5 17//17 
f 56//56 163//163 59//59 
f 44//44 29//29 6//6 
f 44//44 50//50 29//29 
f 140//140 4//4 150//150 
f 192//192 145//145 203//203 
f 180//180 191//191 206//206 
f 180//180 155//155 191//191 
f 145//145 148//148 114//114 
f 145//145 114//114 162//162 
f 162//162 51//51 66//66 
f 62//62 27//27 165//165 
f 62//62 165//165 33//33 
f 66//66 51//51 48//48 
f 66//66 48//48 28//28 
f 33//33 165//165 177//177 
f 33//33 177//177 134//134 
f 28//28 48//48 40//40 
f 28//28 40//40 133//133 
f 64//64 133//133 40//40 
f 134//134 177//177 63//63 
f 134//134 63//63 2//2 
f 64//64 40//40 91//91 
f 64//64 91//91 13//13 
f 2//2 63//63 106//106 
f 111//111 13//13 91//91 
f 2//2 106//106 55//55 
f 111//111 91//91 67//67 
f 111//111 67//67 76//76 
f 36//36 55//55 106//106 
f 36//36 106//106 87//87 
f 19//19 76//76 67//67 
f 19//19 67//67 151//151 
f 19//19 151//151 16//16 
f 34//34 36//36 87//87 
f 34//34 87//87 43//43 
f 16//16 78//78 131//131 
f 34//34 43//43 35//35 
f 34//34 35//35 112//112 
f 131//131 78//78 77//77 
f 112//112 35//35 96//96 
f 112//112 96//96 170//170 
f 131//131 77//77 135//135 
f 170//170 96//96 95//95 
f 95//95 96//96 128//128 
f 95//95 128//128 173//173 
f 135//135 182//182 127//127 
f 127//127 182//182 104//104 
f 173//173 128//128 180//180 
f 173//173 180//180 167//167 
f 127//127 104//104 155//155 
f 104//104 30//30 213//213 
f 176//176 187//187 30//30 
f 153//153 217//217 93//93 
f 139//139 93//93 219//219 
f 142//142 205//205 115//115 
f 208//208 205//205 142//142 
f 117//117 37//37 176//176 
f 172//172 80//80 37//37 
f 172//172 37//37 117//117 
f 135//135 77//77 182//182 
f 172//172 85//85 80//80 
f 78//78 85//85 77//77 
f 85//85 108//108 129//129 
f 85//85 129//129 80//80 
f 151//151 78//78 16//16 
f 69//69 108//108 85//85 
f 174//174 52//52 69//69 
f 40//40 123//123 91//91 
f 48//48 124//124 123//123 
f 48//48 123//123 40//40 
f 51//51 47//47 124//124 
f 51//51 124//124 48//48 
f 114//114 51//51 162//162 
f 114//114 47//47 51//51 
f 216//216 214//214 152//152 
f 152//152 196//196 164//164 
f 152//152 214//214 196//196 
f 93//93 139//139 110//110 
f 26//26 148//148 110//110 
f 26//26 110//110 124//124 
f 124//124 110//110 120//120 
f 124//124 120//120 109//109 
f 109//109 120//120 52//52 
f 109//109 52//52 174//174 
f 42//42 181//181 108//108 
f 181//181 158//158 164//164 
f 181//181 164//164 101//101 
f 129//129 116//116 80//80 
f 116//116 37//37 80//80 
f 158//158 152//152 164//164 
f 79//79 115//115 158//158 
f 79//79 158//158 181//181 
f 116//116 196//196 186//186 
f 115//115 152//152 158//158 
f 142//142 115//115 79//79 
f 116//116 164//164 196//196 
f 167//167 201//201 194//194 
f 210//210 132//132 194//194 
f 147//147 193//193 212//212 
f 204//204 193//193 147//147 
f 147//147 25//25 204//204 
f 195//195 105//105 199//199 
f 139//139 142//142 110//110 
f 100//100 79//79 181//181 
f 100//100 181//181 42//42 
f 100//100 110//110 79//79 
f 110//110 142//142 79//79 
f 195//195 159//159 105//105 
f 169//169 173//173 167//167 
f 211//211 199//199 160//160 
f 60//60 189//189 126//126 
f 60//60 210//210 189//189 
f 218//218 126//126 189//189 
f 147//147 118//118 82//82 
f 147//147 143//143 23//23 
f 23//23 143//143 88//88 
f 20//20 25//25 88//88 
f 20//20 88//88 15//15 
f 88//88 143//143 97//97 
f 88//88 97//97 1//1 
f 88//88 1//1 61//61 
f 15//15 61//61 130//130 
f 15//15 130//130 149//149 
f 61//61 1//1 125//125 
f 61//61 125//125 156//156 
f 130//130 156//156 122//122 
f 130//130 122//122 53//53 
f 156//156 125//125 146//146 
f 156//156 146//146 168//168 
f 156//156 168//168 121//121 
f 121//121 168//168 171//171 
f 121//121 171//171 103//103 
f 53//53 183//183 160//160 
f 159//159 130//130 53//53 
f 65//65 195//195 197//197 
f 99//99 65//65 197//197 
f 204//204 20//20 188//188 
f 188//188 99//99 207//207 
f 103//103 49//49 60//60 
f 136//136 95//95 173//173 
f 136//136 173//173 169//169 
f 136//136 171//171 170//170 
f 136//136 170//170 95//95 
f 82//82 143//143 147//147 
f 84//84 161//161 27//27 
f 84//84 27//27 62//62 
f 31//31 89//89 161//161 
f 31//31 161//161 84//84 
f 188//188 20//20 99//99 
f 207//207 99//99 197//197 
f 211//211 160//160 209//209 
f 157//157 209//209 160//160 
f 118//118 31//31 84//84 
f 118//118 84//84 82//82 
f 82//82 84//84 62//62 
f 82//82 62//62 143//143 
f 143//143 62//62 33//33 
f 143//143 33//33 134//134 
f 143//143 134//134 97//97 
f 97//97 134//134 2//2 
f 97//97 2//2 1//1 
f 1//1 2//2 55//55 
f 1//1 55//55 36//36 
f 1//1 36//36 125//125 
f 125//125 36//36 34//34 
f 125//125 34//34 146//146 
f 146//146 34//34 112//112 
f 146//146 112//112 168//168 
f 168//168 112//112 170//170 
f 168//168 170//170 171//171 
f 103//103 171//171 49//49 
f 136//136 49//49 171//171 
f 136//136 169//169 49//49 
f 169//169 167//167 132//132 
f 169//169 132//132 49//49 
f 60//60 49//49 132//132 
f 157//157 218//218 209//209 
f 215//215 31//31 118//118 
f 215//215 198//198 31//31 
f 200//200 89//89 198//198 
f 149//149 130//130 159//159 
f 38//38 15//15 149//149 
f 38//38 149//149 65//65 
f 99//99 38//38 65//65 
f 20//20 15//15 38//38 
f 20//20 38//38 99//99 
f 31//31 198//198 89//89 
f 157//157 126//126 218//218 
f 195//195 149//149 159//159 
f 195//195 65//65 149//149 
f 105//105 160//160 199//199 
f 204//204 25//25 20//20 
f 147//147 212//212 118//118 
f 202//202 118//118 212//212 
f 202//202 215//215 118//118 
f 103//103 60//60 126//126 
f 103//103 126//126 183//183 
f 157//157 160//160 183//183 
f 157//157 183//183 126//126 
f 60//60 132//132 210//210 
f 167//167 194//194 132//132 
f 219//219 208//208 139//139 
f 139//139 208//208 142//142 
f 159//159 160//160 105//105 
f 159//159 53//53 160//160 
f 53//53 122//122 183//183 
f 121//121 103//103 183//183 
f 121//121 183//183 122//122 
f 156//156 121//121 122//122 
f 61//61 156//156 130//130 
f 88//88 61//61 15//15 
f 23//23 88//88 25//25 
f 147//147 23//23 25//25 
f 192//192 217//217 153//153 
f 192//192 153//153 148//148 
f 186//186 190//190 37//37 
f 116//116 186//186 37//37 
f 205//205 216//216 115//115 
f 115//115 216//216 152//152 
f 217//217 219//219 93//93 
f 176//176 190//190 187//187 
f 176//176 37//37 190//190 
f 129//129 101//101 164//164 
f 129//129 164//164 116//116 
f 129//129 108//108 101//101 
f 108//108 181//181 101//101 
f 42//42 108//108 69//69 
f 42//42 69//69 52//52 
f 100//100 42//42 52//52 
f 100//100 52//52 120//120 
f 100//100 120//120 110//110 
f 148//148 93//93 110//110 
f 187//187 213//213 30//30 
f 155//155 213//213 191//191 
f 155//155 104//104 213//213 
f 153//153 93//93 148//148 
f 114//114 148//148 26//26 
f 114//114 26//26 47//47 
f 26//26 124//124 47//47 
f 124//124 109//109 123//123 
f 109//109 174//174 91//91 
f 109//109 91//91 123//123 
f 91//91 174//174 67//67 
f 174//174 69//69 67//67 
f 67//67 69//69 151//151 
f 151//151 69//69 85//85 
f 151//151 85//85 78//78 
f 77//77 85//85 172//172 
f 77//77 172//172 182//182 
f 182//182 172//172 117//117 
f 182//182 117//117 144//144 
f 182//182 144//144 104//104 
f 117//117 176//176 144//144 
f 201//201 180//180 206//206 
f 176//176 30//30 144//144 
f 104//104 144//144 30//30 
f 167//167 180//180 201//201 
f 89//89 203//203 145//145 
f 192//192 148//148 145//145 
f 128//128 127//127 155//155 
f 128//128 155//155 180//180 
f 96//96 135//135 127//127 
f 96//96 127//127 128//128 
f 35//35 131//131 135//135 
f 35//35 135//135 96//96 
f 43//43 131//131 35//35 
f 43//43 16//16 131//131 
f 43//43 87//87 16//16 
f 87//87 19//19 16//16 
f 87//87 106//106 76//76 
f 87//87 76//76 19//19 
f 106//106 111//111 76//76 
f 106//106 63//63 13//13 
f 106//106 13//13 111//111 
f 177//177 64//64 13//13 
f 177//177 13//13 63//63 
f 177//177 133//133 64//64 
f 165//165 28//28 133//133 
f 165//165 133//133 177//177 
f 27//27 66//66 28//28 
f 27//27 28//28 165//165 
f 27//27 161//161 162//162 
f 27//27 162//162 66//66 
f 145//145 162//162 161//161 
f 145//145 161//161 89//89 
f 200//200 203//203 89//89 
