v 104.745 -113.472 848.803
v 103.194 -111.853 844.781
v 110.743 -107.687 849.616
v 106.094 -113.775 851.24
v 109.463 -102.948 847.327
v 107.453 -101.899 842.014
v 106 -108.566 841.438
v 106.128 -109.704 842.569
v 106.76 -103.827 845.383
v 99.8205 -109.406 846.155
v 104.551 -110.191 842.345
v 110.728 -110.539 851.28
v 110.617 -109.558 849.927
v 105.834 -110.109 850.549
v 99.8417 -112.25 848.702
v 108.3 -103.191 843.67
v 101.26 -113.078 849.731
v 100.488 -110.379 848.169
v 99.0991 -111.293 846.444
v 107.279 -110.052 843.897
v 106.004 -111.274 844.463
v 111.362 -109.634 852.435
v 108.547 -111.495 847.294
v 106.783 -107.419 841.423
v 98.3387 -110.912 846.963
v 105.845 -112.691 846.802
v 100.709 -112.865 850.85
v 98.2106 -108.844 842.048
v 110.107 -108.048 847.639
v 109.455 -104.955 848.821
v 104.057 -109.949 849.809
v 107.356 -111.549 845.896
v 103.93 -112.515 851.571
v 104.287 -112.827 846.651
v 110.332 -111.98 853.073
v 106.089 -104.038 840.074
v 103.301 -105.578 843.57
v 107.353 -104.233 846.572
v 105.373 -114.021 852.945
v 98.8349 -110.458 844.679
v 101.122 -109.015 840.691
v 104.464 -103.786 838.578
v 102.788 -113.741 852.137
v 107.273 -108.585 842.572
v 100.908 -106.984 842.159
v 110.19 -109.228 851.628
v 99.3534 -107.703 839.68
v 107.032 -105.998 841.325
v 106.087 -113.353 848.9
v 100.463 -107.995 844.309
v 107.359 -112.739 848.029
v 108.351 -109.336 844.607
v 109.074 -107.409 844.731
v 104.931 -107.222 847.907
v 102.419 -113.544 850.436
v 105.795 -103.838 843.971
v 104.703 -113.896 851.327
v 109.155 -106.147 844.687
v 102.757 -109.005 840.546
v 102.271 -105.615 839.962
v 109.115 -105.05 844.783
v 107.372 -107.235 849.146
v 103.456 -113.676 850.168
v 103.155 -113.007 847.366
v 101.914 -107.865 839.423
v 109.857 -111.579 850.323
v 108.601 -112.595 849.631
v 109 -112.791 851.587
v 110.489 -104.683 849.576
v 111.223 -107.01 851.3
v 108.301 -110.203 851.378
v 100.1 -109.467 841.77
v 99.647 -110.386 843.709
v 105.531 -103.465 841.984
v 104.563 -111.684 844.533
v 100.688 -112.549 847.899
v 97.9961 -109.872 844.578
v 106.091 -102.735 839.683
v 103.208 -107.379 846.758
v 99.2242 -111.887 849.112
v 105.175 -105.923 839.769
v 105.282 -107.418 840.347
v 100.841 -106.593 838.397
v 108.081 -113.503 853.264
v 102.086 -113.113 848.331
v 107.29 -103.951 841.594
v 108.182 -104.741 847.734
v 107.438 -113.316 850.344
v 104.061 -108.5 840.404
v 109.453 -110.178 847.368
v 109.764 -104.371 847.244
v 102.635 -105.14 838.167
v 109.301 -108.858 845.988
v 103.611 -106.181 845.391
v 101.417 -111.79 850.143
v 108.073 -106.669 842.73
v 109.621 -106.593 849.906
v 103.142 -106.76 839.013
v 103.011 -109.453 848.902
v 102.382 -110.199 842.19
v 108.421 -101.979 844.717
v 101.681 -111.513 844.605
v 108.244 -104.496 842.916
v 110.25 -106.228 847.972
v 101.205 -112.361 846.691
v 109.463 -102.948 847.327
v 107.453 -101.899 842.014
v 111.362 -109.634 852.435
v 98.3387 -110.912 846.963
v 100.709 -112.865 850.85
v 98.2106 -108.844 842.048
v 110.332 -111.98 853.073
v 105.373 -114.021 852.945
v 104.464 -103.786 838.578
v 102.788 -113.741 852.137
v 99.3534 -107.703 839.68
v 110.489 -104.683 849.576
v 111.223 -107.01 851.3
v 97.9961 -109.872 844.578
v 106.091 -102.735 839.683
v 99.2242 -111.887 849.112
v 100.841 -106.593 838.397
v 108.081 -113.503 853.264
v 102.635 -105.14 838.167
v 108.421 -101.979 844.717
vn 0.0380121 -0.97153 -0.233848
vn -0.0747065 -0.880899 -0.467371
vn 0.957811 -0.058082 -0.281469
vn 0.152459 -0.979222 -0.133716
vn -0.561164 0.554246 0.614741
vn -0.619124 0.763142 0.185202
vn 0.490945 -0.502691 -0.711531
vn 0.418063 -0.653748 -0.630743
vn -0.549638 0.704255 0.449358
vn -0.51881 0.731271 0.442807
vn 0.186862 -0.769803 -0.610316
vn 0.879359 -0.404061 -0.251917
vn 0.915074 -0.25452 -0.312825
vn -0.265146 0.540298 0.798608
vn -0.503973 -0.855099 -0.121724
vn 0.912421 0.17908 -0.367992
vn -0.37696 -0.921721 -0.0912723
vn -0.439621 0.686184 0.579556
vn -0.46751 -0.838196 -0.280822
vn 0.563398 -0.614804 -0.551905
vn 0.324483 -0.776213 -0.540559
vn -0.436827 0.369445 0.820178
vn 0.663169 -0.628129 -0.407015
vn 0.646639 -0.280578 -0.709319
vn -0.490408 0.730263 0.475621
vn 0.210744 -0.889118 -0.406271
vn -0.27206 0.62864 0.728556
vn -0.563696 0.797334 0.215651
vn 0.935826 -0.123711 -0.330039
vn -0.564829 0.455162 0.688328
vn -0.305147 0.570956 0.762165
vn 0.4993 -0.71838 -0.484386
vn -0.23816 0.55826 0.794749
vn 0.0240153 -0.921206 -0.388333
vn -0.338552 0.441966 0.830692
vn 0.700656 -0.160763 -0.695152
vn -0.585119 0.774561 0.24019
vn -0.520648 0.647882 0.556035
vn -0.196905 0.55108 0.810888
vn -0.448473 -0.819491 -0.3568
vn -0.130744 -0.7743 -0.619165
vn -0.599095 0.794362 0.100369
vn -0.215485 0.567458 0.794706
vn 0.66473 -0.435764 -0.60683
vn -0.581997 0.792621 0.181743
vn -0.422847 0.400221 0.813034
vn -0.579235 0.809783 0.0934733
vn 0.723737 -0.11274 -0.680804
vn 0.186751 -0.951385 -0.244929
vn -0.563236 0.76501 0.312291
vn 0.395131 -0.852161 -0.343065
vn 0.75992 -0.422071 -0.494346
vn 0.882759 -0.175514 -0.435811
vn -0.422162 0.632463 0.649438
vn -0.241506 -0.964246 -0.109106
vn -0.587171 0.750305 0.303765
vn -0.0142066 -0.99385 -0.109816
vn 0.92077 -0.010009 -0.389979
vn 0.0614706 -0.743549 -0.66585
vn -0.597449 0.796125 0.0961204
vn 0.931573 0.133305 -0.338232
vn -0.345627 0.55082 0.759697
vn -0.105427 -0.982083 -0.1562
vn -0.120018 -0.938349 -0.324185
vn 0.0460734 -0.640755 -0.766361
vn 0.780524 -0.556227 -0.285294
vn 0.563445 -0.782617 -0.264652
vn 0.560744 -0.81189 -0.162485
vn -0.585849 0.418911 0.693754
vn -0.520232 0.360689 0.77412
vn -0.29578 0.488255 0.821049
vn -0.257905 -0.819641 -0.511541
vn -0.341488 -0.844729 -0.412092
vn -0.602327 0.781095 0.164599
vn 0.102644 -0.850309 -0.516177
vn -0.389125 -0.896039 -0.213764
vn -0.544594 0.76022 0.354235
vn -0.605491 0.788938 0.104676
vn -0.496396 0.693281 0.522448
vn -0.383361 0.69092 0.612914
vn 0.543126 -0.2489 -0.801912
vn 0.463864 -0.379253 -0.800623
vn -0.602616 0.796276 0.0529061
vn -0.229306 0.512203 0.827688
vn -0.229468 -0.948849 -0.216864
vn 0.829952 0.0105145 -0.557736
vn -0.47699 0.539554 0.693803
vn 0.336538 -0.92368 -0.183189
vn 0.286861 -0.598124 -0.748304
vn 0.848055 -0.374956 -0.374447
vn 0.939241 0.185726 -0.288672
vn -0.613222 0.785516 0.0832145
vn 0.8756 -0.265362 -0.403618
vn -0.542526 0.731767 0.412532
vn -0.326541 0.632187 0.702645
vn 0.818496 -0.143966 -0.556181
vn -0.490068 0.437077 0.754186
vn 0.312087 -0.423335 -0.850523
vn -0.375536 0.621654 0.6874
vn -0.062787 -0.83519 -0.546366
vn -0.585787 0.699984 0.408504
vn -0.197767 -0.870169 -0.451326
vn 0.876443 0.0917124 -0.472691
vn 0.954871 0.0610225 -0.290685
vn -0.289587 -0.891955 -0.34721
vn 0.934506 0.200684 -0.293981
vn 0.898851 0.0824823 -0.430422
vn 0.943046 -0.224192 -0.245767
vn -0.557434 -0.80822 -0.189863
vn -0.458851 -0.88777 -0.0363413
vn -0.398842 -0.802398 -0.443939
vn 0.757725 -0.631983 -0.162635
vn 0.0597654 -0.99582 -0.0690657
vn 0.577948 -0.249427 -0.777021
vn -0.219996 -0.974363 -0.0471036
vn -0.207069 -0.740886 -0.638914
vn 0.951448 0.156851 -0.264849
vn 0.964742 0.0225353 -0.26223
vn -0.532481 -0.788845 -0.3069
vn 0.769611 -0.12412 -0.626333
vn -0.545756 -0.83369 -0.0843284
vn 0.0952231 -0.543662 -0.833885
vn 0.36005 -0.928142 -0.0944219
vn 0.362327 -0.345817 -0.865523
vn 0.930747 0.18125 -0.317583
g grp1
usemtl mtl1
f 27//27 95//95 80//80 
f 71//71 35//35 46//46 
f 83//83 47//47 60//60 
f 50//50 77//77 10//10 
f 101//101 38//38 5//5 
f 43//43 39//39 33//33 
f 97//97 71//71 46//46 
f 47//47 28//28 45//45 
f 10//10 25//25 18//18 
f 62//62 71//71 97//97 
f 94//94 79//79 9//9 
f 37//37 56//56 74//74 
f 37//37 45//45 50//50 
f 54//54 18//18 99//99 
f 56//56 9//9 101//101 
f 74//74 56//56 6//6 
f 62//62 99//99 31//31 
f 95//95 31//31 99//99 
f 95//95 27//27 33//33 
f 101//101 6//6 56//56 
f 74//74 45//45 37//37 
f 60//60 45//45 74//74 
f 18//18 80//80 95//95 
f 50//50 56//56 37//37 
f 94//94 50//50 10//10 
f 14//14 62//62 31//31 
f 38//38 9//9 79//79 
f 62//62 54//54 99//99 
f 30//30 87//87 97//97 
f 25//25 10//10 77//77 
f 54//54 62//62 87//87 
f 45//45 60//60 47//47 
f 46//46 70//70 97//97 
f 10//10 18//18 79//79 
f 43//43 33//33 27//27 
f 9//9 38//38 101//101 
f 60//60 78//78 42//42 
f 33//33 14//14 31//31 
f 94//94 9//9 56//56 
f 97//97 87//87 62//62 
f 69//69 5//5 30//30 
f 45//45 28//28 50//50 
f 54//54 79//79 18//18 
f 70//70 46//46 22//22 
f 71//71 62//62 14//14 
f 74//74 78//78 60//60 
f 83//83 60//60 92//92 
f 79//79 94//94 10//10 
f 42//42 92//92 60//60 
f 94//94 56//56 50//50 
f 22//22 46//46 35//35 
f 87//87 30//30 5//5 
f 69//69 97//97 70//70 
f 38//38 79//79 54//54 
f 97//97 69//69 30//30 
f 35//35 71//71 84//84 
f 77//77 50//50 28//28 
f 33//33 84//84 71//71 
f 95//95 99//99 18//18 
f 95//95 33//33 31//31 
f 6//6 78//78 74//74 
f 39//39 84//84 33//33 
f 80//80 18//18 25//25 
f 14//14 33//33 71//71 
f 54//54 87//87 38//38 
f 38//38 87//87 5//5 
f 19//19 15//15 109//109 
f 116//116 41//41 72//72 
f 116//116 65//65 41//41 
f 116//116 122//122 65//65 
f 19//19 105//105 76//76 
f 19//19 76//76 15//15 
f 105//105 73//73 102//102 
f 111//111 40//40 119//119 
f 111//111 73//73 40//40 
f 72//72 100//100 102//102 
f 72//72 102//102 73//73 
f 115//115 57//57 113//113 
f 41//41 100//100 72//72 
f 41//41 59//59 100//100 
f 63//63 57//57 115//115 
f 124//124 81//81 98//98 
f 65//65 59//59 41//41 
f 124//124 114//114 81//81 
f 4//4 123//123 113//113 
f 4//4 88//88 123//123 
f 68//68 112//112 123//123 
f 66//66 112//112 68//68 
f 1//1 49//49 4//4 
f 1//1 4//4 57//57 
f 85//85 64//64 63//63 
f 85//85 63//63 55//55 
f 85//85 105//105 64//64 
f 1//1 34//34 26//26 
f 1//1 26//26 49//49 
f 76//76 17//17 15//15 
f 12//12 112//112 66//66 
f 85//85 55//55 17//17 
f 85//85 17//17 76//76 
f 85//85 76//76 105//105 
f 102//102 2//2 64//64 
f 102//102 64//64 105//105 
f 75//75 21//21 26//26 
f 75//75 26//26 34//34 
f 100//100 2//2 102//102 
f 11//11 8//8 21//21 
f 11//11 21//21 75//75 
f 89//89 7//7 8//8 
f 89//89 8//8 11//11 
f 82//82 7//7 89//89 
f 65//65 89//89 59//59 
f 98//98 89//89 65//65 
f 13//13 108//108 12//12 
f 3//3 108//108 13//13 
f 3//3 118//118 108//108 
f 120//120 86//86 36//36 
f 24//24 44//44 7//7 
f 44//44 20//20 8//8 
f 20//20 52//52 32//32 
f 32//32 23//23 51//51 
f 51//51 67//67 88//88 
f 88//88 67//67 68//68 
f 120//120 107//107 86//86 
f 16//16 86//86 107//107 
f 23//23 67//67 51//51 
f 90//90 13//13 66//66 
f 32//32 52//52 23//23 
f 52//52 90//90 23//23 
f 93//93 29//29 90//90 
f 53//53 29//29 93//93 
f 96//96 53//53 52//52 
f 96//96 58//58 53//53 
f 103//103 61//61 58//58 
f 103//103 58//58 96//96 
f 103//103 16//16 61//61 
f 117//117 104//104 91//91 
f 117//117 118//118 104//104 
f 104//104 118//118 3//3 
f 61//61 16//16 91//91 
f 61//61 91//91 104//104 
f 61//61 104//104 58//58 
f 58//58 104//104 29//29 
f 58//58 29//29 53//53 
f 3//3 13//13 29//29 
f 106//106 117//117 91//91 
f 106//106 91//91 16//16 
f 107//107 125//125 16//16 
f 106//106 16//16 125//125 
f 16//16 103//103 86//86 
f 44//44 52//52 20//20 
f 96//96 52//52 44//44 
f 24//24 96//96 44//44 
f 48//48 96//96 24//24 
f 86//86 103//103 96//96 
f 86//86 96//96 48//48 
f 88//88 68//68 123//123 
f 114//114 120//120 36//36 
f 114//114 36//36 81//81 
f 17//17 115//115 110//110 
f 12//12 66//66 13//13 
f 29//29 13//13 90//90 
f 104//104 3//3 29//29 
f 17//17 55//55 115//115 
f 17//17 110//110 15//15 
f 53//53 93//93 52//52 
f 93//93 90//90 52//52 
f 90//90 66//66 23//23 
f 23//23 66//66 67//67 
f 66//66 68//68 67//67 
f 55//55 63//63 115//115 
f 57//57 4//4 113//113 
f 49//49 88//88 4//4 
f 49//49 51//51 88//88 
f 49//49 26//26 51//51 
f 26//26 32//32 51//51 
f 21//21 32//32 26//26 
f 21//21 20//20 32//32 
f 8//8 20//20 21//21 
f 7//7 44//44 8//8 
f 82//82 24//24 7//7 
f 81//81 48//48 24//24 
f 81//81 24//24 82//82 
f 36//36 86//86 48//48 
f 36//36 48//48 81//81 
f 12//12 108//108 112//112 
f 122//122 124//124 98//98 
f 65//65 122//122 98//98 
f 116//116 72//72 111//111 
f 98//98 81//81 82//82 
f 98//98 82//82 89//89 
f 59//59 89//89 11//11 
f 59//59 11//11 100//100 
f 100//100 11//11 75//75 
f 100//100 75//75 2//2 
f 2//2 75//75 34//34 
f 2//2 34//34 64//64 
f 64//64 34//34 1//1 
f 64//64 1//1 63//63 
f 63//63 1//1 57//57 
f 111//111 72//72 73//73 
f 119//119 19//19 109//109 
f 119//119 40//40 19//19 
f 15//15 121//121 109//109 
f 19//19 40//40 73//73 
f 19//19 73//73 105//105 
f 121//121 15//15 110//110 
