v 120.13 -50.4576 779.394
v 117.959 -51.3807 768.417
v 120.143 -53.645 759.373
v 118.891 -52.1777 764.596
v 121.975 -51.8892 764.414
v 117.041 -52.8502 779.99
v 115.496 -53.7962 777.169
v 115.854 -53.6852 778.568
v 115.199 -53.772 775.664
v 117.935 -50.4458 773.842
v 116.633 -51.2673 772.812
v 114.989 -53.4986 772.421
v 119.038 -51.5525 781.022
v 116.895 -52.2154 767.226
v 117.4 -51.7011 778.168
v 115.095 -53.6766 774.066
v 121.647 -49.7781 772.12
v 120.159 -50.8041 780.637
v 116.683 -51.2712 774.352
v 120.459 -50.1561 770.509
v 124.324 -50.0217 772.357
v 119.207 -50.8835 779.198
v 124.493 -51.0074 768.354
v 124.48 -50.5097 770.327
v 124.562 -51.5208 766.577
v 122.251 -52.9906 761.063
v 119.231 -50.6498 769.345
v 119.164 -51.5711 766.268
v 125.449 -49.7554 775.87
v 116.92 -53.3492 762.58
v 116.408 -53.4538 779.782
v 125.733 -49.9353 774.489
v 123.488 -49.8284 779.704
v 117.321 -52.7734 764.246
v 121.852 -50.2463 770.08
v 125.584 -51.5073 767.609
v 125.742 -51.1544 769.043
v 124.354 -53.0454 761.626
v 124.79 -52.6481 763.079
v 125.905 -50.4863 771.777
v 125.181 -49.9407 773.506
v 124.96 -49.6796 775.169
v 124.991 -49.6727 777.234
v 124.336 -49.7056 778.531
v 125.853 -50.8127 770.425
v 120.23 -53.9171 758.471
v 124.088 -49.5344 775.757
v 125.873 -50.1919 773.125
v 121.921 -50.7503 768.224
v 116.637 -51.4425 770.997
v 119.288 -53.4956 760.215
v 118.74 -50.3407 776.83
v 124.127 -49.6702 774.17
v 118.402 -53.7225 760.05
v 117.618 -53.5574 761.229
v 117.689 -52.2068 765.831
v 115.81 -53.0975 765.676
v 119.249 -51.0607 767.812
v 119.574 -53.0371 761.557
v 121.015 -52.7799 761.715
v 121.143 -53.676 759.051
v 121.23 -53.9344 758.278
v 122.222 -53.4741 759.696
v 123.426 -51.6184 765.455
v 123.279 -51.0502 767.344
v 120.576 -50.5774 768.851
v 123.104 -50.0854 771.216
v 123.029 -49.4447 775.073
v 120.587 -49.5637 774.878
v 122.699 -49.7528 779.053
v 121.278 -49.7537 778.104
v 121.294 -50.4875 781.433
v 123.072 -53.6936 759.239
v 123.781 -53.4145 760.326
v 121.327 -50.1545 779.932
v 120.275 -49.7477 776.646
v 120.766 -49.6293 773.367
v 123.201 -50.5634 769.255
v 123.515 -52.1893 763.663
v 122.2 -53.8754 758.543
v 116.324 -53.2043 764.082
v 120.48 -51.6926 765.31
v 125.119 -52.263 764.601
v 119.278 -53.8388 759.113
v 121.889 -49.4808 774.199
v 118.428 -52.8508 762.879
v 117.099 -53.0678 780.789
v 121.713 -49.4382 776.015
v 117.952 -52.4845 781.486
v 119.76 -50.2313 778.217
v 115.631 -52.3713 770.341
v 125.377 -51.8817 766.124
v 122.108 -52.457 762.652
v 118.186 -51.6797 767.104
v 120.347 -52.3692 763.266
v 120.803 -53.2742 760.313
v 123.488 -52.7603 762.028
v 120.567 -51.1001 767.144
v 123.039 -49.6693 773.181
v 123.186 -49.4616 777.125
v 122.455 -50.0752 780.688
v 116.217 -52.5661 777.367
v 116.252 -51.9124 775.675
v 115.561 -52.4612 773.854
v 115.531 -52.3011 771.874
v 115.007 -53.3141 770.738
v 116.433 -52.0017 769.05
v 119.194 -50.3422 770.722
v 119.451 -49.8654 773.537
v 118.043 -51.9852 780.136
v 119.096 -49.9813 775.213
v 117.579 -50.7508 775.513
v 117.331 -51.2732 777.006
v 118.469 -50.978 778.172
v 120.109 -51.1172 781.811
v 119.119 -51.1921 779.966
v 118.211 -51.523 779.131
v 115.136 -53.1521 769.034
v 118.967 -51.8035 781.834
v 120 -49.9217 772.015
v 118.255 -50.4437 771.929
v 115.404 -53.0646 767.334
v 117.91 -50.9539 770.057
v 121.947 -51.3083 766.303
v 117.086 -52.3803 778.937
vn -0.388492 0.883135 0.262959
vn -0.386085 0.888866 -0.246689
vn -0.101049 0.948761 -0.299404
vn -0.225622 0.928701 -0.294294
vn -0.0107622 0.953075 -0.302544
vn -0.690413 0.683237 0.237733
vn -0.861214 0.475286 0.180037
vn -0.764802 0.597333 0.241394
vn -0.877556 0.454563 0.152536
vn -0.458304 0.888786 -0.00415155
vn -0.607852 0.79376 -0.0214823
vn -0.910285 0.409333 0.0618734
vn -0.530957 0.817182 0.224274
vn -0.437444 0.873243 -0.214683
vn -0.610542 0.72461 0.319655
vn -0.92443 0.370341 0.0909735
vn -1.28952e-05 0.983229 -0.182373
vn -0.430683 0.872856 0.22942
vn -0.644757 0.761642 0.0647259
vn -0.098979 0.970217 -0.221091
vn 0.165649 0.965763 -0.199654
vn -0.49131 0.822179 0.287463
vn 0.209471 0.945404 -0.249666
vn 0.190547 0.954259 -0.230394
vn 0.225 0.935529 -0.272324
vn 0.0379335 0.943542 -0.329073
vn -0.247557 0.938506 -0.240671
vn -0.228863 0.929187 -0.290229
vn 0.208128 0.977301 -0.0395625
vn -0.288049 0.923244 -0.254259
vn -0.710033 0.670934 0.213776
vn 0.242851 0.963013 -0.116746
vn -0.0262125 0.988823 0.146773
vn -0.326258 0.914413 -0.239594
vn 0.0346017 0.970072 -0.240341
vn 0.254181 0.93087 -0.262439
vn 0.150335 0.957902 -0.244588
vn 0.159674 0.93421 -0.318991
vn 0.186171 0.933969 -0.305029
vn 0.149086 0.963276 -0.223321
vn 0.203254 0.964777 -0.167013
vn 0.177976 0.981507 -0.0704813
vn 0.136959 0.990305 0.0231794
vn 0.0460031 0.992318 0.114846
vn -0.131961 0.964682 -0.22798
vn -0.0778129 0.949392 -0.304303
vn 0.120977 0.992236 -0.0288475
vn 0.248121 0.952365 -0.177305
vn 0.019693 0.962798 -0.269502
vn -0.557186 0.820868 -0.125381
vn -0.157822 0.945288 -0.285522
vn -0.440637 0.87521 0.199617
vn 0.136512 0.982577 -0.126123
vn -0.190193 0.94215 -0.276008
vn -0.211789 0.9367 -0.278817
vn -0.352915 0.90339 -0.243593
vn -0.417689 0.888128 -0.191739
vn -0.237735 0.931391 -0.275669
vn -0.161123 0.941015 -0.29754
vn -0.0674789 0.948587 -0.30924
vn -0.0224124 0.949218 -0.31382
vn -0.00885891 0.948182 -0.317604
vn 0.0433965 0.945908 -0.32152
vn 0.119169 0.94982 -0.289207
vn 0.110491 0.958116 -0.264207
vn -0.0724952 0.960759 -0.267744
vn 0.11318 0.969631 -0.216811
vn 0.0638694 0.996429 -0.0552217
vn -0.177634 0.984094 -0.0024167
vn -0.0737063 0.984398 0.159774
vn -0.194717 0.963984 0.181162
vn -0.333021 0.919848 0.207308
vn 0.0754622 0.94635 -0.31421
vn 0.107584 0.938842 -0.327109
vn -0.266086 0.940946 0.209329
vn -0.261001 0.957314 0.124215
vn -0.113947 0.98776 -0.106514
vn 0.1142 0.963958 -0.240298
vn 0.1232 0.943965 -0.306188
vn 0.0380614 0.945279 -0.324034
vn -0.35999 0.91046 -0.203641
vn -0.096889 0.947471 -0.304813
vn 0.221064 0.932938 -0.284178
vn -0.144329 0.9448 -0.294145
vn -0.0201126 0.996148 -0.0853464
vn -0.223307 0.931252 -0.28793
vn -0.69216 0.682011 0.236169
vn -0.0848399 0.995381 0.044924
vn -0.622751 0.748926 0.226477
vn -0.388571 0.88607 0.252769
vn -0.727948 0.677494 -0.105323
vn 0.258913 0.926605 -0.272703
vn 0.00779973 0.951098 -0.308791
vn -0.35749 0.897911 -0.256821
vn -0.115043 0.946318 -0.302072
vn -0.0672385 0.947376 -0.312982
vn 0.120485 0.937874 -0.325387
vn -0.07624 0.952235 -0.295697
vn 0.0954645 0.982565 -0.159536
vn 0.0244901 0.996834 0.075649
vn -0.148115 0.971303 0.186099
vn -0.775974 0.581321 0.244806
vn -0.747978 0.642488 0.166546
vn -0.839887 0.536136 0.0845513
vn -0.791595 0.610904 -0.0131897
vn -0.864582 0.502175 -0.0178336
vn -0.544406 0.818052 -0.185507
vn -0.260915 0.945917 -0.19278
vn -0.275409 0.95937 -0.0613134
vn -0.597844 0.760937 0.252106
vn -0.351863 0.934142 0.0597678
vn -0.539434 0.833115 0.122191
vn -0.601064 0.758635 0.251387
vn -0.512559 0.80535 0.297817
vn -0.465944 0.858684 0.213445
vn -0.505871 0.822769 0.259126
vn -0.560325 0.77387 0.295232
vn -0.723337 0.684463 -0.0910699
vn -0.546292 0.812686 0.202745
vn -0.179006 0.971596 -0.154786
vn -0.386207 0.914469 -0.120792
vn -0.554735 0.819544 -0.143585
vn -0.398803 0.893357 -0.207051
vn -0.00293377 0.957175 -0.289494
vn -0.672854 0.676409 0.299564
g grp1
usemtl mtl1
f 92//92 83//83 25//25 
f 2//2 27//27 58//58 
f 95//95 93//93 60//60 
f 97//97 93//93 79//79 
f 64//64 83//83 79//79 
f 6//6 89//89 110//110 
f 104//104 103//103 19//19 
f 122//122 107//107 14//14 
f 114//114 117//117 22//22 
f 71//71 1//1 75//75 
f 122//122 14//14 57//57 
f 2//2 107//107 123//123 
f 2//2 123//123 27//27 
f 51//51 3//3 84//84 
f 98//98 124//124 82//82 
f 64//64 124//124 65//65 
f 114//114 52//52 113//113 
f 79//79 5//5 64//64 
f 82//82 28//28 98//98 
f 11//11 50//50 105//105 
f 121//121 123//123 50//50 
f 110//110 125//125 6//6 
f 82//82 95//95 4//4 
f 51//51 96//96 3//3 
f 56//56 4//4 34//34 
f 1//1 22//22 116//116 
f 110//110 13//13 116//116 
f 115//115 13//13 119//119 
f 114//114 15//15 117//117 
f 125//125 15//15 102//102 
f 109//109 10//10 111//111 
f 4//4 28//28 82//82 
f 125//125 117//117 15//15 
f 66//66 58//58 27//27 
f 118//118 91//91 107//107 
f 81//81 34//34 30//30 
f 114//114 113//113 15//15 
f 120//120 121//121 109//109 
f 121//121 11//11 10//10 
f 61//61 80//80 62//62 
f 60//60 59//59 95//95 
f 78//78 23//23 65//65 
f 67//67 24//24 78//78 
f 37//37 24//24 40//40 
f 60//60 26//26 96//96 
f 74//74 26//26 97//97 
f 113//113 52//52 112//112 
f 36//36 23//23 37//37 
f 5//5 95//95 82//82 
f 98//98 58//58 66//66 
f 63//63 74//74 73//73 
f 70//70 75//75 101//101 
f 110//110 116//116 117//117 
f 121//121 108//108 123//123 
f 92//92 25//25 36//36 
f 57//57 34//34 81//81 
f 10//10 19//19 112//112 
f 66//66 27//27 20//20 
f 50//50 91//91 105//105 
f 102//102 9//9 7//7 
f 111//111 69//69 109//109 
f 90//90 52//52 114//114 
f 114//114 22//22 90//90 
f 40//40 21//21 41//41 
f 99//99 21//21 67//67 
f 121//121 50//50 11//11 
f 6//6 31//31 87//87 
f 75//75 18//18 72//72 
f 77//77 17//17 120//120 
f 96//96 63//63 61//61 
f 76//76 111//111 52//52 
f 78//78 35//35 67//67 
f 12//12 16//16 104//104 
f 35//35 66//66 20//20 
f 40//40 45//45 37//37 
f 42//42 47//47 43//43 
f 108//108 20//20 27//27 
f 102//102 7//7 8//8 
f 100//100 43//43 47//47 
f 116//116 22//22 117//117 
f 100//100 71//71 70//70 
f 6//6 87//87 89//89 
f 66//66 49//49 98//98 
f 65//65 49//49 78//78 
f 115//115 72//72 18//18 
f 94//94 58//58 28//28 
f 94//94 56//56 14//14 
f 41//41 48//48 40//40 
f 100//100 47//47 68//68 
f 50//50 107//107 91//91 
f 70//70 44//44 100//100 
f 61//61 46//46 3//3 
f 42//42 32//32 41//41 
f 101//101 33//33 70//70 
f 67//67 17//17 99//99 
f 68//68 53//53 99//99 
f 41//41 53//53 42//42 
f 55//55 30//30 86//86 
f 65//65 25//25 64//64 
f 6//6 8//8 31//31 
f 102//102 8//8 125//125 
f 113//113 102//102 15//15 
f 102//102 113//113 103//103 
f 9//9 104//104 16//16 
f 104//104 9//9 103//103 
f 103//103 113//113 112//112 
f 103//103 112//112 19//19 
f 118//118 106//106 91//91 
f 115//115 18//18 13//13 
f 123//123 108//108 27//27 
f 94//94 2//2 58//58 
f 108//108 120//120 20//20 
f 69//69 77//77 109//109 
f 120//120 109//109 77//77 
f 111//111 76//76 69//69 
f 8//8 6//6 125//125 
f 110//110 117//117 125//125 
f 75//75 1//1 18//18 
f 71//71 90//90 1//1 
f 116//116 18//18 1//1 
f 110//110 89//89 13//13 
f 35//35 20//20 17//17 
f 43//43 29//29 42//42 
f 69//69 85//85 77//77 
f 56//56 94//94 28//28 
f 99//99 85//85 68//68 
f 58//58 98//98 28//28 
f 70//70 33//33 44//44 
f 100//100 44//44 43//43 
f 68//68 47//47 53//53 
f 42//42 53//53 47//47 
f 99//99 53//53 21//21 
f 41//41 21//21 53//53 
f 67//67 21//21 24//24 
f 40//40 24//24 21//21 
f 78//78 24//24 23//23 
f 37//37 23//23 24//24 
f 65//65 23//23 25//25 
f 64//64 25//25 83//83 
f 79//79 83//83 39//39 
f 74//74 97//97 38//38 
f 39//39 38//38 97//97 
f 59//59 86//86 95//95 
f 34//34 86//86 30//30 
f 61//61 3//3 96//96 
f 54//54 51//51 84//84 
f 55//55 59//59 51//51 
f 95//95 86//86 4//4 
f 59//59 55//55 86//86 
f 4//4 56//56 28//28 
f 34//34 4//4 86//86 
f 36//36 25//25 23//23 
f 22//22 1//1 90//90 
f 90//90 76//76 52//52 
f 101//101 75//75 72//72 
f 70//70 71//71 75//75 
f 76//76 71//71 88//88 
f 100//100 88//88 71//71 
f 69//69 88//88 85//85 
f 68//68 85//85 88//88 
f 77//77 85//85 17//17 
f 99//99 17//17 85//85 
f 120//120 17//17 20//20 
f 67//67 35//35 17//17 
f 66//66 35//35 49//49 
f 78//78 49//49 35//35 
f 98//98 49//49 124//124 
f 65//65 124//124 49//49 
f 82//82 124//124 5//5 
f 64//64 5//5 124//124 
f 95//95 5//5 93//93 
f 79//79 93//93 5//5 
f 60//60 93//93 26//26 
f 97//97 26//26 93//93 
f 96//96 26//26 63//63 
f 74//74 63//63 26//26 
f 61//61 63//63 80//80 
f 80//80 63//63 73//73 
f 61//61 62//62 46//46 
f 84//84 3//3 46//46 
f 51//51 59//59 96//96 
f 60//60 96//96 59//59 
f 94//94 14//14 2//2 
f 56//56 57//57 14//14 
f 57//57 56//56 34//34 
f 68//68 88//88 100//100 
f 76//76 88//88 69//69 
f 41//41 32//32 48//48 
f 42//42 29//29 32//32 
f 55//55 51//51 54//54 
f 118//118 107//107 122//122 
f 107//107 2//2 14//14 
f 119//119 13//13 89//89 
f 116//116 13//13 18//18 
f 10//10 112//112 111//111 
f 52//52 111//111 112//112 
f 109//109 121//121 10//10 
f 108//108 121//121 120//120 
f 50//50 123//123 107//107 
f 105//105 106//106 12//12 
f 105//105 12//12 104//104 
f 11//11 105//105 104//104 
f 10//10 11//11 19//19 
f 102//102 103//103 9//9 
f 76//76 90//90 71//71 
f 79//79 39//39 97//97 
f 104//104 19//19 11//11 
f 105//105 91//91 106//106 
