v -40.3662 -10.5173 901.287
v -40.0098 -12.7398 901.408
v -42.3163 -8.89 898.363
v -43.9853 -4.83731 896.996
v -42.2742 -3.92542 899.242
v -42.2482 -5.20934 898.974
v -38.0712 -14.0414 904.488
v -38.8907 -20.0187 896.529
v -40.0112 -18.4385 893.604
v -40.3146 -17.0759 895.219
v -39.834 -16.2894 898.681
v -42.8406 -11.0123 895.289
v -41.0054 -12.8718 898.969
v -38.0473 -20.7748 898.889
v -39.1203 -15.8176 901.652
v -37.7691 -18.5892 902.969
v -44.8308 -8.05339 893.333
v -44.5833 -6.48142 895.218
v -43.9559 -8.4878 894.983
v -42.4995 -7.22857 898.378
v -43.6257 -6.01619 897.027
v -42.7479 -13.3894 890.158
v -41.4382 -15.6295 892.302
v -41.0154 -16.7271 891.243
v -43.9961 -10.1384 892.797
v -42.9358 -3.28285 898.852
v -38.38 -4.07972 903.373
v -40.241 -4.39145 901.333
v -39.592 -3.03193 901.964
v -42.142 -13.1989 894.386
v -37.9028 -9.56501 904.675
v -40.8351 -7.29561 900.63
v -38.5685 -6.20873 903.403
v -37.455 -16.7238 904.958
v -38.1971 -16.0999 903.711
v -44.757 -9.59272 891.281
v -43.5857 -7.5966 896.469
v -42.4168 -10.0071 897.59
v -41.6851 -2.74108 900.097
v -37.7824 -20.44 900.414
v -38.4664 -11.4588 904.055
v -36.8101 -14.9909 906.412
v -36.4384 -12.9821 906.978
v -43.4993 -11.7419 891.439
v -36.445 -10.9101 906.812
v -44.0072 -11.2737 889.48
v -40.6142 -2.69892 901.027
v -42.8085 -13.2215 888.753
v -41.8536 -15.1258 889.6
v -36.582 -8.88392 906.314
v -36.9797 -6.6385 905.409
v -41.4241 -3.86627 897.693
v -42.4425 -4.94367 896.067
v -41.9894 -11.2293 889.871
v -38.1511 -4.149 900.675
v -35.9262 -7.48687 903.152
v -35.9688 -8.57532 904.63
v -40.6493 -4.96856 895.684
v -36.9848 -5.76344 902.967
v -40.472 -5.96063 894.246
v -42.0748 -6.62178 893.748
v -35.2549 -10.2709 903.791
v -35.5823 -11.322 904.875
v -41.5891 -7.79406 892.411
v -40.605 -8.89512 891.486
v -42.6388 -9.94584 890.566
v -41.3131 -12.8008 889.946
v -39.5838 -10.4359 891.116
v -35.9322 -13.8572 905.041
v -36.5651 -15.8654 903.749
v -37.1792 -19.3541 899.515
v -37.411 -19.0934 898.088
v -36.4922 -17.6532 900.292
v -37.6001 -17.7662 896.407
v -39.2589 -17.3039 893.963
v -37.3332 -5.51025 896.772
v -36.9725 -5.35973 898.234
v -39.0649 -3.73797 899.668
v -39.1317 -4.32611 897.614
v -40.6193 -3.35549 899.051
v -39.9153 -4.37575 896.959
v -37.8165 -6.09019 894.929
v -38.9979 -5.58569 895.042
v -39.2658 -6.92339 893.26
v -37.6759 -7.30705 893.37
v -38.3393 -8.16828 892.43
v -37.7983 -9.12669 892.168
v -39.2204 -9.15708 891.615
v -37.4426 -10.3952 892.364
v -39.3243 -11.5322 891.296
v -37.4323 -11.9789 892.927
v -39.3797 -13.1961 891.805
v -36.6982 -17.0177 901.934
v -40.8965 -13.9878 890.512
v -39.8476 -15.3181 892.198
v -35.6703 -12.4097 905.094
v -35.5844 -14.6235 902.971
v -35.842 -15.7406 901.496
v -36.1952 -17.2863 898.72
v -35.8249 -15.9964 897.671
v -35.0531 -14.6491 900.529
v -34.9366 -13.5147 902.284
v -34.5452 -13.4469 900.232
v -34.8358 -11.8868 902.79
v -34.9432 -9.19437 902.08
v -35.1501 -8.08653 901.42
v -35.7955 -6.64116 900.273
v -34.8245 -8.11732 899.486
v -34.335 -9.77215 899.133
v -34.5238 -10.3838 901.437
v -34.2701 -11.4066 900.268
v -34.2812 -12.5094 899.187
v -34.4662 -12.5003 901.184
v -34.8686 -14.3628 898.679
v -34.8676 -13.897 897.409
v -34.9117 -12.823 896.128
v -34.4171 -12.2685 897.124
v -34.1647 -11.3697 898.216
v -34.2754 -10.4504 896.979
v -34.8041 -8.11616 897.259
v -35.3686 -6.99216 898.135
v -36.3739 -5.77332 899.248
v -35.7818 -7.00232 896.185
v -35.3461 -8.43286 895.024
v -34.6597 -9.8095 895.599
v -34.4333 -9.24829 896.924
v -35.171 -9.89597 894.61
v -36.3149 -9.36726 893.281
v -36.0749 -10.4725 893.523
v -34.7266 -11.2581 895.556
v -35.7159 -11.867 894.438
v -35.8055 -14.4591 896.085
v -37.4076 -14.9041 894.581
v -36.7737 -8.22975 893.24
v -36.6343 -6.89446 894.835
v -37.3422 -4.89239 901.23
v -43.4476 -9.24262 891.311
v -43.5216 -7.18386 893.707
v -43.9853 -4.83731 896.996
v -38.8907 -20.0187 896.529
v -40.0112 -18.4385 893.604
v -38.0473 -20.7748 898.889
v -37.7691 -18.5892 902.969
v -44.8308 -8.05339 893.333
v -44.5833 -6.48142 895.218
v -41.0154 -16.7271 891.243
v -42.9358 -3.28285 898.852
v -38.38 -4.07972 903.373
v -39.592 -3.03193 901.964
v -37.455 -16.7238 904.958
v -44.757 -9.59272 891.281
v -41.6851 -2.74108 900.097
v -37.7824 -20.44 900.414
v -36.8101 -14.9909 906.412
v -36.4384 -12.9821 906.978
v -36.445 -10.9101 906.812
v -44.0072 -11.2737 889.48
v -40.6142 -2.69892 901.027
v -42.8085 -13.2215 888.753
v -41.8536 -15.1258 889.6
v -36.582 -8.88392 906.314
v -36.9797 -6.6385 905.409
vn -0.834507 -0.0419102 0.549401
vn -0.88194 -0.182552 0.434577
vn -0.866891 -0.147174 0.476276
vn -0.761323 -0.230234 0.606118
vn -0.710183 -0.192227 0.677266
vn -0.76882 -0.11197 0.629586
vn -0.856454 -0.0907166 0.508191
vn -0.913559 -0.360349 0.188571
vn -0.909206 -0.396431 0.127228
vn -0.909088 -0.378026 0.17509
vn -0.906431 -0.348182 0.239066
vn -0.893619 -0.352411 0.277943
vn -0.900964 -0.291215 0.321649
vn -0.909039 -0.351724 0.223467
vn -0.902632 -0.274704 0.331351
vn -0.899488 -0.297737 0.319803
vn -0.860179 -0.386638 0.33257
vn -0.853648 -0.268129 0.446533
vn -0.873845 -0.337604 0.349884
vn -0.827232 -0.0914705 0.554364
vn -0.815216 -0.186699 0.548239
vn -0.882848 -0.468034 0.0390387
vn -0.898648 -0.420717 0.124215
vn -0.896423 -0.439287 0.058761
vn -0.867606 -0.417558 0.27001
vn -0.66718 -0.263893 0.696585
vn -0.752733 0.0651328 0.655096
vn -0.728716 -0.0232659 0.684421
vn -0.711061 0.0129782 0.703011
vn -0.89276 -0.400554 0.206243
vn -0.797897 0.0659468 0.599175
vn -0.790979 0.00210778 0.61184
vn -0.770493 0.0640766 0.63422
vn -0.874767 -0.166091 0.455188
vn -0.88599 -0.203257 0.416783
vn -0.859111 -0.464912 0.213973
vn -0.862827 -0.216234 0.456916
vn -0.890073 -0.266371 0.369888
vn -0.677231 -0.11681 0.726439
vn -0.906033 -0.346174 0.243449
vn -0.822832 0.0111646 0.568175
vn -0.842049 -0.0516295 0.536925
vn -0.816983 0.0184718 0.576366
vn -0.873127 -0.462591 0.153817
vn -0.804864 0.0626103 0.590147
vn -0.863907 -0.499635 0.0634703
vn -0.667145 -0.0125879 0.744822
vn -0.873821 -0.48582 -0.0203597
vn -0.889677 -0.456562 -0.00512119
vn -0.79427 0.0971911 0.59974
vn -0.780216 0.0878821 0.619306
vn 0.0276375 0.889671 -0.455765
vn -0.180495 0.808781 -0.559728
vn 0.295892 0.382207 -0.875424
vn 0.616383 0.786022 -0.0473439
vn 0.867075 0.437685 0.237935
vn 0.901184 0.287268 0.324569
vn 0.0196392 0.854676 -0.51879
vn 0.798991 0.574785 0.176737
vn -0.022344 0.781485 -0.623523
vn -0.189935 0.744208 -0.640374
vn 0.932261 0.142739 0.332437
vn 0.926667 0.0598132 0.371094
vn -0.0856226 0.696363 -0.712564
vn 0.132491 0.535142 -0.834308
vn 0.021177 0.614726 -0.788456
vn 0.615424 -0.0154571 -0.788045
vn 0.407982 0.161783 -0.898542
vn 0.907888 -0.289772 0.302938
vn 0.846098 -0.469134 0.253045
vn 0.888298 -0.455227 -0.0607824
vn 0.813166 -0.469498 -0.343996
vn 0.890085 -0.423621 0.168207
vn 0.736907 -0.442597 -0.510956
vn 0.741346 -0.361802 -0.565248
vn 0.512449 0.806274 -0.295497
vn 0.623183 0.765921 -0.15814
vn 0.44864 0.86754 -0.214701
vn 0.337153 0.875638 -0.345812
vn 0.229306 0.910771 -0.343387
vn 0.171157 0.889305 -0.424078
vn 0.362889 0.797595 -0.481823
vn 0.207356 0.831854 -0.514803
vn 0.140363 0.712266 -0.687732
vn 0.375665 0.665699 -0.644764
vn 0.28101 0.532799 -0.798222
vn 0.478405 0.237415 -0.845436
vn 0.250848 0.383263 -0.888923
vn 0.583696 -0.0879324 -0.807197
vn 0.5859 -0.158852 -0.794662
vn 0.617911 -0.306868 -0.723891
vn 0.660779 -0.257218 -0.705131
vn 0.854903 -0.452003 0.254623
vn 0.724609 -0.154835 -0.671542
vn 0.735958 -0.262081 -0.624244
vn 0.937244 -0.092287 0.336239
vn 0.866129 -0.435708 0.244907
vn 0.850999 -0.468964 0.236374
vn 0.89069 -0.441392 -0.108835
vn 0.837307 -0.443496 -0.319732
vn 0.900914 -0.410983 0.13945
vn 0.931277 -0.27728 0.236304
vn 0.952157 -0.292642 0.0880787
vn 0.95663 -0.0474507 0.287416
vn 0.935206 0.268229 0.231179
vn 0.891686 0.409061 0.193818
vn 0.81907 0.558699 0.13031
vn 0.920776 0.379218 0.0914562
vn 0.979576 0.191922 0.0599719
vn 0.969438 0.123245 0.212132
vn 0.992156 0.00611588 0.124854
vn 0.983455 -0.181087 0.00496355
vn 0.976145 -0.133249 0.17142
vn 0.92874 -0.366718 -0.0544002
vn 0.886259 -0.376861 -0.269297
vn 0.841512 -0.33148 -0.426589
vn 0.959995 -0.208171 -0.187284
vn 0.99921 -0.0271928 -0.028967
vn 0.987503 0.0231131 -0.155898
vn 0.905248 0.409595 -0.112953
vn 0.804595 0.591604 -0.051298
vn 0.722972 0.690834 -0.0076868
vn 0.726299 0.63504 -0.263084
vn 0.819133 0.38415 -0.425969
vn 0.929239 0.124758 -0.347778
vn 0.955013 0.2533 -0.154239
vn 0.826438 0.0254898 -0.56245
vn 0.704472 0.135879 -0.696603
vn 0.702302 -0.148515 -0.696215
vn 0.897556 -0.142477 -0.417245
vn 0.72755 -0.302034 -0.615992
vn 0.753006 -0.425121 -0.502248
vn 0.674424 -0.378267 -0.634087
vn 0.589686 0.445022 -0.673963
vn 0.593125 0.66481 -0.454127
vn 0.73717 0.670212 0.0859972
vn -0.14415 0.705973 -0.693414
vn -0.275175 0.741926 -0.611412
vn -0.297228 0.770861 -0.563408
vn 0.755697 -0.439128 -0.48589
vn 0.774353 -0.345927 -0.529822
vn 0.842654 -0.48566 -0.232527
vn 0.863739 -0.427844 0.266279
vn -0.331745 0.747076 -0.576041
vn -0.330015 0.745834 -0.578638
vn 0.769927 -0.27265 -0.576953
vn -0.102944 0.863124 -0.494387
vn 0.718263 0.687384 0.10771
vn 0.537864 0.838048 -0.091533
vn 0.832639 -0.483836 0.269474
vn -0.229165 0.728869 -0.645161
vn 0.125959 0.915739 -0.381519
vn 0.888759 -0.443038 0.117581
vn 0.873888 -0.401409 0.27421
vn 0.924401 -0.103266 0.367176
vn 0.916666 0.0946161 0.388292
vn 0.0166964 0.592322 -0.805528
vn 0.338878 0.904292 -0.259648
vn 0.474449 0.2121 -0.854348
vn 0.729331 -0.121751 -0.673241
vn 0.902981 0.198992 0.380824
vn 0.852279 0.449615 0.267332
g grp1
usemtl mtl1
f 3//3 2//2 1//1 
f 6//6 5//5 4//4 
f 1//1 2//2 7//7 
f 10//10 9//9 8//8 
f 13//13 12//12 11//11 
f 11//11 8//8 14//14 
f 11//11 16//16 15//15 
f 19//19 18//18 17//17 
f 21//21 20//20 6//6 
f 24//24 23//23 22//22 
f 19//19 17//17 25//25 
f 5//5 26//26 4//4 
f 29//29 28//28 27//27 
f 10//10 30//30 23//23 
f 33//33 32//32 31//31 
f 35//35 34//34 7//7 
f 25//25 17//17 36//36 
f 25//25 12//12 19//19 
f 38//38 37//37 19//19 
f 32//32 1//1 31//31 
f 11//11 15//15 13//13 
f 28//28 33//33 27//27 
f 32//32 33//33 28//28 
f 13//13 15//15 2//2 
f 26//26 5//5 39//39 
f 2//2 3//3 38//38 
f 9//9 23//23 24//24 
f 40//40 11//11 14//14 
f 37//37 20//20 21//21 
f 1//1 41//41 31//31 
f 43//43 41//41 42//42 
f 3//3 37//37 38//38 
f 44//44 30//30 25//25 
f 42//42 41//41 7//7 
f 23//23 30//30 44//44 
f 23//23 9//9 10//10 
f 6//6 20//20 32//32 
f 32//32 20//20 1//1 
f 23//23 44//44 22//22 
f 11//11 12//12 30//30 
f 7//7 2//2 35//35 
f 3//3 1//1 20//20 
f 13//13 2//2 38//38 
f 31//31 41//41 45//45 
f 22//22 44//44 46//46 
f 21//21 18//18 37//37 
f 36//36 44//44 25//25 
f 44//44 36//36 46//46 
f 12//12 13//13 38//38 
f 11//11 30//30 10//10 
f 37//37 3//3 20//20 
f 16//16 11//11 40//40 
f 28//28 29//29 47//47 
f 35//35 15//15 16//16 
f 48//48 22//22 46//46 
f 34//34 35//35 16//16 
f 22//22 48//48 49//49 
f 12//12 38//38 19//19 
f 51//51 31//31 50//50 
f 47//47 39//39 28//28 
f 50//50 31//31 45//45 
f 18//18 19//19 37//37 
f 10//10 8//8 11//11 
f 2//2 15//15 35//35 
f 1//1 7//7 41//41 
f 18//18 21//21 4//4 
f 31//31 51//51 33//33 
f 5//5 6//6 28//28 
f 22//22 49//49 24//24 
f 28//28 6//6 32//32 
f 4//4 21//21 6//6 
f 25//25 30//30 12//12 
f 42//42 7//7 34//34 
f 41//41 43//43 45//45 
f 5//5 28//28 39//39 
f 51//51 27//27 33//33 
f 147//147 152//152 52//52 
f 53//53 147//147 52//52 
f 159//159 157//157 54//54 
f 148//148 55//55 149//149 
f 57//57 56//56 162//162 
f 53//53 52//52 58//58 
f 56//56 59//59 162//162 
f 53//53 58//58 60//60 
f 61//61 53//53 60//60 
f 161//161 62//62 57//57 
f 161//161 63//63 62//62 
f 61//61 60//60 64//64 
f 66//66 64//64 65//65 
f 68//68 67//67 54//54 
f 154//154 70//70 69//69 
f 72//72 71//71 142//142 
f 71//71 153//153 142//142 
f 73//73 153//153 71//71 
f 140//140 72//72 142//142 
f 75//75 74//74 140//140 
f 78//78 77//77 76//76 
f 79//79 78//78 76//76 
f 80//80 78//78 79//79 
f 80//80 79//79 81//81 
f 52//52 80//80 81//81 
f 58//58 52//52 81//81 
f 79//79 76//76 82//82 
f 83//83 79//79 82//82 
f 84//84 83//83 82//82 
f 85//85 84//84 82//82 
f 64//64 60//60 84//84 
f 86//86 84//84 85//85 
f 64//64 84//84 65//65 
f 88//88 86//86 87//87 
f 68//68 88//88 87//87 
f 89//89 68//68 87//87 
f 90//90 68//68 89//89 
f 91//91 90//90 89//89 
f 91//91 92//92 90//90 
f 141//141 75//75 140//140 
f 140//140 74//74 72//72 
f 93//93 143//143 73//73 
f 92//92 95//95 94//94 
f 94//94 67//67 92//92 
f 65//65 88//88 68//68 
f 54//54 65//65 68//68 
f 67//67 68//68 90//90 
f 92//92 67//67 90//90 
f 70//70 143//143 93//93 
f 154//154 150//150 70//70 
f 155//155 154//154 69//69 
f 155//155 69//69 96//96 
f 156//156 155//155 63//63 
f 155//155 96//96 63//63 
f 156//156 63//63 161//161 
f 162//162 161//161 57//57 
f 69//69 70//70 97//97 
f 148//148 162//162 59//59 
f 150//150 143//143 70//70 
f 70//70 93//93 98//98 
f 153//153 73//73 143//143 
f 95//95 160//160 94//94 
f 95//95 146//146 160//160 
f 72//72 100//100 99//99 
f 98//98 73//73 101//101 
f 101//101 103//103 102//102 
f 63//63 104//104 62//62 
f 106//106 56//56 105//105 
f 59//59 56//56 107//107 
f 107//107 106//106 108//108 
f 105//105 109//109 108//108 
f 106//106 105//105 108//108 
f 105//105 110//110 109//109 
f 62//62 110//110 105//105 
f 110//110 111//111 109//109 
f 62//62 104//104 110//110 
f 113//113 112//112 111//111 
f 103//103 114//114 112//112 
f 103//103 101//101 114//114 
f 73//73 99//99 114//114 
f 101//101 73//73 114//114 
f 100//100 115//115 114//114 
f 99//99 100//100 114//114 
f 117//117 115//115 116//116 
f 111//111 112//112 118//118 
f 118//118 117//117 119//119 
f 111//111 118//118 109//109 
f 121//121 108//108 120//120 
f 77//77 122//122 121//121 
f 77//77 121//121 123//123 
f 76//76 77//77 123//123 
f 126//126 125//125 124//124 
f 120//120 126//126 124//124 
f 125//125 127//127 124//124 
f 127//127 128//128 124//124 
f 127//127 129//129 128//128 
f 127//127 125//125 130//130 
f 127//127 131//131 129//129 
f 133//133 131//131 132//132 
f 126//126 119//119 125//125 
f 119//119 117//117 130//130 
f 125//125 119//119 130//130 
f 117//117 116//116 130//130 
f 132//132 116//116 115//115 
f 133//133 132//132 74//74 
f 75//75 141//141 146//146 
f 146//146 95//95 75//75 
f 133//133 74//74 75//75 
f 133//133 75//75 95//95 
f 92//92 133//133 95//95 
f 91//91 133//133 92//92 
f 129//129 91//91 89//89 
f 129//129 89//89 128//128 
f 128//128 89//89 87//87 
f 91//91 131//131 133//133 
f 131//131 91//91 129//129 
f 128//128 134//134 124//124 
f 124//124 134//134 135//135 
f 124//124 135//135 123//123 
f 135//135 76//76 123//123 
f 80//80 158//158 78//78 
f 136//136 59//59 107//107 
f 136//136 107//107 122//122 
f 55//55 136//136 122//122 
f 77//77 55//55 122//122 
f 135//135 82//82 76//76 
f 135//135 85//85 82//82 
f 134//134 85//85 135//135 
f 134//134 86//86 85//85 
f 87//87 86//86 134//134 
f 128//128 87//87 134//134 
f 158//158 149//149 78//78 
f 78//78 149//149 55//55 
f 55//55 148//148 136//136 
f 148//148 59//59 136//136 
f 67//67 160//160 159//159 
f 94//94 160//160 67//67 
f 67//67 159//159 54//54 
f 100//100 72//72 74//74 
f 74//74 132//132 100//100 
f 115//115 100//100 132//132 
f 131//131 116//116 132//132 
f 130//130 116//116 131//131 
f 131//131 127//127 130//130 
f 124//124 123//123 120//120 
f 123//123 121//121 120//120 
f 107//107 121//121 122//122 
f 121//121 107//107 108//108 
f 109//109 126//126 120//120 
f 108//108 109//109 120//120 
f 109//109 119//119 126//126 
f 109//109 118//118 119//119 
f 112//112 117//117 118//118 
f 114//114 115//115 117//117 
f 112//112 114//114 117//117 
f 113//113 103//103 112//112 
f 104//104 102//102 113//113 
f 102//102 103//103 113//113 
f 104//104 113//113 111//111 
f 104//104 111//111 110//110 
f 107//107 56//56 106//106 
f 57//57 105//105 56//56 
f 57//57 62//62 105//105 
f 96//96 104//104 63//63 
f 69//69 102//102 104//104 
f 96//96 69//69 104//104 
f 70//70 98//98 97//97 
f 69//69 97//97 102//102 
f 97//97 101//101 102//102 
f 97//97 98//98 101//101 
f 93//93 73//73 98//98 
f 71//71 72//72 99//99 
f 73//73 71//71 99//99 
f 157//157 66//66 54//54 
f 157//157 137//137 66//66 
f 145//145 139//139 138//138 
f 139//139 53//53 138//138 
f 139//139 147//147 53//53 
f 52//52 152//152 80//80 
f 88//88 65//65 86//86 
f 65//65 84//84 86//86 
f 60//60 83//83 84//84 
f 60//60 58//58 83//83 
f 81//81 79//79 83//83 
f 58//58 81//81 83//83 
f 78//78 55//55 77//77 
f 152//152 158//158 80//80 
f 145//145 138//138 144//144 
f 151//151 144//144 138//138 
f 66//66 65//65 54//54 
f 137//137 64//64 66//66 
f 138//138 61//61 64//64 
f 137//137 138//138 64//64 
f 138//138 53//53 61//61 
f 151//151 138//138 137//137 
f 151//151 137//137 157//157 
