v 121.274 -65.1081 732.259
v 116.655 -66.4657 724.499
v 116.576 -69.833 715.286
v 122.949 -58.549 745.754
v 119.298 -57.852 747.066
v 119.694 -59.0839 743.352
v 116.932 -65.853 726.138
v 112.552 -68.8419 715.827
v 121.979 -57.765 747.214
v 120.601 -57.2094 748.875
v 118.304 -60.7172 740.26
v 120.284 -58.1318 745.633
v 118.545 -65.487 728.324
v 119.818 -60.7139 740.36
v 113.853 -65.5991 726.467
v 113.111 -67.2097 722.017
v 121.203 -62.6826 736.879
v 114.148 -67.1674 721.757
v 117.304 -69.0987 717.924
v 115.396 -68.951 716.249
v 118.27 -58.7117 744.836
v 121.364 -63.5591 735.239
v 122.788 -59.5681 743.278
v 118.125 -68.3822 720.645
v 117.544 -59.8283 742.297
v 114.488 -64.532 729.354
v 118.098 -66.6053 725.469
v 114.185 -71.4024 707.336
v 116.377 -64.1295 730.333
v 118.723 -58.2474 746.004
v 123.86 -58.2723 748.292
v 124.473 -58.8722 747.655
v 123.709 -59.4392 744.816
v 124.769 -59.8981 745.715
v 123.869 -61.8747 740.759
v 124.295 -60.4528 743.728
v 123.617 -62.4021 739.753
v 122.243 -64.2444 734.988
v 115.96 -62.5396 735.145
v 122.212 -58.7286 744.431
v 123.108 -60.616 741.808
v 121.39 -57.4367 748.11
v 112.822 -70.6407 708.211
v 122.15 -57.613 747.958
v 123.328 -62.9133 738.682
v 124.092 -61.3616 741.737
v 119.897 -62.7074 735.685
v 114.75 -71.4362 708.256
v 115.412 -71.0657 710.397
v 116.277 -70.1617 713.991
v 114.871 -69.2852 714.807
v 116.921 -69.4714 716.599
v 116.733 -67.8515 720.763
v 114.954 -67.8911 719.519
v 115.515 -67.2444 721.622
v 115.055 -66.5014 723.446
v 118.396 -66.0921 726.94
v 115.291 -65.8296 725.425
v 115.73 -65.1793 727.249
v 116.944 -64.832 728.675
v 117.592 -63.7676 731.614
v 114.854 -64.0244 730.792
v 115.609 -63.0497 733.687
v 116.283 -62.0147 736.61
v 117.744 -61.6313 737.799
v 116.904 -61.0084 739.542
v 117.22 -60.4452 740.953
v 121.185 -56.971 749.628
v 121.266 -57.2771 748.595
v 121.164 -57.6042 747.408
v 120.127 -57.8314 746.768
v 121.645 -58.169 745.53
v 117.887 -59.2374 743.593
v 118.81 -59.6141 742.513
v 120.252 -59.8356 741.924
v 118.9 -61.258 739.027
v 121.063 -61.7019 738.842
v 118.659 -62.8406 734.568
v 118.24 -62.2066 736.188
v 119.442 -64.439 731.079
v 120.788 -65.5425 730.832
v 119.528 -66.8781 726.434
v 119.175 -67.3012 724.964
v 123.123 -57.7445 748.721
v 123.756 -57.8361 749.41
v 121.85 -56.9426 750.084
v 120.028 -57.522 747.967
v 119.258 -58.6133 744.636
v 121.253 -59.1286 743.192
v 121.668 -60.7605 740.749
v 122.655 -63.8267 736.291
v 121.775 -64.6686 733.642
v 119.914 -66.4277 727.906
v 122.865 -57.9309 747.622
v 124.782 -59.4479 746.709
v 114.157 -65.0775 727.921
v 112.916 -67.6517 720.474
v 112.638 -68.4542 717.36
v 113.708 -68.7592 715.988
v 114.166 -70.0642 711.857
v 113.978 -70.4048 710.395
v 113.829 -70.6933 709.133
v 113.62 -71.1137 707.469
v 114.42 -69.6713 713.383
v 112.494 -69.1445 714.325
v 113.329 -66.6727 723.518
v 113.576 -66.126 724.999
v 124.198 -60.8844 742.726
v 115.236 -63.5399 732.235
v 117.719 -68.7292 719.27
v 112.479 -69.4792 712.906
v 124.59 -60.2125 744.717
v 123.217 -57.3885 749.96
v 118.23 -64.6232 729.844
v 117.784 -67.6876 722.258
v 120.456 -64.3691 732.418
v 122.495 -62.7982 737.996
v 112.506 -69.7905 711.577
v 118.837 -67.6895 723.503
v 112.756 -68.0462 718.912
v 112.674 -70.3552 709.239
v 115.102 -71.2867 709.305
v 115.994 -70.4922 712.74
v 114.225 -68.3634 717.557
v 117.862 -67.1398 723.899
v 117.323 -65.4293 727.439
v 115.421 -64.572 729.033
v 117.284 -63.0634 733.584
v 117.287 -62.4991 735.209
v 116.595 -61.5096 738.081
v 122.218 -57.4213 748.78
v 121.271 -57.8585 746.516
v 120.71 -58.495 744.413
v 118.661 -60.1895 741.393
v 119.524 -61.9653 737.385
v 118.963 -63.5368 732.844
v 120.336 -65.9747 729.372
v 118.493 -68.0436 722.06
v 122.383 -58.0276 746.596
v 123.01 -63.3911 737.529
v 121.834 -59.8884 742.139
v 123.458 -58.417 747.027
v 124.15 -58.3449 748.593
v 120.219 -63.5177 734.039
v 112.57 -70.0766 710.353
v 116.605 -67.1334 722.74
v 115.71 -70.8035 711.541
v 122.548 -57.1101 750.204
v 115.793 -68.664 717.539
v 124.052 -59.0683 746.268
v 117.304 -69.0987 717.924
v 118.125 -68.3822 720.645
v 124.295 -60.4528 743.728
v 115.96 -62.5396 735.145
v 124.092 -61.3616 741.737
v 115.236 -63.5399 732.235
vn 0.562517 0.712532 -0.419372
vn 0.261527 0.897171 -0.355933
vn 0.370945 0.869289 -0.326705
vn 0.429149 0.846589 -0.31483
vn -0.121285 0.954802 -0.271372
vn -0.0842071 0.895896 -0.436211
vn 0.261783 0.890413 -0.372337
vn -0.0391618 0.974827 -0.219497
vn 0.199378 0.947241 -0.250963
vn -0.0274418 0.954643 -0.296486
vn 0.00484371 0.916441 -0.40014
vn -0.0719255 0.953864 -0.291497
vn 0.367904 0.84358 -0.391176
vn 0.0681872 0.886175 -0.458307
vn -0.0795281 0.943724 -0.321029
vn -0.111635 0.950332 -0.29053
vn 0.371237 0.840524 -0.39459
vn -0.0550497 0.947309 -0.315556
vn -0.851137 0.510526 0.122181
vn 0.267764 0.914364 -0.303712
vn -0.158759 0.931644 -0.326857
vn 0.445296 0.803323 -0.395455
vn 0.410021 0.801669 -0.434982
vn 0.328114 0.889717 -0.317404
vn -0.0662244 0.9063 -0.417414
vn -0.07247 0.941895 -0.327997
vn 0.365749 0.858136 -0.360319
vn 0.40349 0.889357 -0.215034
vn 0.0554601 0.940751 -0.334533
vn -0.140106 0.945486 -0.293983
vn 0.479683 0.835404 -0.268335
vn 0.531815 0.800682 -0.27583
vn 0.545581 0.760685 -0.351711
vn 0.594216 0.73129 -0.334846
vn 0.036663 0.881311 -0.471113
vn 0.558084 0.734809 -0.385485
vn 0.362777 0.787943 -0.497532
vn 0.486547 0.773046 -0.407028
vn -0.0108873 0.944334 -0.328808
vn 0.306982 0.869863 -0.386135
vn 0.431691 0.760424 -0.485178
vn 0.0942837 0.959686 -0.264788
vn 0.352971 0.913407 -0.20273
vn 0.230828 0.941588 -0.245214
vn 0.483662 0.74299 -0.462641
vn 0.369822 0.803184 -0.46704
vn 0.27497 0.891353 -0.36039
vn 0.424919 0.869462 -0.251953
vn 0.483544 0.8221 -0.30056
vn 0.34953 0.880005 -0.321588
vn 0.246682 0.91713 -0.313083
vn 0.360579 0.872509 -0.329713
vn 0.267139 0.906032 -0.328242
vn 0.116332 0.949672 -0.290845
vn 0.144887 0.932281 -0.33145
vn 0.0517577 0.940073 -0.337022
vn 0.381833 0.840904 -0.383515
vn 0.0502895 0.938788 -0.340806
vn 0.0573405 0.937528 -0.343151
vn 0.176445 0.91454 -0.363984
vn 0.120376 0.929282 -0.349205
vn -0.0409175 0.949528 -0.311003
vn -0.563259 -0.728141 0.390577
vn 0.0136371 0.945316 -0.32587
vn 0.0485498 0.942731 -0.330002
vn 0.0160384 0.935028 -0.354211
vn -0.0250005 0.917244 -0.397541
vn 0.0615029 0.958251 -0.279236
vn 0.0765984 0.953867 -0.290294
vn 0.0495396 0.965956 -0.253919
vn -0.0843353 0.959751 -0.26789
vn 0.159409 0.937131 -0.310443
vn -0.127631 0.913793 -0.385606
vn -0.0813008 0.893714 -0.441209
vn 0.0234703 0.865821 -0.499803
vn 0.0774565 0.922073 -0.379187
vn 0.266233 0.861509 -0.432346
vn 0.164203 0.924867 -0.343013
vn 0.0962953 0.939212 -0.329558
vn 0.382729 0.829525 -0.406703
vn 0.543339 0.73194 -0.411153
vn 0.406532 0.84001 -0.359326
vn 0.381797 0.861262 -0.33535
vn 0.36296 0.893411 -0.264721
vn 0.453579 0.845289 -0.282406
vn 0.203962 0.939602 -0.274859
vn -0.0534724 0.960888 -0.271725
vn -0.141399 0.92942 -0.34086
vn 0.123648 0.870987 -0.475492
vn 0.23448 0.81828 -0.524821
vn 0.477301 0.77915 -0.406336
vn 0.503606 0.764902 -0.401629
vn 0.430777 0.818166 -0.380836
vn 0.370463 0.89537 -0.247123
vn 0.579504 0.753028 -0.311647
vn -0.0784574 0.940058 -0.331866
vn -0.0482077 0.959973 -0.275912
vn -0.0285699 0.969373 -0.243925
vn 0.0529184 0.964564 -0.258488
vn 0.278209 0.923001 -0.265836
vn 0.317743 0.914456 -0.250619
vn 0.341742 0.905061 -0.253135
vn 0.360886 0.901269 -0.23974
vn 0.244237 0.924894 -0.29141
vn 0.0859275 0.962631 -0.256824
vn -0.110649 0.940659 -0.320807
vn -0.0919637 0.942654 -0.320852
vn -0.982536 0.185404 0.0157256
vn -0.00400514 0.949236 -0.314541
vn -0.851137 0.510526 0.122181
vn 0.168968 0.95598 -0.239902
vn 0.597216 0.72428 -0.344603
vn 0.354333 0.891293 -0.282921
vn 0.27051 0.874627 -0.402309
vn 0.332284 0.89076 -0.310053
vn 0.484664 0.781429 -0.393028
vn 0.450499 0.781899 -0.430912
vn 0.206836 0.951976 -0.225746
vn 0.363999 0.878359 -0.309821
vn -0.00975902 0.969914 -0.243252
vn 0.286344 0.930748 -0.227412
vn 0.424717 0.864367 -0.269228
vn 0.454071 0.833484 -0.314839
vn 0.0758822 0.961951 -0.262473
vn 0.343087 0.879138 -0.330768
vn 0.270619 0.886755 -0.374742
vn -0.015323 0.944128 -0.329222
vn 0.0490974 0.942047 -0.331868
vn 0.0304901 0.943553 -0.329814
vn 0.0196133 0.944383 -0.328262
vn 0.242895 0.934323 -0.260849
vn 0.0644168 0.960011 -0.272452
vn 0.00240338 0.925879 -0.377814
vn -0.0335332 0.897785 -0.439156
vn 0.17655 0.918137 -0.35476
vn 0.246397 0.901829 -0.354954
vn 0.454402 0.790634 -0.410387
vn 0.358502 0.882882 -0.303308
vn 0.295818 0.915472 -0.272768
vn 0.487207 0.760822 -0.428696
vn 0.223247 0.825644 -0.518144
vn 0.478979 0.835982 -0.267795
vn 0.496651 0.820997 -0.281607
vn 0.378533 0.84885 -0.369007
vn 0.237269 0.945839 -0.221568
vn 0.265402 0.907278 -0.326203
vn 0.735981 0.592397 -0.327715
vn 0.284648 0.918804 -0.273449
vn 0.278572 0.916198 -0.288061
vn 0.554267 0.77366 -0.306983
vn 0.300615 0.900884 -0.313112
vn -0.851137 0.510526 0.122181
vn -0.982536 0.185404 0.0157256
vn -0.563259 -0.728141 0.390577
vn -0.982536 0.185404 0.0157256
vn -0.563259 -0.728141 0.390577
g grp1
usemtl mtl1
f 53//53 54//54 55//55 
f 113//113 84//84 148//148 
f 137//137 114//114 80//80 
f 51//51 3//3 50//50 
f 34//34 112//112 33//33 
f 136//136 116//116 80//80 
f 77//77 117//117 17//17 
f 140//140 117//117 45//45 
f 101//101 118//118 100//100 
f 138//138 115//115 119//119 
f 66//66 67//67 11//11 
f 59//59 126//126 7//7 
f 119//119 115//115 125//125 
f 103//103 121//121 102//102 
f 138//138 24//24 115//115 
f 80//80 61//61 136//136 
f 59//59 7//7 58//58 
f 1//1 81//81 116//116 
f 114//114 29//29 61//61 
f 56//56 58//58 2//2 
f 139//139 9//9 94//94 
f 78//78 144//144 136//136 
f 92//92 144//144 22//22 
f 102//102 145//145 101//101 
f 56//56 146//146 55//55 
f 146//146 125//125 115//115 
f 90//90 14//14 75//75 
f 133//133 6//6 88//88 
f 123//123 147//147 49//49 
f 135//135 47//47 79//79 
f 91//91 22//22 17//17 
f 152//152 110//110 19//19 
f 56//56 2//2 146//146 
f 57//57 126//126 13//13 
f 90//90 37//37 77//77 
f 86//86 148//148 131//131 
f 136//136 128//128 78//78 
f 142//142 4//4 139//139 
f 71//71 5//5 87//87 
f 42//42 69//69 131//131 
f 71//71 132//132 12//12 
f 74//74 6//6 75//75 
f 91//91 17//17 117//117 
f 82//82 57//57 93//93 
f 74//74 75//75 134//134 
f 2//2 7//7 27//27 
f 97//97 18//18 54//54 
f 120//120 54//54 124//124 
f 41//41 46//46 37//37 
f 60//60 13//13 126//126 
f 93//93 13//13 137//137 
f 99//99 105//105 8//8 
f 134//134 14//14 11//11 
f 77//77 14//14 90//90 
f 58//58 15//15 59//59 
f 97//97 16//16 18//18 
f 76//76 11//11 14//14 
f 55//55 146//146 53//53 
f 141//141 75//75 89//89 
f 52//52 149//149 151//151 
f 72//72 12//12 132//132 
f 87//87 10//10 69//69 
f 59//59 60//60 126//126 
f 70//70 9//9 132//132 
f 77//77 135//135 76//76 
f 2//2 58//58 7//7 
f 59//59 127//127 60//60 
f 36//36 41//41 23//23 
f 106//106 18//18 16//16 
f 124//124 54//54 149//149 
f 52//52 20//20 149//149 
f 73//73 21//21 88//88 
f 29//29 114//114 60//60 
f 99//99 8//8 98//98 
f 127//127 26//26 62//62 
f 146//146 115//115 53//53 
f 150//150 142//142 32//32 
f 142//142 94//94 31//31 
f 151//151 54//54 53//53 
f 129//129 39//39 64//64 
f 151//151 53//53 24//24 
f 102//102 48//48 103//103 
f 77//77 17//17 135//135 
f 141//141 23//23 41//41 
f 86//86 69//69 68//68 
f 62//62 29//29 127//127 
f 83//83 27//27 82//82 
f 57//57 27//27 7//7 
f 100//100 49//49 101//101 
f 67//67 25//25 134//134 
f 108//108 155//155 153//153 
f 34//34 33//33 150//150 
f 1//1 116//116 92//92 
f 71//71 12//12 30//30 
f 106//106 107//107 56//56 
f 71//71 30//30 5//5 
f 75//75 6//6 89//89 
f 143//143 32//32 31//31 
f 81//81 80//80 116//116 
f 102//102 122//122 48//48 
f 99//99 124//124 20//20 
f 69//69 42//42 87//87 
f 73//73 88//88 6//6 
f 142//142 31//31 32//32 
f 77//77 76//76 14//14 
f 4//4 33//33 40//40 
f 80//80 81//81 137//137 
f 51//51 20//20 3//3 
f 57//57 7//7 126//126 
f 94//94 44//44 84//84 
f 131//131 44//44 42//42 
f 85//85 31//31 84//84 
f 70//70 42//42 44//44 
f 128//128 39//39 129//129 
f 58//58 107//107 15//15 
f 139//139 94//94 142//142 
f 112//112 36//36 33//33 
f 23//23 33//33 36//36 
f 47//47 22//22 144//144 
f 120//120 124//124 98//98 
f 55//55 18//18 56//56 
f 85//85 84//84 113//113 
f 139//139 4//4 72//72 
f 4//4 150//150 33//33 
f 89//89 133//133 40//40 
f 141//141 89//89 23//23 
f 141//141 90//90 75//75 
f 90//90 141//141 41//41 
f 35//35 37//37 46//46 
f 77//77 37//37 117//117 
f 38//38 22//22 91//91 
f 22//22 38//38 92//92 
f 103//103 48//48 28//28 
f 101//101 49//49 122//122 
f 100//100 123//123 49//49 
f 104//104 50//50 123//123 
f 104//104 123//123 100//100 
f 104//104 105//105 51//51 
f 104//104 51//51 50//50 
f 86//86 131//131 69//69 
f 61//61 109//109 128//128 
f 85//85 143//143 31//31 
f 103//103 43//43 121//121 
f 102//102 121//121 145//145 
f 101//101 145//145 118//118 
f 104//104 100//100 111//111 
f 105//105 104//104 111//111 
f 51//51 99//99 20//20 
f 99//99 51//51 105//105 
f 99//99 98//98 124//124 
f 55//55 54//54 18//18 
f 97//97 54//54 120//120 
f 106//106 56//56 18//18 
f 125//125 83//83 119//119 
f 53//53 115//115 24//24 
f 83//83 125//125 27//27 
f 58//58 56//56 107//107 
f 82//82 27//27 57//57 
f 96//96 59//59 15//15 
f 127//127 96//96 26//26 
f 96//96 127//127 59//59 
f 137//137 13//13 114//114 
f 80//80 114//114 61//61 
f 13//13 60//60 114//114 
f 136//136 61//61 128//128 
f 129//129 78//78 128//128 
f 129//129 64//64 79//79 
f 129//129 79//79 78//78 
f 65//65 135//135 79//79 
f 65//65 79//79 64//64 
f 65//65 66//66 76//76 
f 65//65 76//76 135//135 
f 67//67 134//134 11//11 
f 76//76 66//66 11//11 
f 74//74 134//134 25//25 
f 74//74 25//25 73//73 
f 88//88 21//21 30//30 
f 88//88 30//30 12//12 
f 68//68 69//69 10//10 
f 44//44 131//131 84//84 
f 148//148 84//84 131//131 
f 70//70 44//44 9//9 
f 94//94 9//9 44//44 
f 139//139 132//132 9//9 
f 94//94 84//84 31//31 
f 72//72 132//132 139//139 
f 40//40 72//72 4//4 
f 72//72 40//40 133//133 
f 40//40 23//23 89//89 
f 90//90 41//41 37//37 
f 45//45 117//117 37//37 
f 140//140 91//91 117//117 
f 93//93 57//57 13//13 
f 92//92 116//116 144//144 
f 136//136 144//144 116//116 
f 78//78 79//79 47//47 
f 47//47 17//17 22//22 
f 78//78 47//47 144//144 
f 134//134 75//75 14//14 
f 74//74 73//73 6//6 
f 133//133 89//89 6//6 
f 72//72 133//133 12//12 
f 88//88 12//12 133//133 
f 71//71 87//87 70//70 
f 71//71 70//70 132//132 
f 70//70 87//87 42//42 
f 130//130 66//66 65//65 
f 130//130 65//65 64//64 
f 63//63 154//154 156//156 
f 128//128 109//109 39//39 
f 62//62 109//109 29//29 
f 61//61 29//29 109//109 
f 127//127 29//29 60//60 
f 125//125 2//2 27//27 
f 125//125 146//146 2//2 
f 151//151 149//149 54//54 
f 52//52 3//3 20//20 
f 33//33 23//23 40//40 
f 41//41 36//36 46//46 
f 150//150 4//4 142//142 
f 95//95 34//34 150//150 
f 124//124 149//149 20//20 
f 101//101 122//122 102//102 
f 135//135 17//17 47//47 
f 118//118 111//111 100//100 
f 95//95 150//150 32//32 
