v 45.6169 -30.1079 864.411
v 45.2062 -30.2939 865.639
v 50.0573 -34.9022 867.462
v 52.895 -36.7624 864.641
v 52.7648 -34.984 863.338
v 45.1308 -31.2958 867.429
v 47.4743 -36.9245 861.969
v 45.4893 -30.4747 870.642
v 46.3118 -32.8778 870.505
v 47.0845 -39.6304 868.761
v 49.0966 -31.5804 862.822
v 48.3771 -39.5063 867.445
v 52.7565 -35.4263 865.235
v 54.8966 -32.7631 864.274
v 46.7996 -27.4451 867.061
v 47.0406 -29.8369 869.44
v 49.2587 -28.2975 867.737
v 48.9723 -36.1878 862.244
v 48.7759 -27.5755 865.126
v 47.4796 -43.0453 864.743
v 53.1518 -31.7705 863.777
v 45.8675 -28.521 867.439
v 45.4258 -34.5981 863.234
v 45.6218 -36.1307 863.304
v 47.8383 -26.4429 867.496
v 46.6526 -41.3504 864.485
v 49.9417 -39.5407 865.826
v 53.5047 -30.9147 865.512
v 48.2093 -42.8113 864.163
v 49.1821 -31.4697 868.436
v 52.6817 -38.6058 863.814
v 52.6517 -29.0066 864.714
v 46.6232 -36.2689 862.057
v 48.574 -39.1694 862.69
v 46.3957 -41.4643 865.447
v 45.4265 -35.7969 866.414
v 49.1184 -41.4939 864.987
v 46.9779 -37.5772 869.432
v 45.8771 -39.075 865.772
v 46.4749 -27.2704 868.432
v 45.7451 -37.1171 870.587
v 51.5775 -28.1315 866.522
v 49.7019 -30.0935 863.414
v 45.4438 -32.3363 871.182
v 47.6156 -29.961 863.284
v 46.4773 -29.1021 864.417
v 50.8632 -34.0373 862.695
v 47.4877 -28.5758 864.32
v 50.7374 -36.1036 862.613
v 45.6071 -33.212 862.93
v 46.903 -42.8974 865.892
v 45.9534 -34.9847 862.426
v 49.1908 -38.1469 862.597
v 46.4796 -34.2053 862.158
v 53.2625 -28.0458 865.659
v 50.7803 -37.7416 866.003
v 46.5709 -31.203 870.123
v 47.6137 -33.8818 862.129
v 45.5678 -29.3148 868.407
v 46.447 -31.959 862.711
v 50.7717 -38.199 862.982
v 51.9494 -27.177 866.092
v 48.87 -37.5959 867.739
v 52.5713 -33.3754 863.322
v 49.2886 -34.0309 862.378
v 52.4394 -29.5986 866.247
v 46.6599 -41.154 868.629
v 46.7573 -42.1611 867.371
v 52.6461 -37.0161 863.454
v 50.4598 -40.3344 864.648
v 46.0485 -38.87 868.077
v 50.2427 -28.9158 864.118
v 47.2498 -34.5531 869.698
v 46.4422 -28.257 865.717
v 50.1944 -39.9613 863.362
v 50.2395 -41.3824 863.844
v 45.0216 -32.9352 866.742
v 48.437 -40.9165 866.414
v 49.0774 -42.3307 863.907
v 46.2505 -39.8218 869.624
v 53.4077 -33.1288 865.268
v 45.7495 -28.5658 869.492
v 45.4721 -34.3005 871.124
v 45.4373 -31.128 869.63
v 51.5381 -40.0966 863.771
v 50.1985 -27.5227 865.303
v 45.9948 -39.6883 864.569
v 50.0247 -26.3809 866.64
v 46.0045 -38.4418 863.624
v 45.7403 -36.8493 869.213
v 47.3331 -40.8582 867.819
v 47.8597 -28.1396 868.335
v 51.7172 -37.0745 863.035
v 45.0681 -33.8682 865.564
v 45.36 -33.9653 869.091
v 48.7297 -30.2934 868.608
v 51.8109 -28.0529 865.192
v 46.5375 -42.0367 866.34
v 46.3433 -40.7238 867.177
v 53.0331 -30.1482 864.262
v 54.1579 -29.1534 865.21
v 47.4 -41.5637 863.836
v 45.5284 -31.5035 863.529
v 53.8528 -36.5527 863.981
v 48.0173 -42.2089 863.89
v 46.0969 -36.6518 862.562
v 54.5731 -34.6425 864.116
v 45.6224 -37.4594 864.506
v 46.6899 -40.35 863.709
v 47.4839 -35.6397 861.903
v 45.1749 -34.3401 864.486
v 45.6411 -29.2026 865.724
v 51.4228 -31.1945 863.407
v 45.2527 -33.0401 863.628
v 46.6053 -38.2864 862.737
v 47.7503 -42.043 866.005
v 48.4672 -40.8009 863.289
v 50.4499 -32.8295 867.469
v 47.4138 -31.6483 862.639
v 52.0082 -38.3659 864.546
v 45.2073 -30.9251 864.688
v 47.7895 -27.1179 866.232
v 54.8335 -30.8689 864.632
v 50.3549 -32.4518 862.835
v 45.3718 -29.8108 867.073
v 45.1829 -32.3607 868.307
v 47.5851 -38.8926 862.617
v 50.3954 -36.3787 866.817
v 44.9564 -31.8257 865.619
v 48.4355 -28.9812 863.767
v 46.3514 -30.3439 863.486
v 45.0243 -32.4005 864.516
v 45.4893 -30.4747 870.642
v 54.8966 -32.7631 864.274
v 47.4796 -43.0453 864.743
v 47.8383 -26.4429 867.496
v 48.2093 -42.8113 864.163
v 52.6817 -38.6058 863.814
v 46.4749 -27.2704 868.432
v 45.7451 -37.1171 870.587
v 45.4438 -32.3363 871.182
v 46.903 -42.8974 865.892
v 53.2625 -28.0458 865.659
v 51.9494 -27.177 866.092
v 46.6599 -41.154 868.629
v 46.7573 -42.1611 867.371
v 50.2395 -41.3824 863.844
v 49.0774 -42.3307 863.907
v 46.2505 -39.8218 869.624
v 45.7495 -28.5658 869.492
v 45.4721 -34.3005 871.124
v 51.5381 -40.0966 863.771
v 50.0247 -26.3809 866.64
v 54.1579 -29.1534 865.21
v 53.8528 -36.5527 863.981
v 54.5731 -34.6425 864.116
v 54.8335 -30.8689 864.632
vn -0.786744 0.443579 -0.429269
vn -0.958497 0.271772 -0.0861607
vn 0.611382 -0.163526 0.774255
vn 0.599195 -0.324399 0.731936
vn 0.379448 -0.0242046 -0.924896
vn -0.99021 0.106787 0.0898884
vn -0.0323257 -0.20095 -0.979068
vn 0.509547 0.288578 0.810608
vn 0.605704 0.0176426 0.795494
vn 0.71427 -0.257856 0.650638
vn 0.135294 0.265634 -0.954533
vn 0.675172 -0.352203 0.648149
vn 0.595385 -0.236236 0.767925
vn 0.574234 -0.150059 0.804822
vn -0.658845 0.699676 -0.276364
vn 0.457802 0.309935 0.833281
vn 0.41195 0.326343 0.850763
vn 0.216003 -0.0482131 -0.975202
vn -0.0533041 0.748344 -0.661165
vn 0.596645 -0.685811 0.416747
vn 0.309223 0.213815 -0.926642
vn -0.871135 0.480981 -0.0989013
vn -0.924358 -0.065135 -0.375924
vn -0.932955 -0.154052 -0.325365
vn 0.350987 0.400076 0.846609
vn -0.804551 -0.400902 -0.43815
vn 0.648092 -0.421421 0.634335
vn 0.553274 -0.0728162 0.829811
vn 0.549994 -0.71325 0.43449
vn 0.564332 0.0239502 0.825201
vn 0.589365 -0.430463 0.683631
vn 0.264934 0.523312 -0.80991
vn -0.401093 -0.116859 -0.908553
vn 0.123817 -0.266469 -0.955858
vn -0.953746 -0.2876 -0.0874913
vn -0.987102 -0.152964 0.047237
vn 0.610188 -0.600841 0.516392
vn 0.657584 -0.165205 0.735044
vn -0.982321 -0.181975 0.0439401
vn 0.337606 0.445333 0.829278
vn 0.638796 -0.119967 0.759966
vn 0.437649 0.218217 0.872264
vn 0.161853 0.379268 -0.911021
vn 0.60022 0.0946855 0.794211
vn -0.128533 0.461305 -0.877882
vn -0.528708 0.613918 -0.58615
vn 0.267985 0.0796108 -0.960128
vn -0.309037 0.696194 -0.647928
vn 0.258896 -0.0501091 -0.964604
vn -0.733371 0.119255 -0.669288
vn 0.624388 -0.67209 0.398039
vn -0.73107 -0.0421842 -0.680997
vn 0.190002 -0.206265 -0.959872
vn -0.328559 0.124771 -0.936206
vn 0.46446 0.127124 0.876422
vn 0.63042 -0.313186 0.710271
vn 0.551495 0.161435 0.818409
vn 0.0536559 0.164705 -0.984882
vn -0.972355 0.231191 0.0328015
vn -0.349401 0.282163 -0.893478
vn 0.263646 -0.216959 -0.939904
vn 0.399436 0.242534 0.884097
vn 0.649362 -0.236667 0.722715
vn 0.321839 0.109504 -0.94044
vn 0.175121 0.103788 -0.979061
vn 0.521864 0.0373124 0.852212
vn 0.760334 -0.34001 0.553431
vn 0.704749 -0.552052 0.445609
vn 0.426704 -0.133269 -0.894518
vn 0.627511 -0.514496 0.5844
vn -0.978518 -0.197506 0.0591158
vn 0.170145 0.554471 -0.814624
vn 0.613978 -0.0808949 0.785167
vn -0.620637 0.701975 -0.349343
vn 0.247725 -0.280966 -0.927195
vn 0.594034 -0.595156 0.541215
vn -0.995369 -0.0576261 0.0769335
vn 0.652341 -0.502919 0.567031
vn 0.569146 -0.67682 0.466892
vn 0.700716 -0.194496 0.686417
vn 0.57815 -0.142684 0.803358
vn 0.395393 0.416718 0.818542
vn 0.616101 -0.0439858 0.786438
vn -0.994437 0.0727729 0.0761467
vn 0.596538 -0.494273 0.632326
vn 0.119758 0.704014 -0.700016
vn -0.936843 -0.258648 -0.235429
vn 0.372544 0.315322 0.872802
vn -0.87608 -0.2506 -0.411926
vn -0.987815 -0.15477 0.0163689
vn 0.721788 -0.430162 0.542201
vn 0.373282 0.4045 0.83489
vn 0.357044 -0.145205 -0.922732
vn -0.994486 -0.104691 -0.00612882
vn -0.993878 -0.0798171 0.0763877
vn 0.498465 0.178111 0.848416
vn 0.204156 0.640351 -0.740453
vn -0.94834 -0.309658 0.0690138
vn -0.9692 -0.221197 0.108277
vn 0.279971 0.380981 -0.881175
vn 0.528369 -0.0177686 0.848829
vn -0.449478 -0.41226 -0.792471
vn -0.791817 0.259986 -0.55266
vn 0.591007 -0.330376 0.735909
vn -0.244784 -0.427135 -0.870423
vn -0.761424 -0.20327 -0.61556
vn 0.578339 -0.205065 0.789603
vn -0.982915 -0.158061 -0.0943124
vn -0.673367 -0.368279 -0.641052
vn 0.0122226 0.0345573 -0.999328
vn -0.98704 -0.117111 -0.109712
vn -0.838531 0.502068 -0.211647
vn 0.235751 0.286439 -0.928641
vn -0.941595 0.0306461 -0.335351
vn -0.529347 -0.323529 -0.784297
vn 0.620594 -0.633918 0.461531
vn 0.0164808 -0.348097 -0.937314
vn 0.58207 -0.0745339 0.809715
vn -0.0832523 0.31885 -0.944142
vn 0.611427 -0.41495 0.673775
vn -0.942542 0.227133 -0.245002
vn -0.369162 0.806369 -0.462049
vn 0.559023 -0.103998 0.822604
vn 0.226274 0.19081 -0.955192
vn -0.963003 0.266556 0.0396617
vn -0.990616 0.00684597 0.136502
vn -0.167022 -0.327093 -0.930115
vn 0.616646 -0.229976 0.752901
vn -0.997706 0.0638235 -0.0225542
vn 0.00553617 0.570491 -0.821285
vn -0.432063 0.457505 -0.777181
vn -0.981571 0.0394 -0.18699
vn -0.997074 0.0764225 0.00189023
vn 0.369303 0.092409 -0.924703
vn -0.607728 -0.472524 -0.63827
vn -0.470724 0.803083 -0.365346
vn -0.2455 -0.463739 -0.851279
vn 0.362334 -0.221774 -0.905279
vn -0.773178 0.607159 -0.183178
vn -0.990665 -0.136229 -0.00491472
vn -0.999889 0.00945834 0.0115279
vn -0.89509 -0.42085 -0.147303
vn 0.257898 0.61467 -0.745432
vn 0.178653 0.712761 -0.678273
vn -0.964897 -0.250301 0.0795188
vn -0.935952 -0.319816 0.147351
vn 0.211361 -0.304958 -0.928616
vn 0.0439192 -0.371219 -0.927506
vn -0.979242 -0.20221 -0.0140235
vn -0.966881 0.255068 -0.00904665
vn -0.998988 -0.0338903 0.0295779
vn 0.260149 -0.242397 -0.934648
vn -0.0506892 0.820391 -0.569551
vn 0.32353 0.473796 -0.819052
vn 0.428781 -0.117885 -0.895684
vn 0.401475 -0.0402173 -0.914986
vn 0.338195 0.300228 -0.891901
g grp1
usemtl mtl1
f 37//37 76//76 70//70 
f 56//56 120//120 4//4 
f 41//41 38//38 73//73 
f 81//81 3//3 13//13 
f 16//16 17//17 92//92 
f 66//66 28//28 101//101 
f 92//92 17//17 25//25 
f 28//28 81//81 123//123 
f 17//17 96//96 42//42 
f 62//62 88//88 42//42 
f 57//57 96//96 16//16 
f 9//9 57//57 44//44 
f 37//37 78//78 116//116 
f 70//70 120//120 27//27 
f 31//31 120//120 85//85 
f 80//80 38//38 41//41 
f 68//68 91//91 67//67 
f 12//12 27//27 56//56 
f 96//96 57//57 30//30 
f 120//120 70//70 85//85 
f 83//83 41//41 73//73 
f 3//3 73//73 38//38 
f 66//66 118//118 28//28 
f 88//88 25//25 17//17 
f 73//73 118//118 30//30 
f 78//78 70//70 27//27 
f 40//40 82//82 92//92 
f 120//120 104//104 4//4 
f 104//104 120//120 31//31 
f 55//55 42//42 66//66 
f 107//107 13//13 104//104 
f 29//29 116//116 20//20 
f 10//10 12//12 63//63 
f 85//85 70//70 76//76 
f 63//63 56//56 128//128 
f 91//91 78//78 12//12 
f 73//73 9//9 83//83 
f 107//107 14//14 81//81 
f 9//9 30//30 57//57 
f 8//8 44//44 57//57 
f 91//91 10//10 67//67 
f 118//118 3//3 81//81 
f 76//76 37//37 79//79 
f 120//120 56//56 27//27 
f 63//63 38//38 10//10 
f 128//128 56//56 13//13 
f 13//13 4//4 104//104 
f 20//20 116//116 51//51 
f 128//128 13//13 3//3 
f 123//123 81//81 14//14 
f 12//12 10//10 91//91 
f 38//38 63//63 3//3 
f 128//128 3//3 63//63 
f 66//66 96//96 30//30 
f 17//17 42//42 88//88 
f 81//81 28//28 118//118 
f 101//101 55//55 66//66 
f 123//123 101//101 28//28 
f 51//51 116//116 68//68 
f 56//56 63//63 12//12 
f 116//116 91//91 68//68 
f 67//67 10//10 80//80 
f 55//55 62//62 42//42 
f 82//82 8//8 16//16 
f 30//30 9//9 73//73 
f 73//73 3//3 118//118 
f 83//83 9//9 44//44 
f 91//91 116//116 78//78 
f 78//78 37//37 70//70 
f 4//4 13//13 56//56 
f 29//29 79//79 116//116 
f 82//82 16//16 92//92 
f 116//116 79//79 37//37 
f 10//10 38//38 80//80 
f 66//66 30//30 118//118 
f 16//16 96//96 17//17 
f 25//25 40//40 92//92 
f 8//8 57//57 16//16 
f 12//12 78//78 27//27 
f 42//42 96//96 66//66 
f 81//81 13//13 107//107 
f 86//86 144//144 97//97 
f 86//86 153//153 144//144 
f 61//61 93//93 138//138 
f 86//86 97//97 72//72 
f 113//113 100//100 21//21 
f 43//43 113//113 11//11 
f 11//11 113//113 124//124 
f 124//124 47//47 65//65 
f 65//65 47//47 49//49 
f 65//65 49//49 18//18 
f 5//5 69//69 93//93 
f 18//18 49//49 61//61 
f 18//18 61//61 53//53 
f 61//61 138//138 75//75 
f 53//53 61//61 75//75 
f 75//75 152//152 147//147 
f 144//144 143//143 97//97 
f 32//32 143//143 154//154 
f 32//32 97//97 143//143 
f 100//100 32//32 154//154 
f 155//155 69//69 5//5 
f 122//122 19//19 48//48 
f 48//48 19//19 130//130 
f 45//45 48//48 130//130 
f 45//45 130//130 43//43 
f 45//45 43//43 11//11 
f 45//45 11//11 119//119 
f 58//58 119//119 11//11 
f 58//58 11//11 65//65 
f 127//127 53//53 34//34 
f 127//127 34//34 117//117 
f 102//102 127//127 117//117 
f 102//102 117//117 105//105 
f 69//69 155//155 138//138 
f 15//15 74//74 22//22 
f 122//122 48//48 74//74 
f 22//22 74//74 112//112 
f 74//74 46//46 112//112 
f 1//1 112//112 46//46 
f 1//1 46//46 131//131 
f 1//1 131//131 103//103 
f 131//131 60//60 103//103 
f 103//103 60//60 50//50 
f 50//50 60//60 54//54 
f 50//50 54//54 52//52 
f 50//50 52//52 23//23 
f 54//54 33//33 52//52 
f 58//58 65//65 18//18 
f 58//58 18//18 110//110 
f 33//33 106//106 52//52 
f 110//110 18//18 7//7 
f 115//115 106//106 33//33 
f 7//7 18//18 53//53 
f 7//7 53//53 127//127 
f 109//109 89//89 115//115 
f 109//109 26//26 87//87 
f 5//5 156//156 155//155 
f 5//5 134//134 156//156 
f 64//64 134//134 5//5 
f 87//87 26//26 35//35 
f 87//87 35//35 39//39 
f 99//99 71//71 39//39 
f 36//36 71//71 90//90 
f 21//21 134//134 64//64 
f 21//21 157//157 134//134 
f 100//100 157//157 21//21 
f 136//136 153//153 122//122 
f 36//36 90//90 95//95 
f 19//19 153//153 86//86 
f 19//19 122//122 153//153 
f 117//117 75//75 147//147 
f 117//117 148//148 105//105 
f 117//117 147//147 148//148 
f 137//137 105//105 148//148 
f 135//135 26//26 102//102 
f 125//125 6//6 84//84 
f 142//142 26//26 135//135 
f 59//59 125//125 84//84 
f 22//22 112//112 125//125 
f 112//112 2//2 125//125 
f 2//2 129//129 6//6 
f 2//2 6//6 125//125 
f 129//129 77//77 6//6 
f 129//129 94//94 77//77 
f 94//94 36//36 77//77 
f 89//89 108//108 24//24 
f 23//23 24//24 111//111 
f 114//114 23//23 111//111 
f 114//114 111//111 132//132 
f 24//24 108//108 111//111 
f 111//111 108//108 36//36 
f 111//111 36//36 94//94 
f 132//132 111//111 94//94 
f 132//132 94//94 129//129 
f 121//121 132//132 129//129 
f 121//121 129//129 2//2 
f 1//1 121//121 2//2 
f 1//1 2//2 112//112 
f 1//1 103//103 121//121 
f 103//103 114//114 132//132 
f 103//103 132//132 121//121 
f 103//103 50//50 114//114 
f 50//50 23//23 114//114 
f 23//23 52//52 24//24 
f 24//24 52//52 106//106 
f 89//89 24//24 106//106 
f 89//89 106//106 115//115 
f 87//87 89//89 109//109 
f 87//87 108//108 89//89 
f 87//87 39//39 108//108 
f 108//108 39//39 36//36 
f 36//36 39//39 71//71 
f 77//77 36//36 95//95 
f 77//77 95//95 126//126 
f 6//6 77//77 126//126 
f 22//22 125//125 59//59 
f 71//71 145//145 149//149 
f 99//99 145//145 71//71 
f 145//145 99//99 146//146 
f 146//146 98//98 142//142 
f 6//6 126//126 84//84 
f 126//126 95//95 84//84 
f 39//39 35//35 99//99 
f 35//35 98//98 99//99 
f 142//142 98//98 35//35 
f 59//59 84//84 150//150 
f 84//84 141//141 133//133 
f 22//22 59//59 150//150 
f 150//150 84//84 133//133 
f 26//26 109//109 102//102 
f 102//102 109//109 127//127 
f 109//109 115//115 127//127 
f 115//115 33//33 7//7 
f 115//115 7//7 127//127 
f 33//33 110//110 7//7 
f 54//54 58//58 110//110 
f 54//54 110//110 33//33 
f 60//60 119//119 58//58 
f 60//60 58//58 54//54 
f 131//131 45//45 119//119 
f 131//131 119//119 60//60 
f 46//46 48//48 45//45 
f 46//46 45//45 131//131 
f 74//74 48//48 46//46 
f 15//15 122//122 74//74 
f 84//84 151//151 141//141 
f 84//84 95//95 151//151 
f 34//34 53//53 75//75 
f 34//34 75//75 117//117 
f 65//65 11//11 124//124 
f 43//43 130//130 72//72 
f 19//19 86//86 72//72 
f 19//19 72//72 130//130 
f 95//95 140//140 151//151 
f 95//95 90//90 140//140 
f 99//99 98//98 146//146 
f 90//90 149//149 140//140 
f 90//90 71//71 149//149 
f 142//142 35//35 26//26 
f 15//15 22//22 139//139 
f 139//139 22//22 150//150 
f 136//136 15//15 139//139 
f 135//135 105//105 137//137 
f 135//135 102//102 105//105 
f 136//136 122//122 15//15 
f 100//100 154//154 157//157 
f 138//138 152//152 75//75 
f 93//93 69//69 138//138 
f 49//49 93//93 61//61 
f 49//49 5//5 93//93 
f 47//47 64//64 5//5 
f 47//47 5//5 49//49 
f 124//124 21//21 64//64 
f 124//124 64//64 47//47 
f 113//113 21//21 124//124 
f 113//113 43//43 100//100 
f 72//72 32//32 100//100 
f 72//72 100//100 43//43 
f 72//72 97//97 32//32 
