v -264.265 -109.143 809.239
v -265.558 -108.808 808.237
v -265.386 -109.444 809.057
v -267.932 -107.885 814.608
v -266.69 -109.27 810.012
v -267.187 -108.868 811.447
v -262.537 -106.527 810.683
v -261.806 -106.848 810.682
v -263.137 -108.434 810.88
v -265.032 -109.175 811.488
v -265.938 -108.966 813.276
v -264.606 -108.881 814.313
v -262.253 -107.531 811.011
v -263.63 -108.647 813.618
v -262.29 -107.713 813.952
v -265.604 -108.004 808.787
v -264.641 -107.992 808.486
v -265.964 -109.584 808.214
v -266.219 -108.379 809.016
v -262.362 -106.88 810.2
v -267.653 -108.821 810.627
v -267.498 -108.129 811.156
v -266.907 -108.283 809.893
v -267.348 -107.178 812.349
v -266.882 -106.367 814.048
v -264.685 -108.796 815.393
v -263.378 -108.598 807.858
v -266.867 -107.16 810.814
v -263.918 -107.589 808.871
v -262.186 -107.663 815.058
v -265.418 -107.034 814.446
v -260.944 -105.659 813.973
v -262.391 -104.454 813.633
v -262.105 -105.412 812.578
v -266.168 -106.367 810.493
v -265.024 -105.967 810.104
v -266.675 -106.01 812.856
v -265.261 -104.083 813.336
v -266.335 -105.637 811.88
v -264.201 -103.934 813.365
v -265.889 -104.823 813.553
v -266.773 -106.568 811.46
v -265.714 -105.996 810.473
v -263.453 -106.941 809.489
v -266.049 -105.096 812.83
v -265.928 -105.573 811.281
v -264.854 -104.266 812.637
v -263.262 -104.388 812.551
v -264.379 -104.511 811.973
v -265.388 -104.552 812.202
v -263.035 -105.479 811.419
v -264.525 -105.51 810.617
v -265.33 -105.283 810.971
v -267.187 -108.521 813.553
v -264.704 -109.401 807.591
v -266.078 -107.03 809.79
v -263.974 -105.167 811.041
v -267.014 -109.325 809.229
v -265.004 -106.831 809.386
v -267.988 -108.378 812.032
v -263.54 -104.927 811.706
v -263.83 -105.987 810.286
v -267.125 -108.301 814.903
v -265.97 -108.714 815.224
v -261.29 -105.445 813.968
v -267.465 -107.283 813.708
v -261.27 -106.105 812.605
v -261.651 -106.864 813.104
v -266.427 -106.923 810.303
v -262.394 -107.594 809.1
v -263.528 -108.523 815.367
v -262.582 -107.128 809.696
v -268.014 -108.022 813.687
v -263.92 -104.124 812.826
v -264.449 -106.35 809.808
v -265.263 -106.535 809.717
v -261.334 -106.458 814.469
v -263.36 -105.378 813.89
v -267.932 -107.885 814.608
v -267.932 -107.885 814.608
v -261.806 -106.848 810.682
v -265.964 -109.584 808.214
v -267.653 -108.821 810.627
v -266.882 -106.367 814.048
v -264.685 -108.796 815.393
v -263.378 -108.598 807.858
v -262.186 -107.663 815.058
v -260.944 -105.659 813.973
v -260.944 -105.659 813.973
v -262.391 -104.454 813.633
v -265.261 -104.083 813.336
v -265.261 -104.083 813.336
v -264.201 -103.934 813.365
v -265.889 -104.823 813.553
v -264.704 -109.401 807.591
v -267.014 -109.325 809.229
v -267.988 -108.378 812.032
v -267.125 -108.301 814.903
v -265.97 -108.714 815.224
v -261.29 -105.445 813.968
v -261.27 -106.105 812.605
v -262.394 -107.594 809.1
v -263.528 -108.523 815.367
v -268.014 -108.022 813.687
v -261.334 -106.458 814.469
vn 0.38749 -0.920884 0.0427133
vn -0.431645 0.432823 -0.791421
vn 0.0842397 -0.991015 0.10389
vn -0.0834304 0.418641 0.904311
vn -0.182267 -0.970863 0.155574
vn -0.298337 -0.942615 0.149907
vn 0.41994 0.743288 -0.520743
vn 0.372446 0.803026 -0.465224
vn 0.631492 -0.775377 -0.00303891
vn 0.0614345 -0.993049 0.100395
vn -0.173393 -0.978223 0.114082
vn 0.152356 -0.985205 0.0784838
vn 0.775711 -0.629927 -0.0382683
vn 0.410579 -0.910675 0.045786
vn 0.690041 -0.723708 -0.00949911
vn -0.399265 0.516943 -0.757204
vn -0.11735 0.590806 -0.798234
vn -0.562673 0.320043 -0.762215
vn -0.61628 0.411367 -0.671547
vn 0.32663 0.799954 -0.503376
vn -0.791851 0.444811 -0.418467
vn -0.816166 0.458778 -0.351278
vn -0.748168 0.423985 -0.510374
vn -0.847097 0.505202 -0.164917
vn -0.836811 0.547404 -0.00979183
vn -0.0869376 0.443332 0.892131
vn -0.0227766 0.664538 -0.746908
vn -0.809514 0.453959 -0.3723
vn 0.0814032 0.668085 -0.739619
vn -0.077089 0.46327 0.882858
vn -0.0778804 0.420219 0.904074
vn 0.555377 0.764625 -0.326964
vn 0.541675 0.765934 -0.346313
vn 0.591001 0.681874 -0.431005
vn -0.650684 0.571044 -0.500519
vn -0.161363 0.681945 -0.713381
vn -0.840784 0.540406 -0.0323152
vn -0.161602 0.927497 -0.337097
vn -0.742781 0.618509 -0.256365
vn 0.104301 0.958455 -0.26549
vn -0.808739 0.5866 -0.0429094
vn -0.813556 0.495261 -0.304703
vn -0.480477 0.635212 -0.604688
vn 0.247811 0.714348 -0.654444
vn -0.788692 0.609197 -0.0827257
vn -0.593623 0.686545 -0.419842
vn -0.117179 0.921567 -0.370112
vn 0.378781 0.817901 -0.433084
vn 0.0252167 0.859618 -0.510315
vn -0.446174 0.81744 -0.364308
vn 0.495426 0.6622 -0.562178
vn 0.0371155 0.748072 -0.662579
vn -0.347317 0.772909 -0.53102
vn -0.40392 -0.900334 0.162007
vn -0.292134 0.449447 -0.844189
vn -0.552233 0.508008 -0.661034
vn 0.257989 0.754208 -0.603831
vn -0.692227 0.397364 -0.602431
vn -0.201059 0.593927 -0.77899
vn -0.836512 0.48463 -0.255698
vn 0.341521 0.762436 -0.549595
vn 0.305657 0.677599 -0.668904
vn -0.0919971 0.445217 0.890684
vn -0.0893972 0.442622 0.892241
vn 0.599338 0.72756 -0.333842
vn -0.829228 0.558359 -0.0248262
vn 0.512452 0.737393 -0.44005
vn 0.83334 -0.551166 -0.0419531
vn -0.728595 0.460422 -0.50711
vn 0.247323 0.755269 -0.60696
vn -0.0832426 0.445709 0.891299
vn 0.285939 0.805952 -0.518345
vn -0.824798 0.562902 -0.0533727
vn 0.0821628 0.931064 -0.355485
vn 0.0978736 0.654648 -0.749571
vn -0.390169 0.59004 -0.706839
vn 0.0241532 0.435696 0.89977
vn -0.0460223 0.347784 0.936444
vn -0.817516 0.57456 -0.039347
vn -0.499464 -0.84934 0.170755
vn 0.842627 -0.535912 -0.052703
vn 0.058963 -0.990485 0.124353
vn -0.354887 -0.918702 0.173327
vn -0.081569 0.372711 0.924356
vn 0.0516302 -0.993634 0.10013
vn 0.595735 -0.80315 -0.00712656
vn 0.682395 -0.730314 -0.0312861
vn 0.246579 0.420873 0.872963
vn 0.882521 -0.466706 -0.0578097
vn -0.0378628 0.304808 0.951661
vn -0.0619583 0.314282 0.947306
vn -0.749841 0.648535 -0.130923
vn -0.0591252 0.310484 0.948738
vn -0.0631202 0.348675 0.935116
vn 0.314637 -0.948189 0.044053
vn -0.14194 -0.976152 0.164258
vn -0.444866 -0.879557 0.168742
vn -0.414391 -0.896992 0.153902
vn -0.223629 -0.967122 0.121099
vn 0.0677472 0.390416 0.918142
vn 0.878004 -0.474983 -0.0591582
vn 0.758927 -0.650435 -0.0310567
vn 0.407074 -0.912517 0.0400364
vn -0.491922 -0.853946 0.169672
vn 0.842157 -0.537502 -0.0431579
g grp1
usemtl mtl1
f 62//62 57//57 51//51 
f 7//7 8//8 20//20 
f 62//62 7//7 44//44 
f 47//47 50//50 38//38 
f 75//75 29//29 17//17 
f 24//24 73//73 66//66 
f 17//17 16//16 59//59 
f 27//27 55//55 17//17 
f 17//17 29//29 27//27 
f 55//55 18//18 2//2 
f 55//55 2//2 17//17 
f 17//17 2//2 16//16 
f 59//59 16//16 56//56 
f 56//56 16//16 19//19 
f 16//16 2//2 19//19 
f 2//2 18//18 19//19 
f 19//19 18//18 58//58 
f 58//58 23//23 19//19 
f 58//58 21//21 23//23 
f 22//22 21//21 60//60 
f 28//28 23//23 22//22 
f 23//23 21//21 22//22 
f 56//56 19//19 23//23 
f 23//23 69//69 56//56 
f 23//23 28//28 69//69 
f 56//56 69//69 35//35 
f 35//35 69//69 28//28 
f 76//76 56//56 35//35 
f 76//76 59//59 56//56 
f 22//22 60//60 24//24 
f 24//24 60//60 73//73 
f 26//26 31//31 64//64 
f 64//64 31//31 63//63 
f 63//63 31//31 4//4 
f 77//77 31//31 30//30 
f 78//78 31//31 77//77 
f 48//48 74//74 40//40 
f 40//40 33//33 48//48 
f 90//90 93//93 78//78 
f 32//32 34//34 65//65 
f 33//33 65//65 34//34 
f 100//100 90//90 78//78 
f 77//77 100//100 78//78 
f 45//45 37//37 25//25 
f 45//45 25//25 41//41 
f 94//94 84//84 31//31 
f 84//84 4//4 31//31 
f 79//79 66//66 73//73 
f 79//79 25//25 66//66 
f 25//25 37//37 66//66 
f 24//24 39//39 42//42 
f 24//24 37//37 39//39 
f 24//24 66//66 37//37 
f 28//28 24//24 42//42 
f 22//22 24//24 28//28 
f 28//28 42//42 35//35 
f 76//76 35//35 43//43 
f 59//59 76//76 36//36 
f 75//75 17//17 59//59 
f 70//70 44//44 72//72 
f 29//29 44//44 70//70 
f 70//70 27//27 29//29 
f 26//26 71//71 31//31 
f 71//71 30//30 31//31 
f 88//88 100//100 77//77 
f 34//34 32//32 67//67 
f 34//34 48//48 33//33 
f 94//94 31//31 78//78 
f 39//39 37//37 45//45 
f 39//39 35//35 42//42 
f 46//46 35//35 39//39 
f 46//46 43//43 35//35 
f 36//36 76//76 43//43 
f 75//75 59//59 36//36 
f 44//44 29//29 75//75 
f 7//7 72//72 44//44 
f 8//8 70//70 20//20 
f 20//20 70//70 72//72 
f 34//34 67//67 7//7 
f 48//48 34//34 51//51 
f 48//48 51//51 61//61 
f 47//47 40//40 74//74 
f 47//47 38//38 40//40 
f 78//78 93//93 91//91 
f 94//94 78//78 91//91 
f 92//92 45//45 41//41 
f 92//92 50//50 45//45 
f 50//50 39//39 45//45 
f 53//53 39//39 50//50 
f 53//53 46//46 39//39 
f 46//46 53//53 43//43 
f 53//53 36//36 43//43 
f 53//53 52//52 36//36 
f 52//52 75//75 36//36 
f 62//62 75//75 52//52 
f 62//62 44//44 75//75 
f 7//7 20//20 72//72 
f 8//8 7//7 67//67 
f 62//62 51//51 7//7 
f 57//57 62//62 52//52 
f 61//61 51//51 57//57 
f 34//34 7//7 51//51 
f 49//49 61//61 57//57 
f 48//48 61//61 49//49 
f 49//49 74//74 48//48 
f 47//47 74//74 49//49 
f 49//49 50//50 47//47 
f 49//49 53//53 50//50 
f 49//49 52//52 53//53 
f 57//57 52//52 49//49 
f 15//15 13//13 68//68 
f 11//11 10//10 12//12 
f 10//10 14//14 12//12 
f 95//95 86//86 1//1 
f 1//1 3//3 95//95 
f 95//95 3//3 82//82 
f 82//82 3//3 96//96 
f 83//83 96//96 5//5 
f 96//96 3//3 5//5 
f 6//6 83//83 5//5 
f 97//97 83//83 6//6 
f 1//1 86//86 9//9 
f 1//1 10//10 3//3 
f 5//5 3//3 10//10 
f 6//6 5//5 10//10 
f 11//11 6//6 10//10 
f 6//6 11//11 54//54 
f 97//97 6//6 54//54 
f 54//54 104//104 97//97 
f 12//12 85//85 11//11 
f 85//85 99//99 11//11 
f 11//11 99//99 98//98 
f 54//54 11//11 98//98 
f 104//104 54//54 98//98 
f 104//104 98//98 80//80 
f 86//86 102//102 9//9 
f 102//102 13//13 9//9 
f 9//9 14//14 1//1 
f 14//14 10//10 1//1 
f 14//14 103//103 12//12 
f 103//103 85//85 12//12 
f 15//15 87//87 103//103 
f 15//15 103//103 14//14 
f 105//105 87//87 15//15 
f 68//68 105//105 15//15 
f 89//89 105//105 101//101 
f 102//102 81//81 13//13 
f 13//13 15//15 9//9 
f 14//14 9//9 15//15 
f 101//101 105//105 68//68 
f 68//68 13//13 81//81 
f 101//101 68//68 81//81 
