v 263.799 -105.989 810.328
v 263.954 -105.189 811.071
v 263.066 -105.466 811.431
v 262.54 -106.494 810.718
v 261.812 -106.85 810.711
v 262.357 -106.905 810.173
v 263.421 -106.926 809.536
v 264.814 -104.264 812.655
v 265.383 -104.602 812.215
v 265.261 -104.083 813.336
v 264.428 -106.412 809.774
v 263.871 -107.573 808.886
v 264.643 -107.983 808.516
v 267.32 -107.173 812.321
v 268.003 -108.042 813.621
v 267.448 -107.25 813.671
v 265.585 -107.97 808.824
v 265.035 -106.859 809.399
v 263.378 -108.598 807.858
v 264.704 -109.401 807.591
v 265.964 -109.584 808.214
v 265.534 -108.783 808.271
v 266.054 -107.085 809.768
v 266.212 -108.401 809.019
v 267.014 -109.325 809.229
v 266.891 -108.227 809.937
v 267.624 -108.827 810.629
v 267.469 -108.098 811.155
v 267.958 -108.387 812.051
v 266.863 -107.174 810.838
v 266.44 -106.976 810.295
v 266.168 -106.38 810.533
v 265.324 -106.52 809.778
v 264.685 -108.796 815.393
v 265.323 -107.081 814.484
v 265.97 -108.714 815.224
v 267.093 -108.301 814.905
v 267.932 -107.885 814.608
v 261.376 -106.495 814.477
v 262.186 -107.663 815.058
v 263.418 -105.343 813.879
v 263.282 -104.444 812.541
v 263.966 -104.154 812.79
v 264.201 -103.934 813.365
v 262.391 -104.454 813.633
v 260.944 -105.659 813.973
v 262.106 -105.417 812.598
v 261.29 -105.445 813.968
v 266.054 -105.127 812.858
v 266.699 -106.066 812.875
v 266.889 -106.368 814.055
v 265.923 -104.896 813.579
v 266.311 -105.674 811.867
v 266.755 -106.573 811.447
v 265.684 -105.988 810.482
v 265.029 -105.99 810.116
v 262.394 -107.594 809.1
v 262.6 -107.101 809.729
v 263.528 -108.523 815.367
v 261.289 -106.132 812.556
v 265.919 -105.62 811.224
v 263.563 -104.922 811.713
v 265.328 -105.306 811.015
v 264.519 -105.519 810.633
v 264.374 -104.562 811.946
v 262.335 -107.716 813.841
v 262.255 -107.523 811.104
v 261.679 -106.877 813.001
v 265.943 -108.926 813.363
v 265.096 -109.147 811.504
v 264.6 -108.869 814.223
v 263.664 -108.645 813.421
v 264.257 -109.106 809.39
v 265.427 -109.419 809.104
v 266.647 -109.243 810.08
v 267.107 -108.864 811.519
v 263.12 -108.391 810.864
v 267.196 -108.518 813.467
v 261.812 -106.85 810.711
v 265.261 -104.083 813.336
v 265.261 -104.083 813.336
v 268.003 -108.042 813.621
v 263.378 -108.598 807.858
v 264.704 -109.401 807.591
v 265.964 -109.584 808.214
v 267.014 -109.325 809.229
v 267.624 -108.827 810.629
v 267.958 -108.387 812.051
v 264.685 -108.796 815.393
v 265.97 -108.714 815.224
v 267.093 -108.301 814.905
v 267.932 -107.885 814.608
v 267.932 -107.885 814.608
v 261.376 -106.495 814.477
v 262.186 -107.663 815.058
v 264.201 -103.934 813.365
v 262.391 -104.454 813.633
v 260.944 -105.659 813.973
v 260.944 -105.659 813.973
v 261.29 -105.445 813.968
v 266.889 -106.368 814.055
v 265.923 -104.896 813.579
v 262.394 -107.594 809.1
v 263.528 -108.523 815.367
v 261.289 -106.132 812.556
vn -0.309348 0.681267 -0.66346
vn -0.2576 0.753751 -0.604568
vn -0.491688 0.669374 -0.556939
vn -0.427195 0.739215 -0.52064
vn -0.39785 0.789866 -0.466719
vn -0.349238 0.790894 -0.502513
vn -0.250911 0.720367 -0.646618
vn 0.124825 0.909713 -0.39603
vn 0.455006 0.804321 -0.382147
vn 0.176714 0.916369 -0.359221
vn -0.0920988 0.657701 -0.747627
vn -0.079 0.674145 -0.734362
vn 0.129288 0.591298 -0.796022
vn 0.848435 0.501099 -0.170465
vn 0.835116 0.545638 -0.0697232
vn 0.834858 0.549225 -0.0369409
vn 0.398272 0.51665 -0.757926
vn 0.212892 0.593173 -0.776417
vn 0.0289526 0.665509 -0.745828
vn 0.297802 0.468097 -0.831985
vn 0.550948 0.345653 -0.759593
vn 0.425305 0.44512 -0.788025
vn 0.549623 0.509205 -0.662288
vn 0.606946 0.421004 -0.674071
vn 0.690643 0.40673 -0.597983
vn 0.748032 0.424337 -0.510281
vn 0.804585 0.42879 -0.410831
vn 0.82438 0.448003 -0.345963
vn 0.848226 0.46702 -0.249811
vn 0.809687 0.456419 -0.368902
vn 0.721453 0.467603 -0.510738
vn 0.656079 0.56785 -0.497099
vn 0.401496 0.58946 -0.700955
vn 0.0868271 0.441368 0.893116
vn 0.0776742 0.420229 0.904088
vn 0.0901703 0.440738 0.893095
vn 0.0929063 0.443314 0.891538
vn 0.0851411 0.416458 0.90516
vn -0.0245164 0.431211 0.901918
vn 0.0754476 0.464427 0.882392
vn 0.0451453 0.348656 0.936163
vn -0.379985 0.812288 -0.442492
vn -0.096337 0.917588 -0.385684
vn -0.109513 0.947873 -0.299237
vn -0.532854 0.758803 -0.374545
vn -0.554499 0.761985 -0.334529
vn -0.583329 0.685936 -0.434993
vn -0.598651 0.724427 -0.341792
vn 0.788475 0.6075 -0.0961824
vn 0.839308 0.541278 -0.0507919
vn 0.835302 0.549571 -0.0155875
vn 0.811773 0.582706 -0.0384458
vn 0.739732 0.621731 -0.257385
vn 0.809463 0.502189 -0.304263
vn 0.473844 0.641856 -0.602903
vn 0.167131 0.687351 -0.706835
vn -0.252488 0.75839 -0.600912
vn -0.295081 0.802203 -0.519035
vn 0.0824005 0.444095 0.892182
vn -0.518242 0.732297 -0.441775
vn 0.594063 0.688564 -0.415895
vn -0.336666 0.770147 -0.541783
vn 0.346882 0.780107 -0.520678
vn -0.0363444 0.751511 -0.658719
vn -0.0206057 0.855464 -0.517453
vn -0.686206 -0.727257 -0.0148168
vn -0.771351 -0.63553 -0.0334575
vn -0.827544 -0.56015 -0.0374422
vn 0.172612 -0.978986 0.10859
vn -0.0585663 -0.993202 0.100598
vn -0.150538 -0.986274 0.067834
vn -0.408742 -0.911753 0.0404635
vn -0.380723 -0.923281 0.0510074
vn -0.0864596 -0.989398 0.116687
vn 0.16724 -0.972493 0.162135
vn 0.283674 -0.947095 0.150132
vn -0.628057 -0.778166 0.00133912
vn 0.392718 -0.905573 0.160342
vn -0.839122 -0.541685 -0.0495137
vn 0.0620552 0.31699 0.946396
vn 0.756539 0.638821 -0.139845
vn 0.479259 -0.860928 0.170628
vn -0.590675 -0.806901 0.00386966
vn -0.31391 -0.94737 0.0628465
vn -0.0691012 -0.987582 0.141088
vn 0.124819 -0.975815 0.17946
vn 0.329067 -0.926673 0.181638
vn 0.426575 -0.888659 0.168283
vn -0.0522937 -0.995052 0.0844771
vn 0.225717 -0.96828 0.107173
vn 0.407969 -0.900509 0.150484
vn 0.825008 0.563366 -0.0445029
vn 0.485657 -0.857155 0.17153
vn -0.836292 -0.546461 -0.0446847
vn -0.680318 -0.731121 -0.0512824
vn 0.0589911 0.312945 0.947938
vn 0.0373546 0.306233 0.951223
vn -0.23949 0.407835 0.881088
vn -0.874081 -0.483012 -0.0517926
vn -0.0662782 0.383701 0.921076
vn 0.0827881 0.373349 0.923989
vn 0.0633371 0.352754 0.93357
vn -0.755687 -0.65443 -0.0256847
vn -0.406435 -0.913315 0.0258254
vn -0.872219 -0.486166 -0.0536333
g grp1
usemtl mtl1
f 3//3 2//2 1//1 
f 6//6 5//5 4//4 
f 7//7 4//4 1//1 
f 10//10 9//9 8//8 
f 13//13 12//12 11//11 
f 16//16 15//15 14//14 
f 18//18 17//17 13//13 
f 13//13 20//20 19//19 
f 19//19 12//12 13//13 
f 22//22 21//21 20//20 
f 13//13 22//22 20//20 
f 17//17 22//22 13//13 
f 23//23 17//17 18//18 
f 24//24 17//17 23//23 
f 24//24 22//22 17//17 
f 24//24 21//21 22//22 
f 25//25 21//21 24//24 
f 24//24 26//26 25//25 
f 26//26 27//27 25//25 
f 29//29 27//27 28//28 
f 28//28 26//26 30//30 
f 28//28 27//27 26//26 
f 26//26 24//24 23//23 
f 23//23 31//31 26//26 
f 31//31 30//30 26//26 
f 32//32 31//31 23//23 
f 30//30 31//31 32//32 
f 32//32 23//23 33//33 
f 23//23 18//18 33//33 
f 14//14 29//29 28//28 
f 15//15 29//29 14//14 
f 36//36 35//35 34//34 
f 37//37 35//35 36//36 
f 38//38 35//35 37//37 
f 40//40 35//35 39//39 
f 39//39 35//35 41//41 
f 44//44 43//43 42//42 
f 42//42 45//45 44//44 
f 41//41 96//96 97//97 
f 48//48 47//47 46//46 
f 47//47 48//48 45//45 
f 41//41 97//97 100//100 
f 41//41 100//100 39//39 
f 51//51 50//50 49//49 
f 52//52 51//51 49//49 
f 35//35 101//101 102//102 
f 35//35 38//38 101//101 
f 15//15 16//16 92//92 
f 16//16 51//51 92//92 
f 16//16 50//50 51//51 
f 54//54 53//53 14//14 
f 53//53 50//50 14//14 
f 50//50 16//16 14//14 
f 54//54 14//14 30//30 
f 30//30 14//14 28//28 
f 32//32 54//54 30//30 
f 55//55 32//32 33//33 
f 56//56 33//33 18//18 
f 18//18 13//13 11//11 
f 58//58 7//7 57//57 
f 57//57 7//7 12//12 
f 12//12 19//19 57//57 
f 35//35 59//59 34//34 
f 35//35 40//40 59//59 
f 39//39 100//100 98//98 
f 60//60 46//46 47//47 
f 45//45 42//42 47//47 
f 41//41 35//35 102//102 
f 49//49 50//50 53//53 
f 54//54 32//32 53//53 
f 53//53 32//32 61//61 
f 32//32 55//55 61//61 
f 55//55 33//33 56//56 
f 56//56 18//18 11//11 
f 11//11 12//12 7//7 
f 7//7 58//58 4//4 
f 6//6 57//57 5//5 
f 58//58 57//57 6//6 
f 4//4 60//60 47//47 
f 3//3 47//47 42//42 
f 62//62 3//3 42//42 
f 43//43 44//44 8//8 
f 44//44 10//10 8//8 
f 80//80 96//96 41//41 
f 80//80 41//41 102//102 
f 52//52 49//49 81//81 
f 49//49 9//9 81//81 
f 49//49 53//53 9//9 
f 9//9 53//53 63//63 
f 53//53 61//61 63//63 
f 55//55 63//63 61//61 
f 55//55 56//56 63//63 
f 56//56 64//64 63//63 
f 56//56 11//11 64//64 
f 64//64 11//11 1//1 
f 11//11 7//7 1//1 
f 58//58 6//6 4//4 
f 60//60 4//4 5//5 
f 4//4 3//3 1//1 
f 64//64 1//1 2//2 
f 2//2 3//3 62//62 
f 3//3 4//4 47//47 
f 2//2 62//62 65//65 
f 65//65 62//62 42//42 
f 42//42 43//43 65//65 
f 65//65 43//43 8//8 
f 8//8 9//9 65//65 
f 9//9 63//63 65//65 
f 63//63 64//64 65//65 
f 65//65 64//64 2//2 
f 68//68 67//67 66//66 
f 71//71 70//70 69//69 
f 71//71 72//72 70//70 
f 73//73 83//83 84//84 
f 84//84 74//74 73//73 
f 85//85 74//74 84//84 
f 86//86 74//74 85//85 
f 75//75 86//86 87//87 
f 75//75 74//74 86//86 
f 75//75 87//87 76//76 
f 76//76 87//87 88//88 
f 77//77 83//83 73//73 
f 74//74 70//70 73//73 
f 70//70 74//74 75//75 
f 70//70 75//75 76//76 
f 70//70 76//76 69//69 
f 78//78 69//69 76//76 
f 78//78 76//76 88//88 
f 88//88 82//82 78//78 
f 69//69 89//89 71//71 
f 69//69 90//90 89//89 
f 91//91 90//90 69//69 
f 91//91 69//69 78//78 
f 91//91 78//78 82//82 
f 93//93 91//91 82//82 
f 77//77 103//103 83//83 
f 77//77 67//67 103//103 
f 73//73 72//72 77//77 
f 73//73 70//70 72//72 
f 71//71 104//104 72//72 
f 71//71 89//89 104//104 
f 104//104 95//95 66//66 
f 72//72 104//104 66//66 
f 66//66 95//95 94//94 
f 66//66 94//94 68//68 
f 105//105 94//94 99//99 
f 67//67 79//79 103//103 
f 77//77 66//66 67//67 
f 66//66 77//77 72//72 
f 68//68 94//94 105//105 
f 79//79 67//67 68//68 
f 79//79 68//68 105//105 
