v -245.897 -159.396 707.985
v -243.881 -155.307 710.058
v -245.628 -144.793 720.45
v -246.021 -156.799 706.81
v -242.969 -151.684 714.244
v -246.017 -148.371 715.966
v -243.859 -157.14 709.636
v -244.876 -155.498 713.375
v -246.278 -152.183 716.128
v -243.469 -154.461 713.838
v -246.598 -152.148 715.316
v -245.674 -158.379 706.085
v -245.426 -149.401 714.931
v -243.033 -146.556 717.052
v -246.503 -159.358 707.169
v -244.95 -145.462 720.284
v -244.219 -158.945 707.487
v -242.236 -147.732 717
v -246.69 -159.196 707.672
v -244.51 -144.684 720.519
v -244.357 -148.576 718.998
v -244.367 -151.257 713.744
v -242.943 -144.715 720.49
v -244.192 -155.919 712.332
v -246.199 -149.711 717.745
v -244.819 -158.377 709.202
v -243.319 -154.63 712.898
v -246.348 -148.981 717.374
v -245.419 -146.458 717.036
v -241.959 -149.014 717.235
v -246.678 -157.342 706.469
v -246.178 -154.066 714.647
v -245.647 -159.5 707.229
v -245.98 -156.837 711.428
v -241.904 -147.047 718.555
v -243.886 -158.411 707.356
v -243.561 -155.855 710.114
v -244.686 -159.223 707.028
v -246.827 -156.104 710.768
v -242.744 -152.402 714.315
v -243.743 -157.783 707.662
v -242.741 -151.279 716.498
v -246.615 -156.714 711.052
v -252.287 -151.149 715.372
v -252.467 -148.617 715.585
v -251.971 -159.893 704.323
v -250.553 -159.215 706.567
v -252.677 -158.462 704.77
v -249.27 -156.385 710.978
v -251.189 -150.354 716.887
v -249.556 -158.82 707.864
v -251.024 -145.114 720.155
v -251.103 -147.126 715.892
v -252.685 -155.757 709.602
v -249.614 -158.75 703.563
v -249.698 -157.997 703.867
v -249.072 -156.936 706.857
v -248.716 -150.734 714.489
v -251.796 -149.781 713.925
v -252.227 -146.542 717.466
v -248.823 -146.603 716.7
v -249.958 -147.24 715.869
v -252.317 -155.585 708.396
v -249.625 -159.247 706.223
v -252.705 -153.74 711.547
v -251.796 -146.278 717.454
v -251.066 -160.06 703.971
v -248.478 -145.369 719.392
v -249.12 -149.473 714.607
v -248.622 -148.131 715.952
v -249.923 -157.109 710.382
v -251.798 -145.83 718.856
v -250.393 -158.966 703.255
v -249.277 -158.874 705.912
v -252.661 -153.966 712.451
v -248.765 -150.52 715.962
v -252.52 -156.992 706.437
v -252.48 -158.837 703.816
v -249.303 -153.851 714.312
v -248.903 -146.859 719.289
v -251.881 -147.578 715.745
v -252.522 -159.31 704.486
v -252.563 -151.503 713.297
v -250.953 -155.576 712.338
v -250.049 -153.225 714.968
v -249.423 -159.363 704.067
v -248.495 -146.203 717.397
v -252.255 -159.27 703.674
v -248.959 -154.452 711.11
v -251.603 -158.679 703.309
v -249.993 -159.949 704.378
v -249.806 -156.989 705.275
v -252.504 -155.761 710.855
v -248.489 -146.064 719.339
v -249.345 -149.32 717.986
v -249.847 -144.667 720.694
v -249.204 -155.437 708.649
v -251.65 -159.552 703.542
v -252.08 -153.928 710.384
v -248.862 -145.251 719.317
v -250.918 -156.837 704.994
v -250.76 -157.226 709.927
v -251.798 -156.392 710.81
v -250.556 -157.574 703.812
v -251.862 -159.593 705.368
v -250.261 -159.925 705.052
v -251.475 -157.673 703.839
v -249.92 -151.324 716.675
v -252.259 -158.002 704.09
v -249.139 -154.461 713.088
v -252.684 -151.032 714.401
v -251.031 -160.151 704.611
v -248.406 -147.164 717.547
v -249.663 -155.367 712.689
v -252.053 -154.931 712.5
v -249.186 -157.215 709.365
v -251.95 -157.532 708.579
v -250.263 -146.039 717.562
v -251.981 -156.242 706.606
v -250.135 -144.574 721.089
v -251.52 -147.237 718.466
v -249.194 -144.545 721.118
v -249.222 -158.231 704.642
v -249.087 -157.551 707.152
v -248.731 -144.708 720.706
v -249.95 -146.537 719.62
v -250.667 -154.4 709.4
v -250.576 -158.22 703.297
v -252.416 -148.495 716.5
v -250.777 -159.613 703.48
v -249.485 -152.899 711.693
v -250.316 -149.264 717.913
v -249.882 -159.618 703.736
v -249.073 -151.467 716.413
v -250.82 -150.944 712.854
v -252.491 -157.746 707.2
v -251.579 -153.215 714.409
v -243.199 -145.725 717.991
v -243.867 -144.847 720.681
v -245.582 -154.59 714.404
v -246.4 -158.913 708.57
v -245.073 -151.567 716.995
v -244.314 -158.604 706.663
v -246.794 -158.689 704.874
v -246.404 -155.675 708.932
v -246.051 -146.376 718.233
v -241.933 -146.584 718.253
v -246.896 -158.514 708.128
v -246.74 -158.706 705.741
v -242.97 -148.301 716.062
v -245.724 -145.943 718.002
v -244.57 -145.513 718.404
v -244.346 -146.963 716.545
v -244.253 -157.271 707.153
v -245.538 -150.28 717.738
v -245.055 -154.526 710.257
v -245.145 -159.443 707.766
v -244.925 -156.753 707.207
v -243.496 -147.32 719.628
v -244.83 -157.868 706.367
v -242.352 -145.87 718.197
v -242.761 -146.183 719.942
v -242.82 -144.936 719.783
v -245.879 -146.978 719.154
v -243.51 -150.118 718.065
v -243.824 -153.958 714.818
v -242.572 -149.039 718.468
v -245.959 -152.598 712.408
v -245.758 -159.038 706.519
v -245.427 -157.82 710.148
v -245.964 -145.575 719.746
v -244.512 -158.995 708.12
v -244.646 -153.443 715.604
v -242.134 -148.369 718.448
v -242.281 -145.717 719.795
v -246.502 -152.717 712.892
v -242.107 -145.204 719.65
v -246.339 -157.836 705.768
v -245.464 -145.037 719.684
v -246.911 -158.635 706.705
v -246.613 -154.067 714.163
v -244.069 -158.06 706.791
v -245.628 -144.793 720.45
v -245.628 -144.793 720.45
v -245.628 -144.793 720.45
v -246.503 -159.358 707.169
v -246.503 -159.358 707.169
v -246.69 -159.196 707.672
v -244.51 -144.684 720.519
v -242.943 -144.715 720.49
v -242.943 -144.715 720.49
v -246.199 -149.711 717.745
v -246.678 -157.342 706.469
v -243.886 -158.411 707.356
v -243.561 -155.855 710.114
v -242.744 -152.402 714.315
v -243.743 -157.783 707.662
v -252.467 -148.617 715.585
v -249.27 -156.385 710.978
v -249.556 -158.82 707.864
v -249.556 -158.82 707.864
v -251.024 -145.114 720.155
v -252.685 -155.757 709.602
v -249.614 -158.75 703.563
v -248.716 -150.734 714.489
v -252.227 -146.542 717.466
v -248.478 -145.369 719.392
v -248.622 -148.131 715.952
v -251.798 -145.83 718.856
v -252.48 -158.837 703.816
v -249.303 -153.851 714.312
v -249.423 -159.363 704.067
v -249.423 -159.363 704.067
v -248.495 -146.203 717.397
v -248.495 -146.203 717.397
v -252.255 -159.27 703.674
v -251.65 -159.552 703.542
v -252.08 -153.928 710.384
v -249.186 -157.215 709.365
v -250.135 -144.574 721.089
v -249.194 -144.545 721.118
v -248.731 -144.708 720.706
v -248.731 -144.708 720.706
v -249.485 -152.899 711.693
v -249.073 -151.467 716.413
v -243.867 -144.847 720.681
v -244.314 -158.604 706.663
v -246.794 -158.689 704.874
v -246.794 -158.689 704.874
v -246.794 -158.689 704.874
v -246.404 -155.675 708.932
v -246.404 -155.675 708.932
v -246.74 -158.706 705.741
v -246.74 -158.706 705.741
v -246.74 -158.706 705.741
v -246.74 -158.706 705.741
v -245.724 -145.943 718.002
v -245.879 -146.978 719.154
v -245.964 -145.575 719.746
v -245.964 -145.575 719.746
v -246.502 -152.717 712.892
v -242.107 -145.204 719.65
v -242.107 -145.204 719.65
v -246.339 -157.836 705.768
v -246.339 -157.836 705.768
v -245.464 -145.037 719.684
v -246.911 -158.635 706.705
vn -0.102947 -0.921277 0.375035
vn 0.646821 0.555833 -0.522181
vn -0.100288 0.473709 0.874953
vn -0.101473 0.789903 -0.604778
vn 0.669346 0.405036 -0.622833
vn -0.731332 0.456801 -0.506445
vn 0.832145 -0.479607 0.27841
vn 0.116818 -0.783188 0.610713
vn -0.611014 -0.457793 0.645824
vn 0.696622 -0.603307 0.388251
vn -0.987279 -0.045501 0.152348
vn 0.355893 -0.293369 -0.887285
vn -0.104934 0.58822 -0.801864
vn 0.348638 0.595729 -0.723573
vn -0.0389227 -0.87799 -0.477094
vn -0.246895 -0.437661 0.864578
vn 0.722982 -0.690538 0.0213214
vn 0.750752 0.32571 -0.574704
vn -0.339419 -0.89577 0.287038
vn -0.0261605 0.941642 -0.335598
vn -0.139014 -0.460182 0.876874
vn 0.20532 0.589015 -0.781604
vn 0.490689 -0.205033 0.846868
vn 0.495611 -0.733812 0.464639
vn -0.375738 -0.445853 0.812426
vn 0.333389 -0.771648 0.541674
vn 0.88798 -0.42375 0.178685
vn -0.994267 0.0327585 0.101785
vn -0.263175 0.692854 -0.671336
vn 0.9937 -0.0733865 -0.0846984
vn -0.969524 0.226227 -0.0940464
vn -0.426926 -0.623565 0.654905
vn 0.0156392 -0.976603 -0.21448
vn -0.240823 -0.765039 0.59726
vn 0.968581 -0.0907702 0.231541
vn 0.90254 -0.380469 0.201654
vn 0.963403 -0.259723 0.066328
vn 0.392196 -0.839196 -0.376739
vn -0.99885 0.0470998 0.00892508
vn 0.841493 0.288263 -0.45694
vn 0.94832 -0.281025 0.147355
vn 0.759566 -0.49348 0.423719
vn -0.691945 -0.554336 0.462518
vn -0.766415 -0.3575 0.533668
vn -0.63495 0.535189 -0.557145
vn -0.497937 -0.854022 -0.150681
vn -0.126443 -0.882491 0.453014
vn -0.989918 0.0873655 -0.111486
vn 0.495616 -0.716603 0.490761
vn -0.440046 -0.502447 0.744249
vn -0.138849 -0.912486 0.384824
vn -0.207121 0.915039 -0.346127
vn -0.112351 0.730393 -0.673724
vn -0.986679 -0.145714 0.0723266
vn 0.493158 -0.0335144 -0.869294
vn 0.595659 0.534248 -0.599808
vn 0.967856 0.194803 -0.159078
vn 0.770882 0.351945 -0.53092
vn -0.413573 0.581981 -0.700182
vn -0.982024 0.00170491 0.18875
vn 0.361593 0.64937 -0.669006
vn 0.137563 0.686713 -0.713794
vn -0.827893 0.484843 -0.281993
vn 0.527439 -0.819814 0.222965
vn -0.949425 0.214979 -0.228859
vn -0.390459 0.806041 -0.444792
vn -0.0162781 -0.899461 -0.436697
vn 0.339395 0.865866 -0.367541
vn 0.536288 0.474946 -0.697726
vn 0.719921 0.357401 -0.594961
vn 0.112964 -0.827133 0.550536
vn -0.831653 -0.233795 0.50368
vn 0.180434 -0.174739 -0.967941
vn 0.931156 -0.358237 0.0679259
vn -0.904471 -0.284605 0.317698
vn 0.960808 -0.205958 0.18555
vn -0.916065 0.348215 -0.198924
vn -0.517201 0.207696 -0.83028
vn 0.0425436 -0.698012 0.714821
vn 0.552208 -0.481912 0.680314
vn -0.525959 0.613026 -0.589547
vn -0.883372 -0.468649 0.00461741
vn -0.830179 0.375379 -0.412182
vn -0.198436 -0.756273 0.623437
vn -0.0663022 -0.692366 0.718493
vn 0.721202 -0.692365 -0.0223407
vn 0.139449 0.885834 -0.442551
vn -0.714347 -0.590353 -0.375754
vn 0.996057 0.0528891 -0.0712218
vn -0.296844 0.086076 -0.951039
vn 0.435034 -0.897828 -0.0681943
vn 0.477851 0.754384 -0.450071
vn -0.785416 -0.515424 0.342725
vn 0.926239 -0.222911 0.30396
vn 0.118612 -0.527799 0.841046
vn -0.0539653 0.936478 -0.346549
vn 0.698996 0.593733 -0.398605
vn -0.302288 -0.759988 -0.575362
vn -0.131561 0.735285 -0.664867
vn 0.150682 0.907147 -0.39291
vn -0.0235546 0.866214 -0.499117
vn -0.228844 -0.833785 0.502428
vn -0.405785 -0.764191 0.501349
vn 0.162028 0.757854 -0.631985
vn -0.490766 -0.778166 0.391926
vn 0.219891 -0.924583 0.311119
vn -0.27349 0.686618 -0.673616
vn -0.119062 -0.599901 0.791166
vn -0.685679 0.51465 -0.514762
vn 0.895769 -0.356554 0.265457
vn -0.997555 -0.000995911 0.0698745
vn -0.059562 -0.981751 0.180601
vn 0.999591 -0.0196914 -0.0207389
vn 0.284579 -0.745843 0.602273
vn -0.553779 -0.609524 0.567283
vn 0.543852 -0.69743 0.466709
vn -0.479177 -0.760699 0.437867
vn -0.0366351 0.881121 -0.47147
vn -0.488352 0.750695 -0.444937
vn -0.266805 -0.566246 0.779859
vn -0.576991 -0.418057 0.701648
vn 0.176137 -0.589571 0.788278
vn 0.946233 0.199249 -0.254838
vn 0.994244 -0.106279 0.0135347
vn 0.605659 -0.471128 0.641261
vn -0.100972 -0.553806 0.826501
vn 0.0993541 0.813805 -0.572582
vn 0.133924 0.397253 -0.907885
vn -0.939433 -0.120288 0.320931
vn 0.0256831 -0.513231 -0.857866
vn 0.292978 0.680431 -0.671697
vn -0.249898 -0.500591 0.828831
vn 0.422723 -0.622773 -0.658377
vn 0.216041 -0.60445 0.76679
vn 0.084335 0.644853 -0.75964
vn -0.908021 -0.361337 0.211977
vn -0.452254 -0.583258 0.674742
vn 0.102779 0.825154 -0.55548
vn -0.0374614 0.626792 0.778285
vn -0.23778 -0.702566 0.670718
vn -0.440041 -0.73315 0.518512
vn -0.166745 -0.582739 0.795369
vn 0.354442 -0.333363 -0.873636
vn -0.983994 0.164912 -0.0675314
vn -0.208558 0.804637 -0.555935
vn -0.930324 0.309722 -0.196393
vn 0.937267 0.227372 -0.264257
vn -0.921308 -0.318913 0.222456
vn 0.0251495 -0.90789 -0.418454
vn 0.40819 0.458303 -0.789518
vn -0.782118 0.524389 -0.336613
vn -0.0451496 0.877669 -0.477136
vn 0.0554037 0.650926 -0.757116
vn 0.661295 0.510273 -0.549828
vn -0.300737 -0.478263 0.825119
vn 0.15874 0.761771 -0.628098
vn 0.28174 -0.931155 0.23146
vn 0.337909 0.684987 -0.645453
vn 0.021717 -0.430448 0.902354
vn 0.430409 0.247704 -0.867981
vn 0.522896 0.666303 -0.53162
vn 0.394168 -0.347083 0.850979
vn 0.13721 0.920111 -0.366836
vn -0.308386 -0.395152 0.865305
vn 0.19821 -0.577745 0.791785
vn 0.389764 -0.684994 0.615522
vn 0.457347 -0.48465 0.745619
vn -0.231117 0.676488 -0.699249
vn 0.163908 -0.736815 -0.655925
vn 0.0719569 -0.810429 0.581401
vn -0.375623 -0.460511 0.804262
vn 0.553266 -0.7305 0.400333
vn 0.0566037 -0.674176 0.736399
vn 0.785832 -0.336038 0.519179
vn 0.722204 -0.203979 0.660919
vn -0.979205 0.168049 -0.113652
vn 0.821012 0.454077 -0.346055
vn 0.0218238 0.705955 -0.70792
vn -0.0901647 0.921727 -0.377214
vn -0.980786 -0.185589 -0.0601317
vn -0.864865 -0.338267 0.370922
vn 0.784305 0.108536 -0.610808
vn -0.0719244 0.945667 -0.317082
vn -0.242517 -0.457313 0.855599
vn -0.706136 0.616724 -0.347885
vn -0.239748 -0.961679 0.133018
vn -0.829815 -0.545126 -0.119349
vn -0.876143 -0.469981 0.107196
vn -0.0374614 0.626792 0.778285
vn 0.16014 0.949806 -0.268746
vn 0.0267415 0.756856 0.653035
vn -0.948835 -0.107269 0.296995
vn -0.285694 0.758175 -0.58613
vn 0.875152 -0.303032 -0.377202
vn 0.8025 0.419552 -0.424229
vn 0.932686 -0.333964 0.136253
vn 0.880848 0.259855 -0.395705
vn -0.993914 0.106096 -0.0296245
vn 0.979707 -0.165559 0.112978
vn 0.861729 -0.488569 0.136834
vn 0.60841 -0.612452 0.504717
vn -0.61619 -0.397124 0.680149
vn -0.852421 0.42493 -0.304654
vn 0.906146 0.14274 -0.398152
vn 0.997895 -0.06069 -0.0228614
vn -0.470941 0.74728 -0.468815
vn 0.997275 0.0118865 0.0728034
vn 0.983342 0.0621678 -0.170804
vn -0.429226 0.860105 -0.275653
vn -0.960951 -0.0515584 -0.271872
vn 0.814925 -0.467884 0.342026
vn 0.666768 -0.337962 -0.664231
vn 0.978098 -0.0753972 -0.194011
vn 0.991235 0.0752421 -0.108591
vn 0.739333 0.372003 -0.561249
vn -0.411586 -0.105615 -0.905231
vn -0.199023 -0.242473 -0.949524
vn -0.78544 0.461353 -0.412598
vn 0.971576 -0.212282 0.104771
vn -0.104992 0.948234 -0.299716
vn 0.00815701 0.957934 -0.286872
vn 0.14008 0.922707 -0.35915
vn 0.97862 -0.0304433 0.203412
vn 0.819503 0.38675 -0.422895
vn 0.93696 -0.25281 0.241232
vn 0.0429807 -0.365778 0.929709
vn 0.785414 -0.493302 -0.373868
vn 0.907084 -0.415854 -0.065297
vn -0.358191 -0.933635 0.0050409
vn -0.191856 0.75657 -0.625134
vn -0.94869 0.2761 -0.154133
vn -0.583204 0.643843 -0.495316
vn 0.382614 -0.342572 -0.85805
vn 0.907084 -0.415854 -0.065297
vn -0.358191 -0.933635 0.0050409
vn -0.834233 -0.540636 -0.108477
vn -0.158034 0.866262 -0.473935
vn -0.897313 -0.156788 0.412611
vn -0.845749 0.490346 -0.210402
vn -0.815303 -0.266287 0.514172
vn -0.613091 0.570002 -0.547007
vn 0.905063 -0.0414971 0.423249
vn 0.27556 0.899692 -0.338556
vn 0.353162 -0.111161 -0.928935
vn 0.907084 -0.415854 -0.065297
vn -0.716732 0.632952 -0.29269
vn -0.358191 -0.933635 0.0050409
g grp1
usemtl mtl1
f 88//88 46//46 82//82 
f 90//90 216//216 78//78 
f 210//210 88//88 82//82 
f 46//46 98//98 67//67 
f 88//88 98//98 46//46 
f 216//216 90//90 217//217 
f 119//119 107//107 109//109 
f 136//136 48//48 82//82 
f 137//137 50//50 44//44 
f 103//103 84//84 115//115 
f 46//46 112//112 105//105 
f 119//119 99//99 127//127 
f 59//59 135//135 99//99 
f 81//81 66//66 53//53 
f 115//115 93//93 103//103 
f 137//137 75//75 115//115 
f 129//129 44//44 121//121 
f 60//60 129//129 72//72 
f 46//46 67//67 112//112 
f 119//119 127//127 101//101 
f 127//127 99//99 135//135 
f 59//59 81//81 53//53 
f 121//121 50//50 132//132 
f 84//84 85//85 137//137 
f 112//112 106//106 47//47 
f 130//130 90//90 73//73 
f 128//128 73//73 90//90 
f 107//107 101//101 104//104 
f 59//59 53//53 135//135 
f 121//121 132//132 126//126 
f 117//117 47//47 102//102 
f 137//137 85//85 108//108 
f 84//84 71//71 114//114 
f 67//67 133//133 91//91 
f 135//135 53//53 62//62 
f 47//47 51//51 71//71 
f 80//80 94//94 125//125 
f 70//70 69//69 61//61 
f 100//100 96//96 222//222 
f 85//85 134//134 108//108 
f 122//122 126//126 80//80 
f 53//53 118//118 62//62 
f 131//131 135//135 69//69 
f 126//126 132//132 95//95 
f 85//85 114//114 79//79 
f 120//120 126//126 122//122 
f 87//87 118//118 100//100 
f 62//62 69//69 135//135 
f 104//104 92//92 56//56 
f 104//104 56//56 128//128 
f 128//128 55//55 73//73 
f 95//95 134//134 80//80 
f 64//64 86//86 74//74 
f 133//133 55//55 212//212 
f 56//56 123//123 204//204 
f 92//92 123//123 56//56 
f 64//64 106//106 91//91 
f 133//133 86//86 91//91 
f 73//73 55//55 133//133 
f 92//92 97//97 123//123 
f 92//92 127//127 97//97 
f 64//64 91//91 86//86 
f 106//106 64//64 47//47 
f 128//128 56//56 55//55 
f 101//101 127//127 92//92 
f 127//127 131//131 97//97 
f 108//108 95//95 132//132 
f 134//134 95//95 108//108 
f 123//123 97//97 57//57 
f 134//134 85//85 79//79 
f 95//95 80//80 126//126 
f 222//222 96//96 221//221 
f 66//66 52//52 118//118 
f 62//62 61//61 69//69 
f 68//68 87//87 100//100 
f 114//114 71//71 49//49 
f 71//71 116//116 49//49 
f 80//80 125//125 122//122 
f 69//69 58//58 224//224 
f 224//224 58//58 89//89 
f 224//224 89//89 97//97 
f 47//47 64//64 51//51 
f 84//84 114//114 85//85 
f 118//118 96//96 100//100 
f 104//104 101//101 92//92 
f 130//130 73//73 133//133 
f 47//47 71//71 102//102 
f 132//132 50//50 108//108 
f 120//120 121//121 126//126 
f 127//127 135//135 131//131 
f 67//67 130//130 133//133 
f 112//112 67//67 91//91 
f 112//112 91//91 106//106 
f 137//137 108//108 50//50 
f 202//202 121//121 120//120 
f 96//96 118//118 52//52 
f 118//118 61//61 62//62 
f 66//66 209//209 52//52 
f 128//128 107//107 104//104 
f 102//102 71//71 84//84 
f 222//222 68//68 100//100 
f 61//61 118//118 87//87 
f 130//130 217//217 90//90 
f 67//67 98//98 130//130 
f 105//105 112//112 47//47 
f 220//220 96//96 52//52 
f 83//83 45//45 59//59 
f 83//83 59//59 218//218 
f 136//136 93//93 54//54 
f 75//75 93//93 115//115 
f 129//129 60//60 198//198 
f 54//54 93//93 75//75 
f 75//75 44//44 111//111 
f 198//198 111//111 129//129 
f 198//198 83//83 111//111 
f 65//65 75//75 111//111 
f 83//83 65//65 111//111 
f 65//65 54//54 75//75 
f 83//83 218//218 65//65 
f 44//44 129//129 111//111 
f 203//203 65//65 218//218 
f 203//203 218//218 63//63 
f 77//77 63//63 119//119 
f 77//77 203//203 63//63 
f 77//77 136//136 54//54 
f 136//136 77//77 48//48 
f 81//81 59//59 45//45 
f 66//66 81//81 45//45 
f 66//66 45//45 206//206 
f 44//44 75//75 137//137 
f 93//93 117//117 103//103 
f 136//136 117//117 93//93 
f 221//221 96//96 220//220 
f 209//209 66//66 206//206 
f 63//63 218//218 119//119 
f 107//107 119//119 101//101 
f 90//90 107//107 128//128 
f 117//117 105//105 47//47 
f 117//117 102//102 103//103 
f 103//103 102//102 84//84 
f 115//115 84//84 137//137 
f 121//121 44//44 50//50 
f 72//72 121//121 202//202 
f 118//118 53//53 66//66 
f 72//72 129//129 121//121 
f 136//136 105//105 117//117 
f 90//90 78//78 109//109 
f 109//109 210//210 48//48 
f 77//77 119//119 109//109 
f 48//48 77//77 109//109 
f 90//90 109//109 107//107 
f 82//82 46//46 105//105 
f 105//105 136//136 82//82 
f 210//210 82//82 48//48 
f 74//74 219//219 200//200 
f 113//113 205//205 208//208 
f 89//89 205//205 76//76 
f 110//110 89//89 76//76 
f 124//124 74//74 123//123 
f 214//214 207//207 113//113 
f 61//61 215//215 70//70 
f 110//110 199//199 89//89 
f 89//89 57//57 97//97 
f 114//114 49//49 110//110 
f 74//74 213//213 123//123 
f 94//94 80//80 76//76 
f 76//76 80//80 225//225 
f 124//124 123//123 57//57 
f 225//225 211//211 110//110 
f 213//213 204//204 123//123 
f 58//58 69//69 70//70 
f 74//74 200//200 64//64 
f 225//225 110//110 76//76 
f 124//124 219//219 74//74 
f 76//76 205//205 113//113 
f 201//201 116//116 71//71 
f 219//219 124//124 89//89 
f 113//113 207//207 94//94 
f 219//219 89//89 199//199 
f 223//223 94//94 207//207 
f 214//214 113//113 208//208 
f 94//94 76//76 113//113 
f 211//211 114//114 110//110 
f 124//124 57//57 89//89 
f 161//161 147//147 18//18 
f 161//161 177//177 147//147 
f 147//147 242//242 35//35 
f 8//8 173//173 140//140 
f 34//34 8//8 140//140 
f 242//242 175//175 35//35 
f 178//178 158//158 160//160 
f 172//172 7//7 26//26 
f 154//154 158//158 2//2 
f 38//38 17//17 157//157 
f 2//2 158//158 156//156 
f 169//169 33//33 15//15 
f 143//143 160//160 182//182 
f 163//163 161//161 138//138 
f 14//14 138//138 161//161 
f 15//15 149//149 169//169 
f 144//144 180//180 31//31 
f 165//165 167//167 159//159 
f 162//162 167//167 174//174 
f 233//233 12//12 169//169 
f 157//157 172//172 26//26 
f 162//162 159//159 167//167 
f 233//233 244//244 12//12 
f 175//175 162//162 174//174 
f 175//175 174//174 35//35 
f 244//244 160//160 12//12 
f 172//172 17//17 7//7 
f 152//152 163//163 138//138 
f 170//170 8//8 34//34 
f 26//26 7//7 24//24 
f 37//37 7//7 41//41 
f 153//153 150//150 22//22 
f 153//153 14//14 150//150 
f 7//7 36//36 41//41 
f 5//5 150//150 18//18 
f 19//19 1//1 141//141 
f 33//33 169//169 38//38 
f 23//23 175//175 242//242 
f 170//170 141//141 1//1 
f 186//186 1//1 19//19 
f 33//33 38//38 157//157 
f 9//9 32//32 142//142 
f 1//1 26//26 170//170 
f 142//142 21//21 155//155 
f 181//181 32//32 9//9 
f 9//9 142//142 155//155 
f 161//161 163//163 243//243 
f 161//161 18//18 14//14 
f 243//243 163//163 190//190 
f 141//141 148//148 188//188 
f 180//180 188//188 148//148 
f 180//180 187//187 188//188 
f 234//234 228//228 245//245 
f 235//235 247//247 229//229 
f 12//12 143//143 169//169 
f 180//180 236//236 187//187 
f 160//160 143//143 12//12 
f 160//160 158//158 154//154 
f 227//227 194//194 17//17 
f 157//157 26//26 1//1 
f 17//17 38//38 227//227 
f 165//165 173//173 166//166 
f 230//230 193//193 178//178 
f 157//157 17//17 172//172 
f 169//169 143//143 38//38 
f 186//186 33//33 1//1 
f 20//20 163//163 152//152 
f 173//173 8//8 166//166 
f 166//166 8//8 24//24 
f 26//26 24//24 170//170 
f 190//190 163//163 20//20 
f 164//164 25//25 155//155 
f 160//160 154//154 182//182 
f 150//150 14//14 18//18 
f 23//23 162//162 175//175 
f 34//34 141//141 170//170 
f 153//153 152//152 138//138 
f 155//155 21//21 164//164 
f 8//8 170//170 24//24 
f 25//25 9//9 155//155 
f 22//22 150//150 5//5 
f 138//138 14//14 153//153 
f 27//27 7//7 37//37 
f 17//17 36//36 7//7 
f 24//24 7//7 27//27 
f 1//1 33//33 157//157 
f 182//182 194//194 227//227 
f 182//182 197//197 194//194 
f 139//139 189//189 3//3 
f 147//147 35//35 30//30 
f 183//183 20//20 179//179 
f 193//193 145//145 4//4 
f 226//226 162//162 23//23 
f 2//2 40//40 195//195 
f 4//4 178//178 193//193 
f 226//226 159//159 162//162 
f 31//31 180//180 39//39 
f 171//171 16//16 184//184 
f 142//142 32//32 140//140 
f 6//6 28//28 146//146 
f 28//28 239//239 146//146 
f 32//32 43//43 140//140 
f 181//181 9//9 11//11 
f 28//28 11//11 192//192 
f 142//142 140//140 173//173 
f 185//185 246//246 239//239 
f 231//231 39//39 176//176 
f 21//21 142//142 165//165 
f 240//240 28//28 238//238 
f 246//246 151//151 239//239 
f 39//39 11//11 176//176 
f 27//27 37//37 196//196 
f 142//142 173//173 165//165 
f 171//171 164//164 16//16 
f 9//9 192//192 11//11 
f 11//11 39//39 181//181 
f 164//164 21//21 159//159 
f 164//164 159//159 16//16 
f 21//21 165//165 159//159 
f 239//239 151//151 146//146 
f 43//43 34//34 140//140 
f 4//4 158//158 178//178 
f 4//4 145//145 156//156 
f 28//28 192//192 238//238 
f 29//29 152//152 153//153 
f 226//226 16//16 159//159 
f 6//6 151//151 29//29 
f 151//151 6//6 146//146 
f 4//4 156//156 158//158 
f 31//31 39//39 231//231 
f 232//232 241//241 168//168 
f 139//139 191//191 189//189 
f 154//154 2//2 195//195 
f 29//29 237//237 152//152 
f 179//179 152//152 237//237 
f 29//29 13//13 6//6 
f 29//29 153//153 13//13 
f 20//20 152//152 179//179 
f 184//184 16//16 226//226 
f 196//196 30//30 42//42 
f 28//28 176//176 11//11 
f 30//30 35//35 174//174 
f 145//145 168//168 156//156 
f 167//167 165//165 42//42 
f 10//10 42//42 166//166 
f 42//42 27//27 196//196 
f 166//166 24//24 10//10 
f 24//24 27//27 10//10 
f 165//165 166//166 42//42 
f 42//42 30//30 174//174 
f 13//13 153//153 22//22 
f 30//30 5//5 18//18 
f 2//2 156//156 5//5 
f 156//156 22//22 5//5 
f 39//39 43//43 181//181 
f 42//42 174//174 167//167 
f 168//168 22//22 156//156 
f 10//10 27//27 42//42 
f 43//43 141//141 34//34 
f 30//30 18//18 147//147 
f 182//182 154//154 197//197 
f 40//40 2//2 5//5 
f 176//176 28//28 6//6 
f 168//168 13//13 22//22 
f 43//43 32//32 181//181 
f 39//39 180//180 148//148 
f 168//168 241//241 6//6 
f 30//30 40//40 5//5 
f 13//13 168//168 6//6 
f 148//148 141//141 43//43 
f 195//195 197//197 154//154 
f 148//148 43//43 39//39 
