v 287.644 -152.023 709.1
v 287.535 -152.437 708.163
v 286.454 -152.073 709.267
v 286.901 -145.967 711.947
v 286.217 -145.909 711.644
v 287.24 -147.323 711.233
v 286.566 -145.015 713.069
v 286.78 -145.733 713.376
v 286.173 -144.563 714.039
v 287.016 -146.9 713.644
v 287.066 -147.977 713.53
v 286.109 -147.336 713.92
v 286.901 -152.53 708.094
v 287.347 -149.225 713.067
v 285.89 -148.785 713.493
v 287.169 -152.198 708.244
v 286.485 -152.013 708.451
v 285.599 -144.065 714.405
v 285.803 -144.24 714.849
v 285.274 -143.901 715.074
v 287.092 -150.862 711.589
v 285.942 -150.591 712.274
v 286.516 -150.3 712.615
v 286.446 -152.494 708.232
v 286.039 -145.131 712.106
v 284.934 -145.444 711.769
v 285.71 -152.167 708.985
v 285.858 -152.185 708.603
v 285.798 -151.079 711.473
v 286.238 -147.785 710.835
v 284.81 -146.407 711.401
v 285.369 -147.704 710.922
v 284.278 -143.669 714.876
v 286.202 -149.714 713.04
v 285.468 -149.974 712.758
v 284.923 -143.998 713.994
v 284.93 -144.162 715.197
v 284.199 -143.589 715.516
v 284.909 -148.916 713.284
v 285.264 -149.268 710.38
v 285.48 -151.415 709.154
v 286.844 -150.264 709.546
v 284.716 -146.826 714.217
v 284.819 -145.224 714.8
v 283.754 -144.318 715.27
v 285.177 -151.825 709.759
v 285.224 -151.374 710.856
v 283.822 -143.633 715.613
v 284.807 -151.093 710.034
v 284.653 -144.635 712.401
v 283.423 -144.396 712.738
v 283.957 -144.806 712.223
v 283.58 -144.008 713.684
v 284.058 -146.912 714.045
v 284.865 -151.553 710.409
v 284.701 -150.635 711.586
v 284.524 -149.544 712.662
v 283.375 -145.237 714.682
v 283.551 -145.502 712.002
v 284.227 -147.513 711.288
v 283.267 -143.525 715.236
v 282.957 -143.521 715.572
v 283.098 -145.857 714.124
v 283.886 -147.852 713.393
v 284.148 -149.396 712.201
v 283.35 -147.552 712.668
v 283.098 -146.761 713.365
v 282.73 -144.246 715.044
v 284.108 -148.534 711.21
v 283.16 -146.437 712.143
v 283.731 -148.406 711.796
v 282.38 -143.702 714.674
v 282.193 -143.993 714.163
v 282.433 -144.149 713.485
v 282.615 -145.754 713.4
v 282.351 -144.447 714.392
v 282.348 -144.867 713.413
v 282.458 -143.682 715.222
v 282.68 -145.876 712.787
v 282.683 -145.063 712.701
v 282.954 -144.598 712.697
v 282.705 -143.473 715.428
v 284.311 -149.797 710.859
v 284.375 -150.336 711.106
v 284.802 -150.133 710.192
v 285.125 -150.518 712.119
v 285.543 -144.603 712.729
v 285.689 -144.976 714.686
v 287.35 -150.107 712.604
v 286.214 -145.301 714.365
v 287.689 -149.027 710.38
v 286.103 -144.562 713.238
v 287.35 -146.824 711.734
v 286.695 -145.366 712.472
v 287.645 -148.583 713.051
v 288.306 -151.325 710.19
v 288.138 -150.535 711.591
v 288.052 -150.036 712.235
v 288.403 -152.166 708.527
v 288.197 -152.159 708.377
v 288.376 -149.49 710.336
v 288.361 -151.071 709.125
v 288.355 -149.787 711.727
v 288.024 -149.492 712.516
v 288.637 -150.189 710.422
v 287.896 -148.076 711.342
v 287.98 -148.557 712.095
v 288.87 -151.146 709.255
v 288.972 -151.47 709.283
v 288.688 -151.105 710.309
v 288.781 -151.91 708.658
v 288.552 -150.389 711.016
v 287.39 -146.937 712.414
v 294.236 -152.403 711.655
v 293.289 -150.61 713.045
v 294.307 -150.101 712.921
v 293.044 -148.1 714.354
v 291.924 -148.319 714.354
v 292.92 -151.678 712.268
v 291.572 -149.961 713.086
v 292.586 -152.701 711.189
v 294.774 -154.082 705.785
v 293.943 -154.494 705.731
v 294.28 -154.904 705.045
v 293.358 -153.516 707.233
v 292.581 -152.209 709.18
v 292.939 -153.491 708.268
v 292.657 -153.089 709.862
v 290.991 -148.503 713.079
v 290.531 -146.101 715.385
v 290.321 -143.84 716.696
v 289.631 -142.954 717.018
v 290.867 -143.214 716.13
v 290.62 -142.976 717.017
v 291.615 -144.415 716.306
v 293.688 -153.31 710.829
v 293.86 -154.038 709.33
v 294.479 -154.728 706.204
v 293.502 -154.474 707.155
v 295.682 -154.869 704.522
v 296.439 -154.604 704.903
v 295.237 -152.057 708.524
v 296.593 -153.623 707.319
v 295.549 -151.118 710.112
v 296.602 -154.091 705.96
v 296.763 -154.373 706.13
v 296.5 -153.581 708.449
v 295.666 -154.273 707.819
v 295.035 -153.66 710.028
v 295.98 -153.511 709.761
v 295.173 -152.376 711.245
v 295.408 -151.359 711.312
v 294.397 -148.475 713.151
v 294.581 -148.349 712.278
v 293.661 -146.246 713.138
v 293.134 -144.604 714.288
v 292.268 -144.763 713.572
v 293.255 -145.161 714.788
v 292.983 -145.716 715.23
v 291.791 -143.332 716.57
v 292.373 -143.531 715.817
v 292.522 -143.827 714.863
v 290.843 -143.868 714.534
v 291.182 -144.772 713.375
v 290.344 -144.775 713.692
v 289.767 -143.476 715.626
v 289.641 -144.375 715.869
v 290.017 -145.179 714.471
v 291.012 -147.149 712.388
v 291.617 -146.943 711.997
v 292.645 -146.894 712.025
v 294.12 -149.606 710.539
v 293.013 -150.456 709.685
v 291.813 -150.148 710.715
v 294.874 -152.945 707.224
v 295.961 -154.747 705.227
v 287.535 -152.437 708.163
v 287.535 -152.437 708.163
v 286.901 -145.967 711.947
v 287.016 -146.9 713.644
v 286.901 -152.53 708.094
v 285.803 -144.24 714.849
v 285.803 -144.24 714.849
v 285.274 -143.901 715.074
v 286.446 -152.494 708.232
v 286.446 -152.494 708.232
v 285.71 -152.167 708.985
v 285.71 -152.167 708.985
v 285.858 -152.185 708.603
v 285.858 -152.185 708.603
v 284.199 -143.589 715.516
v 285.177 -151.825 709.759
v 283.822 -143.633 715.613
v 284.865 -151.553 710.409
v 282.957 -143.521 715.572
v 284.108 -148.534 711.21
v 282.38 -143.702 714.674
v 282.38 -143.702 714.674
v 282.193 -143.993 714.163
v 282.193 -143.993 714.163
v 282.433 -144.149 713.485
v 282.458 -143.682 715.222
v 282.458 -143.682 715.222
v 282.705 -143.473 715.428
v 282.705 -143.473 715.428
v 286.214 -145.301 714.365
v 287.35 -146.824 711.734
v 286.695 -145.366 712.472
v 287.645 -148.583 713.051
v 288.403 -152.166 708.527
v 288.197 -152.159 708.377
v 288.376 -149.49 710.336
v 288.024 -149.492 712.516
v 288.87 -151.146 709.255
v 288.972 -151.47 709.283
v 288.688 -151.105 710.309
v 288.688 -151.105 710.309
v 288.781 -151.91 708.658
v 288.781 -151.91 708.658
v 288.781 -151.91 708.658
v 291.572 -149.961 713.086
v 292.586 -152.701 711.189
v 293.943 -154.494 705.731
v 293.943 -154.494 705.731
v 294.28 -154.904 705.045
v 294.28 -154.904 705.045
v 293.358 -153.516 707.233
v 292.581 -152.209 709.18
v 292.657 -153.089 709.862
v 289.631 -142.954 717.018
v 289.631 -142.954 717.018
v 290.62 -142.976 717.017
v 293.502 -154.474 707.155
v 295.682 -154.869 704.522
v 296.439 -154.604 704.903
v 296.439 -154.604 704.903
v 295.237 -152.057 708.524
v 295.549 -151.118 710.112
v 296.602 -154.091 705.96
v 296.763 -154.373 706.13
v 296.5 -153.581 708.449
v 295.98 -153.511 709.761
v 295.98 -153.511 709.761
v 294.581 -148.349 712.278
v 293.661 -146.246 713.138
v 293.134 -144.604 714.288
v 291.791 -143.332 716.57
v 291.791 -143.332 716.57
v 292.373 -143.531 715.817
v 292.373 -143.531 715.817
v 292.522 -143.827 714.863
v 290.344 -144.775 713.692
v 289.767 -143.476 715.626
v 289.641 -144.375 715.869
v 291.012 -147.149 712.388
v 293.013 -150.456 709.685
v 291.813 -150.148 710.715
vn 0.135222 -0.895019 0.425037
vn 0.102497 -0.914518 0.391344
vn 0.0409164 -0.915473 0.400294
vn 0.486587 0.549634 -0.67907
vn 0.224125 0.476845 -0.849934
vn 0.436751 0.498414 -0.748888
vn 0.830938 0.555409 -0.032613
vn 0.923668 0.304333 0.23285
vn 0.830139 0.537762 0.147242
vn 0.440331 -0.120614 0.889697
vn 0.405707 -0.166873 0.898641
vn 0.232311 -0.257193 0.938021
vn 0.0662689 -0.921033 0.383806
vn 0.339586 -0.343788 0.875495
vn 0.0327029 -0.379648 0.924553
vn -0.00103365 0.490387 -0.871504
vn -0.225159 0.478864 -0.848524
vn 0.441554 0.891643 -0.100008
vn 0.608327 0.792979 0.0335125
vn 0.355604 0.933489 -0.0463039
vn 0.164151 -0.853729 0.494167
vn -0.0532593 -0.790073 0.610695
vn 0.05199 -0.70848 0.703813
vn 0.0073338 -0.926396 0.376478
vn 0.299813 0.690955 -0.657794
vn -0.0135249 0.476601 -0.879015
vn -0.0282698 -0.923919 0.381543
vn -0.322115 0.427067 -0.8449
vn -0.0220546 -0.870258 0.492102
vn 0.0182368 0.399342 -0.916621
vn -0.159492 0.306824 -0.938308
vn -0.157634 0.305787 -0.93896
vn 0.151608 0.970535 -0.187289
vn 0.0163994 -0.501321 0.865106
vn -0.203961 -0.611764 0.764294
vn 0.171888 0.937216 -0.303448
vn 0.258627 -0.247844 0.933641
vn 0.317969 -0.11754 0.940787
vn -0.252844 -0.478396 0.840956
vn -0.291221 0.35915 -0.88668
vn -0.580637 0.263333 -0.7704
vn -0.0452828 0.521291 -0.852176
vn -0.064887 -0.387379 0.919634
vn 0.143398 -0.337124 0.930475
vn -0.0639315 -0.440252 0.895595
vn -0.0251599 -0.923431 0.382939
vn -0.152973 -0.869054 0.470473
vn 0.0954237 -0.366879 0.925362
vn -0.884409 -0.14868 -0.442396
vn 0.0731576 0.79844 -0.597614
vn -0.0994729 0.821708 -0.56116
vn -0.136348 0.586864 -0.798123
vn 0.0313671 0.93722 -0.347326
vn -0.335054 -0.450028 0.827776
vn -0.164118 -0.862974 0.47785
vn -0.628855 -0.640097 0.441382
vn -0.532839 -0.56647 0.628645
vn -0.296258 -0.467472 0.832888
vn -0.374553 0.286282 -0.881903
vn -0.404044 0.196958 -0.893284
vn 0.0504576 0.996368 -0.068598
vn -0.317605 -0.415302 0.852438
vn -0.611366 -0.478663 0.63017
vn -0.627057 -0.495012 0.601467
vn -0.843552 -0.460024 0.277125
vn -0.910964 -0.409645 0.0483246
vn -0.791658 -0.468365 0.392317
vn -0.444196 -0.501654 0.742316
vn -0.830861 -0.0333311 -0.555481
vn -0.783296 -0.0639344 -0.618352
vn -0.941837 -0.234708 -0.240533
vn -0.118163 0.938691 -0.323877
vn -0.40132 0.851317 -0.337938
vn -0.197527 0.883133 -0.42551
vn -0.902077 -0.385698 0.193631
vn -0.882765 -0.319119 0.344804
vn -0.978029 -0.104078 -0.180632
vn -0.989824 -0.0153777 0.14146
vn -0.92944 -0.222496 -0.294341
vn -0.754433 0.145544 -0.640037
vn -0.404466 0.518009 -0.753706
vn -0.677666 0.732053 0.0697605
vn -0.884827 -0.0594144 -0.462115
vn -0.935642 -0.352881 -0.00692434
vn -0.654093 0.213429 -0.725679
vn -0.307418 -0.739427 0.59895
vn 0.247336 0.874591 -0.417032
vn 0.312035 -0.272588 0.910126
vn 0.273811 -0.63961 0.71828
vn 0.390078 -0.229206 0.891798
vn 0.188661 0.513225 -0.837262
vn 0.485976 0.833897 -0.261616
vn 0.631673 0.474651 -0.61294
vn 0.508626 0.752317 -0.418711
vn 0.549758 -0.167401 0.818378
vn 0.302376 -0.838292 0.453691
vn 0.488154 -0.687985 0.537012
vn 0.678831 -0.408708 0.610038
vn 0.234173 -0.872751 0.428333
vn 0.499023 -0.498083 -0.709146
vn 0.298744 0.54777 -0.781473
vn 0.198316 0.563323 -0.802083
vn 0.951675 0.0332598 0.3053
vn 0.927448 0.0672319 0.367859
vn 0.973256 0.215758 0.0788709
vn 0.894546 0.418682 -0.156502
vn 0.940951 0.253384 0.224516
vn 0.280949 0.576155 -0.767537
vn 0.977789 0.194184 -0.0788786
vn 0.977999 0.0289204 0.206597
vn 0.87012 0.236509 -0.432383
vn 0.919787 -0.174176 0.351646
vn 0.926789 0.363584 0.0941761
vn 0.21091 -0.607544 0.765772
vn 0.130274 -0.50535 0.853024
vn 0.540236 -0.313461 0.780953
vn 0.363173 -0.348423 0.864122
vn -0.0857943 -0.507074 0.857622
vn -0.14558 -0.62185 0.769486
vn -0.296 -0.576833 0.761346
vn -0.367659 -0.773803 0.515806
vn -0.231438 0.762565 -0.604096
vn -0.324005 0.731892 -0.599462
vn -0.290482 0.730705 -0.617812
vn -0.33426 0.720217 -0.607912
vn -0.387198 0.631356 -0.671913
vn -0.953091 -0.190997 -0.234814
vn -0.94643 -0.314758 -0.0720894
vn -0.955106 -0.292978 -0.0439982
vn -0.547879 -0.524217 0.65194
vn -0.0540204 -0.44084 0.895959
vn -0.312346 -0.468325 0.826506
vn 0.0731547 0.95665 -0.281904
vn 0.119152 0.96679 -0.226099
vn 0.226895 -0.357506 0.905929
vn -0.0601264 -0.794036 0.60489
vn -0.188427 -0.935511 0.298857
vn -0.0884836 -0.984396 0.1521
vn -0.315225 -0.940621 0.125962
vn 0.156752 -0.981836 0.106898
vn 0.0458393 0.8386 -0.542815
vn 0.535111 0.726884 -0.43046
vn 0.843604 0.509971 -0.168113
vn 0.485675 0.686656 -0.540947
vn 0.826921 0.510603 -0.235556
vn 0.948257 0.292598 -0.12327
vn 0.970726 0.167634 0.172016
vn 0.235006 -0.933314 0.271471
vn 0.234621 -0.846632 0.477668
vn 0.188967 -0.973757 0.12684
vn 0.519667 -0.467933 0.714832
vn 0.893216 -0.0155154 0.44936
vn 0.865642 0.0140088 0.500467
vn 0.953695 0.267778 0.136967
vn 0.476818 0.579811 -0.660654
vn 0.399373 0.665459 -0.630607
vn 0.260232 0.69622 -0.668997
vn 0.918988 0.259345 0.296988
vn 0.636295 -0.157622 0.755172
vn 0.801496 0.0619177 0.594787
vn 0.79663 0.0506658 0.60234
vn 0.870923 0.470251 0.142677
vn -0.0640442 0.837433 -0.542774
vn -0.0665512 0.64412 -0.762024
vn -0.382092 0.564529 -0.731651
vn -0.149305 0.88017 -0.450565
vn -0.982251 -0.0243475 -0.185986
vn -0.952999 -0.0523 -0.298426
vn -0.940854 -0.0987473 -0.324103
vn -0.311751 0.433998 -0.845255
vn 0.190205 0.577992 -0.793566
vn 0.408063 0.620501 -0.669674
vn 0.131505 0.639365 -0.757574
vn -0.56212 0.321738 -0.761909
vn -0.130745 0.726159 -0.67498
vn 0.214266 -0.967726 0.132655
vn 0.0713863 0.416554 -0.906304
vn 0.461876 -0.590008 -0.662239
vn 0.900201 0.433403 -0.0424234
vn 0.913293 0.257208 0.315818
vn -0.106197 0.434026 -0.894619
vn 0.364956 -0.185375 0.912383
vn 0.918762 0.201605 0.339458
vn 0.367555 -0.0453999 0.928893
vn -0.276978 0.416569 -0.865883
vn -0.540605 -0.823779 -0.170687
vn -0.540605 -0.823779 -0.170687
vn -0.863061 -0.192101 -0.467143
vn -0.540605 -0.823779 -0.170687
vn -0.916286 -0.202566 -0.345524
vn 0.107472 0.993459 0.0385915
vn -0.874831 -0.300379 -0.380057
vn 0.0470335 0.976729 0.209258
vn -0.921742 -0.380993 -0.0723587
vn 0.125471 0.986771 0.102661
vn -0.481783 0.21353 -0.849877
vn -0.959704 -0.0663926 0.273059
vn -0.677666 0.732053 0.0697605
vn -0.921856 0.144511 -0.35958
vn -0.944536 -0.196887 0.262846
vn -0.836597 0.228412 -0.497929
vn -0.545796 -0.394285 0.739355
vn -0.677666 0.732053 0.0697605
vn -0.515014 -0.210405 0.830958
vn 0.0607679 0.993798 -0.0931257
vn 0.896083 0.232901 0.377878
vn 0.903563 0.4281 0.0174369
vn 0.929175 0.369639 0.000348901
vn 0.921036 0.209711 0.328198
vn 0.499023 -0.498083 -0.709146
vn 0.104062 0.530286 -0.841408
vn 0.884475 0.423931 -0.194902
vn 0.52295 -0.310254 0.793893
vn 0.935366 0.295096 -0.194957
vn 0.3893 -0.821149 0.417325
vn 0.337079 -0.828204 0.447723
vn 0.803283 -0.334292 0.492936
vn 0.22365 0.557084 -0.799774
vn 0.530167 -0.400166 -0.747523
vn 0.407754 -0.803659 0.433439
vn -0.922911 -0.366927 0.116616
vn -0.926114 -0.374005 0.0493253
vn -0.949005 -0.11831 -0.29222
vn -0.446319 -0.892502 0.0651059
vn -0.544411 -0.810307 0.216839
vn 0.075877 -0.987619 0.137301
vn -0.934908 -0.072643 -0.347375
vn -0.963593 -0.156931 -0.216475
vn -0.538454 -0.810999 0.228796
vn -0.0190636 0.952097 -0.305203
vn -0.985675 0.101803 -0.134466
vn 0.125269 -0.333879 0.934255
vn -0.941783 -0.235078 -0.240381
vn -0.140501 0.791809 -0.594388
vn 0.895101 0.331028 -0.298687
vn 0.325298 -0.943435 0.0641228
vn 0.144796 0.748567 -0.647057
vn 0.957526 0.243673 0.15417
vn 0.174417 0.836299 -0.519791
vn 0.336421 -0.91818 0.209204
vn 0.356186 -0.892918 0.27537
vn 0.296905 -0.673611 0.676828
vn 0.865329 -0.120749 0.486442
vn 0.582115 0.577758 -0.572135
vn 0.939328 0.342971 0.00586728
vn 0.914994 0.360576 0.181025
vn 0.198632 0.967352 -0.157401
vn 0.344485 -0.274766 0.897683
vn 0.87617 0.481837 -0.0126351
vn 0.162883 0.966975 -0.196032
vn 0.166151 0.866592 -0.470545
vn -0.926838 0.0301553 -0.37425
vn -0.962776 0.0849447 -0.256608
vn -0.709702 -0.503997 0.49225
vn -0.585659 0.265858 -0.765717
vn -0.579791 0.288353 -0.762033
vn -0.961483 -0.170892 -0.215282
g grp1
usemtl mtl1
f 3//3 2//2 1//1 
f 6//6 5//5 4//4 
f 9//9 8//8 7//7 
f 12//12 11//11 10//10 
f 3//3 13//13 2//2 
f 12//12 15//15 14//14 
f 16//16 177//177 181//181 
f 181//181 17//17 16//16 
f 20//20 19//19 18//18 
f 23//23 22//22 21//21 
f 3//3 24//24 13//13 
f 181//181 185//185 17//17 
f 5//5 26//26 25//25 
f 3//3 27//27 24//24 
f 28//28 17//17 185//185 
f 21//21 29//29 3//3 
f 32//32 31//31 30//30 
f 31//31 26//26 30//30 
f 26//26 5//5 30//30 
f 33//33 20//20 18//18 
f 35//35 23//23 34//34 
f 187//187 189//189 186//186 
f 36//36 33//33 18//18 
f 38//38 37//37 184//184 
f 15//15 39//39 34//34 
f 42//42 41//41 40//40 
f 15//15 12//12 43//43 
f 45//45 44//44 37//37 
f 3//3 47//47 46//46 
f 188//188 41//41 190//190 
f 33//33 191//191 20//20 
f 48//48 45//45 37//37 
f 188//188 192//192 49//49 
f 52//52 51//51 50//50 
f 53//53 33//33 36//36 
f 54//54 39//39 43//43 
f 56//56 55//55 47//47 
f 57//57 35//35 39//39 
f 194//194 49//49 192//192 
f 58//58 54//54 43//43 
f 60//60 59//59 31//31 
f 31//31 59//59 26//26 
f 61//61 191//191 33//33 
f 62//62 45//45 48//48 
f 63//63 54//54 58//58 
f 66//66 65//65 64//64 
f 66//66 64//64 67//67 
f 68//68 45//45 62//62 
f 71//71 70//70 69//69 
f 68//68 63//63 58//58 
f 71//71 66//66 70//70 
f 74//74 73//73 72//72 
f 67//67 75//75 66//66 
f 77//77 75//75 76//76 
f 76//76 78//78 197//197 
f 199//199 201//201 77//77 
f 77//77 76//76 200//200 
f 76//76 197//197 200//200 
f 77//77 79//79 75//75 
f 77//77 201//201 80//80 
f 77//77 80//80 79//79 
f 80//80 201//201 81//81 
f 76//76 68//68 202//202 
f 75//75 63//63 76//76 
f 66//66 75//75 79//79 
f 70//70 66//66 79//79 
f 79//79 80//80 70//70 
f 203//203 82//82 198//198 
f 68//68 76//76 63//63 
f 53//53 74//74 72//72 
f 202//202 62//62 204//204 
f 75//75 67//67 63//63 
f 72//72 205//205 61//61 
f 202//202 68//68 62//62 
f 80//80 81//81 59//59 
f 51//51 74//74 53//53 
f 60//60 70//70 59//59 
f 71//71 69//69 83//83 
f 71//71 65//65 66//66 
f 70//70 80//80 59//59 
f 81//81 74//74 51//51 
f 53//53 72//72 61//61 
f 205//205 195//195 61//61 
f 67//67 64//64 63//63 
f 58//58 45//45 68//68 
f 71//71 84//84 65//65 
f 84//84 71//71 83//83 
f 196//196 70//70 60//60 
f 84//84 83//83 49//49 
f 81//81 52//52 59//59 
f 52//52 81//81 51//51 
f 195//195 193//193 61//61 
f 64//64 54//54 63//63 
f 64//64 65//65 57//57 
f 194//194 84//84 49//49 
f 40//40 196//196 60//60 
f 85//85 49//49 83//83 
f 85//85 83//83 69//69 
f 64//64 57//57 39//39 
f 56//56 65//65 84//84 
f 57//57 65//65 56//56 
f 61//61 33//33 53//53 
f 84//84 194//194 56//56 
f 61//61 193//193 191//191 
f 26//26 59//59 52//52 
f 56//56 86//86 57//57 
f 57//57 86//86 35//35 
f 64//64 39//39 54//54 
f 40//40 60//60 32//32 
f 85//85 196//196 40//40 
f 47//47 86//86 56//56 
f 45//45 58//58 43//43 
f 51//51 53//53 50//50 
f 32//32 60//60 31//31 
f 49//49 85//85 41//41 
f 45//45 43//43 44//44 
f 188//188 49//49 41//41 
f 85//85 40//40 41//41 
f 47//47 29//29 86//86 
f 48//48 37//37 38//38 
f 50//50 53//53 87//87 
f 47//47 55//55 46//46 
f 86//86 29//29 22//22 
f 39//39 15//15 43//43 
f 53//53 36//36 87//87 
f 3//3 46//46 27//27 
f 29//29 47//47 3//3 
f 86//86 22//22 35//35 
f 26//26 52//52 50//50 
f 32//32 30//30 40//40 
f 35//35 34//34 39//39 
f 35//35 22//22 23//23 
f 29//29 21//21 22//22 
f 43//43 12//12 44//44 
f 25//25 26//26 50//50 
f 17//17 28//28 41//41 
f 44//44 12//12 88//88 
f 40//40 30//30 42//42 
f 17//17 41//41 42//42 
f 15//15 34//34 14//14 
f 44//44 88//88 37//37 
f 37//37 88//88 182//182 
f 37//37 182//182 184//184 
f 50//50 87//87 25//25 
f 21//21 3//3 1//1 
f 14//14 34//34 89//89 
f 182//182 88//88 90//90 
f 206//206 8//8 9//9 
f 17//17 42//42 16//16 
f 6//6 30//30 5//5 
f 42//42 30//30 91//91 
f 92//92 18//18 9//9 
f 183//183 206//206 9//9 
f 34//34 23//23 89//89 
f 12//12 90//90 88//88 
f 18//18 19//19 9//9 
f 36//36 18//18 92//92 
f 87//87 36//36 92//92 
f 206//206 180//180 8//8 
f 91//91 30//30 6//6 
f 6//6 4//4 93//93 
f 4//4 25//25 94//94 
f 11//11 95//95 10//10 
f 11//11 14//14 95//95 
f 97//97 21//21 96//96 
f 98//98 89//89 97//97 
f 99//99 1//1 2//2 
f 100//100 210//210 178//178 
f 102//102 91//91 101//101 
f 104//104 98//98 103//103 
f 212//212 106//106 105//105 
f 107//107 105//105 106//106 
f 108//108 102//102 101//101 
f 96//96 1//1 99//99 
f 105//105 214//214 212//212 
f 105//105 110//110 109//109 
f 111//111 214//214 109//109 
f 214//214 105//105 109//109 
f 112//112 110//110 105//105 
f 218//218 102//102 108//108 
f 216//216 96//96 215//215 
f 219//219 210//210 100//100 
f 96//96 220//220 215//215 
f 97//97 217//217 112//112 
f 103//103 112//112 105//105 
f 96//96 99//99 220//220 
f 98//98 112//112 103//103 
f 211//211 102//102 218//218 
f 97//97 96//96 216//216 
f 98//98 97//97 112//112 
f 107//107 104//104 103//103 
f 107//107 103//103 105//105 
f 6//6 93//93 106//106 
f 113//113 107//107 106//106 
f 6//6 106//106 212//212 
f 101//101 91//91 6//6 
f 209//209 104//104 107//107 
f 213//213 14//14 98//98 
f 89//89 98//98 14//14 
f 180//180 209//209 107//107 
f 14//14 213//213 95//95 
f 180//180 107//107 113//113 
f 96//96 21//21 1//1 
f 113//113 207//207 179//179 
f 208//208 8//8 113//113 
f 113//113 179//179 208//208 
f 16//16 42//42 211//211 
f 7//7 8//8 208//208 
f 8//8 180//180 113//113 
f 113//113 106//106 207//207 
f 211//211 42//42 102//102 
f 177//177 16//16 211//211 
f 89//89 21//21 97//97 
f 12//12 14//14 11//11 
f 90//90 12//12 10//10 
f 9//9 7//7 92//92 
f 92//92 7//7 94//94 
f 87//87 92//92 94//94 
f 25//25 87//87 94//94 
f 5//5 25//25 4//4 
f 42//42 91//91 102//102 
f 89//89 23//23 21//21 
f 116//116 115//115 114//114 
f 117//117 115//115 116//116 
f 120//120 119//119 118//118 
f 120//120 121//121 119//119 
f 124//124 123//123 122//122 
f 123//123 125//125 122//122 
f 125//125 126//126 122//122 
f 127//127 228//228 227//227 
f 128//128 228//228 127//127 
f 128//128 129//129 228//228 
f 129//129 128//128 222//222 
f 222//222 221//221 129//129 
f 129//129 221//221 130//130 
f 130//130 120//120 118//118 
f 131//131 130//130 118//118 
f 131//131 132//132 130//130 
f 134//134 133//133 230//230 
f 132//132 131//131 232//232 
f 232//232 131//131 135//135 
f 135//135 131//131 118//118 
f 135//135 118//118 117//117 
f 118//118 115//115 117//117 
f 118//118 119//119 115//115 
f 119//119 114//114 115//115 
f 114//114 119//119 136//136 
f 119//119 121//121 136//136 
f 136//136 121//121 137//137 
f 121//121 229//229 137//137 
f 139//139 138//138 137//137 
f 137//137 229//229 139//139 
f 233//233 128//128 127//127 
f 127//127 227//227 233//233 
f 233//233 227//227 223//223 
f 224//224 138//138 139//139 
f 138//138 224//224 225//225 
f 140//140 138//138 226//226 
f 234//234 124//124 122//122 
f 234//234 122//122 141//141 
f 144//144 143//143 142//142 
f 142//142 143//143 145//145 
f 146//146 235//235 145//145 
f 145//145 143//143 146//146 
f 143//143 147//147 146//146 
f 147//147 143//143 238//238 
f 149//149 148//148 241//241 
f 241//241 150//150 149//149 
f 149//149 242//242 151//151 
f 151//151 243//243 152//152 
f 243//243 147//147 152//152 
f 152//152 147//147 238//238 
f 153//153 152//152 238//238 
f 238//238 154//154 153//153 
f 157//157 156//156 155//155 
f 245//245 246//246 158//158 
f 154//154 245//245 158//158 
f 158//158 153//153 154//154 
f 153//153 158//158 159//159 
f 159//159 158//158 160//160 
f 161//161 160//160 158//158 
f 162//162 249//249 158//158 
f 162//162 158//158 246//246 
f 156//156 157//157 251//251 
f 157//157 163//163 251//251 
f 163//163 157//157 164//164 
f 164//164 165//165 163//163 
f 166//166 163//163 165//165 
f 253//253 168//168 167//167 
f 168//168 253//253 252//252 
f 169//169 168//168 252//252 
f 255//255 165//165 170//170 
f 165//165 164//164 170//170 
f 170//170 164//164 171//171 
f 164//164 157//157 171//171 
f 171//171 157//157 155//155 
f 172//172 171//171 155//155 
f 172//172 155//155 244//244 
f 172//172 244//244 144//144 
f 144//144 142//142 172//172 
f 173//173 172//172 237//237 
f 173//173 171//171 172//172 
f 173//173 170//170 171//171 
f 256//256 255//255 170//170 
f 174//174 255//255 256//256 
f 175//175 174//174 256//256 
f 175//175 173//173 237//237 
f 175//175 237//237 239//239 
f 175//175 239//239 141//141 
f 141//141 122//122 175//175 
f 122//122 126//126 175//175 
f 126//126 174//174 175//175 
f 257//257 228//228 129//129 
f 129//129 169//169 257//257 
f 129//129 168//168 169//169 
f 129//129 167//167 168//168 
f 254//254 129//129 130//130 
f 254//254 130//130 132//132 
f 231//231 253//253 167//167 
f 166//166 230//230 133//133 
f 133//133 163//163 166//166 
f 133//133 251//251 163//163 
f 133//133 250//250 251//251 
f 133//133 247//247 250//250 
f 247//247 133//133 134//134 
f 248//248 232//232 135//135 
f 135//135 159//159 248//248 
f 135//135 117//117 159//159 
f 117//117 153//153 159//159 
f 117//117 116//116 153//153 
f 116//116 152//152 153//153 
f 116//116 151//151 152//152 
f 116//116 114//114 151//151 
f 114//114 149//149 151//151 
f 114//114 136//136 149//149 
f 136//136 137//137 149//149 
f 137//137 148//148 149//149 
f 148//148 137//137 138//138 
f 176//176 148//148 138//138 
f 176//176 138//138 140//140 
f 140//140 236//236 176//176 
f 176//176 236//236 240//240 
f 240//240 148//148 176//176 
f 240//240 241//241 148//148 
