v -275.542 -168.208 676.491
v -276.49 -179.146 670.16
v -276.2 -175.147 670.445
v -277.24 -180.663 665.802
v -276.18 -177.809 671.143
v -276.287 -171.329 673.617
v -274.927 -173.446 673.794
v -274.377 -174.454 669.877
v -275.104 -179.435 668.43
v -273.51 -167.269 674.859
v -273.283 -167.008 678.354
v -275.227 -179.009 666.948
v -274.496 -178.576 667.658
v -271.986 -166.222 677.045
v -272.864 -169.261 673.515
v -272.274 -166.857 675.933
v -273.26 -177.002 670.533
v -275.831 -179.037 667.037
v -273.203 -175.951 669.291
v -274.574 -176.406 671.921
v -277.517 -180.447 667.311
v -273.678 -165.524 676.712
v -275.397 -179.422 669.272
v -277.651 -180.668 666.606
v -276.721 -179.989 668.489
v -274.483 -168.019 674.343
v -274.457 -165.724 677.232
v -273.813 -169.071 673.273
v -274.793 -167.527 677.8
v -276.463 -172.991 672.991
v -275.987 -170.995 673.158
v -276.67 -178.925 668.169
v -273.989 -167.005 678.495
v -274.532 -175.669 669.217
v -276.395 -173.758 672.995
v -273.544 -177.826 669.862
v -273.664 -171.766 671.5
v -273.528 -177.558 668.329
v -275.228 -167.741 675.38
v -275.851 -179.32 669.793
v -276.516 -176.011 671.798
v -275.838 -179.505 666.484
v -274.368 -166.193 676.268
v -274.821 -178.784 670.014
v -272.657 -170.765 672.745
v -273.057 -170.674 672.515
v -273.957 -168.907 676.936
v -275.815 -169.947 675.493
v -272.788 -167.599 674.851
v -273.224 -176.243 671.023
v -276.813 -177.888 670.364
v -273.187 -171.046 674.632
v -277.321 -180.464 667.257
v -273.964 -177.908 670.405
v -272.867 -176.73 669.93
v -274.387 -178.193 667.604
v -276.076 -173.017 671.735
v -276.265 -177.454 669.035
v -276.741 -177.22 670.047
v -272.265 -168.209 675.439
v -275.234 -167.475 677.318
v -272.415 -166.853 677.9
v -272.712 -174.275 671.02
v -275.676 -178.577 670.72
v -275.101 -170.058 675.937
v -275.319 -167.099 676.879
v -272.73 -168.762 676.254
v -273.211 -173.609 670.578
v -273.201 -174.851 671.874
v -276.706 -175.379 671.663
v -272.497 -169.559 675.085
v -277.332 -180.109 668.031
v -276.572 -178.324 670.611
v -277.242 -180.168 666.755
v -275.547 -171.805 672.05
v -273.813 -173.174 673.567
v -274.811 -179.093 667.763
v -275.776 -168.649 675.663
v -276.546 -174.604 671.416
v -272.81 -175.835 670.452
v -272.564 -166.181 676.146
v -272.744 -165.792 676.498
v -273.812 -176.713 671.319
v -274.711 -177.755 671.109
v -272.96 -176.93 669.015
v -275.799 -179.796 666.985
v -274.325 -178.757 669.17
v -277.671 -180.805 666.129
v -274.761 -166.124 676.873
v -273.766 -178.158 668.614
v -274.444 -168.383 677.356
v -275.419 -174.629 670.165
v -273.317 -168.937 676.652
v -276.411 -180.179 667.406
v -276.688 -179.72 669.217
v -277.046 -180.447 665.731
v -272.839 -173.341 671.089
v -272.451 -170.177 673.853
v -273.216 -177.497 669.25
v -276.412 -172.956 672.381
v -274.234 -170.861 675.399
v -275.324 -169.541 673.501
v -276.964 -179.613 669.316
v -272.862 -175.499 669.928
v -276.498 -180.053 666.023
v -276.006 -175.126 672.651
v -273.749 -166.035 676.092
v -273.621 -174.968 669.615
v -272.098 -167.151 676.872
v -274.987 -166.508 677.974
v -273.914 -177.038 668.417
v -274.404 -174.523 673.005
v -272.783 -172.907 672.544
v -274.899 -166.089 677.597
v -275.503 -171.995 674.589
v -275.019 -177.278 668.374
v -271.971 -166.43 676.686
v -274.518 -166.72 678.363
v -275.899 -178.12 668.135
v -272.497 -168.848 674.286
v -273.065 -165.667 676.776
v -275.831 -169.395 674.409
v -277.105 -179.545 668.791
v -274.67 -170.334 672.536
v -276.07 -173.026 673.709
v -272.538 -167.291 677.611
v -276.107 -170.389 674.615
v -272.617 -171.581 672.812
v -275.454 -176.904 671.77
v -272.695 -172.658 671.75
v -274.461 -172.95 670.788
v -275.294 -168.937 676.573
v -276.49 -179.146 670.16
v -277.24 -180.663 665.802
v -273.283 -167.008 678.354
v -275.227 -179.009 666.948
v -271.986 -166.222 677.045
v -271.986 -166.222 677.045
v -271.986 -166.222 677.045
v -277.517 -180.447 667.311
v -273.678 -165.524 676.712
v -273.678 -165.524 676.712
v -277.651 -180.668 666.606
v -276.721 -179.989 668.489
v -274.457 -165.724 677.232
v -273.989 -167.005 678.495
v -273.528 -177.558 668.329
v -275.838 -179.505 666.484
v -274.387 -178.193 667.604
v -272.415 -166.853 677.9
v -277.332 -180.109 668.031
v -272.744 -165.792 676.498
v -272.744 -165.792 676.498
v -272.96 -176.93 669.015
v -277.671 -180.805 666.129
v -277.046 -180.447 665.731
v -276.964 -179.613 669.316
v -276.964 -179.613 669.316
v -276.498 -180.053 666.023
v -274.987 -166.508 677.974
v -274.987 -166.508 677.974
v -274.899 -166.089 677.597
v -271.971 -166.43 676.686
v -274.518 -166.72 678.363
v -273.065 -165.667 676.776
v -277.105 -179.545 668.791
v -277.105 -179.545 668.791
v -272.695 -172.658 671.75
vn -0.925375 -0.0444167 0.376442
vn -0.829731 -0.290352 0.4767
vn -0.728304 0.376883 -0.572305
vn -0.655102 0.669993 -0.349214
vn -0.331891 -0.472734 0.816315
vn -0.959447 0.244681 -0.139976
vn 0.0853152 -0.515951 0.852359
vn -0.112568 0.499825 -0.85878
vn 0.561281 -0.827162 0.027694
vn 0.0893497 0.67696 -0.730576
vn 0.18424 0.713152 0.676365
vn -0.132262 0.730164 -0.670348
vn 0.761953 -0.435653 -0.479202
vn 0.199892 0.727726 0.656093
vn 0.509599 0.488315 -0.708419
vn 0.869047 0.207212 -0.449244
vn 0.728486 -0.485794 0.483025
vn -0.330151 0.72759 -0.601342
vn 0.524589 0.3939 -0.754751
vn 0.270967 -0.508262 0.817463
vn -0.777222 0.625347 -0.0697627
vn -0.261054 0.78513 -0.561624
vn 0.377895 -0.881859 0.281991
vn -0.754491 0.647699 -0.10597
vn 0.033865 -0.925918 0.376203
vn -0.338141 0.651055 -0.67955
vn 0.127393 0.759656 0.637726
vn 0.0735758 0.609318 -0.789505
vn -0.55308 -0.389955 0.736232
vn -0.985874 0.0226127 0.165955
vn -0.817087 0.392541 -0.422232
vn -0.72561 0.540915 -0.425325
vn -0.20966 -0.557413 0.803326
vn -0.1296 0.495088 -0.859123
vn -0.816255 -0.214279 0.536481
vn 0.720456 -0.637739 0.272455
vn 0.267136 0.506968 -0.819525
vn 0.813478 -0.438804 -0.381713
vn -0.727777 0.550242 -0.409358
vn 0.203908 -0.856917 0.473408
vn -0.745179 -0.286675 0.602102
vn 0.736711 -0.557704 -0.382392
vn -0.481514 0.707354 -0.517489
vn 0.449008 -0.763628 0.463965
vn 0.811516 0.277626 -0.514165
vn 0.48487 0.447549 -0.7514
vn 0.160737 -0.626806 0.762416
vn -0.777675 -0.255428 0.574437
vn 0.581925 0.492008 -0.647527
vn 0.786077 -0.348024 0.510845
vn -0.943881 -0.123933 0.306152
vn 0.590386 -0.527147 0.611196
vn 0.0816989 -0.946968 0.310769
vn 0.563098 -0.629574 0.53531
vn 0.936799 -0.309946 0.162296
vn 0.0236509 0.603011 -0.797382
vn -0.718444 0.399259 -0.569587
vn -0.614214 0.483251 -0.623867
vn -0.925122 0.259651 -0.277001
vn 0.995006 -0.0192946 -0.0979348
vn -0.870734 -0.12234 0.476294
vn 0.760695 -0.428116 0.487913
vn 0.993844 0.0232033 -0.108328
vn 0.10856 -0.666772 0.737312
vn -0.265014 -0.552784 0.790061
vn -0.953451 0.300567 0.0243172
vn 0.760746 -0.472622 0.444852
vn 0.545132 0.442894 -0.711812
vn 0.745018 -0.359966 0.56158
vn -0.989554 -0.00762397 0.143958
vn 0.879859 -0.330458 0.341535
vn -0.143944 -0.857332 0.494229
vn -0.708356 -0.350459 0.612708
vn -0.727378 0.650126 -0.219674
vn -0.561624 0.470778 -0.680402
vn 0.50391 -0.477679 0.719651
vn 0.720299 -0.648331 -0.24665
vn -0.975183 0.217788 0.0398404
vn -0.923002 0.242588 -0.298693
vn 0.959609 -0.182116 0.21444
vn 0.496114 0.605688 -0.622103
vn 0.109332 0.727142 -0.677724
vn 0.536587 -0.482768 0.692105
vn 0.330438 -0.595484 0.732263
vn 0.943029 -0.309862 -0.121164
vn 0.663577 -0.708282 -0.240837
vn 0.658541 -0.744513 0.109655
vn -0.649907 0.708242 -0.275706
vn -0.721622 0.620213 -0.307567
vn 0.784159 -0.584843 -0.207491
vn -0.155416 -0.595006 0.788552
vn -0.426187 0.475834 -0.769381
vn 0.429812 -0.600287 0.674475
vn 0.373324 -0.919094 0.126076
vn -0.0234241 -0.897984 0.439404
vn -0.530231 0.731636 -0.428443
vn 0.797902 0.30843 -0.517903
vn 0.996534 -0.0423389 -0.0716114
vn 0.837552 -0.544577 -0.0440627
vn -0.921036 0.261663 -0.288487
vn 0.182321 -0.585067 0.790225
vn -0.588337 0.535425 -0.605954
vn -0.884295 -0.183694 0.429276
vn 0.907316 0.17636 -0.381673
vn 0.685265 -0.650407 -0.327694
vn -0.40157 -0.434654 0.806113
vn -0.138616 0.734705 -0.664074
vn 0.194195 0.48071 -0.855106
vn 0.948295 -0.277039 0.154876
vn -0.705198 -0.248022 0.664214
vn 0.1616 0.487796 -0.85787
vn 0.33048 -0.488856 0.807343
vn 0.913427 -0.265504 0.308478
vn -0.857728 0.507818 -0.0801475
vn -0.286855 -0.482087 0.827832
vn -0.2737 0.577792 -0.768925
vn 0.664061 0.604751 -0.439659
vn -0.561054 -0.336505 0.756295
vn -0.530063 0.603148 -0.596025
vn 0.86568 0.288365 -0.4092
vn 0.167715 0.775764 0.608327
vn -0.868153 0.393364 -0.302614
vn -0.716634 -0.689652 0.103997
vn -0.285616 0.549575 -0.785106
vn -0.738312 -0.272711 0.616867
vn 0.572085 -0.571861 0.587957
vn -0.988582 0.09707 0.115252
vn 0.997077 -0.0484262 -0.0590998
vn 0.0029287 -0.514185 0.857674
vn 0.560019 0.462008 -0.687697
vn -0.188702 0.517852 -0.834398
vn -0.619615 -0.38874 0.681879
vn -0.11319 -0.729976 0.674035
vn 0.567755 -0.812194 -0.134145
vn 0.266619 -0.62994 0.729445
vn 0.742379 -0.486266 -0.460889
vn 0.434804 0.89485 0.100944
vn 0.64375 0.67355 -0.363204
vn 0.95992 -0.158677 0.231029
vn 0.0193414 -0.933269 0.358656
vn 0.139674 0.836292 0.530195
vn 0.239511 0.958649 -0.153709
vn 0.0299707 -0.957795 0.285885
vn -0.716634 -0.689652 0.103997
vn -0.570258 0.748291 -0.338919
vn 0.153865 0.636594 0.755694
vn 0.433933 0.398304 -0.808119
vn -0.154514 0.754801 -0.637496
vn 0.741348 -0.293069 -0.60375
vn 0.207559 0.734182 0.646449
vn -0.837405 0.540085 -0.0840287
vn 0.341762 0.939406 -0.0267426
vn 0.641551 0.665509 -0.381457
vn 0.62338 0.351491 -0.698464
vn 0.233471 -0.953641 0.189895
vn 0.657227 -0.689889 -0.303489
vn -0.182841 -0.877167 0.444012
vn -0.716634 -0.689652 0.103997
vn -0.198839 0.75475 -0.625152
vn -0.963102 0.193199 0.187373
vn -0.265382 0.674669 0.688763
vn -0.171342 0.716365 0.67636
vn 0.979858 -0.189226 -0.0638162
vn -0.0028207 0.711998 0.702175
vn 0.341762 0.939406 -0.0267426
vn -0.958963 0.280546 -0.0410397
vn -0.328945 -0.70844 0.624427
vn 0.996813 0.000512481 -0.0797756
g grp1
usemtl mtl1
f 103//103 2//2 51//51 
f 157//157 95//95 133//133 
f 74//74 88//88 24//24 
f 53//53 25//25 72//72 
f 4//4 74//74 96//96 
f 25//25 95//95 157//157 
f 144//144 158//158 123//123 
f 51//51 166//166 103//103 
f 59//59 70//70 79//79 
f 30//30 79//79 70//70 
f 35//35 70//70 41//41 
f 73//73 41//41 51//51 
f 73//73 133//133 5//5 
f 41//41 5//5 106//106 
f 48//48 115//115 65//65 
f 48//48 65//65 132//132 
f 48//48 132//132 1//1 
f 31//31 122//122 102//102 
f 92//92 58//58 3//3 
f 31//31 75//75 57//57 
f 106//106 129//129 7//7 
f 25//25 94//94 23//23 
f 132//132 29//29 61//61 
f 65//65 115//115 101//101 
f 64//64 84//84 129//129 
f 105//105 42//42 86//86 
f 96//96 18//18 159//159 
f 134//134 86//86 94//94 
f 18//18 96//96 74//74 
f 59//59 166//166 51//51 
f 79//79 30//30 100//100 
f 6//6 100//100 30//30 
f 41//41 106//106 35//35 
f 125//125 115//115 48//48 
f 78//78 48//48 1//1 
f 6//6 30//30 127//127 
f 30//30 35//35 125//125 
f 122//122 127//127 78//78 
f 78//78 127//127 48//48 
f 78//78 39//39 122//122 
f 31//31 6//6 127//127 
f 122//122 31//31 127//127 
f 127//127 30//30 125//125 
f 31//31 100//100 6//6 
f 31//31 57//57 100//100 
f 79//79 100//100 57//57 
f 58//58 32//32 59//59 
f 79//79 3//3 59//59 
f 3//3 58//58 59//59 
f 74//74 166//166 32//32 
f 3//3 79//79 57//57 
f 125//125 48//48 127//127 
f 35//35 106//106 125//125 
f 41//41 73//73 5//5 
f 21//21 151//151 74//74 
f 24//24 21//21 74//74 
f 151//151 166//166 74//74 
f 74//74 32//32 18//18 
f 89//89 66//66 114//114 
f 7//7 129//129 20//20 
f 65//65 101//101 47//47 
f 29//29 33//33 118//118 
f 92//92 124//124 131//131 
f 34//34 92//92 8//8 
f 116//116 92//92 34//34 
f 148//148 18//18 12//12 
f 112//112 7//7 20//20 
f 91//91 33//33 29//29 
f 43//43 107//107 26//26 
f 124//124 26//26 28//28 
f 112//112 76//76 7//7 
f 164//164 146//146 11//11 
f 164//164 11//11 27//27 
f 43//43 22//22 107//107 
f 26//26 107//107 10//10 
f 18//18 116//116 56//56 
f 91//91 135//135 33//33 
f 27//27 121//121 141//141 
f 36//36 44//44 87//87 
f 131//131 124//124 37//37 
f 34//34 111//111 116//116 
f 76//76 83//83 69//69 
f 93//93 52//52 67//67 
f 47//47 126//126 135//135 
f 27//27 14//14 121//121 
f 69//69 83//83 50//50 
f 28//28 15//15 37//37 
f 37//37 15//15 46//46 
f 149//149 38//38 13//13 
f 13//13 38//38 90//90 
f 87//87 90//90 99//99 
f 99//99 36//36 87//87 
f 83//83 54//54 17//17 
f 126//126 47//47 93//93 
f 126//126 62//62 135//135 
f 54//54 36//36 17//17 
f 37//37 68//68 108//108 
f 37//37 130//130 68//68 
f 28//28 49//49 15//15 
f 82//82 81//81 10//10 
f 142//142 165//165 152//152 
f 62//62 126//126 109//109 
f 109//109 67//67 60//60 
f 71//71 98//98 60//60 
f 120//120 60//60 98//98 
f 16//16 81//81 117//117 
f 81//81 153//153 117//117 
f 49//49 81//81 16//16 
f 49//49 120//120 15//15 
f 19//19 108//108 68//68 
f 111//111 19//19 147//147 
f 108//108 19//19 111//111 
f 46//46 45//45 37//37 
f 37//37 45//45 130//130 
f 38//38 99//99 90//90 
f 68//68 97//97 104//104 
f 55//55 17//17 36//36 
f 98//98 113//113 128//128 
f 80//80 69//69 50//50 
f 98//98 128//128 45//45 
f 168//168 45//45 128//128 
f 168//168 128//128 113//113 
f 67//67 71//71 60//60 
f 98//98 45//45 120//120 
f 45//45 46//46 15//15 
f 120//120 45//45 15//15 
f 68//68 130//130 97//97 
f 97//97 63//63 104//104 
f 104//104 63//63 80//80 
f 85//85 104//104 55//55 
f 99//99 85//85 55//55 
f 63//63 113//113 80//80 
f 63//63 168//168 113//113 
f 97//97 168//168 63//63 
f 104//104 80//80 55//55 
f 69//69 80//80 113//113 
f 50//50 55//55 80//80 
f 50//50 17//17 55//55 
f 55//55 36//36 99//99 
f 85//85 99//99 38//38 
f 19//19 104//104 154//154 
f 104//104 19//19 68//68 
f 19//19 154//154 147//147 
f 49//49 60//60 120//120 
f 165//165 137//137 152//152 
f 117//117 153//153 138//138 
f 49//49 16//16 60//60 
f 163//163 139//139 109//109 
f 16//16 163//163 109//109 
f 16//16 109//109 60//60 
f 139//139 62//62 109//109 
f 113//113 98//98 71//71 
f 113//113 76//76 69//69 
f 113//113 71//71 52//52 
f 109//109 126//126 67//67 
f 10//10 81//81 49//49 
f 50//50 83//83 17//17 
f 126//126 93//93 67//67 
f 52//52 71//71 67//67 
f 52//52 76//76 113//113 
f 56//56 111//111 147//147 
f 8//8 37//37 108//108 
f 28//28 10//10 49//49 
f 14//14 11//11 150//150 
f 34//34 108//108 111//111 
f 34//34 8//8 108//108 
f 10//10 107//107 82//82 
f 22//22 82//82 107//107 
f 9//9 77//77 87//87 
f 26//26 10//10 28//28 
f 28//28 37//37 124//124 
f 77//77 90//90 87//87 
f 13//13 90//90 77//77 
f 116//116 111//111 56//56 
f 131//131 37//37 8//8 
f 11//11 14//14 27//27 
f 101//101 76//76 52//52 
f 83//83 76//76 112//112 
f 84//84 54//54 83//83 
f 54//54 44//44 36//36 
f 20//20 84//84 83//83 
f 20//20 83//83 112//112 
f 93//93 101//101 52//52 
f 91//91 47//47 135//135 
f 84//84 44//44 54//54 
f 87//87 23//23 9//9 
f 13//13 77//77 136//136 
f 136//136 149//149 13//13 
f 12//12 18//18 56//56 
f 47//47 101//101 93//93 
f 44//44 23//23 87//87 
f 136//136 77//77 86//86 
f 92//92 131//131 8//8 
f 102//102 26//26 124//124 
f 101//101 7//7 76//76 
f 40//40 23//23 44//44 
f 94//94 9//9 23//23 
f 102//102 124//124 75//75 
f 39//39 26//26 102//102 
f 89//89 114//114 145//145 
f 39//39 89//89 43//43 
f 58//58 92//92 116//116 
f 39//39 43//43 26//26 
f 92//92 75//75 124//124 
f 119//119 58//58 116//116 
f 159//159 18//18 148//148 
f 94//94 86//86 9//9 
f 40//40 44//44 64//64 
f 64//64 44//44 84//84 
f 86//86 77//77 9//9 
f 136//136 86//86 42//42 
f 119//119 116//116 18//18 
f 89//89 145//145 43//43 
f 22//22 43//43 145//145 
f 129//129 84//84 20//20 
f 101//101 115//115 7//7 
f 110//110 29//29 118//118 
f 39//39 102//102 122//122 
f 75//75 92//92 57//57 
f 134//134 156//156 105//105 
f 134//134 105//105 86//86 
f 65//65 47//47 91//91 
f 132//132 65//65 91//91 
f 132//132 91//91 29//29 
f 164//164 27//27 162//162 
f 66//66 89//89 39//39 
f 66//66 160//160 114//114 
f 66//66 61//61 160//160 
f 61//61 66//66 1//1 
f 132//132 61//61 1//1 
f 161//161 164//164 162//162 
f 110//110 61//61 29//29 
f 25//25 23//23 40//40 
f 25//25 40//40 95//95 
f 133//133 40//40 64//64 
f 133//133 64//64 5//5 
f 5//5 64//64 129//129 
f 125//125 106//106 115//115 
f 115//115 106//106 7//7 
f 66//66 78//78 1//1 
f 66//66 39//39 78//78 
f 58//58 119//119 32//32 
f 32//32 119//119 18//18 
f 3//3 57//57 92//92 
f 102//102 75//75 31//31 
f 106//106 5//5 129//129 
f 95//95 40//40 133//133 
f 30//30 70//70 35//35 
f 70//70 51//51 41//41 
f 59//59 51//51 70//70 
f 166//166 59//59 32//32 
f 72//72 25//25 167//167 
f 140//140 53//53 72//72 
f 143//143 53//53 140//140 
f 143//143 155//155 53//53 
f 53//53 155//155 94//94 
f 155//155 134//134 94//94 
f 74//74 4//4 88//88 
f 53//53 94//94 25//25 
f 51//51 2//2 73//73 
