v 252.255 -159.27 703.674
v 251.925 -159.845 704.319
v 252.478 -159.244 704.557
v 251.581 -158.694 703.371
v 252.48 -158.837 703.816
v 251.627 -159.541 703.582
v 251.033 -160.008 703.981
v 251.981 -156.242 706.606
v 251.445 -157.657 703.94
v 252.232 -157.967 704.224
v 252.469 -157.722 707.195
v 252.634 -158.408 704.855
v 251.527 -153.161 714.415
v 251.175 -150.367 716.828
v 252.232 -151.07 715.398
v 251.768 -156.358 710.811
v 250.93 -155.534 712.318
v 252.021 -154.938 712.439
v 251.016 -160.076 704.677
v 251.839 -159.476 705.48
v 252.08 -153.928 710.384
v 250.657 -154.463 709.265
v 251.799 -149.814 713.931
v 250.781 -150.904 712.897
v 251.863 -147.652 715.738
v 251.747 -146.357 717.43
v 251.098 -147.286 715.833
v 252.458 -155.812 710.733
v 252.602 -153.907 712.489
v 252.367 -148.478 716.534
v 251.449 -147.314 718.434
v 252.227 -146.542 717.466
v 251.766 -145.83 718.846
v 250.914 -156.789 705.141
v 250.329 -149.21 717.912
v 250.055 -153.266 714.878
v 250.269 -159.868 705.129
v 250.565 -159.118 706.694
v 250.803 -159.568 703.498
v 250.413 -158.967 703.299
v 250.573 -158.229 703.36
v 250.546 -157.566 703.902
v 249.942 -146.617 719.561
v 251.896 -157.551 708.558
v 250.808 -157.212 709.894
v 249.982 -151.289 716.628
v 249.923 -157.109 710.382
v 249.663 -155.367 712.689
v 249.944 -159.584 703.75
v 250.034 -159.904 704.425
v 249.969 -147.388 715.807
v 249.556 -158.82 707.864
v 248.936 -146.995 719.185
v 248.521 -146.225 719.195
v 248.731 -144.708 720.706
v 248.64 -148.116 715.986
v 249.172 -149.466 714.605
v 248.823 -146.603 716.7
v 248.916 -145.279 719.284
v 249.82 -144.735 720.566
v 249.073 -151.467 716.413
v 249.194 -144.545 721.118
v 250.213 -146.049 717.626
v 249.485 -152.899 711.693
v 249.399 -149.281 717.981
v 249.315 -153.772 714.355
v 250.135 -144.574 721.089
v 248.495 -146.203 717.397
v 249.85 -156.943 705.393
v 249.747 -157.986 703.923
v 249.663 -158.744 703.616
v 249.625 -159.247 706.223
v 249.459 -159.313 704.197
v 249.292 -158.785 706.035
v 249.257 -158.137 704.838
v 249.204 -155.437 708.649
v 249.082 -156.837 707.052
v 251.012 -145.13 720.121
v 248.503 -145.385 719.33
v 249.27 -156.385 710.978
v 249.186 -157.215 709.365
v 248.716 -150.734 714.489
v 248.959 -154.452 711.11
v 252.522 -151.487 713.274
v 252.467 -148.617 715.585
v 252.643 -155.688 709.604
v 252.65 -151.066 714.353
v 252.671 -153.646 711.634
v 252.315 -155.609 708.372
v 252.496 -156.985 706.502
v 248.442 -147.288 717.46
v 248.775 -150.461 715.946
v 249.145 -154.315 713.178
v 249.098 -157.471 707.24
v 242.392 -145.921 718.212
v 241.968 -146.657 718.23
v 242.294 -147.784 716.97
v 242.107 -145.204 719.65
v 241.938 -147.037 718.575
v 244.887 -155.482 713.328
v 244.635 -153.39 715.584
v 245.577 -154.605 714.302
v 245.942 -156.807 711.446
v 242.299 -145.824 719.725
v 246.339 -157.836 705.768
v 244.95 -156.721 707.311
v 244.85 -157.857 706.417
v 244.513 -158.897 708.194
v 243.891 -157.176 709.596
v 244.822 -158.326 709.227
v 244.238 -157.206 707.32
v 243.888 -155.2 710.153
v 244.747 -159.198 707.05
v 244.255 -158.885 707.539
v 245.113 -159.37 707.784
v 245.033 -154.477 710.305
v 245.73 -159.023 706.545
v 245.638 -159.458 707.243
v 246.503 -159.358 707.169
v 244.392 -158.594 706.693
v 244.096 -158.044 706.842
v 242.904 -145.002 719.679
v 243.242 -145.776 717.991
v 243.034 -146.629 717.07
v 246.74 -158.706 705.741
v 246.794 -158.689 704.874
v 246.911 -158.635 706.705
v 246.664 -157.313 706.548
v 243.569 -150.231 717.919
v 242.642 -148.972 718.47
v 243.588 -147.324 719.576
v 242.787 -146.271 719.875
v 242.18 -148.313 718.439
v 245.661 -158.384 706.11
v 244.556 -145.55 718.42
v 245.414 -157.755 710.211
v 244.2 -155.927 712.27
v 243.503 -155.716 710.268
v 243.743 -157.783 707.662
v 244.309 -147.082 716.53
v 243.048 -148.4 715.999
v 244.383 -151.133 713.805
v 243.918 -158.355 707.411
v 243.034 -151.598 714.217
v 246.658 -159.147 707.686
v 245.879 -159.308 708.037
v 246.37 -158.754 708.728
v 242.943 -144.715 720.49
v 246.233 -152.145 716.118
v 246.149 -154.021 714.625
v 245.088 -151.627 716.901
v 244.423 -148.701 718.868
v 245.542 -150.196 717.745
v 246.589 -154.095 714.056
v 246.855 -158.397 708.283
v 243.841 -153.866 714.837
v 244.469 -144.697 720.51
v 245.879 -146.978 719.154
v 246.199 -149.711 717.745
v 243.339 -154.606 712.877
v 243.867 -144.847 720.681
v 245.628 -144.793 720.45
v 241.959 -149.014 717.235
v 245.429 -145.087 719.637
v 246.404 -155.675 708.932
v 245.995 -156.729 706.982
v 242.744 -152.401 714.206
v 246.793 -156.032 710.715
v 245.964 -145.575 719.746
v 244.955 -145.542 720.219
v 245.996 -148.473 715.943
v 246.315 -148.958 717.306
v 246.042 -146.532 718.147
v 246.565 -156.607 711.176
v 246.57 -152.172 715.228
v 246.473 -152.642 712.993
v 245.696 -146.002 718.031
v 245.379 -146.605 716.988
v 245.897 -152.484 712.481
v 245.386 -149.354 714.97
v 242.78 -151.316 716.407
v 243.48 -154.366 713.889
v 252.255 -159.27 703.674
v 252.48 -158.837 703.816
v 252.48 -158.837 703.816
v 251.627 -159.541 703.582
v 252.634 -158.408 704.855
v 252.08 -153.928 710.384
v 251.747 -146.357 717.43
v 252.227 -146.542 717.466
v 251.766 -145.83 718.846
v 249.556 -158.82 707.864
v 249.556 -158.82 707.864
v 248.731 -144.708 720.706
v 248.731 -144.708 720.706
v 248.64 -148.116 715.986
v 249.073 -151.467 716.413
v 249.194 -144.545 721.118
v 249.485 -152.899 711.693
v 249.315 -153.772 714.355
v 250.135 -144.574 721.089
v 248.495 -146.203 717.397
v 248.495 -146.203 717.397
v 251.012 -145.13 720.121
v 248.503 -145.385 719.33
v 249.27 -156.385 710.978
v 249.186 -157.215 709.365
v 248.716 -150.734 714.489
v 252.467 -148.617 715.585
v 252.467 -148.617 715.585
v 242.107 -145.204 719.65
v 242.107 -145.204 719.65
v 242.107 -145.204 719.65
v 246.339 -157.836 705.768
v 246.339 -157.836 705.768
v 244.85 -157.857 706.417
v 246.503 -159.358 707.169
v 246.503 -159.358 707.169
v 244.392 -158.594 706.693
v 244.096 -158.044 706.842
v 244.096 -158.044 706.842
v 246.74 -158.706 705.741
v 246.74 -158.706 705.741
v 246.74 -158.706 705.741
v 246.74 -158.706 705.741
v 246.794 -158.689 704.874
v 246.794 -158.689 704.874
v 246.794 -158.689 704.874
v 246.911 -158.635 706.705
v 246.664 -157.313 706.548
v 243.503 -155.716 710.268
v 243.743 -157.783 707.662
v 243.743 -157.783 707.662
v 243.918 -158.355 707.411
v 242.943 -144.715 720.49
v 242.943 -144.715 720.49
v 244.469 -144.697 720.51
v 245.879 -146.978 719.154
v 246.199 -149.711 717.745
v 243.867 -144.847 720.681
v 245.628 -144.793 720.45
v 245.628 -144.793 720.45
v 245.628 -144.793 720.45
v 245.429 -145.087 719.637
v 246.404 -155.675 708.932
v 246.404 -155.675 708.932
v 242.744 -152.401 714.206
v 245.964 -145.575 719.746
v 245.964 -145.575 719.746
v 246.473 -152.642 712.993
v 245.696 -146.002 718.031
vn 0.717503 -0.627019 -0.303377
vn 0.488038 -0.865239 -0.114805
vn 0.87676 -0.478235 0.0508266
vn 0.280618 0.117267 -0.952629
vn 0.46127 0.276308 -0.84314
vn 0.280091 -0.781073 -0.558099
vn 0.0102812 -0.90899 -0.416691
vn 0.498152 0.741722 -0.449103
vn 0.277419 0.688608 -0.669968
vn 0.677987 0.533674 -0.505496
vn 0.909018 -0.36005 0.209881
vn 0.991799 -0.121576 0.0394242
vn 0.453648 -0.583055 0.673981
vn 0.446485 -0.50425 0.739177
vn 0.75931 -0.364248 0.539232
vn 0.408305 -0.759824 0.50592
vn 0.212052 -0.751393 0.624854
vn 0.555128 -0.608817 0.566723
vn 0.0719869 -0.977915 0.196213
vn 0.494264 -0.776484 0.390865
vn 0.146386 0.737418 -0.659383
vn -0.103505 0.813195 -0.572713
vn 0.40243 0.58944 -0.700436
vn -0.0816912 0.650692 -0.754935
vn 0.494724 0.631251 -0.597303
vn 0.248544 0.840949 -0.480656
vn 0.10679 0.728292 -0.676895
vn 0.791577 -0.507831 0.339873
vn 0.899432 -0.292178 0.325045
vn 0.923875 -0.149896 0.352117
vn 0.57561 -0.421575 0.700676
vn 0.970825 -0.0433106 0.235844
vn 0.81588 -0.254228 0.519334
vn 0.0187034 0.862636 -0.505479
vn 0.258049 -0.505346 0.823429
vn 0.0898147 -0.688404 0.719745
vn -0.19789 -0.93071 0.307601
vn 0.150791 -0.87985 0.450695
vn -0.0199707 -0.505076 -0.862844
vn -0.184258 -0.157599 -0.970161
vn -0.131577 0.411117 -0.902037
vn -0.159962 0.760313 -0.629552
vn 0.0995033 -0.555188 0.825752
vn 0.482118 -0.75896 0.437656
vn 0.240221 -0.828601 0.505682
vn 0.146526 -0.597994 0.787993
vn -0.0988038 -0.827519 0.552675
vn -0.290483 -0.740362 0.606205
vn -0.449241 -0.620804 -0.642483
vn -0.433494 -0.899176 -0.0597105
vn -0.116419 0.684936 -0.719242
vn 0.176132 -0.906783 0.383043
vn -0.551739 -0.483236 0.679755
vn -0.928814 -0.226656 0.29314
vn -0.615214 -0.474073 0.629893
vn -0.722674 0.351286 -0.595264
vn -0.526678 0.481391 -0.700623
vn -0.351073 0.647229 -0.676641
vn -0.112718 0.909807 -0.399432
vn 0.0529605 0.928493 -0.367553
vn -0.154408 -0.607262 0.779353
vn -0.175841 -0.59121 0.787115
vn 0.0510316 0.875089 -0.481265
vn -0.309489 0.678996 -0.665719
vn -0.0878834 -0.530995 0.842806
vn -0.030019 -0.695969 0.717444
vn 0.275652 -0.563221 0.778972
vn -0.10124 0.891807 -0.440942
vn -0.474839 0.752772 -0.45592
vn -0.598939 0.53605 -0.594914
vn -0.693622 0.0340432 -0.719534
vn -0.535893 -0.816807 0.213645
vn -0.878241 -0.439133 -0.189354
vn -0.944189 -0.325259 0.0520868
vn -0.945554 0.200609 -0.25629
vn -0.704749 0.585749 -0.400284
vn -0.96958 0.184529 -0.160821
vn 0.179781 0.910985 -0.371193
vn -0.267811 0.884558 -0.381884
vn -0.508355 -0.708795 0.489065
vn -0.543751 -0.697492 0.466733
vn -0.756284 0.367498 -0.541276
vn -0.996542 0.0484273 -0.0675159
vn 0.832454 0.371753 -0.410878
vn 0.674208 0.514103 -0.530228
vn 0.990757 0.10215 -0.0892509
vn 0.995835 -0.0200425 0.0889385
vn 0.956398 0.200014 -0.212833
vn 0.838495 0.468891 -0.27761
vn 0.921789 0.334168 -0.196563
vn -0.999458 -0.0313657 -0.00996421
vn -0.961703 -0.203527 0.183588
vn -0.903416 -0.342655 0.257735
vn -0.994803 -0.101741 0.00396419
vn -0.511836 0.66321 -0.546055
vn -0.928204 0.238154 -0.285866
vn -0.735403 0.340856 -0.585661
vn -0.803614 0.453532 -0.385374
vn -0.961494 -0.106445 0.253374
vn -0.118219 -0.779334 0.615356
vn -0.0587335 -0.67514 0.735348
vn 0.236487 -0.702186 0.671572
vn 0.239084 -0.763744 0.599612
vn -0.702039 -0.239425 0.670684
vn -0.0122355 0.728325 -0.685123
vn -0.33657 0.690817 -0.639916
vn -0.419247 0.561374 -0.713506
vn -0.560152 -0.725641 0.399594
vn -0.817452 -0.499061 0.287593
vn -0.336149 -0.773766 0.536927
vn -0.64202 0.525425 -0.558336
vn -0.613304 0.573308 -0.543301
vn -0.407481 -0.839605 -0.359198
vn -0.729513 -0.683509 0.0250251
vn -0.29122 -0.923717 0.248873
vn -0.157564 0.755037 -0.636469
vn -0.186222 -0.740756 -0.645447
vn -0.0398934 -0.983521 -0.17634
vn 0.00112939 -0.880585 -0.473887
vn -0.374006 -0.333902 -0.865233
vn -0.486524 -0.0241128 -0.873334
vn -0.116278 0.91057 -0.396662
vn -0.105217 0.815799 -0.568683
vn -0.349168 0.594886 -0.724012
vn -0.0515528 -0.905193 -0.421863
vn 0.982098 0.175696 -0.0679317
vn 0.982968 -0.180745 -0.0332319
vn 0.968095 0.231588 -0.0957024
vn -0.2002 -0.57922 0.790205
vn -0.438709 -0.491662 0.752198
vn -0.0123876 -0.442205 0.896828
vn -0.38622 -0.36456 0.847308
vn -0.760731 -0.35234 0.545111
vn -0.378485 -0.290273 -0.878915
vn 0.0527502 0.867919 -0.493897
vn -0.0744512 -0.811577 0.579483
vn -0.495238 -0.729776 0.471345
vn -0.94789 -0.302435 0.100192
vn -0.922153 -0.343304 0.178257
vn -0.0545461 0.650636 -0.757429
vn -0.397062 0.471618 -0.787349
vn -0.198734 0.594193 -0.779384
vn -0.881912 -0.41933 0.21539
vn -0.637156 0.431496 -0.638626
vn 0.700061 -0.670727 0.245029
vn 0.0943239 -0.909735 0.404334
vn 0.435221 -0.73442 0.520779
vn -0.480243 -0.248487 0.841202
vn 0.607927 -0.464579 0.643887
vn 0.428601 -0.623501 0.653871
vn 0.162576 -0.58717 0.79297
vn 0.128839 -0.470125 0.873146
vn 0.283092 -0.485694 0.827019
vn 0.868966 -0.332939 0.366127
vn 0.914949 -0.32644 0.237287
vn -0.387774 -0.681948 0.620144
vn 0.0266437 0.932558 -0.360035
vn 0.290396 -0.404043 0.867421
vn 0.340998 -0.461156 0.81918
vn -0.878967 -0.43447 0.196604
vn 0.0364791 0.683559 0.728983
vn 0.089636 0.570243 0.816571
vn -0.994576 -0.0642931 -0.0817572
vn 0.093501 0.912277 -0.398758
vn 0.192713 0.80129 -0.566389
vn 0.0949023 0.79647 -0.597184
vn -0.793235 0.34775 -0.499847
vn 0.998758 0.0489439 0.00936073
vn 0.363757 -0.463116 0.808211
vn 0.242457 -0.447385 0.860849
vn 0.730322 0.460119 -0.504897
vn 0.996262 0.0483134 0.0716058
vn 0.92518 0.311463 -0.216873
vn 0.693541 -0.550837 0.464305
vn 0.988843 -0.0424712 0.142779
vn 0.978342 0.171889 -0.115329
vn 0.761625 0.536512 -0.363431
vn 0.261537 0.68884 -0.67609
vn 0.246594 0.674155 -0.696209
vn 0.115325 0.595955 -0.794693
vn -0.745251 -0.500616 0.440436
vn -0.689926 -0.602355 0.40146
vn 0.348316 -0.0835406 -0.933647
vn 0.948994 -0.277671 -0.149362
vn 0.8764 0.384996 -0.289312
vn 0.170731 -0.229149 -0.958301
vn 0.874796 0.393923 -0.282057
vn 0.793478 0.454645 -0.404587
vn 0.765402 0.53528 -0.357262
vn 0.341679 0.78297 -0.519821
vn 0.313782 0.888653 -0.334421
vn -0.886447 -0.447104 0.119621
vn -0.608493 -0.612326 0.504771
vn -0.105302 0.921706 -0.373322
vn -0.980684 -0.0522379 0.188495
vn -0.98512 0.0543827 -0.16304
vn -0.941233 -0.246901 0.230478
vn -0.000526816 0.945109 -0.326756
vn -0.812925 0.395277 -0.427678
vn -0.830861 -0.450141 0.327175
vn 0.0906457 0.934887 -0.343177
vn -0.995337 0.0438857 -0.0858967
vn -0.751652 0.353672 -0.556718
vn 0.624532 -0.395292 0.673575
vn -0.996738 -0.0124351 0.0797449
vn -0.979117 -0.165584 0.117947
vn -0.97375 -0.206113 0.0965823
vn -0.997891 -0.0633017 -0.0143515
vn 0.997505 0.0700764 0.0085022
vn 0.306379 0.65853 -0.687365
vn -0.996241 0.0861086 0.00943598
vn -0.769913 -0.163764 0.616778
vn -0.2125 0.894442 -0.393469
vn -0.377334 -0.10749 -0.919818
vn -0.907032 -0.416068 -0.0646513
vn -0.429656 -0.0644489 -0.90069
vn 0.220912 -0.95151 0.214072
vn 0.846158 -0.527258 -0.0775622
vn -0.78009 -0.507369 -0.366108
vn -0.664587 0.451824 -0.59513
vn -0.886175 -0.228757 -0.402944
vn -0.394781 -0.348067 -0.850293
vn -0.907032 -0.416068 -0.0646513
vn 0.36263 -0.931923 0.0043151
vn 0.834463 -0.540333 -0.108219
vn -0.907032 -0.416068 -0.0646513
vn 0.36263 -0.931923 0.0043151
vn 0.232889 0.760063 -0.606686
vn 0.36263 -0.931923 0.0043151
vn 0.285324 0.7674 -0.574184
vn -0.769225 0.449604 -0.454037
vn -0.925077 -0.125158 -0.358563
vn -0.793197 0.417801 -0.443037
vn -0.858039 -0.345567 -0.379938
vn -0.115338 0.93819 -0.326337
vn -0.0175291 0.780923 0.624381
vn 0.0364791 0.683559 0.728983
vn 0.924293 -0.131047 0.358482
vn 0.960884 -0.0923077 0.261117
vn -0.0395421 -0.389593 0.920138
vn 0.059304 0.933867 -0.352669
vn 0.239077 -0.475854 0.846407
vn 0.661582 0.638413 -0.393368
vn 0.670846 0.661547 -0.335144
vn 0.949464 0.27451 -0.15219
vn 0.603875 0.633676 -0.483518
vn -0.922434 -0.352742 0.157126
vn 0.827557 0.504227 -0.246789
vn 0.849127 -0.248178 0.466252
vn 0.630264 0.562507 -0.53512
vn 0.16825 0.851687 -0.496307
g grp1
usemtl mtl1
f 3//3 2//2 1//1 
f 5//5 183//183 4//4 
f 3//3 1//1 184//184 
f 7//7 6//6 2//2 
f 2//2 6//6 1//1 
f 186//186 4//4 183//183 
f 10//10 9//9 8//8 
f 3//3 12//12 11//11 
f 15//15 14//14 13//13 
f 18//18 17//17 16//16 
f 20//20 19//19 2//2 
f 22//22 21//21 8//8 
f 21//21 24//24 23//23 
f 27//27 26//26 25//25 
f 16//16 28//28 18//18 
f 18//18 29//29 13//13 
f 31//31 15//15 30//30 
f 33//33 30//30 32//32 
f 19//19 7//7 2//2 
f 34//34 22//22 8//8 
f 24//24 21//21 22//22 
f 27//27 25//25 23//23 
f 35//35 14//14 31//31 
f 13//13 36//36 17//17 
f 38//38 37//37 19//19 
f 40//40 4//4 39//39 
f 4//4 40//40 41//41 
f 42//42 34//34 9//9 
f 24//24 27//27 23//23 
f 43//43 35//35 31//31 
f 45//45 38//38 44//44 
f 46//46 36//36 13//13 
f 48//48 47//47 17//17 
f 50//50 49//49 7//7 
f 51//51 27//27 24//24 
f 47//47 52//52 38//38 
f 55//55 54//54 53//53 
f 58//58 57//57 56//56 
f 194//194 60//60 59//59 
f 46//46 61//61 36//36 
f 53//53 43//43 62//62 
f 51//51 63//63 27//27 
f 57//57 24//24 64//64 
f 65//65 35//35 43//43 
f 66//66 48//48 36//36 
f 62//62 43//43 67//67 
f 59//59 63//63 68//68 
f 24//24 57//57 51//51 
f 70//70 69//69 42//42 
f 41//41 70//70 42//42 
f 40//40 71//71 41//41 
f 53//53 61//61 65//65 
f 74//74 73//73 72//72 
f 73//73 71//71 49//49 
f 71//71 75//75 70//70 
f 70//70 75//75 69//69 
f 50//50 37//37 72//72 
f 50//50 73//73 49//49 
f 49//49 71//71 40//40 
f 75//75 76//76 69//69 
f 76//76 22//22 69//69 
f 73//73 50//50 72//72 
f 38//38 72//72 37//37 
f 71//71 70//70 41//41 
f 69//69 22//22 34//34 
f 76//76 64//64 22//22 
f 35//35 65//65 46//46 
f 46//46 65//65 61//61 
f 77//77 76//76 75//75 
f 66//66 36//36 61//61 
f 43//43 53//53 65//65 
f 198//198 60//60 194//194 
f 63//63 78//78 26//26 
f 57//57 58//58 51//51 
f 59//59 68//68 79//79 
f 80//80 47//47 48//48 
f 80//80 81//81 47//47 
f 62//62 55//55 53//53 
f 199//199 82//82 57//57 
f 83//83 82//82 199//199 
f 76//76 83//83 199//199 
f 52//52 72//72 38//38 
f 36//36 48//48 17//17 
f 59//59 60//60 63//63 
f 69//69 34//34 42//42 
f 49//49 40//40 39//39 
f 45//45 47//47 38//38 
f 46//46 14//14 35//35 
f 43//43 31//31 67//67 
f 64//64 24//24 22//22 
f 49//49 39//39 7//7 
f 50//50 7//7 19//19 
f 37//37 50//50 19//19 
f 14//14 46//46 13//13 
f 67//67 31//31 204//204 
f 78//78 63//63 60//60 
f 51//51 58//58 63//63 
f 78//78 191//191 26//26 
f 42//42 9//9 41//41 
f 17//17 47//47 45//45 
f 59//59 79//79 194//194 
f 68//68 63//63 58//58 
f 4//4 186//186 39//39 
f 39//39 6//6 7//7 
f 38//38 19//19 20//20 
f 78//78 60//60 201//201 
f 23//23 85//85 84//84 
f 188//188 23//23 84//84 
f 86//86 28//28 11//11 
f 18//18 28//28 29//29 
f 209//209 32//32 30//30 
f 29//29 28//28 86//86 
f 87//87 15//15 29//29 
f 30//30 87//87 209//209 
f 87//87 84//84 209//209 
f 87//87 29//29 88//88 
f 87//87 88//88 84//84 
f 29//29 86//86 88//88 
f 88//88 188//188 84//84 
f 87//87 30//30 15//15 
f 188//188 88//88 86//86 
f 89//89 188//188 86//86 
f 8//8 89//89 90//90 
f 89//89 86//86 90//90 
f 86//86 11//11 90//90 
f 12//12 90//90 11//11 
f 85//85 23//23 25//25 
f 85//85 25//25 189//189 
f 190//190 210//210 26//26 
f 13//13 29//29 15//15 
f 16//16 44//44 28//28 
f 28//28 44//44 11//11 
f 201//201 60//60 198//198 
f 190//190 26//26 191//191 
f 8//8 188//188 89//89 
f 34//34 8//8 9//9 
f 41//41 9//9 4//4 
f 38//38 20//20 44//44 
f 16//16 45//45 44//44 
f 17//17 45//45 16//16 
f 13//13 17//17 18//18 
f 14//14 15//15 31//31 
f 204//204 31//31 33//33 
f 26//26 27//27 63//63 
f 31//31 30//30 33//33 
f 44//44 20//20 11//11 
f 10//10 5//5 4//4 
f 187//187 185//185 10//10 
f 10//10 8//8 90//90 
f 10//10 90//90 187//187 
f 9//9 10//10 4//4 
f 20//20 2//2 3//3 
f 3//3 11//11 20//20 
f 12//12 3//3 184//184 
f 192//192 207//207 74//74 
f 196//196 208//208 91//91 
f 92//92 208//208 83//83 
f 92//92 83//83 93//93 
f 75//75 74//74 94//94 
f 91//91 205//205 202//202 
f 56//56 203//203 58//58 
f 83//83 206//206 93//93 
f 76//76 77//77 83//83 
f 93//93 80//80 48//48 
f 75//75 73//73 74//74 
f 92//92 53//53 54//54 
f 197//197 53//53 92//92 
f 77//77 75//75 94//94 
f 93//93 200//200 197//197 
f 75//75 71//71 73//73 
f 56//56 57//57 82//82 
f 72//72 192//192 74//74 
f 92//92 93//93 197//197 
f 74//74 207//207 94//94 
f 91//91 208//208 92//92 
f 47//47 81//81 193//193 
f 83//83 94//94 207//207 
f 54//54 205//205 91//91 
f 206//206 83//83 207//207 
f 205//205 54//54 195//195 
f 196//196 91//91 202//202 
f 91//91 92//92 54//54 
f 93//93 48//48 200//200 
f 83//83 77//77 94//94 
f 97//97 96//96 95//95 
f 96//96 98//98 95//95 
f 99//99 211//211 96//96 
f 102//102 101//101 100//100 
f 102//102 100//100 103//103 
f 99//99 104//104 212//212 
f 107//107 106//106 105//105 
f 110//110 109//109 108//108 
f 112//112 106//106 111//111 
f 115//115 114//114 113//113 
f 116//116 106//106 112//112 
f 119//119 118//118 117//117 
f 121//121 216//216 120//120 
f 123//123 95//95 122//122 
f 95//95 123//123 124//124 
f 117//117 125//125 119//119 
f 128//128 127//127 126//126 
f 131//131 130//130 129//129 
f 133//133 130//130 132//132 
f 117//117 134//134 222//222 
f 110//110 108//108 115//115 
f 130//130 131//131 132//132 
f 134//134 214//214 222//222 
f 133//133 132//132 104//104 
f 99//99 133//133 104//104 
f 134//134 216//216 214//214 
f 109//109 114//114 108//108 
f 123//123 122//122 135//135 
f 103//103 100//100 136//136 
f 137//137 109//109 110//110 
f 139//139 109//109 138//138 
f 142//142 141//141 140//140 
f 141//141 124//124 140//140 
f 139//139 143//143 109//109 
f 97//97 141//141 144//144 
f 147//147 146//146 145//145 
f 113//113 117//117 118//118 
f 212//212 104//104 148//148 
f 146//146 147//147 136//136 
f 145//145 146//146 217//217 
f 115//115 113//113 118//118 
f 151//151 150//150 149//149 
f 136//136 110//110 146//146 
f 153//153 152//152 151//151 
f 149//149 150//150 154//154 
f 153//153 151//151 149//149 
f 213//213 122//122 95//95 
f 124//124 97//97 95//95 
f 235//235 122//122 213//213 
f 145//145 155//155 147//147 
f 155//155 145//145 127//127 
f 145//145 218//218 127//127 
f 215//215 226//226 223//223 
f 227//227 229//229 224//224 
f 117//117 120//120 134//134 
f 218//218 225//225 127//127 
f 134//134 120//120 216//216 
f 111//111 106//106 107//107 
f 114//114 234//234 219//219 
f 146//146 110//110 115//115 
f 219//219 113//113 114//114 
f 156//156 101//101 129//129 
f 105//105 230//230 228//228 
f 108//108 114//114 115//115 
f 113//113 120//120 117//117 
f 146//146 118//118 217//217 
f 135//135 122//122 157//157 
f 156//156 100//100 101//101 
f 137//137 100//100 156//156 
f 136//136 137//137 110//110 
f 157//157 122//122 235//235 
f 153//153 159//159 158//158 
f 220//220 111//111 107//107 
f 97//97 124//124 141//141 
f 104//104 132//132 148//148 
f 136//136 147//147 103//103 
f 123//123 135//135 140//140 
f 158//158 152//152 153//153 
f 137//137 136//136 100//100 
f 153//153 149//149 159//159 
f 144//144 141//141 142//142 
f 140//140 124//124 123//123 
f 138//138 109//109 160//160 
f 109//109 143//143 114//114 
f 160//160 109//109 137//137 
f 115//115 118//118 146//146 
f 219//219 234//234 221//221 
f 234//234 232//232 221//221 
f 162//162 237//237 161//161 
f 163//163 99//99 96//96 
f 164//164 157//157 241//241 
f 166//166 165//165 230//230 
f 148//148 132//132 240//240 
f 231//231 167//167 112//112 
f 230//230 105//105 166//166 
f 132//132 131//131 240//240 
f 168//168 127//127 128//128 
f 242//242 170//170 169//169 
f 102//102 150//150 151//151 
f 173//173 172//172 171//171 
f 173//173 248//248 172//172 
f 102//102 174//174 150//150 
f 175//175 149//149 154//154 
f 239//239 175//175 172//172 
f 101//101 102//102 151//151 
f 248//248 244//244 243//243 
f 176//176 168//168 245//245 
f 129//129 151//151 152//152 
f 238//238 172//172 249//249 
f 248//248 177//177 244//244 
f 176//176 175//175 168//168 
f 247//247 138//138 160//160 
f 129//129 101//101 151//151 
f 170//170 158//158 169//169 
f 175//175 239//239 149//149 
f 154//154 168//168 175//175 
f 131//131 152//152 158//158 
f 170//170 131//131 158//158 
f 131//131 129//129 152//152 
f 173//173 177//177 248//248 
f 102//102 103//103 174//174 
f 105//105 106//106 166//166 
f 116//116 165//165 166//166 
f 238//238 239//239 172//172 
f 140//140 135//135 178//178 
f 131//131 170//170 240//240 
f 178//178 177//177 171//171 
f 173//173 171//171 177//177 
f 106//106 116//116 166//166 
f 245//245 168//168 128//128 
f 179//179 250//250 246//246 
f 237//237 236//236 161//161 
f 231//231 112//112 111//111 
f 135//135 251//251 178//178 
f 251//251 135//135 164//164 
f 171//171 180//180 178//178 
f 180//180 140//140 178//178 
f 164//164 135//135 157//157 
f 240//240 170//170 242//242 
f 181//181 163//163 247//247 
f 175//175 176//176 172//172 
f 133//133 99//99 163//163 
f 116//116 179//179 165//165 
f 181//181 129//129 130//130 
f 156//156 181//181 182//182 
f 247//247 160//160 181//181 
f 182//182 137//137 156//156 
f 182//182 160//160 137//137 
f 181//181 156//156 129//129 
f 133//133 163//163 181//181 
f 142//142 140//140 180//180 
f 97//97 144//144 163//163 
f 144//144 116//116 112//112 
f 144//144 142//142 116//116 
f 154//154 174//174 168//168 
f 130//130 133//133 181//181 
f 116//116 142//142 179//179 
f 181//181 160//160 182//182 
f 103//103 147//147 174//174 
f 96//96 97//97 163//163 
f 233//233 111//111 220//220 
f 144//144 112//112 167//167 
f 171//171 172//172 176//176 
f 142//142 180//180 179//179 
f 154//154 150//150 174//174 
f 155//155 127//127 168//168 
f 171//171 250//250 179//179 
f 144//144 167//167 163//163 
f 171//171 179//179 180//180 
f 174//174 147//147 155//155 
f 111//111 233//233 231//231 
f 168//168 174//174 155//155 
