v 10.1967 -185.759 1481.77
v 9.45624 -186.731 1482.7
v 9.48545 -186.522 1483.19
v 12.0915 -167.069 1482.6
v 11.6437 -169.88 1481.54
v 12.8974 -182.931 1482.14
v 9.80715 -184.887 1481.69
v 10.9831 -185.959 1482.2
v 11.9617 -167.674 1482.08
v 12.285 -178.979 1481.22
v 9.66141 -186.043 1481.97
v 11.654 -182.748 1481.41
v 14.4987 -175.762 1481.44
v 10.4235 -186.376 1482.11
v 10.4886 -186.615 1482.47
v 13.6562 -168.213 1480.8
v 14.5518 -176.127 1485.93
v 10.8525 -168.396 1485.6
v 9.0915 -184.572 1483.41
v 9.62715 -185.753 1483.8
v 12.6516 -179.713 1486.34
v 11.7207 -183.39 1484.67
v 11.8049 -177.171 1486.65
v 10.636 -172.839 1485.54
v 11.1066 -186.098 1482.69
v 12.5853 -175.396 1481.07
v 12.9111 -167.381 1481.54
v 11.8174 -177.781 1481.6
v 13.6835 -181.299 1482.44
v 15.1284 -175.216 1484.6
v 11.9217 -173.702 1481.63
v 15.1587 -168.207 1482.71
v 9.06763 -185.179 1482.51
v 15.4394 -171.097 1481.2
v 13.8519 -167.179 1484.58
v 11.142 -177.477 1483.41
v 12.7543 -181.686 1485.31
v 10.6453 -171.936 1483.95
v 13.4585 -169.177 1480.4
v 11.7135 -173.878 1487.53
v 10.2602 -170.72 1485.34
v 10.8535 -179.531 1483.18
v 11.0877 -183.158 1484.83
v 15.5211 -171.581 1483.62
v 9.05571 -185.66 1482.87
v 11.0795 -179.517 1482.32
v 10.3268 -183.339 1481.64
v 14.3761 -169.46 1480.36
v 10.3914 -182.863 1484.68
v 13.2007 -182.875 1482.68
v 12.637 -182.15 1481.64
v 13.3606 -181.134 1481.93
v 13.5915 -173.803 1487.46
v 12.4103 -168.495 1486.64
v 12.1363 -170.132 1487.77
v 11.3477 -169.458 1487.31
v 12.87 -166.572 1484.07
v 9.21716 -185.811 1483.34
v 11.3373 -185.643 1483.4
v 10.4656 -186.443 1483.4
v 10.5404 -184.913 1484.31
v 10.6111 -186.582 1482.99
v 11.0007 -171.672 1487.57
v 11.5899 -168.708 1481.92
v 12.0866 -167.938 1486.21
v 10.7617 -170.596 1487.39
v 12.478 -177.238 1487.09
v 10.8583 -179.477 1484.48
v 9.35442 -184.984 1482.03
v 11.6088 -185.429 1483.06
v 14.4494 -173.009 1486.43
v 12.3366 -171.205 1488.03
v 11.3212 -171.069 1482.08
v 12.227 -173.072 1487.96
v 12.7671 -172.658 1487.97
v 11.2662 -168.293 1486.23
v 13.1821 -167.507 1485.49
v 11.7449 -167.237 1485.02
v 11.3746 -167.34 1484.08
v 9.67287 -183.58 1484.19
v 9.31736 -183.837 1483.77
v 10.1546 -186.865 1482.86
v 10.0112 -186.188 1483.7
v 13.4411 -170.279 1487.13
v 15.1043 -173.586 1481.46
v 9.25801 -186.381 1482.73
v 13.4823 -182.486 1483.51
v 14.0744 -167.651 1481.27
v 9.59732 -186.674 1482.38
v 10.7182 -185.532 1481.77
v 10.646 -181.857 1481.94
v 14.1651 -179.206 1482.64
v 14.8911 -170.098 1485.04
v 9.20294 -184.199 1482.4
v 10.3756 -184.378 1481.49
v 9.36055 -183.287 1482.91
v 12.501 -183.993 1483.21
v 15.267 -169.416 1483.74
v 15.0822 -172.768 1485.14
v 13.8667 -171.802 1480.18
v 15.0969 -170.359 1480.62
v 15.3532 -169.324 1481.55
v 14.7201 -167.475 1483.35
v 14.1614 -166.934 1483.83
v 9.15214 -183.851 1483.26
v 10.7699 -185.447 1484.05
v 12.1767 -168.664 1481.32
v 13.6907 -180.242 1485.53
v 11.107 -176.649 1484.8
v 10.0636 -181.586 1483.26
v 11.5824 -180.922 1485.66
v 13.8969 -178.261 1486.27
v 10.7775 -169.496 1486.91
v 14.075 -176.15 1486.67
v 13.4743 -172.162 1487.51
v 10.3563 -170.377 1486.44
v 11.2961 -167.736 1483.19
v 10.6107 -171.658 1486.84
v 12.0009 -166.792 1483.82
v 9.88688 -186.734 1483.22
v 11.2881 -175.093 1482.97
v 11.3487 -177.448 1485.84
v 12.8635 -166.551 1482.79
v 13.6712 -166.537 1483.17
v 9.83017 -186.892 1482.69
v 12.4322 -170.808 1480.77
v 11.3102 -181.91 1481.52
v 10.0469 -182.115 1482.56
v 9.26506 -185.958 1482.31
v 12.8266 -168.955 1480.74
v 9.01933 -184.589 1482.93
v 14.8134 -177.539 1483.99
v 11.7362 -184.393 1481.86
v 15.5859 -171.465 1482.02
v 13.7925 -170.384 1480.12
v 11.9118 -184.869 1482.58
v 10.9688 -180.469 1485.27
v 14.2245 -167.054 1481.99
v 13.9373 -181.245 1483.2
v 13.736 -174.998 1480.71
v 13.5371 -178.66 1481.5
v 9.9362 -186.598 1482.18
v 12.9428 -169.386 1487.05
v 13.3861 -175.976 1487.26
v 10.7142 -168.591 1484.05
v 9.75545 -182.55 1483.84
v 9.34149 -184.97 1483.8
v 12.958 -176.758 1487.25
v 10.4877 -184.214 1484.55
v 11.0774 -169.005 1482.69
v 13.7482 -168.4 1485.78
v 10.4276 -169.238 1485.36
v 13.2319 -182.13 1484.58
v 12.3864 -183.539 1484.12
v 9.68176 -183.866 1481.91
v 14.4501 -178.279 1485.18
v 14.1686 -171.124 1486.62
v 11.1565 -174.187 1486.61
v 11.4418 -171.165 1487.94
v 10.5276 -169.97 1483.82
v 12.5185 -167.016 1485.11
v 11.1459 -185.455 1483.84
v 9.88655 -184.628 1484.27
v 13.2647 -179.259 1486.39
v 13.9483 -180.992 1484.32
v 15.366 -174.288 1483
v 14.2946 -169.611 1485.86
v 13.2169 -172.317 1480.41
v 13.3698 -166.817 1482.04
v 14.6763 -171.499 1480.38
v 14.4737 -168.123 1484.62
v 11.1169 -184.291 1481.52
v 9.56695 -183.266 1482.36
v 14.8535 -176.753 1482.71
v 15.5517 -169.707 1482.56
v 14.9069 -168.855 1480.96
v 14.7956 -167.718 1481.9
v 14.3104 -166.859 1482.88
v 9.45624 -186.731 1482.7
v 9.45624 -186.731 1482.7
v 9.45624 -186.731 1482.7
v 9.48545 -186.522 1483.19
v 12.87 -166.572 1484.07
v 9.59732 -186.674 1482.38
v 9.83017 -186.892 1482.69
v 12.5185 -167.016 1485.11
vn -0.0221871 -0.303882 -0.952451
vn -0.830936 -0.490295 0.262976
vn -0.657383 -0.495948 0.567347
vn -0.578209 0.711684 -0.398974
vn -0.773882 0.076699 -0.628668
vn 0.737249 -0.35944 -0.572073
vn -0.430978 -0.0246 -0.902027
vn 0.640713 -0.54178 -0.544024
vn -0.704433 0.444441 -0.553395
vn -0.413322 0.0180071 -0.910407
vn -0.455534 -0.298447 -0.838701
vn 0.0078813 -0.0507935 -0.998678
vn 0.742665 -0.232829 -0.627885
vn 0.32602 -0.577233 -0.748674
vn 0.472077 -0.803949 -0.361677
vn -0.0624658 0.486816 -0.871268
vn 0.891045 -0.113857 0.439403
vn -0.816898 0.536061 0.212876
vn -0.94858 -0.00430288 0.316509
vn -0.470998 -0.355993 0.807112
vn 0.0247299 -0.366088 0.930251
vn 0.23839 -0.422592 0.874406
vn -0.722465 -0.154411 0.673945
vn -0.985472 -0.158558 0.0608679
vn 0.754785 -0.648388 -0.0994582
vn -0.513956 -0.04672 -0.856544
vn -0.3416 0.593092 -0.729076
vn -0.724151 0.0844449 -0.684452
vn 0.865829 -0.249842 -0.433498
vn 0.97111 -0.110528 0.211491
vn -0.787399 -0.0379486 -0.615275
vn 0.936723 0.349364 0.0222343
vn -0.942952 -0.0219991 -0.332201
vn 0.929959 -0.0319079 -0.366275
vn 0.488482 0.718423 0.49523
vn -0.991061 0.101077 -0.0870713
vn 0.424393 -0.485574 0.76427
vn -0.965222 -0.11669 -0.233945
vn -0.170971 0.286502 -0.942701
vn -0.601152 -0.209738 0.77112
vn -0.997986 -0.0389498 -0.0500685
vn -0.959034 0.25337 -0.126717
vn -0.0477119 -0.280563 0.958649
vn 0.986319 0.0031443 0.164821
vn -0.9885 -0.150549 0.0142056
vn -0.915434 0.217536 -0.338613
vn -0.397763 0.163483 -0.902806
vn 0.307794 0.277709 -0.910022
vn -0.521125 -0.0449715 0.852295
vn 0.870711 -0.438727 -0.222216
vn 0.475942 -0.2159 -0.852565
vn 0.73922 -0.199888 -0.643116
vn 0.633273 -0.0514105 0.772219
vn 0.165678 0.617176 0.769184
vn 0.140492 0.390674 0.909745
vn -0.305124 0.493056 0.814736
vn 0.318987 0.841191 0.436629
vn -0.856297 -0.268275 0.441344
vn 0.712881 -0.600849 0.361637
vn 0.374596 -0.702523 0.605095
vn -0.0238448 -0.35373 0.935044
vn 0.611177 -0.771642 0.176158
vn -0.753805 -0.163943 0.636318
vn -0.779403 0.259543 -0.570236
vn -0.131942 0.720937 0.680324
vn -0.759752 0.111065 0.640657
vn -0.327393 -0.242575 0.91322
vn -0.974114 0.187895 0.125687
vn -0.736359 -0.00488013 -0.676573
vn 0.816197 -0.572854 0.075234
vn 0.836642 0.0143302 0.547562
vn 0.225343 0.126134 0.96608
vn -0.86583 -0.0529786 -0.497526
vn -0.106058 -0.145603 0.983642
vn 0.319141 -0.0451657 0.946631
vn -0.513167 0.660024 0.54866
vn 0.365457 0.683078 0.632334
vn -0.472086 0.810284 0.347238
vn -0.771008 0.636105 -0.0302793
vn -0.703911 0.0822098 0.705515
vn -0.871237 0.136614 0.471469
vn 0.298826 -0.939123 0.169561
vn -0.107514 -0.542534 0.833125
vn 0.597418 0.282247 0.750619
vn 0.875095 -0.181535 -0.448613
vn -0.916203 -0.397251 -0.052567
vn 0.878945 -0.461033 0.122082
vn 0.289007 0.61106 -0.73694
vn -0.673423 -0.436037 -0.59697
vn 0.349845 -0.377297 -0.85747
vn -0.683638 0.270484 -0.677848
vn 0.893787 -0.205323 -0.398733
vn 0.886641 0.163128 0.432733
vn -0.888109 0.200928 -0.413388
vn -0.149099 -0.0427912 -0.987896
vn -0.924348 0.349821 -0.152332
vn 0.815713 -0.548551 0.183588
vn 0.934636 0.201983 0.292673
vn 0.932675 0.0187158 0.360231
vn 0.00437461 -0.105025 -0.99446
vn 0.74394 0.0553726 -0.665948
vn 0.940714 0.215232 -0.262169
vn 0.858936 0.478492 0.182411
vn 0.628647 0.705897 0.326361
vn -0.961449 0.241515 0.131474
vn 0.253337 -0.489212 0.834561
vn -0.617941 0.275519 -0.736368
vn 0.732354 -0.373124 0.569593
vn -0.999861 -0.00629971 0.0154653
vn -0.926046 0.362144 -0.106254
vn -0.348033 -0.255613 0.901962
vn 0.741697 -0.235192 0.628148
vn -0.780184 0.401305 0.479861
vn 0.748083 -0.121306 0.652424
vn 0.632227 0.09056 0.769472
vn -0.971188 0.039272 0.235055
vn -0.827911 0.460027 -0.320841
vn -0.931554 -0.159972 0.32652
vn -0.492863 0.870104 0.00229675
vn -0.11451 -0.828191 0.548624
vn -0.958757 -0.0240394 -0.28321
vn -0.943551 -0.0498501 0.327455
vn -0.221217 0.952484 -0.209373
vn 0.262612 0.964784 0.0150443
vn -0.302231 -0.893764 0.331426
vn -0.620832 0.0034569 -0.783936
vn -0.408827 0.0971187 -0.90743
vn -0.836338 0.367997 -0.406345
vn -0.836356 -0.23993 -0.492893
vn -0.453794 0.265628 -0.850596
vn -0.992197 0.108888 -0.0607407
vn 0.978578 -0.205844 -0.00356338
vn 0.584301 -0.381241 -0.716413
vn 0.992228 -0.0373638 -0.118692
vn -0.155462 0.0530941 -0.986414
vn 0.805622 -0.521056 -0.28191
vn -0.815004 0.023969 0.578959
vn 0.432455 0.799662 -0.416561
vn 0.950843 -0.273605 -0.145046
vn 0.106454 -0.15205 -0.982623
vn 0.605843 -0.192693 -0.771896
vn -0.00548427 -0.682442 -0.73092
vn 0.43587 0.472888 0.765764
vn 0.430445 -0.18234 0.884007
vn -0.929634 0.338833 -0.14482
vn -0.892567 0.280882 0.352746
vn -0.74513 -0.111457 0.65754
vn 0.131969 -0.244163 0.960712
vn -0.178062 -0.21996 0.95912
vn -0.885963 0.192343 -0.421987
vn 0.63032 0.450946 0.631937
vn -0.964957 0.255753 0.0587269
vn 0.71629 -0.505994 0.480519
vn 0.628629 -0.528376 0.570653
vn -0.654552 0.215511 -0.724649
vn 0.923164 -0.216541 0.317612
vn 0.789009 0.147558 0.596399
vn -0.877657 -0.199947 0.435591
vn -0.37058 0.0638223 0.926605
vn -0.963196 0.0528674 -0.263551
vn 0.24657 0.745608 0.61909
vn 0.525608 -0.529149 0.666136
vn -0.424549 -0.187406 0.885798
vn 0.426641 -0.338964 0.838499
vn 0.914944 -0.326956 0.236594
vn 0.988639 -0.137149 -0.0615063
vn 0.775197 0.289592 0.561432
vn -0.346267 -0.0890602 -0.933899
vn -0.0459168 0.848189 -0.527699
vn 0.487846 -0.100727 -0.867099
vn 0.802628 0.387534 0.453437
vn 0.229915 -0.210438 -0.950187
vn -0.801223 0.357784 -0.479618
vn 0.93778 -0.222773 -0.266347
vn 0.990008 0.136971 0.0335063
vn 0.678045 0.387581 -0.624529
vn 0.791242 0.531371 -0.302623
vn 0.664052 0.746787 -0.0366685
vn -0.349577 -0.851695 0.390399
vn -0.801643 -0.423483 -0.421937
vn -0.388046 -0.86461 -0.319169
vn -0.408666 -0.845111 0.344644
vn -0.222663 0.963014 0.15174
vn -0.252632 -0.869231 -0.424988
vn -0.00592094 -0.903855 -0.427798
vn -0.29273 0.857405 0.423279
g grp1
usemtl mtl1
f 61//61 149//149 163//163 
f 9//9 64//64 150//150 
f 117//117 9//9 150//150 
f 159//159 63//63 40//40 
f 66//66 63//63 159//159 
f 64//64 5//5 150//150 
f 167//167 171//171 151//151 
f 68//68 110//110 146//146 
f 105//105 146//146 96//96 
f 146//146 105//105 81//81 
f 146//146 110//110 96//96 
f 81//81 105//105 19//19 
f 131//131 19//19 105//105 
f 105//105 96//96 131//131 
f 131//131 33//33 45//45 
f 97//97 87//87 153//153 
f 165//165 153//153 87//87 
f 97//97 153//153 154//154 
f 154//154 59//59 97//97 
f 97//97 59//59 70//70 
f 153//153 165//165 108//108 
f 108//108 156//156 112//112 
f 108//108 165//165 156//156 
f 156//156 17//17 112//112 
f 112//112 17//17 114//114 
f 114//114 17//17 71//71 
f 17//17 156//156 30//30 
f 17//17 99//99 71//71 
f 17//17 30//30 99//99 
f 115//115 71//71 157//157 
f 115//115 157//157 84//84 
f 157//157 167//167 84//84 
f 84//84 167//167 151//151 
f 36//36 42//42 68//68 
f 42//42 110//110 68//68 
f 68//68 109//109 36//36 
f 38//38 73//73 121//121 
f 121//121 73//73 31//31 
f 35//35 151//151 171//171 
f 144//144 112//112 114//114 
f 114//114 53//53 144//144 
f 71//71 115//115 53//53 
f 115//115 84//84 72//72 
f 72//72 84//84 55//55 
f 55//55 84//84 143//143 
f 84//84 151//151 143//143 
f 143//143 151//151 77//77 
f 77//77 54//54 143//143 
f 108//108 112//112 164//164 
f 164//164 112//112 144//144 
f 144//144 53//53 75//75 
f 53//53 115//115 75//75 
f 115//115 72//72 75//75 
f 55//55 143//143 54//54 
f 65//65 56//56 54//54 
f 144//144 75//75 74//74 
f 74//74 75//75 72//72 
f 144//144 74//74 148//148 
f 74//74 72//72 159//159 
f 72//72 55//55 159//159 
f 54//54 56//56 55//55 
f 55//55 56//56 159//159 
f 56//56 66//66 159//159 
f 148//148 74//74 67//67 
f 67//67 74//74 40//40 
f 74//74 159//159 40//40 
f 63//63 66//66 118//118 
f 158//158 63//63 118//118 
f 40//40 63//63 158//158 
f 66//66 116//116 118//118 
f 118//118 116//116 24//24 
f 116//116 152//152 41//41 
f 41//41 152//152 160//160 
f 152//152 145//145 160//160 
f 117//117 150//150 145//145 
f 145//145 150//150 160//160 
f 160//160 73//73 38//38 
f 150//150 73//73 160//160 
f 41//41 24//24 116//116 
f 41//41 160//160 38//38 
f 41//41 38//38 24//24 
f 38//38 121//121 24//24 
f 158//158 24//24 122//122 
f 158//158 122//122 23//23 
f 122//122 24//24 109//109 
f 24//24 121//121 109//109 
f 36//36 109//109 121//121 
f 35//35 77//77 151//151 
f 66//66 113//113 116//116 
f 113//113 56//56 76//76 
f 113//113 76//76 18//18 
f 56//56 113//113 66//66 
f 76//76 65//65 78//78 
f 76//76 56//56 65//65 
f 161//161 65//65 54//54 
f 161//161 54//54 77//77 
f 65//65 186//186 78//78 
f 161//161 77//77 57//57 
f 77//77 35//35 57//57 
f 35//35 104//104 124//124 
f 35//35 124//124 57//57 
f 18//18 152//152 113//113 
f 113//113 152//152 116//116 
f 79//79 18//18 78//78 
f 76//76 78//78 18//18 
f 119//119 78//78 183//183 
f 78//78 119//119 79//79 
f 78//78 186//186 183//183 
f 124//124 123//123 183//183 
f 18//18 79//79 145//145 
f 152//152 18//18 145//145 
f 145//145 79//79 117//117 
f 117//117 79//79 4//4 
f 79//79 119//119 4//4 
f 183//183 123//123 119//119 
f 119//119 123//123 4//4 
f 117//117 4//4 9//9 
f 80//80 146//146 81//81 
f 19//19 131//131 45//45 
f 19//19 45//45 58//58 
f 81//81 147//147 80//80 
f 19//19 147//147 81//81 
f 58//58 20//20 147//147 
f 80//80 163//163 49//49 
f 80//80 147//147 163//163 
f 147//147 20//20 163//163 
f 25//25 59//59 62//62 
f 60//60 62//62 59//59 
f 162//162 59//59 154//154 
f 59//59 162//162 60//60 
f 106//106 162//162 22//22 
f 154//154 22//22 162//162 
f 162//162 106//106 60//60 
f 106//106 22//22 61//61 
f 45//45 86//86 58//58 
f 86//86 2//2 3//3 
f 182//182 179//179 125//125 
f 120//120 182//182 125//125 
f 125//125 82//82 120//120 
f 120//120 82//82 60//60 
f 60//60 82//82 62//62 
f 86//86 3//3 58//58 
f 83//83 3//3 120//120 
f 83//83 120//120 60//60 
f 106//106 83//83 60//60 
f 3//3 20//20 58//58 
f 3//3 83//83 20//20 
f 106//106 61//61 83//83 
f 20//20 83//83 61//61 
f 153//153 108//108 37//37 
f 154//154 153//153 37//37 
f 108//108 164//164 37//37 
f 164//164 148//148 21//21 
f 144//144 148//148 164//164 
f 21//21 148//148 67//67 
f 23//23 111//111 67//67 
f 23//23 67//67 40//40 
f 154//154 37//37 22//22 
f 164//164 21//21 37//37 
f 37//37 21//21 22//22 
f 67//67 111//111 21//21 
f 21//21 111//111 22//22 
f 111//111 43//43 22//22 
f 43//43 61//61 22//22 
f 43//43 149//149 61//61 
f 146//146 137//137 68//68 
f 80//80 49//49 146//146 
f 146//146 49//49 137//137 
f 163//163 149//149 49//49 
f 149//149 43//43 49//49 
f 109//109 68//68 122//122 
f 122//122 68//68 137//137 
f 137//137 49//49 111//111 
f 49//49 43//43 111//111 
f 23//23 122//122 137//137 
f 137//137 111//111 23//23 
f 158//158 23//23 40//40 
f 61//61 163//163 20//20 
f 58//58 147//147 19//19 
f 24//24 158//158 118//118 
f 71//71 53//53 114//114 
f 150//150 5//5 73//73 
f 59//59 25//25 70//70 
f 9//9 107//107 64//64 
f 4//4 169//169 27//27 
f 123//123 169//169 4//4 
f 82//82 185//185 15//15 
f 4//4 27//27 9//9 
f 1//1 95//95 172//172 
f 172//172 90//90 1//1 
f 28//28 91//91 46//46 
f 107//107 5//5 64//64 
f 33//33 129//129 45//45 
f 96//96 110//110 128//128 
f 128//128 91//91 173//173 
f 96//96 128//128 173//173 
f 94//94 131//131 96//96 
f 94//94 33//33 131//131 
f 29//29 50//50 6//6 
f 139//139 50//50 29//29 
f 139//139 165//165 87//87 
f 87//87 97//97 50//50 
f 139//139 87//87 50//50 
f 50//50 97//97 136//136 
f 70//70 136//136 97//97 
f 136//136 70//70 25//25 
f 92//92 132//132 139//139 
f 92//92 174//174 132//132 
f 139//139 132//132 165//165 
f 132//132 156//156 165//165 
f 132//132 30//30 156//156 
f 93//93 71//71 99//99 
f 93//93 157//157 71//71 
f 157//157 93//93 167//167 
f 128//128 46//46 91//91 
f 110//110 42//42 46//46 
f 36//36 46//46 42//42 
f 110//110 46//46 128//128 
f 36//36 121//121 46//46 
f 28//28 46//46 121//121 
f 28//28 121//121 31//31 
f 126//126 73//73 5//5 
f 126//126 31//31 73//73 
f 167//167 93//93 171//171 
f 29//29 92//92 139//139 
f 132//132 166//166 30//30 
f 174//174 166//166 132//132 
f 30//30 44//44 99//99 
f 98//98 93//93 99//99 
f 44//44 98//98 99//99 
f 93//93 98//98 171//171 
f 32//32 103//103 98//98 
f 103//103 171//171 98//98 
f 44//44 30//30 166//166 
f 134//134 44//44 166//166 
f 134//134 175//175 44//44 
f 44//44 175//175 98//98 
f 98//98 175//175 32//32 
f 102//102 32//32 175//175 
f 85//85 134//134 166//166 
f 166//166 174//174 85//85 
f 175//175 134//134 102//102 
f 134//134 34//34 102//102 
f 134//134 85//85 34//34 
f 13//13 140//140 170//170 
f 170//170 85//85 13//13 
f 170//170 135//135 48//48 
f 48//48 101//101 170//170 
f 140//140 100//100 170//170 
f 170//170 100//100 135//135 
f 135//135 39//39 48//48 
f 135//135 130//130 39//39 
f 135//135 126//126 130//130 
f 130//130 126//126 107//107 
f 140//140 168//168 100//100 
f 135//135 168//168 126//126 
f 135//135 100//100 168//168 
f 168//168 140//140 26//26 
f 10//10 28//28 26//26 
f 31//31 126//126 26//26 
f 171//171 104//104 35//35 
f 171//171 103//103 104//104 
f 85//85 101//101 34//34 
f 170//170 101//101 85//85 
f 101//101 176//176 102//102 
f 34//34 101//101 102//102 
f 176//176 177//177 102//102 
f 102//102 177//177 32//32 
f 177//177 103//103 32//32 
f 177//177 178//178 103//103 
f 104//104 178//178 124//124 
f 104//104 103//103 178//178 
f 101//101 48//48 176//176 
f 48//48 88//88 176//176 
f 16//16 88//88 48//48 
f 176//176 88//88 177//177 
f 88//88 138//138 177//177 
f 177//177 138//138 178//178 
f 138//138 124//124 178//178 
f 124//124 169//169 123//123 
f 124//124 138//138 169//169 
f 48//48 39//39 16//16 
f 27//27 88//88 16//16 
f 138//138 88//88 169//169 
f 88//88 27//27 169//169 
f 130//130 27//27 16//16 
f 39//39 130//130 16//16 
f 27//27 107//107 9//9 
f 27//27 130//130 107//107 
f 155//155 173//173 91//91 
f 155//155 94//94 173//173 
f 155//155 69//69 94//94 
f 69//69 33//33 94//94 
f 155//155 91//91 47//47 
f 7//7 69//69 155//155 
f 129//129 33//33 69//69 
f 69//69 7//7 11//11 
f 7//7 155//155 47//47 
f 1//1 7//7 95//95 
f 7//7 47//47 95//95 
f 15//15 8//8 25//25 
f 25//25 8//8 136//136 
f 8//8 133//133 136//136 
f 136//136 6//6 50//50 
f 136//136 133//133 6//6 
f 15//15 14//14 8//8 
f 133//133 8//8 90//90 
f 14//14 90//90 8//8 
f 90//90 172//172 133//133 
f 25//25 62//62 15//15 
f 62//62 82//82 15//15 
f 45//45 129//129 86//86 
f 129//129 89//89 86//86 
f 86//86 89//89 180//180 
f 181//181 184//184 185//185 
f 184//184 142//142 185//185 
f 142//142 15//15 185//185 
f 129//129 11//11 89//89 
f 89//89 11//11 142//142 
f 15//15 142//142 14//14 
f 142//142 1//1 14//14 
f 90//90 14//14 1//1 
f 11//11 129//129 69//69 
f 11//11 1//1 142//142 
f 1//1 11//11 7//7 
f 6//6 52//52 29//29 
f 29//29 52//52 92//92 
f 85//85 174//174 13//13 
f 174//174 92//92 13//13 
f 92//92 141//141 13//13 
f 6//6 51//51 52//52 
f 6//6 133//133 51//51 
f 52//52 51//51 141//141 
f 141//141 51//51 12//12 
f 172//172 51//51 133//133 
f 51//51 172//172 12//12 
f 172//172 95//95 12//12 
f 91//91 127//127 47//47 
f 47//47 127//127 12//12 
f 47//47 12//12 95//95 
f 28//28 127//127 91//91 
f 28//28 10//10 127//127 
f 127//127 10//10 12//12 
f 26//26 140//140 10//10 
f 10//10 140//140 12//12 
f 12//12 140//140 141//141 
f 92//92 52//52 141//141 
f 140//140 13//13 141//141 
f 126//126 168//168 26//26 
f 28//28 31//31 26//26 
f 5//5 107//107 126//126 
f 96//96 173//173 94//94 
