v -13.9839 -161.606 1515.25
v -13.912 -161.606 1515.44
v -13.9264 -161.534 1515.34
v -13.8924 -161.547 1515.56
v -13.9501 -161.473 1515.39
v -14.107 -161.714 1515.23
v -13.9829 -161.703 1515.44
v -14.0357 -161.535 1515.13
v -13.9998 -161.472 1515.23
v -14.1186 -161.479 1515.06
v -14.1232 -161.542 1515.02
v -14.1044 -161.776 1515.4
v -14.1153 -161.614 1515.09
v -14.3258 -161.81 1515.27
v -14.214 -161.617 1515.01
v -14.2528 -161.557 1514.94
v -14.2755 -161.497 1514.97
v -14.4105 -161.743 1515.06
v -14.5592 -161.671 1514.9
v -14.6001 -161.56 1514.87
v -13.9346 -161.683 1515.79
v -13.9296 -161.571 1515.87
v -13.9576 -161.485 1515.64
v -13.9811 -161.652 1515.99
v -14.0367 -161.795 1515.69
v -14.0601 -161.782 1515.94
v -14.0496 -161.559 1515.92
v -14.0292 -161.498 1515.79
v -14.3628 -161.882 1515.63
v -14.1417 -161.523 1515.85
v -14.0971 -161.74 1516.06
v -14.3552 -161.868 1515.86
v -14.1329 -161.614 1515.97
v -14.1569 -161.809 1516.04
v -14.3566 -161.69 1515.94
v -14.455 -161.578 1515.76
v -16.1462 -162.106 1514.96
v -14.4023 -161.844 1515.93
v -14.4847 -161.786 1515.91
v -15.8427 -161.82 1515.2
v -15.4138 -161.596 1515.05
v -15.9376 -162.014 1515.15
v -14.0718 -161.41 1515.3
v -14.0846 -161.429 1515.2
v -14.0242 -161.422 1515.44
v -14.2258 -161.419 1515.14
v -14.1474 -161.395 1515.37
v -14.3815 -161.422 1515.35
v -14.5124 -161.433 1515.15
v -14.58 -161.478 1514.98
v -14.0953 -161.43 1515.59
v -14.2622 -161.477 1515.67
v -15.4519 -161.732 1514.7
v -14.9198 -161.719 1514.8
v -15.6867 -161.976 1514.75
v -15.4099 -161.645 1514.77
v -15.4566 -161.846 1514.72
v -15.4786 -162.024 1514.98
v -15.9471 -161.905 1514.59
v -15.9942 -161.748 1514.6
v -16.8343 -162.165 1514.58
v -16.3029 -161.683 1514.67
v -16.3544 -161.899 1514.47
v -16.5464 -162.044 1514.48
v -16.7602 -161.839 1514.38
v -16.6244 -161.976 1514.91
v -16.8078 -161.762 1514.44
v -17.2532 -161.977 1514.27
v -16.6288 -161.972 1514.91
v -16.6777 -161.751 1514.74
v -17.6456 -162.155 1514.3
v -17.581 -162.21 1514.53
v -17.3601 -161.897 1514.7
v -17.4664 -162.122 1514.65
v -17.7881 -161.877 1514.21
v -17.8094 -161.778 1514.47
v -17.9935 -162.016 1514.16
v -17.9735 -162.238 1514.37
v -18.3598 -162.171 1514.53
v -17.7875 -161.787 1514.31
v -17.9876 -161.902 1514.58
v -18.6148 -162.242 1514.26
v -18.4972 -162.147 1514.18
v -18.6198 -162.033 1514.13
v -18.3716 -162.255 1514.43
v -18.3814 -162.045 1514.58
v -18.2731 -161.938 1514.14
v -18.5105 -161.869 1514.19
v -18.5407 -161.806 1514.31
v -19.0955 -161.863 1514.41
v -18.7637 -161.89 1514.47
v -18.5026 -161.944 1514.54
v -18.5772 -162.282 1514.35
v -18.9237 -162.316 1514.35
v -19.0606 -162.132 1514.2
v -18.7331 -162.213 1514.5
v -18.7362 -162.284 1514.41
v -18.8716 -162.304 1514.41
v -18.8871 -162.236 1514.51
v -19.0083 -162.28 1514.53
v -18.8953 -162.136 1514.56
v -19.0702 -161.852 1514.31
v -18.9806 -161.87 1514.24
v -18.9782 -161.978 1514.17
v -18.7832 -162.11 1514.55
v -18.7849 -162.028 1514.55
v -18.9257 -162.051 1514.57
v -19.1044 -161.935 1514.53
v -19.1641 -162.299 1514.35
v -19.3269 -162.166 1514.31
v -19.3855 -162.306 1514.54
v -18.9925 -162.148 1514.61
v -19.0088 -162.329 1514.43
v -19.0858 -162.278 1514.68
v -19.1282 -162.346 1514.44
v -19.1054 -162.337 1514.54
v -19.1489 -162.353 1514.67
v -19.1994 -162.377 1514.88
v -19.1633 -162.246 1514.96
v -19.2984 -162.364 1514.57
v -19.1979 -162.375 1514.62
v -19.3089 -162.42 1514.88
v -19.3847 -162.4 1514.86
v -19.4588 -162.132 1514.45
v -19.0984 -162.167 1514.76
v -19.224 -162.329 1515.03
v -19.2828 -162.268 1515.09
v -19.3161 -162.395 1515.03
v -19.3311 -162.339 1515.1
v -19.3514 -162.274 1515.13
v -19.3819 -162.399 1515.01
v -19.3955 -162.356 1515.09
v -19.4068 -162.29 1515.12
v -19.2168 -161.952 1514.24
v -19.242 -162.03 1514.22
v -19.2355 -161.89 1514.31
v -19.3365 -161.904 1514.38
v -19.3871 -162.054 1514.31
v -19.3556 -161.976 1514.3
v -19.435 -162 1514.38
v -19.06 -162.15 1514.67
v -19.0526 -162.074 1514.63
v -19.104 -162.093 1514.7
v -19.1544 -162.027 1514.68
v -19.2895 -161.939 1514.63
v -19.2485 -162.063 1514.89
v -19.3818 -161.973 1514.84
v -19.3746 -161.907 1514.51
v -19.3955 -161.927 1514.64
v -19.4539 -161.953 1514.5
v -19.4565 -161.941 1514.6
v -19.4542 -161.955 1514.76
v -19.45 -161.994 1514.93
v -19.2928 -162.158 1515.05
v -19.3689 -162.085 1515.04
v -19.3644 -162.173 1515.11
v -19.4446 -162.037 1515.01
v -19.3838 -162.009 1514.94
v -19.4172 -162.19 1515.12
v -19.433 -162.117 1515.09
v -19.4617 -162.324 1514.8
v -19.4506 -162.351 1515.01
v -19.4751 -162.246 1514.63
v -19.4686 -162.292 1515.08
v -19.5275 -162.252 1514.98
v -19.4983 -162.028 1514.52
v -19.5268 -162.028 1514.68
v -19.507 -161.992 1514.75
v -19.5042 -162.004 1514.88
v -19.5339 -162.109 1514.67
v -19.5408 -162.188 1514.81
v -19.5576 -162.112 1514.86
v -19.538 -162.048 1514.87
v -19.5544 -162.179 1514.97
v -19.4758 -162.189 1515.1
v -19.4968 -162.105 1515.06
v -19.5037 -162.049 1514.98
v -19.5298 -162.188 1515.05
v -19.5454 -162.117 1514.99
v -14.1232 -161.542 1515.02
v -14.2528 -161.557 1514.94
v -14.6001 -161.56 1514.87
v -13.9296 -161.571 1515.87
v -13.9811 -161.652 1515.99
v -14.0971 -161.74 1516.06
v -14.1569 -161.809 1516.04
v -14.1569 -161.809 1516.04
v -14.4023 -161.844 1515.93
v -15.9376 -162.014 1515.15
v -15.4519 -161.732 1514.7
v -14.9198 -161.719 1514.8
v -16.6244 -161.976 1514.91
v -17.581 -162.21 1514.53
v -17.3601 -161.897 1514.7
v -18.6198 -162.033 1514.13
v -18.3716 -162.255 1514.43
v -18.2731 -161.938 1514.14
v -18.5772 -162.282 1514.35
v -18.9237 -162.316 1514.35
v -19.0083 -162.28 1514.53
v -19.1633 -162.246 1514.96
v -19.0984 -162.167 1514.76
v -19.2355 -161.89 1514.31
vn 0.775425 -0.468346 -0.423519
vn 0.914242 -0.364109 -0.177726
vn 0.941103 0.135757 -0.309671
vn 0.970603 0.240573 0.0074194
vn 0.699496 0.709075 -0.0889851
vn 0.478773 -0.779151 -0.404599
vn 0.691948 -0.689478 -0.214075
vn 0.824865 0.00874842 -0.565262
vn 0.69423 0.627744 -0.352111
vn 0.483586 0.67002 -0.563221
vn 0.502088 0.477386 -0.721117
vn 0.398014 -0.889871 -0.222968
vn 0.566884 -0.612215 -0.551212
vn 0.276579 -0.914545 -0.295146
vn 0.414821 -0.645951 -0.640835
vn 0.349373 -0.446645 -0.823679
vn 0.200316 0.720734 -0.663638
vn 0.313176 -0.813339 -0.490307
vn 0.291969 -0.552837 -0.780465
vn 0.0546119 0.708982 -0.703109
vn 0.877353 -0.471894 0.0869928
vn 0.967939 -0.172025 0.183032
vn 0.529757 0.832745 0.160913
vn 0.820145 -0.476181 0.317196
vn 0.523867 -0.85079 -0.0414849
vn 0.537104 -0.819837 0.198461
vn 0.117199 0.795584 0.594399
vn 0.145682 0.925736 0.348983
vn 0.213834 -0.976066 -0.039625
vn -0.14399 0.865379 0.479986
vn 0.662316 -0.62889 0.407229
vn 0.127502 -0.980971 0.14642
vn -0.159246 0.676058 0.719434
vn 0.14136 -0.976746 0.161197
vn -0.374102 0.505234 0.77768
vn -0.320596 0.79758 0.510964
vn -0.0564248 -0.920506 0.386632
vn -0.0864785 -0.905248 0.41599
vn -0.418842 0.036054 0.907343
vn -0.394063 0.487559 0.779102
vn -0.200925 0.969155 0.142719
vn -0.247069 -0.73727 0.6288
vn 0.341505 0.930119 -0.135102
vn 0.363143 0.879092 -0.308747
vn 0.358633 0.931637 0.0586002
vn 0.0564054 0.966863 -0.248988
vn 0.0390847 0.998895 0.0260996
vn -0.14522 0.983403 0.108766
vn -0.111243 0.988633 -0.101144
vn -0.0491121 0.922763 -0.382227
vn 0.0589248 0.97385 0.219416
vn -0.188234 0.930426 0.314443
vn 0.201502 -0.0503081 -0.978195
vn 0.222527 -0.0907476 -0.970694
vn 0.258378 -0.76467 -0.590356
vn -0.00103224 0.839702 -0.543046
vn 0.250321 -0.432885 -0.865997
vn 0.202359 -0.949413 -0.240138
vn 0.268079 -0.287534 -0.919488
vn 0.163369 0.520209 -0.838268
vn 0.142338 -0.953857 -0.264379
vn -0.0293543 0.982056 -0.186289
vn 0.256962 -0.0816364 -0.962967
vn 0.230442 -0.630959 -0.740802
vn 0.175829 0.369295 -0.912527
vn -0.329317 -0.0602128 0.942298
vn 0.0844776 0.781529 -0.618123
vn 0.18992 -0.182638 -0.964662
vn -0.262541 -0.425433 0.866071
vn -0.206381 0.766211 0.608545
vn 0.141202 -0.711758 -0.688086
vn 0.0548525 -0.99752 0.0441131
vn -0.168292 0.521189 0.836684
vn -0.152282 -0.442924 0.883532
vn 0.0954349 0.506596 -0.856886
vn -0.088782 0.929414 0.358201
vn 0.113454 -0.202396 -0.97271
vn 0.0853889 -0.975263 -0.203891
vn -0.0321893 -0.598121 0.800759
vn 0.00215847 0.91739 -0.397984
vn -0.134115 0.565542 0.813742
vn 0.0300069 -0.777568 -0.628082
vn 0.0368374 -0.540873 -0.840297
vn -0.0153865 -0.250593 -0.96797
vn 0.0634974 -0.989983 0.126101
vn -0.0919873 0.0244216 0.995461
vn 0.0902701 0.0373472 -0.995217
vn -0.0353896 0.675723 -0.736305
vn -0.0581757 0.979474 -0.192993
vn -0.0692305 0.962297 0.263044
vn -0.0429876 0.622178 0.781695
vn -0.0996224 0.404609 0.909047
vn 0.0815791 -0.904827 -0.417891
vn -0.00768382 -0.840809 -0.541278
vn -0.153562 -0.419359 -0.894739
vn 0.0777056 -0.606183 0.79152
vn 0.102055 -0.872435 0.477955
vn 0.185555 -0.917315 0.352281
vn 0.263196 -0.616601 0.741977
vn 0.391941 -0.770105 0.50331
vn 0.261112 -0.243381 0.934123
vn -0.152246 0.972064 -0.178639
vn -0.144231 0.768735 -0.623092
vn -0.15572 0.279442 -0.947451
vn 0.0425967 -0.205706 0.977686
vn -0.0182752 0.275229 0.961205
vn 0.221897 0.246279 0.943456
vn 0.249025 0.716519 0.651603
vn -0.215321 -0.766551 -0.60501
vn -0.502445 -0.479145 -0.7197
vn -0.581012 -0.715915 -0.387157
vn 0.579222 -0.133752 0.804122
vn 0.242996 -0.953314 0.179291
vn 0.8321 -0.429623 0.350762
vn 0.0637067 -0.983036 -0.171995
vn 0.462299 -0.873331 0.153531
vn 0.59443 -0.800666 0.074751
vn 0.630411 -0.755611 0.17786
vn 0.907706 -0.310994 0.281696
vn -0.229157 -0.931198 -0.283472
vn 0.25569 -0.965027 -0.0578452
vn 0.0472524 -0.99888 -0.00255586
vn -0.4769 -0.870803 -0.119455
vn -0.844287 -0.297093 -0.446
vn 0.940095 -0.138044 0.311714
vn 0.675458 -0.460702 0.575769
vn 0.576942 0.0537038 0.815017
vn 0.250992 -0.869721 0.424957
vn 0.256151 -0.500429 0.827018
vn 0.179714 -0.0464119 0.982623
vn -0.292086 -0.930018 0.223053
vn -0.300149 -0.709087 0.638049
vn -0.27222 -0.271701 0.923079
vn -0.308443 0.507124 -0.804791
vn -0.385951 0.0131226 -0.922426
vn -0.331348 0.729151 -0.598788
vn -0.4521 0.852225 -0.263282
vn -0.692879 -0.0759173 -0.717047
vn -0.56126 0.454263 -0.691833
vn -0.819565 0.319642 -0.475544
vn 0.792717 0.152253 0.590271
vn 0.550753 0.431727 0.714341
vn 0.712233 0.482841 0.509499
vn 0.513374 0.699055 0.497765
vn 0.245082 0.902535 0.354068
vn 0.588577 0.684087 0.430816
vn 0.197005 0.939196 0.281246
vn -0.232676 0.971277 0.0498255
vn -0.0602944 0.984607 0.164052
vn -0.717768 0.66624 -0.202319
vn -0.56804 0.822987 -0.00475884
vn -0.313116 0.935595 0.163157
vn -0.168854 0.921469 0.349833
vn 0.586447 0.475571 0.655677
vn 0.358464 0.67628 0.643544
vn 0.313963 0.38559 0.867611
vn -0.0940685 0.795881 0.5981
vn 0.287081 0.856007 0.429926
vn -0.105751 0.178634 0.978216
vn -0.0774103 0.516672 0.852677
vn -0.753807 -0.641061 -0.14428
vn -0.689099 -0.705785 0.164349
vn -0.836425 -0.478022 -0.26812
vn -0.699973 -0.427314 0.572224
vn -0.878389 -0.464941 0.110735
vn -0.942855 0.174144 -0.284074
vn -0.918741 0.383339 -0.0946929
vn -0.745177 0.666008 0.033833
vn -0.62026 0.757685 0.202957
vn -0.970759 -0.117469 -0.209353
vn -0.934324 -0.332931 -0.127264
vn -0.996282 0.0823305 -0.0253927
vn -0.881574 0.459492 0.108141
vn -0.983894 -0.136172 0.115803
vn -0.507984 0.0668428 0.858769
vn -0.577523 0.461528 0.673394
vn -0.625401 0.671181 0.397982
vn -0.860122 -0.0733436 0.504788
vn -0.9073 0.295608 0.299037
vn 0.585045 -0.491897 -0.644794
vn 0.274785 0.561329 -0.780643
vn 0.225393 -0.0932651 -0.969793
vn 0.456188 0.798463 0.392875
vn 0.139053 0.664158 0.734547
vn -0.260731 0.358932 0.896207
vn 0.627874 -0.66262 0.4083
vn -0.377537 -0.0697926 0.923361
vn -0.397284 -0.223502 0.890063
vn -0.406642 -0.0996963 0.908132
vn 0.0728085 0.621294 -0.780188
vn 0.269109 -0.682482 -0.679558
vn -0.277768 0.538781 0.795337
vn -0.0766896 -0.754571 0.651722
vn -0.188815 -0.127708 0.973673
vn -0.0660802 0.405408 -0.911745
vn 0.00792575 -0.766316 0.642415
vn -0.036138 0.563975 -0.825
vn 0.0922218 -0.977188 0.191307
vn 0.14136 -0.988474 0.0541936
vn 0.822211 -0.358155 0.442374
vn 0.734921 0.342998 0.585015
vn 0.75998 0.474236 0.444445
vn -0.196133 0.980569 0.00412547
g grp1
usemtl mtl1
f 3//3 2//2 1//1 
f 3//3 4//4 2//2 
f 5//5 4//4 3//3 
f 7//7 6//6 1//1 
f 7//7 1//1 2//2 
f 3//3 1//1 8//8 
f 3//3 8//8 9//9 
f 3//3 9//9 5//5 
f 8//8 11//11 10//10 
f 8//8 10//10 9//9 
f 12//12 6//6 7//7 
f 1//1 6//6 13//13 
f 180//180 8//8 13//13 
f 8//8 1//1 13//13 
f 14//14 6//6 12//12 
f 15//15 180//180 13//13 
f 16//16 180//180 15//15 
f 17//17 11//11 181//181 
f 10//10 11//11 17//17 
f 18//18 13//13 6//6 
f 18//18 6//6 14//14 
f 18//18 15//15 13//13 
f 15//15 18//18 19//19 
f 20//20 17//17 181//181 
f 4//4 21//21 2//2 
f 4//4 22//22 21//21 
f 5//5 23//23 4//4 
f 2//2 21//21 7//7 
f 22//22 24//24 21//21 
f 4//4 23//23 183//183 
f 12//12 7//7 25//25 
f 25//25 21//21 26//26 
f 21//21 25//25 7//7 
f 26//26 21//21 24//24 
f 28//28 27//27 183//183 
f 25//25 29//29 12//12 
f 29//29 25//25 26//26 
f 28//28 30//30 27//27 
f 14//14 12//12 29//29 
f 31//31 26//26 24//24 
f 184//184 183//183 27//27 
f 26//26 32//32 29//29 
f 27//27 33//33 184//184 
f 33//33 185//185 184//184 
f 30//30 33//33 27//27 
f 26//26 34//34 32//32 
f 186//186 26//26 31//31 
f 185//185 33//33 35//35 
f 33//33 30//30 36//36 
f 33//33 36//36 35//35 
f 37//37 29//29 32//32 
f 37//37 32//32 38//38 
f 38//38 32//32 34//34 
f 185//185 39//39 187//187 
f 185//185 35//35 39//39 
f 36//36 40//40 35//35 
f 41//41 40//40 36//36 
f 39//39 188//188 187//187 
f 35//35 40//40 39//39 
f 37//37 38//38 42//42 
f 39//39 189//189 188//188 
f 43//43 5//5 9//9 
f 43//43 9//9 44//44 
f 5//5 43//43 45//45 
f 44//44 9//9 10//10 
f 44//44 10//10 46//46 
f 43//43 44//44 46//46 
f 47//47 45//45 43//43 
f 47//47 43//43 46//46 
f 10//10 17//17 46//46 
f 48//48 47//47 46//46 
f 48//48 46//46 49//49 
f 46//46 17//17 50//50 
f 46//46 50//50 49//49 
f 50//50 17//17 20//20 
f 23//23 5//5 45//45 
f 51//51 23//23 45//45 
f 51//51 28//28 23//23 
f 28//28 183//183 23//23 
f 51//51 45//45 47//47 
f 52//52 28//28 51//51 
f 30//30 28//28 52//52 
f 48//48 51//51 47//47 
f 52//52 51//51 48//48 
f 52//52 48//48 41//41 
f 36//36 30//30 52//52 
f 41//41 36//36 52//52 
f 182//182 16//16 19//19 
f 182//182 54//54 53//53 
f 182//182 19//19 54//54 
f 55//55 191//191 19//19 
f 20//20 190//190 56//56 
f 16//16 15//15 19//19 
f 55//55 19//19 18//18 
f 50//50 20//20 56//56 
f 41//41 49//49 50//50 
f 41//41 50//50 56//56 
f 48//48 49//49 41//41 
f 55//55 57//57 191//191 
f 53//53 54//54 57//57 
f 58//58 18//18 14//14 
f 14//14 29//29 58//58 
f 55//55 18//18 58//58 
f 37//37 58//58 29//29 
f 39//39 40//40 189//189 
f 59//59 53//53 57//57 
f 60//60 56//56 190//190 
f 58//58 61//61 55//55 
f 60//60 53//53 59//59 
f 55//55 59//59 57//57 
f 58//58 37//37 61//61 
f 62//62 56//56 60//60 
f 62//62 41//41 56//56 
f 63//63 60//60 59//59 
f 59//59 55//55 64//64 
f 64//64 55//55 61//61 
f 65//65 60//60 63//63 
f 189//189 40//40 66//66 
f 60//60 67//67 62//62 
f 60//60 65//65 67//67 
f 68//68 65//65 63//63 
f 68//68 63//63 64//64 
f 63//63 59//59 64//64 
f 42//42 69//69 37//37 
f 70//70 41//41 62//62 
f 40//40 41//41 70//70 
f 40//40 70//70 192//192 
f 68//68 64//64 71//71 
f 61//61 37//37 72//72 
f 192//192 70//70 73//73 
f 74//74 193//193 37//37 
f 37//37 69//69 74//74 
f 194//194 74//74 69//69 
f 64//64 61//61 71//71 
f 67//67 65//65 75//75 
f 75//75 65//65 68//68 
f 70//70 62//62 76//76 
f 77//77 68//68 71//71 
f 61//61 78//78 71//71 
f 61//61 72//72 78//78 
f 74//74 79//79 193//193 
f 67//67 75//75 80//80 
f 62//62 67//67 80//80 
f 77//77 75//75 68//68 
f 62//62 80//80 76//76 
f 73//73 70//70 81//81 
f 76//76 81//81 70//70 
f 71//71 78//78 82//82 
f 83//83 77//77 71//71 
f 84//84 77//77 83//83 
f 85//85 78//78 72//72 
f 193//193 79//79 196//196 
f 74//74 86//86 79//79 
f 74//74 194//194 86//86 
f 75//75 77//77 87//87 
f 197//197 88//88 75//75 
f 80//80 75//75 88//88 
f 87//87 77//77 84//84 
f 89//89 80//80 88//88 
f 76//76 80//80 89//89 
f 90//90 76//76 89//89 
f 73//73 81//81 86//86 
f 91//91 81//81 76//76 
f 81//81 92//92 86//86 
f 91//91 76//76 90//90 
f 81//81 91//91 92//92 
f 83//83 71//71 82//82 
f 78//78 93//93 82//82 
f 82//82 93//93 94//94 
f 95//95 83//83 82//82 
f 79//79 96//96 196//196 
f 78//78 85//85 198//198 
f 85//85 97//97 198//198 
f 196//196 96//96 97//97 
f 97//97 98//98 198//198 
f 99//99 98//98 97//97 
f 97//97 96//96 99//99 
f 100//100 98//98 99//99 
f 96//96 101//101 99//99 
f 195//195 88//88 197//197 
f 102//102 90//90 89//89 
f 89//89 88//88 103//103 
f 84//84 83//83 95//95 
f 195//195 104//104 88//88 
f 103//103 88//88 104//104 
f 102//102 89//89 103//103 
f 104//104 84//84 95//95 
f 79//79 86//86 105//105 
f 105//105 86//86 106//106 
f 86//86 92//92 106//106 
f 91//91 106//106 92//92 
f 105//105 96//96 79//79 
f 101//101 96//96 105//105 
f 105//105 107//107 101//101 
f 105//105 106//106 107//107 
f 106//106 91//91 107//107 
f 90//90 108//108 91//91 
f 109//109 82//82 94//94 
f 109//109 95//95 82//82 
f 111//111 110//110 109//109 
f 198//198 98//98 199//199 
f 100//100 99//99 112//112 
f 112//112 99//99 101//101 
f 98//98 113//113 199//199 
f 100//100 113//113 98//98 
f 112//112 114//114 200//200 
f 113//113 115//115 199//199 
f 116//116 113//113 100//100 
f 115//115 113//113 116//116 
f 94//94 115//115 109//109 
f 116//116 100//100 114//114 
f 116//116 114//114 117//117 
f 117//117 114//114 118//118 
f 119//119 118//118 114//114 
f 120//120 109//109 115//115 
f 116//116 121//121 115//115 
f 117//117 121//121 116//116 
f 121//121 117//117 118//118 
f 115//115 121//121 120//120 
f 118//118 122//122 121//121 
f 120//120 111//111 109//109 
f 121//121 122//122 120//120 
f 120//120 123//123 111//111 
f 122//122 123//123 120//120 
f 124//124 110//110 111//111 
f 125//125 119//119 114//114 
f 119//119 126//126 118//118 
f 201//201 127//127 126//126 
f 118//118 128//128 122//122 
f 128//128 118//118 126//126 
f 129//129 128//128 126//126 
f 129//129 127//127 130//130 
f 129//129 126//126 127//127 
f 122//122 128//128 131//131 
f 123//123 122//122 131//131 
f 132//132 131//131 128//128 
f 129//129 132//132 128//128 
f 133//133 132//132 129//129 
f 133//133 129//129 130//130 
f 104//104 134//134 103//103 
f 135//135 104//104 95//95 
f 135//135 134//134 104//104 
f 103//103 134//134 136//136 
f 136//136 102//102 103//103 
f 135//135 95//95 110//110 
f 90//90 102//102 203//203 
f 95//95 109//109 110//110 
f 90//90 203//203 137//137 
f 110//110 138//138 135//135 
f 110//110 124//124 138//138 
f 135//135 138//138 139//139 
f 135//135 139//139 134//134 
f 136//136 134//134 139//139 
f 137//137 136//136 139//139 
f 140//140 137//137 139//139 
f 101//101 107//107 112//112 
f 112//112 141//141 114//114 
f 142//142 141//141 112//112 
f 112//112 107//107 142//142 
f 107//107 91//91 108//108 
f 107//107 108//108 142//142 
f 141//141 125//125 114//114 
f 143//143 141//141 142//142 
f 141//141 143//143 202//202 
f 144//144 143//143 142//142 
f 145//145 144//144 108//108 
f 144//144 142//142 108//108 
f 145//145 108//108 90//90 
f 143//143 146//146 202//202 
f 143//143 144//144 146//146 
f 146//146 144//144 145//145 
f 147//147 146//146 145//145 
f 148//148 90//90 137//137 
f 148//148 145//145 90//90 
f 149//149 145//145 148//148 
f 147//147 145//145 149//149 
f 140//140 150//150 137//137 
f 137//137 150//150 148//148 
f 151//151 148//148 150//150 
f 151//151 149//149 148//148 
f 152//152 149//149 151//151 
f 152//152 147//147 149//149 
f 152//152 153//153 147//147 
f 201//201 146//146 154//154 
f 202//202 146//146 201//201 
f 127//127 201//201 154//154 
f 155//155 154//154 146//146 
f 127//127 156//156 130//130 
f 127//127 154//154 156//156 
f 156//156 154//154 155//155 
f 158//158 157//157 155//155 
f 158//158 146//146 147//147 
f 158//158 155//155 146//146 
f 159//159 130//130 156//156 
f 133//133 130//130 159//159 
f 156//156 160//160 159//159 
f 156//156 155//155 160//160 
f 155//155 157//157 160//160 
f 153//153 158//158 147//147 
f 153//153 157//157 158//158 
f 123//123 161//161 111//111 
f 162//162 161//161 123//123 
f 163//163 124//124 111//111 
f 163//163 111//111 161//161 
f 131//131 162//162 123//123 
f 132//132 133//133 164//164 
f 132//132 164//164 162//162 
f 131//131 132//132 162//162 
f 165//165 161//161 162//162 
f 165//165 162//162 164//164 
f 138//138 124//124 140//140 
f 138//138 140//140 139//139 
f 166//166 140//140 124//124 
f 166//166 150//150 140//140 
f 167//167 150//150 166//166 
f 150//150 167//167 151//151 
f 152//152 151//151 168//168 
f 152//152 168//168 169//169 
f 152//152 169//169 153//153 
f 170//170 124//124 163//163 
f 171//171 170//170 163//163 
f 161//161 171//171 163//163 
f 172//172 170//170 171//171 
f 170//170 166//166 124//124 
f 172//172 167//167 170//170 
f 173//173 167//167 172//172 
f 167//167 166//166 170//170 
f 151//151 167//167 168//168 
f 168//168 167//167 173//173 
f 168//168 173//173 169//169 
f 174//174 172//172 171//171 
f 133//133 175//175 164//164 
f 133//133 159//159 175//175 
f 159//159 160//160 175//175 
f 160//160 176//176 175//175 
f 177//177 176//176 157//157 
f 160//160 157//157 176//176 
f 177//177 153//153 169//169 
f 177//177 157//157 153//153 
f 178//178 164//164 175//175 
f 176//176 179//179 178//178 
f 176//176 178//178 175//175 
f 179//179 176//176 177//177 
f 169//169 173//173 177//177 
f 171//171 161//161 165//165 
f 165//165 174//174 171//171 
f 178//178 174//174 165//165 
f 178//178 165//165 164//164 
f 179//179 172//172 174//174 
f 178//178 179//179 174//174 
f 173//173 172//172 179//179 
f 173//173 179//179 177//177 
