v -20.691 -59.7039 979.727
v -21.412 -59.3806 979.534
v -21.3599 -59.988 980.098
v -20.9545 -61.0519 981.532
v -20.4824 -60.7556 981.316
v -20.4031 -59.8861 980.333
v -21.0716 -58 980.023
v -21.3737 -58.4637 979.334
v -22.2551 -55.85 979.584
v -22.0036 -57.3095 979.278
v -23.1568 -54.9462 979.493
v -22.372 -57.9152 979.483
v -22.2207 -59.2882 980.083
v -21.845 -61.1692 982.188
v -20.766 -62.1477 983.256
v -20.2554 -61.4123 982.869
v -20.3213 -62.3238 984.106
v -20.0574 -62.0746 984.749
v -20.2291 -60.3203 982.195
v -20.5531 -58.756 981.045
v -21.1414 -57.1533 981.648
v -22.0939 -55.519 980.352
v -22.0722 -55.5031 982.668
v -22.9019 -54.2021 979.655
v -23.4349 -53.7541 979.668
v -23.8978 -53.8265 979.744
v -23.7452 -55.3833 980.215
v -23.2528 -57.8338 980.75
v -23.0114 -59.7921 981.827
v -22.9026 -61.4421 983.661
v -21.8227 -62.5855 984.636
v -20.8325 -63.3863 986.293
v -21.9068 -63.5903 987.305
v -21.4586 -64.2136 989.246
v -20.9074 -64.1825 989.249
v -20.2995 -63.8156 988.736
v -20.9666 -64.4967 991.692
v -20.3969 -63.9887 991.559
v -20.0004 -63.246 988.806
v -20.0554 -63.1672 991.934
v -19.932 -62.2743 989.641
v -20.0394 -61.7431 992.592
v -20.0488 -61.2842 985.989
v -20.683 -58.7645 989.165
v -20.3422 -60.2999 993.394
v -20.7543 -59.1281 993.835
v -21.3825 -57.3224 990.828
v -21.8487 -57.2102 992.128
v -22.3348 -55.9017 988.548
v -22.9293 -55.8677 989.729
v -23.616 -55.0689 987.431
v -23.0721 -54.8818 985.404
v -23.8656 -54.5849 984.676
v -23.106 -54.4722 982.261
v -23.7759 -54.4009 982.621
v -23.717 -54.0441 981.325
v -23.7301 -53.6654 980.06
v -24.0592 -53.8475 980.645
v -24.1651 -54.6177 980.96
v -24.2117 -56.157 982.267
v -24.0859 -58.9094 983.721
v -23.734 -60.6949 984.452
v -23.4066 -61.7157 985.082
v -23.0296 -62.7245 986.681
v -22.7584 -63.7015 988.972
v -21.8771 -64.5275 991.446
v -21.0275 -65.0766 994.103
v -21.7108 -65.0168 994.082
v -21.0425 -65.3533 995.446
v -20.5324 -65.0522 995.515
v -20.294 -64.4071 994.153
v -20.0147 -64.2344 995.941
v -19.9171 -63.5193 994.627
v -19.8084 -62.8725 995.986
v -20.0595 -60.9967 996.099
v -20.4883 -60.1458 996.897
v -20.0384 -61.5994 997.359
v -20.6964 -60.5573 997.968
v -21.0577 -59.6143 996.941
v -21.1382 -58.928 994.921
v -22.1159 -58.2111 994.596
v -22.8731 -56.6198 991.79
v -24.0522 -55.7709 989.592
v -24.5366 -54.951 986.825
v -24.4656 -54.7688 984.827
v -24.3076 -54.6549 982.55
v -24.7655 -55.8948 984.959
v -24.7442 -57.3862 985.436
v -24.4846 -59.5055 986.82
v -23.8023 -62.0145 987.875
v -23.2749 -63.3072 989.889
v -22.5387 -64.2423 991.97
v -21.7788 -64.8266 995.183
v -20.8007 -65.1286 996.451
v -20.2885 -64.5971 996.499
v -19.9727 -63.137 997.091
v -20.3067 -61.9127 997.935
v -20.4359 -63.701 997.396
v -20.6852 -62.4078 998.111
v -20.794 -61.2952 998.311
v -21.1928 -61.9004 998.253
v -21.0913 -63.8938 997.394
v -21.4814 -63.0771 997.619
v -21.7601 -61.2679 997.978
v -21.3073 -60.7379 998.303
v -21.3236 -60.0698 997.954
v -21.9113 -59.9997 997.584
v -21.6773 -59.483 997.098
v -22.407 -58.951 995.948
v -23.1524 -57.7912 993.811
v -23.9075 -56.829 991.978
v -24.6265 -56.2785 989.729
v -24.8928 -56.2597 987.199
v -24.8076 -58.3432 989.227
v -24.0427 -61.4397 990.142
v -22.8972 -63.5346 992.901
v -22.0713 -63.5968 996.173
v -23.6914 -61.3003 992.669
v -23.2432 -61.0266 994.641
v -22.216 -61.8253 997.042
v -23.3248 -59.7855 994.953
v -22.5472 -60.1559 996.732
v -21.4915 -64.7036 996.404
v -23.2166 -58.7276 994.87
v -24.3178 -57.7363 992.202
v -24.8187 -57.2621 990.129
v -24.4098 -59.0504 991.642
v -22.2247 -55.5753 985.958
v -21.4938 -56.7033 987.373
v -21.1015 -57.1788 984.42
v -20.46 -58.8553 983.323
v -20.1765 -63.1059 986.441
v -20.691 -59.7039 979.727
v -20.691 -59.7039 979.727
v -20.4824 -60.7556 981.316
v -20.4031 -59.8861 980.333
v -21.3737 -58.4637 979.334
v -22.0036 -57.3095 979.278
v -23.1568 -54.9462 979.493
v -22.9019 -54.2021 979.655
v -23.4349 -53.7541 979.668
v -23.4349 -53.7541 979.668
v -23.8978 -53.8265 979.744
v -23.8978 -53.8265 979.744
v -23.7759 -54.4009 982.621
v -23.7301 -53.6654 980.06
v -24.0592 -53.8475 980.645
v -24.0592 -53.8475 980.645
v -21.0275 -65.0766 994.103
v -21.0425 -65.3533 995.446
v -21.0425 -65.3533 995.446
v -24.5366 -54.951 986.825
v -24.5366 -54.951 986.825
v -24.4656 -54.7688 984.827
v -24.3076 -54.6549 982.55
v -20.8007 -65.1286 996.451
v -20.8007 -65.1286 996.451
v -20.8007 -65.1286 996.451
v -21.0913 -63.8938 997.394
v -21.3073 -60.7379 998.303
v -21.3236 -60.0698 997.954
v -21.4915 -64.7036 996.404
v -20.1765 -63.1059 986.441
vn 0.203492 -0.757239 -0.620629
vn -0.264745 -0.447933 -0.853971
vn -0.289968 -0.737045 -0.610477
vn 0.11318 -0.834192 -0.539735
vn 0.416065 -0.76398 -0.493178
vn 0.634321 -0.603726 -0.482859
vn 0.877035 0.335622 -0.343754
vn 0.717835 0.286091 -0.634717
vn 0.646848 0.305727 -0.698655
vn 0.447796 0.256718 -0.85649
vn 0.130727 0.166778 -0.97729
vn -0.55257 -0.244031 -0.796941
vn -0.645936 -0.510312 -0.567758
vn -0.429829 -0.752347 -0.49922
vn 0.155369 -0.864507 -0.478004
vn 0.791232 -0.504371 -0.345777
vn 0.664713 -0.672657 -0.3251
vn 0.974935 -0.189494 -0.116595
vn 0.995869 0.00483417 -0.0906786
vn 0.954634 0.27764 -0.107654
vn 0.906182 0.41792 -0.0646332
vn 0.881142 0.438264 -0.177518
vn 0.80999 0.585552 0.0323172
vn 0.789818 0.61288 -0.0237783
vn -0.0286496 0.138285 -0.989978
vn -0.176678 0.102139 -0.978955
vn -0.840785 -0.238838 -0.485837
vn -0.857584 -0.290046 -0.424762
vn -0.773164 -0.462716 -0.433718
vn -0.621373 -0.665246 -0.413937
vn -0.328296 -0.857722 -0.395644
vn 0.158637 -0.936817 -0.311783
vn -0.311857 -0.907143 -0.282554
vn -0.0589871 -0.977276 -0.203596
vn 0.23173 -0.955176 -0.184231
vn 0.640271 -0.758347 -0.122325
vn 0.395515 -0.90817 -0.137099
vn 0.829596 -0.556276 -0.0482361
vn 0.965441 -0.259095 -0.0281607
vn 0.979081 -0.201915 -0.0251066
vn 0.999973 -0.000624111 0.00733797
vn 0.993266 0.114756 -0.015932
vn 0.997098 0.0755762 -0.00912778
vn 0.94926 0.31284 0.0322094
vn 0.962043 0.272854 -0.00482149
vn 0.871548 0.480883 0.0956863
vn 0.814659 0.568193 0.116133
vn 0.574654 0.772227 0.270995
vn 0.594241 0.787785 0.162091
vn 0.288372 0.914858 0.282623
vn 0.176546 0.958697 0.223006
vn 0.416598 0.898275 0.139812
vn -0.0530274 0.993117 0.104433
vn 0.454005 0.877701 0.153362
vn 0.200333 0.962638 0.182195
vn -0.038486 0.955346 0.292972
vn 0.238553 0.937793 0.252265
vn -0.598178 0.796452 -0.0885908
vn -0.978499 -0.0596461 -0.197436
vn -0.960881 -0.144307 -0.236396
vn -0.930021 -0.249632 -0.269713
vn -0.886036 -0.378398 -0.267872
vn -0.779799 -0.564166 -0.271349
vn -0.636042 -0.723932 -0.267156
vn -0.552679 -0.81367 -0.18024
vn -0.226261 -0.957951 -0.176452
vn -0.0215992 -0.978749 -0.203921
vn -0.424462 -0.902463 -0.0734318
vn -0.0791093 -0.976169 -0.202078
vn 0.699901 -0.71336 -0.0354377
vn 0.827201 -0.545779 -0.133651
vn 0.939945 -0.339523 0.0350502
vn 0.983202 -0.169246 -0.0683326
vn 0.9994 -0.00618076 0.0340779
vn 0.964243 0.263512 0.0282314
vn 0.818587 0.532985 0.214109
vn 0.946475 0.178804 0.268727
vn 0.656738 0.448931 0.605934
vn 0.502142 0.783068 0.366957
vn 0.648045 0.724144 0.235911
vn 0.221761 0.879851 0.420339
vn 0.0988197 0.904496 0.414876
vn -0.216974 0.909058 0.355718
vn -0.112444 0.976551 0.183591
vn -0.280522 0.958391 0.052856
vn -0.345597 0.922866 0.169945
vn -0.991496 0.0754085 -0.106065
vn -0.983395 -0.125456 -0.131128
vn -0.970836 -0.223463 -0.0868392
vn -0.897506 -0.425579 -0.115607
vn -0.838419 -0.543172 -0.0449199
vn -0.699795 -0.714119 -0.0179421
vn -0.750984 -0.634601 0.182496
vn -0.575874 -0.775261 0.259498
vn 0.786911 -0.519015 0.333757
vn 0.915284 -0.187769 0.356366
vn 0.761021 -0.0368983 0.647677
vn 0.524982 -0.433945 0.732179
vn 0.273063 -0.294004 0.915969
vn 0.360997 0.0504626 0.931201
vn -0.273145 -0.233005 0.933328
vn -0.0416105 -0.466145 0.883729
vn -0.693423 -0.339641 0.635459
vn -0.739369 -0.071901 0.66945
vn -0.451328 0.107802 0.885823
vn 0.400686 0.688523 0.604472
vn -0.601322 0.450255 0.660063
vn -0.0418433 0.848319 0.52783
vn -0.331621 0.771727 0.542646
vn -0.241044 0.812394 0.530956
vn -0.500721 0.725096 0.472773
vn -0.834486 0.480374 0.269951
vn -0.995579 0.0936621 0.00704712
vn -0.989226 -0.143101 0.0309014
vn -0.953473 -0.295034 0.0620036
vn -0.899025 -0.41435 0.141658
vn -0.874805 -0.338426 0.346675
vn -0.94215 -0.266537 0.203251
vn -0.937235 -0.19637 0.288149
vn -0.888821 -0.183958 0.419711
vn -0.932292 -0.0343294 0.360074
vn -0.871486 0.0679272 0.485694
vn -0.725535 -0.457814 0.513815
vn -0.735666 0.435337 0.51892
vn -0.909139 0.213658 0.357516
vn -0.985136 0.0724501 0.155753
vn -0.968593 -0.141237 0.204645
vn 0.693147 0.715431 0.0877759
vn 0.840502 0.538 0.0641212
vn 0.903968 0.427156 0.0194778
vn 0.96355 0.267525 -0.00112109
vn 0.960816 -0.263471 -0.0861086
vn 0.855099 0.268197 -0.443706
vn 0.160112 -0.21701 -0.962949
vn 0.963073 -0.202843 -0.177048
vn 0.970878 0.117587 -0.208732
vn -0.111782 -0.200653 -0.973264
vn -0.302341 -0.135307 -0.943547
vn -0.586493 -0.188305 -0.787761
vn 0.174503 0.15147 -0.972937
vn 0.566796 0.809655 0.152322
vn -0.201367 0.911758 -0.357978
vn -0.896216 -0.140824 -0.420674
vn -0.412516 0.881332 -0.230402
vn -0.441976 0.885943 0.14058
vn -0.412516 0.881332 -0.230402
vn -0.988003 0.0823065 -0.130672
vn -0.107444 0.939368 0.325642
vn 0.621187 -0.762084 -0.182631
vn 0.512504 -0.857369 -0.0475239
vn -0.617035 -0.759395 0.206367
vn -0.582504 0.745905 0.322977
vn -0.960474 0.274552 0.0459465
vn -0.966421 0.255632 -0.0261281
vn -0.991574 0.0707111 -0.108539
vn 0.608573 -0.78579 0.110333
vn -0.421618 -0.610805 0.67019
vn 0.349906 -0.577577 0.737543
vn -0.66219 -0.473692 0.580621
vn 0.347841 0.398553 0.848624
vn -0.385243 0.574667 0.722042
vn -0.522965 -0.826992 0.206379
vn 0.429795 -0.858923 -0.278438
g grp1
usemtl mtl1
f 3//3 2//2 1//1 
f 4//4 3//3 1//1 
f 5//5 4//4 1//1 
f 6//6 5//5 1//1 
f 133//133 7//7 136//136 
f 7//7 133//133 8//8 
f 8//8 9//9 7//7 
f 9//9 8//8 10//10 
f 10//10 11//11 9//9 
f 12//12 139//139 138//138 
f 137//137 12//12 138//138 
f 12//12 137//137 2//2 
f 13//13 12//12 2//2 
f 13//13 2//2 3//3 
f 3//3 14//14 13//13 
f 14//14 3//3 4//4 
f 15//15 14//14 4//4 
f 15//15 4//4 16//16 
f 17//17 15//15 16//16 
f 16//16 18//18 17//17 
f 19//19 18//18 16//16 
f 19//19 16//16 135//135 
f 19//19 135//135 136//136 
f 20//20 19//19 136//136 
f 136//136 7//7 20//20 
f 21//21 20//20 7//7 
f 21//21 7//7 22//22 
f 23//23 21//21 22//22 
f 24//24 23//23 22//22 
f 22//22 9//9 24//24 
f 22//22 7//7 9//9 
f 9//9 11//11 140//140 
f 11//11 25//25 140//140 
f 11//11 26//26 25//25 
f 139//139 27//27 143//143 
f 12//12 27//27 139//139 
f 28//28 27//27 12//12 
f 13//13 28//28 12//12 
f 13//13 29//29 28//28 
f 14//14 29//29 13//13 
f 30//30 29//29 14//14 
f 31//31 30//30 14//14 
f 31//31 14//14 15//15 
f 31//31 15//15 32//32 
f 33//33 31//31 32//32 
f 34//34 33//33 32//32 
f 35//35 34//34 32//32 
f 35//35 32//32 36//36 
f 37//37 35//35 36//36 
f 38//38 37//37 36//36 
f 38//38 36//36 39//39 
f 40//40 38//38 39//39 
f 40//40 39//39 41//41 
f 42//42 40//40 41//41 
f 42//42 41//41 43//43 
f 42//42 43//43 44//44 
f 45//45 42//42 44//44 
f 46//46 45//45 44//44 
f 46//46 44//44 47//47 
f 48//48 46//46 47//47 
f 48//48 47//47 49//49 
f 50//50 48//48 49//49 
f 51//51 50//50 49//49 
f 51//51 49//49 52//52 
f 53//53 51//51 52//52 
f 53//53 52//52 54//54 
f 55//55 53//53 54//54 
f 56//56 55//55 54//54 
f 57//57 56//56 54//54 
f 57//57 54//54 141//141 
f 142//142 144//144 146//146 
f 144//144 58//58 146//146 
f 143//143 59//59 147//147 
f 143//143 27//27 59//59 
f 60//60 59//59 27//27 
f 27//27 28//28 60//60 
f 61//61 60//60 28//28 
f 29//29 61//61 28//28 
f 62//62 61//61 29//29 
f 30//30 62//62 29//29 
f 63//63 62//62 30//30 
f 64//64 63//63 30//30 
f 31//31 64//64 30//30 
f 64//64 31//31 33//33 
f 65//65 64//64 33//33 
f 66//66 65//65 33//33 
f 66//66 33//33 34//34 
f 66//66 34//34 37//37 
f 66//66 37//37 67//67 
f 68//68 66//66 67//67 
f 69//69 68//68 67//67 
f 70//70 150//150 149//149 
f 70//70 149//149 71//71 
f 71//71 72//72 70//70 
f 72//72 71//71 73//73 
f 74//74 72//72 73//73 
f 74//74 73//73 42//42 
f 75//75 74//74 42//42 
f 75//75 42//42 45//45 
f 75//75 45//45 46//46 
f 75//75 46//46 76//76 
f 76//76 77//77 75//75 
f 78//78 77//77 76//76 
f 79//79 78//78 76//76 
f 80//80 79//79 76//76 
f 46//46 80//80 76//76 
f 48//48 80//80 46//46 
f 81//81 80//80 48//48 
f 82//82 81//81 48//48 
f 50//50 82//82 48//48 
f 83//83 82//82 50//50 
f 51//51 83//83 50//50 
f 84//84 83//83 51//51 
f 84//84 51//51 53//53 
f 85//85 84//84 53//53 
f 86//86 85//85 53//53 
f 86//86 53//53 145//145 
f 86//86 145//145 56//56 
f 148//148 86//86 56//56 
f 148//148 56//56 57//57 
f 59//59 155//155 147//147 
f 155//155 59//59 60//60 
f 60//60 87//87 155//155 
f 88//88 87//87 60//60 
f 60//60 61//61 88//88 
f 61//61 89//89 88//88 
f 62//62 89//89 61//61 
f 62//62 90//90 89//89 
f 63//63 90//90 62//62 
f 64//64 90//90 63//63 
f 91//91 90//90 64//64 
f 91//91 64//64 65//65 
f 92//92 91//91 65//65 
f 92//92 65//65 66//66 
f 68//68 92//92 66//66 
f 93//93 92//92 68//68 
f 93//93 68//68 151//151 
f 94//94 93//93 151//151 
f 156//156 150//150 70//70 
f 95//95 156//156 70//70 
f 70//70 72//72 95//95 
f 72//72 96//96 95//95 
f 96//96 72//72 74//74 
f 77//77 96//96 74//74 
f 77//77 74//74 75//75 
f 96//96 77//77 97//97 
f 98//98 96//96 97//97 
f 99//99 98//98 97//97 
f 99//99 97//97 100//100 
f 99//99 100//100 101//101 
f 101//101 102//102 99//99 
f 101//101 103//103 102//102 
f 101//101 104//104 103//103 
f 101//101 105//105 104//104 
f 101//101 100//100 105//105 
f 100//100 78//78 160//160 
f 97//97 78//78 100//100 
f 78//78 97//97 77//77 
f 160//160 78//78 106//106 
f 107//107 105//105 161//161 
f 107//107 161//161 108//108 
f 109//109 107//107 108//108 
f 109//109 108//108 81//81 
f 110//110 109//109 81//81 
f 82//82 110//110 81//81 
f 82//82 111//111 110//110 
f 83//83 111//111 82//82 
f 112//112 111//111 83//83 
f 112//112 83//83 152//152 
f 113//113 112//112 153//153 
f 154//154 113//113 153//153 
f 154//154 87//87 113//113 
f 87//87 154//154 155//155 
f 88//88 113//113 87//87 
f 89//89 113//113 88//88 
f 89//89 114//114 113//113 
f 89//89 115//115 114//114 
f 90//90 115//115 89//89 
f 91//91 115//115 90//90 
f 91//91 116//116 115//115 
f 92//92 116//116 91//91 
f 93//93 116//116 92//92 
f 116//116 93//93 117//117 
f 118//118 116//116 117//117 
f 119//119 118//118 117//117 
f 119//119 117//117 120//120 
f 121//121 119//119 120//120 
f 122//122 121//121 120//120 
f 104//104 122//122 120//120 
f 103//103 104//104 120//120 
f 103//103 120//120 117//117 
f 159//159 103//103 117//117 
f 123//123 159//159 117//117 
f 93//93 123//123 117//117 
f 162//162 93//93 94//94 
f 123//123 157//157 159//159 
f 98//98 102//102 158//158 
f 95//95 98//98 158//158 
f 96//96 98//98 95//95 
f 102//102 98//98 99//99 
f 107//107 122//122 104//104 
f 105//105 107//107 104//104 
f 124//124 122//122 107//107 
f 124//124 107//107 109//109 
f 124//124 109//109 110//110 
f 111//111 124//124 110//110 
f 111//111 125//125 124//124 
f 125//125 111//111 112//112 
f 126//126 125//125 112//112 
f 126//126 112//112 113//113 
f 114//114 126//126 113//113 
f 127//127 126//126 114//114 
f 115//115 127//127 114//114 
f 115//115 118//118 127//127 
f 116//116 118//118 115//115 
f 118//118 119//119 127//127 
f 119//119 121//121 127//127 
f 127//127 121//121 125//125 
f 125//125 126//126 127//127 
f 121//121 124//124 125//125 
f 124//124 121//121 122//122 
f 81//81 108//108 79//79 
f 81//81 79//79 80//80 
f 108//108 106//106 79//79 
f 106//106 78//78 79//79 
f 73//73 40//40 42//42 
f 73//73 71//71 40//40 
f 40//40 71//71 38//38 
f 38//38 71//71 37//37 
f 149//149 37//37 71//71 
f 37//37 34//34 35//35 
f 141//141 54//54 24//24 
f 24//24 54//54 23//23 
f 128//128 23//23 54//54 
f 52//52 128//128 54//54 
f 49//49 128//128 52//52 
f 49//49 129//129 128//128 
f 47//47 129//129 49//49 
f 44//44 129//129 47//47 
f 129//129 44//44 130//130 
f 129//129 130//130 23//23 
f 128//128 129//129 23//23 
f 130//130 21//21 23//23 
f 130//130 131//131 21//21 
f 44//44 131//131 130//130 
f 44//44 43//43 131//131 
f 43//43 19//19 131//131 
f 19//19 43//43 18//18 
f 43//43 132//132 18//18 
f 39//39 132//132 43//43 
f 41//41 39//39 43//43 
f 36//36 132//132 39//39 
f 36//36 32//32 163//163 
f 32//32 17//17 163//163 
f 32//32 15//15 17//17 
f 18//18 132//132 17//17 
f 131//131 19//19 20//20 
f 131//131 20//20 21//21 
f 16//16 4//4 5//5 
f 2//2 137//137 134//134 
