v 13.1832 -38.8339 1128.42
v 5.88507 -39.4949 1120.17
v 11.9612 -37.9864 1128.1
v 6.69065 -38.548 1119.96
v 16.9766 -41.9042 1124.37
v 5.5699 -39.3504 1119.45
v 5.84768 -38.9907 1117.71
v 16.4608 -42.2338 1118.98
v 9.58263 -43.3152 1123.53
v 12.5696 -39.2941 1128.09
v 17.3345 -42.0709 1121.4
v 12.9448 -40.1583 1127.44
v 13.8214 -38.8688 1128.17
v 5.93967 -39.0201 1118.69
v 10.8013 -39.9964 1127.06
v 17.7031 -42.0196 1123
v 17.3939 -41.2829 1123.94
v 11.4067 -37.6025 1127.54
v 6.06629 -39.1904 1120
v 17.4116 -41.5552 1122.36
v 8.97866 -37.3697 1125.22
v 5.92697 -40.5299 1119.54
v 9.70231 -40.9591 1125.43
v 11.1486 -41.4181 1118.93
v 12.0876 -38.8054 1128.27
v 16.2904 -41.7447 1119.46
v 17.5935 -41.5042 1123.2
v 7.75215 -38.8082 1117.02
v 17.0351 -40.9951 1124.53
v 12.9793 -38.4665 1126.65
v 10.6405 -42.6416 1125.1
v 13.1259 -44.5282 1124.02
v 16.6338 -41.0365 1125.27
v 14.6882 -39.6881 1124.61
v 12.4746 -38.3778 1128.39
v 6.43952 -39.6296 1121.19
v 10.6398 -37.4742 1127.59
v 10.7024 -37.3633 1126.58
v 6.70676 -39.0846 1121.72
v 7.86222 -38.0427 1123.31
v 9.83165 -38.7089 1120.21
v 10.8164 -37.8248 1128.06
v 10.3773 -37.3681 1126.96
v 10.1442 -43.2501 1124.24
v 15.53 -41.4332 1118.62
v 15.2685 -39.7156 1126.45
v 14.7324 -41.1231 1117.61
v 13.4151 -39.2413 1128.23
v 8.449 -37.4913 1123.34
v 11.5096 -41.3743 1126.25
v 16.5549 -41.6205 1124.94
v 8.49224 -37.4874 1124.15
v 14.4798 -42.5182 1125.26
v 9.95035 -38.9826 1127.05
v 9.14266 -37.3751 1124.41
v 7.44459 -38.1123 1119.78
v 14.4489 -43.5041 1120.4
v 11.4672 -43.9608 1124.46
v 16.3397 -43.3201 1121.18
v 17.0834 -41.7099 1121.41
v 8.89064 -38.2999 1126.11
v 13.2886 -38.4701 1127.63
v 10.5385 -37.5775 1125.42
v 7.59938 -37.9471 1122.23
v 13.297 -45.6341 1123.17
v 15.1785 -43.807 1123.17
v 14.2331 -40.8836 1118.49
v 15.9249 -42.4849 1124.49
v 9.91068 -39.6028 1117.13
v 15.86 -41.4474 1125.52
v 16.0606 -43.4059 1119.73
v 13.8547 -44.9685 1123.2
v 16.0066 -41.7902 1118.04
v 12.3521 -44.8132 1124.03
v 14.1183 -39.2642 1128.02
v 15.6185 -40.6451 1126.34
v 15.0398 -44.3584 1121.2
v 16.1544 -43.3722 1122.34
v 15.9885 -40.2886 1126.15
v 16.0608 -42.8539 1123.93
v 16.4204 -41.3165 1121.04
v 17.2166 -41.5565 1124.47
v 7.95123 -37.8779 1120.81
v 17.5112 -41.9042 1123.82
v 8.38344 -42.9694 1121.65
v 15.5955 -43.8646 1121.65
v 12.9523 -38.3513 1128.05
v 13.2643 -42.9049 1125.37
v 14.1349 -39.7499 1127.71
v 5.39958 -39.181 1118.74
v 14.2152 -44.2354 1123.74
v 12.3417 -40.1246 1119.1
v 8.73432 -39.1674 1125.66
v 7.78261 -41.7391 1121.81
v 16.373 -40.5055 1125.25
v 11.4098 -45.3446 1123.5
v 9.81695 -37.2747 1125.78
v 14.2164 -41.1613 1126.57
v 8.04957 -38.901 1124.55
v 5.23633 -39.149 1118.34
v 7.77138 -40.1404 1123.32
v 7.31744 -39.8136 1118.26
v 5.1371 -39.8351 1119.02
v 16.893 -42.6301 1123.05
v 10.1897 -37.4823 1127.51
v 16.3365 -40.505 1124.52
v 14.6982 -40.8146 1120.15
v 5.79066 -39.6749 1118.65
v 17.7083 -41.9374 1122.23
v 9.34154 -37.6959 1123.12
v 14.9147 -40.7845 1126.64
v 7.26296 -38.4957 1118.09
v 12.5096 -45.6219 1123.44
v 16.668 -42.1021 1119.92
v 8.72369 -37.863 1125.34
v 12.4753 -40.4414 1117.4
v 16.4592 -42.53 1118.65
v 9.64823 -37.4154 1126.4
v 10.2044 -44.7648 1123.2
v 14.8908 -39.4622 1127.54
v 11.2301 -39.3683 1127.68
v 16.8086 -41.0751 1122.93
v 5.51691 -39.6458 1119.63
v 7.60721 -39.5035 1123.5
v 6.14004 -40.1614 1120.4
v 8.06372 -38.5104 1124.55
v 9.80326 -38.1302 1127.19
v 13.9945 -45.2353 1122.5
v 8.29859 -38.2724 1119.66
v 11.3059 -40.3439 1127.02
v 8.42314 -37.6644 1122.29
v 12.8815 -39.199 1123.25
v 10.4415 -38.3055 1127.7
v 12.7635 -41.8367 1126.03
v 14.4917 -39.1447 1127.6
v 9.5833 -39.673 1126.29
v 14.5944 -44.4416 1122.58
v 10.6317 -40.8568 1126.37
v 11.4188 -38.4827 1128.17
v 5.02748 -39.4171 1118.78
v 17.6689 -41.5517 1123.85
v 6.84031 -38.7105 1117.19
v 6.70237 -38.5825 1118.33
v 7.66596 -37.884 1121.41
v 16.8055 -42.5953 1120.32
v 9.52553 -37.779 1126.75
v 15.1171 -39.8835 1127.21
v 16.8921 -42.7391 1121.06
v 16.4945 -42.595 1119.62
v 17.2645 -42.5228 1122.16
v 6.64457 -38.7835 1121.08
v 8.71472 -40.5448 1124.6
v 13.1832 -38.8339 1128.42
v 11.9612 -37.9864 1128.1
v 5.84768 -38.9907 1117.71
v 17.3345 -42.0709 1121.4
v 13.8214 -38.8688 1128.17
v 13.8214 -38.8688 1128.17
v 13.8214 -38.8688 1128.17
v 17.7031 -42.0196 1123
v 17.3939 -41.2829 1123.94
v 8.97866 -37.3697 1125.22
v 5.92697 -40.5299 1119.54
v 17.5935 -41.5042 1123.2
v 17.5935 -41.5042 1123.2
v 7.75215 -38.8082 1117.02
v 17.0351 -40.9951 1124.53
v 17.0351 -40.9951 1124.53
v 17.0351 -40.9951 1124.53
v 17.0351 -40.9951 1124.53
v 16.6338 -41.0365 1125.27
v 12.4746 -38.3778 1128.39
v 6.70676 -39.0846 1121.72
v 10.8164 -37.8248 1128.06
v 10.8164 -37.8248 1128.06
v 14.7324 -41.1231 1117.61
v 8.449 -37.4913 1123.34
v 16.5549 -41.6205 1124.94
v 8.49224 -37.4874 1124.15
v 13.297 -45.6341 1123.17
v 9.91068 -39.6028 1117.13
v 16.0606 -43.4059 1119.73
v 16.0066 -41.7902 1118.04
v 16.0066 -41.7902 1118.04
v 14.1183 -39.2642 1128.02
v 15.0398 -44.3584 1121.2
v 15.9885 -40.2886 1126.15
v 17.2166 -41.5565 1124.47
v 17.2166 -41.5565 1124.47
v 17.5112 -41.9042 1123.82
v 17.5112 -41.9042 1123.82
v 8.38344 -42.9694 1121.65
v 11.4098 -45.3446 1123.5
v 5.23633 -39.149 1118.34
v 5.1371 -39.8351 1119.02
v 10.1897 -37.4823 1127.51
v 17.7083 -41.9374 1122.23
v 12.5096 -45.6219 1123.44
v 16.668 -42.1021 1119.92
v 12.4753 -40.4414 1117.4
v 16.4592 -42.53 1118.65
v 16.4592 -42.53 1118.65
v 9.64823 -37.4154 1126.4
v 10.2044 -44.7648 1123.2
v 14.8908 -39.4622 1127.54
v 14.8908 -39.4622 1127.54
v 14.8908 -39.4622 1127.54
v 13.9945 -45.2353 1122.5
v 14.4917 -39.1447 1127.6
v 5.02748 -39.4171 1118.78
v 17.6689 -41.5517 1123.85
v 17.6689 -41.5517 1123.85
v 17.6689 -41.5517 1123.85
v 6.84031 -38.7105 1117.19
v 16.8055 -42.5953 1120.32
v 15.1171 -39.8835 1127.21
v 16.4945 -42.595 1119.62
vn -0.00987402 -0.336743 0.941545
vn -0.814812 0.393338 0.425871
vn -0.12089 0.267094 0.956058
vn -0.612142 0.789486 0.0446578
vn 0.499551 -0.637209 0.586867
vn -0.586829 0.719408 0.371597
vn -0.341549 0.93982 -0.00910521
vn 0.950995 0.23751 -0.197984
vn -0.741157 -0.435798 0.510652
vn -0.149034 -0.546553 0.824056
vn 0.751562 0.534166 -0.387067
vn -0.0474726 -0.636022 0.770209
vn 0.310329 -0.199892 0.929376
vn -0.417059 0.899803 0.128125
vn -0.454617 -0.488713 0.744636
vn 0.937124 0.348411 0.0201915
vn 0.580714 0.809722 -0.084388
vn 0.287803 0.940463 0.180829
vn -0.706631 0.667007 0.236166
vn 0.698079 0.685805 -0.205807
vn -0.780773 0.496433 0.379405
vn -0.210777 -0.730837 -0.649192
vn -0.646591 -0.453615 0.613314
vn -0.194407 -0.749114 -0.633272
vn -0.207631 -0.328163 0.92152
vn 0.714996 0.655345 -0.243524
vn 0.576878 0.810175 -0.104059
vn 0.177895 0.952505 -0.24716
vn 0.57373 0.0950367 0.813512
vn 0.445845 0.882847 -0.147663
vn -0.441941 -0.524513 0.727718
vn 0.316159 -0.59863 0.735993
vn 0.831791 0.423389 0.358978
vn 0.427013 0.88636 -0.178956
vn -0.193393 0.0490309 0.979896
vn -0.876479 -0.0367258 0.480038
vn 0.0454132 0.924617 0.378181
vn 0.275596 0.958813 -0.0687388
vn -0.823233 0.489599 0.287369
vn -0.791349 0.557957 0.249902
vn 0.372817 0.893617 -0.249914
vn -0.588117 -0.118453 0.800055
vn -0.00807605 0.99124 0.131826
vn -0.633199 -0.452836 0.627692
vn 0.477394 0.866515 -0.145765
vn 0.622872 0.781628 0.0329857
vn -0.171894 -0.745628 -0.64381
vn 0.123761 -0.462152 0.878122
vn -0.0348402 0.990422 -0.133603
vn -0.173331 -0.591271 0.787626
vn 0.515629 -0.564845 0.644265
vn -0.163576 0.986388 -0.0167606
vn 0.337528 -0.653822 0.677194
vn -0.604806 -0.334502 0.722716
vn 0.0523045 0.99198 -0.115065
vn -0.207497 0.966054 -0.153898
vn -0.205157 -0.731107 -0.650687
vn -0.211024 -0.555266 0.804456
vn 0.652064 -0.758094 -0.0103116
vn 0.711026 0.613366 -0.343837
vn -0.823327 0.0795098 0.561971
vn 0.462841 0.886189 0.0211296
vn 0.356317 0.90983 -0.212714
vn -0.58918 0.803474 0.0854161
vn -0.216975 -0.728193 -0.650121
vn 0.552474 -0.77852 0.297791
vn 0.349535 0.929934 -0.114226
vn 0.395056 -0.68272 0.614674
vn -0.20552 -0.741116 -0.639147
vn 0.431505 -0.579722 0.691178
vn -0.222848 -0.727485 -0.648925
vn 0.619123 -0.601321 0.505074
vn -0.204429 -0.722127 -0.660865
vn 0.0173239 -0.584536 0.811183
vn 0.299781 -0.391437 0.870005
vn 0.533072 -0.467492 0.705185
vn -0.203854 -0.740088 -0.64087
vn 0.593814 -0.789933 0.152938
vn 0.736931 0.640309 0.216648
vn 0.479788 -0.74042 0.470725
vn 0.488042 0.843316 -0.225019
vn 0.62563 -0.502931 0.596362
vn 0.001771 0.983863 -0.178917
vn 0.908354 -0.395737 -0.135222
vn -0.201311 -0.748199 -0.632196
vn 0.600627 -0.793111 0.101102
vn 0.391864 0.828679 0.399666
vn 0.0871882 -0.600287 0.795018
vn 0.234563 -0.56115 0.793783
vn -0.376148 0.88831 0.263472
vn 0.4972 -0.702144 0.509691
vn 0.363251 0.908079 -0.208426
vn -0.783839 -0.262628 0.562692
vn -0.79086 -0.437067 0.428384
vn 0.717466 0.678751 0.156655
vn -0.229791 -0.561381 0.795014
vn 0.0200135 0.999745 -0.0104192
vn 0.132619 -0.62265 0.77118
vn -0.884219 -0.0499973 0.464389
vn -0.325052 0.930456 0.169095
vn -0.801156 -0.384013 0.459002
vn -0.205854 -0.739745 -0.640626
vn -0.259894 -0.634599 -0.727832
vn 0.577882 -0.779562 0.241527
vn -0.119334 0.937242 0.327622
vn 0.520393 0.848802 -0.0934081
vn 0.356604 0.916954 -0.178965
vn -0.285328 -0.70898 -0.644931
vn 0.759529 0.606561 -0.234947
vn 0.284695 0.932578 -0.221915
vn 0.342372 -0.596339 0.726058
vn -0.0213652 0.977194 -0.211271
vn 0.122315 -0.577959 0.806848
vn 0.804076 0.501411 -0.31945
vn -0.796933 0.478868 0.368217
vn 0.317656 0.93944 -0.128637
vn -0.235203 -0.707189 -0.666756
vn -0.193576 0.968433 0.157055
vn -0.580462 -0.496413 0.645475
vn 0.363755 -0.461848 0.808937
vn -0.349752 -0.466768 0.812281
vn 0.457004 0.870572 -0.182351
vn -0.840151 0.142205 0.523377
vn -0.870115 -0.18226 0.457909
vn -0.81674 -0.3425 0.464359
vn -0.891136 0.177241 0.417686
vn -0.712274 -0.0348277 0.701037
vn -0.192553 -0.737511 -0.647303
vn 0.249914 0.93643 -0.246255
vn -0.22655 -0.587861 0.776592
vn -0.019862 0.990029 -0.139458
vn 0.393541 0.888374 -0.236469
vn -0.553573 -0.256786 0.792224
vn -0.0608562 -0.589375 0.805564
vn 0.520274 0.853775 -0.0195678
vn -0.620652 -0.438394 0.650079
vn 0.649074 -0.71706 0.254023
vn -0.43442 -0.530349 0.728017
vn -0.32877 -0.150648 0.932317
vn -0.334249 -0.634158 -0.697224
vn 0.694061 0.71937 -0.0280355
vn -0.176463 -0.721726 -0.669308
vn -0.380764 0.921602 -0.0752901
vn -0.37375 0.926856 -0.0353362
vn 0.91523 -0.210336 -0.343675
vn -0.770292 0.403424 0.493862
vn 0.44486 -0.479996 0.75611
vn 0.760366 -0.622571 -0.185065
vn 0.973588 -0.0892324 -0.21015
vn 0.728973 -0.683669 -0.0345689
vn -0.789532 0.57508 0.214293
vn -0.760849 -0.40573 0.50645
vn 0.353222 0.669629 0.653323
vn 0.25916 0.865217 0.429227
vn -0.252236 -0.750503 -0.610838
vn 0.873364 -0.404305 -0.271613
vn 0.299416 0.666449 0.682785
vn 0.48842 0.859141 0.15272
vn 0.689429 0.245268 0.681565
vn 0.675048 -0.728515 0.116517
vn 0.793188 0.391184 0.466721
vn -0.156858 0.987089 0.0324247
vn -0.77577 -0.479971 0.409645
vn 0.908354 -0.395737 -0.135222
vn 0.977683 0.210015 -0.0055348
vn -0.216603 -0.719384 -0.659977
vn 0.877888 0.237523 0.415807
vn 0.574078 0.817874 -0.0389389
vn 0.793635 0.408428 0.450921
vn 0.830631 -0.355777 0.428339
vn 0.626542 -0.426526 0.65232
vn 0.363505 0.738768 0.567527
vn -0.890092 -0.0261468 0.455031
vn -0.00969094 0.150165 0.988613
vn 0.054059 0.826521 0.560304
vn 0.395622 0.914777 -0.081647
vn -0.682357 0.719403 0.129804
vn 0.57373 0.0950367 0.813512
vn -0.787346 0.574901 0.222656
vn 0.512254 -0.568099 0.644095
vn 0.351906 0.908198 -0.226579
vn 0.773314 -0.620525 -0.13013
vn 0.884975 0.399578 -0.239075
vn 0.492404 0.861267 -0.125527
vn 0.622013 0.408405 0.66806
vn 0.658594 -0.746793 0.0924873
vn 0.646896 -0.316516 0.693789
vn 0.57373 0.0950367 0.813512
vn 0.793188 0.391184 0.466721
vn 0.970284 0.122433 0.20871
vn 0.608571 -0.658457 0.442805
vn -0.792993 -0.439869 0.421517
vn -0.211279 -0.747331 -0.629967
vn -0.365039 -0.728904 -0.579176
vn -0.832463 -0.214093 0.511047
vn -0.74501 0.268024 0.610838
vn 0.795004 -0.584887 -0.160862
vn -0.216057 -0.737352 -0.640025
vn 0.934232 -0.124377 -0.334278
vn -0.1743 -0.753959 -0.633376
vn 0.970316 0.177111 -0.164679
vn 0.87598 -0.478027 -0.0644161
vn -0.722758 0.56514 0.397792
vn -0.202142 -0.748645 -0.631403
vn 0.535103 0.558743 0.633618
vn 0.625196 0.779667 0.0353498
vn 0.920198 0.302465 0.248496
vn 0.734631 -0.599298 0.318057
vn 0.622013 0.408405 0.66806
vn -0.683149 0.586093 0.435664
vn 0.908354 -0.395737 -0.135222
vn 0.682012 0.531788 0.502057
vn 0.749064 -0.378096 0.54401
vn -0.166285 0.969095 -0.182221
vn 0.496524 -0.83942 -0.220995
vn 0.815249 0.510527 0.27337
vn 0.759303 -0.621129 -0.194058
g grp1
usemtl mtl1
f 74//74 113//113 32//32 
f 74//74 32//32 88//88 
f 74//74 88//88 58//58 
f 96//96 74//74 58//58 
f 96//96 58//58 119//119 
f 204//204 24//24 193//193 
f 198//198 193//193 24//24 
f 57//57 198//198 24//24 
f 57//57 24//24 47//47 
f 47//47 73//73 57//57 
f 73//73 117//117 57//57 
f 117//117 71//71 57//57 
f 71//71 77//77 57//57 
f 77//77 128//128 57//57 
f 128//128 65//65 57//57 
f 198//198 57//57 65//65 
f 32//32 113//113 180//180 
f 32//32 180//180 72//72 
f 32//32 72//72 91//91 
f 32//32 91//91 53//53 
f 32//32 53//53 88//88 
f 88//88 53//53 98//98 
f 88//88 98//98 134//134 
f 134//134 58//58 88//88 
f 50//50 58//58 134//134 
f 134//134 12//12 50//50 
f 50//50 12//12 130//130 
f 138//138 50//50 130//130 
f 138//138 130//130 15//15 
f 136//136 138//138 15//15 
f 54//54 136//136 15//15 
f 54//54 15//15 121//121 
f 54//54 121//121 139//139 
f 133//133 54//54 139//139 
f 42//42 133//133 139//139 
f 174//174 139//139 3//3 
f 18//18 175//175 154//154 
f 18//18 154//154 87//87 
f 18//18 87//87 62//62 
f 30//30 18//18 62//62 
f 30//30 62//62 135//135 
f 30//30 135//135 46//46 
f 34//34 30//30 46//46 
f 34//34 46//46 106//106 
f 122//122 34//34 106//106 
f 122//122 106//106 17//17 
f 27//27 122//122 17//17 
f 27//27 17//17 141//141 
f 164//164 211//211 84//84 
f 165//165 190//190 16//16 
f 20//20 165//165 16//16 
f 20//20 16//16 109//109 
f 60//60 20//20 109//109 
f 60//60 109//109 11//11 
f 60//60 11//11 114//114 
f 26//26 60//60 114//114 
f 26//26 114//114 8//8 
f 183//183 26//26 8//8 
f 183//183 8//8 201//201 
f 8//8 149//149 201//201 
f 182//182 202//202 217//217 
f 182//182 217//217 148//148 
f 148//148 59//59 182//182 
f 186//186 182//182 59//59 
f 186//186 59//59 86//86 
f 137//137 186//186 86//86 
f 137//137 86//86 78//78 
f 137//137 78//78 66//66 
f 137//137 66//66 91//91 
f 72//72 137//137 91//91 
f 72//72 208//208 137//137 
f 208//208 186//186 137//137 
f 72//72 180//180 208//208 
f 91//91 66//66 80//80 
f 91//91 80//80 53//53 
f 53//53 80//80 68//68 
f 51//51 53//53 68//68 
f 51//51 68//68 5//5 
f 51//51 5//5 82//82 
f 29//29 178//178 188//188 
f 161//161 167//167 189//189 
f 161//161 189//189 212//212 
f 82//82 191//191 213//213 
f 82//82 5//5 191//191 
f 80//80 191//191 5//5 
f 68//68 80//80 5//5 
f 80//80 104//104 191//191 
f 104//104 160//160 191//191 
f 150//150 160//160 104//104 
f 78//78 150//150 104//104 
f 104//104 66//66 78//78 
f 80//80 66//66 104//104 
f 150//150 78//78 59//59 
f 148//148 150//150 59//59 
f 150//150 148//148 156//156 
f 150//150 156//156 197//197 
f 150//150 197//197 160//160 
f 156//156 148//148 145//145 
f 199//199 156//156 145//145 
f 199//199 145//145 149//149 
f 8//8 199//199 149//149 
f 215//215 148//148 217//217 
f 86//86 59//59 78//78 
f 106//106 168//168 17//17 
f 168//168 106//106 95//95 
f 169//169 95//95 33//33 
f 170//170 171//171 51//51 
f 171//171 70//70 51//51 
f 70//70 53//53 51//51 
f 111//111 53//53 70//70 
f 111//111 70//70 76//76 
f 111//111 76//76 147//147 
f 89//89 111//111 147//147 
f 89//89 147//147 120//120 
f 89//89 120//120 75//75 
f 48//48 89//89 75//75 
f 48//48 75//75 13//13 
f 48//48 13//13 1//1 
f 10//10 48//48 1//1 
f 10//10 1//1 25//25 
f 121//121 10//10 25//25 
f 121//121 25//25 139//139 
f 139//139 25//25 35//35 
f 3//3 139//139 35//35 
f 154//154 172//172 87//87 
f 172//172 153//153 87//87 
f 87//87 153//153 157//157 
f 62//62 87//87 158//158 
f 62//62 158//158 135//135 
f 185//185 209//209 159//159 
f 209//209 185//185 205//205 
f 46//46 135//135 206//206 
f 216//216 46//46 207//207 
f 46//46 216//216 79//79 
f 95//95 46//46 79//79 
f 79//79 33//33 95//95 
f 187//187 76//76 171//171 
f 76//76 70//70 171//171 
f 147//147 76//76 187//187 
f 95//95 106//106 46//46 
f 35//35 25//25 1//1 
f 130//130 10//10 121//121 
f 121//121 15//15 130//130 
f 10//10 130//130 12//12 
f 10//10 12//12 48//48 
f 48//48 12//12 89//89 
f 12//12 98//98 89//89 
f 89//89 98//98 111//111 
f 53//53 111//111 98//98 
f 12//12 134//134 98//98 
f 45//45 26//26 184//184 
f 176//176 45//45 184//184 
f 176//176 67//67 45//45 
f 67//67 81//81 45//45 
f 45//45 81//81 26//26 
f 81//81 60//60 26//26 
f 81//81 20//20 60//60 
f 81//81 122//122 20//20 
f 20//20 122//122 27//27 
f 107//107 122//122 81//81 
f 67//67 107//107 81//81 
f 116//116 107//107 67//67 
f 116//116 67//67 176//176 
f 200//200 47//47 24//24 
f 200//200 24//24 69//69 
f 181//181 92//92 116//116 
f 116//116 92//92 107//107 
f 92//92 132//132 107//107 
f 107//107 132//132 122//122 
f 132//132 34//34 122//122 
f 132//132 63//63 34//34 
f 63//63 30//30 34//34 
f 63//63 38//38 30//30 
f 38//38 18//18 30//30 
f 38//38 43//43 18//18 
f 43//43 37//37 18//18 
f 37//37 175//175 18//18 
f 105//105 175//175 37//37 
f 43//43 105//105 37//37 
f 43//43 118//118 105//105 
f 146//146 196//196 203//203 
f 115//115 146//146 203//203 
f 21//21 115//115 203//203 
f 162//162 118//118 97//97 
f 162//162 97//97 55//55 
f 52//52 162//162 55//55 
f 49//49 52//52 55//55 
f 49//49 55//55 110//110 
f 49//49 110//110 131//131 
f 64//64 49//49 131//131 
f 144//144 64//64 131//131 
f 83//83 144//144 131//131 
f 83//83 131//131 129//129 
f 56//56 83//83 129//129 
f 112//112 56//56 129//129 
f 28//28 112//112 129//129 
f 181//181 28//28 129//129 
f 181//181 129//129 41//41 
f 181//181 41//41 92//92 
f 41//41 132//132 92//92 
f 110//110 132//132 41//41 
f 129//129 110//110 41//41 
f 131//131 110//110 129//129 
f 132//132 110//110 63//63 
f 110//110 55//55 63//63 
f 55//55 97//97 63//63 
f 97//97 38//38 63//63 
f 97//97 43//43 38//38 
f 118//118 43//43 97//97 
f 69//69 102//102 166//166 
f 166//166 102//102 142//142 
f 214//214 112//112 28//28 
f 214//214 143//143 112//112 
f 143//143 56//56 112//112 
f 143//143 4//4 56//56 
f 4//4 144//144 56//56 
f 56//56 144//144 83//83 
f 4//4 64//64 144//144 
f 4//4 151//151 64//64 
f 64//64 151//151 40//40 
f 64//64 40//40 177//177 
f 40//40 179//179 177//177 
f 115//115 179//179 40//40 
f 126//126 115//115 40//40 
f 39//39 126//126 40//40 
f 40//40 151//151 39//39 
f 19//19 39//39 151//151 
f 4//4 19//19 151//151 
f 14//14 19//19 4//4 
f 143//143 14//14 4//4 
f 143//143 7//7 14//14 
f 100//100 14//14 7//7 
f 155//155 108//108 194//194 
f 140//140 194//194 108//108 
f 103//103 140//140 108//108 
f 22//22 103//103 108//108 
f 102//102 22//22 108//108 
f 102//102 108//108 155//155 
f 155//155 142//142 102//102 
f 214//214 7//7 143//143 
f 22//22 102//102 85//85 
f 163//163 192//192 94//94 
f 125//125 163//163 94//94 
f 101//101 125//125 94//94 
f 94//94 152//152 101//101 
f 152//152 124//124 101//101 
f 125//125 101//101 124//124 
f 125//125 124//124 36//36 
f 125//125 36//36 123//123 
f 123//123 195//195 125//125 
f 163//163 125//125 195//195 
f 210//210 195//195 123//123 
f 210//210 123//123 6//6 
f 210//210 6//6 90//90 
f 100//100 210//210 90//90 
f 100//100 90//90 14//14 
f 90//90 6//6 14//14 
f 6//6 19//19 14//14 
f 6//6 2//2 19//19 
f 19//19 2//2 39//39 
f 2//2 36//36 173//173 
f 124//124 173//173 36//36 
f 124//124 126//126 173//173 
f 124//124 99//99 126//126 
f 126//126 99//99 93//93 
f 126//126 93//93 61//61 
f 61//61 115//115 126//126 
f 61//61 146//146 115//115 
f 146//146 61//61 127//127 
f 146//146 127//127 196//196 
f 196//196 127//127 42//42 
f 127//127 133//133 42//42 
f 127//127 54//54 133//133 
f 61//61 54//54 127//127 
f 61//61 93//93 54//54 
f 93//93 136//136 54//54 
f 23//23 136//136 93//93 
f 152//152 23//23 93//93 
f 152//152 93//93 124//124 
f 93//93 99//99 124//124 
f 152//152 9//9 23//23 
f 9//9 44//44 23//23 
f 23//23 44//44 31//31 
f 23//23 31//31 138//138 
f 136//136 23//23 138//138 
f 31//31 50//50 138//138 
f 31//31 58//58 50//50 
f 31//31 119//119 58//58 
f 44//44 119//119 31//31 
f 44//44 9//9 119//119 
f 192//192 119//119 9//9 
f 9//9 94//94 192//192 
f 152//152 94//94 9//9 
f 85//85 24//24 204//204 
f 102//102 24//24 85//85 
f 24//24 102//102 69//69 
f 2//2 123//123 36//36 
f 6//6 123//123 2//2 
f 115//115 21//21 179//179 
f 96//96 113//113 74//74 
