v -9.85813 -42.3292 1087.82
v -9.35257 -42.8863 1088.42
v -9.05045 -42.3623 1088.49
v -9.52597 -41.5905 1087.82
v -9.90531 -41.285 1087.61
v -10.8314 -42.0762 1087.5
v -10.5438 -42.8696 1087.71
v -9.88811 -43.3522 1088.33
v -8.95616 -43.6378 1089.37
v -9.75025 -43.7739 1089.02
v -9.11215 -43.8476 1089.92
v -10.3576 -43.9633 1089.65
v -11.3754 -43.9357 1091.5
v -10.639 -43.5018 1093.84
v -9.86864 -42.2038 1090.53
v -9.91286 -40.1969 1088.63
v -9.31734 -40.8051 1087.56
v -9.79439 -39.7231 1087.79
v -10.5539 -40.9509 1087.65
v -12.0759 -41.8826 1087.74
v -11.3659 -42.8596 1087.71
v -10.6782 -43.6039 1088.37
v -11.8187 -43.653 1088.35
v -11.3569 -44.0175 1089.06
v -11.9056 -44.1374 1089.81
v -13.4787 -44.5182 1089.74
v -13.0449 -44.2994 1089.08
v -12.8812 -43.9705 1088.59
v -12.8673 -43.6451 1088.17
v -13.4139 -43.4481 1088.12
v -13.7647 -44.1725 1088.61
v -14.109 -44.6145 1089.12
v -14.4389 -44.9002 1089.75
v -14.9594 -44.7608 1089.2
v -14.9862 -45.1574 1089.68
v -14.9011 -45.005 1090.5
v -13.7981 -44.4629 1091.01
v -13.1072 -44.0221 1092.78
v -13.097 -43.7175 1095.39
v -12.3504 -43.4288 1096.31
v -12.1699 -43.1204 1097.52
v -12.1073 -41.6621 1096.03
v -11.4488 -39.7555 1092.34
v -11.1265 -38.621 1090.38
v -10.4136 -38.8625 1088.48
v -11.4759 -40.4974 1088.09
v -13.3042 -41.7722 1088.46
v -13.4274 -42.6615 1088.07
v -12.4418 -42.9158 1087.83
v -14.0414 -43.4709 1088.3
v -14.5856 -44.1997 1088.79
v -14.8354 -44.007 1089.16
v -15.2925 -44.678 1089.71
v -15.3959 -45.0418 1090.42
v -15.4526 -45.0175 1091.52
v -14.9012 -44.757 1091.82
v -13.9261 -44.1654 1093.24
v -14.1651 -44.1066 1095.88
v -13.6636 -43.8074 1097.07
v -13.4904 -43.6194 1097.31
v -12.9064 -43.2233 1097.45
v -12.4579 -42.802 1097.98
v -12.7484 -42.004 1098.17
v -12.9235 -41.0797 1097.83
v -13.6068 -42.5918 1097.61
v -13.8233 -42.1146 1097.28
v -14.0384 -41.9302 1096.75
v -15.1198 -43.4711 1096.48
v -15.5386 -43.4353 1095.34
v -13.952 -41.2247 1095.4
v -12.797 -39.895 1096.2
v -12.412 -39.1306 1094.26
v -12.9226 -39.4613 1093.64
v -12.0313 -38.6211 1092.66
v -12.9104 -39.4836 1092.48
v -12.0436 -39.3482 1090.34
v -13.4833 -40.4277 1091.17
v -13.8601 -40.3911 1093.18
v -14.8108 -41.8228 1092.96
v -16.0495 -43.8725 1094.06
v -16.2509 -44.4618 1095.03
v -16.4415 -44.7084 1093.91
v -16.1562 -44.8664 1094.61
v -15.8455 -44.9573 1093.75
v -15.5057 -44.7439 1094.68
v -15.9937 -44.6848 1095.42
v -15.3273 -44.5799 1095.65
v -14.8233 -44.5148 1093.76
v -15.9666 -45.1197 1092.06
v -16.2857 -44.9466 1093.03
v -16.5274 -44.7563 1093
v -16.0984 -44.0027 1092.59
v -16.0864 -44.7148 1091.65
v -15.7181 -43.6799 1091.8
v -15.4193 -42.8704 1092.04
v -14.3197 -41.5973 1090.65
v -13.4429 -41.052 1089.25
v -14.4908 -42.3001 1089.61
v -15.2326 -43.6767 1090.25
v -14.3963 -42.955 1088.95
v -12.0136 -40.2457 1088.6
v -11.9617 -39.6878 1089.29
v -15.5468 -44.6368 1090.38
v -16.4009 -45.0334 1092.31
v -14.8976 -44.3986 1096.09
v -14.5315 -44.242 1096.55
v -14.2488 -44.0557 1097.02
v -13.9038 -43.4271 1097.36
v -13.1287 -42.8419 1097.74
v -14.8043 -43.7658 1097
v -15.4208 -44.2238 1096.5
v -15.9219 -44.2575 1095.94
v -13.3557 -40.0412 1094.52
v -9.05045 -42.3623 1088.49
v -8.95616 -43.6378 1089.37
v -9.11215 -43.8476 1089.92
v -10.639 -43.5018 1093.84
v -9.31734 -40.8051 1087.56
v -9.79439 -39.7231 1087.79
v -14.9594 -44.7608 1089.2
v -14.9594 -44.7608 1089.2
v -14.9594 -44.7608 1089.2
v -14.9862 -45.1574 1089.68
v -14.9862 -45.1574 1089.68
v -12.1699 -43.1204 1097.52
v -11.1265 -38.621 1090.38
v -10.4136 -38.8625 1088.48
v -14.0414 -43.4709 1088.3
v -14.5856 -44.1997 1088.79
v -15.2925 -44.678 1089.71
v -15.3959 -45.0418 1090.42
v -15.4526 -45.0175 1091.52
v -13.6636 -43.8074 1097.07
v -13.4904 -43.6194 1097.31
v -12.4579 -42.802 1097.98
v -12.7484 -42.004 1098.17
v -12.9235 -41.0797 1097.83
v -12.797 -39.895 1096.2
v -12.412 -39.1306 1094.26
v -12.0313 -38.6211 1092.66
v -16.2509 -44.4618 1095.03
v -16.4415 -44.7084 1093.91
v -16.4415 -44.7084 1093.91
v -16.1562 -44.8664 1094.61
v -16.1562 -44.8664 1094.61
v -15.8455 -44.9573 1093.75
v -15.9937 -44.6848 1095.42
v -15.9937 -44.6848 1095.42
v -15.3273 -44.5799 1095.65
v -15.9666 -45.1197 1092.06
v -15.9666 -45.1197 1092.06
v -16.5274 -44.7563 1093
v -16.0864 -44.7148 1091.65
v -16.0864 -44.7148 1091.65
v -16.0864 -44.7148 1091.65
v -15.5468 -44.6368 1090.38
v -16.4009 -45.0334 1092.31
v -16.4009 -45.0334 1092.31
v -16.4009 -45.0334 1092.31
v -14.8976 -44.3986 1096.09
v -14.5315 -44.242 1096.55
v -14.2488 -44.0557 1097.02
v -14.2488 -44.0557 1097.02
v -14.8043 -43.7658 1097
v -14.8043 -43.7658 1097
v -15.4208 -44.2238 1096.5
v -15.9219 -44.2575 1095.94
v -15.9219 -44.2575 1095.94
vn 0.442222 -0.26731 -0.856146
vn 0.600575 -0.38755 -0.699367
vn 0.610823 -0.318605 -0.724835
vn 0.421223 -0.302029 -0.85519
vn 0.159776 -0.122197 -0.979561
vn 0.0296321 -0.0696806 -0.997129
vn 0.187374 -0.450777 -0.872749
vn 0.388559 -0.612798 -0.688114
vn 0.510003 -0.672165 -0.536741
vn 0.21727 -0.908818 -0.356152
vn 0.157672 -0.985525 -0.0622932
vn 0.115442 -0.991847 -0.0539652
vn 0.158316 -0.981394 0.10864
vn 0.17998 -0.970731 0.159022
vn 0.890028 0.31179 0.332622
vn 0.886116 0.341233 0.313621
vn 0.891918 0.330985 0.308109
vn 0.882264 0.345902 0.319315
vn -0.147086 0.180415 -0.972531
vn -0.270581 0.168627 -0.947814
vn -0.0596076 -0.40554 -0.912132
vn 0.105977 -0.775331 -0.6226
vn 0.0694322 -0.721906 -0.688499
vn 0.124896 -0.938723 -0.321249
vn 0.172608 -0.98447 -0.0320338
vn 0.28165 -0.958589 -0.042202
vn 0.207775 -0.922683 -0.324785
vn 0.074263 -0.79513 -0.601875
vn -0.0102408 -0.628835 -0.777471
vn -0.160681 -0.415115 -0.895467
vn -0.00361928 -0.671322 -0.741157
vn 0.154561 -0.859864 -0.486565
vn 0.359893 -0.923147 -0.135193
vn 0.270188 -0.838994 -0.472321
vn 0.404362 -0.716082 -0.568962
vn 0.275723 -0.951907 0.133604
vn 0.301498 -0.943268 0.139083
vn 0.197784 -0.970885 0.135145
vn 0.312998 -0.943291 0.110604
vn 0.240471 -0.950053 0.198928
vn 0.143879 -0.925927 0.349224
vn 0.894069 0.309962 0.323365
vn 0.879484 0.340439 0.332578
vn 0.882962 0.341565 0.322044
vn 0.879106 0.364551 0.307043
vn -0.385108 0.403093 -0.830185
vn -0.587722 0.447779 -0.673853
vn -0.451101 0.172989 -0.875547
vn -0.0968803 -0.277717 -0.955765
vn -0.229785 -0.338785 -0.912373
vn -0.0943056 -0.592314 -0.800169
vn -0.8263 0.189359 -0.530445
vn -0.873074 0.207261 -0.441344
vn -0.84407 -0.40263 -0.354168
vn 0.0878346 -0.99166 0.0943137
vn 0.365202 -0.921806 0.130006
vn 0.333513 -0.937344 0.100772
vn 0.385875 -0.921 0.0534795
vn 0.460156 -0.881673 0.104447
vn 0.44944 -0.866712 0.216368
vn 0.0775042 -0.74477 0.662806
vn -0.163805 -0.623001 0.764877
vn 0.908822 0.272703 0.315714
vn 0.900749 0.304399 0.309826
vn -0.547341 0.0502979 0.835397
vn -0.727691 0.32365 0.604745
vn -0.785849 0.51211 0.346677
vn -0.745795 0.397669 0.534461
vn -0.807418 0.54737 0.220142
vn -0.809964 0.556257 0.185841
vn -0.74217 0.63171 0.223887
vn 0.884454 0.339651 0.319966
vn -0.680814 0.728355 0.0774032
vn -0.664927 0.744426 -0.0608472
vn -0.679274 0.719276 -0.1457
vn -0.632852 0.734091 -0.246187
vn -0.727275 0.65691 -0.198849
vn -0.781992 0.623094 0.0155793
vn -0.825691 0.563914 -0.0153653
vn -0.86127 0.50421 0.0631337
vn -0.86069 0.491409 0.133151
vn -0.907809 0.414567 0.0633809
vn -0.842803 -0.470891 0.260661
vn -0.312805 -0.946058 0.0844246
vn 0.250216 -0.959553 0.129034
vn 0.133507 -0.97702 0.166156
vn 0.316394 -0.945445 0.0776396
vn 0.394325 -0.915768 0.0766625
vn 0.343201 -0.932471 0.112743
vn -0.389552 -0.908817 0.149333
vn -0.621959 -0.769388 0.145636
vn -0.887955 0.42695 -0.171026
vn -0.897743 0.32353 -0.298976
vn -0.883937 0.380456 -0.271861
vn -0.866932 0.470885 -0.16339
vn -0.793819 0.580151 -0.182418
vn -0.68877 0.605405 -0.39885
vn -0.815751 0.442274 -0.372752
vn -0.887368 0.307205 -0.343807
vn -0.776743 0.324068 -0.540047
vn -0.549851 0.566829 -0.613489
vn -0.614122 0.707568 -0.349575
vn -0.899389 0.245116 -0.361963
vn -0.457071 -0.696016 -0.553759
vn 0.374384 -0.927118 0.0169836
vn 0.418437 -0.907111 0.0453892
vn 0.423243 -0.903208 0.0712752
vn -0.137066 -0.413002 0.900357
vn -0.248399 -0.415007 0.875253
vn -0.269793 -0.266717 0.925243
vn -0.722758 0.309201 0.618074
vn -0.791155 0.479721 0.379396
vn -0.756778 0.633853 0.159743
vn 0.890348 0.321032 0.32283
vn 0.892951 0.287464 0.346414
vn 0.895651 0.285066 0.34139
vn 0.892655 0.305765 0.331171
vn 0.138875 -0.158329 -0.977571
vn -0.245586 0.295565 -0.923216
vn 0.0249916 -0.599861 -0.799714
vn -0.811395 0.100913 -0.575721
vn -0.772721 -0.467517 -0.429337
vn 0.231069 -0.960593 0.154496
vn -0.784226 -0.476845 -0.396999
vn 0.888366 0.309013 0.339582
vn -0.603008 0.752887 -0.26371
vn -0.513639 0.601212 -0.612143
vn -0.74987 0.237822 -0.617362
vn -0.785836 0.131046 -0.604391
vn -0.818438 -0.439584 -0.370035
vn -0.109093 -0.991615 0.0692758
vn -0.447984 -0.69813 -0.558502
vn -0.0382609 -0.621434 0.782531
vn -0.131782 -0.505667 0.852605
vn 0.90096 0.284117 0.327947
vn -0.452882 -0.152042 0.878511
vn -0.726957 0.346166 0.593046
vn 0.897179 0.320848 0.303523
vn -0.644155 0.754168 0.12765
vn 0.872972 0.355065 0.334437
vn -0.852924 -0.424345 0.304059
vn -0.854061 -0.458264 0.24612
vn -0.457367 -0.885488 0.0820096
vn -0.395622 -0.917258 -0.0460646
vn 0.164057 -0.971029 0.173748
vn 0.324516 -0.940717 0.0986948
vn -0.850902 -0.406583 0.33265
vn -0.0995789 -0.761921 0.639969
vn -0.142372 -0.874735 0.463216
vn -0.158795 -0.979625 0.122961
vn -0.452534 -0.697083 -0.556138
vn -0.908664 0.396244 -0.131607
vn -0.851568 -0.358131 -0.38285
vn -0.431351 -0.902181 -0.00230443
vn -0.452534 -0.697083 -0.556138
vn -0.865773 -0.359709 -0.347918
vn -0.116164 -0.983631 0.13775
vn -0.620184 -0.760651 0.191789
vn -0.909074 0.301346 -0.287706
vn -0.0207478 -0.930318 0.366165
vn -0.171478 -0.818518 0.548291
vn -0.0344928 -0.460974 0.886743
vn -0.405394 -0.739723 0.53709
vn -0.706634 0.344063 0.618296
vn -0.234436 -0.73523 0.635985
vn -0.105576 -0.88384 0.455721
vn -0.862518 -0.325981 0.387039
vn -0.212027 -0.840944 0.497854
g grp1
usemtl mtl1
f 3//3 2//2 1//1 
f 1//1 4//4 3//3 
f 1//1 5//5 4//4 
f 1//1 6//6 5//5 
f 7//7 6//6 1//1 
f 8//8 7//7 1//1 
f 8//8 1//1 2//2 
f 8//8 2//2 9//9 
f 10//10 8//8 9//9 
f 10//10 9//9 11//11 
f 12//12 10//10 11//11 
f 13//13 12//12 11//11 
f 14//14 13//13 11//11 
f 116//116 15//15 117//117 
f 115//115 15//15 116//116 
f 115//115 114//114 15//15 
f 2//2 3//3 9//9 
f 114//114 16//16 15//15 
f 16//16 114//114 17//17 
f 18//18 16//16 17//17 
f 118//118 19//19 119//119 
f 5//5 19//19 118//118 
f 4//4 5//5 118//118 
f 3//3 4//4 118//118 
f 6//6 19//19 5//5 
f 6//6 20//20 19//19 
f 21//21 20//20 6//6 
f 7//7 21//21 6//6 
f 21//21 7//7 22//22 
f 23//23 21//21 22//22 
f 24//24 23//23 22//22 
f 22//22 10//10 24//24 
f 10//10 22//22 8//8 
f 22//22 7//7 8//8 
f 24//24 10//10 12//12 
f 12//12 25//25 24//24 
f 13//13 25//25 12//12 
f 25//25 13//13 26//26 
f 25//25 26//26 27//27 
f 25//25 27//27 24//24 
f 24//24 27//27 28//28 
f 24//24 28//28 23//23 
f 29//29 23//23 28//28 
f 30//30 29//29 28//28 
f 31//31 30//30 28//28 
f 31//31 28//28 27//27 
f 32//32 31//31 27//27 
f 26//26 32//32 27//27 
f 32//32 26//26 33//33 
f 34//34 32//32 33//33 
f 35//35 34//34 33//33 
f 36//36 123//123 33//33 
f 37//37 36//36 33//33 
f 26//26 37//37 33//33 
f 13//13 37//37 26//26 
f 38//38 37//37 13//13 
f 39//39 38//38 13//13 
f 40//40 39//39 13//13 
f 14//14 40//40 13//13 
f 41//41 40//40 14//14 
f 117//117 42//42 125//125 
f 42//42 117//117 15//15 
f 43//43 42//42 15//15 
f 44//44 43//43 15//15 
f 16//16 44//44 15//15 
f 16//16 45//45 44//44 
f 45//45 16//16 18//18 
f 119//119 46//46 127//127 
f 19//19 46//46 119//119 
f 20//20 46//46 19//19 
f 20//20 47//47 46//46 
f 48//48 47//47 20//20 
f 49//49 48//48 20//20 
f 21//21 49//49 20//20 
f 49//49 21//21 23//23 
f 29//29 49//49 23//23 
f 30//30 49//49 29//29 
f 30//30 48//48 49//49 
f 50//50 48//48 30//30 
f 50//50 30//30 31//31 
f 51//51 50//50 31//31 
f 51//51 31//31 32//32 
f 120//120 51//51 32//32 
f 52//52 129//129 121//121 
f 53//53 52//52 121//121 
f 130//130 122//122 124//124 
f 54//54 130//130 124//124 
f 36//36 131//131 123//123 
f 55//55 131//131 36//36 
f 56//56 55//55 36//36 
f 56//56 36//36 37//37 
f 57//57 56//56 37//37 
f 57//57 37//37 38//38 
f 39//39 57//57 38//38 
f 58//58 57//57 39//39 
f 39//39 59//59 58//58 
f 39//39 60//60 59//59 
f 60//60 39//39 40//40 
f 61//61 60//60 40//40 
f 41//41 61//61 40//40 
f 62//62 61//61 41//41 
f 125//125 42//42 135//135 
f 42//42 63//63 135//135 
f 63//63 42//42 64//64 
f 137//137 65//65 136//136 
f 66//66 65//65 137//137 
f 66//66 137//137 67//67 
f 67//67 68//68 66//66 
f 67//67 69//69 68//68 
f 67//67 70//70 69//69 
f 71//71 70//70 67//67 
f 137//137 71//71 67//67 
f 42//42 138//138 64//64 
f 138//138 42//42 72//72 
f 73//73 71//71 139//139 
f 73//73 139//139 74//74 
f 75//75 73//73 74//74 
f 74//74 126//126 75//75 
f 140//140 43//43 44//44 
f 72//72 43//43 140//140 
f 42//42 43//43 72//72 
f 75//75 126//126 76//76 
f 75//75 76//76 77//77 
f 77//77 78//78 75//75 
f 78//78 77//77 79//79 
f 70//70 78//78 79//79 
f 70//70 79//79 80//80 
f 69//69 70//70 80//80 
f 81//81 69//69 80//80 
f 81//81 80//80 82//82 
f 83//83 141//141 142//142 
f 144//144 143//143 84//84 
f 145//145 146//146 85//85 
f 86//86 145//145 85//85 
f 87//87 86//86 85//85 
f 87//87 85//85 88//88 
f 58//58 87//87 88//88 
f 58//58 88//88 57//57 
f 88//88 56//56 57//57 
f 88//88 146//146 56//56 
f 85//85 146//146 88//88 
f 146//146 89//89 56//56 
f 84//84 90//90 150//150 
f 143//143 90//90 84//84 
f 143//143 91//91 90//90 
f 80//80 152//152 82//82 
f 152//152 80//80 92//92 
f 93//93 152//152 92//92 
f 94//94 93//93 92//92 
f 92//92 95//95 94//94 
f 95//95 92//92 80//80 
f 79//79 95//95 80//80 
f 79//79 96//96 95//95 
f 79//79 77//77 96//96 
f 96//96 77//77 97//97 
f 96//96 97//97 98//98 
f 96//96 98//98 95//95 
f 98//98 99//99 95//95 
f 100//100 99//99 98//98 
f 47//47 100//100 98//98 
f 98//98 97//97 47//47 
f 47//47 97//97 101//101 
f 47//47 101//101 46//46 
f 46//46 101//101 127//127 
f 102//102 127//127 101//101 
f 97//97 102//102 101//101 
f 97//97 77//77 102//102 
f 77//77 76//76 102//102 
f 76//76 126//126 102//102 
f 102//102 126//126 127//127 
f 48//48 100//100 47//47 
f 128//128 100//100 48//48 
f 128//128 52//52 100//100 
f 52//52 128//128 129//129 
f 52//52 99//99 100//100 
f 53//53 99//99 52//52 
f 53//53 103//103 99//99 
f 54//54 156//156 130//130 
f 153//153 156//156 54//54 
f 55//55 154//154 131//131 
f 151//151 155//155 132//132 
f 56//56 89//89 55//55 
f 104//104 155//155 151//151 
f 90//90 157//157 150//150 
f 90//90 91//91 158//158 
f 152//152 93//93 159//159 
f 99//99 103//103 93//93 
f 94//94 99//99 93//93 
f 99//99 94//94 95//95 
f 105//105 87//87 58//58 
f 106//106 105//105 58//58 
f 107//107 106//106 58//58 
f 59//59 107//107 58//58 
f 108//108 162//162 133//133 
f 134//134 108//108 133//133 
f 108//108 134//134 61//61 
f 108//108 61//61 109//109 
f 65//65 108//108 109//109 
f 65//65 109//109 136//136 
f 109//109 62//62 136//136 
f 62//62 109//109 61//61 
f 110//110 108//108 65//65 
f 68//68 164//164 65//65 
f 68//68 65//65 66//66 
f 68//68 111//111 164//164 
f 112//112 111//111 68//68 
f 112//112 68//68 69//69 
f 81//81 112//112 69//69 
f 167//167 141//141 147//147 
f 168//168 148//148 149//149 
f 166//166 168//168 149//149 
f 166//166 149//149 160//160 
f 161//161 166//166 160//160 
f 166//166 161//161 165//165 
f 163//163 165//165 161//161 
f 108//108 110//110 162//162 
f 141//141 83//83 147//147 
f 78//78 70//70 113//113 
f 78//78 113//113 73//73 
f 78//78 73//73 75//75 
f 71//71 73//73 113//113 
f 70//70 71//71 113//113 
