v -17.2836 -60.9918 1007.18
v -17.9116 -61.6899 1008.62
v -17.408 -61.61 1009.1
v -17.1559 -60.4346 1007.88
v -17.0631 -60.0041 1005.9
v -17.3601 -59.2064 1007.92
v -18.0524 -57.2208 1006.13
v -17.7793 -58.0382 1005.28
v -17.6738 -59.3122 1004.78
v -18.5544 -57.336 1004.22
v -18.6924 -58.8025 1004.43
v -17.9172 -60.0737 1005.23
v -18.9557 -60.019 1005.76
v -18.4839 -60.8565 1006.74
v -20.1416 -61.2264 1008.89
v -19.2385 -62.2055 1010.32
v -17.5153 -60.6878 1006.13
v -17.2351 -60.1071 1005.34
v -18.3666 -62.6338 1011.69
v -19.2439 -62.8359 1012.49
v -19.1347 -62.9886 1014.16
v -17.9024 -62.6092 1013.21
v -18.3514 -62.6968 1015.08
v -18.2608 -61.9801 1015.44
v -19.1884 -62.1045 1017.8
v -19.1746 -61.1312 1019.37
v -18.4986 -60.6567 1016.4
v -19.2949 -59.5818 1020.1
v -19.322 -58.4455 1018.38
v -19.8827 -57.5424 1020.57
v -20.2959 -56.2871 1018.64
v -20.6564 -56.6204 1021.41
v -21.3593 -56.3084 1021.46
v -21.3732 -55.4428 1018.42
v -20.6288 -55.0715 1016.26
v -21.6322 -54.5477 1015.81
v -20.8979 -54.3486 1013.56
v -19.8643 -55.3458 1013.81
v -19.9131 -54.7179 1010.46
v -18.4563 -56.7313 1009.6
v -19.2123 -57.0429 1015.28
v -18.049 -58.8289 1012.01
v -17.5533 -61.3062 1011.56
v -17.6351 -62.2489 1011.22
v -18.8027 -55.8518 1007.67
v -19.4987 -54.9703 1006.63
v -18.6759 -56.2394 1004.64
v -19.3768 -55.104 1004.06
v -19.3567 -56.7982 1003.99
v -19.4226 -58.8198 1005.19
v -20.2504 -60.1145 1007.35
v -21.1447 -60.5033 1009.45
v -21.5228 -61.3391 1011.97
v -20.9293 -62.2311 1012.89
v -20.1965 -62.7645 1013.53
v -20.4649 -62.7683 1016.33
v -19.5608 -62.7343 1016.78
v -20.4599 -62.6637 1019.13
v -19.9371 -62.4145 1019.65
v -20.4911 -62.4055 1021.4
v -20.0399 -62.0205 1021.91
v -19.5745 -61.7998 1020.34
v -19.7022 -61.2723 1022.05
v -19.5891 -59.735 1022.2
v -19.7376 -58.3075 1022.11
v -20.1645 -57.2692 1022.11
v -20.6353 -57.0101 1022.72
v -21.4217 -57.0257 1023.05
v -21.9849 -56.8758 1022.39
v -22.3534 -56.3298 1020.5
v -22.4697 -55.5611 1018.27
v -22.3675 -54.8223 1016.68
v -22.5587 -54.2776 1014.41
v -21.8856 -53.9636 1012.73
v -22.6031 -54.0661 1011.78
v -21.618 -53.8549 1009.54
v -22.1952 -54.1633 1009.21
v -21.4073 -54.1063 1007.95
v -20.5161 -54.2484 1007.83
v -20.8689 -54.3436 1006.5
v -20.1617 -54.421 1004.98
v -21.1066 -54.5169 1005.73
v -20.664 -54.3247 1004.44
v -20.0572 -54.3582 1003.71
v -20.3521 -54.4965 1003.66
v -19.7142 -54.9248 1003.52
v -20.3057 -55.8833 1004.4
v -20.7771 -58.7331 1007.11
v -21.2669 -56.3847 1006.58
v -22.1567 -58.135 1009.67
v -22.5989 -55.9961 1009.62
v -23.0606 -56.8008 1011.96
v -22.2644 -59.5946 1011.59
v -22.4568 -60.3836 1013.86
v -22.0006 -61.5539 1014.96
v -21.3703 -62.3639 1015.09
v -21.5888 -62.1729 1016.73
v -21.0544 -62.4717 1019.43
v -21.2286 -62.1175 1021.33
v -20.6133 -61.9509 1022.53
v -20.0909 -61.3576 1022.81
v -20.0629 -60.0713 1023.14
v -20.1261 -58.159 1023.06
v -20.7589 -57.5047 1023.34
v -21.3751 -57.6986 1023.47
v -21.8462 -57.6524 1022.98
v -21.4727 -59.2741 1023.32
v -21.829 -59.559 1022.52
v -21.0835 -61.1579 1023.04
v -21.2617 -61.6142 1022.42
v -21.7139 -61.1818 1021.55
v -21.8883 -61.4424 1018.86
v -22.4342 -58.7017 1020.29
v -22.7347 -59.2611 1017.48
v -23.1864 -57.1237 1016.74
v -22.7787 -59.6165 1015.6
v -23.0757 -58.0913 1013.78
v -23.417 -55.7907 1014.33
v -23.306 -55.6313 1016.32
v -22.9058 -56.23 1018.3
v -22.3696 -57.298 1021.29
v -23.1052 -54.9152 1015.64
v -23.2115 -54.6767 1013.25
v -22.9508 -54.893 1011.01
v -22.0174 -55.0039 1007.9
v -21.7059 -54.5238 1007.32
v -20.8698 -54.8994 1004.86
v -20.5887 -60.7654 1023.3
v -20.8812 -58.7066 1023.62
v -20.4055 -58.4902 1023.5
v -21.0452 -60.2529 1023.43
v -21.2055 -53.9016 1010.95
v -17.2836 -60.9918 1007.18
v -17.2836 -60.9918 1007.18
v -17.408 -61.61 1009.1
v -17.0631 -60.0041 1005.9
v -17.6738 -59.3122 1004.78
v -18.5544 -57.336 1004.22
v -17.5153 -60.6878 1006.13
v -17.2351 -60.1071 1005.34
v -17.2351 -60.1071 1005.34
v -17.9024 -62.6092 1013.21
v -18.3514 -62.6968 1015.08
v -17.6351 -62.2489 1011.22
v -19.3768 -55.104 1004.06
v -19.3768 -55.104 1004.06
v -19.3768 -55.104 1004.06
v -19.3567 -56.7982 1003.99
v -19.3567 -56.7982 1003.99
v -20.4911 -62.4055 1021.4
v -21.4217 -57.0257 1023.05
v -21.9849 -56.8758 1022.39
v -21.9849 -56.8758 1022.39
v -22.3534 -56.3298 1020.5
v -22.1952 -54.1633 1009.21
v -21.4073 -54.1063 1007.95
v -20.1617 -54.421 1004.98
v -21.1066 -54.5169 1005.73
v -20.664 -54.3247 1004.44
v -20.664 -54.3247 1004.44
v -20.0572 -54.3582 1003.71
v -20.0572 -54.3582 1003.71
v -20.0572 -54.3582 1003.71
v -20.3521 -54.4965 1003.66
v -20.3521 -54.4965 1003.66
v -19.7142 -54.9248 1003.52
v -19.7142 -54.9248 1003.52
v -19.7142 -54.9248 1003.52
v -20.0629 -60.0713 1023.14
v -20.7589 -57.5047 1023.34
v -21.3751 -57.6986 1023.47
v -21.0835 -61.1579 1023.04
v -21.7059 -54.5238 1007.32
v -20.8812 -58.7066 1023.62
v -20.4055 -58.4902 1023.5
v -21.0452 -60.2529 1023.43
vn 0.32956 -0.898048 -0.291375
vn 0.168232 -0.936895 -0.306473
vn 0.37681 -0.893073 -0.245836
vn 0.996949 -0.0509669 0.0591228
vn 0.975974 0.189427 -0.107668
vn 0.962238 0.25539 0.0941984
vn 0.902635 0.430128 -0.0155237
vn 0.909782 0.302821 -0.283896
vn 0.890543 0.246083 -0.382591
vn 0.848531 0.26444 -0.458331
vn -0.221394 -0.438543 -0.871013
vn -0.113008 -0.717884 -0.68693
vn -0.490503 -0.670732 -0.55635
vn -0.238477 -0.863494 -0.444418
vn -0.530907 -0.755378 -0.384112
vn -0.242318 -0.91755 -0.315251
vn 0.0181815 -0.889798 -0.455993
vn 0.803441 -0.578606 -0.140348
vn 0.185082 -0.965612 -0.182587
vn -0.104853 -0.977336 -0.183903
vn 0.0800849 -0.996788 -0.000630087
vn 0.325834 -0.944275 -0.0466639
vn 0.341367 -0.925472 0.164223
vn 0.954872 -0.169624 0.243818
vn 0.789563 -0.556695 0.258227
vn 0.962794 -0.175302 0.205663
vn 0.976837 0.104289 0.186849
vn 0.980111 0.141183 0.13946
vn 0.943481 0.294709 0.151623
vn 0.905001 0.414751 0.0946304
vn 0.754216 0.627155 0.194513
vn 0.635325 0.753358 0.169746
vn 0.110557 0.944129 0.310481
vn 0.138625 0.935679 0.324479
vn 0.561058 0.795952 0.227318
vn 0.155501 0.959432 0.23518
vn 0.47309 0.869569 0.141549
vn 0.791479 0.594491 0.141921
vn 0.690564 0.719979 0.0689292
vn 0.892541 0.439458 0.101231
vn 0.903884 0.39415 0.16625
vn 0.955209 0.25116 0.156506
vn 0.99067 0.0143729 0.13552
vn 0.988736 -0.118624 0.0912658
vn 0.832941 0.552817 0.0245499
vn 0.740722 0.671811 -0.000571211
vn 0.884336 0.417965 -0.207977
vn 0.759262 0.64886 -0.0500117
vn 0.242962 -0.0560484 -0.968415
vn -0.688838 -0.423165 -0.588585
vn -0.697659 -0.529523 -0.482574
vn -0.806043 -0.471195 -0.358148
vn -0.780295 -0.575054 -0.245872
vn -0.584526 -0.776896 -0.234012
vn -0.332518 -0.932873 -0.138492
vn -0.257361 -0.966068 0.0218539
vn 0.297392 -0.941849 0.156456
vn 0.0230604 -0.99565 0.0902783
vn 0.579111 -0.799597 0.158982
vn 0.394553 -0.891004 0.224587
vn 0.66405 -0.67821 0.314753
vn 0.864436 -0.470075 0.178267
vn 0.917053 -0.259092 0.303127
vn 0.956997 0.0155451 0.289682
vn 0.948224 0.251772 0.193602
vn 0.824082 0.524274 0.214537
vn 0.525687 0.735999 0.426567
vn 0.0513527 0.799794 0.598074
vn -0.27707 0.891784 0.357707
vn -0.250992 0.918421 0.305788
vn -0.520821 0.782091 0.342167
vn -0.248998 0.915387 0.316333
vn -0.352114 0.921983 0.161131
vn 0.0150754 0.994376 0.104826
vn -0.562207 0.825998 -0.0406377
vn -0.0967655 0.992576 -0.0736889
vn -0.440484 0.876253 -0.195335
vn -0.459407 0.847513 -0.265833
vn 0.332009 0.94227 -0.0435656
vn -0.185873 0.970341 -0.154562
vn -0.0244568 0.999701 0.000205923
vn -0.173018 0.984213 -0.0372668
vn 0.0753181 0.991342 0.107555
vn 0.126324 0.990199 0.0595646
vn -0.353229 0.873986 -0.333733
vn 0.00917916 0.322915 -0.946384
vn -0.776934 -0.329162 -0.53668
vn -0.82575 -0.337981 -0.451559
vn -0.889189 -0.22125 -0.40049
vn -0.905895 -0.265964 -0.329572
vn -0.946931 -0.103751 -0.304232
vn -0.971289 -0.146136 -0.18773
vn -0.916277 -0.325441 -0.233505
vn -0.92209 -0.365166 -0.128078
vn -0.84899 -0.523589 -0.0712153
vn -0.588242 -0.805142 -0.0756147
vn -0.699703 -0.713881 0.0281003
vn -0.515523 -0.853947 0.0707833
vn -0.652323 -0.730752 0.201186
vn -0.049968 -0.788468 0.613043
vn 0.628294 -0.436358 0.644079
vn 0.879414 -0.0357921 0.47471
vn 0.831699 0.273811 0.483016
vn 0.688263 0.409335 0.598948
vn 0.0713184 0.376987 0.923469
vn -0.843525 0.103235 0.527076
vn -0.695447 -0.131782 0.70639
vn -0.922194 -0.18033 0.342111
vn -0.816855 -0.25158 0.51909
vn -0.746198 -0.522587 0.412421
vn -0.9239 -0.334467 0.185849
vn -0.901163 -0.425955 0.0804195
vn -0.97487 -0.151564 0.163267
vn -0.96622 -0.233914 0.108184
vn -0.988998 -0.112386 0.0961922
vn -0.958993 -0.28266 0.0208826
vn -0.97577 -0.203345 -0.0807698
vn -0.998931 0.0369547 -0.0277807
vn -0.969349 0.190252 0.155458
vn -0.936 0.251735 0.246035
vn -0.968561 0.0411849 0.245344
vn -0.77381 0.597226 0.211044
vn -0.866343 0.499424 -0.0051307
vn -0.961079 0.192324 -0.19834
vn -0.938823 0.0945281 -0.331172
vn -0.923892 0.213445 -0.317594
vn -0.920027 -0.0580022 -0.387539
vn 0.183713 -0.335306 0.924024
vn 0.2295 0.0107837 0.973249
vn 0.240978 0.0334702 0.969953
vn -0.576745 -0.164389 0.800213
vn 0.333205 0.941743 0.0457655
vn 0.975872 -0.2183 -0.00427093
vn 0.730737 -0.595552 -0.333679
vn 0.986896 -0.154327 0.0471056
vn 0.771241 -0.590256 -0.238296
vn 0.132938 -0.411647 -0.901596
vn 0.245005 -0.0910359 -0.965238
vn 0.771241 -0.590256 -0.238296
vn 0.90569 0.269013 -0.327655
vn 0.0817338 -0.685745 -0.723239
vn 0.976795 -0.134411 0.166747
vn 0.925622 -0.256935 0.277862
vn 0.369012 -0.909437 -0.191716
vn 0.838093 0.275147 -0.471056
vn 0.305394 0.0445385 -0.951184
vn 0.852634 0.0325456 -0.521494
vn -0.595584 -0.355759 -0.720218
vn 0.852634 0.0325456 -0.521494
vn -0.335358 -0.923493 0.18627
vn -0.659131 0.368914 0.655324
vn -0.95036 0.139904 0.277925
vn -0.663045 0.372257 0.649459
vn -0.912265 0.328929 0.244088
vn -0.909192 0.336616 -0.24507
vn 0.139454 0.982576 -0.122872
vn 0.656129 0.753742 0.0369827
vn -0.928839 0.166516 -0.330953
vn -0.353229 0.873986 -0.333733
vn -0.935079 0.0852199 -0.344041
vn -0.353229 0.873986 -0.333733
vn 0.00917916 0.322915 -0.946384
vn 0.75839 0.643703 -0.102421
vn 0.00917916 0.322915 -0.946384
vn -0.742044 -0.234056 -0.628162
vn 0.770877 0.565183 -0.293797
vn 0.852634 0.0325456 -0.521494
vn -0.38796 -0.29218 -0.874138
vn 0.417433 -0.153206 0.8957
vn 0.144011 0.438536 0.887101
vn -0.616553 0.0989235 0.781074
vn -0.213139 -0.544355 0.811326
vn -0.442135 0.864015 -0.24082
vn -0.40204 -0.0663361 0.913216
vn 0.749557 0.198947 0.631335
vn -0.0222567 -0.266188 0.963664
g grp1
usemtl mtl1
f 3//3 2//2 1//1 
f 4//4 135//135 133//133 
f 4//4 133//133 5//5 
f 6//6 4//4 5//5 
f 7//7 6//6 5//5 
f 8//8 7//7 5//5 
f 8//8 5//5 9//9 
f 9//9 10//10 8//8 
f 137//137 11//11 138//138 
f 11//11 137//137 12//12 
f 13//13 11//11 12//12 
f 13//13 12//12 14//14 
f 15//15 13//13 14//14 
f 16//16 15//15 14//14 
f 2//2 16//16 14//14 
f 2//2 14//14 17//17 
f 2//2 17//17 1//1 
f 134//134 139//139 136//136 
f 136//136 139//139 18//18 
f 5//5 140//140 9//9 
f 12//12 137//137 141//141 
f 12//12 141//141 17//17 
f 17//17 14//14 12//12 
f 16//16 2//2 19//19 
f 20//20 16//16 19//19 
f 21//21 20//20 19//19 
f 21//21 19//19 22//22 
f 23//23 21//21 22//22 
f 143//143 142//142 24//24 
f 25//25 143//143 24//24 
f 26//26 25//25 24//24 
f 26//26 24//24 27//27 
f 28//28 26//26 27//27 
f 28//28 27//27 29//29 
f 30//30 28//28 29//29 
f 30//30 29//29 31//31 
f 31//31 32//32 30//30 
f 33//33 32//32 31//31 
f 34//34 33//33 31//31 
f 34//34 31//31 35//35 
f 35//35 36//36 34//34 
f 37//37 36//36 35//35 
f 37//37 35//35 38//38 
f 39//39 37//37 38//38 
f 38//38 40//40 39//39 
f 38//38 41//41 40//40 
f 41//41 38//38 31//31 
f 29//29 41//41 31//31 
f 29//29 42//42 41//41 
f 42//42 29//29 27//27 
f 27//27 43//43 42//42 
f 27//27 24//24 43//43 
f 24//24 142//142 43//43 
f 142//142 44//44 43//43 
f 22//22 19//19 144//144 
f 19//19 2//2 144//144 
f 2//2 3//3 144//144 
f 43//43 44//44 135//135 
f 4//4 43//43 135//135 
f 43//43 4//4 6//6 
f 42//42 43//43 6//6 
f 42//42 6//6 40//40 
f 41//41 42//42 40//40 
f 40//40 6//6 7//7 
f 45//45 40//40 7//7 
f 46//46 45//45 7//7 
f 46//46 7//7 47//47 
f 48//48 46//46 47//47 
f 10//10 145//145 47//47 
f 8//8 10//10 47//47 
f 7//7 8//8 47//47 
f 138//138 49//49 146//146 
f 11//11 49//49 138//138 
f 11//11 50//50 148//148 
f 50//50 11//11 13//13 
f 51//51 50//50 13//13 
f 15//15 51//51 13//13 
f 15//15 52//52 51//51 
f 53//53 52//52 15//15 
f 54//54 53//53 15//15 
f 54//54 15//15 16//16 
f 55//55 54//54 16//16 
f 55//55 16//16 20//20 
f 21//21 55//55 20//20 
f 56//56 55//55 21//21 
f 56//56 21//21 57//57 
f 58//58 56//56 57//57 
f 58//58 57//57 59//59 
f 60//60 58//58 59//59 
f 61//61 60//60 59//59 
f 61//61 59//59 62//62 
f 62//62 63//63 61//61 
f 63//63 62//62 26//26 
f 64//64 63//63 26//26 
f 64//64 26//26 28//28 
f 65//65 64//64 28//28 
f 65//65 28//28 30//30 
f 66//66 65//65 30//30 
f 32//32 66//66 30//30 
f 32//32 67//67 66//66 
f 33//33 67//67 32//32 
f 33//33 68//68 67//67 
f 69//69 68//68 33//33 
f 70//70 69//69 33//33 
f 70//70 33//33 34//34 
f 71//71 70//70 34//34 
f 72//72 71//71 34//34 
f 36//36 72//72 34//34 
f 73//73 72//72 36//36 
f 73//73 36//36 74//74 
f 74//74 75//75 73//73 
f 75//75 74//74 76//76 
f 77//77 75//75 76//76 
f 78//78 77//77 76//76 
f 156//156 76//76 79//79 
f 80//80 156//156 79//79 
f 80//80 79//79 81//81 
f 82//82 80//80 81//81 
f 83//83 82//82 81//81 
f 83//83 81//81 84//84 
f 85//85 159//159 161//161 
f 86//86 164//164 162//162 
f 166//166 163//163 48//48 
f 149//149 167//167 147//147 
f 148//148 165//165 168//168 
f 148//148 87//87 165//165 
f 50//50 87//87 148//148 
f 87//87 50//50 88//88 
f 89//89 87//87 88//88 
f 89//89 88//88 90//90 
f 91//91 89//89 90//90 
f 92//92 91//91 90//90 
f 93//93 92//92 90//90 
f 52//52 93//93 90//90 
f 52//52 90//90 88//88 
f 51//51 52//52 88//88 
f 50//50 51//51 88//88 
f 53//53 93//93 52//52 
f 53//53 94//94 93//93 
f 95//95 94//94 53//53 
f 54//54 95//95 53//53 
f 96//96 95//95 54//54 
f 96//96 54//54 55//55 
f 56//56 96//96 55//55 
f 97//97 96//96 56//56 
f 98//98 97//97 56//56 
f 58//58 98//98 56//56 
f 150//150 98//98 58//58 
f 99//99 98//98 150//150 
f 100//100 99//99 150//150 
f 61//61 100//100 60//60 
f 101//101 100//100 61//61 
f 63//63 101//101 61//61 
f 63//63 102//102 101//101 
f 102//102 63//63 64//64 
f 103//103 102//102 64//64 
f 103//103 64//64 65//65 
f 103//103 65//65 66//66 
f 67//67 103//103 66//66 
f 104//104 103//103 67//67 
f 68//68 170//170 67//67 
f 105//105 170//170 68//68 
f 171//171 151//151 106//106 
f 107//107 171//171 106//106 
f 107//107 106//106 108//108 
f 109//109 107//107 108//108 
f 110//110 109//109 108//108 
f 110//110 108//108 111//111 
f 99//99 110//110 111//111 
f 112//112 99//99 111//111 
f 112//112 111//111 113//113 
f 114//114 112//112 113//113 
f 114//114 113//113 115//115 
f 116//116 114//114 115//115 
f 116//116 115//115 117//117 
f 94//94 116//116 117//117 
f 94//94 117//117 93//93 
f 93//93 117//117 92//92 
f 117//117 118//118 92//92 
f 117//117 115//115 118//118 
f 119//119 118//118 115//115 
f 120//120 119//119 115//115 
f 113//113 120//120 115//115 
f 120//120 113//113 121//121 
f 154//154 120//120 121//121 
f 154//154 121//121 152//152 
f 152//152 121//121 106//106 
f 151//151 153//153 106//106 
f 106//106 121//121 108//108 
f 121//121 113//113 108//108 
f 111//111 108//108 113//113 
f 71//71 120//120 154//154 
f 122//122 120//120 71//71 
f 72//72 122//122 71//71 
f 122//122 72//72 73//73 
f 123//123 122//122 73//73 
f 75//75 123//123 73//73 
f 124//124 123//123 75//75 
f 124//124 75//75 155//155 
f 155//155 125//125 124//124 
f 125//125 155//155 126//126 
f 125//125 126//126 158//158 
f 127//127 125//125 158//158 
f 127//127 158//158 160//160 
f 165//165 127//127 160//160 
f 165//165 87//87 127//127 
f 89//89 127//127 87//87 
f 89//89 125//125 127//127 
f 89//89 91//91 125//125 
f 91//91 124//124 125//125 
f 92//92 124//124 91//91 
f 92//92 118//118 124//124 
f 118//118 123//123 124//124 
f 118//118 122//122 123//123 
f 118//118 119//119 122//122 
f 122//122 119//119 120//120 
f 80//80 82//82 173//173 
f 173//173 78//78 80//80 
f 173//173 77//77 78//78 
f 95//95 116//116 94//94 
f 95//95 112//112 116//116 
f 112//112 95//95 97//97 
f 98//98 112//112 97//97 
f 99//99 112//112 98//98 
f 97//97 95//95 96//96 
f 112//112 114//114 116//116 
f 110//110 99//99 100//100 
f 110//110 100//100 172//172 
f 128//128 172//172 100//100 
f 101//101 128//128 100//100 
f 169//169 128//128 101//101 
f 129//129 128//128 169//169 
f 129//129 169//169 130//130 
f 129//129 130//130 170//170 
f 129//129 170//170 105//105 
f 171//171 107//107 174//174 
f 174//174 107//107 131//131 
f 176//176 128//128 129//129 
f 128//128 176//176 172//172 
f 107//107 109//109 131//131 
f 104//104 175//175 103//103 
f 102//102 103//103 175//175 
f 163//163 157//157 48//48 
f 48//48 157//157 46//46 
f 157//157 79//79 46//46 
f 39//39 46//46 79//79 
f 79//79 132//132 39//39 
f 76//76 132//132 79//79 
f 76//76 74//74 132//132 
f 74//74 37//37 132//132 
f 74//74 36//36 37//37 
f 132//132 37//37 39//39 
f 39//39 45//45 46//46 
f 39//39 40//40 45//45 
f 26//26 62//62 25//25 
f 25//25 62//62 59//59 
f 59//59 57//57 25//25 
f 25//25 57//57 23//23 
f 57//57 21//21 23//23 
f 35//35 31//31 38//38 
