v 14.2114 -48.1552 1097.96
v 10.555 -49.1917 1092.92
v 14.9137 -51.4975 1093.37
v 13.0442 -45.3076 1097.83
v 10.775 -48.5963 1095.16
v 16.0842 -47.1375 1089.84
v 15.7621 -45.5862 1092.95
v 14.3564 -51.4692 1094.73
v 10.3426 -45.896 1094.63
v 12.3541 -44.9845 1090.59
v 16.6449 -46.7868 1095.79
v 16.0761 -47.3555 1094.08
v 13.4847 -44.8888 1091.25
v 11.8139 -48.3773 1097.49
v 10.158 -47.373 1091.26
v 12.3514 -49.1919 1097.2
v 10.2477 -47.0155 1090.31
v 13.2098 -51.9792 1095.11
v 12.3585 -46.5836 1098.74
v 15.7253 -45.8584 1091.72
v 10.0698 -48.5722 1091.25
v 13.5431 -53.0661 1094.38
v 11.3345 -51.1821 1092.6
v 15.5265 -45.4318 1093.99
v 13.5259 -45.789 1099.02
v 15.2368 -48.2844 1096.28
v 12.8756 -52.3024 1094.67
v 15.4945 -48.9885 1093.24
v 14.4548 -46.354 1099.22
v 16.8111 -46.2734 1095.36
v 16.177 -46.6152 1092.85
v 13.8255 -46.3912 1099.23
v 11.1317 -45.1022 1094.98
v 16.6047 -46.3262 1094.22
v 16.2192 -46.046 1097.19
v 15.8635 -47.5237 1092.94
v 12.2097 -45.2813 1089.16
v 11.6162 -45.2534 1090.68
v 13.3428 -44.9487 1088.83
v 10.677 -46.0408 1096.73
v 11.4671 -46.0745 1098.06
v 11.306 -47.1609 1097.49
v 13.8258 -51.9648 1094.99
v 13.3994 -50.3097 1096.5
v 16.1149 -46.0786 1092.76
v 12.7597 -47.7646 1098.45
v 11.2634 -45.5056 1097.36
v 12.894 -49.4406 1097.31
v 10.2562 -46.2005 1092.51
v 15.9287 -45.7517 1089.13
v 11.5891 -51.1022 1093.9
v 14.1119 -50.7735 1092.04
v 13.109 -46.3401 1099.09
v 12.1336 -50.1778 1096.02
v 15.8797 -46.3748 1098
v 10.5765 -45.731 1092.39
v 12.8378 -50.6551 1096.18
v 14.7647 -45.0079 1088.73
v 14.3648 -53.7422 1093.89
v 13.4044 -44.9286 1093.34
v 15.8399 -45.599 1095.48
v 15.5788 -47.4924 1097.21
v 10.3662 -46.7953 1094.94
v 14.6913 -52.1506 1093.78
v 15.0147 -47.393 1098.17
v 13.121 -45.5211 1098.68
v 15.533 -49.0594 1090.95
v 12.3272 -48.043 1098.12
v 12.4357 -52.1469 1094.35
v 14.9475 -53.0789 1093.35
v 16.3379 -45.8623 1095.96
v 16.303 -46.8199 1096.98
v 10.3661 -46.4319 1090.85
v 15.0961 -46.4094 1098.88
v 10.978 -45.6484 1091.19
v 11.8446 -45.1102 1096.42
v 15.7151 -46.7385 1098.16
v 13.3999 -53.6735 1093.92
v 12.1649 -44.949 1094.47
v 14.7085 -51.06 1094.43
v 13.5856 -46.8979 1098.99
v 10.5665 -45.4943 1094.74
v 16.3234 -45.824 1094.32
v 14.7668 -45.1119 1090.19
v 10.6539 -47.1728 1096.32
v 14.5859 -45.5054 1097.11
v 15.6143 -45.7477 1097.24
v 15.9153 -47.248 1090.62
v 14.9032 -49.6802 1095.03
v 10.2961 -47.9507 1093.46
v 15.7919 -45.849 1090.28
v 11.1983 -49.5275 1095.1
v 14.0946 -45.6783 1098.63
v 15.8946 -46.3607 1091.51
v 12.4934 -45.8626 1098.79
v 11.3387 -48.4833 1096.57
v 12.0507 -45.3809 1097.9
v 10.8535 -46.3981 1097.22
v 13.8077 -52.9379 1093.38
v 15.3573 -45.381 1089.96
v 14.2226 -53.1725 1094.2
v 16.5374 -46.3738 1096.71
v 14.5166 -49.9354 1095.79
v 14.4455 -52.5277 1094.18
v 10.6351 -45.5896 1096.41
v 13.8848 -50.4179 1096.23
v 11.9691 -47.3937 1098.2
v 15.2142 -45.9578 1098.3
v 15.9436 -46.2789 1090.14
v 15.6066 -48.4346 1091.99
v 14.7725 -46.8556 1098.84
v 10.1777 -46.8176 1093
v 13.4977 -46.4221 1089.67
v 15.0885 -51.1287 1092.12
v 11.0795 -45.3302 1096.45
v 15.9197 -46.9591 1091.66
v 14.5327 -48.8385 1097.05
v 12.6232 -53.1169 1093.61
v 15.0845 -50.2387 1093.39
v 16.0066 -47.4785 1096.1
v 12.9283 -45.1808 1096.18
v 11.4806 -44.933 1093.47
v 15.0462 -45.3361 1092.25
v 11.1551 -45.0472 1092.89
v 10.9225 -46.1617 1089.76
v 15.4294 -48.5831 1094.87
v 14.2181 -45.1334 1094.02
v 13.4882 -47.9413 1098.34
v 16.3945 -47.1565 1095.04
v 16.0842 -47.1375 1089.84
v 10.2477 -47.0155 1090.31
v 10.0698 -48.5722 1091.25
v 11.3345 -51.1821 1092.6
v 13.5259 -45.789 1099.02
v 14.4548 -46.354 1099.22
v 16.8111 -46.2734 1095.36
v 13.8255 -46.3912 1099.23
v 13.8255 -46.3912 1099.23
v 12.2097 -45.2813 1089.16
v 13.3428 -44.9487 1088.83
v 11.2634 -45.5056 1097.36
v 15.9287 -45.7517 1089.13
v 14.7647 -45.0079 1088.73
v 14.3648 -53.7422 1093.89
v 14.3648 -53.7422 1093.89
v 15.533 -49.0594 1090.95
v 14.9475 -53.0789 1093.35
v 15.0961 -46.4094 1098.88
v 13.3999 -53.6735 1093.92
v 14.2226 -53.1725 1094.2
v 10.6351 -45.5896 1096.41
v 15.0885 -51.1287 1092.12
v 12.6232 -53.1169 1093.61
v 10.9225 -46.1617 1089.76
vn 0.337345 -0.599177 0.726075
vn -0.918999 -0.35164 0.178296
vn 0.963818 -0.112195 0.241802
vn 0.0656111 0.985744 0.154933
vn -0.903473 -0.341449 0.259132
vn 0.987277 0.0180983 0.157979
vn 0.584725 0.800255 -0.132995
vn 0.773255 -0.347973 0.530087
vn -0.965211 0.254802 0.0586882
vn -0.238732 0.965568 -0.103375
vn 0.887763 -0.443277 0.12403
vn 0.908185 -0.402545 -0.114708
vn 0.0515145 0.998664 0.0040613
vn -0.666163 -0.458846 0.587952
vn -0.995612 0.092813 -0.0119157
vn -0.431897 -0.589708 0.682429
vn -0.0782865 -0.500464 -0.862211
vn -0.0412598 -0.608301 0.792634
vn -0.450208 -0.196842 0.870957
vn 0.774213 0.628008 -0.0787408
vn -0.988242 -0.129931 0.0805905
vn -0.0721371 -0.552451 0.830418
vn -0.894304 -0.412018 0.174532
vn 0.316016 0.948651 0.0139489
vn -0.125806 0.541286 0.831374
vn 0.796857 -0.538115 0.274683
vn -0.456428 -0.586846 0.668794
vn 0.963023 -0.265193 0.0475245
vn 0.246904 0.697075 0.673145
vn 0.776264 0.630285 0.0124738
vn 0.967233 -0.16594 -0.192156
vn 0.2143 0.583302 0.783476
vn -0.345099 0.935755 0.0725858
vn 0.974305 -0.0292294 -0.223327
vn 0.675504 0.652962 0.342543
vn 0.955447 -0.281301 -0.0893924
vn -0.092423 -0.487486 -0.868225
vn -0.527985 0.824099 -0.205165
vn -0.0932534 -0.498351 -0.861946
vn -0.934406 0.115738 0.336882
vn -0.72556 0.162535 0.668689
vn -0.788088 -0.29378 0.540935
vn 0.462632 -0.479441 0.745727
vn 0.157445 -0.630651 0.759928
vn 0.891951 0.392481 -0.224458
vn -0.248215 -0.4752 0.844141
vn -0.728815 0.402104 0.554204
vn -0.132994 -0.618236 0.774659
vn -0.948625 0.311567 -0.0551051
vn 0.841519 0.532916 0.0885777
vn -0.854006 -0.439071 0.279087
vn -0.0974904 -0.498128 -0.861605
vn -0.277751 -0.0392128 0.959852
vn -0.650047 -0.546813 0.527669
vn 0.81896 0.16555 0.549452
vn -0.784893 0.609046 -0.114045
vn -0.315883 -0.640604 0.699889
vn -0.0634944 -0.509943 -0.857861
vn 0.760919 -0.14666 0.632055
vn 0.15689 0.986314 0.0506968
vn 0.331881 0.940912 0.0673736
vn 0.697111 -0.629011 0.344067
vn -0.988841 -0.0456223 0.141818
vn 0.887494 -0.124953 0.443555
vn 0.542235 -0.617708 0.569577
vn -0.00580597 0.905009 0.425353
vn -0.10232 -0.473824 -0.874655
vn -0.419686 -0.491827 0.762869
vn -0.700523 -0.518965 0.489839
vn 0.866918 -0.0748875 0.492793
vn 0.604334 0.787919 0.11817
vn 0.825916 -0.448288 0.341908
vn -0.871225 0.462934 -0.163275
vn 0.499988 0.628741 0.595564
vn -0.682106 0.701921 -0.20503
vn -0.126904 0.979944 0.153637
vn 0.695873 -0.441012 0.566806
vn -0.069583 -0.565099 -0.822083
vn 0.0135149 0.997122 0.0746003
vn 0.885223 -0.282152 0.369824
vn -0.0239192 -0.474049 0.880174
vn -0.710454 0.703419 0.021359
vn 0.657724 0.748591 -0.0837352
vn 0.33149 0.94141 0.0621394
vn -0.924665 -0.225789 0.306616
vn 0.197637 0.969779 0.143064
vn 0.334506 0.920612 0.201441
vn 0.989287 -0.103007 0.103446
vn 0.911429 -0.322809 0.255131
vn -0.980966 -0.144405 0.129818
vn 0.873828 0.478718 0.085165
vn -0.828721 -0.446885 0.33692
vn 0.245913 0.815565 0.523813
vn 0.977164 0.193939 -0.0868271
vn -0.411471 0.418686 0.809564
vn -0.808676 -0.409822 0.422007
vn -0.257789 0.887776 0.381312
vn -0.869396 -0.0920568 0.485464
vn -0.0828317 -0.54877 -0.83186
vn 0.579434 0.812881 0.0589965
vn 0.73779 -0.203345 0.643674
vn 0.944483 0.120359 0.305722
vn 0.803683 -0.429403 0.411956
vn 0.780252 -0.18835 0.596431
vn -0.928479 0.271089 0.253846
vn 0.557845 -0.548372 0.622974
vn -0.606113 -0.304877 0.734627
vn 0.425238 0.782348 0.455087
vn 0.985855 0.143607 0.0864151
vn 0.979133 -0.203032 0.00871776
vn 0.368605 -0.538945 0.757409
vn -0.998707 0.0210998 0.0462433
vn -0.080538 -0.492701 -0.866464
vn -0.111478 -0.498295 -0.859811
vn -0.433481 0.886289 0.163055
vn 0.991135 -0.124347 -0.0467826
vn 0.669248 -0.571908 0.474372
vn -0.0869824 -0.529776 -0.843665
vn 0.954688 -0.250617 0.160505
vn 0.750188 -0.631553 0.195854
vn 0.0868807 0.991222 0.0996574
vn -0.155485 0.987833 0.00329548
vn 0.367354 0.930063 -0.00578358
vn -0.462796 0.881754 -0.0912656
vn -0.0800156 -0.484193 -0.871295
vn 0.873621 -0.469338 0.128488
vn 0.175998 0.981827 0.070995
vn 0.134349 -0.569273 0.811097
vn 0.862892 -0.50021 -0.0721616
vn -0.0824932 -0.474479 -0.876393
vn -0.958081 0.253403 -0.13367
vn -0.0826618 -0.500764 -0.861628
vn -0.0965011 -0.497112 -0.862303
vn 0.433778 0.481746 0.761418
vn 0.198554 -0.467486 0.861413
vn 0.948913 -0.314473 -0.0258837
vn -0.181432 0.242579 0.953015
vn -0.0828534 -0.406071 0.910078
vn -0.43945 0.876964 -0.194469
vn -0.119674 0.990297 -0.0706394
vn -0.354752 0.904435 0.236955
vn -0.0573817 -0.493213 -0.868014
vn 0.316729 0.948167 0.0257191
vn -0.0801899 -0.574753 -0.814388
vn 0.0761525 -0.519174 0.851269
vn 0.981186 -0.179931 0.0699917
vn -0.102634 -0.539929 -0.83543
vn 0.585939 -0.303205 0.751494
vn -0.394833 -0.580603 0.712044
vn 0.163961 -0.484996 0.859009
vn -0.508329 0.845024 0.165941
vn 0.98158 -0.150656 0.117492
vn -0.768212 -0.502395 0.396798
vn -0.713159 0.65253 -0.256142
g grp1
usemtl mtl1
f 118//118 99//99 78//78 
f 149//149 69//69 153//153 
f 69//69 51//51 153//153 
f 23//23 153//153 51//51 
f 51//51 2//2 23//23 
f 21//21 23//23 2//2 
f 90//90 21//21 2//2 
f 90//90 2//2 5//5 
f 5//5 85//85 90//90 
f 63//63 90//90 85//85 
f 63//63 85//85 40//40 
f 9//9 63//63 40//40 
f 105//105 9//9 40//40 
f 47//47 105//105 40//40 
f 47//47 40//40 41//41 
f 97//97 47//47 41//41 
f 97//97 41//41 95//95 
f 66//66 97//97 95//95 
f 66//66 95//95 25//25 
f 93//93 66//66 25//25 
f 93//93 134//134 32//32 
f 93//93 32//32 29//29 
f 108//108 93//93 29//29 
f 108//108 29//29 74//74 
f 108//108 74//74 55//55 
f 35//35 108//108 55//55 
f 35//35 55//55 102//102 
f 71//71 35//35 102//102 
f 71//71 102//102 30//30 
f 83//83 71//71 30//30 
f 83//83 30//30 34//34 
f 45//45 83//83 34//34 
f 45//45 34//34 31//31 
f 94//94 45//45 31//31 
f 94//94 31//31 116//116 
f 109//109 94//94 116//116 
f 109//109 116//116 88//88 
f 109//109 88//88 6//6 
f 50//50 109//109 6//6 
f 142//142 130//130 113//113 
f 58//58 142//142 113//113 
f 39//39 58//58 113//113 
f 37//37 39//39 113//113 
f 125//125 37//37 113//113 
f 17//17 125//125 113//113 
f 17//17 113//113 132//132 
f 131//131 21//21 15//15 
f 131//131 15//15 73//73 
f 131//131 73//73 154//154 
f 75//75 154//154 73//73 
f 75//75 73//73 56//56 
f 124//124 75//75 56//56 
f 56//56 82//82 124//124 
f 82//82 33//33 124//124 
f 122//122 124//124 33//33 
f 79//79 122//122 33//33 
f 79//79 33//33 76//76 
f 121//121 79//79 76//76 
f 121//121 76//76 97//97 
f 121//121 97//97 4//4 
f 86//86 121//121 4//4 
f 4//4 66//66 86//86 
f 93//93 86//86 66//66 
f 86//86 93//93 108//108 
f 87//87 86//86 108//108 
f 35//35 87//87 108//108 
f 71//71 87//87 35//35 
f 71//71 61//61 87//87 
f 86//86 87//87 61//61 
f 61//61 24//24 86//86 
f 24//24 127//127 86//86 
f 86//86 127//127 121//121 
f 127//127 79//79 121//121 
f 127//127 60//60 79//79 
f 60//60 13//13 79//79 
f 13//13 122//122 79//79 
f 13//13 124//124 122//122 
f 10//10 124//124 13//13 
f 140//140 10//10 13//13 
f 143//143 140//140 13//13 
f 84//84 143//143 13//13 
f 13//13 123//123 84//84 
f 100//100 84//84 123//123 
f 100//100 123//123 20//20 
f 100//100 20//20 91//91 
f 50//50 100//100 91//91 
f 50//50 91//91 109//109 
f 91//91 94//94 109//109 
f 91//91 20//20 94//94 
f 20//20 45//45 94//94 
f 7//7 45//45 20//20 
f 7//7 20//20 123//123 
f 7//7 123//123 24//24 
f 83//83 7//7 24//24 
f 83//83 24//24 61//61 
f 83//83 61//61 71//71 
f 83//83 45//45 7//7 
f 123//123 127//127 24//24 
f 123//123 60//60 127//127 
f 13//13 60//60 123//123 
f 50//50 143//143 100//100 
f 143//143 84//84 100//100 
f 140//140 139//139 10//10 
f 139//139 38//38 10//10 
f 10//10 38//38 124//124 
f 38//38 75//75 124//124 
f 38//38 154//154 75//75 
f 139//139 154//154 38//38 
f 66//66 4//4 97//97 
f 76//76 141//141 97//97 
f 76//76 115//115 141//141 
f 141//141 115//115 151//151 
f 151//151 115//115 82//82 
f 105//105 82//82 9//9 
f 56//56 9//9 82//82 
f 56//56 49//49 9//9 
f 49//49 112//112 9//9 
f 9//9 112//112 63//63 
f 112//112 90//90 63//63 
f 15//15 90//90 112//112 
f 49//49 15//15 112//112 
f 73//73 15//15 49//49 
f 56//56 73//73 49//49 
f 90//90 15//15 21//21 
f 33//33 82//82 115//115 
f 76//76 33//33 115//115 
f 133//133 132//132 113//113 
f 52//52 133//133 113//113 
f 130//130 52//52 113//113 
f 130//130 67//67 52//52 
f 114//114 52//52 67//67 
f 146//146 28//28 152//152 
f 152//152 28//28 119//119 
f 152//152 119//119 3//3 
f 70//70 152//152 3//3 
f 64//64 70//70 3//3 
f 64//64 3//3 80//80 
f 64//64 80//80 8//8 
f 64//64 8//8 104//104 
f 64//64 104//104 70//70 
f 104//104 101//101 70//70 
f 101//101 59//59 70//70 
f 147//147 144//144 99//99 
f 99//99 52//52 147//147 
f 147//147 52//52 114//114 
f 118//118 52//52 99//99 
f 133//133 52//52 118//118 
f 78//78 99//99 144//144 
f 22//22 149//149 145//145 
f 150//150 22//22 145//145 
f 150//150 18//18 22//22 
f 18//18 27//27 22//22 
f 22//22 27//27 149//149 
f 149//149 27//27 69//69 
f 27//27 54//54 69//69 
f 54//54 92//92 69//69 
f 92//92 51//51 69//69 
f 92//92 2//2 51//51 
f 5//5 2//2 92//92 
f 96//96 5//5 92//92 
f 96//96 92//92 54//54 
f 14//14 96//96 54//54 
f 14//14 54//54 16//16 
f 68//68 14//14 16//16 
f 46//46 68//68 16//16 
f 46//46 16//16 48//48 
f 128//128 46//46 48//48 
f 128//128 48//48 44//44 
f 1//1 128//128 44//44 
f 1//1 44//44 106//106 
f 117//117 1//1 106//106 
f 103//103 117//117 106//106 
f 8//8 103//103 106//106 
f 43//43 8//8 106//106 
f 43//43 106//106 44//44 
f 43//43 44//44 18//18 
f 43//43 18//18 150//150 
f 104//104 43//43 101//101 
f 104//104 8//8 43//43 
f 44//44 57//57 18//18 
f 57//57 27//27 18//18 
f 57//57 54//54 27//27 
f 16//16 54//54 57//57 
f 48//48 16//16 57//57 
f 44//44 48//48 57//57 
f 103//103 8//8 80//80 
f 103//103 80//80 89//89 
f 89//89 26//26 103//103 
f 26//26 117//117 103//103 
f 26//26 62//62 117//117 
f 117//117 62//62 65//65 
f 117//117 65//65 1//1 
f 65//65 111//111 1//1 
f 1//1 111//111 81//81 
f 1//1 81//81 128//128 
f 128//128 81//81 46//46 
f 46//46 81//81 19//19 
f 46//46 19//19 107//107 
f 46//46 107//107 68//68 
f 107//107 14//14 68//68 
f 107//107 42//42 14//14 
f 42//42 96//96 14//14 
f 85//85 96//96 42//42 
f 98//98 85//85 42//42 
f 98//98 42//42 41//41 
f 40//40 98//98 41//41 
f 98//98 40//40 85//85 
f 41//41 42//42 107//107 
f 41//41 107//107 19//19 
f 95//95 41//41 19//19 
f 95//95 19//19 53//53 
f 25//25 95//95 53//53 
f 25//25 53//53 137//137 
f 138//138 53//53 81//81 
f 135//135 138//138 81//81 
f 135//135 81//81 111//111 
f 148//148 135//135 111//111 
f 148//148 111//111 77//77 
f 148//148 77//77 55//55 
f 55//55 77//77 72//72 
f 102//102 55//55 72//72 
f 102//102 72//72 11//11 
f 136//136 102//102 11//11 
f 136//136 11//11 129//129 
f 34//34 136//136 129//129 
f 34//34 129//129 12//12 
f 31//31 34//34 12//12 
f 31//31 12//12 36//36 
f 116//116 31//31 36//36 
f 116//116 36//36 110//110 
f 88//88 116//116 110//110 
f 146//146 88//88 110//110 
f 110//110 28//28 146//146 
f 36//36 28//28 110//110 
f 36//36 12//12 28//28 
f 12//12 126//126 28//28 
f 28//28 126//126 119//119 
f 119//119 126//126 89//89 
f 119//119 89//89 3//3 
f 89//89 80//80 3//3 
f 126//126 26//26 89//89 
f 120//120 26//26 126//126 
f 120//120 126//126 129//129 
f 129//129 11//11 120//120 
f 120//120 11//11 72//72 
f 120//120 72//72 62//62 
f 120//120 62//62 26//26 
f 62//62 72//72 77//77 
f 62//62 77//77 65//65 
f 65//65 77//77 111//111 
f 12//12 129//129 126//126 
f 6//6 88//88 146//146 
f 53//53 19//19 81//81 
f 85//85 5//5 96//96 
