v -7.87326 -53.4629 1061.37
v -8.74649 -53.3046 1062.61
v -8.33507 -52.1507 1061.18
v -7.20544 -52.3504 1059.48
v -7.78072 -50.9578 1059.6
v -10.3551 -50.591 1063.35
v -9.95065 -52.972 1064.08
v -10.8447 -51.8288 1064.7
v -10.2331 -53.4803 1064.66
v -9.52887 -54.2408 1064.16
v -9.96055 -54.2627 1063.37
v -9.45487 -54.5548 1062.99
v -10.0749 -54.678 1062.15
v -9.36275 -54.7358 1062.3
v -9.87152 -55.0636 1061.3
v -9.18783 -54.7859 1061.65
v -9.86582 -55.3975 1060.04
v -9.39448 -55.0723 1060.35
v -9.35588 -55.1584 1059.3
v -9.85884 -55.6263 1059.02
v -10.0132 -55.9824 1058.49
v -10.3398 -55.6794 1058.75
v -10.3539 -56.0442 1057.42
v -9.89495 -56.208 1057.71
v -9.93293 -56.1035 1056.74
v -10.4426 -55.899 1056.23
v -9.97456 -55.596 1056.05
v -10.4113 -55.6579 1055.4
v -10.2991 -54.642 1054.83
v -10.461 -55.2201 1054.96
v -10.9647 -54.958 1054.41
v -10.8679 -54.4028 1053.86
v -10.9152 -53.509 1053.44
v -9.85909 -52.9254 1054.58
v -10.0574 -52.2207 1054.19
v -8.57592 -50.9865 1055.57
v -9.86755 -50.954 1054.34
v -9.08563 -50.0549 1054.99
v -9.76662 -50.041 1054.56
v -9.05949 -48.8665 1055.25
v -8.57309 -49.5674 1055.34
v -8.17439 -48.5999 1055.68
v -8.30942 -47.7104 1055.91
v -7.5381 -47.6639 1056.09
v -7.96518 -46.7247 1056.3
v -7.21162 -47.0506 1056.29
v -7.682 -46.1876 1056.55
v -8.9343 -46.339 1056.6
v -8.46925 -45.2831 1057.49
v -8.93618 -45.4751 1057.45
v -9.70462 -45.1064 1058.54
v -9.26118 -44.7947 1058.63
v -8.9946 -45.5265 1058.51
v -9.98823 -45.8682 1060.28
v -8.00896 -46.9703 1057.64
v -9.48581 -48.2494 1060.84
v -10.8547 -46.3156 1061.95
v -10.6544 -45.3272 1060.9
v -11.2325 -46.5031 1061.55
v -11.3355 -45.8426 1060.4
v -12.0186 -46.433 1060.54
v -11.7219 -47.0713 1061.74
v -12.4247 -46.9726 1060.72
v -11.8844 -47.7919 1062.24
v -11.1444 -47.5398 1063.04
v -11.3224 -48.7863 1063.84
v -11.8383 -48.627 1062.88
v -12.345 -47.8997 1061.41
v -12.7724 -47.3818 1060.02
v -12.7791 -46.4223 1059.6
v -13.218 -46.2496 1058.15
v -13.1824 -47.1815 1058.55
v -12.3598 -48.9576 1061
v -13.028 -48.4366 1058.05
v -13.3624 -47.1138 1057.49
v -13.4435 -46.3739 1057.45
v -13.3762 -46.8092 1056.87
v -13.2661 -47.9186 1056.47
v -13.1591 -47.6861 1055.67
v -13.0899 -49.1291 1055.37
v -12.8686 -48.7084 1054.72
v -12.9333 -49.7084 1054.49
v -12.5883 -50.1397 1053.88
v -12.4513 -48.9413 1054.32
v -12.8499 -47.4405 1055.29
v -12.398 -47.263 1055.25
v -12.9132 -46.5824 1055.96
v -12.2668 -46.2764 1056.22
v -12.8459 -46.0002 1056.74
v -12.3407 -45.7834 1057.2
v -12.9522 -45.8783 1057.5
v -13.2701 -46.2962 1056.79
v -12.788 -46.0222 1058.62
v -12.152 -46.0656 1059.7
v -11.2479 -45.6319 1059.37
v -10.7553 -45.3437 1060.23
v -10.1198 -44.8176 1059.85
v -10.4014 -45.1336 1059.42
v -10.6191 -45.3049 1058.74
v -11.5037 -45.6281 1058.19
v -12.0759 -45.7859 1058.78
v -12.508 -45.7219 1057.96
v -11.0004 -45.9657 1057.06
v -10.7376 -45.641 1057.85
v -9.94371 -45.6875 1057.42
v -10.231 -46.7138 1056.27
v -9.89471 -47.2351 1055.77
v -11.3449 -46.4877 1056.22
v -11.4048 -47.4457 1055.29
v -9.88701 -47.9783 1055.25
v -8.81121 -47.2294 1055.95
v -10.5454 -49.5961 1054.29
v -11.0293 -51.1947 1053.51
v -10.8626 -52.1599 1053.42
v -11.3916 -52.5559 1053.04
v -11.8643 -51.8031 1053.03
v -11.8635 -50.6776 1053.45
v -10.9666 -48.9909 1054.45
v -11.9091 -48.7997 1054.38
v -12.341 -51.628 1053.31
v -12.0496 -52.659 1053.05
v -11.5172 -53.4612 1053.09
v -11.4461 -54.192 1053.79
v -11.3262 -54.7637 1054.64
v -10.9102 -55.4089 1055.33
v -10.8147 -55.632 1056.51
v -10.8507 -55.3563 1057.44
v -10.791 -54.885 1059.24
v -10.319 -55.211 1060.16
v -10.436 -54.655 1061.26
v -10.5631 -53.8449 1062.46
v -10.7991 -52.9889 1062.96
v -11.4238 -50.7438 1063.41
v -11.4078 -50.1225 1064.5
v -11.6947 -49.4966 1063.51
v -6.7263 -49.2138 1056.92
v -6.92168 -47.7366 1056.28
v -7.27492 -48.4874 1056.17
v -7.28181 -49.4046 1056.41
v -7.52333 -50.9367 1056.61
v -7.94914 -49.1875 1055.77
v -8.54293 -52.2078 1056.16
v -7.44146 -51.4743 1057.08
v -7.81157 -52.2342 1057.53
v -6.55342 -50.9943 1057.79
v -7.94624 -53.1391 1059.49
v -8.34329 -53.0667 1058.13
v -8.68928 -53.9726 1059.36
v -8.71308 -54.338 1061.04
v -8.45124 -54.2095 1062.78
v -9.0133 -54.4054 1063.61
v -9.15585 -54.8408 1058.84
v -8.85373 -53.9995 1058.24
v -9.45615 -55.3929 1057.69
v -9.63053 -55.4987 1056.72
v -9.21395 -53.956 1056.27
v -9.69351 -53.666 1055.16
v -8.55035 -52.9869 1057.02
v -9.08045 -54.307 1057.02
v -12.1895 -48.8075 1062
v -11.6749 -51.6516 1060.37
v -12.5961 -50.3807 1057.61
v -11.6412 -53.3769 1057.61
v -12.5548 -51.5015 1056.11
v -12.2848 -52.5161 1054.63
v -11.3782 -54.6274 1055.6
v -11.7427 -53.8594 1054.23
v -11.9139 -53.2673 1053.54
v -12.2605 -52.4667 1053.46
v -12.575 -51.612 1053.85
v -12.7519 -50.695 1054.09
v -12.7545 -51.1236 1054.99
v -12.9737 -50.1436 1055.2
v -13.0059 -49.5934 1056.35
v -7.87326 -53.4629 1061.37
v -7.20544 -52.3504 1059.48
v -10.8447 -51.8288 1064.7
v -10.2331 -53.4803 1064.66
v -9.52887 -54.2408 1064.16
v -9.86582 -55.3975 1060.04
v -9.85884 -55.6263 1059.02
v -10.0132 -55.9824 1058.49
v -9.89495 -56.208 1057.71
v -9.93293 -56.1035 1056.74
v -9.93293 -56.1035 1056.74
v -10.4426 -55.899 1056.23
v -9.97456 -55.596 1056.05
v -10.4113 -55.6579 1055.4
v -10.4113 -55.6579 1055.4
v -10.461 -55.2201 1054.96
v -10.9647 -54.958 1054.41
v -10.9647 -54.958 1054.41
v -10.9647 -54.958 1054.41
v -10.8679 -54.4028 1053.86
v -10.9152 -53.509 1053.44
v -7.21162 -47.0506 1056.29
v -7.682 -46.1876 1056.55
v -8.46925 -45.2831 1057.49
v -9.26118 -44.7947 1058.63
v -10.8547 -46.3156 1061.95
v -10.6544 -45.3272 1060.9
v -11.1444 -47.5398 1063.04
v -11.3224 -48.7863 1063.84
v -12.7791 -46.4223 1059.6
v -13.218 -46.2496 1058.15
v -13.4435 -46.3739 1057.45
v -10.1198 -44.8176 1059.85
v -12.341 -51.628 1053.31
v -12.0496 -52.659 1053.05
v -11.5172 -53.4612 1053.09
v -11.5172 -53.4612 1053.09
v -11.4461 -54.192 1053.79
v -11.4078 -50.1225 1064.5
v -11.4078 -50.1225 1064.5
v -6.7263 -49.2138 1056.92
v -6.92168 -47.7366 1056.28
v -6.55342 -50.9943 1057.79
v -8.45124 -54.2095 1062.78
v -9.0133 -54.4054 1063.61
vn 0.791465 0.349698 0.501294
vn 0.774711 0.334828 0.53639
vn 0.799198 0.327576 0.503961
vn 0.804164 0.30671 0.509165
vn 0.802532 0.294743 0.518719
vn 0.783498 0.296535 0.546075
vn 0.758132 0.293049 0.582545
vn 0.763535 0.295116 0.574388
vn 0.74748 0.274045 0.605123
vn 0.740122 0.284033 0.609545
vn -0.567193 -0.773687 0.282312
vn -0.0177298 -0.972733 0.231248
vn -0.489257 -0.815437 0.309338
vn 0.166142 -0.952438 0.255457
vn -0.0740165 -0.958615 0.274916
vn 0.489052 -0.864403 0.116773
vn 0.484799 -0.860475 0.15669
vn 0.615763 -0.783815 0.08044
vn 0.73421 -0.66897 0.115822
vn 0.566791 -0.776313 0.275836
vn 0.542683 -0.768017 0.340066
vn -0.538115 -0.792096 0.288124
vn -0.561096 -0.824604 0.072108
vn -0.36342 -0.930328 0.0491567
vn -0.285011 -0.95395 -0.0935273
vn -0.487856 -0.863224 -0.129776
vn 0.373832 -0.830016 -0.413912
vn 0.463016 -0.855871 -0.230437
vn 0.772113 -0.345781 -0.533177
vn 0.742636 -0.333924 -0.580505
vn 0.622319 -0.475307 -0.621934
vn 0.736234 -0.417897 -0.532279
vn 0.701325 -0.13651 -0.699649
vn 0.774018 -0.22595 -0.591475
vn 0.715307 -0.0716262 -0.69513
vn 0.692707 -0.156881 -0.70395
vn 0.622865 0.0544796 -0.78043
vn 0.568253 0.0602831 -0.820643
vn 0.501642 0.194712 -0.842878
vn 0.390322 0.260327 -0.883107
vn 0.528558 0.0347556 -0.848185
vn 0.409499 0.153885 -0.899239
vn 0.246043 0.29946 -0.921839
vn 0.267997 0.174603 -0.947466
vn 0.0938528 0.381787 -0.919473
vn 0.186167 0.253762 -0.949182
vn -0.0182746 0.506616 -0.861978
vn -0.0526247 0.660689 -0.748813
vn -0.253978 0.732732 -0.631347
vn -0.205185 0.783301 -0.586804
vn -0.315344 0.867053 -0.385718
vn -0.445438 0.768271 -0.459722
vn 0.831633 0.242644 0.499511
vn 0.802359 0.296823 0.5178
vn 0.825344 0.293857 0.482137
vn 0.810883 0.277096 0.515448
vn 0.800604 0.314007 0.510326
vn 0.773755 0.350571 0.527639
vn -0.640307 0.624911 0.446647
vn -0.587646 0.762327 0.271164
vn -0.561336 0.688631 0.459008
vn -0.632101 0.593204 0.498556
vn -0.791472 0.404382 0.458308
vn -0.778564 0.391736 0.490286
vn -0.684153 0.540905 0.489241
vn -0.815563 0.315292 0.48523
vn -0.880338 0.203375 0.428537
vn -0.909179 0.167438 0.38126
vn -0.954414 0.0495468 0.294346
vn -0.932704 0.138139 0.333137
vn -0.951956 0.0986078 0.289926
vn -0.972691 -0.0660339 0.222511
vn -0.958688 -0.207925 0.194125
vn -0.964578 -0.218736 0.147458
vn -0.987871 -0.139673 0.0678428
vn -0.998777 0.0111346 0.0481803
vn -0.989371 0.0137456 -0.14476
vn -0.993157 -0.115055 -0.0200309
vn -0.92996 0.140481 -0.339762
vn -0.990589 -0.0419302 -0.13029
vn -0.802418 0.219283 -0.555013
vn -0.944464 0.0279672 -0.327421
vn -0.636575 0.228648 -0.736541
vn -0.282491 0.419586 -0.862639
vn -0.575767 0.40982 -0.707488
vn -0.0607105 0.584814 -0.808892
vn -0.484943 0.611852 -0.624874
vn 0.0577087 0.792073 -0.607692
vn -0.31014 0.864315 -0.395946
vn -0.0546966 0.963735 -0.261196
vn -0.511619 0.858897 -0.0232731
vn -0.790613 0.556051 -0.256394
vn -0.503195 0.826934 0.250948
vn -0.442446 0.844369 0.302129
vn -0.430823 0.898398 0.0852746
vn -0.614238 0.788532 0.0304787
vn -0.565956 0.805521 -0.175584
vn -0.482688 0.865948 -0.130942
vn -0.313374 0.936274 -0.158707
vn -0.141068 0.984185 -0.107141
vn -0.281294 0.940572 0.190257
vn -0.256671 0.963629 0.0744295
vn 0.0345982 0.871433 -0.489292
vn -0.167965 0.921759 -0.349496
vn -0.12305 0.851132 -0.510326
vn 0.0829301 0.740609 -0.666799
vn 0.123839 0.644985 -0.754094
vn 0.169395 0.744069 -0.646272
vn 0.153927 0.595448 -0.78851
vn 0.246044 0.456916 -0.854804
vn 0.179452 0.460396 -0.869386
vn 0.343909 0.340842 -0.874959
vn 0.428209 0.237849 -0.871817
vn 0.61017 0.0481843 -0.790804
vn 0.336453 0.0262029 -0.941336
vn -0.0516906 0.201583 -0.978106
vn -0.00442915 0.382558 -0.923921
vn 0.19851 0.450892 -0.870224
vn 0.0758751 0.479775 -0.874104
vn -0.395913 0.236264 -0.887374
vn -0.167247 0.0030345 -0.98591
vn 0.254758 -0.083676 -0.963378
vn 0.0500445 -0.599959 -0.798464
vn -0.790144 -0.586169 -0.179104
vn -0.55768 -0.781223 -0.280506
vn -0.77666 -0.6298 0.0122765
vn -0.862006 -0.487945 0.137317
vn -0.85751 -0.480838 0.182952
vn -0.575133 -0.775826 0.259453
vn -0.788863 -0.563644 0.24495
vn -0.870368 -0.444969 0.21086
vn -0.927861 -0.328688 0.176175
vn -0.948418 -0.267092 0.170778
vn -0.95367 -0.254823 0.159933
vn -0.950244 -0.0192665 0.310912
vn 0.808301 0.309149 0.501076
vn 0.819141 0.326929 0.471301
vn 0.556081 -0.0827737 -0.826996
vn 0.679437 -0.18648 -0.709641
vn 0.709377 -0.289328 -0.642708
vn 0.593908 -0.0703667 -0.80145
vn 0.784129 -0.372973 -0.496017
vn 0.70853 -0.495568 -0.502392
vn 0.727293 -0.608783 -0.316903
vn 0.722952 -0.48591 -0.491153
vn 0.731345 -0.653234 -0.196009
vn 0.793766 -0.574721 -0.199079
vn 0.841082 -0.528956 -0.113078
vn 0.741892 -0.668692 -0.0494677
vn 0.513471 -0.854964 0.0733727
vn 0.748354 0.31759 0.582325
vn 0.892909 -0.449171 -0.0309637
vn 0.901854 -0.418237 -0.108338
vn 0.897997 -0.435769 -0.0608887
vn 0.882425 -0.391298 -0.261172
vn 0.854847 -0.344672 -0.387864
vn 0.80457 -0.310126 -0.506447
vn 0.856048 -0.44885 -0.25635
vn 0.912147 -0.366012 -0.184456
vn -0.958393 -0.0355891 0.283224
vn -0.941035 -0.292904 0.169296
vn -0.946811 -0.26897 0.176645
vn -0.929048 -0.34047 0.14474
vn -0.950655 -0.288736 0.113519
vn -0.934086 -0.356732 0.0150217
vn -0.902901 -0.426978 0.0495853
vn -0.899715 -0.427286 -0.0890995
vn -0.858815 -0.450069 -0.244694
vn -0.928095 -0.296696 -0.224969
vn -0.958997 -0.21406 -0.185749
vn -0.951708 -0.0785784 -0.296777
vn -0.967887 -0.251223 -0.00906127
vn -0.985233 -0.169687 -0.022836
vn -0.976744 -0.194765 0.0896574
vn 0.731081 -0.672383 -0.115852
vn 0.709578 -0.668902 -0.221516
vn -0.932339 -0.310062 0.186025
vn -0.809558 -0.533639 0.244632
vn -0.330492 -0.901569 0.279191
vn -0.209576 -0.943374 0.257144
vn -0.136634 -0.898896 0.416314
vn -0.426669 -0.836651 0.343465
vn 0.803967 -0.589107 0.0811853
vn 0.268841 -0.769064 -0.579884
vn 0.871995 -0.452129 -0.187629
vn 0.373832 -0.830016 -0.413912
vn 0.826551 -0.363797 -0.429495
vn 0.817614 -0.346336 -0.459954
vn -0.332201 -0.810811 -0.4819
vn -0.118463 -0.814975 -0.567259
vn -0.161496 -0.680213 -0.715003
vn -0.609244 -0.711318 -0.350499
vn 0.0169526 -0.896465 -0.442791
vn -0.105435 -0.561521 -0.820718
vn 0.15807 -0.544949 -0.823435
vn 0.822628 0.324012 0.467224
vn 0.838697 0.29027 0.460793
vn 0.840942 0.256294 0.476581
vn 0.816835 0.257412 0.516256
vn -0.713958 0.562566 0.416873
vn -0.683053 0.689257 0.241583
vn 0.810005 0.251199 0.529897
vn 0.790462 0.252705 0.557951
vn -0.573346 0.72374 0.384025
vn -0.649257 0.750998 0.120285
vn -0.450669 0.892592 -0.0133204
vn 0.771082 0.322605 0.548962
vn -0.902242 -0.0850707 -0.422756
vn -0.856405 -0.36556 -0.364605
vn 0.352703 -0.629186 -0.692623
vn -0.745279 -0.505005 -0.435348
vn -0.776969 -0.547026 -0.311581
vn -0.869777 0.263039 0.417491
vn 0.762418 0.283237 0.581804
vn 0.70236 -0.209167 -0.680397
vn 0.437247 -0.0256333 -0.898976
vn 0.791014 0.306901 0.529253
vn 0.761955 0.350721 0.544444
vn 0.148759 -0.980309 0.129865
g grp1
usemtl mtl1
f 3//3 2//2 1//1 
f 3//3 1//1 4//4 
f 3//3 4//4 5//5 
f 3//3 5//5 6//6 
f 2//2 3//3 6//6 
f 7//7 2//2 6//6 
f 7//7 6//6 8//8 
f 7//7 8//8 9//9 
f 10//10 7//7 9//9 
f 179//179 178//178 11//11 
f 12//12 179//179 11//11 
f 12//12 11//11 13//13 
f 13//13 14//14 12//12 
f 14//14 13//13 15//15 
f 16//16 14//14 15//15 
f 16//16 15//15 17//17 
f 18//18 16//16 17//17 
f 19//19 18//18 17//17 
f 19//19 17//17 20//20 
f 21//21 19//19 20//20 
f 182//182 181//181 22//22 
f 182//182 22//22 23//23 
f 24//24 182//182 23//23 
f 25//25 24//24 23//23 
f 25//25 23//23 26//26 
f 27//27 184//184 186//186 
f 27//27 186//186 28//28 
f 29//29 187//187 188//188 
f 29//29 188//188 30//30 
f 29//29 30//30 31//31 
f 29//29 31//31 32//32 
f 29//29 32//32 33//33 
f 34//34 29//29 33//33 
f 34//34 33//33 35//35 
f 36//36 34//34 35//35 
f 36//36 35//35 37//37 
f 38//38 36//36 37//37 
f 38//38 37//37 39//39 
f 38//38 39//39 40//40 
f 41//41 38//38 40//40 
f 42//42 41//41 40//40 
f 42//42 40//40 43//43 
f 43//43 44//44 42//42 
f 44//44 43//43 45//45 
f 46//46 44//44 45//45 
f 47//47 46//46 45//45 
f 47//47 45//45 48//48 
f 49//49 47//47 48//48 
f 49//49 48//48 50//50 
f 49//49 50//50 51//51 
f 49//49 51//51 52//52 
f 199//199 53//53 198//198 
f 53//53 199//199 54//54 
f 54//54 55//55 53//53 
f 56//56 55//55 54//54 
f 57//57 56//56 54//54 
f 57//57 54//54 58//58 
f 201//201 59//59 200//200 
f 59//59 201//201 60//60 
f 59//59 60//60 61//61 
f 62//62 59//59 61//61 
f 62//62 61//61 63//63 
f 62//62 63//63 64//64 
f 64//64 65//65 62//62 
f 64//64 66//66 65//65 
f 67//67 66//66 64//64 
f 68//68 67//67 64//64 
f 63//63 68//68 64//64 
f 69//69 68//68 63//63 
f 69//69 63//63 70//70 
f 69//69 70//70 71//71 
f 69//69 71//71 72//72 
f 73//73 69//69 72//72 
f 74//74 73//73 72//72 
f 72//72 75//75 74//74 
f 75//75 72//72 76//76 
f 75//75 76//76 77//77 
f 78//78 75//75 77//77 
f 78//78 77//77 79//79 
f 79//79 80//80 78//78 
f 80//80 79//79 81//81 
f 82//82 80//80 81//81 
f 83//83 82//82 81//81 
f 84//84 83//83 81//81 
f 84//84 81//81 85//85 
f 86//86 84//84 85//85 
f 86//86 85//85 87//87 
f 88//88 86//86 87//87 
f 88//88 87//87 89//89 
f 90//90 88//88 89//89 
f 91//91 90//90 89//89 
f 91//91 89//89 92//92 
f 205//205 91//91 92//92 
f 206//206 205//205 92//92 
f 77//77 76//76 92//92 
f 79//79 77//77 92//92 
f 87//87 79//79 92//92 
f 87//87 92//92 89//89 
f 85//85 79//79 87//87 
f 81//81 79//79 85//85 
f 72//72 71//71 76//76 
f 93//93 91//91 205//205 
f 205//205 204//204 93//93 
f 204//204 94//94 93//93 
f 204//204 61//61 94//94 
f 63//63 61//61 204//204 
f 61//61 60//60 94//94 
f 60//60 95//95 94//94 
f 60//60 96//96 95//95 
f 201//201 96//96 60//60 
f 201//201 97//97 96//96 
f 58//58 54//54 207//207 
f 54//54 199//199 207//207 
f 97//97 52//52 51//51 
f 98//98 97//97 51//51 
f 98//98 51//51 99//99 
f 98//98 99//99 95//95 
f 95//95 96//96 98//98 
f 96//96 97//97 98//98 
f 95//95 99//99 100//100 
f 95//95 100//100 101//101 
f 94//94 95//95 101//101 
f 94//94 101//101 93//93 
f 101//101 102//102 93//93 
f 101//101 100//100 102//102 
f 102//102 100//100 90//90 
f 102//102 90//90 91//91 
f 93//93 102//102 91//91 
f 100//100 103//103 90//90 
f 104//104 103//103 100//100 
f 99//99 104//104 100//100 
f 51//51 104//104 99//99 
f 51//51 105//105 104//104 
f 50//50 105//105 51//51 
f 50//50 48//48 105//105 
f 48//48 103//103 105//105 
f 48//48 106//106 103//103 
f 106//106 48//48 107//107 
f 106//106 107//107 108//108 
f 106//106 108//108 103//103 
f 103//103 108//108 88//88 
f 90//90 103//103 88//88 
f 108//108 109//109 88//88 
f 107//107 109//109 108//108 
f 107//107 110//110 109//109 
f 107//107 111//111 110//110 
f 48//48 111//111 107//107 
f 45//45 111//111 48//48 
f 45//45 43//43 111//111 
f 43//43 40//40 111//111 
f 111//111 40//40 110//110 
f 40//40 112//112 110//110 
f 40//40 39//39 112//112 
f 39//39 113//113 112//112 
f 37//37 113//113 39//39 
f 114//114 113//113 37//37 
f 35//35 114//114 37//37 
f 35//35 33//33 114//114 
f 114//114 33//33 115//115 
f 114//114 115//115 113//113 
f 113//113 115//115 116//116 
f 113//113 116//116 117//117 
f 112//112 113//113 117//117 
f 118//118 112//112 117//117 
f 118//118 117//117 119//119 
f 109//109 118//118 119//119 
f 109//109 119//119 86//86 
f 109//109 86//86 88//88 
f 119//119 84//84 86//86 
f 119//119 117//117 84//84 
f 117//117 83//83 84//84 
f 117//117 120//120 83//83 
f 117//117 116//116 120//120 
f 116//116 121//121 120//120 
f 115//115 121//121 116//116 
f 115//115 122//122 121//121 
f 33//33 122//122 115//115 
f 195//195 123//123 210//210 
f 195//195 194//194 123//123 
f 194//194 191//191 123//123 
f 192//192 124//124 212//212 
f 192//192 125//125 124//124 
f 190//190 125//125 193//193 
f 190//190 189//189 125//125 
f 189//189 26//26 125//125 
f 26//26 126//126 125//125 
f 23//23 126//126 26//26 
f 127//127 126//126 23//23 
f 22//22 127//127 23//23 
f 128//128 127//127 22//22 
f 129//129 128//128 22//22 
f 180//180 129//129 22//22 
f 181//181 180//180 22//22 
f 180//180 15//15 129//129 
f 15//15 13//13 129//129 
f 13//13 130//130 129//129 
f 131//131 130//130 13//13 
f 11//11 131//131 13//13 
f 11//11 178//178 131//131 
f 178//178 132//132 131//131 
f 177//177 132//132 178//178 
f 133//133 132//132 177//177 
f 133//133 177//177 134//134 
f 134//134 135//135 133//133 
f 213//213 66//66 135//135 
f 6//6 203//203 214//214 
f 6//6 214//214 8//8 
f 6//6 56//56 203//203 
f 6//6 5//5 56//56 
f 56//56 5//5 136//136 
f 55//55 56//56 136//136 
f 137//137 55//55 136//136 
f 215//215 138//138 216//216 
f 215//215 139//139 138//138 
f 139//139 215//215 140//140 
f 139//139 140//140 36//36 
f 139//139 36//36 141//141 
f 139//139 141//141 138//138 
f 141//141 42//42 138//138 
f 141//141 41//41 42//42 
f 141//141 36//36 41//41 
f 41//41 36//36 38//38 
f 44//44 138//138 42//42 
f 216//216 138//138 44//44 
f 46//46 216//216 44//44 
f 196//196 55//55 137//137 
f 197//197 55//55 196//196 
f 55//55 197//197 198//198 
f 198//198 53//53 55//55 
f 142//142 36//36 140//140 
f 142//142 140//140 143//143 
f 143//143 144//144 142//142 
f 145//145 144//144 143//143 
f 145//145 143//143 140//140 
f 215//215 145//145 140//140 
f 136//136 5//5 217//217 
f 5//5 4//4 217//217 
f 145//145 176//176 144//144 
f 144//144 176//176 146//146 
f 146//146 147//147 144//144 
f 146//146 148//148 147//147 
f 146//146 149//149 148//148 
f 175//175 149//149 146//146 
f 175//175 146//146 176//176 
f 175//175 150//150 149//149 
f 2//2 218//218 1//1 
f 2//2 151//151 218//218 
f 7//7 151//151 2//2 
f 151//151 7//7 10//10 
f 219//219 179//179 12//12 
f 150//150 219//219 12//12 
f 150//150 12//12 14//14 
f 16//16 150//150 14//14 
f 149//149 150//150 16//16 
f 149//149 16//16 18//18 
f 19//19 149//149 18//18 
f 148//148 149//149 19//19 
f 148//148 19//19 152//152 
f 153//153 148//148 152//152 
f 152//152 154//154 153//153 
f 152//152 19//19 154//154 
f 154//154 19//19 183//183 
f 154//154 183//183 185//185 
f 155//155 154//154 185//185 
f 187//187 155//155 185//185 
f 156//156 155//155 187//187 
f 29//29 156//156 187//187 
f 157//157 156//156 29//29 
f 157//157 29//29 34//34 
f 142//142 157//157 34//34 
f 142//142 34//34 36//36 
f 156//156 157//157 142//142 
f 142//142 158//158 156//156 
f 158//158 142//142 144//144 
f 147//147 158//158 144//144 
f 147//147 153//153 158//158 
f 147//147 148//148 153//153 
f 153//153 159//159 158//158 
f 153//153 154//154 159//159 
f 159//159 154//154 155//155 
f 156//156 159//159 155//155 
f 158//158 159//159 156//156 
f 19//19 21//21 183//183 
f 56//56 202//202 203//203 
f 202//202 56//56 57//57 
f 65//65 200//200 59//59 
f 65//65 59//59 62//62 
f 135//135 66//66 67//67 
f 160//160 135//135 67//67 
f 68//68 160//160 67//67 
f 160//160 68//68 69//69 
f 73//73 160//160 69//69 
f 73//73 135//135 160//160 
f 133//133 135//135 73//73 
f 161//161 133//133 73//73 
f 74//74 161//161 73//73 
f 161//161 74//74 162//162 
f 163//163 161//161 162//162 
f 163//163 162//162 164//164 
f 163//163 164//164 165//165 
f 163//163 165//165 166//166 
f 166//166 127//127 163//163 
f 127//127 166//166 126//126 
f 126//126 166//166 125//125 
f 125//125 166//166 124//124 
f 167//167 124//124 166//166 
f 167//167 166//166 165//165 
f 167//167 165//165 168//168 
f 168//168 212//212 167//167 
f 211//211 212//212 168//168 
f 211//211 168//168 209//209 
f 169//169 209//209 168//168 
f 165//165 169//169 168//168 
f 169//169 165//165 170//170 
f 169//169 170//170 208//208 
f 209//209 169//169 208//208 
f 170//170 171//171 208//208 
f 170//170 172//172 171//171 
f 165//165 172//172 170//170 
f 165//165 164//164 172//172 
f 172//172 164//164 173//173 
f 172//172 173//173 171//171 
f 171//171 173//173 82//82 
f 171//171 82//82 83//83 
f 208//208 171//171 83//83 
f 173//173 80//80 82//82 
f 173//173 174//174 80//80 
f 164//164 174//174 173//173 
f 164//164 162//162 174//174 
f 174//174 162//162 74//74 
f 174//174 74//74 78//78 
f 174//174 78//78 80//80 
f 74//74 75//75 78//78 
f 124//124 167//167 212//212 
f 127//127 128//128 163//163 
f 131//131 163//163 128//128 
f 130//130 131//131 128//128 
f 130//130 128//128 129//129 
f 163//163 131//131 161//161 
f 161//161 131//131 132//132 
f 132//132 133//133 161//161 
f 110//110 118//118 109//109 
f 112//112 118//118 110//110 
f 104//104 105//105 103//103 
