v 22.8877 -49.4919 1042.27
v 16.8042 -59.5688 1034.84
v 22.6585 -48.4465 1045.09
v 21.8026 -52.9475 1052.33
v 20.4115 -48.4863 1045.39
v 22.4592 -55.5912 1046.64
v 23.2716 -49.1346 1045.42
v 23.4356 -49.9465 1043.82
v 17.0674 -55.1421 1032.54
v 19.3455 -58.0374 1046.59
v 18.0224 -53.5734 1030.88
v 19.084 -59.8631 1037.03
v 16.6097 -60.781 1037.9
v 20.1527 -58.7277 1045.14
v 21.5041 -54.3263 1036.61
v 19.5278 -52.8448 1032.07
v 21.2763 -49.6356 1051.9
v 22.5299 -52.6019 1038.91
v 17.7892 -59.9105 1042.84
v 19.7678 -51.7193 1035.35
v 22.9147 -54.5271 1044.72
v 20.3679 -51.2717 1053.07
v 21.772 -49.7632 1052.08
v 16.9562 -58.4649 1032.96
v 20.2701 -59.0875 1038.64
v 17.4638 -57.3389 1032.13
v 19.615 -52.9601 1052.13
v 20.6215 -57.0302 1036.3
v 21.815 -57.354 1043.03
v 21.8455 -48.5704 1043.2
v 19.4969 -58.8324 1035.91
v 18.489 -55.882 1032
v 19.3067 -53.3939 1031.28
v 20.355 -59.2462 1041.38
v 17.4928 -60.5975 1039.9
v 20.931 -49.3768 1049.53
v 17.5375 -53.9898 1042.83
v 17.7035 -55.2687 1045.44
v 23.4226 -50.214 1046.17
v 20.551 -55.5533 1051.6
v 23.4603 -51.7786 1044.34
v 21.7482 -52.0439 1036.87
v 20.9047 -50.2637 1052.88
v 22.0274 -56.5318 1041.32
v 17.0901 -54.1959 1036.05
v 17.9806 -53.2622 1033.81
v 22.1812 -49.4481 1049.81
v 16.2039 -56.4705 1034.62
v 16.1192 -59.961 1039.17
v 19.6109 -49.3585 1045.87
v 19.0103 -52.9122 1030.74
v 18.9611 -60.2832 1039.04
v 21.0101 -49.3116 1040.73
v 21.9784 -54.5959 1050.1
v 17.5551 -60.3247 1036.35
v 18.7912 -50.8777 1045.2
v 22.903 -49.6112 1047.88
v 22.6982 -51.7506 1049.26
v 20.3573 -52.3596 1053.18
v 21.5191 -57.3101 1046.3
v 21.8405 -49.8367 1039.48
v 15.9597 -59.5384 1035.17
v 16.5494 -57.599 1032.39
v 21.3312 -56.8899 1038.26
v 18.8455 -51.0693 1038.99
v 19.3693 -53.6877 1050.68
v 20.046 -50.3381 1050.95
v 20.6307 -56.9179 1048.42
v 18.6893 -52.4854 1046.98
v 16.405 -57.7606 1040.89
v 18.1493 -56.2869 1046.8
v 18.9102 -59.9907 1041.71
v 19.9612 -49.6592 1047.85
v 22.0845 -50.5638 1051.74
v 21.033 -58.4721 1044.1
v 21.5119 -52.1212 1053.01
v 17.9371 -52.3995 1040.22
v 19.8689 -54.7892 1051.72
v 15.779 -58.9559 1037.89
v 20.0441 -53.8486 1052.77
v 18.08 -58.102 1033.48
v 18.3695 -59.4087 1035.37
v 21.8298 -48.5557 1046.96
v 19.5338 -51.8404 1051.18
v 17.7241 -60.6375 1037.7
v 21.4721 -55.8057 1049.77
v 16.1841 -60.6163 1036.93
v 18.7739 -52.8651 1031.77
v 20.557 -53.3499 1034.34
v 21.0019 -51.3772 1053.29
v 19.9471 -51.205 1052.4
v 19.0182 -54.4004 1048.85
v 16.2404 -58.513 1032.98
v 15.8002 -58.2676 1034.64
v 20.6063 -48.6294 1043.69
v 19.8755 -54.6187 1033.42
v 20.3975 -52.6422 1034.29
v 18.6504 -53.1289 1030.6
v 19.4931 -49.4761 1044.02
v 23.0849 -52.9989 1046.99
v 20.549 -48.7946 1046.89
v 20.6971 -51.6619 1035.68
v 20.0504 -56.2142 1049.55
v 21.2466 -54.8558 1052.17
v 18.8018 -59.1641 1044.82
v 19.7121 -50.2049 1039.33
v 20.5101 -54.9324 1052.63
v 23.1686 -51.3072 1041.64
v 21.3897 -50.2317 1052.93
v 22.645 -53.9823 1040.82
v 20.5546 -50.0496 1052.29
v 19.3024 -56.9431 1034.11
v 17.8516 -58.2074 1045.36
v 20.8256 -53.3767 1053.23
v 19.5316 -55.0941 1050.12
v 21.4247 -48.2264 1045.34
v 19.4052 -51.3582 1048.72
v 18.7607 -52.7238 1033.83
v 19.121 -56.2963 1048.24
v 19.4693 -52.5758 1033.54
v 16.0034 -57.9273 1033.41
v 17.3322 -55.7081 1031.58
v 22.6033 -48.8731 1047.16
v 20.6414 -50.2391 1038.08
v 16.9611 -59.7879 1042.06
v 22.4254 -50.8403 1038.87
v 16.13 -56.6669 1036.84
v 16.9257 -58.2624 1043.56
v 18.2087 -54.8426 1031.12
v 19.0715 -51.6969 1036.07
v 21.1251 -54.0789 1053
v 15.7506 -59.5852 1036.4
v 19.3455 -58.0374 1046.59
v 18.0224 -53.5734 1030.88
v 16.6097 -60.781 1037.9
v 19.5278 -52.8448 1032.07
v 20.3679 -51.2717 1053.07
v 21.772 -49.7632 1052.08
v 17.4638 -57.3389 1032.13
v 20.551 -55.5533 1051.6
v 20.9047 -50.2637 1052.88
v 20.9047 -50.2637 1052.88
v 22.1812 -49.4481 1049.81
v 19.0103 -52.9122 1030.74
v 19.0103 -52.9122 1030.74
v 20.3573 -52.3596 1053.18
v 15.9597 -59.5384 1035.17
v 16.5494 -57.599 1032.39
v 20.0441 -53.8486 1052.77
v 21.4721 -55.8057 1049.77
v 16.1841 -60.6163 1036.93
v 21.0019 -51.3772 1053.29
v 16.2404 -58.513 1032.98
v 20.3975 -52.6422 1034.29
v 18.6504 -53.1289 1030.6
v 18.6504 -53.1289 1030.6
v 21.2466 -54.8558 1052.17
v 18.8018 -59.1641 1044.82
v 20.5101 -54.9324 1052.63
v 20.5101 -54.9324 1052.63
v 21.3897 -50.2317 1052.93
v 21.3897 -50.2317 1052.93
v 20.8256 -53.3767 1053.23
v 19.121 -56.2963 1048.24
v 17.3322 -55.7081 1031.58
v 18.2087 -54.8426 1031.12
v 21.1251 -54.0789 1053
v 21.1251 -54.0789 1053
vn 0.778158 0.574546 -0.253709
vn 0.0232716 -0.871321 -0.490162
vn 0.466606 0.88442 -0.00890751
vn 0.919989 -0.165524 0.355277
vn -0.523109 0.851422 0.037912
vn 0.916551 -0.377209 0.132842
vn 0.876529 0.478878 0.0487224
vn 0.978398 0.179399 -0.102732
vn -0.912349 0.332886 -0.23834
vn -0.500462 -0.648608 0.57345
vn -0.28411 -0.212121 -0.935033
vn 0.546029 -0.789717 -0.279642
vn 0.111586 -0.989969 -0.0866556
vn 0.343237 -0.872974 0.346562
vn 0.92061 -0.176608 -0.348263
vn 0.0817971 0.987837 -0.132242
vn -0.0885334 0.940511 0.328027
vn 0.958737 -0.0695563 -0.275654
vn -0.166345 -0.926283 0.338125
vn -0.160778 0.895928 -0.414081
vn 0.963255 -0.268226 -0.0139635
vn -0.768501 0.330246 0.548037
vn 0.91541 0.210315 0.343209
vn 0.207264 -0.725976 -0.655744
vn 0.791149 -0.586358 -0.173977
vn 0.561814 -0.539182 -0.627413
vn -0.933238 -0.0194173 0.358735
vn 0.850501 -0.361207 -0.382332
vn 0.874912 -0.48348 -0.0278571
vn 0.0698758 0.96826 -0.239981
vn 0.716974 -0.547261 -0.431803
vn 0.6985 -0.4315 -0.570881
vn 0.804474 -0.226738 -0.549009
vn 0.661756 -0.749541 0.0163401
vn -0.0932992 -0.980195 0.174678
vn -0.369654 0.907377 0.200056
vn -0.955054 0.267379 0.127986
vn -0.955867 0.135122 0.260885
vn 0.989236 0.0615575 0.13275
vn 0.444705 -0.790115 0.421847
vn 0.993767 -0.107299 -0.0302376
vn 0.876939 0.173044 -0.448368
vn -0.181043 0.320928 0.929639
vn 0.932244 -0.342145 -0.117722
vn -0.886526 0.458736 -0.0602778
vn -0.719574 0.680767 -0.137002
vn 0.132224 0.9692 0.207768
vn -0.948884 0.304097 -0.0845256
vn -0.874176 -0.437949 0.209802
vn -0.805594 0.57264 0.151991
vn -0.243814 0.964572 -0.100779
vn 0.463753 -0.885849 -0.0143352
vn -0.164381 0.949774 -0.266286
vn 0.915304 -0.323908 0.239379
vn 0.240112 -0.891652 -0.383802
vn -0.923367 0.366303 0.114959
vn 0.911774 0.329041 0.245766
vn 0.97014 -0.0553361 0.236148
vn -0.833122 0.0494805 0.550871
vn 0.73646 -0.632932 0.238795
vn 0.392025 0.83264 -0.391187
vn -0.942803 -0.269991 -0.195519
vn -0.896589 0.139824 -0.420212
vn 0.906896 -0.362314 -0.215098
vn -0.738499 0.66126 -0.131734
vn -0.980653 -0.0601439 0.186288
vn -0.838318 0.52458 0.148454
vn 0.258101 -0.870034 0.42003
vn -0.948043 0.212673 0.236611
vn -0.978099 0.115382 0.173234
vn -0.884244 -0.124133 0.450227
vn 0.324516 -0.928935 0.178236
vn -0.761307 0.615459 0.204016
vn 0.931222 0.131643 0.339847
vn 0.648593 -0.750012 0.129649
vn 0.702717 -0.0314875 0.710772
vn -0.903398 0.428703 0.00923847
vn -0.843792 -0.413315 0.342324
vn -0.994324 0.0234384 0.103783
vn -0.397188 -0.214733 0.892262
vn 0.604677 -0.571907 -0.554335
vn 0.430456 -0.756091 -0.492985
vn 0.0763892 0.969015 0.234893
vn -0.971301 0.189269 0.144056
vn 0.232229 -0.963556 -0.132776
vn 0.483554 -0.79916 0.357097
vn -0.00580339 -0.936433 -0.350797
vn -0.365769 0.924746 -0.105153
vn 0.910561 0.0146188 -0.413117
vn -0.201093 0.183332 0.962263
vn -0.887316 0.262738 0.378999
vn -0.946168 -0.0160581 0.323277
vn -0.0501362 -0.78898 -0.612371
vn -0.995446 0.03172 -0.0898993
vn -0.425566 0.887672 -0.175875
vn 0.850474 -0.283371 -0.443164
vn 0.779678 0.379605 -0.497998
vn 0.576373 -0.409468 -0.707199
vn -0.782419 0.620509 -0.0528138
vn 0.973986 -0.1687 0.151303
vn -0.44689 0.862343 0.23802
vn 0.462801 0.715908 -0.522772
vn -0.554091 -0.703463 0.44511
vn 0.461348 -0.754738 0.4664
vn -0.48498 -0.693356 0.532965
vn -0.462039 0.857932 -0.224659
vn 0.425778 -0.702842 0.569847
vn 0.980893 0.0336655 -0.191615
vn 0.785153 0.0990243 0.611334
vn 0.963265 -0.212199 -0.164598
vn -0.637599 0.684072 0.354278
vn 0.763862 -0.400349 -0.506198
vn -0.656128 -0.527095 0.540062
vn -0.257685 -0.20084 0.945125
vn -0.884402 -0.337152 0.32274
vn -0.0762662 0.996585 0.0316358
vn -0.948689 0.265845 0.17122
vn -0.408758 0.883125 -0.230235
vn -0.85805 -0.217117 0.465414
vn 0.0532814 0.947041 -0.316662
vn -0.959268 0.0493086 -0.278162
vn -0.213092 -0.287748 -0.933698
vn 0.610285 0.759262 0.225994
vn -0.0997938 0.91327 -0.394941
vn -0.636589 -0.67152 0.37923
vn 0.856148 0.35313 -0.37724
vn -0.96747 0.249031 0.0445655
vn -0.936232 -0.136775 0.32367
vn 0.591557 -0.40603 -0.696563
vn -0.489338 0.821567 -0.292532
vn 0.74699 -0.189853 0.637152
vn -0.986461 -0.162383 -0.0229513
vn 0.0793399 -0.863168 0.498644
vn -0.796761 0.581415 -0.164708
vn -0.614744 -0.749035 0.247057
vn 0.91306 0.168872 -0.371218
vn -0.280582 0.205889 0.937488
vn 0.117581 0.933152 0.339709
vn -0.140777 -0.411109 -0.90065
vn -0.566526 -0.734739 0.373104
vn -0.677714 0.468011 0.567159
vn -0.175488 0.857841 0.483024
vn 0.87046 0.424255 0.249613
vn 0.918176 0.154115 -0.364967
vn 0.554308 -0.448451 -0.701166
vn -0.29096 -0.025876 0.956385
vn -0.208489 -0.861416 -0.463136
vn -0.0777844 -0.486966 -0.869951
vn -0.857031 -0.199279 0.475169
vn 0.876402 -0.426553 0.223542
vn -0.856319 -0.51541 0.0327212
vn 0.481556 0.00559802 0.876397
vn -0.928403 -0.115587 -0.353139
vn 0.205112 0.964136 -0.168436
vn -0.279587 -0.211722 -0.936485
vn -0.538796 0.832198 -0.130939
vn 0.888156 -0.336478 0.312987
vn 0.198839 -0.919268 0.339718
vn -0.728998 -0.530281 0.432855
vn -0.228441 -0.308924 0.923245
vn -0.104918 0.330575 0.93793
vn -0.029587 0.862319 0.505501
vn 0.428703 -0.0783264 0.900044
vn -0.589426 -0.594562 0.546875
vn -0.909083 0.196034 -0.367614
vn -0.248803 -0.250145 -0.935695
vn 0.461471 -0.611311 0.642918
vn -0.088225 -0.342083 0.935519
g grp1
usemtl mtl1
f 9//9 48//48 45//45 
f 46//46 9//9 45//45 
f 46//46 45//45 65//65 
f 46//46 65//65 130//130 
f 118//118 46//46 130//130 
f 118//118 130//130 20//20 
f 118//118 20//20 120//120 
f 88//88 118//118 120//120 
f 88//88 120//120 16//16 
f 51//51 88//88 16//16 
f 136//136 33//33 144//144 
f 98//98 145//145 33//33 
f 98//98 33//33 129//129 
f 11//11 155//155 166//166 
f 11//11 166//166 122//122 
f 9//9 134//134 165//165 
f 9//9 165//165 63//63 
f 9//9 63//63 121//121 
f 9//9 121//121 48//48 
f 121//121 94//94 48//48 
f 48//48 94//94 127//127 
f 48//48 127//127 45//45 
f 45//45 127//127 77//77 
f 65//65 45//45 77//77 
f 65//65 77//77 99//99 
f 65//65 99//99 95//95 
f 65//65 95//95 106//106 
f 130//130 65//65 106//106 
f 130//130 106//106 124//124 
f 130//130 124//124 20//20 
f 20//20 124//124 102//102 
f 120//120 20//20 102//102 
f 120//120 102//102 97//97 
f 16//16 120//120 154//154 
f 136//136 97//97 89//89 
f 33//33 136//136 89//89 
f 89//89 96//96 33//33 
f 33//33 96//96 32//32 
f 33//33 32//32 129//129 
f 129//129 32//32 26//26 
f 122//122 166//166 139//139 
f 122//122 139//139 148//148 
f 24//24 148//148 139//139 
f 24//24 26//26 81//81 
f 81//81 82//82 24//24 
f 24//24 82//82 2//2 
f 2//2 93//93 24//24 
f 148//148 24//24 93//93 
f 121//121 63//63 153//153 
f 121//121 153//153 62//62 
f 121//121 62//62 94//94 
f 62//62 132//132 94//94 
f 94//94 132//132 127//127 
f 127//127 132//132 79//79 
f 127//127 79//79 70//70 
f 127//127 70//70 37//37 
f 127//127 37//37 77//77 
f 37//37 56//56 77//77 
f 99//99 77//77 56//56 
f 50//50 99//99 56//56 
f 56//56 117//117 50//50 
f 50//50 117//117 73//73 
f 50//50 73//73 101//101 
f 50//50 101//101 5//5 
f 50//50 5//5 99//99 
f 95//95 99//99 5//5 
f 5//5 116//116 95//95 
f 95//95 116//116 30//30 
f 106//106 95//95 30//30 
f 106//106 30//30 53//53 
f 124//124 106//106 53//53 
f 124//124 53//53 61//61 
f 124//124 61//61 102//102 
f 102//102 61//61 126//126 
f 102//102 126//126 42//42 
f 102//102 42//42 97//97 
f 42//42 89//89 97//97 
f 89//89 42//42 15//15 
f 89//89 15//15 96//96 
f 28//28 96//96 15//15 
f 28//28 15//15 64//64 
f 28//28 64//64 25//25 
f 28//28 25//25 31//31 
f 112//112 28//28 31//31 
f 112//112 31//31 81//81 
f 32//32 112//112 81//81 
f 26//26 32//32 81//81 
f 112//112 32//32 96//96 
f 28//28 112//112 96//96 
f 81//81 31//31 82//82 
f 82//82 31//31 12//12 
f 55//55 82//82 12//12 
f 55//55 12//12 85//85 
f 87//87 55//55 85//85 
f 13//13 87//87 85//85 
f 13//13 85//85 35//35 
f 49//49 135//135 35//35 
f 49//49 35//35 125//125 
f 49//49 125//125 128//128 
f 70//70 49//49 128//128 
f 70//70 128//128 38//38 
f 70//70 38//38 37//37 
f 37//37 38//38 69//69 
f 56//56 37//37 69//69 
f 56//56 69//69 117//117 
f 92//92 117//117 69//69 
f 38//38 92//92 69//69 
f 38//38 71//71 92//92 
f 119//119 92//92 71//71 
f 71//71 113//113 119//119 
f 113//113 10//10 164//164 
f 164//164 10//10 103//103 
f 103//103 115//115 164//164 
f 119//119 115//115 92//92 
f 92//92 115//115 66//66 
f 92//92 66//66 117//117 
f 117//117 66//66 84//84 
f 67//67 117//117 84//84 
f 67//67 84//84 91//91 
f 67//67 91//91 111//111 
f 67//67 111//111 36//36 
f 73//73 67//67 36//36 
f 73//73 36//36 101//101 
f 101//101 36//36 83//83 
f 101//101 83//83 116//116 
f 101//101 116//116 5//5 
f 83//83 3//3 116//116 
f 30//30 116//116 3//3 
f 30//30 3//3 1//1 
f 61//61 30//30 1//1 
f 61//61 1//1 126//126 
f 126//126 1//1 108//108 
f 126//126 108//108 18//18 
f 42//42 126//126 18//18 
f 42//42 18//18 15//15 
f 15//15 18//18 110//110 
f 15//15 110//110 64//64 
f 64//64 110//110 44//44 
f 64//64 44//44 29//29 
f 64//64 29//29 25//25 
f 25//25 29//29 34//34 
f 34//34 52//52 25//25 
f 12//12 25//25 52//52 
f 85//85 12//12 52//52 
f 85//85 52//52 35//35 
f 35//35 52//52 72//72 
f 35//35 72//72 19//19 
f 125//125 35//35 19//19 
f 125//125 19//19 105//105 
f 125//125 105//105 113//113 
f 128//128 125//125 113//113 
f 128//128 113//113 71//71 
f 38//38 128//128 71//71 
f 113//113 105//105 10//10 
f 158//158 14//14 133//133 
f 68//68 133//133 14//14 
f 68//68 14//14 60//60 
f 68//68 60//60 86//86 
f 68//68 86//86 104//104 
f 40//40 68//68 104//104 
f 40//40 104//104 107//107 
f 140//140 159//159 78//78 
f 103//103 140//140 78//78 
f 115//115 103//103 78//78 
f 66//66 115//115 78//78 
f 66//66 78//78 27//27 
f 84//84 66//66 27//27 
f 84//84 27//27 91//91 
f 91//91 27//27 59//59 
f 22//22 91//91 59//59 
f 90//90 137//137 146//146 
f 146//146 114//114 90//90 
f 163//163 76//76 152//152 
f 152//152 76//76 109//109 
f 161//161 43//43 90//90 
f 43//43 137//137 90//90 
f 141//141 111//111 22//22 
f 91//91 22//22 111//111 
f 111//111 142//142 17//17 
f 36//36 111//111 17//17 
f 36//36 17//17 47//47 
f 36//36 47//47 83//83 
f 83//83 47//47 123//123 
f 83//83 123//123 3//3 
f 123//123 7//7 3//3 
f 1//1 3//3 7//7 
f 1//1 7//7 8//8 
f 1//1 8//8 108//108 
f 8//8 41//41 108//108 
f 108//108 41//41 110//110 
f 18//18 108//108 110//110 
f 110//110 41//41 21//21 
f 110//110 21//21 44//44 
f 44//44 21//21 29//29 
f 29//29 21//21 6//6 
f 29//29 6//6 60//60 
f 29//29 60//60 75//75 
f 34//34 29//29 75//75 
f 72//72 34//34 75//75 
f 72//72 75//75 14//14 
f 72//72 14//14 158//158 
f 19//19 72//72 158//158 
f 14//14 75//75 60//60 
f 52//52 34//34 72//72 
f 60//60 6//6 54//54 
f 150//150 60//60 54//54 
f 54//54 157//157 150//150 
f 54//54 4//4 157//157 
f 4//4 131//131 157//157 
f 167//167 107//107 104//104 
f 160//160 168//168 114//114 
f 160//160 114//114 80//80 
f 159//159 149//149 78//78 
f 27//27 78//78 149//149 
f 27//27 149//149 59//59 
f 80//80 114//114 146//146 
f 163//163 131//131 76//76 
f 4//4 76//76 131//131 
f 74//74 76//76 4//4 
f 74//74 4//4 58//58 
f 57//57 74//74 58//58 
f 39//39 57//57 58//58 
f 39//39 58//58 100//100 
f 41//41 39//39 100//100 
f 41//41 100//100 21//21 
f 21//21 100//100 6//6 
f 100//100 54//54 6//6 
f 100//100 58//58 54//54 
f 4//4 54//54 58//58 
f 39//39 41//41 8//8 
f 39//39 8//8 7//7 
f 7//7 57//57 39//39 
f 123//123 57//57 7//7 
f 143//143 57//57 123//123 
f 57//57 143//143 74//74 
f 23//23 74//74 143//143 
f 17//17 138//138 47//47 
f 17//17 162//162 138//138 
f 74//74 23//23 109//109 
f 74//74 109//109 76//76 
f 17//17 142//142 162//162 
f 103//103 68//68 140//140 
f 133//133 68//68 103//103 
f 12//12 31//31 25//25 
f 53//53 30//30 61//61 
f 73//73 117//117 67//67 
f 79//79 49//49 70//70 
f 132//132 49//49 79//79 
f 151//151 49//49 132//132 
f 151//151 132//132 62//62 
f 147//147 2//2 87//87 
f 2//2 55//55 87//87 
f 2//2 82//82 55//55 
f 147//147 93//93 2//2 
f 151//151 135//135 49//49 
f 9//9 46//46 134//134 
f 46//46 88//88 134//134 
f 134//134 88//88 156//156 
f 51//51 156//156 88//88 
f 46//46 118//118 88//88 
