v 17.7299 -58.0433 1005.32
v 21.4415 -62.3747 1015.13
v 22.6637 -55.9438 1009.66
v 19.2467 -62.873 1012.5
v 20.6993 -56.5653 1021.47
v 20.8459 -54.3402 1006.45
v 18.9136 -60.024 1005.64
v 20.2246 -62.8046 1013.53
v 20.1321 -54.3945 1004.85
v 21.414 -54.0818 1007.93
v 17.3967 -61.606 1009.08
v 17.2836 -60.9918 1007.18
v 18.3942 -56.699 1009.42
v 20.5986 -62.0154 1022.57
v 22.5753 -54.2327 1014.43
v 22.7683 -59.271 1017.39
v 20.3521 -54.4965 1003.66
v 19.5668 -61.7996 1020.37
v 19.5324 -54.8791 1006.66
v 22.8249 -59.6089 1015.52
v 18.4766 -60.7517 1016.46
v 17.6322 -62.2786 1011.24
v 20.8519 -54.8573 1004.73
v 19.3909 -56.7836 1003.99
v 21.9131 -53.9235 1012.74
v 19.6919 -61.3262 1022.14
v 20.4953 -62.6837 1019.22
v 21.2587 -53.8336 1010.98
v 22.062 -54.9958 1007.94
v 19.7142 -54.9248 1003.52
v 22.0439 -61.5907 1014.95
v 17.2351 -60.1071 1005.34
v 22.4449 -58.6642 1020.46
v 21.0892 -54.5375 1005.7
v 20.0678 -61.3838 1022.85
v 20.664 -54.3247 1004.44
v 17.9738 -58.8104 1011.74
v 20.3949 -58.467 1023.54
v 19.1798 -61.1525 1019.41
v 20.6098 -56.9839 1022.78
v 23.2349 -57.0176 1016.78
v 19.8756 -57.4976 1020.59
v 19.8577 -55.2711 1013.77
v 17.0631 -60.0041 1005.9
v 22.4002 -57.2428 1021.31
v 18.4568 -60.8261 1006.58
v 21.9849 -56.8758 1022.39
v 22.2672 -59.6764 1011.54
v 23.1193 -58.0642 1013.73
v 22.225 -54.1123 1009.2
v 20.0572 -54.3582 1003.71
v 21.6344 -54.5274 1015.91
v 21.7102 -61.2873 1021.65
v 21.3593 -56.3084 1021.46
v 21.3732 -55.4428 1018.42
v 19.2191 -62.2403 1010.24
v 21.8737 -61.5639 1018.95
v 20.2995 -55.702 1004.22
v 22.9387 -56.1732 1018.27
v 20.1566 -61.2626 1008.82
v 21.0533 -60.3123 1023.45
v 21.5003 -59.2977 1023.35
v 17.6738 -59.3122 1004.78
v 23.2706 -54.6577 1013.21
v 18.5544 -57.336 1004.22
v 18.3355 -62.6756 1011.7
v 21.4427 -56.9967 1023.12
v 23.335 -55.5535 1016.33
v 18.0149 -57.2077 1005.99
v 20.7479 -57.4333 1023.36
v 20.5805 -60.8021 1023.34
v 22.2228 -58.1615 1009.74
v 18.7647 -55.8443 1007.55
v 20.2885 -60.1632 1007.37
v 17.2843 -59.2333 1007.72
v 21.1333 -60.6403 1009.45
v 23.1494 -54.8369 1015.57
v 21.2424 -62.1702 1021.39
v 22.4781 -55.5676 1018.35
v 18.2212 -62.0272 1015.41
v 19.5696 -59.7287 1022.32
v 19.5536 -62.7605 1016.72
v 21.0609 -62.5137 1019.53
v 17.8794 -60.0985 1005.17
v 21.8477 -59.557 1022.6
v 20.2976 -56.2473 1018.73
v 22.9948 -54.8257 1010.98
v 20.9676 -62.2985 1012.99
v 18.6825 -56.1781 1004.51
v 21.2545 -61.7006 1022.47
v 23.4762 -55.7466 1014.38
v 22.397 -54.7972 1016.71
v 20.9066 -54.3 1013.6
v 17.5055 -61.3841 1011.55
v 21.3955 -57.6294 1023.51
v 19.2181 -57.0268 1015.46
v 22.3534 -56.3298 1020.5
v 21.0716 -61.2841 1023.06
v 19.7225 -58.2759 1022.22
v 17.5153 -60.6878 1006.13
v 17.8956 -61.7076 1008.56
v 20.4818 -54.235 1007.76
v 20.4585 -62.8039 1016.31
v 22.6444 -54.0178 1011.8
v 21.528 -61.4257 1011.98
v 20.0347 -62.0511 1022
v 19.35 -58.4723 1018.65
v 19.3641 -55.0013 1003.96
v 20.1128 -58.1207 1023.13
v 19.3552 -58.9159 1005.13
v 20.7818 -58.826 1007.12
v 17.1193 -60.3903 1007.79
v 20.476 -62.4306 1021.56
v 19.1991 -62.0975 1017.81
v 20.5877 -55.0482 1016.3
v 23.1261 -56.7394 1012.03
v 19.2793 -59.6429 1020.15
v 21.8672 -57.5873 1023.04
v 20.1554 -57.2157 1022.13
v 19.1306 -63.0451 1014.16
v 21.2223 -56.3748 1006.43
v 18.3514 -62.6968 1015.08
v 19.9484 -62.4409 1019.67
v 17.8824 -62.6379 1013.22
v 18.6924 -58.8025 1004.43
v 19.9186 -54.6477 1010.56
v 20.8959 -58.6073 1023.68
v 21.6386 -62.1793 1016.68
v 21.7059 -54.5238 1007.32
v 21.6119 -53.8104 1009.42
v 20.0339 -60.1362 1023.18
v 22.4822 -60.4568 1013.93
v 20.1321 -54.3945 1004.85
v 17.3967 -61.606 1009.08
v 17.2836 -60.9918 1007.18
v 20.5986 -62.0154 1022.57
v 20.3521 -54.4965 1003.66
v 20.3521 -54.4965 1003.66
v 17.6322 -62.2786 1011.24
v 19.3909 -56.7836 1003.99
v 19.3909 -56.7836 1003.99
v 19.7142 -54.9248 1003.52
v 19.7142 -54.9248 1003.52
v 19.7142 -54.9248 1003.52
v 17.2351 -60.1071 1005.34
v 17.2351 -60.1071 1005.34
v 21.0892 -54.5375 1005.7
v 20.664 -54.3247 1004.44
v 20.664 -54.3247 1004.44
v 17.0631 -60.0041 1005.9
v 21.9849 -56.8758 1022.39
v 22.225 -54.1123 1009.2
v 20.0572 -54.3582 1003.71
v 20.0572 -54.3582 1003.71
v 20.0572 -54.3582 1003.71
v 20.0572 -54.3582 1003.71
v 17.6738 -59.3122 1004.78
v 18.5544 -57.336 1004.22
v 21.4427 -56.9967 1023.12
v 21.2424 -62.1702 1021.39
v 21.2545 -61.7006 1022.47
v 21.3955 -57.6294 1023.51
v 22.3534 -56.3298 1020.5
v 21.0716 -61.2841 1023.06
v 21.0716 -61.2841 1023.06
v 19.3641 -55.0013 1003.96
v 19.3641 -55.0013 1003.96
v 19.3641 -55.0013 1003.96
v 19.3641 -55.0013 1003.96
v 20.476 -62.4306 1021.56
v 18.3514 -62.6968 1015.08
v 17.8824 -62.6379 1013.22
v 21.7059 -54.5238 1007.32
v 20.0339 -60.1362 1023.18
vn -0.910863 0.284555 -0.298925
vn 0.587627 -0.80633 -0.0672773
vn 0.946473 -0.100965 -0.306587
vn 0.104778 -0.977083 -0.185282
vn -0.605511 0.777759 0.168662
vn 0.217345 0.961709 -0.166966
vn 0.479763 -0.666445 -0.570682
vn 0.33062 -0.933933 -0.135865
vn 0.0621795 0.998057 -0.00392702
vn 0.239055 0.940363 -0.242013
vn -0.425976 -0.871954 -0.241331
vn -0.505622 -0.804319 -0.312118
vn -0.891554 0.442237 0.0977602
vn 0.414246 -0.801704 0.430895
vn 0.342315 0.925413 0.162577
vn 0.966256 -0.23311 0.109582
vn 0.354182 0.873523 -0.333935
vn -0.865323 -0.472928 0.165995
vn -0.733472 0.679719 0.00116438
vn 0.959972 -0.279175 0.0226867
vn -0.976562 0.0993671 0.190924
vn -0.983375 -0.165185 0.0754162
vn 0.920324 -0.0195307 -0.390669
vn -0.203627 -0.0904189 -0.974864
vn -0.00486249 0.994402 0.105547
vn -0.913991 -0.270414 0.302484
vn -0.0337228 -0.995533 0.0881823
vn -0.31383 0.948454 0.044111
vn 0.933114 0.123636 -0.337657
vn -0.00451366 0.325059 -0.945683
vn 0.849539 -0.523007 -0.0688987
vn -0.80336 -0.578579 -0.140925
vn 0.975205 -0.147701 0.164804
vn 0.21071 0.976582 -0.0434717
vn -0.62195 -0.435502 0.650781
vn -0.051156 0.993399 0.102676
vn -0.955473 0.248959 0.158401
vn -0.513986 0.127049 0.848338
vn -0.960138 -0.190806 0.204273
vn -0.510986 0.748599 0.422485
vn 0.98907 -0.105977 0.102511
vn -0.903786 0.418579 0.0892391
vn -0.790414 0.595715 0.142721
vn -0.977602 0.174513 -0.117639
vn 0.964302 0.077132 0.253321
vn 0.215522 -0.867519 -0.448288
vn 0.304663 0.890464 0.338015
vn 0.915429 -0.328504 -0.232542
vn 0.975363 -0.204948 -0.0816241
vn 0.437988 0.87355 -0.212314
vn -0.100901 0.994159 0.0382906
vn -0.150029 0.958293 0.243239
vn 0.920018 -0.341141 0.192849
vn -0.0759528 0.950671 0.30076
vn -0.131292 0.933706 0.3331
vn 0.231941 -0.92051 -0.314426
vn 0.898001 -0.432601 0.0803143
vn 0.764333 -0.325685 -0.556528
vn 0.925582 0.277314 0.257672
vn 0.522445 -0.759983 -0.386622
vn 0.315946 -0.224553 0.921821
vn 0.688858 -0.135333 0.712151
vn -0.888753 0.236661 -0.392567
vn 0.862793 0.505521 -0.00601862
vn -0.836172 0.228039 -0.498813
vn -0.199022 -0.963089 -0.181245
vn -0.0352452 0.809463 0.586112
vn 0.963696 0.206653 0.16907
vn -0.902477 0.430103 -0.0233943
vn -0.344627 0.452274 0.822606
vn -0.181289 -0.329797 0.926482
vn 0.905973 -0.265573 -0.329672
vn -0.829547 0.558204 0.0161291
vn 0.696689 -0.527104 -0.486606
vn -0.96501 0.248439 0.0838735
vn 0.802216 -0.476592 -0.359598
vn 0.762022 0.609916 0.217542
vn 0.388698 -0.88106 0.269532
vn 0.502664 0.788862 0.353589
vn -0.946222 -0.203621 0.251399
vn -0.955785 0.0121036 0.293817
vn -0.313893 -0.935154 0.164191
vn 0.497511 -0.864676 0.0694087
vn 0.0580679 -0.708734 -0.703082
vn 0.918674 -0.180691 0.351268
vn -0.744267 0.637782 0.198246
vn 0.959307 0.198311 -0.201002
vn 0.579721 -0.781497 -0.230621
vn -0.88804 0.397144 -0.231648
vn 0.871014 -0.349375 0.345357
vn 0.999006 0.0379935 -0.0233191
vn 0.238217 0.914901 0.325898
vn -0.459137 0.876641 0.143854
vn -0.991491 -0.00529487 0.130071
vn -0.0831612 0.387455 0.91813
vn -0.90432 0.392119 0.168663
vn 0.244824 0.918899 0.309332
vn 0.80739 -0.256179 0.531501
vn -0.947099 0.256461 0.192957
vn -0.332985 -0.850301 -0.407564
vn -0.202481 -0.929511 -0.308237
vn -0.319657 0.946208 -0.0500972
vn 0.253671 -0.966909 0.0271716
vn 0.552157 0.832892 -0.0375926
vn 0.775727 -0.581802 -0.244447
vn -0.672531 -0.671206 0.311744
vn -0.945375 0.289391 0.150065
vn -0.724819 0.688092 0.0341645
vn -0.823116 0.275157 0.496758
vn 0.672318 -0.425388 -0.605833
vn 0.824583 -0.337299 -0.454194
vn -0.996372 -0.0730232 0.0437014
vn -0.415028 -0.882985 0.219292
vn -0.783203 -0.565703 0.258016
vn -0.550458 0.801304 0.234324
vn 0.971825 -0.145237 -0.185642
vn -0.981501 0.134847 0.135914
vn 0.840269 0.125897 0.52735
vn -0.818333 0.536808 0.205349
vn -0.0906851 -0.995859 0.00638159
vn 0.88753 -0.222447 -0.403495
vn -0.370149 -0.911105 0.181324
vn -0.590588 -0.792654 0.151345
vn -0.353364 -0.934816 -0.0354065
vn 0.202058 -0.420188 -0.884655
vn -0.68215 0.728164 0.0666966
vn -0.039298 -0.006705 0.999205
vn 0.694893 -0.718449 0.030882
vn 0.908282 0.256599 -0.330425
vn 0.0992779 0.991652 -0.0822787
vn -0.869971 -0.0416065 0.491344
vn 0.922157 -0.364631 -0.129113
vn -0.623844 0.780891 0.0320548
vn -0.98147 -0.188992 0.0315946
vn -0.969611 -0.243743 -0.0210869
vn -0.283739 -0.675264 0.680816
vn -0.00451366 0.325059 -0.945683
vn 0.728949 -0.211701 -0.651011
vn -0.404708 -0.894783 -0.188613
vn 0.567939 -0.351479 -0.74425
vn -0.780623 -0.0247004 -0.624513
vn -0.688766 0.569706 -0.448372
vn -0.780623 -0.0247004 -0.624513
vn 0.393328 -0.292441 -0.871648
vn -0.906232 0.265925 -0.328674
vn -0.185727 -0.668153 -0.72047
vn 0.91575 0.242785 -0.32009
vn 0.354182 0.873523 -0.333935
vn 0.930047 0.14129 -0.33919
vn -0.771446 -0.590079 -0.238073
vn 0.872559 0.286067 0.395988
vn 0.898788 0.354863 -0.257395
vn 0.354182 0.873523 -0.333935
vn -0.00451366 0.325059 -0.945683
vn -0.688766 0.569706 -0.448372
vn -0.665559 0.743296 0.0674036
vn -0.181008 -0.373193 -0.909925
vn -0.21692 -0.114296 -0.969475
vn 0.664362 0.396631 0.633488
vn 0.829087 -0.546383 0.118659
vn 0.434938 -0.757908 0.486214
vn 0.606095 0.099329 0.789166
vn 0.888458 0.378793 0.259149
vn 0.41362 -0.675664 0.610244
vn 0.0591599 -0.454117 0.888976
vn -0.818253 0.224145 -0.52936
vn -0.246024 -0.0238084 -0.968971
vn -0.688766 0.569706 -0.448372
vn -0.780623 -0.0247004 -0.624513
vn 0.317158 -0.92963 0.187615
vn -0.903886 -0.317781 0.286366
vn -0.97026 -0.178123 0.163914
vn 0.461632 0.846408 -0.265497
vn -0.398589 -0.155942 0.903775
g grp1
usemtl mtl1
f 12//12 101//101 11//11 
f 135//135 134//134 112//112 
f 44//44 135//135 112//112 
f 44//44 112//112 75//75 
f 44//44 75//75 69//69 
f 44//44 69//69 1//1 
f 63//63 44//44 1//1 
f 1//1 65//65 63//63 
f 158//158 125//125 157//157 
f 84//84 157//157 125//125 
f 84//84 125//125 7//7 
f 46//46 84//84 7//7 
f 46//46 7//7 60//60 
f 46//46 60//60 56//56 
f 46//46 56//56 101//101 
f 100//100 46//46 101//101 
f 12//12 100//100 101//101 
f 150//150 100//100 12//12 
f 32//32 100//100 150//150 
f 63//63 145//145 44//44 
f 146//146 157//157 84//84 
f 100//100 146//146 84//84 
f 84//84 46//46 100//100 
f 66//66 101//101 56//56 
f 66//66 56//56 4//4 
f 66//66 4//4 120//120 
f 124//124 66//66 120//120 
f 124//124 120//120 122//122 
f 80//80 172//172 171//171 
f 80//80 171//171 114//114 
f 80//80 114//114 39//39 
f 21//21 80//80 39//39 
f 21//21 39//39 117//117 
f 107//107 21//21 117//117 
f 107//107 117//117 42//42 
f 86//86 107//107 42//42 
f 42//42 5//5 86//86 
f 86//86 5//5 54//54 
f 86//86 54//54 55//55 
f 115//115 86//86 55//55 
f 55//55 52//52 115//115 
f 115//115 52//52 93//93 
f 43//43 115//115 93//93 
f 43//43 93//93 126//126 
f 126//126 13//13 43//43 
f 13//13 96//96 43//43 
f 86//86 43//43 96//96 
f 86//86 96//96 107//107 
f 96//96 37//37 107//107 
f 21//21 107//107 37//37 
f 37//37 94//94 21//21 
f 94//94 80//80 21//21 
f 94//94 172//172 80//80 
f 94//94 22//22 172//172 
f 139//139 66//66 124//124 
f 139//139 101//101 66//66 
f 139//139 11//11 101//101 
f 134//134 22//22 94//94 
f 134//134 94//94 112//112 
f 75//75 112//112 94//94 
f 75//75 94//94 37//37 
f 13//13 75//75 37//37 
f 13//13 37//37 96//96 
f 69//69 75//75 13//13 
f 69//69 13//13 73//73 
f 69//69 73//73 19//19 
f 89//89 69//69 19//19 
f 89//89 19//19 108//108 
f 89//89 166//166 65//65 
f 89//89 65//65 1//1 
f 89//89 1//1 69//69 
f 167//167 24//24 158//158 
f 158//158 24//24 125//125 
f 140//140 110//110 125//125 
f 7//7 125//125 110//110 
f 7//7 110//110 74//74 
f 7//7 74//74 60//60 
f 74//74 76//76 60//60 
f 60//60 76//76 105//105 
f 60//60 105//105 88//88 
f 56//56 60//60 88//88 
f 56//56 88//88 8//8 
f 4//4 56//56 8//8 
f 4//4 8//8 120//120 
f 120//120 8//8 103//103 
f 82//82 120//120 103//103 
f 82//82 103//103 27//27 
f 123//123 82//82 27//27 
f 123//123 27//27 113//113 
f 123//123 113//113 106//106 
f 18//18 123//123 106//106 
f 106//106 26//26 18//18 
f 39//39 18//18 26//26 
f 39//39 26//26 81//81 
f 117//117 39//39 81//81 
f 117//117 81//81 99//99 
f 42//42 117//117 99//99 
f 42//42 99//99 119//119 
f 42//42 119//119 5//5 
f 119//119 40//40 5//5 
f 5//5 40//40 54//54 
f 40//40 67//67 54//54 
f 54//54 67//67 47//47 
f 54//54 47//47 97//97 
f 55//55 54//54 97//97 
f 55//55 97//97 79//79 
f 55//55 79//79 92//92 
f 55//55 92//92 52//52 
f 52//52 92//92 15//15 
f 25//25 52//52 15//15 
f 15//15 104//104 25//25 
f 130//130 25//25 104//104 
f 130//130 104//104 50//50 
f 130//130 50//50 10//10 
f 102//102 130//130 10//10 
f 102//102 10//10 6//6 
f 9//9 102//102 6//6 
f 9//9 6//6 34//34 
f 9//9 34//34 36//36 
f 51//51 9//9 36//36 
f 153//153 148//148 17//17 
f 154//154 137//137 30//30 
f 168//168 155//155 142//142 
f 169//169 143//143 141//141 
f 144//144 138//138 140//140 
f 138//138 58//58 140//140 
f 140//140 58//58 110//110 
f 111//111 110//110 58//58 
f 111//111 58//58 121//121 
f 72//72 111//111 121//121 
f 72//72 121//121 3//3 
f 72//72 3//3 116//116 
f 72//72 116//116 48//48 
f 72//72 48//48 76//76 
f 111//111 72//72 76//76 
f 111//111 76//76 74//74 
f 111//111 74//74 110//110 
f 76//76 48//48 105//105 
f 48//48 132//132 105//105 
f 105//105 132//132 31//31 
f 105//105 31//31 88//88 
f 88//88 31//31 2//2 
f 8//8 88//88 2//2 
f 8//8 2//2 103//103 
f 103//103 2//2 128//128 
f 103//103 128//128 83//83 
f 103//103 83//83 27//27 
f 27//27 83//83 170//170 
f 170//170 83//83 78//78 
f 170//170 78//78 14//14 
f 113//113 136//136 106//106 
f 106//106 136//136 35//35 
f 106//106 35//35 26//26 
f 35//35 131//131 26//26 
f 81//81 26//26 131//131 
f 81//81 131//131 109//109 
f 99//99 81//81 109//109 
f 119//119 99//99 109//109 
f 119//119 109//109 40//40 
f 40//40 109//109 70//70 
f 40//40 70//70 67//67 
f 67//67 70//70 95//95 
f 118//118 159//159 162//162 
f 118//118 162//162 62//62 
f 85//85 118//118 62//62 
f 85//85 62//62 98//98 
f 85//85 98//98 90//90 
f 53//53 85//85 90//90 
f 53//53 90//90 160//160 
f 53//53 160//160 57//57 
f 33//33 53//53 57//57 
f 33//33 57//57 16//16 
f 41//41 33//33 16//16 
f 41//41 16//16 20//20 
f 49//49 41//41 20//20 
f 49//49 20//20 132//132 
f 48//48 49//49 132//132 
f 116//116 49//49 48//48 
f 116//116 91//91 49//49 
f 91//91 41//41 49//49 
f 41//41 91//91 68//68 
f 41//41 68//68 59//59 
f 41//41 59//59 33//33 
f 45//45 33//33 59//59 
f 45//45 59//59 163//163 
f 151//151 45//45 163//163 
f 118//118 45//45 151//151 
f 118//118 151//151 159//159 
f 85//85 45//45 118//118 
f 85//85 33//33 45//45 
f 33//33 85//85 53//53 
f 163//163 59//59 79//79 
f 79//79 59//59 77//77 
f 79//79 77//77 92//92 
f 15//15 92//92 77//77 
f 15//15 77//77 64//64 
f 15//15 64//64 104//104 
f 104//104 64//64 87//87 
f 152//152 104//104 87//87 
f 87//87 29//29 152//152 
f 129//129 152//152 29//29 
f 147//147 129//129 29//29 
f 147//147 29//29 23//23 
f 149//149 147//147 23//23 
f 149//149 23//23 138//138 
f 23//23 58//58 138//138 
f 58//58 23//23 121//121 
f 23//23 29//29 121//121 
f 29//29 3//3 121//121 
f 29//29 87//87 3//3 
f 3//3 87//87 116//116 
f 87//87 91//91 116//116 
f 87//87 64//64 91//91 
f 64//64 77//77 91//91 
f 77//77 68//68 91//91 
f 59//59 68//68 77//77 
f 173//173 34//34 6//6 
f 6//6 10//10 173//173 
f 10//10 50//50 173//173 
f 132//132 20//20 31//31 
f 20//20 57//57 31//31 
f 128//128 31//31 57//57 
f 128//128 57//57 83//83 
f 83//83 57//57 160//160 
f 2//2 31//31 128//128 
f 20//20 16//16 57//57 
f 14//14 78//78 161//161 
f 164//164 14//14 161//161 
f 136//136 165//165 71//71 
f 136//136 71//71 35//35 
f 35//35 71//71 174//174 
f 174//174 71//71 127//127 
f 38//38 174//174 127//127 
f 70//70 38//38 127//127 
f 95//95 70//70 127//127 
f 127//127 62//62 162//162 
f 61//61 62//62 127//127 
f 127//127 71//71 61//61 
f 165//165 61//61 71//71 
f 61//61 98//98 62//62 
f 109//109 38//38 70//70 
f 38//38 109//109 131//131 
f 108//108 133//133 156//156 
f 19//19 133//133 108//108 
f 19//19 102//102 133//133 
f 102//102 19//19 126//126 
f 126//126 28//28 102//102 
f 102//102 28//28 130//130 
f 28//28 25//25 130//130 
f 28//28 93//93 25//25 
f 93//93 52//52 25//25 
f 126//126 93//93 28//28 
f 19//19 73//73 126//126 
f 73//73 13//13 126//126 
f 114//114 18//18 39//39 
f 123//123 18//18 114//114 
f 114//114 82//82 123//123 
f 122//122 82//82 114//114 
f 122//122 120//120 82//82 
f 43//43 86//86 115//115 
