v 6.46226 -66.8521 1502.64
v 5.95196 -66.3535 1502.81
v 6.57655 -66.8686 1504.36
v 6.29672 -66.5994 1502.55
v 6.37315 -66.4218 1503.03
v 5.87444 -67.0239 1505.03
v 5.29089 -67.5879 1504.41
v 4.98909 -67.185 1504.19
v 5.38376 -67.6259 1503.46
v 5.82205 -66.4864 1502.49
v 5.07611 -67.471 1503.79
v 5.42815 -66.5777 1502.67
v 5.50936 -66.9505 1502.43
v 5.21599 -67.1915 1504.72
v 4.98533 -67.188 1503.41
v 5.20031 -66.9339 1504.58
v 5.17792 -66.5768 1503.75
v 5.12083 -66.697 1503.13
v 6.37709 -66.5617 1504.2
v 5.89415 -67.5493 1504.92
v 5.5543 -67.2287 1505.03
v 6.72435 -67.1023 1503.87
v 5.23984 -66.6959 1504.26
v 6.06567 -66.3209 1503.56
v 6.32936 -67.3957 1504.76
v 4.95755 -66.9124 1503.7
v 6.56951 -67.2483 1504.44
v 5.68135 -67.7134 1504.6
v 6.0405 -67.6862 1504.56
v 5.6383 -66.8105 1504.8
v 6.71565 -66.875 1503.29
v 6.59616 -66.6143 1503.09
v 6.14872 -66.6984 1504.62
v 5.70766 -66.7072 1502.34
v 6.42234 -67.551 1504.22
v 5.66721 -67.7479 1503.81
v 5.47236 -67.4592 1504.9
v 6.6085 -66.6227 1503.7
v 6.17565 -67.2049 1502.59
v 5.276 -67.3221 1502.94
v 6.30336 -67.1137 1504.87
v 5.68249 -66.4087 1504.03
v 6.49774 -67.4122 1503.36
v 5.51472 -66.3587 1503.29
v 6.07686 -66.7578 1502.34
v 6.09978 -67.7348 1503.93
v 5.7745 -67.3829 1502.72
v 6.51557 -67.109 1502.83
v 5.95057 -67.2983 1505.06
v 6.10036 -67.6256 1503.31
v 5.15387 -66.9942 1502.82
v 5.89632 -66.9918 1502.33
v 4.98909 -67.185 1504.19
v 5.82205 -66.4864 1502.49
v 5.50936 -66.9505 1502.43
v 5.50936 -66.9505 1502.43
v 5.21599 -67.1915 1504.72
v 5.21599 -67.1915 1504.72
v 5.20031 -66.9339 1504.58
v 5.5543 -67.2287 1505.03
v 5.5543 -67.2287 1505.03
v 5.5543 -67.2287 1505.03
v 6.72435 -67.1023 1503.87
v 5.23984 -66.6959 1504.26
v 6.56951 -67.2483 1504.44
v 5.70766 -66.7072 1502.34
v 5.70766 -66.7072 1502.34
v 6.07686 -66.7578 1502.34
v 6.07686 -66.7578 1502.34
v 6.51557 -67.109 1502.83
v 5.95057 -67.2983 1505.06
v 5.15387 -66.9942 1502.82
v 5.89632 -66.9918 1502.33
v 5.89632 -66.9918 1502.33
vn 0.79254 -0.0181501 -0.60955
vn 0.018694 0.966244 -0.25695
vn 0.82361 0.396019 0.405999
vn 0.529659 0.63637 -0.560799
vn 0.481874 0.863851 -0.146832
vn 0.0980804 0.471309 0.876497
vn -0.61803 -0.758123 0.208059
vn -0.926615 -0.348492 0.141202
vn -0.377534 -0.900197 -0.217056
vn 0.203941 0.68959 -0.694891
vn -0.765829 -0.638281 -0.0781272
vn -0.599131 0.641375 -0.479249
vn -0.702035 0.26761 -0.659948
vn -0.778799 -0.372366 0.504792
vn -0.958154 -0.209807 -0.194735
vn -0.906067 0.297777 0.300617
vn -0.648708 0.753625 0.105957
vn -0.847013 0.485785 -0.21583
vn 0.480651 0.81483 0.324077
vn 0.141341 -0.746679 0.649995
vn -0.443212 0.504895 0.740705
vn 0.965168 0.197528 0.17156
vn -0.861972 0.448082 0.237122
vn 0.174631 0.976774 0.124165
vn 0.634885 -0.533907 0.558448
vn -0.947129 0.316303 0.0538439
vn 0.89322 0.00237084 0.449614
vn -0.164069 -0.940511 0.297525
vn 0.281091 -0.928451 0.242831
vn -0.321491 0.697441 0.640484
vn 0.983804 -0.00777234 -0.179077
vn 0.832751 0.496089 -0.245808
vn 0.269539 0.798339 0.53852
vn -0.571849 0.478796 -0.666141
vn 0.684053 -0.7187 0.124667
vn -0.100837 -0.990322 -0.0953609
vn -0.435332 -0.577826 0.690365
vn 0.778171 0.619106 0.105633
vn 0.440058 -0.62548 -0.644302
vn -0.60599 -0.648654 -0.460461
vn 0.651486 0.19652 0.732766
vn -0.192228 0.936415 0.293555
vn 0.696013 -0.685158 -0.214765
vn -0.361501 0.930234 -0.0631095
vn 0.166429 0.586474 -0.792685
vn 0.318118 -0.946983 -0.0449827
vn -0.111923 -0.834911 -0.538885
vn 0.92778 -0.241637 -0.284315
vn 0.362263 -0.116466 0.924771
vn 0.237097 -0.918104 -0.317601
vn -0.729102 -0.457592 -0.50894
vn -0.0898734 -0.690501 -0.717726
vn -0.894827 0.335318 0.294697
vn -0.393547 0.80417 -0.445456
vn -0.425382 -0.59799 -0.679307
vn -0.271091 -0.15197 -0.950481
vn -0.529183 0.446402 0.721589
vn -0.906989 0.163042 0.388315
vn -0.488097 0.58671 0.646168
vn -0.0591332 0.107198 0.992478
vn -0.673853 -0.181158 0.716313
vn -0.14964 -0.460681 0.874861
vn 0.871164 -0.490247 -0.0270615
vn -0.409249 0.822972 0.393995
vn 0.81397 -0.544473 0.202489
vn -0.13149 -0.0582954 -0.989602
vn 0.0787734 0.531659 -0.843287
vn 0.0120286 0.0371159 -0.999239
vn 0.563161 -0.169678 -0.808739
vn 0.576277 -0.589082 -0.566469
vn -0.149784 -0.460387 0.87499
vn -0.854377 0.258344 -0.450886
vn -0.13149 -0.0582954 -0.989602
vn 0.483943 -0.335902 -0.808065
g grp1
usemtl mtl1
f 2//2 5//5 4//4 
f 32//32 1//1 4//4 
f 32//32 4//4 5//5 
f 48//48 1//1 31//31 
f 1//1 32//32 31//31 
f 38//38 31//31 32//32 
f 32//32 5//5 38//38 
f 10//10 2//2 4//4 
f 24//24 5//5 2//2 
f 22//22 31//31 38//38 
f 2//2 54//54 12//12 
f 44//44 2//2 12//12 
f 21//21 6//6 30//30 
f 15//15 40//40 11//11 
f 36//36 7//7 9//9 
f 7//7 11//11 9//9 
f 9//9 40//40 47//47 
f 9//9 11//11 40//40 
f 9//9 47//47 36//36 
f 49//49 6//6 60//60 
f 20//20 25//25 49//49 
f 28//28 20//20 37//37 
f 28//28 37//37 7//7 
f 25//25 20//20 29//29 
f 29//29 20//20 28//28 
f 35//35 25//25 29//29 
f 47//47 50//50 36//36 
f 12//12 34//34 13//13 
f 55//55 52//52 47//47 
f 40//40 51//51 55//55 
f 7//7 37//37 14//14 
f 11//11 7//7 8//8 
f 8//8 7//7 14//14 
f 15//15 11//11 8//8 
f 26//26 18//18 15//15 
f 18//18 12//12 72//72 
f 53//53 16//16 23//23 
f 64//64 59//59 30//30 
f 21//21 30//30 57//57 
f 61//61 14//14 37//37 
f 57//57 30//30 59//59 
f 26//26 17//17 18//18 
f 23//23 17//17 26//26 
f 15//15 8//8 26//26 
f 26//26 53//53 23//23 
f 16//16 53//53 58//58 
f 17//17 44//44 18//18 
f 34//34 12//12 54//54 
f 4//4 45//45 10//10 
f 43//43 48//48 31//31 
f 43//43 31//31 63//63 
f 38//38 3//3 22//22 
f 22//22 3//3 27//27 
f 33//33 3//3 19//19 
f 41//41 3//3 33//33 
f 27//27 3//3 41//41 
f 24//24 38//38 5//5 
f 24//24 2//2 44//44 
f 12//12 18//18 44//44 
f 42//42 44//44 17//17 
f 41//41 33//33 6//6 
f 49//49 41//41 6//6 
f 25//25 41//41 49//49 
f 35//35 65//65 25//25 
f 43//43 35//35 46//46 
f 50//50 43//43 46//46 
f 52//52 39//39 47//47 
f 68//68 73//73 66//66 
f 66//66 73//73 56//56 
f 63//63 65//65 35//35 
f 43//43 63//63 35//35 
f 50//50 47//47 39//39 
f 69//69 39//39 74//74 
f 4//4 1//1 69//69 
f 1//1 70//70 39//39 
f 1//1 39//39 69//69 
f 39//39 70//70 43//43 
f 39//39 43//43 50//50 
f 41//41 25//25 27//27 
f 10//10 45//45 67//67 
f 46//46 36//36 50//50 
f 6//6 33//33 30//30 
f 24//24 19//19 38//38 
f 42//42 24//24 44//44 
f 64//64 30//30 42//42 
f 33//33 19//19 24//24 
f 42//42 33//33 24//24 
f 33//33 42//42 30//30 
f 42//42 17//17 64//64 
f 3//3 38//38 19//19 
f 18//18 72//72 15//15 
f 13//13 72//72 12//12 
f 40//40 15//15 51//51 
f 47//47 40//40 55//55 
f 46//46 35//35 29//29 
f 36//36 46//46 29//29 
f 29//29 28//28 36//36 
f 36//36 28//28 7//7 
f 20//20 71//71 37//37 
f 71//71 62//62 37//37 
