v 0.0635579 -67.794 1500.66
v 0.183255 -67.8197 1500.74
v 0.0519018 -67.7319 1500.17
v 0.586694 -69.5134 1500.16
v 0.574447 -69.1895 1499.51
v 0.671499 -69.1503 1500.04
v 0.148169 -70.1052 1501.06
v 0.00936824 -70.086 1501.07
v 0.0822756 -70.0353 1500.58
v 0.253535 -70.0378 1500.75
v -0.125071 -70.0125 1501.32
v -0.0571953 -70.0117 1500.71
v 0.0348177 -68.2982 1498.42
v 0.116745 -68.0568 1498.57
v 0.164319 -68.1771 1498.46
v 0.118577 -68.3331 1498.37
v 0.246616 -68.3122 1498.44
v -0.184077 -69.0607 1498.91
v -0.0846641 -69.4536 1499.24
v -0.270865 -69.3886 1499.56
v -0.325957 -69.0191 1499.28
v -0.386608 -69.217 1499.79
v 0.556242 -68.2197 1499.38
v 0.592372 -68.1771 1499.89
v 0.668274 -68.4893 1499.91
v 0.0587977 -67.92 1498.79
v -0.0101397 -68.0825 1498.61
v 0.388355 -69.323 1499.14
v 0.499032 -69.4845 1499.68
v 0.376916 -69.6507 1499.69
v 0.476436 -69.7178 1500.18
v 0.305841 -69.8915 1500.2
v 0.266868 -69.6805 1499.58
v 0.397011 -69.8935 1500.47
v 0.188194 -69.9273 1500.16
v -0.321349 -68.4392 1501.49
v -0.345659 -68.271 1500.93
v -0.436351 -68.5888 1501.02
v -0.431073 -68.417 1500.42
v -0.477408 -68.7023 1500.49
v -0.467571 -69.0131 1501.08
v -0.406975 -68.8263 1501.6
v -0.431429 -69.4067 1501.01
v -0.387518 -69.5031 1501.5
v -0.352811 -68.1699 1500.16
v -0.24822 -68.0234 1500.62
v -0.192413 -67.8856 1499.85
v -0.174546 -67.8839 1500.36
v -0.08817 -67.7874 1500.14
v -0.0773793 -67.8589 1500.69
v 0.464842 -69.0116 1498.96
v 0.547639 -68.8053 1499.06
v 0.669152 -68.8418 1499.72
v 0.625099 -68.5833 1499.4
v -0.356915 -68.2431 1499.62
v -0.263588 -68.0217 1499.55
v 0.00969839 -67.733 1499.75
v -0.25811 -68.1513 1499.17
v -0.14655 -67.8912 1499.34
v -0.0375779 -67.7926 1499.34
v 0.187607 -67.728 1499.56
v 0.0640421 -67.7953 1499.14
v -0.0693343 -67.939 1498.93
v -0.165222 -68.159 1498.81
v 0.159496 -67.8724 1498.89
v 0.263249 -68.0984 1498.62
v 0.358927 -68.0673 1498.81
v 0.395589 -68.2632 1498.7
v 0.448792 -68.0852 1499.07
v 0.527742 -68.395 1499.01
v 0.254857 -68.5941 1498.42
v 0.353979 -68.5238 1498.53
v 0.172296 -68.489 1498.36
v 0.48169 -68.5304 1498.81
v 0.313196 -68.8159 1498.55
v 0.446262 -68.7382 1498.74
v 0.207813 -67.7268 1499.99
v 0.324819 -67.9114 1499.04
v 0.221515 -67.788 1499.22
v 0.369295 -67.8413 1500.28
v 0.332156 -67.8046 1499.6
v 0.460807 -67.9435 1499.69
v 0.254702 -69.2436 1498.85
v 0.183039 -69.5341 1499.23
v 0.0783422 -69.7476 1499.65
v 0.0346438 -69.9163 1500.14
v 0.116702 -69.1954 1498.75
v 0.0559987 -69.5022 1499.17
v -0.0713093 -69.7393 1499.77
v 0.00501901 -69.232 1498.82
v -0.178997 -69.6706 1499.84
v -0.0980714 -69.1533 1498.83
v -0.441717 -69.2882 1500.5
v -0.467542 -68.9898 1500.2
v -0.4439 -68.5852 1499.93
v -0.327573 -69.6811 1500.66
v -0.382125 -68.4931 1499.43
v -0.418057 -68.8729 1499.61
v -0.339813 -68.7214 1499.16
v -0.300558 -69.6096 1500.19
v -0.316894 -69.7404 1501.09
v -0.19641 -69.8974 1500.74
v -0.127135 -69.8748 1500.3
v -0.065534 -68.2381 1498.54
v -0.278838 -68.4483 1498.95
v -0.153092 -68.3962 1498.63
v -0.187355 -68.7192 1498.71
v -0.042269 -68.5856 1498.45
v 0.312096 -69.0566 1498.71
v 0.207224 -68.9237 1498.52
v 0.0682431 -68.8414 1498.47
v -0.0510037 -68.9344 1498.6
v 0.152768 -68.6848 1498.38
v 0.0600788 -68.5359 1498.37
v -0.241869 -69.8401 1501.67
v 0.0474378 -69.698 1502.74
v 0.122342 -69.8136 1502.64
v 0.234336 -69.6774 1502.72
v 0.138612 -69.5519 1502.85
v 0.0248389 -69.5012 1502.84
v 0.649685 -69.4716 1500.77
v 0.707064 -69.1809 1500.86
v 0.625322 -69.4958 1501.54
v 0.536282 -69.7788 1501.36
v 0.570946 -69.6949 1500.79
v 0.444747 -69.9046 1500.89
v 0.290034 -70.0692 1501.17
v -0.172724 -68.4606 1502
v -0.326338 -68.6977 1501.88
v -0.24606 -68.7901 1502.23
v -0.331015 -68.9893 1502.1
v -0.236941 -69.2851 1502.44
v -0.3927 -69.2315 1501.81
v -0.171429 -68.1155 1501.3
v -0.074874 -68.1887 1501.71
v 0.0367052 -67.9629 1501.25
v 0.716748 -68.8023 1500.59
v -0.0424652 -68.5895 1502.39
v 0.0149762 -68.3145 1502.04
v 0.0552049 -68.1112 1501.67
v 0.29144 -67.8564 1500.76
v 0.276185 -68.0384 1501.39
v 0.112036 -68.5235 1502.38
v 0.168895 -68.2715 1501.99
v 0.279964 -68.4796 1502.25
v 0.330797 -68.2205 1501.74
v 0.389699 -68.4494 1502.05
v 0.500067 -68.3913 1501.66
v 0.652368 -68.3639 1500.47
v 0.498741 -68.7312 1502.13
v 0.601361 -68.5716 1501.55
v 0.612573 -68.9142 1501.84
v 0.686216 -68.7433 1501.17
v 0.58961 -68.3315 1501.11
v 0.657467 -69.1865 1501.62
v 0.482187 -68.172 1501.22
v 0.419914 -67.9855 1500.87
v 0.555283 -68.1205 1500.54
v 0.503274 -69.7146 1501.99
v 0.441124 -69.8944 1501.8
v 0.376183 -70.0054 1501.45
v 0.189321 -70.1094 1501.49
v 0.375889 -69.8437 1502.25
v 0.260775 -70.0415 1501.89
v 0.0681095 -70.1009 1501.71
v 0.099859 -70.0413 1502.13
v 0.252904 -69.9778 1502.21
v 0.257784 -69.8428 1502.5
v 0.111151 -69.9368 1502.43
v 0.403151 -69.6229 1502.49
v -0.0987814 -68.789 1502.52
v -0.326188 -69.5369 1501.95
v -0.187039 -68.9806 1502.5
v -0.241185 -69.6672 1502.18
v -0.191858 -69.589 1502.45
v -0.106063 -69.5688 1502.66
v -0.0685613 -69.1337 1502.75
v -0.0669926 -69.4302 1502.77
v -0.037912 -69.8234 1502.49
v 0.0263247 -69.2742 1502.87
v -0.0322647 -70.043 1501.88
v -0.133297 -69.9126 1502.07
v -0.00414641 -69.9653 1502.28
v 0.359537 -68.7136 1502.42
v 0.0281393 -68.8717 1502.7
v 0.0816473 -68.707 1502.59
v 0.245015 -68.8196 1502.64
v 0.147186 -68.9478 1502.78
v 0.401024 -68.9807 1502.55
v 0.0525364 -69.1099 1502.85
v 0.145687 -69.1964 1502.88
v 0.266678 -69.1098 1502.79
v 0.354784 -69.3625 1502.71
v 0.140138 -69.3634 1502.9
v 0.236023 -69.4026 1502.85
v 0.548872 -69.5086 1502.09
v 0.516314 -69.3583 1502.31
v 0.482008 -69.1664 1502.43
v 0.164319 -68.1771 1498.46
v 0.118577 -68.3331 1498.37
v 0.122342 -69.8136 1502.64
v 0.140138 -69.3634 1502.9
vn -0.155951 0.968225 0.195499
vn 0.197023 0.962149 0.188285
vn -0.162868 0.982349 0.0920019
vn 0.9224 -0.362311 -0.133822
vn 0.933172 -0.281573 -0.223399
vn 0.982279 -0.163375 -0.0918533
vn 0.0928964 -0.992093 -0.0843886
vn -0.287038 -0.956416 -0.0536471
vn -0.0825008 -0.979103 -0.185878
vn 0.401466 -0.903069 -0.152617
vn -0.653983 -0.756508 -0.00136712
vn -0.496261 -0.856495 -0.14192
vn -0.531515 0.344217 -0.773955
vn -0.0182424 0.754166 -0.65643
vn -0.252824 0.55599 -0.791805
vn -0.248338 0.253616 -0.934884
vn 0.655287 0.259829 -0.709287
vn -0.849259 -0.362996 -0.383397
vn -0.630032 -0.665517 -0.400185
vn -0.85955 -0.435445 -0.267512
vn -0.936925 -0.228562 -0.264444
vn -0.955845 -0.252843 -0.149768
vn 0.947731 0.290447 -0.132086
vn 0.935322 0.351856 -0.0370049
vn 0.987237 0.146077 -0.0634438
vn -0.292538 0.850568 -0.436985
vn -0.57694 0.605767 -0.547893
vn 0.720215 -0.571666 -0.39305
vn 0.841622 -0.479367 -0.248757
vn 0.674048 -0.673961 -0.302382
vn 0.793667 -0.582275 -0.176205
vn 0.527138 -0.812731 -0.248182
vn 0.410382 -0.829567 -0.378689
vn 0.665882 -0.730131 -0.153328
vn 0.178432 -0.942345 -0.283105
vn -0.903982 0.380439 0.195146
vn -0.906458 0.406455 0.114581
vn -0.97561 0.199469 0.0916353
vn -0.969613 0.244054 0.0169762
vn -0.996884 0.0788043 0.00357002
vn -0.998393 -0.0289338 0.0487309
vn -0.979123 0.14067 0.146732
vn -0.973272 -0.229628 0.00367609
vn -0.968865 -0.236198 0.0742366
vn -0.925339 0.379137 0.00180946
vn -0.820363 0.562187 0.104647
vn -0.761999 0.647232 -0.0211592
vn -0.730556 0.677838 0.0826054
vn -0.54585 0.836311 0.0513038
vn -0.536225 0.82602 0.173649
vn 0.871607 -0.316652 -0.374209
vn 0.960588 -0.114974 -0.253085
vn 0.99068 -0.0565533 -0.123919
vn 0.983053 0.0631219 -0.172111
vn -0.95844 0.270276 -0.0913446
vn -0.883732 0.459609 -0.0881853
vn -0.298757 0.953391 -0.0423057
vn -0.911852 0.360515 -0.196354
vn -0.771914 0.617269 -0.152077
vn -0.5366 0.831582 -0.14329
vn 0.171242 0.981437 -0.0863561
vn -0.191185 0.955588 -0.224278
vn -0.673346 0.678939 -0.292655
vn -0.864372 0.370835 -0.33962
vn 0.253412 0.88226 -0.396736
vn 0.597571 0.611175 -0.519013
vn 0.783351 0.511241 -0.353544
vn 0.874392 0.267828 -0.404607
vn 0.874858 0.441242 -0.199821
vn 0.952819 0.184834 -0.240776
vn 0.628721 -0.134262 -0.765953
vn 0.845088 0.0143939 -0.534433
vn 0.312281 0.0160253 -0.949855
vn 0.945387 0.0412014 -0.323336
vn 0.754003 -0.285479 -0.591593
vn 0.898824 -0.145707 -0.413381
vn 0.259043 0.964987 0.0411973
vn 0.655225 0.704624 -0.272368
vn 0.356755 0.912012 -0.202387
vn 0.628237 0.775212 0.0660669
vn 0.651993 0.754067 -0.0792996
vn 0.837973 0.542624 -0.0579769
vn 0.425305 -0.690146 -0.585503
vn 0.258966 -0.826531 -0.499784
vn -0.126554 -0.907943 -0.399528
vn -0.279187 -0.920502 -0.27337
vn -0.0377878 -0.721761 -0.69111
vn -0.209636 -0.829046 -0.518397
vn -0.50196 -0.799731 -0.329342
vn -0.414208 -0.682797 -0.601847
vn -0.741859 -0.616718 -0.263256
vn -0.694582 -0.523491 -0.49347
vn -0.974667 -0.215566 -0.0596251
vn -0.995754 -0.0714951 -0.0579936
vn -0.990346 0.122356 -0.0651494
vn -0.910205 -0.407784 -0.0723801
vn -0.980598 0.118812 -0.155922
vn -0.986927 -0.069075 -0.145613
vn -0.967728 -0.0513679 -0.246707
vn -0.874213 -0.46165 -0.150433
vn -0.890188 -0.455593 -0.000795788
vn -0.768597 -0.632577 -0.0954232
vn -0.641146 -0.739776 -0.204118
vn -0.76671 0.325394 -0.55342
vn -0.952972 0.116774 -0.279659
vn -0.870584 0.106202 -0.480421
vn -0.900227 -0.135238 -0.413886
vn -0.727438 -0.103391 -0.67834
vn 0.678252 -0.488084 -0.549317
vn 0.36021 -0.51927 -0.774989
vn -0.302195 -0.455536 -0.837356
vn -0.625777 -0.436433 -0.646475
vn 0.160982 -0.296776 -0.94128
vn -0.344906 -0.0729481 -0.935798
vn -0.859749 -0.503034 0.0882512
vn -0.320463 -0.606953 0.727263
vn 0.30954 -0.709953 0.632576
vn 0.557881 -0.500782 0.661805
vn 0.1435 -0.429076 0.891797
vn -0.497478 -0.290767 0.817294
vn 0.962616 -0.269681 -0.0253446
vn 0.995648 -0.091345 0.018463
vn 0.969415 -0.233623 0.0752059
vn 0.896447 -0.44221 0.0288534
vn 0.892033 -0.447488 -0.0634887
vn 0.757163 -0.649321 -0.0713226
vn 0.488024 -0.871408 -0.0498077
vn -0.769282 0.53214 0.3536
vn -0.924127 0.295561 0.242141
vn -0.878794 0.322742 0.351508
vn -0.959213 0.112528 0.259323
vn -0.940202 -0.054431 0.336241
vn -0.986021 -0.0554033 0.157139
vn -0.730118 0.642888 0.231566
vn -0.54684 0.761553 0.347855
vn -0.233123 0.926274 0.296092
vn 0.999129 0.0400997 -0.0115659
vn -0.512904 0.650746 0.559874
vn -0.353566 0.798211 0.487699
vn -0.116257 0.910922 0.395862
vn 0.459667 0.868613 0.184981
vn 0.377991 0.871395 0.31272
vn 0.0316201 0.786029 0.61738
vn 0.179825 0.862131 0.473702
vn 0.473825 0.706406 0.525814
vn 0.59615 0.720119 0.355013
vn 0.746156 0.549811 0.375447
vn 0.844326 0.471176 0.255162
vn 0.967921 0.249319 0.0311189
vn 0.901728 0.301293 0.310016
vn 0.942988 0.275122 0.187302
vn 0.973649 0.105673 0.202089
vn 0.988281 0.124486 0.0883364
vn 0.922557 0.363105 0.130547
vn 0.990682 -0.0415278 0.129711
vn 0.782092 0.587144 0.208795
vn 0.713028 0.680631 0.168324
vn 0.869234 0.489801 0.0672882
vn 0.914389 -0.371225 0.161505
vn 0.797582 -0.591346 0.119052
vn 0.674393 -0.737637 0.0329688
vn 0.207574 -0.977664 0.0329468
vn 0.774076 -0.584708 0.24274
vn 0.470266 -0.871089 0.141614
vn -0.163289 -0.983528 0.0775187
vn -0.0332831 -0.972595 0.230109
vn 0.458525 -0.843361 0.280174
vn 0.568042 -0.693793 0.442697
vn -0.0258608 -0.902368 0.430191
vn 0.870593 -0.333632 0.361605
vn -0.743459 0.426557 0.51509
vn -0.958046 -0.231896 0.168439
vn -0.883646 0.197309 0.424544
vn -0.906484 -0.35632 0.226545
vn -0.894426 -0.304998 0.327076
vn -0.803922 -0.325207 0.497946
vn -0.772712 0.198958 0.60277
vn -0.800981 -0.0926281 0.59148
vn -0.659711 -0.627456 0.413617
vn -0.479149 0.0495635 0.876333
vn -0.549834 -0.825666 0.126327
vn -0.765116 -0.611153 0.202707
vn -0.485037 -0.820909 0.30141
vn 0.736398 0.473505 0.48323
vn -0.459931 0.515484 0.723007
vn -0.079594 0.687638 0.721678
vn 0.486603 0.56617 0.665333
vn 0.147914 0.509142 0.847877
vn 0.837895 0.248292 0.486089
vn -0.342198 0.340734 0.875672
vn 0.206337 0.21306 0.955003
vn 0.648585 0.245867 0.720338
vn 0.859549 -0.078088 0.505053
vn -0.23491 -0.0887413 0.967958
vn 0.61987 -0.112534 0.776593
vn 0.959721 -0.201804 0.195476
vn 0.95811 -0.0734315 0.276825
vn 0.938129 0.078223 0.337335
vn 0.487649 0.515176 -0.704835
vn 0.437723 0.288202 -0.851668
vn -0.414718 -0.758073 0.503323
vn 0.464624 -0.0800784 0.88188
g grp1
usemtl mtl1
f 1//1 2//2 3//3 
f 4//4 5//5 6//6 
f 7//7 8//8 9//9 
f 10//10 7//7 9//9 
f 8//8 11//11 12//12 
f 13//13 14//14 15//15 
f 16//16 13//13 15//15 
f 200//200 199//199 17//17 
f 18//18 19//19 20//20 
f 21//21 18//18 20//20 
f 21//21 20//20 22//22 
f 23//23 24//24 25//25 
f 26//26 14//14 27//27 
f 28//28 29//29 30//30 
f 31//31 29//29 4//4 
f 5//5 4//4 29//29 
f 30//30 29//29 31//31 
f 30//30 31//31 32//32 
f 33//33 30//30 32//32 
f 34//34 32//32 31//31 
f 32//32 10//10 35//35 
f 36//36 37//37 38//38 
f 37//37 39//39 38//38 
f 39//39 40//40 38//38 
f 41//41 42//42 38//38 
f 40//40 41//41 38//38 
f 41//41 43//43 44//44 
f 45//45 39//39 37//37 
f 45//45 37//37 46//46 
f 47//47 45//45 46//46 
f 46//46 48//48 47//47 
f 49//49 48//48 50//50 
f 48//48 46//46 50//50 
f 49//49 50//50 3//3 
f 3//3 50//50 1//1 
f 28//28 51//51 5//5 
f 51//51 52//52 5//5 
f 6//6 5//5 53//53 
f 5//5 52//52 53//53 
f 52//52 54//54 53//53 
f 54//54 25//25 53//53 
f 55//55 45//45 56//56 
f 45//45 47//47 56//56 
f 47//47 48//48 49//49 
f 47//47 49//49 57//57 
f 49//49 3//3 57//57 
f 55//55 56//56 58//58 
f 58//58 56//56 59//59 
f 47//47 59//59 56//56 
f 57//57 60//60 47//47 
f 47//47 60//60 59//59 
f 61//61 62//62 57//57 
f 60//60 57//57 62//62 
f 58//58 63//63 64//64 
f 59//59 63//63 58//58 
f 59//59 60//60 63//63 
f 60//60 62//62 63//63 
f 65//65 26//26 62//62 
f 62//62 26//26 63//63 
f 64//64 63//63 27//27 
f 63//63 26//26 27//27 
f 17//17 199//199 66//66 
f 67//67 68//68 66//66 
f 66//66 68//68 17//17 
f 67//67 69//69 68//68 
f 69//69 70//70 68//68 
f 69//69 23//23 70//70 
f 23//23 54//54 70//70 
f 71//71 17//17 72//72 
f 17//17 71//71 73//73 
f 72//72 68//68 74//74 
f 17//17 68//68 72//72 
f 74//74 68//68 70//70 
f 54//54 52//52 74//74 
f 54//54 74//74 70//70 
f 75//75 72//72 76//76 
f 72//72 74//74 76//76 
f 74//74 52//52 76//76 
f 52//52 51//51 76//76 
f 75//75 76//76 51//51 
f 2//2 77//77 3//3 
f 14//14 26//26 65//65 
f 66//66 14//14 65//65 
f 14//14 66//66 199//199 
f 78//78 65//65 79//79 
f 62//62 61//61 79//79 
f 3//3 77//77 57//57 
f 61//61 57//57 77//77 
f 77//77 80//80 81//81 
f 65//65 78//78 66//66 
f 66//66 78//78 67//67 
f 78//78 79//79 81//81 
f 79//79 61//61 81//81 
f 80//80 82//82 81//81 
f 77//77 81//81 61//61 
f 67//67 78//78 69//69 
f 23//23 69//69 82//82 
f 78//78 81//81 69//69 
f 69//69 81//81 82//82 
f 24//24 23//23 82//82 
f 10//10 9//9 35//35 
f 83//83 28//28 84//84 
f 30//30 33//33 28//28 
f 28//28 33//33 84//84 
f 84//84 33//33 85//85 
f 32//32 35//35 33//33 
f 85//85 33//33 35//35 
f 85//85 35//35 86//86 
f 35//35 9//9 86//86 
f 83//83 84//84 87//87 
f 88//88 84//84 85//85 
f 85//85 86//86 89//89 
f 84//84 88//88 87//87 
f 87//87 88//88 90//90 
f 90//90 88//88 19//19 
f 85//85 19//19 88//88 
f 85//85 89//89 19//19 
f 19//19 89//89 91//91 
f 90//90 19//19 92//92 
f 43//43 41//41 93//93 
f 93//93 41//41 94//94 
f 94//94 41//41 40//40 
f 94//94 40//40 95//95 
f 39//39 95//95 40//40 
f 96//96 43//43 93//93 
f 95//95 97//97 98//98 
f 95//95 98//98 94//94 
f 99//99 98//98 97//97 
f 93//93 22//22 100//100 
f 22//22 94//94 98//98 
f 94//94 22//22 93//93 
f 98//98 21//21 22//22 
f 44//44 43//43 101//101 
f 9//9 8//8 12//12 
f 11//11 102//102 12//12 
f 102//102 11//11 101//101 
f 96//96 102//102 101//101 
f 43//43 96//96 101//101 
f 9//9 12//12 86//86 
f 86//86 12//12 103//103 
f 86//86 103//103 89//89 
f 103//103 102//102 100//100 
f 12//12 102//102 103//103 
f 100//100 102//102 96//96 
f 93//93 100//100 96//96 
f 103//103 91//91 89//89 
f 103//103 100//100 91//91 
f 100//100 20//20 91//91 
f 22//22 20//20 100//100 
f 19//19 91//91 20//20 
f 14//14 13//13 27//27 
f 27//27 13//13 104//104 
f 55//55 95//95 45//45 
f 45//45 95//95 39//39 
f 97//97 55//55 58//58 
f 97//97 58//58 105//105 
f 58//58 64//64 105//105 
f 106//106 64//64 104//104 
f 64//64 106//106 105//105 
f 64//64 27//27 104//104 
f 13//13 106//106 104//104 
f 55//55 97//97 95//95 
f 99//99 97//97 105//105 
f 105//105 106//106 107//107 
f 108//108 107//107 106//106 
f 99//99 105//105 107//107 
f 99//99 107//107 21//21 
f 18//18 21//21 107//107 
f 19//19 18//18 92//92 
f 28//28 83//83 109//109 
f 51//51 28//28 109//109 
f 109//109 83//83 110//110 
f 83//83 87//87 110//110 
f 111//111 87//87 112//112 
f 112//112 87//87 90//90 
f 90//90 92//92 112//112 
f 92//92 18//18 112//112 
f 18//18 107//107 112//112 
f 110//110 75//75 109//109 
f 109//109 75//75 51//51 
f 71//71 75//75 110//110 
f 71//71 110//110 113//113 
f 87//87 111//111 110//110 
f 110//110 111//111 113//113 
f 112//112 107//107 108//108 
f 112//112 108//108 111//111 
f 71//71 113//113 73//73 
f 72//72 75//75 71//71 
f 73//73 113//113 114//114 
f 111//111 108//108 114//114 
f 111//111 114//114 113//113 
f 106//106 13//13 108//108 
f 108//108 13//13 114//114 
f 17//17 73//73 200//200 
f 114//114 13//13 16//16 
f 73//73 114//114 16//16 
f 99//99 21//21 98//98 
f 62//62 79//79 65//65 
f 54//54 23//23 25//25 
f 5//5 29//29 28//28 
f 32//32 34//34 10//10 
f 101//101 115//115 44//44 
f 11//11 115//115 101//101 
f 77//77 2//2 80//80 
f 116//116 117//117 118//118 
f 118//118 119//119 116//116 
f 119//119 120//120 116//116 
f 121//121 122//122 123//123 
f 123//123 124//124 121//121 
f 124//124 125//125 121//121 
f 121//121 125//125 4//4 
f 125//125 31//31 4//4 
f 125//125 124//124 126//126 
f 126//126 31//31 125//125 
f 126//126 34//34 31//31 
f 10//10 34//34 126//126 
f 126//126 127//127 10//10 
f 128//128 129//129 130//130 
f 42//42 129//129 36//36 
f 130//130 129//129 131//131 
f 36//36 38//38 42//42 
f 129//129 42//42 131//131 
f 132//132 131//131 133//133 
f 131//131 42//42 133//133 
f 41//41 133//133 42//42 
f 133//133 41//41 44//44 
f 134//134 36//36 128//128 
f 134//134 37//37 36//36 
f 135//135 134//134 128//128 
f 134//134 46//46 37//37 
f 135//135 136//136 134//134 
f 136//136 50//50 134//134 
f 134//134 50//50 46//46 
f 136//136 1//1 50//50 
f 6//6 121//121 4//4 
f 121//121 6//6 122//122 
f 6//6 137//137 122//122 
f 137//137 53//53 25//25 
f 6//6 53//53 137//137 
f 138//138 139//139 128//128 
f 128//128 139//139 135//135 
f 139//139 140//140 135//135 
f 135//135 140//140 136//136 
f 136//136 2//2 1//1 
f 141//141 2//2 142//142 
f 138//138 143//143 139//139 
f 143//143 144//144 139//139 
f 139//139 144//144 140//140 
f 144//144 142//142 140//140 
f 140//140 142//142 136//136 
f 2//2 136//136 142//142 
f 143//143 145//145 144//144 
f 145//145 146//146 144//144 
f 145//145 147//147 146//146 
f 142//142 144//144 146//146 
f 148//148 146//146 147//147 
f 25//25 24//24 149//149 
f 148//148 150//150 151//151 
f 150//150 152//152 151//151 
f 151//151 153//153 154//154 
f 152//152 153//153 151//151 
f 154//154 153//153 149//149 
f 137//137 149//149 153//153 
f 149//149 137//137 25//25 
f 152//152 155//155 153//153 
f 153//153 122//122 137//137 
f 153//153 155//155 122//122 
f 155//155 123//123 122//122 
f 147//147 150//150 148//148 
f 148//148 156//156 146//146 
f 146//146 156//156 142//142 
f 156//156 157//157 142//142 
f 142//142 157//157 141//141 
f 2//2 141//141 80//80 
f 151//151 154//154 148//148 
f 148//148 154//154 156//156 
f 156//156 158//158 157//157 
f 141//141 157//157 80//80 
f 157//157 158//158 80//80 
f 149//149 158//158 154//154 
f 82//82 80//80 158//158 
f 82//82 158//158 24//24 
f 158//158 149//149 24//24 
f 123//123 159//159 124//124 
f 159//159 160//160 124//124 
f 160//160 161//161 124//124 
f 124//124 161//161 126//126 
f 126//126 161//161 127//127 
f 162//162 127//127 161//161 
f 10//10 127//127 7//7 
f 127//127 162//162 7//7 
f 163//163 160//160 159//159 
f 161//161 160//160 164//164 
f 160//160 163//163 164//164 
f 161//161 164//164 162//162 
f 165//165 162//162 164//164 
f 166//166 165//165 164//164 
f 164//164 163//163 167//167 
f 166//166 164//164 167//167 
f 167//167 168//168 169//169 
f 167//167 163//163 168//168 
f 163//163 170//170 168//168 
f 168//168 118//118 117//117 
f 128//128 130//130 171//171 
f 133//133 172//172 132//132 
f 132//132 173//173 131//131 
f 131//131 173//173 130//130 
f 171//171 130//130 173//173 
f 174//174 132//132 172//172 
f 174//174 175//175 132//132 
f 176//176 132//132 175//175 
f 132//132 177//177 173//173 
f 132//132 178//178 177//177 
f 175//175 179//179 176//176 
f 132//132 176//176 178//178 
f 180//180 178//178 120//120 
f 180//180 177//177 178//178 
f 178//178 176//176 120//120 
f 179//179 116//116 176//176 
f 176//176 116//116 120//120 
f 44//44 115//115 172//172 
f 7//7 162//162 8//8 
f 162//162 165//165 8//8 
f 8//8 165//165 11//11 
f 165//165 181//181 11//11 
f 11//11 181//181 115//115 
f 172//172 115//115 174//174 
f 115//115 181//181 182//182 
f 174//174 115//115 182//182 
f 175//175 174//174 179//179 
f 174//174 182//182 179//179 
f 165//165 166//166 181//181 
f 166//166 183//183 181//181 
f 169//169 183//183 166//166 
f 166//166 167//167 169//169 
f 182//182 181//181 183//183 
f 182//182 183//183 179//179 
f 179//179 201//201 116//116 
f 169//169 201//201 179//179 
f 179//179 183//183 169//169 
f 147//147 184//184 150//150 
f 147//147 145//145 184//184 
f 138//138 128//128 171//171 
f 171//171 185//185 138//138 
f 143//143 138//138 186//186 
f 138//138 185//185 186//186 
f 186//186 187//187 143//143 
f 186//186 188//188 187//187 
f 143//143 187//187 145//145 
f 187//187 184//184 145//145 
f 184//184 187//187 189//189 
f 173//173 177//177 171//171 
f 171//171 177//177 185//185 
f 177//177 190//190 185//185 
f 186//186 185//185 188//188 
f 185//185 190//190 188//188 
f 188//188 190//190 191//191 
f 188//188 192//192 187//187 
f 187//187 192//192 189//189 
f 193//193 189//189 192//192 
f 177//177 180//180 190//190 
f 190//190 180//180 191//191 
f 180//180 194//194 191//191 
f 188//188 191//191 192//192 
f 193//193 192//192 195//195 
f 191//191 202//202 195//195 
f 191//191 195//195 192//192 
f 120//120 119//119 194//194 
f 194//194 180//180 120//120 
f 195//195 202//202 119//119 
f 195//195 119//119 118//118 
f 123//123 196//196 159//159 
f 163//163 159//159 170//170 
f 196//196 170//170 159//159 
f 196//196 197//197 170//170 
f 168//168 170//170 118//118 
f 118//118 193//193 195//195 
f 118//118 170//170 193//193 
f 196//196 123//123 155//155 
f 155//155 197//197 196//196 
f 197//197 193//193 170//170 
f 198//198 193//193 197//197 
f 189//189 193//193 198//198 
f 155//155 152//152 197//197 
f 152//152 198//198 197//197 
f 152//152 150//150 198//198 
f 189//189 198//198 150//150 
f 189//189 150//150 184//184 
f 133//133 44//44 172//172 
f 169//169 168//168 117//117 
f 156//156 154//154 158//158 
f 129//129 128//128 36//36 
