v 4.73561 -94.1129 1538.09
v 5.18049 -93.8898 1537
v 5.11153 -93.1587 1537.77
v 3.7874 -93.6199 1539.79
v 3.35111 -94.5919 1540.09
v 2.8746 -94.0177 1540.59
v 2.74729 -94.6567 1540.54
v 4.81002 -92.1371 1538.22
v 3.3322 -93.0332 1540.11
v 4.26721 -91.7265 1538.68
v 3.18039 -91.1003 1539.15
v 2.55068 -92.8623 1540.32
v 5.14251 -91.8364 1537.32
v 5.37683 -92.6862 1536.64
v 4.66811 -91.199 1537.73
v 3.65461 -94.8944 1539.26
v 2.89992 -95.1732 1539.74
v 3.99854 -95.2278 1537.18
v 2.16294 -94.9061 1540.44
v 1.79623 -95.2372 1539.56
v 2.6564 -95.5977 1537.26
v 1.50035 -94.7693 1540.17
v 1.75406 -94.5175 1540.6
v 5.28989 -93.724 1536.32
v 5.18228 -93.7894 1535.62
v 5.32772 -93.137 1535.86
v 5.03698 -94.3398 1536.19
v 4.85961 -94.3612 1535.43
v 4.74311 -94.6474 1537.04
v 4.17888 -95.0665 1535.69
v 2.17853 -94.3646 1540.73
v 2.03239 -93.7657 1540.68
v 1.72255 -94.1088 1540.66
v 1.45177 -94.3322 1540.47
v 1.42539 -93.7074 1540.41
v 5.14532 -93.2311 1535.19
v 5.11779 -92.3981 1535.18
v 5.25198 -92.0962 1535.8
v 1.70159 -92.9368 1540.24
v 5.03552 -91.7844 1535.33
v 5.19288 -91.6874 1536.56
v 4.86345 -91.1467 1536.77
v 4.9946 -91.482 1535.74
v 3.86653 -90.6 1538.21
v 3.87059 -90.1732 1537.05
v 3.15647 -89.7697 1537.68
v 2.58632 -89.9527 1538.36
v 1.99773 -91.0353 1539.25
v 3.28223 -95.1741 1535
v 4.10805 -94.835 1535
v 3.00125 -95.4718 1535.85
v 0.0813254 -94.6808 1537.62
v 4.94986 -93.7745 1534.99
v 4.49099 -94.0532 1534.57
v 0.945654 -94.2835 1539.83
v 1.06462 -93.8809 1540.11
v 0.192072 -92.0365 1538.75
v -0.169815 -93.0461 1538.52
v -0.372699 -93.7445 1537.88
v 4.82855 -93.199 1534.62
v 4.77845 -92.3625 1534.63
v 4.38399 -93.479 1534.21
v 4.39299 -92.8441 1534.19
v 4.78228 -91.447 1535.24
v 4.57925 -90.9262 1535.92
v 4.77685 -91.7738 1534.91
v 4.1864 -91.06 1535
v 4.18101 -91.8022 1534.36
v 3.8178 -90.3329 1535.9
v 0.768361 -90.9795 1538.68
v 2.55013 -89.5688 1536.47
v 3.01005 -90.3668 1535.01
v 2.37053 -89.4877 1537.61
v 1.86294 -89.6081 1537.86
v 1.49814 -90.193 1538.46
v 3.73464 -94.3827 1534.26
v 3.17981 -94.8729 1534.52
v 2.55269 -95.1416 1534.9
v 1.65985 -95.4906 1536.15
v 1.02013 -95.4311 1537.22
v 3.84501 -93.7932 1533.99
v 3.19945 -94.1171 1533.93
v 3.06518 -93.4769 1533.69
v 3.87384 -93.1625 1533.88
v 3.60346 -92.0972 1533.92
v 3.3592 -91.1825 1534.29
v 2.87068 -91.5018 1533.92
v 2.35295 -90.4124 1534.75
v 0.98925 -89.9453 1537.63
v 1.50364 -89.6797 1536.1
v 1.72217 -89.4478 1537.06
v 2.56602 -94.6672 1534.31
v 1.39986 -94.5876 1534.76
v 0.357153 -94.8596 1536
v 2.31553 -93.8025 1533.85
v 1.41648 -92.9856 1534.17
v -0.469279 -93.6232 1536.85
v 3.06162 -92.6 1533.65
v 2.35298 -92.9805 1533.67
v 2.46281 -91.9591 1533.73
v 1.71868 -91.9756 1534.01
v 2.22714 -91.2086 1534.07
v 0.0491215 -91.019 1537.97
v -0.479186 -92.4952 1537.85
v 1.30712 -90.565 1534.96
v -0.431665 -91.7435 1537.24
v 0.0260107 -90.7161 1537.11
v 0.999976 -89.7643 1536.63
v 0.645968 -90.2921 1535.97
v 0.285828 -93.7776 1535.47
v -0.0614593 -91.526 1536.2
v 0.591755 -91.4001 1535.23
vn 0.844011 -0.356893 0.400341
vn 0.933352 -0.310835 0.179542
vn 0.92587 -0.0575321 0.373435
vn 0.766995 0.00658809 0.641619
vn 0.685318 -0.400832 0.608008
vn 0.418831 0.0535596 0.906483
vn 0.350752 -0.487417 0.799623
vn 0.827602 0.215485 0.518306
vn 0.524381 0.292563 0.799645
vn 0.674031 0.365357 0.642026
vn 0.350159 0.531166 0.771525
vn 0.115161 0.415021 0.902494
vn 0.923116 0.286107 0.256904
vn 0.996628 0.0281379 0.0770765
vn 0.767118 0.52683 0.366033
vn 0.649717 -0.681548 0.33669
vn 0.301672 -0.882297 0.361313
vn 0.433703 -0.89741 0.0809817
vn -0.0953665 -0.737075 0.669048
vn -0.269807 -0.920238 0.28349
vn 0.0601484 -0.996879 0.0511345
vn -0.579291 -0.640906 0.503648
vn -0.376362 -0.402175 0.83463
vn 0.973952 -0.226196 -0.0159196
vn 0.93247 -0.281059 -0.226947
vn 0.985035 -0.0374714 -0.168233
vn 0.843168 -0.535003 -0.0532842
vn 0.757395 -0.562629 -0.331364
vn 0.742233 -0.654776 0.142688
vn 0.520052 -0.838189 -0.16427
vn 5.57394e-05 -0.181675 0.983359
vn -0.114253 0.248432 0.961888
vn -0.373058 0.0139559 0.927703
vn -0.661032 -0.20468 0.721902
vn -0.544593 0.208328 0.812415
vn 0.925267 -0.0834486 -0.370024
vn 0.904666 0.122989 -0.407986
vn 0.964032 0.210012 -0.162901
vn -0.346579 0.408266 0.844513
vn 0.863518 0.358471 -0.354733
vn 0.934394 0.356169 0.00720198
vn 0.801577 0.595424 0.0542618
vn 0.840808 0.512057 -0.175611
vn 0.581277 0.64038 0.502026
vn 0.619582 0.78361 0.0455463
vn 0.442519 0.861812 0.247903
vn 0.158503 0.748626 0.643768
vn -0.116491 0.555304 0.823449
vn 0.203643 -0.891601 -0.404446
vn 0.478813 -0.723707 -0.496976
vn 0.137385 -0.974729 -0.176148
vn -0.743156 -0.643155 0.184584
vn 0.835704 -0.293268 -0.46432
vn 0.638816 -0.433631 -0.635515
vn -0.790508 -0.346294 0.505151
vn -0.749112 0.00191382 0.662441
vn -0.702928 0.269562 0.658201
vn -0.846754 -0.0290829 0.531189
vn -0.918936 -0.270089 0.287415
vn 0.792461 -0.0781412 -0.604896
vn 0.737336 0.188425 -0.648716
vn 0.598825 -0.17712 -0.781049
vn 0.585703 0.102795 -0.80398
vn 0.71004 0.580084 -0.399182
vn 0.674542 0.706867 -0.212915
vn 0.715883 0.401009 -0.57158
vn 0.53341 0.664532 -0.523327
vn 0.535441 0.398143 -0.744839
vn 0.499879 0.816114 -0.289963
vn -0.508365 0.519555 0.686751
vn 0.240207 0.943693 -0.227475
vn 0.315069 0.798373 -0.513159
vn 0.133037 0.962749 0.235403
vn -0.207712 0.872515 0.442237
vn -0.302764 0.689264 0.658216
vn 0.373251 -0.567803 -0.733678
vn 0.148753 -0.734173 -0.662467
vn -0.117449 -0.864322 -0.489034
vn -0.214266 -0.940805 -0.262633
vn -0.371151 -0.928117 0.0290837
vn 0.389556 -0.322533 -0.862681
vn 0.106541 -0.477253 -0.872284
vn 0.104114 -0.190851 -0.976082
vn 0.387117 -0.0259335 -0.921666
vn 0.378365 0.273264 -0.884402
vn 0.336897 0.58754 -0.735729
vn 0.160726 0.44826 -0.879335
vn 0.0280089 0.764661 -0.643824
vn -0.546351 0.765416 0.340056
vn -0.253269 0.885463 -0.389628
vn -0.214305 0.976262 0.0314008
vn -0.14445 -0.642931 -0.75218
vn -0.472861 -0.569698 -0.672195
vn -0.679086 -0.653262 -0.3348
vn -0.272339 -0.349362 -0.896536
vn -0.611897 -0.0995069 -0.784653
vn -0.965981 -0.176241 -0.189261
vn 0.152173 0.106498 -0.982599
vn -0.247224 -0.0447748 -0.967923
vn -0.125056 0.229265 -0.965297
vn -0.506281 0.200561 -0.838722
vn -0.199534 0.493034 -0.84682
vn -0.782028 0.467937 0.411664
vn -0.948418 0.105692 0.298886
vn -0.474275 0.571526 -0.669643
vn -0.967629 0.250999 -0.026358
vn -0.817948 0.574861 -0.0222702
vn -0.555646 0.827773 -0.0777781
vn -0.697611 0.589661 -0.406988
vn -0.793456 -0.133402 -0.593827
vn -0.885528 0.225586 -0.406143
vn -0.751636 0.215199 -0.623484
g grp1
usemtl mtl1
f 1//1 2//2 3//3 
f 3//3 4//4 1//1 
f 1//1 4//4 5//5 
f 5//5 4//4 6//6 
f 7//7 5//5 6//6 
f 3//3 8//8 4//4 
f 6//6 4//4 9//9 
f 9//9 10//10 11//11 
f 12//12 6//6 9//9 
f 8//8 3//3 13//13 
f 3//3 14//14 13//13 
f 15//15 8//8 13//13 
f 10//10 4//4 8//8 
f 4//4 10//10 9//9 
f 16//16 5//5 17//17 
f 18//18 16//16 17//17 
f 5//5 7//7 17//17 
f 19//19 17//17 7//7 
f 17//17 19//19 20//20 
f 21//21 18//18 17//17 
f 20//20 21//21 17//17 
f 19//19 22//22 20//20 
f 22//22 19//19 23//23 
f 24//24 25//25 26//26 
f 25//25 27//27 28//28 
f 27//27 25//25 24//24 
f 1//1 29//29 2//2 
f 1//1 16//16 29//29 
f 2//2 29//29 27//27 
f 24//24 2//2 27//27 
f 24//24 14//14 2//2 
f 29//29 16//16 18//18 
f 29//29 30//30 27//27 
f 30//30 28//28 27//27 
f 5//5 16//16 1//1 
f 19//19 7//7 31//31 
f 7//7 6//6 31//31 
f 23//23 19//19 31//31 
f 31//31 6//6 32//32 
f 31//31 33//33 23//23 
f 32//32 33//33 31//31 
f 34//34 23//23 33//33 
f 34//34 33//33 35//35 
f 26//26 25//25 36//36 
f 37//37 26//26 36//36 
f 37//37 38//38 26//26 
f 14//14 3//3 2//2 
f 14//14 24//24 26//26 
f 38//38 14//14 26//26 
f 9//9 11//11 12//12 
f 6//6 12//12 32//32 
f 39//39 32//32 12//12 
f 37//37 40//40 38//38 
f 41//41 13//13 14//14 
f 42//42 13//13 41//41 
f 14//14 38//38 41//41 
f 41//41 43//43 42//42 
f 38//38 43//43 41//41 
f 10//10 8//8 15//15 
f 10//10 44//44 11//11 
f 42//42 15//15 13//13 
f 15//15 42//42 45//45 
f 15//15 44//44 10//10 
f 15//15 45//45 44//44 
f 45//45 46//46 44//44 
f 47//47 11//11 44//44 
f 47//47 44//44 46//46 
f 47//47 48//48 11//11 
f 11//11 48//48 12//12 
f 48//48 39//39 12//12 
f 49//49 50//50 30//30 
f 29//29 18//18 30//30 
f 30//30 18//18 51//51 
f 49//49 30//30 51//51 
f 20//20 22//22 52//52 
f 28//28 53//53 25//25 
f 25//25 53//53 36//36 
f 50//50 28//28 30//30 
f 50//50 54//54 28//28 
f 54//54 53//53 28//28 
f 34//34 22//22 23//23 
f 35//35 33//33 32//32 
f 35//35 32//32 39//39 
f 52//52 22//22 55//55 
f 22//22 34//34 55//55 
f 56//56 34//34 35//35 
f 56//56 35//35 57//57 
f 34//34 56//56 55//55 
f 55//55 56//56 58//58 
f 58//58 56//56 57//57 
f 55//55 59//59 52//52 
f 60//60 53//53 54//54 
f 60//60 36//36 53//53 
f 60//60 37//37 36//36 
f 60//60 61//61 37//37 
f 62//62 60//60 54//54 
f 62//62 63//63 60//60 
f 63//63 61//61 60//60 
f 57//57 35//35 39//39 
f 38//38 40//40 43//43 
f 64//64 65//65 43//43 
f 66//66 40//40 37//37 
f 40//40 64//64 43//43 
f 37//37 61//61 66//66 
f 66//66 64//64 40//40 
f 66//66 67//67 64//64 
f 66//66 61//61 68//68 
f 64//64 67//67 65//65 
f 69//69 65//65 67//67 
f 65//65 42//42 43//43 
f 65//65 45//45 42//42 
f 69//69 45//45 65//65 
f 70//70 39//39 48//48 
f 45//45 69//69 71//71 
f 72//72 71//71 69//69 
f 71//71 46//46 45//45 
f 71//71 73//73 46//46 
f 73//73 47//47 46//46 
f 47//47 74//74 75//75 
f 48//48 47//47 75//75 
f 54//54 50//50 76//76 
f 50//50 49//49 77//77 
f 51//51 78//78 49//49 
f 77//77 49//49 78//78 
f 18//18 21//21 51//51 
f 79//79 51//51 21//21 
f 21//21 80//80 79//79 
f 80//80 21//21 20//20 
f 80//80 20//20 52//52 
f 81//81 62//62 54//54 
f 81//81 54//54 76//76 
f 50//50 77//77 76//76 
f 77//77 82//82 76//76 
f 83//83 84//84 81//81 
f 82//82 81//81 76//76 
f 81//81 82//82 83//83 
f 55//55 58//58 59//59 
f 84//84 63//63 62//62 
f 63//63 68//68 61//61 
f 84//84 62//62 81//81 
f 85//85 63//63 84//84 
f 68//68 67//67 66//66 
f 67//67 68//68 86//86 
f 63//63 85//85 68//68 
f 86//86 68//68 85//85 
f 85//85 87//87 86//86 
f 57//57 39//39 70//70 
f 67//67 86//86 72//72 
f 88//88 72//72 86//86 
f 86//86 87//87 88//88 
f 72//72 69//69 67//67 
f 48//48 75//75 70//70 
f 70//70 75//75 89//89 
f 90//90 91//91 71//71 
f 71//71 72//72 88//88 
f 88//88 90//90 71//71 
f 73//73 74//74 47//47 
f 71//71 91//91 73//73 
f 91//91 89//89 74//74 
f 91//91 74//74 73//73 
f 89//89 75//75 74//74 
f 78//78 92//92 77//77 
f 78//78 51//51 79//79 
f 78//78 79//79 93//93 
f 78//78 93//93 92//92 
f 79//79 94//94 93//93 
f 94//94 79//79 80//80 
f 94//94 80//80 52//52 
f 83//83 82//82 95//95 
f 82//82 77//77 92//92 
f 92//92 95//95 82//82 
f 92//92 93//93 95//95 
f 93//93 96//96 95//95 
f 52//52 59//59 97//97 
f 83//83 98//98 84//84 
f 85//85 84//84 98//98 
f 83//83 99//99 98//98 
f 98//98 99//99 100//100 
f 99//99 83//83 95//95 
f 95//95 96//96 99//99 
f 101//101 99//99 96//96 
f 98//98 87//87 85//85 
f 98//98 100//100 87//87 
f 100//100 102//102 87//87 
f 87//87 102//102 88//88 
f 103//103 57//57 70//70 
f 104//104 57//57 103//103 
f 104//104 58//58 57//57 
f 105//105 88//88 102//102 
f 103//103 70//70 89//89 
f 106//106 103//103 107//107 
f 106//106 104//104 103//103 
f 107//107 103//103 89//89 
f 107//107 89//89 108//108 
f 107//107 108//108 109//109 
f 90//90 88//88 105//105 
f 90//90 105//105 109//109 
f 108//108 90//90 109//109 
f 89//89 91//91 108//108 
f 91//91 90//90 108//108 
f 110//110 93//93 94//94 
f 96//96 93//93 110//110 
f 94//94 97//97 110//110 
f 94//94 52//52 97//97 
f 100//100 99//99 101//101 
f 111//111 110//110 97//97 
f 104//104 59//59 58//58 
f 97//97 104//104 106//106 
f 59//59 104//104 97//97 
f 106//106 111//111 97//97 
f 102//102 100//100 101//101 
f 110//110 111//111 112//112 
f 102//102 101//101 105//105 
f 112//112 105//105 101//101 
f 112//112 109//109 105//105 
f 101//101 96//96 112//112 
f 111//111 109//109 112//112 
f 96//96 110//110 112//112 
f 107//107 111//111 106//106 
f 109//109 111//111 107//107 
