v 3.68707 -71.3517 1515.29
v 3.44519 -70.5708 1515.72
v 3.3365 -71.0259 1515.04
v 2.91849 -69.3171 1514.69
v 3.39736 -69.2915 1515.94
v 3.03263 -68.6109 1514.3
v 5.09096 -68.0736 1510.12
v 5.11594 -68.3707 1509.17
v 4.62639 -67.0942 1506.69
v 4.15434 -68.3194 1514.93
v 3.97573 -68.8453 1516.09
v 4.25514 -68.8321 1516.02
v 3.64511 -68.5652 1515.41
v 3.32771 -68.4928 1514.83
v 3.71492 -68.9854 1516.1
v 5.47037 -71.4764 1514.51
v 5.32319 -71.4608 1513.84
v 5.43508 -70.5958 1512.73
v 3.83207 -68.0347 1514.26
v 3.39842 -67.827 1504.91
v 3.37432 -67.3982 1504.61
v 3.64111 -67.7341 1504.81
v 2.40925 -67.4827 1506.85
v 2.59856 -67.6855 1506
v 2.58421 -68.4215 1507.37
v 3.37269 -66.9833 1504.43
v 3.59288 -67.2982 1504.56
v 3.5038 -66.8401 1504.43
v 3.70532 -67.0941 1504.56
v 3.36505 -66.6601 1504.43
v 3.70002 -66.7177 1504.61
v 3.43111 -66.5092 1504.5
v 3.98645 -67.2943 1504.88
v 4.03301 -66.8716 1505.03
v 3.8086 -66.4739 1504.92
v 3.93556 -71.3944 1515.49
v 4.89183 -72.0003 1515.03
v 5.09067 -71.718 1515.33
v 4.56064 -71.8087 1515.3
v 3.41976 -69.7651 1516.03
v 3.21216 -69.8423 1515.75
v 4.09011 -71.19 1515.76
v 3.66837 -69.4076 1516.2
v 3.70918 -69.9275 1516.15
v 4.17983 -71.8573 1515.03
v 4.44413 -72.0449 1514.63
v 4.63048 -72.0558 1514.92
v 4.22708 -69.5698 1516.24
v 4.66511 -70.4168 1516.09
v 4.76886 -69.9442 1516.09
v 5.46608 -70.717 1515.46
v 5.49393 -70.1 1515.29
v 5.28775 -70.0496 1515.67
v 4.93164 -71.3554 1515.66
v 5.4012 -71.3597 1515.29
v 4.04725 -71.8789 1514.68
v 3.66946 -71.5319 1514.84
v 3.21216 -66.6383 1504.48
v 3.21699 -67.0107 1504.5
v 3.10507 -67.5305 1504.87
v 2.81123 -66.8144 1504.98
v 3.00384 -66.639 1504.66
v 3.0104 -67.0177 1504.69
v 2.8221 -67.4757 1505.25
v 2.58125 -66.9799 1505.65
v 4.38085 -71.2416 1515.8
v 5.59726 -70.7686 1515.1
v 4.30935 -69.0715 1516.16
v 4.2081 -70.4921 1516.13
v 4.89194 -69.741 1516
v 4.9014 -72.0439 1514.67
v 5.51297 -71.3651 1514.92
v 5.17762 -71.8594 1515.04
v 5.20352 -70.7146 1515.73
v 3.6948 -70.5843 1515.93
v 2.57617 -69.1116 1510.77
v 2.86626 -70.1879 1512.4
v 4.02132 -71.7563 1513.8
v 3.58115 -71.3394 1513.32
v 3.77836 -70.9341 1511.42
v 3.31368 -70.0197 1509.43
v 3.00645 -69.939 1510.29
v 2.88887 -68.5249 1506.43
v 4.04707 -70.5699 1510.17
v 3.58802 -69.2775 1506.91
v 3.21879 -68.6966 1506.13
v 3.10871 -68.0845 1505.38
v 3.47089 -68.3844 1505.47
v 4.59256 -68.8519 1515.74
v 3.25083 -71.0423 1513.68
v 5.27662 -69.5296 1515.4
v 4.98379 -68.7886 1514.7
v 4.94533 -69.1653 1515.66
v 2.90867 -70.339 1513.98
v 4.62014 -67.464 1506.27
v 4.22068 -66.6838 1505.67
v 3.91652 -67.6977 1504.94
v 3.76052 -68.1582 1505.2
v 4.33649 -67.9842 1505.64
v 4.29571 -67.3969 1505.37
v 4.0976 -68.1674 1505.41
v 4.13295 -68.5802 1505.88
v 4.61863 -68.0549 1506.28
v 5.12469 -68.8933 1509.02
v 4.92511 -69.0716 1508.21
v 4.51699 -68.774 1506.65
v 4.40969 -69.5866 1507.93
v 5.00812 -70.2423 1510.5
v 4.82628 -69.3297 1515.93
v 3.18628 -70.4713 1515.38
v 5.24693 -71.8442 1514.75
v 5.55023 -69.6984 1513.7
v 5.06661 -68.2352 1512.11
v 5.40618 -69.2847 1514.02
v 5.60151 -70.3207 1513.64
v 4.68284 -67.9155 1512.69
v 4.2316 -67.4366 1512.14
v 2.74853 -69.772 1513.86
v 2.99161 -70.0458 1515.1
v 3.96199 -69.1452 1516.25
v 5.02396 -71.4474 1513.15
v 3.91039 -68.686 1505.86
v 4.50949 -70.6984 1510.65
v 4.65368 -71.7191 1513.41
v 3.6936 -68.7125 1505.83
v 3.92452 -69.3112 1506.89
v 4.21655 -71.6837 1513.28
v 2.51821 -68.3667 1510.72
v 2.77781 -66.1595 1506.04
v 3.12471 -65.9228 1505.94
v 3.06116 -66.0582 1505.3
v 3.30536 -66.0079 1505.3
v 3.20755 -66.1935 1504.83
v 3.40114 -66.1794 1504.86
v 3.29258 -66.3966 1504.57
v 3.1159 -66.3853 1504.67
v 3.5472 -66.3411 1504.74
v 3.72901 -66.1711 1505.36
v 3.01146 -66.2337 1504.96
v 2.83482 -66.212 1505.41
v 2.8568 -66.4369 1505.01
v 2.6848 -66.5023 1505.5
v 2.80504 -66.8738 1509.31
v 2.66558 -68.0444 1511.56
v 2.48499 -67.3115 1508.77
v 2.44081 -66.8576 1506.76
v 3.0872 -67.4654 1511.73
v 2.56553 -66.4861 1507.18
v 2.83878 -66.0875 1506.78
v 4.57629 -66.8116 1507.18
v 3.4123 -65.8974 1506.06
v 3.83055 -66.0572 1506.26
v 4.13172 -66.3126 1506.27
v 4.36658 -66.4726 1507.39
v 3.38393 -65.9522 1507.19
v 3.61838 -65.9348 1506.62
v 4.12872 -66.3888 1508.23
v 3.79976 -66.3499 1508.63
v 3.14159 -65.894 1506.55
v 3.1138 -66.1054 1507.65
v 3.84889 -67.0378 1511.16
v 3.44402 -66.9359 1510.73
v 3.45739 -68.0612 1514.07
vn -0.648611 -0.626243 0.432578
vn -0.681897 -0.39307 0.616857
vn -0.84793 -0.489721 0.202947
vn -0.959572 0.158319 0.232714
vn -0.803202 0.281484 0.525008
vn -0.84782 0.457806 0.267612
vn 0.948695 0.316137 -0.00587849
vn 0.98751 0.130379 -0.0884659
vn 0.951182 0.27775 -0.134565
vn 0.214212 0.911055 0.352267
vn -0.0533023 0.753809 0.654929
vn 0.306163 0.73532 0.604622
vn -0.382302 0.817585 0.430581
vn -0.691418 0.624898 0.36255
vn -0.525743 0.509574 0.681123
vn 0.907373 -0.40629 -0.107713
vn 0.78188 -0.573361 -0.244786
vn 0.947281 -0.270907 -0.17108
vn -0.0787098 0.931386 0.355423
vn -0.266591 -0.641236 -0.719545
vn -0.233657 -0.477396 -0.847052
vn 0.151206 -0.561985 -0.81321
vn -0.992315 -0.0965521 -0.0773844
vn -0.92032 -0.294282 -0.257701
vn -0.911301 -0.388391 -0.136682
vn -0.13407 -0.191415 -0.972309
vn 0.27247 -0.342638 -0.899088
vn 0.385215 0.0415351 -0.921892
vn 0.608311 -0.10438 -0.786805
vn -0.0339647 0.236341 -0.971076
vn 0.699533 0.270794 -0.661305
vn 0.375249 0.467088 -0.800636
vn 0.791855 -0.0598843 -0.607766
vn 0.86558 0.232571 -0.443487
vn 0.750453 0.50048 -0.431671
vn -0.457849 -0.631202 0.626066
vn 0.205746 -0.891235 0.404189
vn 0.372196 -0.663446 0.649083
vn -0.11004 -0.747353 0.655252
vn -0.654846 -0.106286 0.748251
vn -0.881114 -0.0665493 0.468198
vn -0.293837 -0.560177 0.774508
vn -0.397581 0.053626 0.915999
vn -0.353465 -0.204587 0.912802
vn -0.428817 -0.824133 0.370029
vn -0.192062 -0.978585 -0.0740485
vn -0.099941 -0.956035 0.275696
vn 0.133468 -0.00865619 0.991015
vn 0.285493 -0.190445 0.939268
vn 0.439832 0.00312712 0.898075
vn 0.853785 -0.0671798 0.516273
vn 0.946946 0.188698 0.260165
vn 0.781899 0.140243 0.607425
vn 0.294633 -0.455378 0.840132
vn 0.774794 -0.361027 0.518992
vn -0.545461 -0.837103 0.0415938
vn -0.702806 -0.697951 0.137579
vn -0.497014 0.142432 -0.855973
vn -0.514312 -0.261578 -0.816738
vn -0.608313 -0.454977 -0.650347
vn -0.913474 -0.00133914 -0.406895
vn -0.78162 0.138422 -0.608202
vn -0.757675 -0.177728 -0.627967
vn -0.848207 -0.325056 -0.418191
vn -0.969548 -0.024747 -0.243649
vn -0.0539723 -0.55041 0.833148
vn 0.983329 -0.0462892 0.175846
vn 0.370538 0.359994 0.856216
vn -0.0657293 -0.312041 0.947792
vn 0.538053 0.116597 0.834808
vn 0.305281 -0.948723 -0.082022
vn 0.94337 -0.322248 0.0787974
vn 0.636101 -0.719344 0.279141
vn 0.605232 -0.148064 0.782158
vn -0.460828 -0.408805 0.787728
vn -0.977503 -0.210558 -0.0123984
vn -0.903583 -0.425877 -0.0465402
vn -0.438393 -0.87933 -0.185986
vn -0.655952 -0.741237 -0.142461
vn -0.403297 -0.871402 -0.279304
vn -0.613084 -0.749645 -0.249321
vn -0.785637 -0.596832 -0.162992
vn -0.770685 -0.564757 -0.295119
vn -0.0626571 -0.936981 -0.343716
vn -0.317324 -0.864675 -0.389414
vn -0.535779 -0.742821 -0.401445
vn -0.61486 -0.597799 -0.514377
vn -0.281 -0.75999 -0.58605
vn 0.55835 0.709061 0.430671
vn -0.820431 -0.570233 -0.0415531
vn 0.853298 0.41028 0.321798
vn 0.744739 0.62992 0.220373
vn 0.732625 0.533411 0.422768
vn -0.939299 -0.338166 0.0579716
vn 0.960334 0.133176 -0.244994
vn 0.86535 0.42912 -0.258894
vn 0.591465 -0.371787 -0.715502
vn 0.205845 -0.686569 -0.697317
vn 0.838525 -0.27555 -0.470052
vn 0.901402 0.00188643 -0.432979
vn 0.634039 -0.496847 -0.592569
vn 0.489019 -0.688862 -0.535098
vn 0.935313 -0.158728 -0.31622
vn 0.984744 -0.063569 -0.161984
vn 0.903587 -0.329372 -0.273943
vn 0.769046 -0.503949 -0.393196
vn 0.523824 -0.758238 -0.388179
vn 0.774088 -0.561647 -0.292132
vn 0.66576 0.360768 0.653153
vn -0.901341 -0.315493 0.296728
vn 0.708789 -0.701315 -0.0759955
vn 0.983536 0.179735 0.0187726
vn 0.842031 0.528653 0.107285
vn 0.921705 0.375216 0.0983483
vn 0.996502 -0.0445595 -0.0707042
vn 0.659116 0.726964 0.192585
vn 0.426345 0.868297 0.253555
vn -0.984933 -0.135789 0.107088
vn -0.962305 -0.116628 0.245697
vn -0.067087 0.258863 0.963581
vn 0.538277 -0.783571 -0.31028
vn 0.335536 -0.768605 -0.544667
vn 0.287256 -0.888994 -0.356613
vn 0.162899 -0.936058 -0.311865
vn -0.0485217 -0.82399 -0.564523
vn 0.151307 -0.889299 -0.431571
vn -0.166279 -0.94465 -0.28282
vn -0.996429 0.0483637 0.0692071
vn -0.78459 0.615434 -0.0752305
vn -0.34527 0.933838 -0.093462
vn -0.447931 0.861689 -0.23843
vn 0.0568082 0.965968 -0.252346
vn -0.239961 0.837714 -0.490566
vn 0.2562 0.846911 -0.465943
vn -0.061342 0.642352 -0.763951
vn -0.582404 0.503547 -0.638158
vn 0.507948 0.658596 -0.555193
vn 0.576274 0.775252 -0.258635
vn -0.632374 0.65621 -0.411693
vn -0.779741 0.58228 -0.230117
vn -0.851583 0.33374 -0.404257
vn -0.941569 0.268157 -0.203811
vn -0.746177 0.628093 0.220725
vn -0.931621 0.32368 0.165266
vn -0.973187 0.209765 0.0943719
vn -0.982425 0.182566 -0.038869
vn -0.623486 0.733852 0.269678
vn -0.880579 0.463837 0.0971385
vn -0.632864 0.768861 0.091306
vn 0.886711 0.458054 -0.0626892
vn 0.18183 0.980464 -0.0750172
vn 0.537043 0.841845 -0.0536901
vn 0.758723 0.63586 -0.141495
vn 0.733641 0.677916 0.0469071
vn 0.0165354 0.983468 0.180327
vn 0.335017 0.93953 0.0710407
vn 0.526017 0.838389 0.14286
vn 0.275845 0.936933 0.21463
vn -0.248868 0.966275 0.0661635
vn -0.419001 0.877978 0.231501
vn 0.104613 0.953366 0.283107
vn -0.230205 0.928663 0.290843
vn -0.422601 0.844241 0.329645
g grp1
usemtl mtl1
f 1//1 2//2 3//3 
f 4//4 5//5 6//6 
f 7//7 8//8 9//9 
f 10//10 11//11 12//12 
f 13//13 14//14 15//15 
f 16//16 17//17 18//18 
f 11//11 10//10 19//19 
f 20//20 21//21 22//22 
f 23//23 24//24 25//25 
f 21//21 26//26 27//27 
f 22//22 21//21 27//27 
f 27//27 26//26 28//28 
f 29//29 27//27 28//28 
f 26//26 30//30 28//28 
f 29//29 28//28 31//31 
f 28//28 30//30 32//32 
f 28//28 32//32 31//31 
f 29//29 31//31 33//33 
f 33//33 31//31 34//34 
f 31//31 35//35 34//34 
f 36//36 2//2 1//1 
f 37//37 38//38 39//39 
f 2//2 40//40 41//41 
f 36//36 39//39 42//42 
f 43//43 40//40 44//44 
f 45//45 46//46 47//47 
f 48//48 49//49 50//50 
f 5//5 41//41 40//40 
f 51//51 52//52 53//53 
f 54//54 38//38 55//55 
f 56//56 45//45 57//57 
f 58//58 26//26 59//59 
f 26//26 21//21 59//59 
f 21//21 60//60 59//59 
f 61//61 62//62 63//63 
f 59//59 63//63 58//58 
f 58//58 63//63 62//62 
f 60//60 63//63 59//59 
f 60//60 64//64 63//63 
f 61//61 63//63 64//64 
f 61//61 64//64 65//65 
f 64//64 24//24 65//65 
f 43//43 5//5 40//40 
f 39//39 54//54 66//66 
f 55//55 67//67 51//51 
f 11//11 68//68 12//12 
f 49//49 69//69 54//54 
f 48//48 50//50 70//70 
f 46//46 71//71 47//47 
f 72//72 67//67 55//55 
f 73//73 55//55 38//38 
f 5//5 43//43 15//15 
f 54//54 39//39 38//38 
f 49//49 54//54 74//74 
f 55//55 51//51 74//74 
f 44//44 2//2 75//75 
f 45//45 36//36 1//1 
f 23//23 25//25 76//76 
f 76//76 25//25 77//77 
f 13//13 11//11 19//19 
f 78//78 79//79 80//80 
f 80//80 79//79 81//81 
f 81//81 79//79 82//82 
f 83//83 81//81 82//82 
f 83//83 82//82 25//25 
f 77//77 25//25 82//82 
f 84//84 80//80 85//85 
f 81//81 85//85 80//80 
f 85//85 81//81 86//86 
f 81//81 83//83 86//86 
f 87//87 86//86 83//83 
f 83//83 24//24 64//64 
f 24//24 83//83 25//25 
f 64//64 60//60 87//87 
f 83//83 64//64 87//87 
f 85//85 86//86 88//88 
f 86//86 87//87 88//88 
f 87//87 60//60 20//20 
f 87//87 20//20 88//88 
f 21//21 20//20 60//60 
f 1//1 57//57 45//45 
f 89//89 10//10 12//12 
f 13//13 15//15 11//11 
f 79//79 90//90 82//82 
f 46//46 45//45 56//56 
f 90//90 77//77 82//82 
f 91//91 92//92 93//93 
f 77//77 94//94 76//76 
f 9//9 95//95 96//96 
f 22//22 27//27 97//97 
f 98//98 22//22 97//97 
f 29//29 97//97 27//27 
f 29//29 33//33 97//97 
f 99//99 33//33 100//100 
f 96//96 95//95 34//34 
f 100//100 34//34 95//95 
f 97//97 101//101 98//98 
f 98//98 101//101 102//102 
f 33//33 99//99 97//97 
f 97//97 99//99 101//101 
f 100//100 103//103 99//99 
f 95//95 104//104 103//103 
f 95//95 103//103 100//100 
f 18//18 105//105 104//104 
f 104//104 105//105 103//103 
f 101//101 106//106 102//102 
f 102//102 106//106 107//107 
f 103//103 105//105 99//99 
f 99//99 105//105 106//106 
f 105//105 18//18 108//108 
f 106//106 108//108 107//107 
f 18//18 17//17 108//108 
f 68//68 70//70 109//109 
f 3//3 2//2 110//110 
f 3//3 57//57 1//1 
f 41//41 110//110 2//2 
f 52//52 51//51 67//67 
f 93//93 89//89 109//109 
f 48//48 70//70 68//68 
f 12//12 68//68 89//89 
f 2//2 44//44 40//40 
f 73//73 71//71 111//111 
f 50//50 74//74 70//70 
f 37//37 39//39 47//47 
f 95//95 9//9 8//8 
f 8//8 7//7 112//112 
f 113//113 92//92 91//91 
f 114//114 113//113 91//91 
f 114//114 91//91 52//52 
f 95//95 8//8 104//104 
f 104//104 8//8 115//115 
f 112//112 115//115 8//8 
f 116//116 117//117 89//89 
f 115//115 18//18 104//104 
f 92//92 116//116 89//89 
f 110//110 118//118 94//94 
f 119//119 118//118 110//110 
f 119//119 110//110 41//41 
f 39//39 45//45 47//47 
f 70//70 53//53 109//109 
f 53//53 91//91 109//109 
f 91//91 53//53 52//52 
f 11//11 15//15 120//120 
f 49//49 48//48 69//69 
f 120//120 43//43 48//48 
f 74//74 53//53 70//70 
f 47//47 71//71 37//37 
f 66//66 54//54 69//69 
f 4//4 119//119 41//41 
f 17//17 121//121 108//108 
f 20//20 22//22 98//98 
f 98//98 102//102 122//122 
f 122//122 102//102 107//107 
f 107//107 108//108 121//121 
f 107//107 121//121 123//123 
f 121//121 124//124 123//123 
f 4//4 41//41 5//5 
f 122//122 125//125 98//98 
f 88//88 98//98 125//125 
f 98//98 88//88 20//20 
f 85//85 125//125 126//126 
f 122//122 107//107 126//126 
f 125//125 122//122 126//126 
f 126//126 107//107 123//123 
f 84//84 126//126 123//123 
f 125//125 85//85 88//88 
f 126//126 84//84 85//85 
f 84//84 123//123 124//124 
f 84//84 124//124 127//127 
f 117//117 10//10 89//89 
f 93//93 92//92 89//89 
f 84//84 127//127 80//80 
f 80//80 127//127 78//78 
f 15//15 14//14 5//5 
f 14//14 6//6 5//5 
f 36//36 45//45 39//39 
f 112//112 67//67 115//115 
f 115//115 72//72 18//18 
f 111//111 72//72 73//73 
f 11//11 120//120 68//68 
f 105//105 108//108 106//106 
f 99//99 106//106 101//101 
f 34//34 100//100 33//33 
f 30//30 26//26 58//58 
f 42//42 69//69 75//75 
f 48//48 44//44 69//69 
f 112//112 7//7 114//114 
f 34//34 35//35 96//96 
f 46//46 124//124 71//71 
f 124//124 46//46 127//127 
f 118//118 128//128 76//76 
f 128//128 23//23 76//76 
f 129//129 130//130 131//131 
f 66//66 69//69 42//42 
f 132//132 133//133 131//131 
f 134//134 135//135 133//133 
f 136//136 133//133 135//135 
f 135//135 30//30 58//58 
f 32//32 30//30 135//135 
f 133//133 132//132 134//134 
f 134//134 137//137 135//135 
f 132//132 138//138 134//134 
f 138//138 137//137 134//134 
f 32//32 135//135 137//137 
f 32//32 137//137 31//31 
f 137//137 138//138 35//35 
f 31//31 137//137 35//35 
f 138//138 96//96 35//35 
f 74//74 51//51 53//53 
f 69//69 44//44 75//75 
f 42//42 39//39 66//66 
f 120//120 15//15 43//43 
f 68//68 120//120 48//48 
f 68//68 109//109 89//89 
f 2//2 36//36 75//75 
f 73//73 37//37 71//71 
f 44//44 48//48 43//43 
f 74//74 50//50 49//49 
f 74//74 54//54 55//55 
f 93//93 109//109 91//91 
f 37//37 73//73 38//38 
f 42//42 75//75 36//36 
f 55//55 73//73 72//72 
f 131//131 133//133 139//139 
f 135//135 58//58 136//136 
f 133//133 136//136 139//139 
f 140//140 131//131 139//139 
f 136//136 141//141 139//139 
f 62//62 141//141 136//136 
f 61//61 141//141 62//62 
f 136//136 58//58 62//62 
f 140//140 141//141 142//142 
f 140//140 139//139 141//141 
f 141//141 61//61 142//142 
f 142//142 61//61 65//65 
f 23//23 65//65 24//24 
f 143//143 144//144 6//6 
f 6//6 144//144 4//4 
f 144//144 128//128 4//4 
f 144//144 145//145 128//128 
f 145//145 146//146 128//128 
f 146//146 23//23 128//128 
f 23//23 146//146 65//65 
f 6//6 147//147 143//143 
f 144//144 148//148 145//145 
f 143//143 148//148 144//144 
f 148//148 146//146 145//145 
f 65//65 146//146 142//142 
f 146//146 129//129 142//142 
f 149//149 129//129 148//148 
f 129//129 140//140 142//142 
f 131//131 140//140 129//129 
f 71//71 121//121 111//111 
f 121//121 71//71 124//124 
f 17//17 111//111 121//121 
f 128//128 118//118 4//4 
f 118//118 119//119 4//4 
f 18//18 72//72 16//16 
f 67//67 72//72 115//115 
f 94//94 118//118 76//76 
f 9//9 96//96 150//150 
f 131//131 130//130 132//132 
f 151//151 132//132 130//130 
f 132//132 151//151 138//138 
f 151//151 152//152 138//138 
f 152//152 153//153 138//138 
f 138//138 153//153 96//96 
f 150//150 96//96 153//153 
f 153//153 154//154 150//150 
f 151//151 155//155 156//156 
f 152//152 151//151 156//156 
f 157//157 152//152 156//156 
f 157//157 154//154 152//152 
f 156//156 158//158 157//157 
f 153//153 152//152 154//154 
f 156//156 155//155 158//158 
f 117//117 157//157 158//158 
f 117//117 116//116 157//157 
f 116//116 154//154 157//157 
f 150//150 7//7 9//9 
f 7//7 113//113 114//114 
f 112//112 52//52 67//67 
f 7//7 150//150 113//113 
f 150//150 154//154 113//113 
f 154//154 116//116 113//113 
f 114//114 52//52 112//112 
f 113//113 116//116 92//92 
f 3//3 94//94 77//77 
f 57//57 3//3 90//90 
f 77//77 90//90 3//3 
f 57//57 90//90 79//79 
f 149//149 159//159 130//130 
f 151//151 159//159 155//155 
f 151//151 130//130 159//159 
f 155//155 159//159 160//160 
f 155//155 161//161 158//158 
f 155//155 162//162 161//161 
f 160//160 162//162 155//155 
f 161//161 10//10 117//117 
f 117//117 158//158 161//161 
f 161//161 19//19 10//10 
f 56//56 57//57 79//79 
f 159//159 149//149 160//160 
f 130//130 129//129 149//149 
f 160//160 147//147 162//162 
f 161//161 162//162 19//19 
f 56//56 79//79 78//78 
f 72//72 111//111 16//16 
f 143//143 147//147 160//160 
f 160//160 149//149 143//143 
f 162//162 163//163 19//19 
f 147//147 163//163 162//162 
f 147//147 14//14 163//163 
f 13//13 19//19 163//163 
f 111//111 17//17 16//16 
f 46//46 78//78 127//127 
f 163//163 14//14 13//13 
f 6//6 14//14 147//147 
f 56//56 78//78 46//46 
f 146//146 148//148 129//129 
f 148//148 143//143 149//149 
f 110//110 94//94 3//3 
