v -4.13982 -72.704 1526.67
v -4.2148 -72.2652 1526.76
v -4.48816 -72.6036 1526.68
v -4.73071 -72.3191 1526.75
v -4.74298 -72.0441 1526.83
v -3.76172 -72.576 1526.68
v -3.53581 -71.9965 1526.79
v -3.72231 -71.6967 1526.87
v -4.08479 -71.5657 1526.92
v -3.56398 -72.3135 1526.73
v -4.50605 -71.6981 1526.92
v -4.50732 -72.3978 1527.62
v -4.25836 -72.7654 1528.19
v -4.151 -71.9036 1527.8
v -3.76898 -71.982 1528.31
v -4.40749 -72.1433 1527.73
v -3.89162 -72.3722 1529.06
v -3.83868 -73.1605 1529
v -4.2724 -72.8112 1527.54
v -3.73427 -73.217 1528.7
v -4.12103 -72.6239 1528.76
v -3.84884 -73.0071 1529.36
v -3.74024 -72.8397 1527.29
v -3.39513 -72.7834 1527.66
v -3.61922 -71.8737 1527.68
v -3.39016 -72.0696 1527.65
v -3.95165 -72.9402 1527.53
v -3.86273 -72.7104 1529.42
v -3.67006 -72.8148 1530.24
v -3.35197 -72.8149 1531.02
v -3.5146 -72.3681 1529.66
v -3.24742 -73.5509 1530.31
v -3.52983 -73.389 1530.38
v -3.36401 -73.694 1531.32
v -3.62351 -73.1416 1530.53
v -3.46493 -73.5719 1531.69
v -3.12489 -73.2489 1532.56
v -3.47822 -73.8136 1533.89
v -3.38262 -73.4074 1532.53
v -3.35757 -73.8746 1534.31
v -3.45822 -75.1491 1537.31
v -3.23106 -75.6944 1538.55
v -3.32989 -76.2399 1539.62
v -3.57604 -75.8452 1538.58
v -3.23519 -76.7325 1540.5
v -3.43694 -76.607 1540.01
v -3.24701 -77.0661 1540.82
v -3.4373 -76.8224 1540.08
v -3.26615 -77.1003 1540.48
v -3.0772 -76.5189 1540.24
v -3.08661 -76.8714 1540.74
v -2.95775 -75.2163 1537.07
v -3.15598 -74.2108 1535.1
v -2.84433 -75.715 1537.39
v -2.84872 -76.396 1539.61
v -2.82325 -76.9536 1540.55
v -2.92315 -76.757 1540.52
v -3.02196 -76.1452 1539.42
v -2.92614 -76.9955 1540.82
v -2.95045 -77.1981 1540.89
v -3.06785 -77.1437 1540.96
v -2.94697 -77.187 1540.57
v -3.07762 -77.233 1540.64
v -2.86304 -77.0083 1540.2
v -2.93429 -76.6364 1539.2
v -3.13547 -76.9697 1539.85
v -3.31581 -76.1194 1537.7
v -3.0408 -75.89 1537.27
v -3.22035 -75.3322 1535.58
v -2.98179 -75.0164 1535.04
v -2.80926 -74.3824 1533.14
v -2.97874 -74.2117 1532.38
v -3.32046 -74.7813 1534.13
v -3.19628 -74.0119 1531.91
v -3.45698 -74.3985 1533.4
v -2.96154 -73.3988 1529.92
v -2.66947 -73.9192 1531.85
v -2.96887 -73.1626 1529.05
v -3.18545 -73.334 1529.31
v -3.31906 -73.1774 1528.5
v -3.47999 -73.2886 1528.81
v -3.46796 -73.3352 1529.44
v -3.3907 -72.1078 1528.57
v -3.38325 -72.194 1529.23
v -3.19414 -72.3453 1527.91
v -3.24308 -72.5408 1527.71
v -2.66562 -73.3676 1530.53
v -2.50273 -73.7287 1531.81
v -2.69165 -74.3018 1533.42
v -2.46858 -73.6967 1532.29
v -2.69465 -74.2162 1534.09
v -2.49665 -73.4584 1532.26
v -2.8584 -73.9924 1534.25
v -2.61819 -73.4678 1532.67
v -2.81182 -74.6392 1534.69
v -2.84697 -74.9965 1535.97
v -3.02587 -72.3546 1529
v -2.72483 -72.8583 1530.95
v -3.12803 -72.4985 1530.21
v -3.22022 -72.2139 1529.18
v -2.92107 -72.8427 1528.71
v -2.74324 -72.9568 1529.61
v -2.85703 -72.5759 1529
v -2.74887 -72.7112 1529.89
v -2.83592 -73.1921 1529.61
v -2.50928 -73.2719 1531.21
v -2.82543 -73.1225 1532.11
v -2.76662 -76.7782 1539.98
v -3.43832 -73.9872 1532.53
v -3.57888 -75.1151 1535.33
v -3.64355 -75.9646 1537.87
v -3.69957 -74.5246 1534.41
v -3.7177 -74.3709 1534.9
v -3.62108 -73.9847 1533.67
v -3.72819 -75.2507 1536.11
v -3.77049 -75.0093 1536.08
v -3.62822 -74.6568 1535.97
v -3.44358 -74.3224 1535.45
v -3.52041 -73.7907 1532.76
v -3.45391 -73.2522 1531.6
v -3.71206 -75.5954 1537.7
v -3.61549 -76.2186 1538.97
v -3.39253 -76.7722 1539.53
v -3.52935 -76.5771 1539.32
v -3.17542 -77.219 1540.83
v -4.13982 -72.704 1526.67
v -4.48816 -72.6036 1526.68
v -4.73071 -72.3191 1526.75
v -4.74298 -72.0441 1526.83
v -3.76172 -72.576 1526.68
v -3.53581 -71.9965 1526.79
v -3.72231 -71.6967 1526.87
v -4.08479 -71.5657 1526.92
v -3.56398 -72.3135 1526.73
v -4.50605 -71.6981 1526.92
v -3.35757 -73.8746 1534.31
v -3.24701 -77.0661 1540.82
v -3.24701 -77.0661 1540.82
v -3.4373 -76.8224 1540.08
v -2.95775 -75.2163 1537.07
v -2.84433 -75.715 1537.39
v -2.82325 -76.9536 1540.55
v -2.92614 -76.9955 1540.82
v -2.92614 -76.9955 1540.82
v -2.95045 -77.1981 1540.89
v -2.95045 -77.1981 1540.89
v -2.95045 -77.1981 1540.89
v -3.06785 -77.1437 1540.96
v -3.06785 -77.1437 1540.96
v -3.06785 -77.1437 1540.96
v -2.94697 -77.187 1540.57
v -3.07762 -77.233 1540.64
v -2.86304 -77.0083 1540.2
v -2.93429 -76.6364 1539.2
v -3.13547 -76.9697 1539.85
v -2.8584 -73.9924 1534.25
v -2.85703 -72.5759 1529
v -2.76662 -76.7782 1539.98
v -3.64355 -75.9646 1537.87
v -3.44358 -74.3224 1535.45
v -3.71206 -75.5954 1537.7
v -3.52935 -76.5771 1539.32
v -3.17542 -77.219 1540.83
v -3.17542 -77.219 1540.83
v -3.17542 -77.219 1540.83
vn -0.00437127 0.210536 -0.977576
vn -0.0271505 0.228447 -0.973178
vn 0.0186295 0.228922 -0.973266
vn 0.000673009 0.260118 -0.965577
vn -0.00607007 0.268976 -0.963128
vn -0.0398544 0.208613 -0.977186
vn -0.0460226 0.207773 -0.977094
vn -0.0531209 0.225869 -0.972708
vn -0.0623365 0.227162 -0.97186
vn -0.0375544 0.201282 -0.978813
vn -0.0413009 0.243893 -0.968922
vn -0.954768 -0.0438805 0.294096
vn -0.883127 -0.43085 0.185621
vn -0.459835 0.803967 0.37708
vn -0.0999047 0.953011 0.285988
vn -0.828467 0.410513 0.380948
vn -0.731517 0.576565 0.363944
vn -0.672656 -0.738099 0.0523828
vn -0.612847 -0.789758 -0.0264771
vn -0.364216 -0.92731 -0.0862713
vn -0.935498 0.0529402 0.349342
vn -0.931344 -0.293992 0.214865
vn 0.324637 -0.877074 -0.354052
vn 0.70697 -0.591929 -0.387058
vn 0.429058 0.891661 0.144391
vn 0.74663 0.664565 -0.029956
vn -0.131545 -0.965187 -0.226074
vn -0.955637 0.0773481 0.284209
vn -0.925472 0.271149 0.264536
vn -0.594526 0.743459 0.306282
vn -0.319898 0.889379 0.326605
vn -0.271898 -0.937944 -0.215248
vn -0.751616 -0.659374 -0.0172916
vn -0.739983 -0.654457 -0.155278
vn -0.981988 -0.119498 0.146357
vn -0.968676 -0.246597 -0.029277
vn -0.207189 0.928306 0.308739
vn -0.652678 0.729853 0.203288
vn -0.807721 0.570731 0.147827
vn -0.551656 0.793909 0.255702
vn -0.259728 0.876766 0.40475
vn 0.15772 0.89838 0.409923
vn -0.332338 0.82958 0.448719
vn -0.72689 0.598325 0.337102
vn -0.480259 0.696034 0.533749
vn -0.851637 0.390243 0.349894
vn -0.678448 0.467854 0.56641
vn -0.983689 -0.00383662 0.179834
vn -0.673814 -0.730456 -0.111392
vn 0.052924 0.860567 0.506579
vn -0.0584999 0.732126 0.678652
vn 0.513984 0.78755 0.339979
vn 0.246034 0.894266 0.373838
vn 0.962357 0.252787 0.0998423
vn 0.8508 0.479318 0.215391
vn 0.890614 0.33896 0.303171
vn 0.573664 0.691777 0.438582
vn 0.383377 0.838308 0.387635
vn 0.897617 0.239074 0.370308
vn 0.56799 0.198914 0.798637
vn 0.56799 0.198914 0.798637
vn 0.271814 -0.93283 -0.236528
vn 0.186107 -0.9789 -0.0843716
vn 0.862773 -0.492831 -0.112877
vn 0.265396 -0.89314 -0.363134
vn 0.271225 -0.89677 -0.349629
vn -0.1425 -0.925323 -0.351384
vn 0.476226 -0.819868 -0.317843
vn 0.188352 -0.924845 -0.330432
vn 0.658174 -0.720744 -0.217565
vn 0.573773 -0.789911 -0.21639
vn 0.129687 -0.943732 -0.304223
vn -0.313402 -0.888638 -0.334815
vn -0.536114 -0.79954 -0.270771
vn -0.696871 -0.655368 -0.291313
vn 0.443482 -0.857126 -0.262028
vn 0.606827 -0.756509 -0.243834
vn 0.699619 -0.656791 -0.281351
vn 0.197505 -0.959496 -0.200894
vn 0.342327 -0.886126 -0.3124
vn -0.0297326 -0.984667 -0.17189
vn -0.28253 -0.955472 -0.0851445
vn 0.397199 0.913565 0.0873623
vn 0.0382191 0.971996 0.23187
vn 0.928716 0.307475 -0.207232
vn 0.927349 -0.159222 -0.338633
vn 0.82599 -0.506723 -0.246924
vn 0.892381 -0.425708 -0.149766
vn 0.876071 -0.478014 -0.0632658
vn 0.994429 -0.103028 0.0222666
vn 0.986169 0.089455 0.139531
vn 0.907925 0.390992 0.15099
vn 0.858443 0.446431 0.252539
vn 0.716442 0.642887 0.270937
vn 0.95243 -0.301212 -0.0463477
vn 0.996634 0.0448804 0.0686025
vn 0.686871 0.726551 0.0182244
vn 0.672465 0.724526 0.151171
vn 0.161507 0.949867 0.267708
vn 0.408935 0.903342 0.129404
vn 0.929655 -0.207403 -0.304508
vn 0.969686 -0.155201 -0.188737
vn 0.979233 0.0609212 -0.193369
vn 0.897326 0.441041 -0.0170114
vn 0.795315 -0.558008 -0.236855
vn 0.992226 0.107639 -0.0624639
vn 0.347526 0.885366 0.308794
vn 0.819254 -0.539128 -0.195355
vn -0.87036 -0.447869 -0.204662
vn -0.620553 -0.729384 -0.287948
vn -0.596285 -0.754761 -0.273459
vn -0.953929 -0.251338 -0.163857
vn -0.922828 0.373683 0.0935416
vn -0.951828 0.306627 0.00180612
vn -0.893329 -0.419529 -0.161116
vn -0.998314 0.0495475 0.0302355
vn -0.697606 0.66375 0.269781
vn -0.555467 0.775744 0.299461
vn -0.996997 0.0474721 -0.0611824
vn -0.955478 0.255769 0.147118
vn -0.861085 0.450631 0.235508
vn -0.99143 0.0293094 0.12731
vn -0.570043 -0.78653 -0.237533
vn -0.699504 -0.689594 -0.187494
vn -0.00103116 -0.94322 0.332168
vn 0.051381 -0.951947 -0.301921
vn -0.486299 -0.867879 -0.101488
vn -0.888143 -0.437506 0.140676
vn -0.925833 0.188648 0.327483
vn 0.544854 -0.740699 -0.393063
vn 0.937717 0.279798 -0.205911
vn 0.638287 0.76824 0.0489603
vn 0.0205606 0.962486 0.270552
vn 0.869977 -0.327174 -0.368914
vn -0.619333 0.687114 0.37987
vn 0.122972 0.924295 0.361327
vn -0.902969 -0.419485 0.0931651
vn -0.662333 -0.264216 0.701074
vn -0.81455 -0.578046 -0.0486985
vn 0.945126 0.290036 0.150388
vn 0.750848 -0.611018 -0.250769
vn 0.891683 -0.452032 -0.0238487
vn 0.187875 0.698073 0.690939
vn 0.56799 0.198914 0.798637
vn 0.110441 -0.970362 0.214944
vn 0.883283 -0.468793 -0.00662589
vn 0.936978 0.00440367 0.349361
vn -0.122588 0.617635 0.776852
vn -0.0664217 -0.838593 0.540694
vn -0.662333 -0.264216 0.701074
vn 0.88275 -0.469546 -0.0166832
vn -0.433911 -0.874051 -0.21853
vn 0.324497 -0.878952 -0.349494
vn 0.749032 -0.602931 -0.274636
vn -0.347984 -0.892928 -0.285634
vn 0.432398 0.82902 0.354623
vn 0.792337 0.607098 -0.0602917
vn 0.925791 0.345921 0.15248
vn -0.977577 -0.208529 -0.0293103
vn 0.110888 0.915482 0.386778
vn -0.980396 -0.195045 -0.0279511
vn -0.97494 -0.222124 0.0123671
vn -0.662333 -0.264216 0.701074
vn -0.466613 -0.867314 -0.173318
vn -0.904046 -0.417197 0.0929952
g grp1
usemtl mtl1
f 3//3 2//2 1//1 
f 5//5 2//2 4//4 
f 1//1 2//2 6//6 
f 2//2 3//3 4//4 
f 2//2 8//8 7//7 
f 2//2 9//9 8//8 
f 2//2 10//10 6//6 
f 11//11 2//2 5//5 
f 2//2 7//7 10//10 
f 2//2 11//11 9//9 
f 13//13 12//12 128//128 
f 135//135 14//14 133//133 
f 14//14 15//15 133//133 
f 17//17 14//14 16//16 
f 19//19 18//18 13//13 
f 20//20 18//18 19//19 
f 13//13 22//22 21//21 
f 21//21 17//17 16//16 
f 12//12 21//21 16//16 
f 13//13 21//21 12//12 
f 24//24 23//23 130//130 
f 133//133 25//25 132//132 
f 132//132 25//25 26//26 
f 132//132 26//26 131//131 
f 130//130 134//134 24//24 
f 20//20 19//19 27//27 
f 22//22 13//13 18//18 
f 22//22 28//28 21//21 
f 21//21 28//28 17//17 
f 29//29 17//17 28//28 
f 29//29 30//30 17//17 
f 30//30 31//31 17//17 
f 34//34 33//33 32//32 
f 33//33 36//36 35//35 
f 34//34 36//36 33//33 
f 39//39 38//38 37//37 
f 37//37 38//38 40//40 
f 43//43 42//42 41//41 
f 44//44 43//43 41//41 
f 46//46 45//45 43//43 
f 46//46 48//48 47//47 
f 45//45 46//46 47//47 
f 49//49 137//137 139//139 
f 45//45 51//51 50//50 
f 43//43 45//45 50//50 
f 53//53 42//42 52//52 
f 55//55 54//54 140//140 
f 57//57 56//56 55//55 
f 58//58 50//50 57//57 
f 50//50 51//51 57//57 
f 59//59 56//56 57//57 
f 51//51 143//143 57//57 
f 61//61 60//60 144//144 
f 51//51 148//148 143//143 
f 145//145 63//63 62//62 
f 64//64 142//142 151//151 
f 153//153 66//66 65//65 
f 66//66 67//67 65//65 
f 67//67 68//68 65//65 
f 67//67 69//69 68//68 
f 72//72 71//71 70//70 
f 75//75 74//74 73//73 
f 77//77 72//72 76//76 
f 74//74 32//32 72//72 
f 72//72 32//32 76//76 
f 76//76 79//79 78//78 
f 32//32 79//79 76//76 
f 80//80 78//78 79//79 
f 79//79 82//82 81//81 
f 32//32 82//82 79//79 
f 82//82 20//20 81//81 
f 33//33 18//18 82//82 
f 82//82 18//18 20//20 
f 23//23 80//80 27//27 
f 80//80 23//23 24//24 
f 17//17 31//31 15//15 
f 15//15 84//84 83//83 
f 26//26 85//85 131//131 
f 85//85 86//86 131//131 
f 86//86 134//134 131//131 
f 80//80 24//24 78//78 
f 88//88 77//77 87//87 
f 71//71 77//77 89//89 
f 91//91 89//89 90//90 
f 91//91 90//90 92//92 
f 91//91 94//94 93//93 
f 91//91 96//96 95//95 
f 95//95 70//70 89//89 
f 71//71 89//89 70//70 
f 95//95 89//89 91//91 
f 77//77 71//71 72//72 
f 99//99 98//98 97//97 
f 100//100 99//99 97//97 
f 84//84 99//99 100//100 
f 97//97 85//85 26//26 
f 83//83 97//97 26//26 
f 25//25 83//83 26//26 
f 84//84 100//100 83//83 
f 15//15 31//31 84//84 
f 31//31 30//30 99//99 
f 31//31 99//99 84//84 
f 83//83 100//100 97//97 
f 101//101 24//24 86//86 
f 102//102 78//78 101//101 
f 102//102 101//101 103//103 
f 101//101 86//86 85//85 
f 104//104 157//157 97//97 
f 105//105 102//102 87//87 
f 106//106 87//87 102//102 
f 106//106 102//102 104//104 
f 92//92 90//90 106//106 
f 98//98 107//107 94//94 
f 107//107 156//156 94//94 
f 98//98 104//104 97//97 
f 103//103 104//104 102//102 
f 99//99 107//107 98//98 
f 99//99 37//37 107//107 
f 107//107 37//37 53//53 
f 107//107 53//53 156//156 
f 89//89 77//77 88//88 
f 90//90 89//89 88//88 
f 92//92 98//98 94//94 
f 92//92 106//106 98//98 
f 90//90 88//88 106//106 
f 106//106 88//88 87//87 
f 106//106 104//104 98//98 
f 105//105 78//78 102//102 
f 157//157 85//85 97//97 
f 103//103 101//101 85//85 
f 78//78 24//24 101//101 
f 30//30 37//37 99//99 
f 39//39 37//37 30//30 
f 136//136 53//53 37//37 
f 141//141 68//68 70//70 
f 95//95 141//141 70//70 
f 140//140 54//54 96//96 
f 140//140 91//91 93//93 
f 140//140 96//96 91//91 
f 54//54 95//95 96//96 
f 154//154 68//68 141//141 
f 108//108 154//154 141//141 
f 55//55 158//158 54//54 
f 64//64 154//154 108//108 
f 142//142 146//146 151//151 
f 59//59 147//147 56//56 
f 108//108 142//142 64//64 
f 56//56 158//158 55//55 
f 53//53 52//52 156//156 
f 94//94 91//91 92//92 
f 87//87 77//77 76//76 
f 105//105 87//87 76//76 
f 76//76 78//78 105//105 
f 81//81 80//80 79//79 
f 134//134 86//86 24//24 
f 27//27 127//127 126//126 
f 23//23 27//27 126//126 
f 15//15 83//83 25//25 
f 14//14 17//17 15//15 
f 23//23 126//126 130//130 
f 15//15 25//25 133//133 
f 33//33 22//22 18//18 
f 28//28 35//35 29//29 
f 35//35 28//28 22//22 
f 35//35 22//22 33//33 
f 81//81 20//20 27//27 
f 80//80 81//81 27//27 
f 32//32 33//33 82//82 
f 74//74 109//109 34//34 
f 109//109 36//36 34//34 
f 110//110 75//75 73//73 
f 67//67 73//73 69//69 
f 111//111 110//110 67//67 
f 110//110 112//112 75//75 
f 114//114 112//112 113//113 
f 110//110 115//115 112//112 
f 112//112 116//116 113//113 
f 117//117 38//38 113//113 
f 117//117 41//41 118//118 
f 117//117 118//118 40//40 
f 38//38 117//117 40//40 
f 38//38 39//39 114//114 
f 112//112 114//114 119//119 
f 36//36 119//119 120//120 
f 36//36 120//120 35//35 
f 120//120 119//119 39//39 
f 109//109 119//119 36//36 
f 119//119 114//114 39//39 
f 112//112 119//119 109//109 
f 112//112 109//109 75//75 
f 114//114 113//113 38//38 
f 112//112 115//115 116//116 
f 113//113 116//116 117//117 
f 41//41 117//117 44//44 
f 117//117 121//121 44//44 
f 44//44 122//122 46//46 
f 43//43 44//44 46//46 
f 139//139 124//124 123//123 
f 123//123 67//67 155//155 
f 124//124 111//111 123//123 
f 123//123 111//111 67//67 
f 162//162 122//122 159//159 
f 159//159 122//122 161//161 
f 122//122 44//44 121//121 
f 49//49 123//123 155//155 
f 139//139 123//123 49//49 
f 48//48 46//46 122//122 
f 162//162 48//48 122//122 
f 116//116 121//121 117//117 
f 161//161 116//116 159//159 
f 159//159 116//116 115//115 
f 110//110 111//111 115//115 
f 67//67 110//110 73//73 
f 75//75 109//109 74//74 
f 74//74 34//34 32//32 
f 73//73 74//74 72//72 
f 69//69 73//73 72//72 
f 70//70 69//69 72//72 
f 69//69 70//70 68//68 
f 49//49 155//155 152//152 
f 47//47 148//148 51//51 
f 125//125 145//145 149//149 
f 138//138 163//163 150//150 
f 145//145 125//125 63//63 
f 164//164 49//49 152//152 
f 66//66 153//153 62//62 
f 63//63 66//66 62//62 
f 58//58 57//57 55//55 
f 55//55 52//52 58//58 
f 42//42 58//58 52//52 
f 43//43 50//50 58//58 
f 42//42 43//43 58//58 
f 45//45 47//47 51//51 
f 165//165 137//137 49//49 
f 41//41 42//42 53//53 
f 160//160 41//41 53//53 
f 136//136 160//160 53//53 
f 30//30 120//120 39//39 
f 120//120 30//30 29//29 
f 35//35 120//120 29//29 
f 27//27 19//19 127//127 
f 16//16 14//14 135//135 
f 135//135 129//129 16//16 
f 12//12 16//16 129//129 
f 12//12 129//129 128//128 
f 127//127 19//19 128//128 
f 19//19 13//13 128//128 
