v 5.17227 -90.7459 1553.08
v 5.18021 -90.8455 1553.15
v 5.16984 -90.7972 1553.32
v 7.26607 -88.9001 1553.81
v 7.26324 -88.6879 1553.74
v 7.25581 -88.7389 1553.88
v 6.58642 -89.1554 1554.41
v 6.53666 -89.3372 1554.45
v 6.83605 -89.0196 1554.36
v 6.76566 -88.9351 1554.32
v 6.79677 -89.1996 1554.41
v 6.58569 -89.5245 1554.44
v 6.14508 -90.4497 1553.95
v 6.48265 -90.1399 1553.97
v 6.25025 -90.201 1554.2
v 5.59561 -90.2149 1554.12
v 5.48234 -90.4487 1554.01
v 5.70684 -90.3288 1554.19
v 6.91608 -88.5726 1553.81
v 6.86229 -88.5761 1553.6
v 6.60998 -88.7037 1553.57
v 6.5694 -90.1437 1553.65
v 6.77551 -89.8414 1553.89
v 6.89105 -89.7374 1553.61
v 7.00495 -89.5288 1553.83
v 6.99134 -89.4579 1554.04
v 5.85449 -89.4588 1553.88
v 6.07674 -89.256 1554
v 5.91584 -89.3203 1553.68
v 6.18864 -89.0385 1553.68
v 5.82653 -89.4048 1553.41
v 6.16781 -89.0537 1553.37
v 6.38483 -88.8548 1553.59
v 6.57514 -88.7648 1553.89
v 6.36633 -88.955 1553.98
v 5.62219 -89.8005 1553.88
v 5.63269 -89.6661 1553.58
v 5.43966 -90.0483 1553.73
v 5.45647 -89.9207 1553.37
v 5.22058 -90.4061 1553.33
v 5.36862 -90.0893 1553.12
v 5.22738 -90.4013 1553.11
v 6.18088 -90.5396 1553.49
v 6.25415 -90.4347 1553.75
v 5.91891 -90.7006 1553.68
v 5.90482 -90.7594 1553.34
v 5.67933 -90.8854 1553.33
v 5.16147 -90.6379 1553.21
v 5.26623 -90.3791 1553.58
v 5.19327 -90.6555 1553.5
v 5.78484 -89.6954 1554.08
v 5.53193 -90.0742 1553.98
v 5.38203 -90.323 1553.85
v 5.30136 -90.5361 1553.77
v 5.72929 -89.9551 1554.19
v 5.44574 -90.9646 1553.27
v 5.52795 -90.9234 1553.5
v 5.61227 -90.5443 1554.06
v 5.4681 -90.7263 1553.87
v 5.57285 -90.744 1553.87
v 5.46963 -90.8603 1553.69
v 5.69998 -90.784 1553.75
v 5.77531 -90.5771 1554.04
v 5.8729 -90.409 1554.18
v 5.9683 -90.5277 1554.01
v 5.39906 -90.6551 1553.87
v 5.26408 -90.7044 1553.68
v 5.21995 -90.8542 1553.44
v 5.31035 -90.8411 1553.62
v 5.23227 -90.9175 1553.21
v 5.39275 -90.9406 1553.48
v 5.29991 -90.9478 1553.36
v 5.38992 -90.9555 1553.11
v 7.17844 -89.0892 1553.99
v 7.23242 -89.0764 1553.75
v 7.14786 -89.2483 1553.87
v 6.74676 -89.7341 1554.16
v 6.49133 -89.9375 1554.26
v 6.97613 -89.3455 1554.19
v 7.1987 -88.8678 1554.04
v 7.09998 -89.0497 1554.18
v 6.69402 -89.642 1554.32
v 6.82861 -89.3699 1554.35
v 6.92292 -89.1842 1554.34
v 7.02704 -88.9716 1554.27
v 6.75107 -88.6452 1553.85
v 6.84163 -88.6655 1554.03
v 6.29588 -89.1804 1554.23
v 6.58519 -88.8593 1554.13
v 6.77957 -88.8063 1554.21
v 6.55196 -89.0229 1554.3
v 6.36125 -89.312 1554.39
v 7.18918 -88.707 1554.01
v 7.18799 -88.6103 1553.88
v 7.16539 -88.5605 1553.71
v 7.04786 -88.5759 1553.91
v 7.1176 -88.6311 1554
v 7.0377 -88.5364 1553.73
v 7.09847 -88.775 1554.15
v 6.97681 -88.713 1554.14
v 6.95486 -88.853 1554.27
v 6.07909 -89.4759 1554.27
v 5.89684 -89.7557 1554.27
v 5.86077 -90.0645 1554.31
v 6.19451 -89.5779 1554.42
v 5.97045 -89.8231 1554.36
v 6.09637 -89.8348 1554.41
v 6.36514 -89.5953 1554.46
v 6.39904 -89.8764 1554.37
v 6.25361 -89.8539 1554.42
v 6.07381 -90.2011 1554.29
v 5.94741 -90.1639 1554.32
v 5.30971 -90.9022 1552.99
v 7.07014 -88.5434 1553.58
v 6.5387 -89.3934 1552.61
v 6.66636 -89.0937 1552.76
v 6.85682 -89.13 1552.83
v 6.92589 -88.9099 1552.94
v 7.08762 -88.9112 1553.09
v 5.59618 -90.8958 1553.06
v 6.57208 -90.0811 1553.11
v 6.8039 -89.8393 1553.36
v 6.42934 -90.3007 1553.34
v 7.07003 -89.4182 1553.42
v 7.14418 -89.3034 1553.62
v 5.90001 -89.356 1553.14
v 6.21709 -89.0972 1553.03
v 5.96207 -89.3684 1552.93
v 6.4471 -88.8673 1553.19
v 5.65174 -89.6924 1553.03
v 5.5137 -89.9381 1552.9
v 5.36502 -90.1824 1552.92
v 6.09255 -90.6008 1553.17
v 6.16119 -90.4774 1552.97
v 5.82961 -90.7778 1553.07
v 5.21373 -90.6018 1552.95
v 5.27455 -90.4021 1552.9
v 5.69975 -89.7905 1552.74
v 5.98851 -89.4326 1552.79
v 5.49396 -90.1283 1552.71
v 5.35623 -90.4171 1552.75
v 6.00047 -89.5568 1552.64
v 5.7093 -89.9725 1552.58
v 5.54778 -90.2335 1552.59
v 5.41048 -90.5997 1552.68
v 5.48151 -90.4392 1552.6
v 5.93642 -89.7715 1552.53
v 5.78039 -90.0851 1552.49
v 5.61727 -90.4182 1552.55
v 5.8316 -90.182 1552.47
v 5.88711 -90.5748 1552.73
v 5.59549 -90.7206 1552.72
v 5.66672 -90.594 1552.62
v 5.75582 -90.7466 1552.87
v 5.82589 -90.4054 1552.55
v 6.05999 -90.2972 1552.59
v 5.47795 -90.826 1552.83
v 5.44759 -90.9105 1552.97
v 6.24085 -90.2547 1552.73
v 6.38071 -90.2146 1552.89
v 5.48108 -90.6905 1552.68
v 5.25295 -90.6848 1552.86
v 5.31271 -90.7688 1552.82
v 5.23689 -90.8447 1552.99
v 7.22312 -89.0738 1553.51
v 6.63878 -89.8371 1552.85
v 6.87301 -89.5934 1553.04
v 7.09921 -89.2361 1553.21
v 7.19819 -88.9738 1553.3
v 7.27106 -88.8067 1553.55
v 7.08472 -89.0712 1553.08
v 6.73401 -89.5402 1552.77
v 6.95675 -89.2677 1552.94
v 6.73883 -89.347 1552.72
v 6.90463 -88.6059 1553.36
v 6.69536 -88.6802 1553.34
v 6.70589 -88.7489 1553.14
v 6.47703 -88.9531 1552.95
v 6.29598 -89.1965 1552.77
v 6.77936 -88.8055 1553.02
v 6.50532 -89.0892 1552.77
v 7.0228 -88.6385 1553.27
v 6.88485 -88.8261 1552.99
v 7.23344 -88.6439 1553.55
v 7.15272 -88.5832 1553.49
v 7.21789 -88.7813 1553.35
v 7.15511 -88.7107 1553.29
v 7.05155 -88.748 1553.14
v 6.16105 -89.5727 1552.54
v 6.0734 -89.8178 1552.47
v 6.09373 -89.9493 1552.46
v 6.35704 -89.3492 1552.62
v 6.3219 -89.7439 1552.51
v 6.32185 -89.5597 1552.52
v 6.42116 -89.9294 1552.64
v 6.48432 -89.6743 1552.59
v 6.2015 -89.9788 1552.51
v 5.98031 -90.181 1552.49
vn -0.969727 -0.107045 -0.219478
vn -0.898613 -0.421041 -0.123362
vn -0.965218 -0.244269 0.0932027
vn 0.987586 -0.11004 0.112092
vn 0.938096 0.342324 0.0528224
vn 0.940639 0.209198 0.26727
vn -0.200047 0.403618 0.89279
vn -0.0536394 0.165747 0.984708
vn 0.161425 0.280907 0.946062
vn -0.130336 0.574961 0.807733
vn 0.354573 0.000701592 0.935028
vn 0.315897 -0.226999 0.921239
vn 0.554032 -0.744571 0.372374
vn 0.667528 -0.666795 0.331345
vn 0.459647 -0.65825 0.596181
vn -0.705083 0.0929407 0.703007
vn -0.688564 -0.113923 0.716172
vn -0.39372 -0.271946 0.878083
vn -0.302548 0.938131 0.168447
vn -0.305118 0.950753 -0.0545123
vn -0.516404 0.856124 -0.0194795
vn 0.741863 -0.665451 0.0825536
vn 0.772922 -0.595998 0.217665
vn 0.82909 -0.558757 0.0200001
vn 0.847492 -0.511778 0.140858
vn 0.822537 -0.474365 0.313705
vn -0.768438 0.578351 0.273887
vn -0.701876 0.624626 0.342363
vn -0.745584 0.651288 0.141166
vn -0.684343 0.719882 0.115947
vn -0.765095 0.643406 -0.0256611
vn -0.653878 0.749836 -0.100941
vn -0.610976 0.791264 0.0246983
vn -0.557094 0.800356 0.221533
vn -0.628403 0.714099 0.308499
vn -0.818775 0.485345 0.306672
vn -0.819465 0.559045 0.126278
vn -0.874915 0.41908 0.242684
vn -0.863078 0.504281 0.0282452
vn -0.943777 0.324518 0.063039
vn -0.870677 0.47989 -0.107831
vn -0.937657 0.319954 -0.135751
vn 0.649507 -0.758382 0.0547437
vn 0.64093 -0.741636 0.197953
vn 0.507703 -0.831382 0.225923
vn 0.556288 -0.830954 0.00764678
vn 0.418869 -0.906755 0.0484131
vn -0.992319 0.120864 -0.0263602
vn -0.9283 0.295136 0.226173
vn -0.970049 0.0250136 0.241617
vn -0.749073 0.469808 0.467087
vn -0.816246 0.33467 0.470892
vn -0.861284 0.211078 0.462208
vn -0.877267 0.0310813 0.478994
vn -0.700628 0.249949 0.668315
vn 0.13797 -0.99034 0.013842
vn 0.227193 -0.947137 0.22653
vn -0.282318 -0.512066 0.811225
vn -0.347323 -0.654182 0.671873
vn 0.00416554 -0.78246 0.622687
vn -0.0608964 -0.877902 0.474953
vn 0.314611 -0.871125 0.377043
vn 0.146814 -0.738968 0.65755
vn 0.098992 -0.605309 0.789811
vn 0.389434 -0.763284 0.515498
vn -0.64472 -0.351357 0.678885
vn -0.838951 -0.262891 0.476497
vn -0.81855 -0.500786 0.281407
vn -0.529309 -0.689785 0.493993
vn -0.638519 -0.767334 -0.0590939
vn -0.121464 -0.949765 0.288432
vn -0.365881 -0.918062 0.152619
vn -0.0640856 -0.984933 -0.160622
vn 0.904176 -0.290583 0.313094
vn 0.951324 -0.29853 0.0765727
vn 0.894663 -0.410338 0.176638
vn 0.718385 -0.552099 0.423213
vn 0.581429 -0.58359 0.566889
vn 0.769019 -0.388459 0.50765
vn 0.880345 0.00585957 0.474297
vn 0.809888 -0.179061 0.558585
vn 0.600174 -0.451862 0.660008
vn 0.580975 -0.29657 0.757967
vn 0.642236 -0.169751 0.747474
vn 0.594572 0.106824 0.796914
vn -0.44504 0.875578 0.18789
vn -0.320417 0.85714 0.403291
vn -0.598034 0.605883 0.524653
vn -0.50635 0.738566 0.445117
vn -0.292244 0.732242 0.615155
vn -0.426604 0.606456 0.670984
vn -0.439985 0.428602 0.789122
vn 0.762579 0.409223 0.501008
vn 0.647538 0.707496 0.283098
vn 0.487965 0.871775 0.0435837
vn 0.0495592 0.941211 0.334164
vn 0.363822 0.761051 0.537062
vn -0.0304586 0.99614 0.0823194
vn 0.554005 0.422582 0.717289
vn 0.0210689 0.757645 0.652326
vn 0.24207 0.474386 0.84638
vn -0.636741 0.481473 0.602283
vn -0.648215 0.355424 0.673418
vn -0.476567 -0.0235607 0.878822
vn -0.416771 0.259726 0.871117
vn -0.529739 0.168331 0.831289
vn -0.251609 -0.0476593 0.966655
vn -0.0599826 -0.0210071 0.997978
vn 0.38931 -0.470867 0.791658
vn 0.0994327 -0.295003 0.950309
vn 0.221677 -0.530648 0.818091
vn -0.119145 -0.335004 0.934653
vn -0.328321 -0.841812 -0.428435
vn 0.0598645 0.984236 -0.166421
vn 0.316427 0.195885 -0.928172
vn 0.127612 0.512598 -0.849093
vn 0.596234 0.145104 -0.789589
vn 0.465973 0.409828 -0.784162
vn 0.778181 0.178142 -0.602245
vn 0.34067 -0.908952 -0.240313
vn 0.766012 -0.598707 -0.234039
vn 0.809936 -0.574935 -0.115994
vn 0.728653 -0.679101 -0.0888035
vn 0.880079 -0.451274 -0.147689
vn 0.901501 -0.432778 -3.4984e-05
vn -0.715865 0.676904 -0.171284
vn -0.597347 0.732381 -0.326795
vn -0.679768 0.656785 -0.326419
vn -0.53594 0.81064 -0.235862
vn -0.773244 0.595688 -0.217368
vn -0.799008 0.519041 -0.303617
vn -0.856516 0.411431 -0.311615
vn 0.643259 -0.755447 -0.124574
vn 0.645801 -0.703328 -0.297105
vn 0.529418 -0.82559 -0.19524
vn -0.938663 0.130423 -0.319221
vn -0.893576 0.293307 -0.339842
vn -0.693499 0.549091 -0.466431
vn -0.624767 0.639639 -0.447803
vn -0.758323 0.406493 -0.509618
vn -0.806223 0.190874 -0.559975
vn -0.506495 0.564067 -0.652143
vn -0.594378 0.413559 -0.689699
vn -0.596675 0.212647 -0.773796
vn -0.57478 -0.193944 -0.794993
vn -0.574884 0.00907984 -0.818185
vn -0.402799 0.387225 -0.829343
vn -0.363084 0.167213 -0.91663
vn -0.240165 -0.197492 -0.95043
vn -0.0642465 -0.101537 -0.992755
vn 0.48109 -0.673191 -0.561575
vn 0.229028 -0.741019 -0.631219
vn 0.153246 -0.560657 -0.813744
vn 0.437523 -0.8029 -0.404877
vn 0.225282 -0.458196 -0.859828
vn 0.496062 -0.511526 -0.701615
vn 0.0535285 -0.822698 -0.565953
vn 0.0838995 -0.91616 -0.391934
vn 0.635941 -0.584329 -0.504122
vn 0.709641 -0.604527 -0.361879
vn -0.177118 -0.553258 -0.813962
vn -0.841054 -0.112605 -0.529101
vn -0.508867 -0.539428 -0.670874
vn -0.762123 -0.512993 -0.394976
vn 0.956639 -0.264141 -0.122764
vn 0.749537 -0.487562 -0.447747
vn 0.829209 -0.444061 -0.339443
vn 0.894054 -0.31489 -0.318609
vn 0.935889 -0.097814 -0.338445
vn 0.990901 0.021179 -0.132913
vn 0.841638 -0.0848339 -0.533337
vn 0.73364 -0.310071 -0.604672
vn 0.800553 -0.204018 -0.563463
vn 0.618078 -0.0517496 -0.784411
vn -0.159366 0.933826 -0.320269
vn -0.414277 0.887981 -0.199659
vn -0.316915 0.858286 -0.403622
vn -0.403632 0.775384 -0.485655
vn -0.452221 0.671227 -0.587325
vn -0.115313 0.795193 -0.59529
vn -0.207593 0.671759 -0.711087
vn 0.178094 0.862164 -0.474295
vn 0.148044 0.697928 -0.700699
vn 0.848499 0.489353 -0.201452
vn 0.478385 0.828373 -0.291453
vn 0.905921 0.18984 -0.378509
vn 0.692805 0.532404 -0.486382
vn 0.502204 0.575712 -0.645249
vn -0.253939 0.429616 -0.866571
vn -0.0875073 0.16938 -0.981658
vn 0.148044 -0.0721445 -0.986346
vn -0.161989 0.518336 -0.839695
vn 0.303203 -0.0237806 -0.952629
vn 0.0631034 0.247674 -0.966786
vn 0.634192 -0.417276 -0.650908
vn 0.548614 -0.183303 -0.815734
vn 0.449182 -0.300572 -0.841364
vn 0.264049 -0.321015 -0.909521
g grp1
usemtl mtl1
f 1//1 2//2 3//3 
f 4//4 5//5 6//6 
f 7//7 8//8 9//9 
f 7//7 9//9 10//10 
f 9//9 8//8 11//11 
f 11//11 8//8 12//12 
f 13//13 14//14 15//15 
f 16//16 17//17 18//18 
f 19//19 20//20 21//21 
f 14//14 22//22 23//23 
f 23//23 22//22 24//24 
f 23//23 24//24 25//25 
f 23//23 25//25 26//26 
f 27//27 28//28 29//29 
f 30//30 31//31 29//29 
f 32//32 31//31 30//30 
f 29//29 28//28 30//30 
f 33//33 32//32 30//30 
f 34//34 30//30 35//35 
f 30//30 34//34 33//33 
f 33//33 34//34 21//21 
f 36//36 27//27 37//37 
f 37//37 27//27 29//29 
f 29//29 31//31 37//37 
f 38//38 37//37 39//39 
f 37//37 31//31 39//39 
f 40//40 39//39 41//41 
f 40//40 41//41 42//42 
f 43//43 22//22 44//44 
f 22//22 14//14 44//44 
f 44//44 45//45 43//43 
f 43//43 45//45 46//46 
f 45//45 47//47 46//46 
f 48//48 40//40 42//42 
f 37//37 38//38 36//36 
f 38//38 39//39 49//49 
f 39//39 40//40 49//49 
f 40//40 50//50 49//49 
f 51//51 36//36 52//52 
f 52//52 36//36 38//38 
f 38//38 53//53 52//52 
f 38//38 49//49 53//53 
f 49//49 54//54 53//53 
f 55//55 52//52 16//16 
f 54//54 17//17 53//53 
f 53//53 16//16 52//52 
f 16//16 53//53 17//17 
f 56//56 47//47 57//57 
f 58//58 59//59 60//60 
f 60//60 61//61 62//62 
f 61//61 60//60 59//59 
f 62//62 61//61 57//57 
f 57//57 47//47 62//62 
f 47//47 45//45 62//62 
f 58//58 63//63 64//64 
f 58//58 64//64 18//18 
f 62//62 63//63 60//60 
f 60//60 63//63 58//58 
f 63//63 62//62 65//65 
f 64//64 63//63 65//65 
f 15//15 64//64 65//65 
f 62//62 45//45 65//65 
f 65//65 45//45 13//13 
f 45//45 44//44 13//13 
f 65//65 13//13 15//15 
f 58//58 17//17 66//66 
f 54//54 66//66 17//17 
f 54//54 67//67 66//66 
f 49//49 50//50 54//54 
f 67//67 54//54 50//50 
f 68//68 50//50 3//3 
f 50//50 40//40 48//48 
f 3//3 50//50 48//48 
f 48//48 1//1 3//3 
f 66//66 59//59 58//58 
f 66//66 69//69 59//59 
f 59//59 69//69 61//61 
f 67//67 68//68 69//69 
f 67//67 69//69 66//66 
f 3//3 2//2 70//70 
f 3//3 70//70 68//68 
f 71//71 69//69 72//72 
f 69//69 71//71 61//61 
f 69//69 68//68 72//72 
f 68//68 70//70 72//72 
f 72//72 73//73 56//56 
f 70//70 73//73 72//72 
f 71//71 57//57 61//61 
f 56//56 71//71 72//72 
f 71//71 56//56 57//57 
f 74//74 75//75 4//4 
f 76//76 75//75 74//74 
f 14//14 77//77 78//78 
f 23//23 77//77 14//14 
f 77//77 26//26 79//79 
f 79//79 26//26 74//74 
f 26//26 76//76 74//74 
f 76//76 26//26 25//25 
f 74//74 80//80 81//81 
f 78//78 77//77 82//82 
f 82//82 77//77 79//79 
f 82//82 79//79 83//83 
f 83//83 79//79 84//84 
f 79//79 81//81 84//84 
f 74//74 81//81 79//79 
f 12//12 82//82 83//83 
f 81//81 85//85 84//84 
f 85//85 11//11 84//84 
f 12//12 83//83 11//11 
f 84//84 11//11 83//83 
f 19//19 86//86 87//87 
f 21//21 34//34 86//86 
f 35//35 28//28 88//88 
f 30//30 28//28 35//35 
f 86//86 34//34 87//87 
f 87//87 34//34 89//89 
f 90//90 87//87 89//89 
f 34//34 35//35 89//89 
f 35//35 88//88 89//89 
f 90//90 89//89 91//91 
f 10//10 90//90 91//91 
f 88//88 92//92 91//91 
f 92//92 7//7 91//91 
f 91//91 7//7 10//10 
f 74//74 4//4 80//80 
f 80//80 4//4 6//6 
f 93//93 6//6 94//94 
f 6//6 5//5 94//94 
f 94//94 95//95 96//96 
f 97//97 94//94 96//96 
f 95//95 98//98 96//96 
f 98//98 19//19 96//96 
f 19//19 87//87 96//96 
f 80//80 93//93 99//99 
f 93//93 80//80 6//6 
f 99//99 93//93 97//97 
f 99//99 97//97 100//100 
f 100//100 97//97 96//96 
f 87//87 100//100 96//96 
f 90//90 100//100 87//87 
f 99//99 85//85 80//80 
f 80//80 85//85 81//81 
f 85//85 99//99 101//101 
f 99//99 100//100 101//101 
f 10//10 9//9 101//101 
f 100//100 10//10 101//101 
f 10//10 100//100 90//90 
f 101//101 9//9 85//85 
f 85//85 9//9 11//11 
f 27//27 36//36 51//51 
f 28//28 27//27 51//51 
f 28//28 51//51 102//102 
f 103//103 51//51 55//55 
f 52//52 55//55 51//51 
f 16//16 18//18 104//104 
f 55//55 16//16 104//104 
f 28//28 102//102 88//88 
f 103//103 102//102 51//51 
f 102//102 103//103 105//105 
f 105//105 103//103 106//106 
f 55//55 104//104 106//106 
f 103//103 55//55 106//106 
f 106//106 104//104 107//107 
f 102//102 92//92 88//88 
f 92//92 102//102 105//105 
f 108//108 105//105 107//107 
f 107//107 105//105 106//106 
f 105//105 108//108 8//8 
f 105//105 8//8 92//92 
f 92//92 8//8 7//7 
f 78//78 82//82 109//109 
f 78//78 109//109 15//15 
f 12//12 109//109 82//82 
f 110//110 109//109 12//12 
f 110//110 12//12 108//108 
f 12//12 8//8 108//108 
f 111//111 15//15 109//109 
f 109//109 110//110 111//111 
f 108//108 107//107 110//110 
f 15//15 111//111 64//64 
f 111//111 110//110 112//112 
f 107//107 104//104 112//112 
f 110//110 107//107 112//112 
f 112//112 64//64 111//111 
f 104//104 18//18 112//112 
f 112//112 18//18 64//64 
f 78//78 15//15 14//14 
f 94//94 97//97 93//93 
f 88//88 91//91 89//89 
f 21//21 86//86 19//19 
f 23//23 26//26 77//77 
f 50//50 68//68 67//67 
f 14//14 13//13 44//44 
f 17//17 58//58 18//18 
f 70//70 113//113 73//73 
f 19//19 98//98 20//20 
f 94//94 5//5 95//95 
f 98//98 95//95 114//114 
f 115//115 116//116 117//117 
f 118//118 119//119 117//117 
f 116//116 118//118 117//117 
f 56//56 73//73 120//120 
f 121//121 122//122 123//123 
f 123//123 122//122 22//22 
f 122//122 24//24 22//22 
f 124//124 24//24 122//122 
f 124//124 125//125 24//24 
f 125//125 76//76 25//25 
f 24//24 125//125 25//25 
f 125//125 75//75 76//76 
f 31//31 32//32 126//126 
f 32//32 127//127 126//126 
f 126//126 127//127 128//128 
f 127//127 32//32 129//129 
f 129//129 32//32 21//21 
f 33//33 21//21 32//32 
f 130//130 126//126 128//128 
f 31//31 130//130 39//39 
f 31//31 126//126 130//130 
f 130//130 131//131 41//41 
f 131//131 132//132 41//41 
f 39//39 130//130 41//41 
f 132//132 42//42 41//41 
f 22//22 43//43 123//123 
f 123//123 133//133 134//134 
f 121//121 123//123 134//134 
f 123//123 43//43 133//133 
f 133//133 43//43 46//46 
f 133//133 46//46 135//135 
f 46//46 47//47 135//135 
f 136//136 42//42 137//137 
f 130//130 138//138 131//131 
f 139//139 138//138 130//130 
f 130//130 128//128 139//139 
f 138//138 140//140 131//131 
f 131//131 140//140 132//132 
f 132//132 137//137 42//42 
f 141//141 136//136 137//137 
f 139//139 142//142 138//138 
f 142//142 143//143 138//138 
f 143//143 140//140 138//138 
f 143//143 144//144 140//140 
f 144//144 141//141 140//140 
f 137//137 132//132 141//141 
f 132//132 140//140 141//141 
f 145//145 141//141 146//146 
f 143//143 142//142 147//147 
f 148//148 144//144 143//143 
f 144//144 146//146 141//141 
f 146//146 144//144 149//149 
f 148//148 150//150 149//149 
f 144//144 148//148 149//149 
f 56//56 120//120 47//47 
f 151//151 152//152 153//153 
f 151//151 154//154 152//152 
f 153//153 155//155 151//151 
f 155//155 156//156 151//151 
f 152//152 154//154 157//157 
f 154//154 120//120 157//157 
f 158//158 157//157 120//120 
f 47//47 120//120 135//135 
f 120//120 154//154 135//135 
f 151//151 134//134 154//154 
f 135//135 134//134 133//133 
f 154//154 134//134 135//135 
f 156//156 159//159 151//151 
f 159//159 160//160 134//134 
f 159//159 134//134 151//151 
f 134//134 160//160 121//121 
f 48//48 136//136 1//1 
f 42//42 136//136 48//48 
f 155//155 149//149 150//150 
f 155//155 153//153 149//149 
f 161//161 145//145 149//149 
f 149//149 145//145 146//146 
f 145//145 162//162 141//141 
f 145//145 163//163 162//162 
f 162//162 136//136 141//141 
f 162//162 1//1 136//136 
f 149//149 153//153 161//161 
f 153//153 152//152 161//161 
f 152//152 157//157 161//161 
f 161//161 163//163 145//145 
f 161//161 157//157 163//163 
f 157//157 113//113 163//163 
f 113//113 164//164 163//163 
f 163//163 164//164 162//162 
f 1//1 164//164 2//2 
f 162//162 164//164 1//1 
f 164//164 113//113 70//70 
f 2//2 164//164 70//70 
f 157//157 158//158 113//113 
f 113//113 158//158 73//73 
f 158//158 120//120 73//73 
f 4//4 75//75 165//165 
f 75//75 125//125 165//165 
f 121//121 166//166 167//167 
f 122//122 121//121 167//167 
f 167//167 124//124 122//122 
f 168//168 165//165 124//124 
f 125//125 124//124 165//165 
f 169//169 170//170 165//165 
f 124//124 167//167 168//168 
f 168//168 169//169 165//165 
f 168//168 171//171 169//169 
f 169//169 171//171 119//119 
f 172//172 173//173 167//167 
f 166//166 172//172 167//167 
f 168//168 173//173 171//171 
f 174//174 117//117 173//173 
f 119//119 171//171 117//117 
f 171//171 173//173 117//117 
f 128//128 127//127 139//139 
f 175//175 176//176 20//20 
f 21//21 20//20 176//176 
f 177//177 129//129 176//176 
f 178//178 127//127 129//129 
f 139//139 127//127 179//179 
f 127//127 178//178 179//179 
f 175//175 180//180 177//177 
f 180//180 178//178 177//177 
f 180//180 181//181 178//178 
f 129//129 177//177 178//178 
f 178//178 181//181 179//179 
f 175//175 182//182 180//180 
f 182//182 183//183 180//180 
f 183//183 116//116 180//180 
f 181//181 180//180 116//116 
f 183//183 118//118 116//116 
f 175//175 20//20 114//114 
f 98//98 114//114 20//20 
f 170//170 5//5 4//4 
f 5//5 170//170 184//184 
f 5//5 184//184 95//95 
f 185//185 114//114 95//95 
f 95//95 184//184 185//185 
f 175//175 114//114 182//182 
f 169//169 186//186 170//170 
f 170//170 186//186 184//184 
f 187//187 185//185 184//184 
f 184//184 186//186 187//187 
f 114//114 185//185 182//182 
f 185//185 187//187 182//182 
f 186//186 119//119 187//187 
f 169//169 119//119 186//186 
f 187//187 119//119 188//188 
f 182//182 188//188 183//183 
f 182//182 187//187 188//188 
f 118//118 183//183 188//188 
f 118//118 188//188 119//119 
f 179//179 142//142 139//139 
f 142//142 189//189 147//147 
f 190//190 148//148 147//147 
f 189//189 190//190 147//147 
f 148//148 190//190 150//150 
f 150//150 190//190 191//191 
f 192//192 142//142 179//179 
f 142//142 192//192 189//189 
f 191//191 190//190 193//193 
f 190//190 194//194 193//193 
f 194//194 115//115 193//193 
f 179//179 181//181 192//192 
f 181//181 116//116 192//192 
f 116//116 115//115 192//192 
f 190//190 189//189 194//194 
f 189//189 192//192 194//194 
f 192//192 115//115 194//194 
f 121//121 160//160 166//166 
f 195//195 172//172 166//166 
f 173//173 172//172 174//174 
f 174//174 196//196 115//115 
f 160//160 159//159 166//166 
f 166//166 159//159 195//195 
f 195//195 196//196 172//172 
f 174//174 172//172 196//196 
f 159//159 156//156 195//195 
f 156//156 197//197 195//195 
f 196//196 197//197 193//193 
f 195//195 197//197 196//196 
f 193//193 197//197 191//191 
f 197//197 198//198 191//191 
f 197//197 156//156 198//198 
f 155//155 198//198 156//156 
f 115//115 117//117 174//174 
f 196//196 193//193 115//115 
f 198//198 150//150 191//191 
f 143//143 147//147 148//148 
f 176//176 175//175 177//177 
f 168//168 167//167 173//173 
f 170//170 4//4 165//165 
f 176//176 129//129 21//21 
f 150//150 198//198 155//155 
