v 6.13741 -66.0951 1503.28
v 6.59032 -66.1634 1503.42
v 6.43161 -66.341 1502.97
v 6.81999 -66.3559 1503.44
v 6.60942 -66.5936 1503.02
v 6.69595 -66.8506 1503.2
v 6.9725 -66.6165 1503.62
v 6.93925 -66.3642 1504.04
v 5.95284 -66.228 1502.99
v 6.37991 -66.0624 1504
v 7.08297 -66.844 1504.19
v 5.59709 -66.3193 1503.24
v 5.78991 -66.1002 1503.83
v 6.13548 -66.9703 1505.54
v 6.45003 -66.7655 1505.48
v 6.17687 -66.552 1505.29
v 5.29087 -66.9296 1504.04
v 5.49441 -67.0638 1503.53
v 5.44675 -67.2126 1504.4
v 6.03295 -67.4896 1504.32
v 5.76668 -67.3294 1504.97
v 5.69243 -67.3674 1504.02
v 5.94687 -67.1245 1503.23
v 6.531 -67.04 1505.5
v 6.45054 -67.2909 1505.37
v 6.85126 -67.1372 1505.14
v 6.18545 -67.455 1505.09
v 6.03094 -67.2008 1505.42
v 6.53045 -67.4278 1504.98
v 6.84727 -67.2926 1504.58
v 6.37006 -67.3673 1503.74
v 5.81396 -66.4488 1502.86
v 5.63543 -66.6921 1502.99
v 5.99809 -66.7334 1502.82
v 5.35309 -66.7358 1503.43
v 5.74816 -66.9331 1505.29
v 5.43131 -66.9265 1504.81
v 5.31386 -66.6539 1504.33
v 5.37476 -66.4386 1503.74
v 5.70728 -66.6755 1505.15
v 5.6896 -66.4375 1504.83
v 5.54062 -66.3185 1504.35
v 6.17787 -66.4994 1502.8
v 6.77151 -67.1538 1503.73
v 7.0234 -66.6102 1504.7
v 7.03123 -66.9898 1504.78
v 6.64803 -66.44 1505.03
v 6.79946 -66.3034 1504.58
v 6.84394 -66.8553 1505.24
v 6.08615 -66.1503 1504.53
v 6.47969 -67.4763 1504.36
v 6.31798 -66.9464 1503.02
v 6.69595 -66.8506 1503.2
v 5.95284 -66.228 1502.99
v 7.08297 -66.844 1504.19
v 6.13548 -66.9703 1505.54
v 6.13548 -66.9703 1505.54
v 6.531 -67.04 1505.5
v 5.81396 -66.4488 1502.86
v 5.81396 -66.4488 1502.86
v 5.63543 -66.6921 1502.99
v 5.63543 -66.6921 1502.99
v 5.99809 -66.7334 1502.82
v 5.99809 -66.7334 1502.82
v 5.35309 -66.7358 1503.43
v 5.74816 -66.9331 1505.29
v 5.74816 -66.9331 1505.29
v 5.43131 -66.9265 1504.81
v 5.70728 -66.6755 1505.15
v 5.6896 -66.4375 1504.83
v 6.17787 -66.4994 1502.8
v 6.17787 -66.4994 1502.8
v 7.03123 -66.9898 1504.78
vn -0.0266097 0.966172 -0.256523
vn 0.448673 0.863815 -0.229165
vn 0.423222 0.636095 -0.645187
vn 0.776809 0.495775 -0.388298
vn 0.673193 -0.018025 -0.739247
vn 0.863827 -0.240683 -0.442578
vn 0.937136 -0.007663 -0.348879
vn 0.784628 0.619118 -0.0324347
vn 0.077909 0.689356 -0.720222
vn 0.193785 0.976753 0.0916577
vn 0.980314 0.197444 -0.000448622
vn -0.673724 0.641275 -0.367236
vn -0.367053 0.930199 0.00142842
vn -0.171557 0.388027 0.90554
vn 0.250608 0.471446 0.845538
vn -0.203976 0.697167 0.687279
vn -0.977477 -0.209744 -0.0233757
vn -0.677134 -0.648919 -0.346978
vn -0.767589 -0.638342 0.0576763
vn -0.11617 -0.990308 -0.0761234
vn -0.572286 -0.757907 0.313156
vn -0.409702 -0.900248 -0.147304
vn -0.204758 -0.834924 -0.510858
vn 0.518897 -0.11577 0.846961
vn 0.253582 -0.746884 0.614704
vn 0.722939 -0.533983 0.438431
vn -0.108975 -0.940531 0.321755
vn -0.307211 -0.577644 0.756273
vn 0.319434 -0.928403 0.189815
vn 0.695267 -0.718747 0.0025206
vn 0.177949 -0.918031 -0.354334
vn -0.679039 0.478288 -0.556909
vn -0.806207 0.267529 -0.527691
vn -0.214263 -0.690607 -0.690763
vn -0.806832 -0.457912 -0.373282
vn -0.678863 -0.371227 0.633511
vn -0.887561 -0.348106 0.301758
vn -0.923016 0.316242 0.219162
vn -0.871652 0.485975 -0.0636429
vn -0.839678 0.296943 0.454716
vn -0.807309 0.447518 0.384681
vn -0.619931 0.753796 0.217894
vn 0.0235044 0.586377 -0.809697
vn 0.64745 -0.685266 -0.333494
vn 0.881979 0.396172 0.255266
vn 0.958192 0.00277087 0.286114
vn 0.360025 0.798232 0.482916
vn 0.530005 0.814874 0.234682
vn 0.76977 0.196918 0.607188
vn -0.137635 0.93648 0.322586
vn 0.30541 -0.946944 -0.100106
vn 0.320224 -0.625446 -0.711529
vn 0.466737 -0.589132 -0.659607
vn -0.465516 0.803719 -0.370581
vn 0.852932 -0.490176 -0.179537
vn -0.537998 -0.178768 0.823772
vn 0.00640602 -0.458902 0.888464
vn 0.00702152 -0.460424 0.887671
vn -0.304541 -0.0555039 -0.950881
vn -0.0728105 0.530805 -0.844361
vn -0.537942 -0.597899 -0.594251
vn -0.434381 -0.148805 -0.888353
vn -0.304541 -0.0555039 -0.950881
vn 0.335489 -0.336307 -0.879968
vn -0.920186 0.258603 -0.293908
vn -0.394886 0.446037 0.803191
vn -0.825283 0.162491 0.540838
vn -0.829653 0.334304 0.44712
vn -0.367736 0.585928 0.722121
vn -0.333724 0.822936 0.459788
vn -0.165726 0.0394326 -0.985383
vn 0.413288 -0.170175 -0.894558
vn 0.836806 -0.544585 0.0564185
g grp1
usemtl mtl1
f 1//1 2//2 3//3 
f 4//4 5//5 3//3 
f 4//4 3//3 2//2 
f 6//6 5//5 7//7 
f 5//5 4//4 7//7 
f 8//8 7//7 4//4 
f 4//4 2//2 8//8 
f 9//9 1//1 3//3 
f 10//10 2//2 1//1 
f 11//11 7//7 8//8 
f 1//1 54//54 12//12 
f 13//13 1//1 12//12 
f 14//14 15//15 16//16 
f 17//17 18//18 19//19 
f 20//20 21//21 22//22 
f 21//21 19//19 22//22 
f 22//22 18//18 23//23 
f 22//22 19//19 18//18 
f 22//22 23//23 20//20 
f 24//24 15//15 14//14 
f 25//25 26//26 24//24 
f 27//27 25//25 28//28 
f 27//27 28//28 21//21 
f 26//26 25//25 29//29 
f 29//29 25//25 27//27 
f 30//30 26//26 29//29 
f 23//23 31//31 20//20 
f 12//12 32//32 33//33 
f 61//61 34//34 23//23 
f 18//18 35//35 61//61 
f 21//21 28//28 36//36 
f 19//19 21//21 37//37 
f 37//37 21//21 36//36 
f 17//17 19//19 37//37 
f 38//38 39//39 17//17 
f 39//39 12//12 65//65 
f 68//68 40//40 41//41 
f 70//70 69//69 16//16 
f 14//14 16//16 66//66 
f 56//56 36//36 28//28 
f 66//66 16//16 69//69 
f 38//38 42//42 39//39 
f 41//41 42//42 38//38 
f 17//17 37//37 38//38 
f 38//38 68//68 41//41 
f 40//40 68//68 67//67 
f 42//42 13//13 39//39 
f 32//32 12//12 54//54 
f 3//3 43//43 9//9 
f 44//44 6//6 7//7 
f 44//44 7//7 55//55 
f 8//8 45//45 11//11 
f 11//11 45//45 46//46 
f 47//47 45//45 48//48 
f 49//49 45//45 47//47 
f 46//46 45//45 49//49 
f 10//10 8//8 2//2 
f 10//10 1//1 13//13 
f 12//12 39//39 13//13 
f 50//50 13//13 42//42 
f 49//49 47//47 15//15 
f 24//24 49//49 15//15 
f 26//26 49//49 24//24 
f 30//30 73//73 26//26 
f 44//44 30//30 51//51 
f 31//31 44//44 51//51 
f 34//34 52//52 23//23 
f 71//71 63//63 59//59 
f 59//59 63//63 62//62 
f 55//55 73//73 30//30 
f 44//44 55//55 30//30 
f 31//31 23//23 52//52 
f 72//72 52//52 64//64 
f 3//3 5//5 72//72 
f 5//5 53//53 52//52 
f 5//5 52//52 72//72 
f 52//52 53//53 44//44 
f 52//52 44//44 31//31 
f 49//49 26//26 46//46 
f 9//9 43//43 60//60 
f 51//51 20//20 31//31 
f 15//15 47//47 16//16 
f 10//10 48//48 8//8 
f 50//50 10//10 13//13 
f 70//70 16//16 50//50 
f 47//47 48//48 10//10 
f 50//50 47//47 10//10 
f 47//47 50//50 16//16 
f 50//50 42//42 70//70 
f 45//45 8//8 48//48 
f 39//39 65//65 17//17 
f 33//33 65//65 12//12 
f 18//18 17//17 35//35 
f 23//23 18//18 61//61 
f 51//51 30//30 29//29 
f 20//20 51//51 29//29 
f 29//29 27//27 20//20 
f 20//20 27//27 21//21 
f 25//25 58//58 28//28 
f 58//58 57//57 28//28 
