v -6.43461 -67.6472 1503.3
v -6.22499 -67.7706 1503.19
v -6.1742 -67.5836 1503.15
v -6.29973 -67.4442 1503.23
v -6.10418 -67.3878 1503.22
v -5.99499 -67.5039 1503.17
v -5.88376 -67.404 1503.3
v -5.99572 -67.282 1503.36
v -5.79693 -67.2798 1503.6
v -5.70618 -67.4864 1503.44
v -5.81562 -67.6184 1503.25
v -5.61071 -67.7268 1503.49
v -5.72799 -67.8218 1503.35
v -5.88338 -67.8132 1503.23
v -5.82223 -67.9707 1503.36
v -6.00736 -68.0303 1503.34
v -5.81815 -68.1425 1503.53
v -5.62402 -68.0098 1503.59
v -5.49582 -67.8716 1503.71
v -5.45495 -67.7515 1503.82
v -5.50439 -67.5961 1503.75
v -5.59268 -67.4102 1503.79
v -5.6741 -67.26 1504.16
v -5.48584 -67.4517 1504.18
v -5.41175 -67.6268 1504.08
v -5.33744 -67.7244 1504.49
v -5.35421 -67.6734 1504.85
v -5.27173 -67.9708 1505.07
v -5.32381 -68.0104 1504.47
v -5.27328 -68.2064 1505.16
v -5.26598 -68.1729 1505.89
v -5.3231 -67.8473 1505.59
v -5.44064 -67.5796 1505.24
v -5.51892 -67.3982 1504.54
v -5.60448 -67.3596 1504.88
v -5.48032 -67.6958 1505.94
v -5.35668 -68.0091 1506.39
v -5.52616 -67.8806 1506.74
v -5.67419 -67.7149 1506.57
v -5.65075 -67.95 1507.2
v -5.85574 -67.7895 1507.03
v -5.80754 -67.547 1506.23
v -5.70848 -67.39 1505.4
v -5.81465 -67.1831 1504.45
v -5.92677 -67.1951 1504.87
v -5.88046 -67.3499 1505.55
v -6.11029 -67.2166 1505.09
v -6.08424 -67.5053 1506.24
v -6.2878 -67.3158 1505.49
v -6.32093 -67.1678 1504.74
v -6.4808 -67.3207 1505.21
v -6.36278 -67.5156 1506.16
v -6.54525 -67.5932 1506.09
v -6.63496 -67.3758 1504.97
v -6.46428 -67.1888 1504.49
v -6.5909 -67.2634 1504.22
v -6.31157 -67.1366 1503.95
v -6.54607 -67.2731 1503.84
v -6.41721 -67.2713 1503.56
v -6.63965 -67.4573 1503.71
v -6.50242 -67.4628 1503.42
v -6.35198 -67.3376 1503.36
v -6.20742 -67.2892 1503.34
v -6.16365 -67.1893 1503.53
v -6.07415 -67.1227 1503.81
v -6.03305 -67.1109 1504.26
v -6.22605 -67.1083 1504.37
v -5.87241 -67.1637 1503.89
v -5.96279 -67.1953 1503.57
v -6.61177 -67.6906 1503.54
v -6.52329 -67.9152 1503.51
v -6.35685 -67.8382 1503.29
v -6.34024 -68.0555 1503.45
v -6.17384 -67.9669 1503.29
v -6.17681 -68.2014 1503.54
v -6.32797 -68.3252 1503.8
v -6.48121 -68.2365 1503.82
v -6.33986 -68.5063 1504.24
v -6.58379 -68.4095 1504.4
v -6.65325 -68.1397 1503.95
v -6.74976 -68.222 1504.42
v -6.78877 -67.9882 1504.13
v -6.85463 -68.0976 1504.73
v -6.83273 -68.2636 1505.32
v -6.72166 -68.4044 1504.92
v -6.61853 -68.5714 1505.15
v -6.41295 -68.6476 1504.85
v -6.19441 -68.6885 1504.71
v -6.00742 -68.6029 1504.37
v -6.13834 -68.4278 1503.9
v -5.96998 -68.2894 1503.66
v -5.90673 -68.4546 1503.98
v -5.71205 -68.3092 1503.86
v -5.53235 -68.1628 1503.88
v -5.54448 -68.3572 1504.21
v -5.7194 -68.553 1504.44
v -5.9232 -68.8195 1505.25
v -5.66141 -68.7162 1505.12
v -5.47429 -68.5081 1504.85
v -5.39107 -68.2858 1504.52
v -5.41913 -68.1607 1504.16
v -5.42962 -67.9886 1503.95
v -5.32851 -68.4089 1505.28
v -5.28451 -68.43 1505.96
v -5.38715 -68.6949 1506.4
v -5.35167 -68.6243 1506.8
v -5.49202 -68.8421 1507.05
v -5.44623 -68.6845 1507.31
v -5.62753 -68.8959 1507.41
v -5.58313 -68.7384 1507.6
v -5.46093 -68.5462 1507.46
v -5.59012 -68.5354 1507.69
v -5.73686 -68.744 1507.78
v -5.8375 -68.924 1507.66
v -5.90534 -68.7726 1507.88
v -5.88481 -68.6097 1507.94
v -6.09951 -68.6633 1507.94
v -6.01261 -68.4945 1507.96
v -5.79924 -68.4744 1507.88
v -5.62412 -68.3295 1507.69
v -5.5039 -68.3161 1507.48
v -5.38988 -68.3159 1507.13
v -5.48016 -68.0809 1507.08
v -5.30228 -68.2689 1506.61
v -5.34715 -68.4698 1507.03
v -5.28993 -68.4318 1506.55
v -5.63355 -68.1479 1507.53
v -5.79341 -68.0143 1507.5
v -5.97676 -68.0109 1507.57
v -6.15439 -67.7408 1506.97
v -6.40703 -67.7401 1506.78
v -6.23207 -67.9118 1507.35
v -6.18241 -68.0474 1507.63
v -6.07689 -68.1782 1507.79
v -5.93116 -68.2925 1507.86
v -6.11989 -68.373 1507.92
v -6.2831 -68.202 1507.74
v -6.39071 -68.0659 1507.5
v -6.51961 -67.8915 1506.94
v -6.6909 -67.6586 1505.86
v -6.78471 -67.5769 1505.07
v -6.76003 -67.4463 1504.45
v -6.84567 -67.6335 1504.49
v -6.74486 -67.4795 1504.07
v -6.83222 -67.7351 1504.17
v -6.87072 -67.872 1504.5
v -6.8642 -67.8327 1505.25
v -6.74106 -67.8669 1506.22
v -6.8079 -68.0165 1506.21
v -6.67352 -68.0882 1506.94
v -6.53807 -68.1033 1507.34
v -6.4516 -68.2377 1507.62
v -6.61018 -68.2729 1507.35
v -6.74051 -68.283 1506.83
v -6.85063 -68.1537 1505.9
v -6.77336 -68.3999 1506.56
v -6.7496 -68.5057 1506.27
v -6.88738 -68.0035 1505.14
v -6.74247 -67.7205 1503.83
v -6.68146 -67.9089 1503.75
v -6.68116 -68.6045 1505.86
v -6.48917 -68.7731 1505.73
v -6.27722 -68.8368 1505.5
v -6.2615 -68.9601 1506.24
v -6.4763 -68.8664 1506.53
v -6.28239 -69.0026 1506.92
v -6.10875 -69.0524 1506.83
v -6.07044 -68.9706 1506.02
v -5.92625 -69.0431 1506.56
v -5.89789 -69.0594 1507
v -5.72245 -68.9355 1506.16
v -5.91302 -68.9539 1505.9
v -5.53389 -68.7107 1505.44
v -5.40507 -68.6112 1505.58
v -5.51268 -68.8101 1506.08
v -5.53463 -68.8877 1506.63
v -5.66436 -68.9828 1507.06
v -5.85693 -69.0281 1507.34
v -6.15359 -69.0162 1507.34
v -5.97069 -68.9829 1507.6
v -5.98714 -68.9032 1507.76
v -6.08458 -68.7988 1507.86
v -6.1748 -68.9037 1507.68
v -6.38088 -68.8367 1507.53
v -6.29008 -68.6959 1507.81
v -6.48771 -68.6373 1507.6
v -6.37746 -68.5198 1507.79
v -6.20791 -68.5323 1507.92
v -5.7688 -68.2266 1507.74
v -6.31022 -68.3717 1507.83
v -6.50531 -68.4257 1507.62
v -6.62518 -68.4675 1507.36
v -6.64266 -68.5985 1507.15
v -6.52779 -68.7509 1507.37
v -6.41069 -68.9099 1507.22
v -6.58181 -68.7635 1506.91
v -6.0698 -67.7825 1503.17
v -5.96106 -67.6646 1503.16
vn -0.661342 -0.0501406 -0.748407
vn -0.339151 -0.284134 -0.896797
vn -0.192003 0.0790167 -0.978208
vn -0.447642 0.41591 -0.791603
vn 0.0319578 0.589619 -0.807049
vn 0.289506 0.323481 -0.900859
vn 0.518974 0.56578 -0.640749
vn 0.251826 0.818225 -0.516809
vn 0.587468 0.743672 -0.319113
vn 0.763739 0.422283 -0.488241
vn 0.651396 0.118696 -0.749396
vn 0.845232 0.0184097 -0.534082
vn 0.689338 -0.245297 -0.681647
vn 0.414521 -0.350312 -0.839913
vn 0.475695 -0.530528 -0.701608
vn 0.135618 -0.659345 -0.739508
vn 0.400644 -0.693798 -0.598438
vn 0.719648 -0.44157 -0.535838
vn 0.886938 -0.159011 -0.433655
vn 0.953587 0.0599606 -0.295087
vn 0.891011 0.296123 -0.344109
vn 0.780567 0.577975 -0.238032
vn 0.616546 0.785308 -0.0562279
vn 0.83356 0.547628 -0.0726703
vn 0.943862 0.277853 -0.178669
vn 0.964062 0.256706 -0.0684598
vn 0.901957 0.431186 0.0234802
vn 0.991245 0.130888 -0.0173916
vn 0.982039 -0.107727 -0.154901
vn 0.985284 -0.156713 -0.0682355
vn 0.994883 0.0929946 0.0394853
vn 0.916456 0.390325 0.088064
vn 0.785126 0.610114 0.106482
vn 0.748528 0.662213 0.0343422
vn 0.602311 0.78997 0.114752
vn 0.712094 0.680303 0.173524
vn 0.894049 0.419729 0.156538
vn 0.706554 0.668257 0.232838
vn 0.511219 0.822113 0.250569
vn 0.559509 0.760058 0.330547
vn 0.240599 0.909054 0.340195
vn 0.320425 0.91135 0.258396
vn 0.483472 0.856014 0.183013
vn 0.414998 0.90706 0.0708387
vn 0.247364 0.956702 0.153401
vn 0.230507 0.946978 0.223829
vn 0.0331254 0.981776 0.187134
vn 0.0341952 0.960538 0.27604
vn -0.176445 0.956929 0.230552
vn -0.225356 0.961335 0.158274
vn -0.442793 0.875314 0.194317
vn -0.295958 0.9152 0.273527
vn -0.577577 0.779907 0.241143
vn -0.661321 0.737773 0.135447
vn -0.438416 0.896006 0.0704672
vn -0.642753 0.765586 -0.0273381
vn -0.285332 0.952987 -0.10199
vn -0.658704 0.72893 -0.186465
vn -0.52268 0.784156 -0.334522
vn -0.850489 0.405568 -0.334936
vn -0.760375 0.370223 -0.533633
vn -0.513946 0.658835 -0.549359
vn -0.198356 0.806743 -0.556615
vn -0.103228 0.941635 -0.320419
vn 0.0646126 0.988613 -0.135901
vn 0.115998 0.992701 0.0329888
vn -0.113095 0.991636 0.0621916
vn 0.389678 0.915143 -0.103271
vn 0.279751 0.914403 -0.292585
vn -0.866259 -0.014852 -0.499374
vn -0.712048 -0.419781 -0.562825
vn -0.531956 -0.411967 -0.739801
vn -0.4626 -0.641383 -0.612069
vn -0.20022 -0.596086 -0.777556
vn -0.149809 -0.782071 -0.604915
vn -0.374273 -0.801962 -0.465592
vn -0.582115 -0.695252 -0.421624
vn -0.357651 -0.880088 -0.312299
vn -0.636359 -0.729693 -0.250193
vn -0.757915 -0.546881 -0.355649
vn -0.845821 -0.501532 -0.181804
vn -0.934251 -0.269319 -0.233756
vn -0.953806 -0.283424 -0.0996225
vn -0.930251 -0.364173 -0.0448458
vn -0.806592 -0.576644 -0.12997
vn -0.66433 -0.732541 -0.148491
vn -0.4541 -0.866428 -0.207595
vn -0.175527 -0.953832 -0.24371
vn 0.0320245 -0.954272 -0.29722
vn -0.100542 -0.899348 -0.425516
vn 0.147965 -0.822577 -0.549066
vn 0.211447 -0.895369 -0.391925
vn 0.479592 -0.756286 -0.444998
vn 0.745977 -0.527963 -0.405923
vn 0.666627 -0.683201 -0.298069
vn 0.387509 -0.877277 -0.283236
vn 0.112426 -0.96931 -0.218628
vn 0.41904 -0.882873 -0.211991
vn 0.693097 -0.69142 -0.203849
vn 0.870086 -0.455771 -0.187679
vn 0.878719 -0.399843 -0.260726
vn 0.917677 -0.231469 -0.32294
vn 0.902179 -0.41549 -0.115939
vn 0.963257 -0.267446 -0.0246777
vn 0.84574 -0.532007 -0.0411465
vn 0.93445 -0.350606 0.0622825
vn 0.775055 -0.626887 0.0793882
vn 0.89421 -0.386109 0.226516
vn 0.622976 -0.728787 0.284201
vn 0.787813 -0.415603 0.45456
vn 0.929819 -0.0483818 0.364824
vn 0.793572 -0.0339032 0.607531
vn 0.627117 -0.432137 0.64806
vn 0.39637 -0.800953 0.448738
vn 0.24743 -0.572273 0.781846
vn 0.347414 -0.170839 0.922018
vn -0.177972 -0.316946 0.931596
vn 0.0537037 0.160634 0.985552
vn 0.533806 0.174029 0.827505
vn 0.705142 0.336899 0.623918
vn 0.862471 0.300547 0.407205
vn 0.93609 0.257338 0.23982
vn 0.805503 0.523096 0.278451
vn 0.976709 0.173619 0.12608
vn 0.983079 -0.051911 0.175671
vn 0.993801 -0.0935661 0.0600387
vn 0.654714 0.598595 0.461556
vn 0.369779 0.793983 0.482549
vn 0.122849 0.834453 0.537212
vn -0.0789419 0.933975 0.34851
vn -0.414882 0.850551 0.323166
vn -0.27368 0.870881 0.408247
vn -0.210226 0.790061 0.575854
vn -0.0346907 0.669262 0.742216
vn 0.220856 0.53422 0.815985
vn -0.194632 0.406799 0.892543
vn -0.414414 0.579211 0.70198
vn -0.518826 0.711298 0.474211
vn -0.645456 0.699569 0.306578
vn -0.747268 0.632659 0.203304
vn -0.867638 0.484684 0.110842
vn -0.823804 0.566715 0.0134528
vn -0.960157 0.278308 -0.0253594
vn -0.888492 0.430686 -0.1584
vn -0.981471 0.0697046 -0.178482
vn -0.996991 -0.0245194 -0.0735341
vn -0.971776 0.225569 0.0690645
vn -0.859099 0.475832 0.188502
vn -0.960742 0.234128 0.148859
vn -0.880984 0.401446 0.250415
vn -0.752303 0.539353 0.378336
vn -0.719036 0.417959 0.555245
vn -0.905589 0.237616 0.351351
vn -0.982701 0.0407109 0.180668
vn -0.995786 -0.0671598 0.0624477
vn -0.975567 -0.197837 0.0955464
vn -0.918768 -0.394218 0.0213723
vn -0.99787 -0.0652259 -0.000524807
vn -0.947964 0.0420383 -0.315589
vn -0.864988 -0.286166 -0.412195
vn -0.79181 -0.607988 -0.0581959
vn -0.552565 -0.8244 -0.122623
vn -0.268489 -0.946296 -0.180105
vn -0.356481 -0.928232 -0.106332
vn -0.615084 -0.787391 -0.0410837
vn -0.411451 -0.91143 0.00208191
vn -0.156614 -0.987034 -0.0351409
vn -0.110155 -0.982056 -0.153076
vn 0.108431 -0.989701 -0.0934572
vn 0.148781 -0.988844 0.00722644
vn 0.379112 -0.91686 -0.12507
vn 0.14596 -0.975152 -0.166659
vn 0.58012 -0.797346 -0.166432
vn 0.787891 -0.604003 -0.120033
vn 0.644701 -0.756928 -0.106866
vn 0.626694 -0.777828 -0.0473096
vn 0.46841 -0.882718 0.0374299
vn 0.236576 -0.955823 0.174454
vn -0.255238 -0.953377 0.161012
vn 0.00179256 -0.944459 0.328625
vn 0.0204508 -0.816927 0.576378
vn -0.239301 -0.639386 0.730699
vn -0.375206 -0.808513 0.45335
vn -0.612884 -0.699743 0.367061
vn -0.586497 -0.459573 0.666943
vn -0.835264 -0.323821 0.444381
vn -0.717415 -0.0839173 0.691573
vn -0.436647 -0.00887715 0.899589
vn 0.42568 0.590649 0.685515
vn -0.587772 0.275922 0.76052
vn -0.842039 0.0828763 0.533012
vn -0.947251 -0.0862196 0.308677
vn -0.934668 -0.313114 0.168388
vn -0.810463 -0.536343 0.235553
vn -0.600806 -0.790528 0.11873
vn -0.803843 -0.593124 0.0451707
vn 0.0317829 -0.369423 -0.928718
vn 0.279342 -0.0594678 -0.958349
g grp1
usemtl mtl1
f 3//3 2//2 1//1 
f 3//3 1//1 4//4 
f 3//3 4//4 5//5 
f 6//6 3//3 5//5 
f 7//7 6//6 5//5 
f 7//7 5//5 8//8 
f 7//7 8//8 9//9 
f 7//7 9//9 10//10 
f 11//11 7//7 10//10 
f 11//11 10//10 12//12 
f 11//11 12//12 13//13 
f 14//14 11//11 13//13 
f 14//14 13//13 15//15 
f 16//16 14//14 15//15 
f 17//17 16//16 15//15 
f 18//18 17//17 15//15 
f 15//15 13//13 18//18 
f 13//13 12//12 18//18 
f 12//12 19//19 18//18 
f 20//20 19//19 12//12 
f 12//12 21//21 20//20 
f 10//10 21//21 12//12 
f 10//10 22//22 21//21 
f 22//22 10//10 9//9 
f 22//22 9//9 23//23 
f 22//22 23//23 24//24 
f 25//25 22//22 24//24 
f 26//26 25//25 24//24 
f 26//26 24//24 27//27 
f 26//26 27//27 28//28 
f 28//28 29//29 26//26 
f 30//30 29//29 28//28 
f 31//31 30//30 28//28 
f 28//28 32//32 31//31 
f 28//28 27//27 32//32 
f 33//33 32//32 27//27 
f 34//34 33//33 27//27 
f 34//34 27//27 24//24 
f 23//23 34//34 24//24 
f 34//34 23//23 35//35 
f 35//35 33//33 34//34 
f 33//33 35//35 36//36 
f 33//33 36//36 32//32 
f 37//37 32//32 36//36 
f 38//38 37//37 36//36 
f 38//38 36//36 39//39 
f 40//40 38//38 39//39 
f 41//41 40//40 39//39 
f 42//42 41//41 39//39 
f 39//39 43//43 42//42 
f 36//36 43//43 39//39 
f 35//35 43//43 36//36 
f 43//43 35//35 44//44 
f 43//43 44//44 45//45 
f 46//46 43//43 45//45 
f 46//46 45//45 47//47 
f 47//47 48//48 46//46 
f 49//49 48//48 47//47 
f 49//49 47//47 50//50 
f 49//49 50//50 51//51 
f 51//51 52//52 49//49 
f 51//51 53//53 52//52 
f 54//54 53//53 51//51 
f 54//54 51//51 55//55 
f 56//56 54//54 55//55 
f 56//56 55//55 57//57 
f 58//58 56//56 57//57 
f 58//58 57//57 59//59 
f 59//59 60//60 58//58 
f 61//61 60//60 59//59 
f 59//59 62//62 61//61 
f 59//59 63//63 62//62 
f 59//59 64//64 63//63 
f 64//64 59//59 57//57 
f 57//57 65//65 64//64 
f 66//66 65//65 57//57 
f 66//66 57//57 67//67 
f 67//67 47//47 66//66 
f 67//67 50//50 47//47 
f 67//67 55//55 50//50 
f 67//67 57//57 55//55 
f 51//51 50//50 55//55 
f 45//45 66//66 47//47 
f 66//66 45//45 44//44 
f 44//44 68//68 66//66 
f 23//23 68//68 44//44 
f 23//23 44//44 35//35 
f 9//9 68//68 23//23 
f 9//9 69//69 68//68 
f 9//9 8//8 69//69 
f 69//69 8//8 64//64 
f 64//64 65//65 69//69 
f 65//65 68//68 69//69 
f 66//66 68//68 65//65 
f 8//8 63//63 64//64 
f 5//5 63//63 8//8 
f 5//5 4//4 63//63 
f 63//63 4//4 62//62 
f 62//62 4//4 61//61 
f 4//4 1//1 61//61 
f 1//1 70//70 61//61 
f 1//1 71//71 70//70 
f 71//71 1//1 72//72 
f 73//73 71//71 72//72 
f 73//73 72//72 74//74 
f 73//73 74//74 75//75 
f 73//73 75//75 76//76 
f 77//77 73//73 76//76 
f 77//77 76//76 78//78 
f 77//77 78//78 79//79 
f 80//80 77//77 79//79 
f 80//80 79//79 81//81 
f 82//82 80//80 81//81 
f 83//83 82//82 81//81 
f 84//84 83//83 81//81 
f 81//81 85//85 84//84 
f 81//81 79//79 85//85 
f 79//79 86//86 85//85 
f 87//87 86//86 79//79 
f 78//78 87//87 79//79 
f 88//88 87//87 78//78 
f 78//78 89//89 88//88 
f 78//78 90//90 89//89 
f 90//90 78//78 76//76 
f 76//76 75//75 90//90 
f 90//90 75//75 91//91 
f 92//92 90//90 91//91 
f 91//91 93//93 92//92 
f 93//93 91//91 17//17 
f 17//17 18//18 93//93 
f 93//93 18//18 94//94 
f 93//93 94//94 95//95 
f 93//93 95//95 96//96 
f 92//92 93//93 96//96 
f 89//89 92//92 96//96 
f 97//97 89//89 96//96 
f 96//96 98//98 97//97 
f 99//99 98//98 96//96 
f 95//95 99//99 96//96 
f 95//95 100//100 99//99 
f 95//95 101//101 100//100 
f 95//95 94//94 101//101 
f 94//94 102//102 101//101 
f 94//94 18//18 102//102 
f 19//19 102//102 18//18 
f 102//102 19//19 20//20 
f 102//102 20//20 29//29 
f 101//101 102//102 29//29 
f 100//100 101//101 29//29 
f 29//29 103//103 100//100 
f 30//30 103//103 29//29 
f 103//103 30//30 104//104 
f 104//104 105//105 103//103 
f 105//105 104//104 106//106 
f 106//106 107//107 105//105 
f 107//107 106//106 108//108 
f 108//108 109//109 107//107 
f 110//110 109//109 108//108 
f 110//110 108//108 111//111 
f 110//110 111//111 112//112 
f 110//110 112//112 113//113 
f 113//113 109//109 110//110 
f 114//114 109//109 113//113 
f 113//113 115//115 114//114 
f 115//115 113//113 116//116 
f 116//116 117//117 115//115 
f 116//116 118//118 117//117 
f 116//116 119//119 118//118 
f 116//116 113//113 119//119 
f 119//119 113//113 112//112 
f 120//120 119//119 112//112 
f 112//112 121//121 120//120 
f 111//111 121//121 112//112 
f 121//121 111//111 122//122 
f 122//122 123//123 121//121 
f 122//122 37//37 123//123 
f 122//122 124//124 37//37 
f 125//125 124//124 122//122 
f 122//122 111//111 125//125 
f 111//111 108//108 125//125 
f 108//108 106//106 125//125 
f 106//106 126//126 125//125 
f 126//126 106//106 104//104 
f 126//126 104//104 31//31 
f 31//31 124//124 126//126 
f 31//31 37//37 124//124 
f 31//31 32//32 37//37 
f 125//125 126//126 124//124 
f 104//104 30//30 31//31 
f 38//38 123//123 37//37 
f 40//40 123//123 38//38 
f 40//40 127//127 123//123 
f 40//40 128//128 127//127 
f 128//128 40//40 41//41 
f 41//41 129//129 128//128 
f 41//41 130//130 129//129 
f 130//130 41//41 48//48 
f 48//48 52//52 130//130 
f 52//52 48//48 49//49 
f 130//130 52//52 131//131 
f 130//130 131//131 132//132 
f 130//130 132//132 129//129 
f 129//129 132//132 133//133 
f 129//129 133//133 134//134 
f 134//134 135//135 129//129 
f 134//134 136//136 135//135 
f 134//134 137//137 136//136 
f 134//134 133//133 137//137 
f 133//133 138//138 137//137 
f 133//133 132//132 138//138 
f 139//139 138//138 132//132 
f 131//131 139//139 132//132 
f 53//53 139//139 131//131 
f 53//53 131//131 52//52 
f 140//140 139//139 53//53 
f 53//53 54//54 140//140 
f 141//141 140//140 54//54 
f 141//141 54//54 142//142 
f 142//142 143//143 141//141 
f 143//143 142//142 144//144 
f 143//143 144//144 145//145 
f 143//143 145//145 146//146 
f 143//143 146//146 147//147 
f 141//141 143//143 147//147 
f 148//148 141//141 147//147 
f 148//148 147//147 149//149 
f 148//148 149//149 150//150 
f 148//148 150//150 139//139 
f 140//140 148//148 139//139 
f 140//140 141//141 148//148 
f 139//139 150//150 151//151 
f 139//139 151//151 138//138 
f 151//151 152//152 138//138 
f 151//151 153//153 152//152 
f 151//151 150//150 153//153 
f 150//150 154//154 153//153 
f 150//150 149//149 154//154 
f 154//154 149//149 155//155 
f 156//156 154//154 155//155 
f 157//157 156//156 155//155 
f 84//84 157//157 155//155 
f 84//84 155//155 158//158 
f 84//84 158//158 83//83 
f 158//158 146//146 83//83 
f 147//147 146//146 158//158 
f 155//155 147//147 158//158 
f 149//149 147//147 155//155 
f 83//83 146//146 82//82 
f 146//146 145//145 82//82 
f 82//82 145//145 159//159 
f 159//159 160//160 82//82 
f 160//160 159//159 70//70 
f 71//71 160//160 70//70 
f 80//80 160//160 71//71 
f 77//77 80//80 71//71 
f 71//71 73//73 77//77 
f 80//80 82//82 160//160 
f 70//70 159//159 60//60 
f 70//70 60//60 61//61 
f 60//60 159//159 144//144 
f 58//58 60//60 144//144 
f 144//144 56//56 58//58 
f 56//56 144//144 142//142 
f 142//142 54//54 56//56 
f 145//145 144//144 159//159 
f 161//161 157//157 84//84 
f 84//84 85//85 161//161 
f 161//161 85//85 86//86 
f 162//162 161//161 86//86 
f 162//162 86//86 87//87 
f 162//162 87//87 163//163 
f 162//162 163//163 164//164 
f 164//164 165//165 162//162 
f 166//166 165//165 164//164 
f 167//167 166//166 164//164 
f 167//167 164//164 168//168 
f 167//167 168//168 169//169 
f 170//170 167//167 169//169 
f 171//171 170//170 169//169 
f 171//171 169//169 172//172 
f 171//171 172//172 97//97 
f 97//97 98//98 171//171 
f 98//98 173//173 171//171 
f 173//173 98//98 99//99 
f 99//99 174//174 173//173 
f 99//99 103//103 174//174 
f 99//99 100//100 103//103 
f 105//105 174//174 103//103 
f 175//175 174//174 105//105 
f 175//175 105//105 176//176 
f 176//176 171//171 175//175 
f 171//171 176//176 177//177 
f 170//170 171//171 177//177 
f 170//170 177//177 178//178 
f 178//178 179//179 170//170 
f 178//178 180//180 179//179 
f 178//178 114//114 180//180 
f 178//178 109//109 114//114 
f 177//177 109//109 178//178 
f 107//107 109//109 177//177 
f 176//176 107//107 177//177 
f 107//107 176//176 105//105 
f 114//114 181//181 180//180 
f 114//114 115//115 181//181 
f 181//181 115//115 182//182 
f 181//181 182//182 183//183 
f 180//180 181//181 183//183 
f 179//179 180//180 183//183 
f 184//184 179//179 183//183 
f 184//184 183//183 185//185 
f 185//185 186//186 184//184 
f 187//187 186//186 185//185 
f 188//188 187//187 185//185 
f 188//188 185//185 117//117 
f 118//118 188//188 117//117 
f 118//118 136//136 188//188 
f 118//118 135//135 136//136 
f 118//118 119//119 135//135 
f 189//189 135//135 119//119 
f 119//119 120//120 189//189 
f 189//189 120//120 127//127 
f 128//128 189//189 127//127 
f 128//128 129//129 189//189 
f 129//129 135//135 189//189 
f 121//121 127//127 120//120 
f 127//127 121//121 123//123 
f 136//136 190//190 188//188 
f 137//137 190//190 136//136 
f 137//137 152//152 190//190 
f 138//138 152//152 137//137 
f 152//152 191//191 190//190 
f 152//152 153//153 191//191 
f 191//191 153//153 192//192 
f 186//186 191//191 192//192 
f 186//186 192//192 193//193 
f 186//186 193//193 194//194 
f 186//186 194//194 184//184 
f 194//194 195//195 184//184 
f 194//194 196//196 195//195 
f 194//194 193//193 196//196 
f 196//196 193//193 157//157 
f 161//161 196//196 157//157 
f 165//165 196//196 161//161 
f 162//162 165//165 161//161 
f 195//195 196//196 165//165 
f 166//166 195//195 165//165 
f 179//179 195//195 166//166 
f 179//179 166//166 167//167 
f 179//179 167//167 170//170 
f 179//179 184//184 195//195 
f 156//156 157//157 193//193 
f 154//154 156//156 193//193 
f 192//192 154//154 193//193 
f 192//192 153//153 154//154 
f 187//187 191//191 186//186 
f 190//190 191//191 187//187 
f 188//188 190//190 187//187 
f 182//182 117//117 185//185 
f 182//182 185//185 183//183 
f 115//115 117//117 182//182 
f 173//173 175//175 171//171 
f 173//173 174//174 175//175 
f 172//172 168//168 97//97 
f 172//172 169//169 168//168 
f 168//168 163//163 97//97 
f 164//164 163//163 168//168 
f 88//88 97//97 163//163 
f 87//87 88//88 163//163 
f 97//97 88//88 89//89 
f 48//48 41//41 42//42 
f 48//48 42//42 46//46 
f 46//46 42//42 43//43 
f 20//20 25//25 29//29 
f 25//25 20//20 21//21 
f 25//25 21//21 22//22 
f 29//29 25//25 26//26 
f 89//89 90//90 92//92 
f 17//17 91//91 16//16 
f 91//91 75//75 16//16 
f 75//75 74//74 16//16 
f 16//16 74//74 197//197 
f 16//16 197//197 14//14 
f 14//14 197//197 198//198 
f 198//198 11//11 14//14 
f 11//11 198//198 6//6 
f 6//6 7//7 11//11 
f 6//6 198//198 3//3 
f 197//197 3//3 198//198 
f 2//2 3//3 197//197 
f 2//2 197//197 74//74 
f 72//72 2//2 74//74 
f 72//72 1//1 2//2 
