v 7.07824 -67.8639 1512.19
v 6.96406 -67.866 1512.93
v 6.97733 -68.0123 1512.56
v 6.96653 -68.0636 1511.89
v 7.06858 -67.8145 1511.69
v 7.0388 -67.5506 1512.3
v 6.14334 -67.7826 1514.49
v 6.36038 -67.9185 1514.36
v 6.26934 -67.4682 1514.12
v 6.10744 -68.0661 1514.67
v 5.88627 -68.1693 1514.73
v 5.89887 -67.7505 1514.56
v 6.02314 -67.3121 1514.14
v 7.01243 -67.3382 1511.71
v 6.81993 -66.8387 1511.72
v 6.84749 -66.9784 1512.3
v 6.83269 -66.9843 1511.42
v 6.83593 -67.2405 1511.21
v 6.99671 -67.7162 1511.41
v 6.86067 -67.6588 1511.18
v 5.6753 -67.9662 1514.65
v 5.67487 -67.7117 1514.54
v 6.02597 -66.7659 1513.41
v 6.37541 -67.1304 1513.63
v 6.27622 -66.6196 1512.97
v 6.55666 -66.7976 1512.87
v 6.3832 -66.4579 1512.41
v 6.64038 -66.5924 1512.03
v 6.52812 -66.5782 1511.48
v 6.47687 -66.4386 1511.9
v 5.69225 -67.0089 1513.83
v 5.59833 -67.3918 1514.27
v 6.54658 -67.0709 1511.02
v 6.72831 -67.3926 1511.05
v 6.62036 -67.5636 1511.04
v 6.25843 -66.4022 1511.63
v 6.25531 -66.3505 1512.05
v 6.00759 -66.4372 1512.64
v 5.67819 -66.7198 1513.31
v 5.30483 -67.3506 1514
v 5.3845 -67.6981 1514.36
v 5.38852 -68.0095 1514.37
v 5.63624 -68.1656 1514.57
v 5.36339 -68.1806 1514.02
v 6.82377 -67.8992 1511.24
v 6.90755 -68.0206 1511.46
v 6.28504 -67.2982 1511.02
v 6.43437 -67.6879 1511.09
v 6.34401 -67.0756 1511.01
v 6.25176 -66.7914 1511.12
v 6.55195 -66.8162 1511.17
v 6.25764 -66.5694 1511.32
v 6.03035 -66.351 1511.96
v 5.76116 -66.4314 1512.35
v 5.54049 -66.599 1512.71
v 5.41033 -66.7878 1513.11
v 5.38919 -67.0243 1513.64
v 5.20742 -67.9962 1513.92
v 5.18416 -67.1398 1513.4
v 5.08662 -67.3081 1513.2
v 5.10884 -67.6139 1513.79
v 5.19681 -67.9603 1512.99
v 5.06253 -67.6901 1513.38
v 5.23737 -66.9239 1512.78
v 5.47658 -67.1529 1511.71
v 5.73312 -66.9308 1511.4
v 5.75427 -67.2999 1511.38
v 5.6517 -67.5656 1511.59
v 5.20797 -67.596 1512.4
v 5.3882 -67.9261 1512.31
v 5.097 -67.4973 1512.81
v 5.22971 -67.0176 1512.41
v 5.23838 -67.2368 1512.21
v 5.39988 -66.8857 1511.96
v 5.38432 -67.5746 1511.99
v 5.66611 -66.7468 1511.59
v 5.66952 -66.5413 1511.89
v 5.74139 -67.9128 1511.75
v 6.01771 -67.0181 1511.15
v 5.95085 -66.7145 1511.31
v 5.95396 -66.4463 1511.65
v 5.42243 -66.6887 1512.31
v 6.07748 -67.4291 1511.15
v 6.13084 -67.8336 1511.32
v 5.33514 -68.1904 1513.23
v 6.57276 -67.9375 1511.21
v 6.70777 -68.0897 1511.39
v 6.24274 -68.0871 1511.51
v 5.98262 -68.263 1512.14
v 5.64332 -68.145 1512.26
v 5.20327 -67.6961 1514.11
v 5.57021 -68.3209 1513.57
v 5.52497 -68.2716 1514.13
v 5.66951 -68.316 1512.85
v 6.70318 -67.2096 1513.16
v 6.88397 -67.5267 1513.01
v 6.60414 -67.5688 1513.75
v 6.13122 -68.1865 1514.65
v 6.68182 -67.8777 1513.77
v 6.4965 -68.1018 1514.07
v 6.77353 -68.0723 1513.4
v 5.82134 -68.2836 1514.42
v 6.12496 -68.2531 1514.44
v 6.73174 -68.1862 1511.87
v 6.47893 -68.2125 1511.7
v 6.45358 -68.281 1512.89
v 6.81721 -68.1475 1512.71
v 6.4483 -68.2172 1513.78
v 6.08071 -68.3315 1512.7
v 6.03454 -68.3206 1513.88
v 7.07824 -67.8639 1512.19
v 5.88627 -68.1693 1514.73
v 5.88627 -68.1693 1514.73
v 6.86067 -67.6588 1511.18
v 6.54658 -67.0709 1511.02
v 6.72831 -67.3926 1511.05
v 5.63624 -68.1656 1514.57
v 6.82377 -67.8992 1511.24
v 6.90755 -68.0206 1511.46
v 6.13122 -68.1865 1514.65
v 6.13122 -68.1865 1514.65
v 6.4965 -68.1018 1514.07
vn 0.99464 -0.0274319 0.0996982
vn 0.971171 -0.0757593 0.226025
vn 0.835295 -0.544656 0.075051
vn 0.709187 -0.702807 -0.0558232
vn 0.966406 -0.226917 -0.120695
vn 0.976682 0.188197 0.103318
vn 0.472318 0.512254 0.717295
vn 0.790538 0.188084 0.582816
vn 0.608717 0.542096 0.579306
vn 0.447153 0.248547 0.859232
vn 0.138791 0.230963 0.963013
vn 0.112113 0.520274 0.846608
vn 0.283418 0.703624 0.651604
vn 0.961722 0.248323 -0.115871
vn 0.85381 0.514303 -0.0806269
vn 0.889781 0.425936 0.163914
vn 0.828959 0.455783 -0.324175
vn 0.813806 0.253305 -0.523026
vn 0.912209 -0.0811257 -0.401613
vn 0.834426 -0.0233339 -0.550626
vn -0.439004 0.141366 0.887294
vn -0.231037 0.496845 0.836521
vn 0.196885 0.845741 0.495942
vn 0.597804 0.633327 0.491455
vn 0.415732 0.815383 0.402887
vn 0.713899 0.622475 0.320738
vn 0.474085 0.849906 0.230006
vn 0.747722 0.660077 0.0721839
vn 0.592592 0.740662 -0.31663
vn 0.517254 0.854566 -0.0465305
vn -0.157589 0.80677 0.569462
vn -0.200989 0.673217 0.711606
vn 0.101029 0.20589 -0.973346
vn 0.254403 -0.129127 -0.958439
vn 0.141478 -0.20997 -0.967417
vn 0.133611 0.949794 -0.282912
vn 0.187741 0.981209 0.0445313
vn -0.0208186 0.964206 0.264335
vn -0.257956 0.889754 0.37656
vn -0.669974 0.555337 0.492683
vn -0.638236 0.315579 0.702186
vn -0.803961 -0.26684 0.531454
vn -0.611465 -0.179265 0.770698
vn -0.669534 -0.718937 0.186688
vn 0.814757 -0.284195 -0.505376
vn 0.86549 -0.374109 -0.333122
vn -0.274791 -0.121804 -0.953758
vn -0.241489 -0.377174 -0.894104
vn -0.120726 0.121283 -0.985249
vn -0.119882 0.47885 -0.869673
vn 0.490525 0.575167 -0.654651
vn 0.00553142 0.789095 -0.614247
vn -0.198391 0.977529 -0.0712596
vn -0.423012 0.905323 0.0381092
vn -0.520532 0.838702 0.160077
vn -0.623662 0.747242 0.22951
vn -0.532103 0.740855 0.409877
vn -0.903657 -0.398506 0.156831
vn -0.830685 0.507746 0.228379
vn -0.972542 0.231531 0.023572
vn -0.963608 0.138137 0.228864
vn -0.860583 -0.483354 -0.16052
vn -0.98798 -0.154371 0.00808681
vn -0.836766 0.546377 0.0359803
vn -0.847575 0.0188216 -0.530341
vn -0.71566 0.186874 -0.672985
vn -0.69848 -0.121959 -0.705161
vn -0.710401 -0.323191 -0.625202
vn -0.920419 -0.248942 -0.301426
vn -0.76881 -0.527189 -0.361943
vn -0.98685 -0.042429 -0.155971
vn -0.941329 0.297959 -0.158496
vn -0.942255 0.0321366 -0.333352
vn -0.866236 0.361976 -0.344397
vn -0.838006 -0.279297 -0.468764
vn -0.727764 0.464321 -0.504743
vn -0.623647 0.742943 -0.243103
vn -0.631427 -0.577088 -0.517948
vn -0.51293 0.109462 -0.851423
vn -0.495537 0.526412 -0.690893
vn -0.389143 0.821705 -0.416377
vn -0.758931 0.643636 -0.0987735
vn -0.531368 -0.263556 -0.8051
vn -0.476389 -0.521409 -0.707945
vn -0.650009 -0.755548 -0.0814633
vn -0.0684787 -0.612202 -0.787731
vn 0.169475 -0.867246 -0.468148
vn -0.323388 -0.803547 -0.499732
vn -0.229105 -0.940807 -0.249787
vn -0.553923 -0.769941 -0.316797
vn -0.898134 0.0718697 0.433808
vn -0.240411 -0.970486 0.0189631
vn -0.406893 -0.89364 0.189329
vn -0.302366 -0.944104 -0.131309
vn 0.818511 0.457885 0.34696
vn 0.92078 0.271046 0.280533
vn 0.806803 0.387034 0.446402
vn 0.810253 -0.0642333 0.582549
vn 0.920446 0.0216536 0.39027
vn 0.87615 -0.180363 0.447023
vn 0.801216 -0.55191 0.231191
vn -0.0767981 -0.971187 0.225606
vn 0.317073 -0.928304 0.194206
vn 0.317818 -0.943341 -0.0953932
vn 0.00661736 -0.970669 -0.240329
vn 0.25411 -0.966913 0.0225369
vn 0.521259 -0.851178 0.0615154
vn 0.432664 -0.891991 0.130972
vn 0.0429396 -0.99797 -0.047025
vn 0.116481 -0.991703 0.0543826
vn 0.715524 -0.693732 -0.0822236
vn -0.53285 -0.213347 0.818874
vn -0.1066 -0.926327 0.361323
vn 0.391397 -0.250508 -0.885469
vn 0.643394 0.332999 -0.689315
vn 0.717165 0.199965 -0.667599
vn -0.487133 -0.801014 0.347963
vn 0.305275 -0.536737 -0.786588
vn 0.43789 -0.844857 -0.307358
vn 0.314561 -0.0883232 0.945119
vn 0.234884 -0.924367 0.300626
vn 0.568918 -0.791201 0.224352
g grp1
usemtl mtl1
f 1//1 2//2 3//3 
f 3//3 4//4 5//5 
f 6//6 1//1 5//5 
f 7//7 8//8 9//9 
f 7//7 10//10 8//8 
f 3//3 5//5 111//111 
f 11//11 10//10 12//12 
f 12//12 10//10 7//7 
f 7//7 9//9 13//13 
f 14//14 15//15 16//16 
f 14//14 17//17 15//15 
f 18//18 17//17 14//14 
f 14//14 19//19 18//18 
f 18//18 19//19 20//20 
f 21//21 11//11 12//12 
f 21//21 12//12 22//22 
f 23//23 13//13 24//24 
f 25//25 23//23 24//24 
f 25//25 26//26 27//27 
f 28//28 27//27 26//26 
f 29//29 28//28 15//15 
f 29//29 30//30 28//28 
f 31//31 32//32 13//13 
f 32//32 22//22 12//12 
f 33//33 34//34 35//35 
f 29//29 36//36 30//30 
f 36//36 37//37 30//30 
f 37//37 38//38 27//27 
f 38//38 39//39 23//23 
f 39//39 31//31 23//23 
f 31//31 40//40 32//32 
f 41//41 22//22 32//32 
f 41//41 42//42 21//21 
f 42//42 43//43 21//21 
f 44//44 117//117 42//42 
f 45//45 19//19 46//46 
f 47//47 35//35 48//48 
f 49//49 35//35 47//47 
f 50//50 51//51 33//33 
f 52//52 51//51 50//50 
f 52//52 29//29 51//51 
f 52//52 36//36 29//29 
f 53//53 38//38 37//37 
f 53//53 54//54 38//38 
f 54//54 55//55 38//38 
f 55//55 39//39 38//38 
f 56//56 39//39 55//55 
f 56//56 57//57 39//39 
f 44//44 42//42 58//58 
f 59//59 60//60 61//61 
f 62//62 58//58 63//63 
f 64//64 60//60 59//59 
f 65//65 66//66 67//67 
f 65//65 67//67 68//68 
f 69//69 70//70 62//62 
f 69//69 62//62 71//71 
f 64//64 72//72 60//60 
f 72//72 73//73 71//71 
f 73//73 69//69 71//71 
f 74//74 65//65 73//73 
f 65//65 75//75 73//73 
f 76//76 65//65 74//74 
f 76//76 74//74 77//77 
f 66//66 65//65 76//76 
f 74//74 73//73 72//72 
f 73//73 75//75 69//69 
f 72//72 71//71 60//60 
f 71//71 63//63 60//60 
f 75//75 78//78 70//70 
f 78//78 75//75 68//68 
f 66//66 79//79 67//67 
f 66//66 80//80 79//79 
f 66//66 76//76 80//80 
f 81//81 80//80 76//76 
f 77//77 82//82 54//54 
f 54//54 82//82 55//55 
f 56//56 59//59 57//57 
f 56//56 64//64 59//59 
f 53//53 77//77 54//54 
f 81//81 77//77 53//53 
f 81//81 52//52 80//80 
f 47//47 83//83 79//79 
f 68//68 83//83 84//84 
f 68//68 84//84 78//78 
f 67//67 79//79 83//83 
f 5//5 46//46 19//19 
f 85//85 44//44 58//58 
f 58//58 61//61 63//63 
f 62//62 85//85 58//58 
f 86//86 87//87 88//88 
f 118//118 87//87 86//86 
f 118//118 119//119 87//87 
f 88//88 89//89 90//90 
f 78//78 88//88 90//90 
f 78//78 84//84 88//88 
f 67//67 83//83 68//68 
f 79//79 49//49 47//47 
f 50//50 49//49 79//79 
f 50//50 79//79 80//80 
f 52//52 50//50 80//80 
f 78//78 90//90 70//70 
f 70//70 90//90 62//62 
f 62//62 90//90 85//85 
f 75//75 70//70 69//69 
f 65//65 68//68 75//75 
f 76//76 77//77 81//81 
f 77//77 74//74 82//82 
f 82//82 74//74 72//72 
f 82//82 72//72 64//64 
f 82//82 64//64 55//55 
f 64//64 56//56 55//55 
f 71//71 62//62 63//63 
f 60//60 63//63 61//61 
f 59//59 61//61 40//40 
f 59//59 40//40 57//57 
f 61//61 91//91 40//40 
f 58//58 91//91 61//61 
f 44//44 92//92 93//93 
f 58//58 42//42 91//91 
f 41//41 91//91 42//42 
f 91//91 41//41 40//40 
f 39//39 57//57 31//31 
f 81//81 53//53 36//36 
f 52//52 81//81 36//36 
f 50//50 33//33 49//49 
f 83//83 47//47 48//48 
f 83//83 48//48 84//84 
f 40//40 41//41 32//32 
f 57//57 40//40 31//31 
f 36//36 53//53 37//37 
f 29//29 15//15 17//17 
f 35//35 34//34 114//114 
f 35//35 118//118 86//86 
f 15//15 28//28 16//16 
f 28//28 26//26 16//16 
f 18//18 20//20 116//116 
f 35//35 114//114 118//118 
f 29//29 17//17 51//51 
f 51//51 17//17 18//18 
f 51//51 18//18 115//115 
f 115//115 18//18 116//116 
f 49//49 33//33 35//35 
f 48//48 35//35 86//86 
f 48//48 86//86 84//84 
f 84//84 86//86 88//88 
f 85//85 92//92 44//44 
f 85//85 94//94 92//92 
f 22//22 41//41 21//21 
f 38//38 23//23 25//25 
f 38//38 25//25 27//27 
f 37//37 27//27 30//30 
f 28//28 30//30 27//27 
f 25//25 24//24 26//26 
f 24//24 13//13 9//9 
f 31//31 13//13 23//23 
f 12//12 13//13 32//32 
f 21//21 43//43 112//112 
f 90//90 94//94 85//85 
f 90//90 89//89 94//94 
f 14//14 5//5 19//19 
f 6//6 14//14 16//16 
f 16//16 26//26 95//95 
f 96//96 95//95 97//97 
f 16//16 95//95 96//96 
f 16//16 96//96 6//6 
f 20//20 19//19 45//45 
f 95//95 26//26 24//24 
f 13//13 12//12 7//7 
f 93//93 117//117 44//44 
f 8//8 10//10 98//98 
f 24//24 9//9 97//97 
f 97//97 8//8 99//99 
f 97//97 9//9 8//8 
f 24//24 97//97 95//95 
f 96//96 97//97 99//99 
f 2//2 96//96 99//99 
f 1//1 6//6 2//2 
f 11//11 120//120 10//10 
f 6//6 96//96 2//2 
f 6//6 5//5 14//14 
f 8//8 98//98 100//100 
f 8//8 100//100 99//99 
f 101//101 99//99 100//100 
f 2//2 99//99 101//101 
f 2//2 101//101 3//3 
f 121//121 102//102 103//103 
f 87//87 104//104 105//105 
f 89//89 88//88 105//105 
f 5//5 4//4 46//46 
f 106//106 107//107 108//108 
f 107//107 106//106 104//104 
f 93//93 92//92 102//102 
f 122//122 103//103 108//108 
f 108//108 101//101 122//122 
f 3//3 107//107 4//4 
f 92//92 94//94 109//109 
f 117//117 102//102 113//113 
f 3//3 101//101 107//107 
f 109//109 104//104 106//106 
f 108//108 107//107 101//101 
f 88//88 87//87 105//105 
f 109//109 110//110 92//92 
f 103//103 102//102 110//110 
f 4//4 104//104 119//119 
f 104//104 4//4 107//107 
f 102//102 121//121 113//113 
f 103//103 110//110 108//108 
f 105//105 104//104 109//109 
f 94//94 89//89 109//109 
f 106//106 108//108 110//110 
f 117//117 93//93 102//102 
f 110//110 102//102 92//92 
f 87//87 119//119 104//104 
f 109//109 89//89 105//105 
f 109//109 106//106 110//110 
f 121//121 103//103 122//122 
