v 1.51032 -64.6909 1492.4
v 1.51868 -65.0246 1493.7
v 1.75964 -64.6658 1492.94
v 2.11089 -65.3055 1495.4
v 2.31116 -64.962 1494.63
v 2.01546 -64.8977 1494.15
v 2.44488 -65.4376 1496.01
v 2.64958 -65.102 1495.2
v 2.97656 -64.3948 1492.02
v 2.77222 -64.29 1491.86
v 3.00691 -64.4892 1492.83
v 2.75916 -64.7999 1491.48
v 2.89953 -65.0575 1492.1
v 2.50147 -64.9662 1491.47
v 3.07603 -64.9363 1492.23
v 3.60415 -65.6088 1495.35
v 3.58229 -65.839 1495.88
v 3.53508 -65.8165 1495.39
v 3.49651 -66.1218 1496.21
v 3.39081 -66.0874 1495.66
v 3.34157 -66.3857 1496.51
v 3.18737 -66.4155 1496.2
v 1.72351 -64.4787 1490.73
v 1.57634 -64.7248 1491.02
v 1.53763 -64.5794 1491.09
v 1.22996 -65.1884 1492.43
v 1.36107 -64.8022 1491.68
v 1.31124 -65.0482 1491.87
v 1.42818 -64.8245 1491.35
v 1.43717 -65.0911 1491.68
v 1.65838 -64.879 1491.13
v 1.68438 -65.1804 1491.63
v 1.47174 -65.4504 1492.38
v 1.72709 -65.4879 1492.31
v 1.77621 -64.3579 1490.8
v 1.55523 -64.5132 1491.32
v 1.39604 -64.7471 1492.09
v 1.65148 -64.4825 1491.77
v 3.5679 -65.6495 1495.85
v 3.51482 -65.9866 1496.57
v 3.51449 -65.3212 1495.12
v 3.4164 -65.6354 1496.22
v 2.79099 -65.7751 1496.9
v 3.02528 -65.8137 1497
v 3.12262 -65.5576 1496.35
v 1.78422 -65.1449 1494.57
v 1.9563 -64.3214 1490.59
v 1.97014 -64.2604 1490.68
v 2.04147 -64.2182 1490.94
v 1.83824 -64.3109 1491.22
v 1.98187 -64.3666 1492.01
v 2.16725 -64.5648 1493.15
v 2.19988 -64.2097 1490.7
v 2.24688 -64.235 1491.59
v 2.34582 -64.3895 1492.55
v 2.3946 -64.189 1491.2
v 2.66413 -64.344 1492.37
v 2.90683 -64.7831 1494.17
v 3.23027 -64.8353 1494.14
v 3.26825 -64.7248 1493.5
v 3.25063 -65.1647 1495.19
v 2.95196 -65.2373 1495.59
v 3.42248 -65.0441 1494.54
v 3.43786 -64.9511 1493.92
v 3.5579 -65.2972 1494.53
v 3.41624 -64.924 1493.45
v 2.50981 -64.6555 1493.69
v 3.5006 -65.429 1494.29
v 3.46178 -65.7459 1494.85
v 3.20995 -65.9521 1494.82
v 2.95234 -66.3981 1495.7
v 2.92972 -66.0231 1494.53
v 3.31655 -65.3962 1493.63
v 3.03607 -65.4306 1493.12
v 3.262 -64.9817 1492.75
v 2.75493 -65.3572 1492.53
v 1.92152 -64.4167 1490.56
v 1.75518 -64.5978 1490.75
v 2.03227 -65.571 1492.52
v 1.7626 -65.9023 1493.44
v 2.00188 -65.1605 1491.56
v 1.88377 -64.7819 1490.91
v 2.0039 -64.5463 1490.63
v 2.11034 -64.4116 1490.54
v 2.11016 -64.8129 1490.98
v 2.31454 -65.2386 1491.86
v 2.34366 -64.6377 1490.85
v 2.31103 -64.4345 1490.63
v 2.56533 -64.5359 1490.93
v 2.61342 -66.342 1495.11
v 2.75871 -65.8948 1493.9
v 2.36633 -66.1166 1494.19
v 2.45299 -65.6723 1493
v 2.06981 -65.9207 1493.49
v 2.14543 -64.3093 1490.54
v 2.30263 -64.236 1490.64
v 2.43551 -64.1941 1490.9
v 2.50302 -64.2555 1490.82
v 2.72513 -64.2791 1491.28
v 2.30715 -64.3105 1490.59
v 2.52618 -64.3715 1490.78
v 2.65379 -64.3135 1490.97
v 3.02246 -64.5029 1491.77
v 2.78883 -64.4399 1491.19
v 2.95702 -64.6307 1491.62
v 3.41356 -65.0335 1493.35
v 3.21488 -64.7211 1492.38
v 3.23232 -64.6257 1492.85
v 3.16856 -64.5724 1492.32
v 1.49576 -65.7732 1493.22
v 1.17627 -65.6055 1493.99
v 1.17686 -65.3732 1493.31
v 1.19163 -65.5291 1493.3
v 1.2416 -65.0639 1492.59
v 1.28759 -65.3644 1492.5
v 1.29283 -65.6745 1493.28
v 1.23901 -65.3038 1493.65
v 1.35864 -65.0124 1493.17
v 1.22467 -65.6983 1494.57
v 1.31871 -65.5229 1494.57
v 1.54922 -65.4998 1495.07
v 1.36569 -65.8139 1495.29
v 1.88091 -65.6731 1496
v 1.59783 -65.9442 1496.1
v 1.84244 -66.083 1496.79
v 3.34704 -66.5096 1497.25
v 3.38443 -66.0772 1497.21
v 3.22691 -65.9138 1497.12
v 2.01958 -66.6642 1495.98
v 2.21987 -66.9502 1497.3
v 1.74934 -66.6745 1496.36
v 3.43317 -66.279 1497.24
v 3.15844 -66.6825 1497.26
v 2.93818 -66.8087 1497.26
v 2.1153 -66.0101 1497.01
v 1.96033 -66.1555 1497.1
v 2.30139 -65.8841 1496.92
v 1.21139 -65.8734 1494.46
v 1.59523 -66.1077 1494.17
v 1.37914 -65.9656 1493.99
v 1.23812 -65.8479 1494.02
v 1.30361 -66.1268 1494.91
v 1.44093 -66.2414 1494.88
v 1.5058 -66.3958 1495.44
v 1.44552 -66.3758 1495.75
v 2.05906 -66.3186 1494.75
v 1.71176 -66.4344 1495.27
v 2.73617 -66.665 1496.32
v 2.40904 -66.7246 1496.28
v 1.2905 -66.0312 1495.19
v 1.44109 -66.2196 1496.04
v 1.58613 -66.5752 1496.54
v 2.53037 -65.7962 1496.86
v 2.70446 -66.8955 1497.27
v 2.4639 -66.9435 1497.28
v 1.84154 -66.3241 1497.2
v 1.76665 -66.5147 1497.28
v 1.80672 -66.7359 1497.31
v 1.97608 -66.9024 1497.31
v 2.4376 -66.1866 1497.05
v 2.64653 -66.138 1497.04
v 2.48562 -66.0027 1496.98
v 2.38847 -66.3756 1497.12
v 2.35063 -66.5727 1497.19
v 2.56265 -66.5224 1497.17
v 2.20162 -66.2187 1497.09
v 2.30699 -66.0599 1497.01
v 2.12339 -66.7819 1497.27
v 1.96837 -66.6712 1497.26
v 2.18415 -66.4295 1497.16
v 3.1259 -66.5048 1497.21
v 2.97823 -66.3965 1497.16
v 2.95419 -66.589 1497.21
v 1.9892 -66.4784 1497.21
v 3.21343 -66.1394 1497.16
v 3.01253 -66.2085 1497.12
v 3.1857 -66.34 1497.19
v 2.81084 -66.2701 1497.1
v 2.30433 -66.7667 1497.25
v 2.69625 -65.9543 1496.97
v 3.03463 -66.0155 1497.07
v 2.77533 -66.4626 1497.16
v 2.87922 -65.9293 1497
v 2.15201 -66.6161 1497.22
v 2.84718 -66.0864 1497.05
v 2.03286 -66.32 1497.15
v 2.52091 -66.7293 1497.23
v 2.74279 -66.6692 1497.21
v 2.60294 -66.326 1497.1
v 1.72351 -64.4787 1490.73
v 1.42818 -64.8245 1491.35
v 2.79099 -65.7751 1496.9
v 3.02528 -65.8137 1497
v 1.92152 -64.4167 1490.56
v 2.14543 -64.3093 1490.54
v 2.14543 -64.3093 1490.54
v 2.30263 -64.236 1490.64
v 2.50302 -64.2555 1490.82
v 2.30715 -64.3105 1490.59
v 2.65379 -64.3135 1490.97
v 3.34704 -66.5096 1497.25
v 3.38443 -66.0772 1497.21
v 3.22691 -65.9138 1497.12
v 2.21987 -66.9502 1497.3
v 3.43317 -66.279 1497.24
v 3.43317 -66.279 1497.24
v 3.15844 -66.6825 1497.26
v 2.93818 -66.8087 1497.26
v 2.1153 -66.0101 1497.01
v 1.96033 -66.1555 1497.1
v 2.30139 -65.8841 1496.92
v 1.58613 -66.5752 1496.54
v 2.53037 -65.7962 1496.86
v 2.70446 -66.8955 1497.27
v 2.4639 -66.9435 1497.28
v 1.84154 -66.3241 1497.2
v 1.76665 -66.5147 1497.28
v 1.80672 -66.7359 1497.31
v 1.80672 -66.7359 1497.31
v 1.97608 -66.9024 1497.31
v 1.97608 -66.9024 1497.31
vn -0.603293 0.779541 0.168381
vn -0.589573 0.770826 0.241313
vn -0.436044 0.872182 0.221729
vn -0.35089 0.872031 0.341231
vn -0.211376 0.928721 0.304628
vn -0.343537 0.895696 0.28233
vn -0.199772 0.907413 0.36972
vn -0.0691832 0.942385 0.327299
vn 0.610555 0.79163 -0.023341
vn 0.283509 0.956586 0.0675652
vn 0.330555 0.931531 0.151605
vn 0.617033 -0.637064 -0.461974
vn 0.579831 -0.717698 -0.385625
vn 0.403966 -0.79432 -0.453726
vn 0.744018 -0.563365 -0.359246
vn 0.999735 -0.00856924 -0.0213712
vn 0.986648 -0.162761 0.00584868
vn 0.877859 -0.453899 -0.152773
vn 0.880293 -0.466824 -0.0846144
vn 0.691573 -0.689234 -0.216065
vn 0.679792 -0.713712 -0.168815
vn 0.526744 -0.81866 -0.228772
vn -0.752496 -0.182835 -0.63271
vn -0.742037 -0.397397 -0.539868
vn -0.908055 0.314512 -0.276619
vn -0.989845 -0.0716642 -0.122766
vn -0.949598 0.297806 -0.0978509
vn -0.920175 -0.28475 -0.268691
vn -0.957624 0.0626906 -0.281117
vn -0.589708 -0.688747 -0.421749
vn -0.361847 -0.756573 -0.544669
vn -0.202167 -0.869404 -0.450849
vn -0.415194 -0.838715 -0.352379
vn -0.114734 -0.921511 -0.371018
vn -0.639729 0.744125 -0.192416
vn -0.721691 0.692163 -0.00850221
vn -0.769218 0.634267 0.0775197
vn -0.537629 0.833626 0.126585
vn 0.91449 0.363864 0.17695
vn 0.986815 0.0763487 0.142713
vn 0.797014 0.578367 0.173955
vn 0.617159 0.723843 0.30849
vn -0.0477623 0.924505 0.378167
vn 0.112827 0.918127 0.379886
vn 0.208269 0.908249 0.362915
vn -0.46725 0.832873 0.296646
vn -0.448367 0.658181 -0.604785
vn -0.366765 0.889936 -0.271105
vn -0.270579 0.962693 0.00296839
vn -0.434639 0.898106 0.0670455
vn -0.32209 0.930884 0.172374
vn -0.24725 0.937818 0.243649
vn -0.0837519 0.957413 -0.276309
vn -0.154176 0.979715 0.128017
vn -0.126905 0.970676 0.204165
vn 0.0510088 0.99781 0.0421019
vn 0.0544232 0.982595 0.177611
vn 0.0949733 0.959368 0.265693
vn 0.332147 0.914787 0.229876
vn 0.568588 0.812096 0.131177
vn 0.352099 0.885924 0.301935
vn 0.0777092 0.937503 0.339188
vn 0.615974 0.762978 0.196061
vn 0.844387 0.532802 0.0559806
vn 0.988621 0.144405 -0.0421431
vn 0.956171 0.280052 -0.0854888
vn -0.0709689 0.963048 0.259811
vn 0.911526 -0.360103 -0.19861
vn 0.755195 -0.61293 -0.232374
vn 0.566894 -0.776674 -0.274606
vn 0.423513 -0.867427 -0.261164
vn 0.449909 -0.84442 -0.290753
vn 0.72937 -0.61859 -0.292173
vn 0.573089 -0.754229 -0.32048
vn 0.87398 -0.383895 -0.297966
vn 0.427423 -0.826951 -0.365323
vn -0.369039 0.260819 -0.892067
vn -0.425322 -0.562997 -0.708615
vn 0.0871088 -0.92674 -0.365465
vn -0.0826926 -0.943935 -0.319608
vn 0.0601935 -0.891699 -0.448608
vn -0.0810779 -0.813421 -0.575998
vn 0.0416077 -0.689174 -0.7234
vn 0.152112 -0.33099 -0.931294
vn 0.190095 -0.820811 -0.538641
vn 0.262014 -0.872141 -0.413181
vn 0.380308 -0.719502 -0.581105
vn 0.442683 -0.499874 -0.744418
vn 0.657035 -0.500179 -0.564027
vn 0.265797 -0.921383 -0.283557
vn 0.384489 -0.868633 -0.312482
vn 0.194806 -0.932083 -0.305404
vn 0.258116 -0.901927 -0.346271
vn 0.0840824 -0.942466 -0.323556
vn -0.118774 0.862897 -0.491225
vn 0.14952 0.920922 -0.359925
vn 0.249608 0.955969 -0.154337
vn 0.473706 0.844387 -0.250228
vn 0.586467 0.796594 -0.146607
vn 0.438126 -0.206887 -0.874782
vn 0.745469 -0.0636142 -0.663498
vn 0.804214 0.136178 -0.578529
vn 0.908778 0.324401 -0.262464
vn 0.893725 0.0274967 -0.447773
vn 0.856736 -0.320515 -0.404072
vn 0.974929 -0.114839 -0.190594
vn 0.969007 -0.00426577 -0.246996
vn 0.721591 0.691801 0.026788
vn 0.881464 0.457715 -0.116265
vn -0.327068 -0.892689 -0.310054
vn -0.995726 0.0772291 0.0506523
vn -0.990945 0.133908 0.00982842
vn -0.941834 -0.314447 -0.118626
vn -0.920821 0.388072 0.0385919
vn -0.762701 -0.585423 -0.274894
vn -0.646472 -0.719154 -0.254736
vn -0.877995 0.456856 0.142857
vn -0.736666 0.65418 0.171383
vn -0.95175 0.257596 0.166782
vn -0.757354 0.606333 0.242436
vn -0.625225 0.717686 0.306627
vn -0.856388 0.438286 0.272954
vn -0.489601 0.796058 0.355785
vn -0.733629 0.588323 0.340095
vn -0.648935 0.670009 0.360515
vn 0.866932 -0.495027 -0.0581132
vn 0.81219 0.510875 0.2817
vn 0.393565 0.843188 0.366253
vn -0.0949542 -0.969065 -0.227807
vn -0.0950718 -0.975372 -0.199025
vn -0.440771 -0.889337 -0.121659
vn 0.935338 -0.351564 -0.0393175
vn 0.569171 -0.803632 -0.173843
vn 0.416956 -0.882548 -0.217386
vn -0.469974 0.79973 0.373574
vn -0.570754 0.726053 0.38352
vn -0.336722 0.862059 0.378779
vn -0.97839 -0.206636 0.00733691
vn -0.23909 -0.931375 -0.274547
vn -0.53563 -0.811177 -0.234719
vn -0.808524 -0.568408 -0.15232
vn -0.805118 -0.587413 -0.0820427
vn -0.476038 -0.854893 -0.206268
vn -0.541328 -0.828795 -0.141644
vn -0.841098 -0.540845 0.00635487
vn 0.0187013 -0.959003 -0.28278
vn -0.23732 -0.94304 -0.233142
vn 0.302109 -0.921819 -0.242857
vn 0.115484 -0.96312 -0.243031
vn -0.988941 -0.0627019 0.134401
vn -0.968498 0.0930219 0.230995
vn -0.969089 -0.142025 0.201731
vn -0.185583 0.898755 0.397239
vn 0.237803 -0.946281 -0.219092
vn 0.0967292 -0.97127 -0.217434
vn -0.756711 0.562923 0.332425
vn -0.918295 0.254825 0.302982
vn -0.958611 -0.140853 0.247439
vn -0.195077 -0.963185 -0.184986
vn 0.0241652 0.361344 0.93212
vn -0.0737478 0.347639 0.934724
vn -0.0137401 0.429525 0.90295
vn 0.0540964 0.319052 0.946192
vn 0.0679447 0.282602 0.956828
vn -0.0013278 0.28928 0.957244
vn 0.119999 0.36093 0.92484
vn 0.0652431 0.405218 0.911889
vn 0.102169 0.220299 0.970067
vn 0.166305 0.204237 0.964692
vn 0.130291 0.305134 0.943354
vn -0.155028 0.210693 0.965181
vn -0.150015 0.246309 0.957511
vn -0.107427 0.238455 0.965194
vn 0.190919 0.275073 0.942276
vn -0.290699 0.176301 0.940432
vn -0.207367 0.252637 0.945078
vn -0.20551 0.192995 0.959437
vn -0.121678 0.295166 0.947666
vn 0.0694206 0.248353 0.966179
vn -0.141658 0.411189 0.900476
vn -0.275797 0.277174 0.920386
vn -0.0774083 0.277591 0.957576
vn -0.233318 0.357648 0.90424
vn 0.12486 0.25675 0.958379
vn -0.177049 0.319606 0.930863
vn 0.183088 0.325768 0.927553
vn 0.0186377 0.260256 0.96536
vn -0.0442641 0.256073 0.965643
vn -0.0311342 0.317055 0.947896
vn -0.72763 0.504858 -0.464406
vn -0.715946 -0.549045 -0.431244
vn -0.227262 0.414714 0.881115
vn -0.307732 0.324967 0.894258
vn -0.317262 -0.456968 -0.830978
vn -0.0231988 0.073521 -0.997024
vn 0.271006 0.554057 -0.787132
vn 0.444984 0.523326 -0.726718
vn 0.675828 0.373516 -0.635407
vn 0.527556 0.461084 -0.713503
vn 0.714766 0.655368 -0.244136
vn -0.185225 0.178754 0.966302
vn -0.34591 0.116039 0.931065
vn -0.345836 0.226062 0.910656
vn 0.0711662 0.230883 0.970375
vn 0.94007 0.25567 0.225612
vn -0.262225 0.121856 0.957282
vn -0.134932 0.214237 0.967417
vn -0.0793858 0.236232 0.968449
vn 0.128677 0.407802 0.903958
vn 0.181712 0.368334 0.911763
vn 0.062381 0.453557 0.889041
vn -0.566705 -0.82182 -0.0587989
vn -0.0777704 0.487577 0.869609
vn -0.0182511 0.246783 0.968899
vn 0.0350601 0.246481 0.968513
vn 0.215202 0.315638 0.924154
vn 0.211835 0.229687 0.949932
vn -0.622888 -0.782203 -0.0129847
vn 0.17785 0.169981 0.969266
vn -0.70101 -0.713141 -0.00377494
vn 0.120645 0.192793 0.973795
g grp1
usemtl mtl1
f 1//1 2//2 3//3 
f 4//4 5//5 6//6 
f 5//5 7//7 8//8 
f 9//9 10//10 11//11 
f 12//12 13//13 14//14 
f 13//13 12//12 15//15 
f 16//16 17//17 18//18 
f 17//17 19//19 18//18 
f 18//18 19//19 20//20 
f 20//20 19//19 21//21 
f 20//20 21//21 22//22 
f 23//23 24//24 25//25 
f 26//26 27//27 28//28 
f 27//27 29//29 28//28 
f 25//25 24//24 29//29 
f 191//191 30//30 28//28 
f 30//30 24//24 31//31 
f 191//191 24//24 30//30 
f 31//31 32//32 30//30 
f 30//30 32//32 33//33 
f 32//32 34//34 33//33 
f 190//190 25//25 35//35 
f 35//35 25//25 36//36 
f 27//27 25//25 29//29 
f 25//25 27//27 36//36 
f 27//27 37//37 36//36 
f 36//36 37//37 38//38 
f 37//37 1//1 38//38 
f 3//3 38//38 1//1 
f 16//16 39//39 17//17 
f 40//40 17//17 39//39 
f 41//41 42//42 39//39 
f 43//43 44//44 45//45 
f 6//6 3//3 46//46 
f 190//190 35//35 47//47 
f 47//47 35//35 48//48 
f 49//49 35//35 50//50 
f 48//48 35//35 49//49 
f 38//38 50//50 36//36 
f 36//36 50//50 35//35 
f 50//50 38//38 51//51 
f 38//38 3//3 51//51 
f 51//51 3//3 52//52 
f 48//48 49//49 53//53 
f 49//49 50//50 54//54 
f 50//50 51//51 54//54 
f 51//51 52//52 55//55 
f 51//51 55//55 54//54 
f 49//49 54//54 56//56 
f 55//55 57//57 54//54 
f 54//54 57//57 56//56 
f 56//56 57//57 10//10 
f 11//11 58//58 59//59 
f 11//11 59//59 60//60 
f 61//61 58//58 62//62 
f 59//59 58//58 61//61 
f 62//62 45//45 61//61 
f 60//60 59//59 63//63 
f 63//63 59//59 61//61 
f 45//45 42//42 61//61 
f 60//60 63//63 64//64 
f 63//63 61//61 41//41 
f 61//61 42//42 41//41 
f 63//63 41//41 64//64 
f 64//64 41//41 65//65 
f 66//66 64//64 65//65 
f 41//41 16//16 65//65 
f 10//10 57//57 11//11 
f 58//58 11//11 57//57 
f 58//58 57//57 67//67 
f 57//57 55//55 67//67 
f 67//67 55//55 52//52 
f 52//52 6//6 5//5 
f 67//67 52//52 5//5 
f 67//67 8//8 58//58 
f 5//5 8//8 67//67 
f 58//58 8//8 62//62 
f 16//16 18//18 68//68 
f 16//16 68//68 65//65 
f 20//20 69//69 18//18 
f 68//68 18//18 69//69 
f 20//20 70//70 69//69 
f 70//70 71//71 72//72 
f 71//71 70//70 22//22 
f 22//22 70//70 20//20 
f 68//68 69//69 73//73 
f 69//69 70//70 73//73 
f 72//72 74//74 70//70 
f 68//68 73//73 75//75 
f 70//70 74//74 73//73 
f 15//15 73//73 74//74 
f 75//75 73//73 15//15 
f 76//76 13//13 74//74 
f 15//15 74//74 13//13 
f 47//47 77//77 190//190 
f 23//23 194//194 78//78 
f 34//34 79//79 80//80 
f 81//81 79//79 34//34 
f 34//34 32//32 81//81 
f 32//32 31//31 82//82 
f 81//81 32//32 82//82 
f 78//78 31//31 24//24 
f 31//31 78//78 82//82 
f 82//82 78//78 83//83 
f 78//78 194//194 83//83 
f 194//194 84//84 83//83 
f 81//81 85//85 86//86 
f 85//85 82//82 83//83 
f 83//83 87//87 85//85 
f 83//83 88//88 87//87 
f 88//88 83//83 84//84 
f 86//86 85//85 14//14 
f 14//14 85//85 87//87 
f 87//87 89//89 12//12 
f 87//87 12//12 14//14 
f 71//71 90//90 72//72 
f 72//72 90//90 91//91 
f 90//90 92//92 91//91 
f 93//93 92//92 94//94 
f 94//94 79//79 93//93 
f 93//93 79//79 86//86 
f 72//72 91//91 74//74 
f 91//91 76//76 74//74 
f 93//93 86//86 76//76 
f 93//93 76//76 91//91 
f 86//86 14//14 76//76 
f 76//76 14//14 13//13 
f 47//47 48//48 53//53 
f 47//47 53//53 95//95 
f 95//95 53//53 96//96 
f 96//96 53//53 97//97 
f 96//96 97//97 98//98 
f 53//53 56//56 97//97 
f 56//56 53//53 49//49 
f 97//97 56//56 99//99 
f 98//98 97//97 99//99 
f 56//56 10//10 99//99 
f 10//10 9//9 99//99 
f 47//47 195//195 77//77 
f 77//77 195//195 84//84 
f 195//195 100//100 84//84 
f 84//84 100//100 88//88 
f 199//199 197//197 198//198 
f 199//199 198//198 101//101 
f 197//197 199//199 196//196 
f 101//101 198//198 102//102 
f 98//98 99//99 200//200 
f 99//99 103//103 104//104 
f 99//99 104//104 200//200 
f 88//88 89//89 87//87 
f 88//88 101//101 89//89 
f 89//89 101//101 104//104 
f 102//102 104//104 101//101 
f 104//104 105//105 89//89 
f 89//89 105//105 12//12 
f 65//65 68//68 106//106 
f 65//65 106//106 66//66 
f 75//75 106//106 68//68 
f 12//12 105//105 15//15 
f 15//15 105//105 75//75 
f 106//106 107//107 66//66 
f 75//75 107//107 106//106 
f 107//107 105//105 103//103 
f 75//75 105//105 107//107 
f 104//104 103//103 105//105 
f 64//64 66//66 108//108 
f 64//64 108//108 60//60 
f 107//107 109//109 66//66 
f 108//108 66//66 109//109 
f 103//103 9//9 109//109 
f 109//109 9//9 108//108 
f 60//60 108//108 11//11 
f 108//108 9//9 11//11 
f 103//103 109//109 107//107 
f 101//101 88//88 100//100 
f 103//103 99//99 9//9 
f 81//81 86//86 79//79 
f 92//92 93//93 91//91 
f 82//82 85//85 81//81 
f 52//52 3//3 6//6 
f 39//39 42//42 40//40 
f 41//41 39//39 16//16 
f 78//78 24//24 23//23 
f 40//40 19//19 17//17 
f 3//3 2//2 46//46 
f 79//79 94//94 80//80 
f 80//80 110//110 34//34 
f 111//111 112//112 113//113 
f 112//112 114//114 26//26 
f 112//112 26//26 113//113 
f 30//30 115//115 28//28 
f 28//28 115//115 26//26 
f 116//116 113//113 115//115 
f 113//113 26//26 115//115 
f 115//115 33//33 116//116 
f 110//110 116//116 33//33 
f 111//111 117//117 112//112 
f 26//26 114//114 27//27 
f 114//114 112//112 117//117 
f 114//114 117//117 118//118 
f 118//118 37//37 114//114 
f 114//114 37//37 27//27 
f 2//2 1//1 118//118 
f 37//37 118//118 1//1 
f 111//111 119//119 117//117 
f 119//119 120//120 117//117 
f 120//120 2//2 118//118 
f 117//117 120//120 118//118 
f 120//120 121//121 2//2 
f 121//121 46//46 2//2 
f 119//119 122//122 120//120 
f 122//122 121//121 120//120 
f 46//46 121//121 123//123 
f 123//123 4//4 46//46 
f 122//122 124//124 121//121 
f 124//124 123//123 121//121 
f 124//124 125//125 123//123 
f 19//19 40//40 126//126 
f 19//19 126//126 21//21 
f 127//127 40//40 42//42 
f 127//127 42//42 128//128 
f 42//42 45//45 128//128 
f 45//45 44//44 128//128 
f 45//45 62//62 43//43 
f 7//7 43//43 8//8 
f 8//8 43//43 62//62 
f 129//129 130//130 131//131 
f 40//40 132//132 126//126 
f 126//126 133//133 21//21 
f 134//134 22//22 133//133 
f 46//46 4//4 6//6 
f 4//4 7//7 5//5 
f 133//133 22//22 21//21 
f 22//22 134//134 71//71 
f 40//40 127//127 205//205 
f 135//135 125//125 136//136 
f 123//123 125//125 135//135 
f 123//123 135//135 137//137 
f 111//111 113//113 138//138 
f 80//80 139//139 110//110 
f 139//139 140//140 110//110 
f 116//116 110//110 140//140 
f 140//140 141//141 116//116 
f 113//113 116//116 141//141 
f 138//138 113//113 141//141 
f 138//138 141//141 142//142 
f 139//139 143//143 140//140 
f 141//141 140//140 142//142 
f 143//143 142//142 140//140 
f 143//143 144//144 142//142 
f 145//145 142//142 144//144 
f 146//146 147//147 139//139 
f 143//143 147//147 144//144 
f 147//147 131//131 144//144 
f 147//147 129//129 131//131 
f 148//148 90//90 71//71 
f 146//146 94//94 92//92 
f 80//80 146//146 139//139 
f 94//94 146//146 80//80 
f 148//148 149//149 90//90 
f 92//92 90//90 146//146 
f 90//90 149//149 146//146 
f 146//146 129//129 147//147 
f 149//149 129//129 146//146 
f 119//119 111//111 138//138 
f 138//138 150//150 119//119 
f 119//119 150//150 122//122 
f 150//150 151//151 122//122 
f 122//122 151//151 124//124 
f 138//138 142//142 150//150 
f 145//145 151//151 150//150 
f 145//145 152//152 151//151 
f 150//150 142//142 145//145 
f 212//212 145//145 131//131 
f 144//144 131//131 145//145 
f 123//123 137//137 4//4 
f 4//4 137//137 7//7 
f 137//137 153//153 7//7 
f 7//7 153//153 43//43 
f 71//71 134//134 148//148 
f 154//154 148//148 134//134 
f 149//149 148//148 154//154 
f 154//154 155//155 149//149 
f 149//149 155//155 130//130 
f 149//149 130//130 129//129 
f 136//136 125//125 156//156 
f 125//125 157//157 156//156 
f 124//124 157//157 125//125 
f 152//152 157//157 151//151 
f 151//151 157//157 124//124 
f 158//158 157//157 152//152 
f 139//139 147//147 143//143 
f 212//212 131//131 218//218 
f 131//131 130//130 159//159 
f 220//220 218//218 131//131 
f 110//110 33//33 34//34 
f 115//115 30//30 33//33 
f 160//160 161//161 162//162 
f 163//163 164//164 165//165 
f 209//209 210//210 166//166 
f 166//166 167//167 209//209 
f 168//168 169//169 221//221 
f 164//164 163//163 170//170 
f 171//171 172//172 173//173 
f 174//174 217//217 169//169 
f 175//175 176//176 177//177 
f 178//178 172//172 176//176 
f 209//209 167//167 211//211 
f 204//204 179//179 168//168 
f 204//204 215//215 179//179 
f 216//216 217//217 174//174 
f 180//180 162//162 161//161 
f 203//203 181//181 175//175 
f 172//172 178//178 182//182 
f 181//181 193//193 183//183 
f 170//170 174//174 184//184 
f 183//183 185//185 181//181 
f 219//219 221//221 169//169 
f 162//162 180//180 213//213 
f 180//180 161//161 185//185 
f 177//177 172//172 171//171 
f 174//174 186//186 216//216 
f 207//207 201//201 171//171 
f 184//184 169//169 168//168 
f 215//215 214//214 187//187 
f 173//173 188//188 208//208 
f 167//167 166//166 160//160 
f 189//189 161//161 160//160 
f 180//180 183//183 192//192 
f 163//163 160//160 166//166 
f 202//202 203//203 175//175 
f 177//177 171//171 201//201 
f 211//211 162//162 213//213 
f 165//165 164//164 187//187 
f 214//214 208//208 188//188 
f 201//201 206//206 177//177 
f 176//176 181//181 185//185 
f 210//210 216//216 186//186 
f 172//172 177//177 176//176 
f 167//167 160//160 162//162 
f 187//187 179//179 215//215 
f 171//171 173//173 207//207 
f 178//178 161//161 189//189 
f 176//176 175//175 181//181 
f 188//188 187//187 214//214 
f 207//207 173//173 208//208 
f 178//178 185//185 161//161 
f 219//219 169//169 217//217 
f 182//182 165//165 188//188 
f 179//179 187//187 164//164 
f 182//182 189//189 165//165 
f 203//203 193//193 181//181 
f 187//187 188//188 165//165 
f 184//184 164//164 170//170 
f 192//192 213//213 180//180 
f 174//174 170//170 186//186 
f 186//186 166//166 210//210 
f 178//178 189//189 182//182 
f 192//192 183//183 193//193 
f 168//168 179//179 184//184 
f 165//165 189//189 163//163 
f 172//172 182//182 173//173 
f 169//169 184//184 174//174 
f 184//184 179//179 164//164 
f 162//162 211//211 167//167 
f 175//175 177//177 206//206 
f 204//204 168//168 221//221 
f 202//202 175//175 206//206 
f 176//176 185//185 178//178 
f 170//170 163//163 166//166 
f 188//188 173//173 182//182 
f 180//180 185//185 183//183 
f 160//160 163//163 189//189 
f 166//166 186//186 170//170 
