v -6.13551 -66.1163 1503.3
v -6.58054 -66.1794 1503.44
v -6.42206 -66.3389 1503.01
v -6.79819 -66.3676 1503.44
v -6.60122 -66.5954 1503.05
v -6.68976 -66.8462 1503.23
v -6.94302 -66.6306 1503.62
v -6.91406 -66.376 1504.03
v -5.96763 -66.2495 1503
v -6.38763 -66.0948 1504.02
v -7.05322 -66.8426 1504.2
v -5.62117 -66.3336 1503.25
v -5.80234 -66.1259 1503.84
v -6.14516 -66.9574 1505.51
v -6.45201 -66.7666 1505.45
v -6.15704 -66.5659 1505.26
v -5.31317 -66.9124 1504.04
v -5.50782 -67.053 1503.56
v -5.4643 -67.1948 1504.38
v -6.05214 -67.465 1504.32
v -5.77342 -67.3093 1504.93
v -5.70174 -67.3434 1504.03
v -5.94531 -67.1179 1503.28
v -6.51788 -67.0389 1505.47
v -6.44536 -67.2831 1505.34
v -6.82355 -67.1385 1505.13
v -6.18182 -67.4341 1505.07
v -6.05037 -67.1941 1505.39
v -6.51989 -67.4133 1504.95
v -6.83543 -67.2695 1504.57
v -6.35938 -67.3422 1503.74
v -5.82556 -66.4582 1502.88
v -5.6484 -66.7004 1503.03
v -5.99515 -66.7352 1502.85
v -5.37776 -66.7274 1503.45
v -5.77203 -66.9343 1505.27
v -5.45744 -66.9178 1504.79
v -5.34327 -66.6462 1504.33
v -5.39628 -66.4517 1503.76
v -5.71799 -66.6828 1505.13
v -5.69414 -66.458 1504.81
v -5.56187 -66.327 1504.33
v -6.17981 -66.5087 1502.83
v -6.75395 -67.135 1503.75
v -6.99729 -66.6146 1504.69
v -7.01054 -66.9817 1504.78
v -6.62684 -66.447 1504.99
v -6.78842 -66.3168 1504.55
v -6.82613 -66.8508 1505.21
v -6.07736 -66.1827 1504.53
v -6.48467 -67.4505 1504.34
v -6.32627 -66.938 1503.06
v -6.60122 -66.5954 1503.05
v -6.68976 -66.8462 1503.23
v -5.96763 -66.2495 1503
v -7.05322 -66.8426 1504.2
v -6.14516 -66.9574 1505.51
v -6.14516 -66.9574 1505.51
v -6.14516 -66.9574 1505.51
v -6.51788 -67.0389 1505.47
v -5.82556 -66.4582 1502.88
v -5.82556 -66.4582 1502.88
v -5.6484 -66.7004 1503.03
v -5.6484 -66.7004 1503.03
v -5.99515 -66.7352 1502.85
v -5.99515 -66.7352 1502.85
v -5.37776 -66.7274 1503.45
v -5.77203 -66.9343 1505.27
v -5.77203 -66.9343 1505.27
v -5.45744 -66.9178 1504.79
v -5.71799 -66.6828 1505.13
v -5.69414 -66.458 1504.81
v -6.17981 -66.5087 1502.83
v -6.17981 -66.5087 1502.83
v -6.17981 -66.5087 1502.83
v -7.01054 -66.9817 1504.78
vn 0.0315133 0.969308 -0.243822
vn -0.440472 0.871088 -0.217235
vn -0.416672 0.648534 -0.637015
vn -0.779197 0.491958 -0.388367
vn -0.751227 0.164949 -0.639101
vn -0.869057 -0.240412 -0.432367
vn -0.939504 -0.0206159 -0.341918
vn -0.789608 0.612576 -0.0356362
vn -0.087818 0.685893 -0.722384
vn -0.189164 0.977109 0.09734
vn -0.980045 0.198628 -0.00765727
vn 0.674054 0.643654 -0.362437
vn 0.360624 0.932703 0.00396887
vn 0.31124 0.522928 0.793521
vn -0.255542 0.488191 0.834486
vn 0.210957 0.704072 0.678071
vn 0.980234 -0.196861 -0.0196663
vn 0.678608 -0.648838 -0.344239
vn 0.770771 -0.634453 0.0581486
vn 0.118759 -0.989756 -0.0792435
vn 0.574476 -0.759078 0.306233
vn 0.405948 -0.901957 -0.14724
vn 0.208774 -0.841186 -0.498818
vn -0.526795 -0.108111 0.843089
vn -0.248459 -0.759493 0.601197
vn -0.720659 -0.538473 0.436689
vn 0.120662 -0.94343 0.308838
vn 0.314364 -0.582458 0.749612
vn -0.315992 -0.932505 0.174879
vn -0.698851 -0.715249 -0.0051446
vn -0.173624 -0.917512 -0.357808
vn 0.692108 0.477632 -0.54116
vn 0.811728 0.260677 -0.522633
vn 0.217327 -0.714776 -0.664728
vn 0.811672 -0.452308 -0.369603
vn 0.679333 -0.380512 0.627469
vn 0.888731 -0.344125 0.302877
vn 0.919053 0.325243 0.222616
vn 0.86571 0.496566 -0.063
vn 0.845407 0.274387 0.458256
vn 0.807767 0.447153 0.384143
vn 0.61103 0.761876 0.214914
vn -0.039906 0.57091 -0.820042
vn -0.649989 -0.684581 -0.329944
vn -0.878032 0.404516 0.255784
vn -0.956 0.0143028 0.293019
vn -0.346586 0.806283 0.479359
vn -0.530033 0.81542 0.232712
vn -0.768095 0.208907 0.605299
vn 0.139575 0.935419 0.324823
vn -0.313429 -0.9432 -0.110165
vn -0.31471 -0.63686 -0.703823
vn -0.427364 -0.364817 -0.827206
vn -0.458108 -0.601255 -0.654698
vn 0.464698 0.805701 -0.367291
vn -0.853697 -0.488667 -0.180015
vn -0.125694 0.120444 0.98473
vn 0.539793 -0.189054 0.820294
vn 0.00595554 -0.440926 0.897524
vn -0.00150008 -0.458793 0.888542
vn 0.308212 -0.0855476 -0.947464
vn 0.0530249 0.51726 -0.854184
vn 0.538012 -0.611512 -0.580169
vn 0.460027 -0.187127 -0.867963
vn 0.308212 -0.0855476 -0.947464
vn -0.329747 -0.355584 -0.874544
vn 0.915879 0.269779 -0.297295
vn 0.40122 0.447634 0.799153
vn 0.827635 0.126594 0.546803
vn 0.834428 0.315511 0.451866
vn 0.365238 0.58813 0.721598
vn 0.333073 0.823393 0.459442
vn 0.144165 0.0194265 -0.989363
vn -0.356848 -0.343267 -0.868808
vn -0.486053 0.192684 -0.852423
vn -0.836099 -0.546117 0.0519112
g grp1
usemtl mtl1
f 3//3 2//2 1//1 
f 3//3 5//5 4//4 
f 2//2 3//3 4//4 
f 7//7 5//5 6//6 
f 7//7 4//4 5//5 
f 4//4 7//7 8//8 
f 8//8 2//2 4//4 
f 3//3 1//1 9//9 
f 1//1 2//2 10//10 
f 8//8 7//7 11//11 
f 12//12 55//55 1//1 
f 12//12 1//1 13//13 
f 16//16 15//15 14//14 
f 19//19 18//18 17//17 
f 22//22 21//21 20//20 
f 22//22 19//19 21//21 
f 23//23 18//18 22//22 
f 18//18 19//19 22//22 
f 20//20 23//23 22//22 
f 57//57 15//15 24//24 
f 24//24 26//26 25//25 
f 28//28 25//25 27//27 
f 21//21 28//28 27//27 
f 29//29 25//25 26//26 
f 27//27 25//25 29//29 
f 29//29 26//26 30//30 
f 20//20 31//31 23//23 
f 33//33 32//32 12//12 
f 23//23 34//34 63//63 
f 63//63 35//35 18//18 
f 36//36 28//28 21//21 
f 37//37 21//21 19//19 
f 36//36 21//21 37//37 
f 37//37 19//19 17//17 
f 17//17 39//39 38//38 
f 67//67 12//12 39//39 
f 41//41 40//40 70//70 
f 16//16 71//71 72//72 
f 68//68 16//16 14//14 
f 28//28 36//36 58//58 
f 71//71 16//16 68//68 
f 39//39 42//42 38//38 
f 38//38 42//42 41//41 
f 38//38 37//37 17//17 
f 41//41 70//70 38//38 
f 69//69 70//70 40//40 
f 39//39 13//13 42//42 
f 55//55 12//12 32//32 
f 9//9 43//43 3//3 
f 7//7 6//6 44//44 
f 56//56 7//7 44//44 
f 11//11 45//45 8//8 
f 46//46 45//45 11//11 
f 48//48 45//45 47//47 
f 47//47 45//45 49//49 
f 49//49 45//45 46//46 
f 2//2 8//8 10//10 
f 13//13 1//1 10//10 
f 13//13 39//39 12//12 
f 42//42 13//13 50//50 
f 15//15 47//47 49//49 
f 15//15 49//49 24//24 
f 24//24 49//49 26//26 
f 26//26 76//76 30//30 
f 51//51 30//30 44//44 
f 51//51 44//44 31//31 
f 23//23 52//52 34//34 
f 61//61 65//65 73//73 
f 64//64 65//65 61//61 
f 30//30 76//76 56//56 
f 30//30 56//56 44//44 
f 52//52 23//23 31//31 
f 66//66 52//52 74//74 
f 75//75 5//5 3//3 
f 52//52 54//54 53//53 
f 74//74 52//52 53//53 
f 44//44 54//54 52//52 
f 31//31 44//44 52//52 
f 46//46 26//26 49//49 
f 62//62 43//43 9//9 
f 31//31 20//20 51//51 
f 16//16 47//47 15//15 
f 8//8 48//48 10//10 
f 13//13 10//10 50//50 
f 50//50 16//16 72//72 
f 10//10 48//48 47//47 
f 10//10 47//47 50//50 
f 16//16 50//50 47//47 
f 72//72 42//42 50//50 
f 48//48 8//8 45//45 
f 17//17 67//67 39//39 
f 12//12 67//67 33//33 
f 35//35 17//17 18//18 
f 63//63 18//18 23//23 
f 29//29 30//30 51//51 
f 29//29 51//51 20//20 
f 20//20 27//27 29//29 
f 21//21 27//27 20//20 
f 28//28 60//60 25//25 
f 28//28 59//59 60//60 
