v 6.22052 -73.9323 1531.1
v 5.68917 -73.6201 1530.11
v 5.87558 -74.4557 1531.63
v 5.75643 -75.0441 1531.83
v 6.15478 -75.1018 1532.46
v 5.18711 -73.232 1527.74
v 5.14663 -73.7602 1528.69
v 5.37097 -73.306 1528.71
v 6.52769 -75.8971 1531.31
v 6.24058 -75.8335 1531.94
v 6.00358 -75.7799 1531.04
v 5.42733 -73.964 1525.91
v 5.44559 -74.6153 1527.2
v 5.2342 -74.0739 1526.67
v 5.69224 -75.5328 1530.26
v 5.56543 -75.2809 1530.88
v 5.35162 -74.9258 1528.84
v 5.15264 -74.4132 1528.22
v 5.29869 -74.7863 1530.01
v 5.22237 -74.309 1529.66
v 5.47318 -74.8058 1531.01
v 5.86727 -75.5395 1531.78
v 5.07913 -73.8695 1527.37
v 5.21397 -73.328 1525.86
v 5.43385 -73.2452 1525.17
v 5.10409 -73.3588 1526.78
v 6.01079 -75.4393 1528.77
v 5.61569 -75.2416 1528.8
v 5.71739 -74.7559 1527.06
v 6.03257 -74.8164 1526.97
v 6.34071 -75.8127 1530.24
v 5.95519 -75.6809 1529.92
v 6.28388 -75.2787 1528.12
v 6.59784 -75.5443 1529.25
v 6.59309 -75.1158 1527.96
v 5.84806 -74.1093 1525.69
v 5.61284 -73.5982 1525.16
v 6.28433 -74.2532 1525.99
v 5.98551 -73.3358 1529.82
v 5.67111 -72.9484 1528.4
v 5.51725 -74.2501 1530.74
v 5.41773 -72.7606 1526.97
v 5.18915 -73.003 1526.65
v 5.35531 -72.7659 1526
v 5.80878 -72.6136 1527.3
v 5.73774 -72.5029 1526.26
v 5.61343 -72.5988 1525.3
v 5.48565 -72.8113 1525.15
v 6.27836 -74.7081 1532.23
v 6.47243 -75.2257 1532.63
v 6.04346 -75.3602 1532.37
v 6.30403 -75.5421 1532.58
v 6.57811 -75.6275 1532.53
v 5.88115 -72.4799 1525.64
v 5.91813 -72.5632 1525.19
v 5.83555 -72.7181 1524.86
v 5.71428 -72.9263 1524.75
v 6.19458 -73.7701 1525.31
v 5.94928 -73.5342 1524.97
v 5.70481 -73.2535 1524.81
v 5.92907 -72.9905 1524.68
v 6.60733 -75.8355 1532.1
v 6.40751 -75.7553 1532.41
v 6.1208 -75.6487 1532.28
v 6.36482 -74.7468 1526.9
v 6.09928 -72.8635 1528.4
v 6.08772 -72.5466 1526.8
v 6.48541 -72.8148 1527.43
v 6.82584 -75.6546 1530.33
v 7.13704 -75.032 1529.46
v 7.15773 -75.1779 1530.5
v 7.18643 -74.4029 1528.8
v 6.96376 -74.4531 1527.53
v 6.88383 -73.7368 1526.65
v 7.1656 -74.3338 1530.2
v 6.97583 -73.5417 1528.76
v 6.94831 -74.2115 1530.86
v 7.08711 -73.7332 1528.27
v 7.04324 -74.925 1531.63
v 7.20155 -74.8458 1530.7
v 6.99954 -75.3234 1531.84
v 6.95963 -73.5087 1527.19
v 6.49674 -73.0627 1525.56
v 6.4662 -73.4329 1525.4
v 6.70479 -73.0071 1526.88
v 6.94291 -75.2151 1529.02
v 6.72079 -74.5818 1527.08
v 6.59731 -73.8934 1525.95
v 6.87631 -75.7092 1531.37
v 6.81242 -75.6719 1532.11
v 6.34152 -73.3527 1529.81
v 6.69126 -73.9484 1530.88
v 6.67844 -73.322 1529.2
v 6.68525 -74.7906 1532.17
v 6.73146 -75.1284 1532.43
v 6.52508 -74.4205 1531.85
v 6.25032 -72.6097 1525.86
v 6.14302 -72.7836 1525.02
v 6.76198 -75.4385 1532.45
v 6.11027 -73.1219 1524.8
v 6.52769 -75.8971 1531.31
v 6.47243 -75.2257 1532.63
v 6.30403 -75.5421 1532.58
v 6.57811 -75.6275 1532.53
v 6.57811 -75.6275 1532.53
v 5.91813 -72.5632 1525.19
v 5.83555 -72.7181 1524.86
v 5.83555 -72.7181 1524.86
v 5.71428 -72.9263 1524.75
v 5.71428 -72.9263 1524.75
v 5.71428 -72.9263 1524.75
v 6.19458 -73.7701 1525.31
v 5.70481 -73.2535 1524.81
v 5.92907 -72.9905 1524.68
v 5.92907 -72.9905 1524.68
v 6.73146 -75.1284 1532.43
v 6.73146 -75.1284 1532.43
v 6.76198 -75.4385 1532.45
v 6.11027 -73.1219 1524.8
vn -0.0990183 0.864584 0.492636
vn -0.565104 0.729362 0.385601
vn -0.634625 0.574506 0.516909
vn -0.914139 0.0524909 0.401989
vn -0.613317 0.295758 0.732373
vn -0.892375 0.433007 0.127164
vn -0.961153 0.234782 0.145128
vn -0.765665 0.593995 0.246833
vn -0.153055 -0.988135 0.0127747
vn -0.363766 -0.919218 0.15071
vn -0.505325 -0.86271 0.0194603
vn -0.701806 -0.601962 -0.380934
vn -0.716054 -0.653823 -0.244505
vn -0.895282 -0.393273 -0.209301
vn -0.725973 -0.687059 -0.0302229
vn -0.895647 -0.426685 0.125522
vn -0.857807 -0.508535 -0.0745669
vn -0.960307 -0.276935 -0.0334388
vn -0.966524 -0.243017 0.0823042
vn -0.989457 0.0409251 0.138925
vn -0.968298 -0.0119842 0.24951
vn -0.828195 -0.511793 0.228387
vn -0.994066 -0.100577 -0.0414397
vn -0.979731 -0.00393954 -0.200278
vn -0.880024 -0.194698 -0.433187
vn -0.988232 0.146481 -0.0440479
vn -0.217656 -0.940076 -0.262454
vn -0.606799 -0.772854 -0.18572
vn -0.43825 -0.830287 -0.344326
vn -0.0936021 -0.906015 -0.412766
vn 0.0130986 -0.988451 -0.150973
vn -0.4117 -0.901295 -0.134798
vn 0.105463 -0.938288 -0.329384
vn 0.323982 -0.914107 -0.24381
vn 0.492898 -0.807242 -0.324671
vn -0.179088 -0.824022 -0.537509
vn -0.542913 -0.60495 -0.582479
vn 0.363261 -0.778342 -0.512079
vn -0.184092 0.910259 0.370861
vn -0.435713 0.857764 0.272757
vn -0.867506 0.375349 0.326415
vn -0.644774 0.7526 0.133638
vn -0.903668 0.428166 0.00765472
vn -0.838217 0.539223 -0.0814324
vn -0.214364 0.959478 0.182895
vn -0.333303 0.941784 0.0441892
vn -0.473121 0.85386 -0.216976
vn -0.833304 0.40954 -0.371325
vn -0.128973 0.707604 0.694739
vn -0.0238618 0.509538 0.860117
vn -0.824696 -0.160292 0.542387
vn -0.517367 -0.351637 0.780181
vn 0.304014 -0.142688 0.941921
vn 0.0518431 0.996215 -0.0697664
vn -0.210808 0.936549 -0.280064
vn -0.479121 0.747063 -0.460804
vn -0.594429 0.617983 -0.51454
vn 0.114711 -0.793757 -0.59732
vn 0.063082 -0.627672 -0.775918
vn -0.200264 -0.440218 -0.875273
vn -0.0238338 -0.370658 -0.928464
vn 0.325321 -0.921341 0.21283
vn -0.167574 -0.862727 0.477097
vn -0.665515 -0.624622 0.408579
vn 0.321923 -0.847983 -0.421059
vn 0.133783 0.958521 0.251675
vn 0.224189 0.9699 0.0950408
vn 0.576212 0.810431 0.105746
vn 0.626543 -0.768995 -0.126846
vn 0.912657 -0.389053 -0.125282
vn 0.946607 -0.322179 -0.0116833
vn 0.996374 -0.0334692 -0.0782204
vn 0.907715 -0.339872 -0.246048
vn 0.966996 -0.0453269 -0.250729
vn 0.949564 0.291615 0.115273
vn 0.820434 0.560629 0.112176
vn 0.764506 0.570896 0.299346
vn 0.952184 0.305483 -0.00515631
vn 0.911904 0.278573 0.301377
vn 0.996295 0.00224572 0.0859737
vn 0.963396 -0.151074 0.221461
vn 0.967033 0.219846 -0.128513
vn 0.907305 0.306104 -0.288266
vn 0.86749 -0.165095 -0.46926
vn 0.834235 0.549937 -0.0402556
vn 0.736032 -0.636767 -0.22975
vn 0.689644 -0.625001 -0.365739
vn 0.79868 -0.426079 -0.424931
vn 0.737362 -0.675029 0.0251744
vn 0.780484 -0.558787 0.28036
vn 0.235698 0.907718 0.347122
vn 0.473543 0.794258 0.380672
vn 0.581577 0.781214 0.226879
vn 0.531113 0.613982 0.583904
vn 0.890468 0.217627 0.399632
vn 0.359855 0.766461 0.532017
vn 0.605662 0.788751 -0.105098
vn 0.665193 0.577682 -0.473076
vn 0.53986 0.0162033 0.841599
vn 0.486385 -0.451882 -0.747818
vn 0.43003 -0.900814 -0.0600641
vn 0.406302 -0.058581 0.911859
vn 0.106058 -0.202241 0.973576
vn 0.552988 -0.71166 0.433295
vn -0.0728078 -0.65336 0.753539
vn 0.472576 0.834112 -0.284481
vn 0.444776 0.689104 -0.57211
vn -0.101705 0.510305 -0.853958
vn -0.833053 -0.00953001 -0.553111
vn -0.327636 -0.170119 -0.929362
vn -0.101705 0.510305 -0.853958
vn 0.640986 -0.48374 -0.595931
vn -0.784322 -0.226009 -0.57772
vn -0.101705 0.510305 -0.853958
vn 0.57546 0.47725 -0.664137
vn 0.343838 0.592858 0.728213
vn 0.584545 0.109106 0.803992
vn 0.890127 -0.223738 0.397007
vn 0.81552 0.236637 -0.528138
g grp1
usemtl mtl1
f 1//1 2//2 3//3 
f 4//4 5//5 3//3 
f 6//6 7//7 8//8 
f 9//9 10//10 11//11 
f 12//12 13//13 14//14 
f 15//15 16//16 17//17 
f 18//18 19//19 20//20 
f 21//21 19//19 16//16 
f 4//4 21//21 16//16 
f 17//17 19//19 18//18 
f 19//19 17//17 16//16 
f 22//22 4//4 16//16 
f 14//14 17//17 18//18 
f 20//20 23//23 18//18 
f 14//14 18//18 23//23 
f 14//14 23//23 24//24 
f 25//25 14//14 24//24 
f 7//7 23//23 20//20 
f 26//26 23//23 7//7 
f 24//24 23//23 26//26 
f 27//27 28//28 29//29 
f 27//27 29//29 30//30 
f 31//31 32//32 27//27 
f 27//27 30//30 33//33 
f 27//27 33//33 34//34 
f 34//34 33//33 35//35 
f 27//27 34//34 31//31 
f 29//29 28//28 13//13 
f 17//17 14//14 13//13 
f 29//29 13//13 12//12 
f 36//36 29//29 12//12 
f 25//25 12//12 14//14 
f 12//12 25//25 37//37 
f 36//36 12//12 37//37 
f 29//29 36//36 30//30 
f 38//38 30//30 36//36 
f 15//15 17//17 28//28 
f 27//27 32//32 28//28 
f 15//15 28//28 32//32 
f 15//15 32//32 11//11 
f 16//16 15//15 11//11 
f 22//22 16//16 11//11 
f 31//31 11//11 32//32 
f 11//11 31//31 9//9 
f 10//10 22//22 11//11 
f 39//39 2//2 1//1 
f 40//40 2//2 39//39 
f 2//2 40//40 8//8 
f 41//41 2//2 8//8 
f 8//8 40//40 42//42 
f 42//42 6//6 8//8 
f 41//41 4//4 3//3 
f 4//4 41//41 21//21 
f 19//19 21//21 20//20 
f 21//21 41//41 20//20 
f 2//2 41//41 3//3 
f 7//7 20//20 41//41 
f 7//7 41//41 8//8 
f 26//26 7//7 6//6 
f 43//43 6//6 42//42 
f 26//26 6//6 43//43 
f 43//43 42//42 44//44 
f 26//26 43//43 44//44 
f 44//44 24//24 26//26 
f 40//40 45//45 42//42 
f 44//44 42//42 46//46 
f 47//47 48//48 44//44 
f 24//24 44//44 48//48 
f 46//46 42//42 45//45 
f 3//3 49//49 1//1 
f 3//3 5//5 49//49 
f 49//49 5//5 50//50 
f 4//4 51//51 5//5 
f 5//5 51//51 52//52 
f 50//50 5//5 52//52 
f 103//103 53//53 102//102 
f 47//47 46//46 54//54 
f 55//55 47//47 54//54 
f 47//47 44//44 46//46 
f 47//47 55//55 56//56 
f 56//56 48//48 47//47 
f 48//48 56//56 57//57 
f 25//25 48//48 109//109 
f 24//24 48//48 25//25 
f 36//36 58//58 38//38 
f 59//59 58//58 36//36 
f 60//60 59//59 37//37 
f 37//37 59//59 36//36 
f 113//113 37//37 25//25 
f 109//109 113//113 25//25 
f 110//110 61//61 60//60 
f 10//10 9//9 62//62 
f 10//10 62//62 63//63 
f 63//63 62//62 104//104 
f 63//63 64//64 10//10 
f 22//22 10//10 64//64 
f 52//52 63//63 105//105 
f 64//64 63//63 52//52 
f 52//52 51//51 64//64 
f 22//22 64//64 51//51 
f 51//51 4//4 22//22 
f 13//13 28//28 17//17 
f 33//33 30//30 65//65 
f 66//66 40//40 39//39 
f 59//59 60//60 61//61 
f 67//67 66//66 68//68 
f 69//69 70//70 71//71 
f 72//72 73//73 74//74 
f 75//75 76//76 77//77 
f 78//78 75//75 72//72 
f 75//75 78//78 76//76 
f 75//75 77//77 79//79 
f 80//80 72//72 75//75 
f 80//80 75//75 79//79 
f 80//80 71//71 72//72 
f 81//81 80//80 79//79 
f 82//82 72//72 74//74 
f 78//78 72//72 82//82 
f 74//74 83//83 82//82 
f 84//84 83//83 74//74 
f 85//85 76//76 78//78 
f 82//82 85//85 78//78 
f 82//82 83//83 85//85 
f 86//86 73//73 70//70 
f 87//87 73//73 86//86 
f 35//35 87//87 86//86 
f 34//34 35//35 86//86 
f 65//65 87//87 35//35 
f 101//101 31//31 69//69 
f 88//88 74//74 73//73 
f 87//87 88//88 73//73 
f 84//84 74//74 88//88 
f 87//87 38//38 88//88 
f 38//38 87//87 65//65 
f 112//112 84//84 88//88 
f 112//112 88//88 38//38 
f 30//30 38//38 65//65 
f 71//71 70//70 72//72 
f 69//69 86//86 70//70 
f 71//71 89//89 69//69 
f 89//89 71//71 81//81 
f 80//80 81//81 71//71 
f 34//34 86//86 69//69 
f 89//89 101//101 69//69 
f 90//90 89//89 81//81 
f 91//91 39//39 1//1 
f 66//66 39//39 91//91 
f 91//91 92//92 93//93 
f 93//93 66//66 91//91 
f 45//45 40//40 66//66 
f 66//66 67//67 45//45 
f 93//93 68//68 66//66 
f 94//94 95//95 79//79 
f 77//77 96//96 94//94 
f 79//79 77//77 94//94 
f 92//92 1//1 96//96 
f 77//77 92//92 96//96 
f 93//93 92//92 77//77 
f 93//93 77//77 76//76 
f 92//92 91//91 1//1 
f 93//93 76//76 68//68 
f 85//85 68//68 76//76 
f 67//67 68//68 97//97 
f 97//97 68//68 85//85 
f 54//54 67//67 97//97 
f 85//85 83//83 97//97 
f 83//83 98//98 97//97 
f 46//46 45//45 67//67 
f 96//96 1//1 49//49 
f 49//49 94//94 96//96 
f 50//50 116//116 94//94 
f 49//49 50//50 94//94 
f 117//117 102//102 99//99 
f 102//102 53//53 99//99 
f 118//118 81//81 95//95 
f 67//67 54//54 46//46 
f 106//106 54//54 97//97 
f 107//107 106//106 98//98 
f 98//98 106//106 97//97 
f 114//114 111//111 108//108 
f 115//115 107//107 98//98 
f 100//100 112//112 59//59 
f 84//84 112//112 100//100 
f 59//59 61//61 100//100 
f 83//83 84//84 119//119 
f 98//98 119//119 115//115 
f 83//83 119//119 98//98 
f 89//89 62//62 101//101 
f 90//90 62//62 89//89 
f 104//104 62//62 90//90 
f 104//104 90//90 118//118 
f 118//118 90//90 81//81 
f 95//95 81//81 79//79 
f 72//72 70//70 73//73 
f 34//34 69//69 31//31 
f 65//65 35//35 33//33 
