v -1.51572 -64.7092 1492.46
v -1.52437 -65.0369 1493.72
v -1.76807 -64.6803 1492.97
v -2.11328 -65.311 1495.4
v -2.31215 -64.9686 1494.63
v -2.01777 -64.9043 1494.15
v -2.44574 -65.444 1496.01
v -2.65009 -65.1098 1495.19
v -2.97828 -64.4075 1492.05
v -2.76865 -64.3002 1491.88
v -3.00654 -64.5051 1492.86
v -2.7527 -64.7997 1491.49
v -2.88539 -65.0657 1492.11
v -2.50637 -64.97 1491.5
v -3.06847 -64.9577 1492.27
v -3.59217 -65.5995 1495.32
v -3.57442 -65.8385 1495.88
v -3.52891 -65.8141 1495.39
v -3.48787 -66.1185 1496.21
v -3.38672 -66.0844 1495.66
v -3.33654 -66.3813 1496.51
v -3.18299 -66.4097 1496.2
v -1.72946 -64.483 1490.74
v -1.57937 -64.7282 1491.04
v -1.54401 -64.5867 1491.1
v -1.23641 -65.19 1492.45
v -1.36623 -64.8117 1491.71
v -1.31867 -65.0494 1491.88
v -1.4318 -64.8293 1491.37
v -1.44686 -65.0867 1491.68
v -1.66041 -64.8786 1491.14
v -1.68675 -65.1736 1491.64
v -1.47523 -65.4461 1492.39
v -1.73006 -65.491 1492.34
v -1.78163 -64.3631 1490.83
v -1.56279 -64.5201 1491.34
v -1.40577 -64.7505 1492.1
v -1.65618 -64.4957 1491.81
v -3.55943 -65.6548 1495.85
v -3.50457 -65.992 1496.57
v -3.50457 -65.3238 1495.11
v -3.40723 -65.6416 1496.22
v -2.79099 -65.7751 1496.9
v -3.02528 -65.8137 1497
v -3.12013 -65.5638 1496.35
v -1.78861 -65.1517 1494.57
v -1.95651 -64.325 1490.61
v -1.97456 -64.264 1490.7
v -2.04708 -64.2267 1490.96
v -1.84537 -64.3213 1491.26
v -1.98556 -64.3814 1492.05
v -2.16498 -64.5824 1493.18
v -2.19613 -64.217 1490.72
v -2.24047 -64.2485 1491.62
v -2.33968 -64.3988 1492.55
v -2.40262 -64.2016 1491.23
v -2.65185 -64.3613 1492.41
v -2.90421 -64.793 1494.17
v -3.21902 -64.8371 1494.12
v -3.26711 -64.737 1493.53
v -3.24498 -65.1719 1495.18
v -2.95033 -65.245 1495.59
v -3.40683 -65.0366 1494.51
v -3.43037 -64.958 1493.93
v -3.54299 -65.2814 1494.48
v -3.40138 -64.914 1493.41
v -2.50902 -64.6631 1493.69
v -3.49051 -65.4256 1494.29
v -3.44811 -65.7439 1494.83
v -3.20422 -65.9477 1494.82
v -2.94902 -66.3921 1495.7
v -2.92626 -66.0192 1494.53
v -3.30505 -65.3998 1493.64
v -3.02708 -65.4465 1493.17
v -3.25857 -64.9903 1492.78
v -2.73703 -65.3611 1492.54
v -1.92698 -64.4221 1490.57
v -1.76275 -64.6057 1490.77
v -2.03647 -65.5697 1492.54
v -1.77545 -65.895 1493.44
v -1.9943 -65.1643 1491.59
v -1.8815 -64.797 1490.95
v -2.01498 -64.5541 1490.65
v -2.11566 -64.4106 1490.55
v -2.12212 -64.8274 1491.03
v -2.31325 -65.2423 1491.89
v -2.3499 -64.6465 1490.88
v -2.31126 -64.4412 1490.65
v -2.57409 -64.5394 1490.96
v -2.61105 -66.3346 1495.11
v -2.74593 -65.8818 1493.87
v -2.3705 -66.1002 1494.16
v -2.44 -65.6739 1493.02
v -2.08182 -65.9193 1493.51
v -2.14335 -64.3112 1490.55
v -2.3053 -64.2401 1490.65
v -2.4336 -64.202 1490.91
v -2.50085 -64.2612 1490.83
v -2.71913 -64.2877 1491.29
v -2.30889 -64.3155 1490.6
v -2.52529 -64.3738 1490.79
v -2.65008 -64.3181 1490.98
v -3.013 -64.5044 1491.78
v -2.78005 -64.4403 1491.2
v -2.95634 -64.6444 1491.66
v -3.40843 -65.04 1493.37
v -3.21283 -64.7313 1492.41
v -3.22834 -64.6357 1492.88
v -3.16871 -64.584 1492.35
v -1.50413 -65.7714 1493.23
v -1.18275 -65.5964 1493.97
v -1.18455 -65.367 1493.29
v -1.19937 -65.5344 1493.32
v -1.25162 -65.0657 1492.61
v -1.29466 -65.3581 1492.5
v -1.30275 -65.6708 1493.27
v -1.24165 -65.3171 1493.66
v -1.36156 -65.0213 1493.17
v -1.233 -65.6966 1494.56
v -1.32966 -65.4997 1494.51
v -1.55505 -65.5037 1495.06
v -1.37347 -65.8145 1495.28
v -1.88479 -65.6776 1496
v -1.60623 -65.9486 1496.1
v -1.84608 -66.087 1496.79
v -3.34704 -66.5096 1497.25
v -3.38443 -66.0772 1497.21
v -3.22691 -65.9138 1497.12
v -2.02164 -66.6556 1495.98
v -2.21988 -66.9451 1497.3
v -1.75584 -66.6659 1496.36
v -3.43317 -66.279 1497.24
v -3.15549 -66.6781 1497.26
v -2.93677 -66.8047 1497.26
v -2.1183 -66.012 1497.01
v -1.96396 -66.1578 1497.1
v -2.30139 -65.8841 1496.92
v -1.21691 -65.861 1494.44
v -1.60432 -66.1069 1494.19
v -1.38282 -65.9646 1494.01
v -1.24569 -65.845 1494.01
v -1.31429 -66.1222 1494.89
v -1.45214 -66.2346 1494.86
v -1.511 -66.3906 1495.44
v -1.45238 -66.3684 1495.75
v -2.06127 -66.3103 1494.75
v -1.71538 -66.4276 1495.27
v -2.73369 -66.6587 1496.32
v -2.4078 -66.7164 1496.28
v -1.2989 -66.0283 1495.19
v -1.45392 -66.2176 1496.04
v -1.58613 -66.5752 1496.54
v -2.53284 -65.799 1496.84
v -2.70375 -66.8915 1497.27
v -2.46355 -66.9393 1497.28
v -1.84572 -66.3262 1497.2
v -1.76665 -66.5147 1497.28
v -1.80672 -66.7359 1497.31
v -1.97608 -66.9024 1497.31
v -2.43782 -66.1866 1497.05
v -2.64658 -66.138 1497.04
v -2.48584 -66.0029 1496.98
v -2.38876 -66.3757 1497.12
v -2.35092 -66.5728 1497.19
v -2.56282 -66.5224 1497.17
v -2.20211 -66.2189 1497.09
v -2.30731 -66.0601 1497.01
v -2.12354 -66.7817 1497.27
v -1.9685 -66.6712 1497.26
v -2.18449 -66.4296 1497.16
v -3.12562 -66.5045 1497.21
v -2.97807 -66.3963 1497.16
v -2.95392 -66.5886 1497.21
v -1.98961 -66.4786 1497.21
v -3.21333 -66.1393 1497.16
v -3.01236 -66.2084 1497.12
v -3.18557 -66.3399 1497.19
v -2.81077 -66.27 1497.1
v -2.30448 -66.7663 1497.25
v -2.69637 -65.9544 1496.97
v -3.03452 -66.0155 1497.07
v -2.77532 -66.4624 1497.16
v -2.87915 -65.9293 1497
v -2.15228 -66.6162 1497.22
v -2.84708 -66.0863 1497.05
v -2.0335 -66.3203 1497.15
v -2.521 -66.729 1497.23
v -2.74272 -66.6688 1497.21
v -2.60306 -66.326 1497.1
v -1.72946 -64.483 1490.74
v -1.4318 -64.8293 1491.37
v -2.79099 -65.7751 1496.9
v -3.02528 -65.8137 1497
v -1.95651 -64.325 1490.61
v -1.92698 -64.4221 1490.57
v -2.14335 -64.3112 1490.55
v -2.14335 -64.3112 1490.55
v -2.3053 -64.2401 1490.65
v -2.50085 -64.2612 1490.83
v -2.30889 -64.3155 1490.6
v -2.65008 -64.3181 1490.98
v -2.78005 -64.4403 1491.2
v -3.34704 -66.5096 1497.25
v -3.38443 -66.0772 1497.21
v -3.22691 -65.9138 1497.12
v -2.21988 -66.9451 1497.3
v -3.43317 -66.279 1497.24
v -3.43317 -66.279 1497.24
v -3.15549 -66.6781 1497.26
v -2.93677 -66.8047 1497.26
v -2.1183 -66.012 1497.01
v -1.96396 -66.1578 1497.1
v -2.30139 -65.8841 1496.92
v -1.58613 -66.5752 1496.54
v -2.53284 -65.799 1496.84
v -2.70375 -66.8915 1497.27
v -2.46355 -66.9393 1497.28
v -1.84572 -66.3262 1497.2
v -1.76665 -66.5147 1497.28
v -1.80672 -66.7359 1497.31
v -1.80672 -66.7359 1497.31
v -1.97608 -66.9024 1497.31
v -1.97608 -66.9024 1497.31
vn 0.599173 0.781789 0.172618
vn 0.586766 0.772354 0.243258
vn 0.435832 0.871776 0.223734
vn 0.35308 0.871638 0.339974
vn 0.210167 0.928784 0.305271
vn 0.347887 0.893889 0.282733
vn 0.198507 0.907829 0.369381
vn 0.0649133 0.943157 0.325946
vn -0.60482 0.796123 -0.0195125
vn -0.276644 0.958287 0.0717985
vn -0.319116 0.934922 0.155199
vn -0.620316 -0.634821 -0.460664
vn -0.575437 -0.721412 -0.385275
vn -0.401138 -0.797043 -0.451454
vn -0.738462 -0.571244 -0.358266
vn -0.999743 -0.000717669 -0.022641
vn -0.98743 -0.157936 0.00616733
vn -0.880189 -0.449315 -0.152916
vn -0.882513 -0.462718 -0.0840382
vn -0.691543 -0.68931 -0.215915
vn -0.675526 -0.716939 -0.17223
vn -0.52534 -0.819402 -0.229343
vn 0.743845 -0.211597 -0.633973
vn 0.739733 -0.403202 -0.538724
vn 0.907459 0.323071 -0.268594
vn 0.990671 -0.0639874 -0.120319
vn 0.947014 0.307727 -0.0920306
vn 0.919217 -0.287825 -0.268694
vn 0.958887 0.0780402 -0.272847
vn 0.584189 -0.693418 -0.421776
vn 0.368387 -0.756237 -0.540737
vn 0.205066 -0.86985 -0.448674
vn 0.414873 -0.837755 -0.355032
vn 0.11216 -0.921511 -0.371802
vn 0.637536 0.750081 -0.175859
vn 0.719031 0.694961 -0.0047576
vn 0.766123 0.637742 0.0796308
vn 0.53324 0.83584 0.130489
vn -0.912549 0.368425 0.177533
vn -0.987558 0.0776432 0.136747
vn -0.793172 0.58324 0.175241
vn -0.620309 0.723283 0.303444
vn 0.0510796 0.925653 0.37491
vn -0.112436 0.922372 0.369579
vn -0.212651 0.909878 0.356233
vn 0.468978 0.831982 0.296421
vn 0.583742 0.544155 -0.602612
vn 0.364701 0.894866 -0.25731
vn 0.266404 0.963773 0.0130846
vn 0.431143 0.899347 0.0727417
vn 0.32283 0.930143 0.174972
vn 0.2497 0.937076 0.244006
vn 0.0933491 0.962126 -0.256125
vn 0.153344 0.979576 0.13006
vn 0.12757 0.970578 0.204218
vn -0.0489958 0.997604 0.0488412
vn -0.0515846 0.982306 0.180041
vn -0.0933777 0.959407 0.26612
vn -0.319825 0.918359 0.233088
vn -0.56515 0.814171 0.133162
vn -0.349473 0.886951 0.301972
vn -0.0817004 0.938059 0.336705
vn -0.60785 0.768643 0.199263
vn -0.842911 0.534945 0.0577498
vn -0.98852 0.144954 -0.0426177
vn -0.955091 0.284107 -0.0841705
vn 0.0671832 0.963282 0.25995
vn -0.910054 -0.363144 -0.199818
vn -0.751803 -0.615576 -0.236343
vn -0.56727 -0.77632 -0.27483
vn -0.424414 -0.867101 -0.260783
vn -0.447522 -0.845447 -0.29145
vn -0.725669 -0.62287 -0.292296
vn -0.569587 -0.757035 -0.320107
vn -0.868395 -0.395677 -0.298881
vn -0.419939 -0.830753 -0.365378
vn 0.378241 0.29161 -0.878577
vn 0.411908 -0.581858 -0.701265
vn -0.0879586 -0.926602 -0.365611
vn 0.0753804 -0.944465 -0.319848
vn -0.0597137 -0.893455 -0.445165
vn 0.0762139 -0.817647 -0.570653
vn -0.0542057 -0.703517 -0.708608
vn -0.157001 -0.330523 -0.930648
vn -0.196455 -0.824737 -0.530297
vn -0.257859 -0.874115 -0.411621
vn -0.385835 -0.722442 -0.573767
vn -0.444181 -0.519759 -0.729763
vn -0.658696 -0.507592 -0.555401
vn -0.261622 -0.922508 -0.283782
vn -0.378684 -0.870614 -0.314054
vn -0.194896 -0.93201 -0.305569
vn -0.253858 -0.902883 -0.346927
vn -0.0850754 -0.942362 -0.3236
vn 0.138724 0.878335 -0.457475
vn -0.133986 0.930677 -0.340424
vn -0.245417 0.958678 -0.143898
vn -0.471605 0.848913 -0.23861
vn -0.579083 0.803744 -0.136595
vn -0.436272 -0.211481 -0.87461
vn -0.744498 -0.0800902 -0.662803
vn -0.802819 0.132587 -0.581293
vn -0.909217 0.323281 -0.262324
vn -0.833958 0.489648 -0.254478
vn -0.853219 -0.331744 -0.402446
vn -0.974285 -0.119667 -0.190915
vn -0.968083 -0.0163712 -0.250095
vn -0.714866 0.698564 0.0312191
vn -0.88112 0.458656 -0.115158
vn 0.318565 -0.895421 -0.311028
vn 0.995475 0.0799308 0.0513913
vn 0.990447 0.137577 0.00928751
vn 0.940748 -0.317011 -0.120401
vn 0.916782 0.397189 0.0418428
vn 0.762987 -0.584402 -0.276271
vn 0.643924 -0.720663 -0.256916
vn 0.877366 0.457742 0.143881
vn 0.737608 0.653024 0.171737
vn 0.948868 0.266739 0.168819
vn 0.754318 0.610519 0.241394
vn 0.624508 0.718749 0.305596
vn 0.853439 0.444094 0.272803
vn 0.493796 0.79459 0.353259
vn 0.732861 0.590484 0.338
vn 0.647114 0.672475 0.359195
vn -0.864675 -0.497744 -0.0677364
vn -0.821148 0.504852 0.266159
vn -0.400415 0.844734 0.355095
vn 0.0955547 -0.968958 -0.228012
vn 0.0940133 -0.974421 -0.204122
vn 0.430566 -0.893413 -0.128161
vn -0.934862 -0.351377 -0.0506632
vn -0.562617 -0.807206 -0.178552
vn -0.419123 -0.881185 -0.218746
vn 0.479489 0.795226 0.371088
vn 0.575316 0.723712 0.38112
vn 0.330241 0.865313 0.37706
vn 0.978039 -0.208299 0.00720979
vn 0.22973 -0.933376 -0.275741
vn 0.530787 -0.814125 -0.235511
vn 0.807076 -0.570298 -0.152931
vn 0.802964 -0.590202 -0.0831226
vn 0.468329 -0.858585 -0.208563
vn 0.542171 -0.828526 -0.139983
vn 0.843351 -0.537344 0.00453251
vn -0.0209919 -0.958951 -0.282793
vn 0.231492 -0.944554 -0.232873
vn -0.298051 -0.922714 -0.244466
vn -0.113762 -0.96284 -0.244945
vn 0.98891 -0.064315 0.133869
vn 0.967372 0.105256 0.230462
vn 0.972162 -0.122943 0.199463
vn 0.183715 0.897749 0.40037
vn -0.237135 -0.945653 -0.222501
vn -0.0935078 -0.970605 -0.221771
vn 0.743824 0.577563 0.336374
vn 0.914335 0.269537 0.302228
vn 0.959178 -0.14043 0.245472
vn 0.176851 -0.963914 -0.198983
vn -0.034335 0.351461 0.935573
vn 0.0766025 0.342303 0.936462
vn 0.00617149 0.447722 0.894152
vn -0.0567789 0.323976 0.94436
vn -0.0562429 0.295362 0.953728
vn 0.00312086 0.298915 0.954275
vn -0.119187 0.352193 0.928307
vn -0.0754047 0.411603 0.908238
vn -0.0945951 0.241655 0.96574
vn -0.176575 0.219679 0.959459
vn -0.128325 0.29925 0.945506
vn 0.156539 0.226707 0.961301
vn 0.14607 0.250131 0.95713
vn 0.108562 0.249376 0.962302
vn -0.201061 0.272435 0.940932
vn 0.290682 0.17709 0.940289
vn 0.213504 0.247062 0.945186
vn 0.21278 0.180816 0.960224
vn 0.12247 0.293088 0.948209
vn -0.0700224 0.254108 0.964638
vn 0.156157 0.430397 0.889029
vn 0.278215 0.276769 0.91978
vn 0.072222 0.286596 0.955325
vn 0.235881 0.363739 0.90114
vn -0.115745 0.270494 0.955739
vn 0.178747 0.317147 0.931379
vn -0.177561 0.322664 0.92971
vn -0.0223519 0.257506 0.966018
vn 0.0389734 0.253971 0.966426
vn 0.0364592 0.327612 0.944109
vn 0.727829 0.518306 -0.449026
vn 0.702391 -0.565379 -0.432427
vn 0.250175 0.432214 0.866374
vn 0.311141 0.328536 0.891771
vn 0.159355 0.85695 -0.490145
vn 0.295844 -0.500095 -0.813868
vn 0.039573 0.125028 -0.991364
vn -0.266313 0.541825 -0.797184
vn -0.451204 0.508346 -0.733484
vn -0.675098 0.379049 -0.632902
vn -0.530056 0.456509 -0.714591
vn -0.701285 0.677791 -0.220902
vn -0.839856 -0.223383 -0.494713
vn 0.188379 0.184656 0.964581
vn 0.319949 0.126581 0.938941
vn 0.352043 0.218904 0.910026
vn -0.080332 0.230482 0.969755
vn -0.942653 0.259007 0.210526
vn 0.255363 0.123575 0.958915
vn 0.14239 0.245083 0.958989
vn 0.0926208 0.243879 0.965373
vn -0.119478 0.418621 0.900267
vn -0.162105 0.373179 0.913488
vn -0.0711098 0.48564 0.871262
vn 0.532814 -0.842637 -0.0779174
vn 0.0846725 0.529986 0.843768
vn 0.0162582 0.251603 0.967694
vn -0.0402778 0.229116 0.972565
vn -0.228037 0.321266 0.919123
vn -0.242292 0.231224 0.942247
vn 0.605835 -0.79516 -0.0261719
vn -0.216194 0.191053 0.957475
vn 0.700973 -0.713029 -0.0150222
vn -0.12629 0.216176 0.968152
g grp1
usemtl mtl1
f 3//3 2//2 1//1 
f 6//6 5//5 4//4 
f 8//8 7//7 5//5 
f 11//11 10//10 9//9 
f 14//14 13//13 12//12 
f 15//15 12//12 13//13 
f 18//18 17//17 16//16 
f 18//18 19//19 17//17 
f 20//20 19//19 18//18 
f 21//21 19//19 20//20 
f 22//22 21//21 20//20 
f 25//25 24//24 23//23 
f 28//28 27//27 26//26 
f 28//28 29//29 27//27 
f 29//29 24//24 25//25 
f 28//28 30//30 191//191 
f 31//31 24//24 30//30 
f 30//30 24//24 191//191 
f 30//30 32//32 31//31 
f 33//33 32//32 30//30 
f 33//33 34//34 32//32 
f 35//35 25//25 190//190 
f 36//36 25//25 35//35 
f 29//29 25//25 27//27 
f 36//36 27//27 25//25 
f 36//36 37//37 27//27 
f 38//38 37//37 36//36 
f 38//38 1//1 37//37 
f 1//1 38//38 3//3 
f 17//17 39//39 16//16 
f 39//39 17//17 40//40 
f 39//39 42//42 41//41 
f 45//45 44//44 43//43 
f 46//46 3//3 6//6 
f 47//47 35//35 190//190 
f 48//48 35//35 47//47 
f 50//50 35//35 49//49 
f 49//49 35//35 48//48 
f 36//36 50//50 38//38 
f 35//35 50//50 36//36 
f 51//51 38//38 50//50 
f 51//51 3//3 38//38 
f 52//52 3//3 51//51 
f 53//53 49//49 48//48 
f 54//54 50//50 49//49 
f 54//54 51//51 50//50 
f 55//55 52//52 51//51 
f 54//54 55//55 51//51 
f 56//56 54//54 49//49 
f 54//54 57//57 55//55 
f 56//56 57//57 54//54 
f 10//10 57//57 56//56 
f 59//59 58//58 11//11 
f 60//60 59//59 11//11 
f 62//62 58//58 61//61 
f 61//61 58//58 59//59 
f 61//61 45//45 62//62 
f 63//63 59//59 60//60 
f 61//61 59//59 63//63 
f 61//61 42//42 45//45 
f 64//64 63//63 60//60 
f 41//41 61//61 63//63 
f 41//41 42//42 61//61 
f 64//64 41//41 63//63 
f 65//65 41//41 64//64 
f 65//65 64//64 66//66 
f 65//65 16//16 41//41 
f 11//11 57//57 10//10 
f 57//57 11//11 58//58 
f 67//67 57//57 58//58 
f 67//67 55//55 57//57 
f 52//52 55//55 67//67 
f 5//5 6//6 52//52 
f 5//5 52//52 67//67 
f 58//58 8//8 67//67 
f 67//67 8//8 5//5 
f 62//62 8//8 58//58 
f 68//68 18//18 16//16 
f 65//65 68//68 16//16 
f 18//18 69//69 20//20 
f 69//69 18//18 68//68 
f 69//69 70//70 20//20 
f 72//72 71//71 70//70 
f 22//22 70//70 71//71 
f 20//20 70//70 22//22 
f 73//73 69//69 68//68 
f 73//73 70//70 69//69 
f 70//70 74//74 72//72 
f 75//75 73//73 68//68 
f 73//73 74//74 70//70 
f 74//74 73//73 15//15 
f 15//15 73//73 75//75 
f 74//74 13//13 76//76 
f 13//13 74//74 15//15 
f 190//190 77//77 47//47 
f 78//78 195//195 23//23 
f 80//80 79//79 34//34 
f 34//34 79//79 81//81 
f 81//81 32//32 34//34 
f 82//82 31//31 32//32 
f 82//82 32//32 81//81 
f 24//24 31//31 78//78 
f 82//82 78//78 31//31 
f 83//83 78//78 82//82 
f 83//83 195//195 78//78 
f 83//83 84//84 195//195 
f 86//86 85//85 81//81 
f 83//83 82//82 85//85 
f 85//85 87//87 83//83 
f 87//87 88//88 83//83 
f 84//84 83//83 88//88 
f 14//14 85//85 86//86 
f 87//87 85//85 14//14 
f 12//12 89//89 87//87 
f 14//14 12//12 87//87 
f 72//72 90//90 71//71 
f 91//91 90//90 72//72 
f 91//91 92//92 90//90 
f 94//94 92//92 93//93 
f 93//93 79//79 94//94 
f 86//86 79//79 93//93 
f 74//74 91//91 72//72 
f 74//74 76//76 91//91 
f 76//76 86//86 93//93 
f 91//91 76//76 93//93 
f 76//76 14//14 86//86 
f 13//13 14//14 76//76 
f 53//53 48//48 194//194 
f 95//95 53//53 194//194 
f 96//96 53//53 95//95 
f 97//97 53//53 96//96 
f 98//98 97//97 96//96 
f 97//97 56//56 53//53 
f 49//49 53//53 56//56 
f 99//99 56//56 97//97 
f 99//99 97//97 98//98 
f 99//99 10//10 56//56 
f 99//99 9//9 10//10 
f 77//77 196//196 47//47 
f 84//84 196//196 77//77 
f 84//84 100//100 196//196 
f 88//88 100//100 84//84 
f 199//199 198//198 200//200 
f 101//101 199//199 200//200 
f 197//197 200//200 198//198 
f 102//102 199//199 101//101 
f 201//201 99//99 98//98 
f 104//104 103//103 99//99 
f 201//201 104//104 99//99 
f 87//87 89//89 88//88 
f 89//89 101//101 88//88 
f 202//202 101//101 89//89 
f 101//101 202//202 102//102 
f 89//89 105//105 202//202 
f 12//12 105//105 89//89 
f 106//106 68//68 65//65 
f 66//66 106//106 65//65 
f 68//68 106//106 75//75 
f 15//15 105//105 12//12 
f 75//75 105//105 15//15 
f 66//66 107//107 106//106 
f 106//106 107//107 75//75 
f 103//103 105//105 107//107 
f 107//107 105//105 75//75 
f 105//105 103//103 202//202 
f 108//108 66//66 64//64 
f 60//60 108//108 64//64 
f 66//66 109//109 107//107 
f 109//109 66//66 108//108 
f 109//109 9//9 103//103 
f 108//108 9//9 109//109 
f 11//11 108//108 60//60 
f 11//11 9//9 108//108 
f 107//107 109//109 103//103 
f 100//100 88//88 101//101 
f 9//9 99//99 103//103 
f 79//79 86//86 81//81 
f 91//91 93//93 92//92 
f 81//81 85//85 82//82 
f 6//6 3//3 52//52 
f 40//40 42//42 39//39 
f 16//16 39//39 41//41 
f 23//23 24//24 78//78 
f 17//17 19//19 40//40 
f 46//46 2//2 3//3 
f 80//80 94//94 79//79 
f 34//34 110//110 80//80 
f 113//113 112//112 111//111 
f 26//26 114//114 112//112 
f 113//113 26//26 112//112 
f 28//28 115//115 30//30 
f 26//26 115//115 28//28 
f 115//115 113//113 116//116 
f 115//115 26//26 113//113 
f 116//116 33//33 115//115 
f 33//33 116//116 110//110 
f 112//112 117//117 111//111 
f 27//27 114//114 26//26 
f 117//117 112//112 114//114 
f 118//118 117//117 114//114 
f 114//114 37//37 118//118 
f 27//27 37//37 114//114 
f 118//118 1//1 2//2 
f 1//1 118//118 37//37 
f 117//117 119//119 111//111 
f 117//117 120//120 119//119 
f 118//118 2//2 120//120 
f 118//118 120//120 117//117 
f 2//2 121//121 120//120 
f 2//2 46//46 121//121 
f 120//120 122//122 119//119 
f 120//120 121//121 122//122 
f 123//123 121//121 46//46 
f 46//46 4//4 123//123 
f 121//121 124//124 122//122 
f 121//121 123//123 124//124 
f 123//123 125//125 124//124 
f 126//126 40//40 19//19 
f 21//21 126//126 19//19 
f 42//42 40//40 127//127 
f 128//128 42//42 127//127 
f 128//128 45//45 42//42 
f 128//128 44//44 45//45 
f 43//43 62//62 45//45 
f 8//8 43//43 7//7 
f 62//62 43//43 8//8 
f 131//131 130//130 129//129 
f 126//126 132//132 40//40 
f 21//21 133//133 126//126 
f 133//133 22//22 134//134 
f 6//6 4//4 46//46 
f 5//5 7//7 4//4 
f 21//21 22//22 133//133 
f 71//71 134//134 22//22 
f 207//207 127//127 40//40 
f 136//136 125//125 135//135 
f 135//135 125//125 123//123 
f 137//137 135//135 123//123 
f 138//138 113//113 111//111 
f 110//110 139//139 80//80 
f 110//110 140//140 139//139 
f 140//140 110//110 116//116 
f 116//116 141//141 140//140 
f 141//141 116//116 113//113 
f 141//141 113//113 138//138 
f 142//142 141//141 138//138 
f 140//140 143//143 139//139 
f 142//142 140//140 141//141 
f 140//140 142//142 143//143 
f 142//142 144//144 143//143 
f 144//144 142//142 145//145 
f 139//139 147//147 146//146 
f 144//144 147//147 143//143 
f 144//144 131//131 147//147 
f 131//131 129//129 147//147 
f 71//71 90//90 148//148 
f 92//92 94//94 146//146 
f 139//139 146//146 80//80 
f 80//80 146//146 94//94 
f 90//90 149//149 148//148 
f 146//146 90//90 92//92 
f 146//146 149//149 90//90 
f 147//147 129//129 146//146 
f 146//146 129//129 149//149 
f 138//138 111//111 119//119 
f 119//119 150//150 138//138 
f 122//122 150//150 119//119 
f 122//122 151//151 150//150 
f 124//124 151//151 122//122 
f 150//150 142//142 138//138 
f 150//150 151//151 145//145 
f 151//151 152//152 145//145 
f 145//145 142//142 150//150 
f 131//131 145//145 214//214 
f 145//145 131//131 144//144 
f 4//4 137//137 123//123 
f 7//7 137//137 4//4 
f 7//7 153//153 137//137 
f 43//43 153//153 7//7 
f 148//148 134//134 71//71 
f 134//134 148//148 154//154 
f 154//154 148//148 149//149 
f 149//149 155//155 154//154 
f 130//130 155//155 149//149 
f 129//129 130//130 149//149 
f 156//156 125//125 136//136 
f 156//156 157//157 125//125 
f 125//125 157//157 124//124 
f 151//151 157//157 152//152 
f 124//124 157//157 151//151 
f 152//152 157//157 158//158 
f 143//143 147//147 139//139 
f 220//220 131//131 214//214 
f 159//159 130//130 131//131 
f 131//131 220//220 222//222 
f 34//34 33//33 110//110 
f 33//33 30//30 115//115 
f 162//162 161//161 160//160 
f 165//165 164//164 163//163 
f 166//166 212//212 211//211 
f 211//211 167//167 166//166 
f 223//223 169//169 168//168 
f 170//170 163//163 164//164 
f 173//173 172//172 171//171 
f 169//169 219//219 174//174 
f 177//177 176//176 175//175 
f 176//176 172//172 178//178 
f 213//213 167//167 211//211 
f 168//168 179//179 206//206 
f 179//179 217//217 206//206 
f 174//174 219//219 218//218 
f 161//161 162//162 180//180 
f 175//175 181//181 205//205 
f 182//182 178//178 172//172 
f 183//183 193//193 181//181 
f 184//184 174//174 170//170 
f 181//181 185//185 183//183 
f 169//169 223//223 221//221 
f 215//215 180//180 162//162 
f 185//185 161//161 180//180 
f 171//171 172//172 177//177 
f 218//218 186//186 174//174 
f 171//171 203//203 209//209 
f 168//168 169//169 184//184 
f 187//187 216//216 217//217 
f 210//210 188//188 173//173 
f 160//160 166//166 167//167 
f 160//160 161//161 189//189 
f 192//192 183//183 180//180 
f 166//166 160//160 163//163 
f 175//175 205//205 204//204 
f 203//203 171//171 177//177 
f 215//215 162//162 213//213 
f 187//187 164//164 165//165 
f 188//188 210//210 216//216 
f 177//177 208//208 203//203 
f 185//185 181//181 176//176 
f 186//186 218//218 212//212 
f 176//176 177//177 172//172 
f 162//162 160//160 167//167 
f 217//217 179//179 187//187 
f 209//209 173//173 171//171 
f 189//189 161//161 178//178 
f 181//181 175//175 176//176 
f 216//216 187//187 188//188 
f 210//210 173//173 209//209 
f 161//161 185//185 178//178 
f 219//219 169//169 221//221 
f 188//188 165//165 182//182 
f 164//164 187//187 179//179 
f 165//165 189//189 182//182 
f 181//181 193//193 205//205 
f 165//165 188//188 187//187 
f 170//170 164//164 184//184 
f 180//180 215//215 192//192 
f 186//186 170//170 174//174 
f 212//212 166//166 186//186 
f 182//182 189//189 178//178 
f 193//193 183//183 192//192 
f 184//184 179//179 168//168 
f 163//163 189//189 165//165 
f 173//173 182//182 172//172 
f 174//174 184//184 169//169 
f 164//164 179//179 184//184 
f 167//167 213//213 162//162 
f 208//208 177//177 175//175 
f 223//223 168//168 206//206 
f 208//208 175//175 204//204 
f 178//178 185//185 176//176 
f 166//166 163//163 170//170 
f 182//182 173//173 188//188 
f 183//183 185//185 180//180 
f 189//189 163//163 160//160 
f 170//170 186//186 166//166 
