v -41.384 -70.4767 1362.8
v -41.8901 -70.2442 1362.27
v -42.4901 -70.2442 1362.71
v -42.0756 -70.2937 1363.05
v -42.3146 -70.1448 1363.14
v -41.0063 -70.1755 1364.78
v -42.2777 -70.0332 1363.32
v -42.1287 -69.7276 1363.53
v -41.5033 -69.4596 1364.16
v -41.001 -69.8442 1364.99
v -40.5935 -70.0511 1365.6
v -40.2993 -70.2643 1365.72
v -39.0901 -70.2442 1367.94
v -39.4901 -69.8442 1367.22
v -38.8448 -69.8365 1367.88
v -37.4901 -69.8442 1369.77
v -38.1033 -70.6269 1368.84
v -39.6901 -70.6582 1365.19
v -38.6901 -70.7863 1363.39
v -36.4901 -71.3692 1371.59
v -34.6901 -72.2738 1372.99
v -34.0028 -72.3338 1377.85
v -33.0901 -72.6249 1378.79
v -32.1162 -71.7288 1376.43
v -34.2753 -70.1934 1368.16
v -31.8515 -70.9067 1373.9
v -32.6059 -68.8951 1366.9
v -32.2323 -68.2442 1365.79
v -32.6901 -67.6441 1364.08
v -32.0002 -68.3501 1369.31
v -32.4199 -67.3605 1367.06
v -32.8901 -67.4687 1364.19
v -33.2901 -67.5363 1364.19
v -33.3515 -67.8442 1364.19
v -35.0374 -68.154 1362.71
v -35.8901 -68.2459 1361.99
v -35.9634 -68.4442 1362.19
v -35.9041 -69.6797 1364.07
v -36.1139 -70.7578 1366.1
v -36.9488 -70.6128 1364.15
v -36.2901 -70.2442 1363.79
v -36.8901 -69.0532 1361.59
v -37.205 -68.9767 1361.56
v -37.0901 -69.2442 1360.91
v -37.1006 -69.755 1361.9
v -37.9974 -70.2122 1362.17
v -40.0596 -70.4653 1361.25
v -40.4901 -70.4442 1361.03
v -37.5257 -69.2442 1360.99
v -36.1032 -68.2442 1362.39
v -41.0901 -70.4796 1361.39
v -41.2901 -70.6832 1361.59
v -40.4065 -70.6812 1361.61
v -40.8901 -70.6441 1361.11
v -42.0901 -69.4051 1363.39
v -42.2477 -69.9779 1362.69
v -42.6092 -70.0442 1362.79
v -39.8961 -68.2442 1364.99
v -39.5079 -67.8442 1365.39
v -39.2893 -67.8797 1365.21
v -39.2434 -68.2602 1364.72
v -39.0643 -68.0273 1365.2
v -38.3824 -67.9843 1365.35
v -39.0258 -67.9478 1365.39
v -38.922 -67.9151 1365.71
v -39.2901 -68.0442 1366.06
v -38.2813 -68.13 1367
v -38.8449 -68.5329 1366.97
v -39.0901 -69.4442 1367.05
v -38.316 -69.0198 1368.57
v -38.0434 -69.4813 1369.09
v -39.7672 -69.706 1366.51
v -37.0193 -69.8776 1371.03
v -36.6553 -70.8217 1371.61
v -34.7882 -71.5782 1376.51
v -33.8106 -72.2852 1379.03
v -33.4715 -72.4442 1379.59
v -33.0052 -72.3714 1378.98
v -32.268 -71.8244 1378.29
v -31.2901 -71.2442 1378
v -32.0724 -71.16 1378.86
v -32.8901 -71.2442 1379.71
v -31.8901 -70.6441 1379
v -31.4668 -70.5846 1377.12
v -31.1573 -71.2442 1377.59
v -31.5581 -70.5342 1373.92
v -31.8667 -69.9532 1376.45
v -32.7433 -67.6509 1369.63
v -33.2495 -67.2314 1368.11
v -34.3287 -67.5487 1367.12
v -33.5208 -67.5598 1365
v -36.0626 -67.6152 1367.28
v -36.596 -67.6655 1366.66
v -37.1166 -67.7528 1366.66
v -36.7917 -67.8597 1367.85
v -35.1935 -69.0442 1372.39
v -37.5798 -69.0398 1369.8
v -37.4672 -69.4514 1370.6
v -36.5373 -69.9264 1372.03
v -35.0613 -70.0917 1374.6
v -34.2495 -70.5246 1376.68
v -33.9099 -71.2664 1378.28
v -33.8497 -71.7182 1379.07
v -33.55 -71.2062 1378.98
v -33.5852 -71.6335 1379.52
v -33.2901 -71.4846 1379.7
v -33.6901 -72.0225 1379.79
v -33.4901 -72.0828 1379.79
v -33.1706 -72.2198 1379.3
v -33.0901 -71.4442 1379.69
v -32.8901 -71.0442 1379.67
v -32.5922 -69.7948 1376.64
v -33.6901 -70.4442 1378.07
v -34.2011 -67.4405 1369.79
v -34.9861 -67.5056 1369.34
v -34.9498 -67.2066 1368.44
v -35.9767 -67.788 1368.61
v -36.6219 -67.6247 1367.43
v -35.5365 -67.486 1368.02
v -35.1944 -67.4917 1367.8
v -34.8842 -67.3843 1368.01
v -34.6728 -67.1572 1368.27
v -34.6506 -67.4373 1367.82
v -34.5153 -67.2414 1368.02
v -34.3233 -67.1461 1368.05
v -34.2952 -67.401 1367.65
v -33.9373 -67.2528 1367.93
v -33.8614 -67.0839 1368.58
v -34.5609 -67.0997 1368.59
v -35.7902 -69.5812 1372.85
v -41.8901 -70.2442 1362.27
v -41.8901 -70.2442 1362.27
v -41.8901 -70.2442 1362.27
v -42.4901 -70.2442 1362.71
v -41.001 -69.8442 1364.99
v -39.0901 -70.2442 1367.94
v -39.0901 -70.2442 1367.94
v -37.4901 -69.8442 1369.77
v -37.4901 -69.8442 1369.77
v -36.4901 -71.3692 1371.59
v -34.6901 -72.2738 1372.99
v -33.0901 -72.6249 1378.79
v -32.2323 -68.2442 1365.79
v -32.6901 -67.6441 1364.08
v -32.6901 -67.6441 1364.08
v -32.6901 -67.6441 1364.08
v -32.0002 -68.3501 1369.31
v -32.4199 -67.3605 1367.06
v -32.4199 -67.3605 1367.06
v -32.4199 -67.3605 1367.06
v -32.8901 -67.4687 1364.19
v -32.8901 -67.4687 1364.19
v -33.2901 -67.5363 1364.19
v -33.2901 -67.5363 1364.19
v -33.3515 -67.8442 1364.19
v -33.3515 -67.8442 1364.19
v -35.0374 -68.154 1362.71
v -35.8901 -68.2459 1361.99
v -35.8901 -68.2459 1361.99
v -35.8901 -68.2459 1361.99
v -35.9634 -68.4442 1362.19
v -35.9634 -68.4442 1362.19
v -36.2901 -70.2442 1363.79
v -36.2901 -70.2442 1363.79
v -36.8901 -69.0532 1361.59
v -36.8901 -69.0532 1361.59
v -36.8901 -69.0532 1361.59
v -37.205 -68.9767 1361.56
v -37.0901 -69.2442 1360.91
v -37.0901 -69.2442 1360.91
v -37.0901 -69.2442 1360.91
v -40.4901 -70.4442 1361.03
v -40.4901 -70.4442 1361.03
v -37.5257 -69.2442 1360.99
v -36.1032 -68.2442 1362.39
v -36.1032 -68.2442 1362.39
v -41.0901 -70.4796 1361.39
v -41.2901 -70.6832 1361.59
v -40.8901 -70.6441 1361.11
v -40.8901 -70.6441 1361.11
v -42.0901 -69.4051 1363.39
v -42.6092 -70.0442 1362.79
v -42.6092 -70.0442 1362.79
v -42.6092 -70.0442 1362.79
v -39.8961 -68.2442 1364.99
v -39.5079 -67.8442 1365.39
v -39.5079 -67.8442 1365.39
v -39.2893 -67.8797 1365.21
v -39.2901 -68.0442 1366.06
v -38.316 -69.0198 1368.57
v -34.7882 -71.5782 1376.51
v -33.4715 -72.4442 1379.59
v -33.4715 -72.4442 1379.59
v -31.2901 -71.2442 1378
v -31.2901 -71.2442 1378
v -32.8901 -71.2442 1379.71
v -32.8901 -71.2442 1379.71
v -31.8901 -70.6441 1379
v -31.8901 -70.6441 1379
v -31.8901 -70.6441 1379
v -31.1573 -71.2442 1377.59
v -31.1573 -71.2442 1377.59
v -31.5581 -70.5342 1373.92
v -37.4672 -69.4514 1370.6
v -37.4672 -69.4514 1370.6
v -36.5373 -69.9264 1372.03
v -33.2901 -71.4846 1379.7
v -33.6901 -72.0225 1379.79
v -33.6901 -72.0225 1379.79
v -33.6901 -72.0225 1379.79
v -33.4901 -72.0828 1379.79
v -33.4901 -72.0828 1379.79
v -33.0901 -71.4442 1379.69
v -32.8901 -71.0442 1379.67
v -32.8901 -71.0442 1379.67
v -32.8901 -71.0442 1379.67
v -33.6901 -70.4442 1378.07
vn -0.254498 -0.963894 0.0783465
vn -0.353567 -0.932657 -0.0716967
vn -0.398093 -0.900846 0.173201
vn -0.304493 -0.920423 0.245165
vn -0.589679 -0.688237 0.422621
vn -0.656723 -0.602312 0.453801
vn -0.773953 -0.294224 0.56074
vn -0.798367 0.135856 0.586646
vn -0.767149 0.240848 0.594537
vn -0.857201 -0.173517 0.484869
vn -0.808066 -0.309105 0.501481
vn -0.524264 -0.794616 0.306158
vn -0.525071 -0.805927 0.273464
vn -0.689918 0.506162 0.517507
vn -0.631115 0.571923 0.52402
vn -0.679964 0.544782 0.490775
vn -0.812372 -0.354164 0.463271
vn -0.422163 -0.88774 0.183564
vn -0.000165659 -0.995004 -0.0998363
vn -0.386827 -0.921492 0.0348885
vn -0.438703 -0.896962 0.0547585
vn -0.600605 -0.789913 0.123735
vn -0.342042 -0.93878 0.0412261
vn 0.507465 -0.854256 -0.112811
vn 0.482168 -0.804214 -0.347496
vn 0.591423 -0.767538 -0.247192
vn 0.420912 -0.840876 -0.340236
vn 0.560242 -0.767994 -0.310344
vn 0.29589 -0.859481 -0.416823
vn 0.978786 0.187007 -0.0837009
vn 0.978832 0.175414 -0.105443
vn 0.612502 0.77975 -0.129739
vn -0.129625 0.255924 -0.957967
vn -0.174156 0.0347302 -0.984105
vn 0.478508 -0.773622 -0.415378
vn 0.640483 0.0320915 -0.767302
vn 0.666065 -0.617908 -0.417787
vn 0.776166 -0.554421 -0.300307
vn 0.491481 -0.83512 -0.247023
vn 0.269992 -0.927854 -0.257277
vn 0.372895 -0.864421 -0.337232
vn 0.677421 -0.55357 -0.484418
vn 0.123882 0.62379 -0.771712
vn 0.0915028 0.926498 -0.365004
vn 0.365822 -0.838733 -0.403362
vn 0.280797 -0.890835 -0.357163
vn 0.266723 -0.854441 -0.445858
vn 0.260458 -0.773353 -0.578003
vn -0.166856 0.381861 -0.909033
vn -0.185396 0.952262 -0.242539
vn -0.343304 0.776992 -0.52766
vn -0.75026 0.0943489 -0.654376
vn 0.153747 -0.964787 -0.213418
vn 0.179419 -0.924777 -0.335553
vn -0.214895 0.833477 -0.509055
vn -0.249206 0.741464 -0.622999
vn -0.307162 0.716647 -0.626154
vn -0.719954 0.514306 0.466
vn -0.790014 0.527186 0.312975
vn -0.259521 0.781762 -0.567007
vn -0.0505004 0.89645 -0.440258
vn 0.253332 0.850949 -0.460118
vn -0.0137173 0.968544 -0.248465
vn 0.238122 0.926055 -0.292779
vn 0.0234424 0.99897 0.0388567
vn -0.0894044 0.960591 0.263195
vn -0.388938 0.851114 0.352607
vn -0.711324 0.498439 0.495557
vn -0.780161 0.376177 0.499839
vn -0.914589 0.0408645 0.402316
vn -0.854597 -0.366154 0.368234
vn -0.568109 0.728022 0.383713
vn -0.854873 -0.382219 0.350859
vn -0.912587 -0.118169 0.391435
vn -0.902392 -0.331714 0.275053
vn -0.787994 -0.575619 0.218468
vn -0.59035 -0.789448 0.168106
vn 0.749697 -0.448648 0.486487
vn 0.695342 -0.579899 0.424519
vn 0.426915 -0.902683 0.0539255
vn 0.623226 -0.520322 0.583827
vn 0.622971 -0.556089 0.550157
vn 0.668069 -0.403541 0.625171
vn 0.808325 0.563676 0.169939
vn 0.841685 0.513889 0.165786
vn 0.771874 -0.597934 -0.216069
vn 0.573472 0.793455 0.203861
vn 0.399062 0.89041 0.218906
vn 0.139526 0.983957 -0.111184
vn -0.103243 0.977046 -0.186337
vn -0.166098 0.985422 -0.0368195
vn -0.0797591 0.995784 -0.0453039
vn -0.0769648 0.992198 -0.0980837
vn -0.209639 0.977565 0.0204463
vn -0.398882 0.870567 0.288107
vn -0.44945 0.810653 0.375282
vn -0.53585 0.741289 0.404173
vn -0.606712 0.669211 0.429019
vn -0.898387 -0.203871 0.389022
vn -0.682874 0.588686 0.432587
vn -0.821288 0.433139 0.371317
vn -0.816753 0.454369 0.355617
vn -0.81182 0.465225 0.352866
vn -0.751866 0.508251 0.419975
vn -0.706236 0.552212 0.443049
vn -0.624004 0.604347 0.495362
vn -0.775578 0.460818 0.431423
vn 0.0436213 0.126562 0.990999
vn 0.76706 -0.304115 0.564918
vn 0.672239 -0.513876 0.532942
vn -0.12909 0.194083 0.972454
vn -0.00465779 0.945175 0.326531
vn -0.12472 0.935648 0.330162
vn -0.144326 0.928664 0.341692
vn -0.37508 0.863227 0.337868
vn -0.320418 0.946898 -0.0267818
vn -0.382314 0.89066 0.24609
vn -0.233616 0.965026 0.118948
vn -0.302664 0.95134 -0.0578453
vn -0.0928165 0.961258 -0.259555
vn -0.194268 0.886518 -0.419935
vn -0.289847 0.886282 -0.361239
vn -0.238269 0.874541 -0.422382
vn -0.340465 0.790062 -0.509789
vn -0.127477 0.91399 -0.38519
vn -0.173132 0.900305 -0.399344
vn 0.0305872 0.940024 -0.339735
vn 0.117401 0.992814 0.0231849
vn -0.157505 0.985534 0.0625725
vn -0.597028 0.647141 0.474095
vn -0.244254 0.762321 -0.599339
vn -0.731996 0.051901 -0.67933
vn -0.591059 -0.0292161 -0.806099
vn -0.591059 -0.0292161 -0.806099
vn -0.696929 0.560172 0.44777
vn -0.734674 0.376741 0.564199
vn -0.702107 -0.247061 0.667837
vn -0.858058 -0.0893505 0.505721
vn -0.76558 -0.552905 0.328914
vn -0.868842 -0.35456 0.345545
vn 0.457517 -0.852134 -0.254057
vn 0.674702 -0.715554 0.180994
vn 0.949564 0.309007 -0.0533212
vn 0.929836 0.360457 -0.0739999
vn 0.612502 0.77975 -0.129739
vn -0.129625 0.255924 -0.957967
vn 0.774931 0.619048 0.127526
vn 0.612502 0.77975 -0.129739
vn 0.535919 0.828799 0.160884
vn -0.119991 0.989085 -0.0855199
vn -0.078406 0.463914 -0.882403
vn -0.161958 0.986681 -0.0151842
vn 0.656966 -0.0508084 -0.752206
vn -0.190457 0.980332 -0.0517235
vn 0.330675 -0.844012 -0.422252
vn 0.668607 -0.133334 -0.731565
vn 0.656966 -0.0508084 -0.752206
vn 0.502436 -0.698942 -0.508959
vn -0.181595 0.978183 -0.100899
vn -0.87342 -0.145673 -0.464668
vn 0.123882 0.62379 -0.771712
vn -0.87342 -0.145673 -0.464668
vn 0.802309 -0.499218 -0.327232
vn 0.960939 -0.0250453 -0.275623
vn 0.203372 0.512455 -0.834284
vn 0.252145 0.909778 -0.329737
vn 0.960939 -0.0250453 -0.275623
vn -0.137117 0.935188 -0.326531
vn 0.960939 -0.0250453 -0.275623
vn 0.331465 -0.821581 -0.463828
vn -0.166856 0.381861 -0.909033
vn -0.166856 0.381861 -0.909033
vn -0.37002 0.830846 -0.415669
vn -0.223578 0.924729 -0.308041
vn -0.87342 -0.145673 -0.464668
vn 0.0415881 0.72101 -0.691676
vn -0.75026 0.0943489 -0.654376
vn -0.165658 -0.985682 0.031449
vn -0.766455 0.136537 -0.627618
vn -0.435582 0.605015 -0.666502
vn -0.758932 0.388437 0.522627
vn -0.859234 0.164309 0.484479
vn -0.715573 -0.538506 0.444935
vn -0.591059 -0.0292161 -0.806099
vn -0.225481 0.820987 -0.524537
vn -0.288429 0.802403 -0.522454
vn 0.0435001 0.989498 0.137847
vn 0.366961 0.878455 -0.306032
vn -0.713354 0.442043 0.543806
vn -0.611994 0.682704 0.399222
vn -0.83377 0.401044 0.379461
vn 0.745412 -0.399828 0.533384
vn -0.1462 -0.484887 0.86227
vn 0.604193 -0.524676 0.599721
vn 0.817245 0.528034 0.230848
vn -0.00720208 -0.00934314 0.99993
vn 0.500927 0.169394 0.848751
vn 0.789472 0.581709 0.195828
vn 0.500927 0.169394 0.848751
vn 0.0764117 0.945025 0.317944
vn 0.597065 -0.796485 -0.0955232
vn 0.992033 -0.046292 -0.117166
vn 0.995833 0.0105453 -0.0905806
vn -0.853536 -0.386402 0.349528
vn -0.764311 0.268637 0.586227
vn -0.756813 0.41542 0.504638
vn 0.018626 0.0597491 0.99804
vn 0.0386598 0.12822 0.990992
vn -0.1462 -0.484887 0.86227
vn -0.847984 -0.445271 0.287502
vn -0.1462 -0.484887 0.86227
vn 0.761497 -0.309847 0.569313
vn 0.083079 -0.0443296 0.995557
vn 0.500927 0.169394 0.848751
vn -0.0902591 0.923629 0.372508
vn -0.661288 0.561545 0.497359
vn -0.827555 0.386681 0.406977
g grp1
usemtl mtl1
f 3//3 2//2 1//1 
f 3//3 1//1 4//4 
f 5//5 3//3 4//4 
f 5//5 4//4 6//6 
f 6//6 7//7 5//5 
f 6//6 8//8 7//7 
f 6//6 9//9 8//8 
f 10//10 9//9 6//6 
f 11//11 10//10 6//6 
f 11//11 6//6 12//12 
f 11//11 12//12 13//13 
f 136//136 14//14 11//11 
f 15//15 14//14 136//136 
f 16//16 15//15 136//136 
f 137//137 17//17 138//138 
f 13//13 18//18 17//17 
f 13//13 12//12 18//18 
f 6//6 18//18 12//12 
f 1//1 18//18 6//6 
f 1//1 6//6 4//4 
f 18//18 1//1 19//19 
f 20//20 18//18 19//19 
f 20//20 19//19 21//21 
f 21//21 22//22 20//20 
f 23//23 22//22 21//21 
f 24//24 142//142 141//141 
f 24//24 141//141 25//25 
f 25//25 26//26 24//24 
f 26//26 25//25 27//27 
f 28//28 26//26 27//27 
f 28//28 27//27 29//29 
f 144//144 30//30 143//143 
f 144//144 31//31 30//30 
f 145//145 32//32 148//148 
f 33//33 151//151 146//146 
f 34//34 33//33 146//146 
f 25//25 155//155 29//29 
f 29//29 27//27 25//25 
f 155//155 25//25 35//35 
f 157//157 153//153 156//156 
f 157//157 36//36 153//153 
f 35//35 37//37 158//158 
f 25//25 37//37 35//35 
f 38//38 37//37 25//25 
f 25//25 39//39 38//38 
f 25//25 141//141 39//39 
f 19//19 39//39 141//141 
f 39//39 19//19 40//40 
f 39//39 40//40 41//41 
f 163//163 38//38 39//39 
f 37//37 38//38 163//163 
f 37//37 163//163 42//42 
f 43//43 161//161 165//165 
f 44//44 168//168 166//166 
f 164//164 169//169 167//167 
f 41//41 45//45 170//170 
f 45//45 41//41 46//46 
f 170//170 45//45 46//46 
f 170//170 46//46 47//47 
f 170//170 47//47 48//48 
f 49//49 171//171 172//172 
f 173//173 168//168 174//174 
f 173//173 50//50 168//168 
f 50//50 173//173 51//51 
f 131//131 50//50 51//51 
f 132//132 177//177 52//52 
f 2//2 178//178 1//1 
f 19//19 1//1 178//178 
f 19//19 178//178 53//53 
f 19//19 53//53 46//46 
f 46//46 40//40 19//19 
f 40//40 46//46 41//41 
f 46//46 53//53 47//47 
f 54//54 47//47 53//53 
f 53//53 178//178 54//54 
f 52//52 177//177 179//179 
f 180//180 51//51 173//173 
f 48//48 47//47 54//54 
f 131//131 55//55 50//50 
f 56//56 55//55 131//131 
f 56//56 131//131 57//57 
f 56//56 57//57 55//55 
f 8//8 181//181 182//182 
f 8//8 182//182 7//7 
f 7//7 183//183 5//5 
f 5//5 183//183 3//3 
f 184//184 133//133 134//134 
f 8//8 9//9 181//181 
f 58//58 181//181 9//9 
f 58//58 9//9 135//135 
f 58//58 135//135 59//59 
f 185//185 186//186 60//60 
f 61//61 185//185 60//60 
f 61//61 188//188 62//62 
f 62//62 63//63 61//61 
f 62//62 64//64 63//63 
f 188//188 64//64 62//62 
f 188//188 65//65 64//64 
f 188//188 187//187 65//65 
f 65//65 187//187 66//66 
f 66//66 67//67 65//65 
f 68//68 67//67 189//189 
f 68//68 189//189 69//69 
f 70//70 68//68 69//69 
f 71//71 70//70 69//69 
f 69//69 139//139 71//71 
f 16//16 69//69 15//15 
f 15//15 69//69 14//14 
f 14//14 69//69 72//72 
f 14//14 72//72 135//135 
f 11//11 14//14 10//10 
f 69//69 135//135 72//72 
f 189//189 135//135 69//69 
f 189//189 59//59 135//135 
f 139//139 73//73 71//71 
f 74//74 73//73 138//138 
f 74//74 138//138 17//17 
f 17//17 140//140 74//74 
f 18//18 140//140 17//17 
f 75//75 74//74 140//140 
f 22//22 75//75 140//140 
f 22//22 76//76 75//75 
f 77//77 76//76 22//22 
f 77//77 22//22 23//23 
f 78//78 192//192 142//142 
f 142//142 79//79 78//78 
f 79//79 142//142 24//24 
f 79//79 24//24 80//80 
f 79//79 194//194 81//81 
f 81//81 82//82 79//79 
f 81//81 83//83 82//82 
f 194//194 83//83 81//81 
f 84//84 198//198 195//195 
f 195//195 85//85 84//84 
f 24//24 201//201 80//80 
f 24//24 26//26 201//201 
f 86//86 201//201 26//26 
f 28//28 86//86 26//26 
f 143//143 30//30 203//203 
f 203//203 30//30 202//202 
f 147//147 84//84 85//85 
f 147//147 87//87 84//84 
f 147//147 88//88 87//87 
f 149//149 88//88 147//147 
f 89//89 88//88 149//149 
f 90//90 89//89 150//150 
f 90//90 150//150 91//91 
f 90//90 91//91 50//50 
f 92//92 90//90 50//50 
f 93//93 92//92 50//50 
f 94//94 93//93 50//50 
f 63//63 94//94 50//50 
f 63//63 50//50 61//61 
f 61//61 50//50 55//55 
f 55//55 185//185 61//61 
f 63//63 65//65 94//94 
f 64//64 65//65 63//63 
f 65//65 67//67 94//94 
f 95//95 94//94 67//67 
f 67//67 96//96 95//95 
f 97//97 96//96 67//67 
f 97//97 67//67 190//190 
f 190//190 98//98 97//97 
f 204//204 70//70 71//71 
f 204//204 71//71 73//73 
f 73//73 99//99 204//204 
f 74//74 99//99 73//73 
f 74//74 75//75 99//99 
f 191//191 100//100 206//206 
f 101//101 100//100 191//191 
f 102//102 101//101 191//191 
f 102//102 191//191 103//103 
f 104//104 102//102 103//103 
f 104//104 103//103 105//105 
f 106//106 104//104 105//105 
f 106//106 105//105 107//107 
f 208//208 108//108 207//207 
f 211//211 209//209 193//193 
f 192//192 109//109 212//212 
f 192//192 78//78 109//109 
f 78//78 79//79 109//109 
f 109//109 79//79 212//212 
f 79//79 110//110 212//212 
f 82//82 110//110 79//79 
f 207//207 213//213 196//196 
f 196//196 111//111 207//207 
f 214//214 197//197 199//199 
f 215//215 200//200 112//112 
f 215//215 112//112 113//113 
f 216//216 217//217 104//104 
f 104//104 106//106 216//216 
f 217//217 101//101 104//104 
f 217//217 96//96 101//101 
f 96//96 113//113 112//112 
f 96//96 112//112 114//114 
f 115//115 96//96 114//114 
f 115//115 114//114 116//116 
f 115//115 116//116 117//117 
f 96//96 115//115 117//117 
f 117//117 95//95 96//96 
f 95//95 117//117 118//118 
f 95//95 118//118 94//94 
f 94//94 118//118 93//93 
f 118//118 92//92 93//93 
f 118//118 117//117 92//92 
f 92//92 117//117 119//119 
f 119//119 120//120 92//92 
f 116//116 120//120 119//119 
f 117//117 116//116 119//119 
f 121//121 120//120 116//116 
f 121//121 116//116 122//122 
f 122//122 123//123 121//121 
f 124//124 123//123 122//122 
f 124//124 122//122 125//125 
f 125//125 123//123 124//124 
f 126//126 123//123 125//125 
f 125//125 127//127 126//126 
f 125//125 128//128 127//127 
f 128//128 125//125 129//129 
f 129//129 114//114 128//128 
f 116//116 114//114 129//129 
f 116//116 129//129 122//122 
f 122//122 129//129 125//125 
f 88//88 128//128 114//114 
f 112//112 88//88 114//114 
f 87//87 88//88 112//112 
f 87//87 112//112 200//200 
f 198//198 84//84 87//87 
f 128//128 88//88 89//89 
f 127//127 128//128 89//89 
f 127//127 89//89 90//90 
f 127//127 90//90 126//126 
f 123//123 126//126 90//90 
f 120//120 123//123 90//90 
f 92//92 120//120 90//90 
f 121//121 123//123 120//120 
f 101//101 96//96 100//100 
f 96//96 130//130 100//100 
f 130//130 96//96 97//97 
f 98//98 130//130 97//97 
f 206//206 130//130 205//205 
f 100//100 130//130 206//206 
f 104//104 101//101 102//102 
f 108//108 213//213 207//207 
f 77//77 210//210 76//76 
f 75//75 76//76 210//210 
f 103//103 191//191 107//107 
f 107//107 105//105 103//103 
f 190//190 67//67 68//68 
f 50//50 91//91 154//154 
f 50//50 154//154 159//159 
f 162//162 175//175 160//160 
f 161//161 43//43 176//176 
f 91//91 152//152 154//154 
f 91//91 150//150 152//152 
f 174//174 168//168 44//44 
