v 0.637369 -156.599 1533.89
v 0.44386 -156.863 1534.34
v 0.804962 -156.231 1534.15
v 1.04656 -156.702 1531.74
v 1.28055 -156.396 1532.35
v 0.858496 -156.976 1534.2
v 1.09973 -156.526 1530.15
v 1.4997 -156.088 1530.32
v 0.897797 -154.857 1533.43
v 0.915181 -155.219 1534.59
v 1.25144 -155.452 1533.5
v 0.304379 -155.042 1534.9
v 1.01081 -155.808 1534.85
v 0.691783 -155.083 1534.86
v 0.662542 -156.792 1534.54
v 0.87733 -155.83 1534.81
v 0.671538 -155.435 1534.74
v 0.164958 -156.949 1534.06
v 0.117497 -157.325 1534.48
v 0.460884 -157.057 1532.05
v 0.507713 -157.256 1534.22
v 0.0487485 -157.434 1534.17
v 0.24204 -156.914 1530.61
v 0.611126 -156.792 1530.15
v 0.488111 -156.64 1529.85
v -0.313439 -157.44 1534.42
v -0.57779 -157.141 1534.35
v -0.264301 -157.187 1532.54
v 0.0610372 -156.746 1529.85
v -0.480115 -157.412 1534.13
v -0.180912 -156.396 1530.57
v 0.365193 -156.469 1530.62
v 0.160058 -156.408 1529.98
v -1.00241 -157.216 1534.29
v -0.955312 -156.593 1531.56
v -0.617289 -156.534 1530.07
v -0.225309 -156.806 1530.36
v -0.80889 -157.081 1533.04
v -0.838788 -156.673 1533.67
v -0.880016 -156.782 1534.18
v -0.420402 -156.962 1533.92
v -0.453032 -156.64 1532.3
v -0.505838 -156.14 1529.88
v -0.00375254 -156.835 1532.84
v -0.412526 -156.491 1529.82
v -0.561786 -156.03 1530.28
v -1.12379 -156.932 1534.37
v -1.30508 -156.941 1534.24
v -0.917172 -156.113 1529.87
v -1.07357 -156.348 1533.86
v -0.793871 -156.221 1532
v -1.22834 -156.308 1534.31
v -0.98625 -155.644 1532.45
v -1.15223 -155.858 1534.01
v -0.995568 -154.846 1534.17
v -1.28025 -155.195 1534.32
v -0.567834 -154.696 1534.44
v -0.299863 -154.542 1530.09
v -0.664964 -155.007 1530.39
v -0.683268 -154.739 1529.88
v -0.741395 -155.619 1530.33
v -0.789082 -154.981 1534.65
v -1.22013 -155.566 1534.54
v -1.03187 -155.483 1534.09
v 0.100739 -154.457 1530.61
v -0.426393 -154.684 1530.58
v -0.379734 -154.133 1530.45
v 0.181513 -153.959 1530.26
v -0.389346 -154.158 1530.02
v 0.0140198 -154.175 1531.63
v -0.533658 -154.482 1533.01
v -0.0424319 -154.641 1534.49
v 0.07588 -154.321 1530.04
v -0.0703021 -154.186 1529.93
v 0.672465 -154.292 1530.03
v -0.298394 -154.737 1534.81
v 0.293852 -154.361 1532.65
v -0.513764 -155.089 1534.47
v 0.25635 -155.146 1534.58
v 0.573513 -154.49 1530.55
v 0.283658 -154.746 1532.43
v 0.713146 -154.192 1531.06
v 0.153387 -154.81 1534.9
v 0.353201 -153.993 1530.02
v 0.494429 -154.988 1533.15
v 0.0210743 -155.007 1534.05
v 0.408397 -154.748 1534.44
v 0.973958 -154.658 1530.21
v 0.766473 -155.654 1534.2
v 0.752007 -155.251 1533.18
v 1.27419 -155.331 1530.19
v 0.947629 -154.794 1530.73
v 1.10565 -155.408 1531.58
v 0.903265 -156.232 1532.31
v 0.464103 -156.664 1532.56
v 0.76643 -156.281 1530.42
v 0.866955 -156.337 1529.92
v 1.20005 -156.199 1529.92
v 1.16538 -155.98 1530.07
v 1.144 -155.832 1530.6
v 1.05772 -155.84 1532.17
v 0.739717 -154.043 1530.21
v 1.2152 -154.327 1530.32
v 1.25408 -154.495 1530.82
v 1.20016 -154.638 1530.01
v 1.04729 -154.251 1530.07
v 0.872103 -155.918 1533.89
v -0.00368661 -154.676 1532.2
v -0.385681 -154.87 1532.97
v -0.793282 -155.2 1533.91
v -0.711519 -155.042 1532.27
v -0.970432 -154.711 1532.34
v -0.877099 -154.757 1529.84
v -0.785272 -155.361 1530.54
v -0.80305 -155.354 1529.86
v -0.935641 -154.608 1530.2
v -1.25063 -155.454 1530.93
v -1.31752 -155.235 1532.49
v -1.42494 -156.494 1534.44
v -1.41825 -155.527 1534.55
v -1.5638 -156.058 1534.5
v -1.57287 -155.863 1534.14
v -1.50737 -156.516 1534.11
v -1.37925 -156.219 1532.64
v -1.15379 -155.558 1529.91
v -1.07442 -156.047 1530.39
v -1.09814 -154.967 1529.93
v -0.974248 -155.656 1529.79
v -0.780876 -154.407 1530.39
v 0.864346 -156.713 1534.67
v 1.409 -154.62 1530.13
v 1.52719 -155.152 1530
v 1.52643 -154.725 1530.36
v 1.51474 -155.006 1530.99
v 1.65626 -155.536 1530.58
v 1.12587 -155.721 1534.71
v 1.36602 -155.973 1533.08
v 1.15096 -156.295 1534.61
v 1.08162 -156.65 1534.37
v 1.6062 -155.679 1530.12
v 1.6514 -155.158 1530.23
v 0.44386 -156.863 1534.34
v 0.804962 -156.231 1534.15
v 0.304379 -155.042 1534.9
v 0.304379 -155.042 1534.9
v 0.304379 -155.042 1534.9
v 1.01081 -155.808 1534.85
v 0.691783 -155.083 1534.86
v 0.662542 -156.792 1534.54
v 0.662542 -156.792 1534.54
v 0.87733 -155.83 1534.81
v 0.87733 -155.83 1534.81
v 0.671538 -155.435 1534.74
v 0.117497 -157.325 1534.48
v 0.117497 -157.325 1534.48
v 0.117497 -157.325 1534.48
v 0.488111 -156.64 1529.85
v 0.488111 -156.64 1529.85
v 0.488111 -156.64 1529.85
v -0.313439 -157.44 1534.42
v -0.57779 -157.141 1534.35
v -0.57779 -157.141 1534.35
v 0.0610372 -156.746 1529.85
v -0.180912 -156.396 1530.57
v 0.160058 -156.408 1529.98
v 0.160058 -156.408 1529.98
v -1.00241 -157.216 1534.29
v -0.880016 -156.782 1534.18
v -0.505838 -156.14 1529.88
v -0.505838 -156.14 1529.88
v -0.505838 -156.14 1529.88
v -0.412526 -156.491 1529.82
v -1.12379 -156.932 1534.37
v -1.30508 -156.941 1534.24
v -0.917172 -156.113 1529.87
v -0.917172 -156.113 1529.87
v -1.22834 -156.308 1534.31
v -0.664964 -155.007 1530.39
v -0.683268 -154.739 1529.88
v -0.683268 -154.739 1529.88
v -0.741395 -155.619 1530.33
v -0.789082 -154.981 1534.65
v -0.789082 -154.981 1534.65
v -0.789082 -154.981 1534.65
v -0.789082 -154.981 1534.65
v -1.22013 -155.566 1534.54
v -1.22013 -155.566 1534.54
v -1.03187 -155.483 1534.09
v -0.389346 -154.158 1530.02
v 0.07588 -154.321 1530.04
v 0.07588 -154.321 1530.04
v -0.0703021 -154.186 1529.93
v -0.0703021 -154.186 1529.93
v 0.672465 -154.292 1530.03
v 0.672465 -154.292 1530.03
v 0.672465 -154.292 1530.03
v -0.298394 -154.737 1534.81
v -0.298394 -154.737 1534.81
v -0.513764 -155.089 1534.47
v 0.25635 -155.146 1534.58
v 0.25635 -155.146 1534.58
v 0.153387 -154.81 1534.9
v 0.353201 -153.993 1530.02
v 0.353201 -153.993 1530.02
v 0.973958 -154.658 1530.21
v 1.27419 -155.331 1530.19
v 1.27419 -155.331 1530.19
v 0.866955 -156.337 1529.92
v 0.866955 -156.337 1529.92
v 1.20005 -156.199 1529.92
v 1.20005 -156.199 1529.92
v 1.20005 -156.199 1529.92
v 1.16538 -155.98 1530.07
v 1.16538 -155.98 1530.07
v 1.20016 -154.638 1530.01
v 1.04729 -154.251 1530.07
v -0.877099 -154.757 1529.84
v -0.877099 -154.757 1529.84
v -0.877099 -154.757 1529.84
v -0.80305 -155.354 1529.86
v -0.80305 -155.354 1529.86
v -1.42494 -156.494 1534.44
v -1.42494 -156.494 1534.44
v -1.42494 -156.494 1534.44
v -1.41825 -155.527 1534.55
v -1.41825 -155.527 1534.55
v -1.5638 -156.058 1534.5
v -1.15379 -155.558 1529.91
v -1.09814 -154.967 1529.93
v -0.974248 -155.656 1529.79
v 0.864346 -156.713 1534.67
v 0.864346 -156.713 1534.67
v 1.409 -154.62 1530.13
v 1.52719 -155.152 1530
v 1.52719 -155.152 1530
v 1.52719 -155.152 1530
v 1.52719 -155.152 1530
v 1.6062 -155.679 1530.12
vn -0.736145 0.675576 0.0410901
vn -0.877117 0.469292 -0.102134
vn -0.972934 0.220467 -0.0692425
vn 0.666731 -0.743906 -0.0455272
vn 0.893228 -0.448648 0.0293002
vn 0.719994 -0.67852 0.145665
vn 0.579408 -0.748956 -0.321485
vn 0.862627 -0.481148 -0.156111
vn 0.714857 0.673192 0.18919
vn 0.813509 0.526905 0.246119
vn 0.945022 0.288259 0.154402
vn -0.0852199 -0.0856708 0.992672
vn -0.110807 -0.130571 0.985227
vn 0.115029 0.0617819 0.991439
vn -0.97376 0.225602 -0.0299367
vn -0.992598 -0.108817 0.0539237
vn -0.725567 -0.467233 -0.505218
vn -0.322929 0.895874 0.305167
vn -0.629327 0.581361 0.51572
vn 0.312969 -0.943589 -0.108125
vn 0.495217 -0.854056 0.159212
vn 0.156205 -0.987681 0.00928312
vn 0.0108954 -0.986207 -0.16516
vn 0.270353 -0.912544 -0.306876
vn 0.356826 -0.73423 -0.577565
vn -0.052437 -0.993253 0.103435
vn -0.0200659 0.855864 0.516811
vn -0.113881 -0.980768 -0.15851
vn -0.079962 -0.941557 -0.327226
vn -0.228607 -0.969004 -0.093648
vn 0.201054 0.968589 0.146333
vn -0.15331 0.979114 0.133537
vn 0.00739575 0.997 0.0770535
vn -0.461744 -0.883167 -0.0825138
vn -0.74538 -0.642183 -0.178912
vn -0.541005 -0.77329 -0.330662
vn -0.349378 -0.907047 -0.234948
vn -0.494283 -0.850416 -0.180213
vn 0.683005 0.705333 0.189763
vn 0.484955 0.614449 0.622312
vn 0.270366 0.926443 0.261926
vn 0.466213 0.86344 0.192656
vn 0.344354 0.921745 0.178342
vn -0.0141891 0.988729 0.149044
vn 0.0337618 0.0927989 -0.995112
vn 0.843754 0.531001 0.0782108
vn 0.414643 0.303298 0.857952
vn -0.796211 -0.600497 -0.07384
vn -0.77203 -0.563973 -0.293094
vn 0.923127 0.329186 0.198678
vn 0.837382 0.517774 0.175217
vn 0.95224 0.183475 0.24408
vn 0.990399 -0.103967 0.0911037
vn 0.97408 -0.11235 0.196331
vn -0.580527 0.792809 0.185586
vn -0.772237 0.596429 0.218913
vn -0.365914 0.884253 0.290177
vn 0.563538 -0.80781 -0.172823
vn 0.87279 -0.487872 0.0147804
vn 0.549109 -0.798536 -0.246616
vn 0.965783 0.189475 0.177093
vn 0.768124 -0.605653 0.207777
vn 0.908461 -0.348549 0.230678
vn 0.851636 -0.519441 0.0699774
vn 0.179193 -0.970311 -0.162439
vn 0.612609 -0.78839 -0.056139
vn -0.423051 0.904627 0.0517497
vn -0.0524342 0.998473 0.0173672
vn -0.497301 0.844529 -0.198654
vn -0.0647113 0.987135 0.14621
vn -0.388995 0.915244 0.104933
vn 0.0680847 0.972427 0.223048
vn 0.197601 -0.492565 -0.847546
vn 0.209699 -0.38503 -0.898765
vn 0.0159777 -0.629625 -0.776735
vn -0.0193443 0.961371 0.274574
vn 0.1916 0.966808 0.16903
vn -0.0456179 -0.895331 0.443059
vn -0.112108 -0.941996 0.316346
vn -0.33671 -0.906794 -0.253675
vn -0.213057 -0.96173 -0.172287
vn 0.370687 0.910458 0.183459
vn 0.261668 0.907319 0.329093
vn 0.124167 0.101108 -0.987097
vn -0.499406 -0.846569 -0.184158
vn -0.0919882 -0.978981 -0.182026
vn 0.408845 0.881846 0.234934
vn -0.586063 -0.634892 -0.50343
vn -0.918212 -0.390566 -0.0659241
vn -0.79449 -0.578547 -0.184578
vn -0.902289 -0.407076 -0.141999
vn -0.771053 -0.611573 -0.177357
vn -0.972456 -0.195891 -0.126321
vn -0.836429 0.548059 -0.00413295
vn -0.492617 0.866541 0.0802189
vn -0.553772 0.8322 -0.0279411
vn -0.15316 0.42242 -0.893366
vn -0.171983 0.454296 -0.874092
vn -0.702184 0.678501 -0.21581
vn -0.931263 0.354685 -0.0833556
vn -0.983116 0.16738 -0.07394
vn 0.343902 0.937557 -0.0521297
vn 0.657094 0.753754 0.00904423
vn 0.723138 0.660403 0.202336
vn -0.534745 -0.413777 -0.736774
vn 0.537845 0.793672 -0.284267
vn -0.98559 -0.0412942 -0.164036
vn 0.0426109 -0.987092 -0.154384
vn 0.360791 -0.926712 -0.105047
vn 0.631308 -0.770111 -0.0915383
vn 0.773483 -0.633727 -0.0106883
vn -0.709309 0.703742 0.0403501
vn -0.20887 0.43765 -0.874549
vn 0.974553 -0.128695 0.183532
vn 0.925821 0.372101 0.0663041
vn -0.817789 0.558009 -0.140878
vn -0.994104 0.0750888 -0.0782269
vn -0.913737 0.405528 -0.0251405
vn 0.557526 -0.0391387 0.829236
vn 0.0245202 -0.156396 0.98739
vn 0.0367505 -0.115834 0.992588
vn -0.989454 0.143682 -0.0183399
vn -0.949998 -0.312233 0.00373124
vn -0.952439 -0.27073 -0.139876
vn -0.975979 -0.1698 -0.136501
vn -0.915647 -0.370255 -0.156529
vn -0.915993 0.374084 -0.144975
vn -0.551454 -0.015264 -0.834065
vn -0.657835 0.751956 -0.0426202
vn -0.591189 0.536621 0.602107
vn 0.444744 0.305603 -0.841908
vn 0.445181 0.303649 -0.842384
vn 0.877939 0.478391 0.0191073
vn 0.933905 0.316772 0.165763
vn 0.9931 -0.106059 0.0500476
vn 0.869808 0.22775 0.43768
vn 0.991121 -0.0803102 0.10597
vn 0.900798 -0.162956 0.402503
vn 0.866782 -0.457369 0.198753
vn 0.942963 -0.191669 -0.272182
vn 0.968776 0.172162 -0.178421
vn -0.624254 0.648048 0.43628
vn -0.660252 0.538272 0.523766
vn -0.725567 -0.467233 -0.505218
vn -0.122601 -0.934076 0.335368
vn -0.622732 -0.714411 0.319094
vn 0.67005 -0.0177409 0.742104
vn 0.663757 0.629398 0.404085
vn -0.631743 0.559521 0.536504
vn -0.491473 -0.128797 0.861316
vn -0.725567 -0.467233 -0.505218
vn -0.313087 -0.181957 0.932131
vn -0.725577 -0.661988 0.187911
vn 0.341268 -0.872605 0.349424
vn 0.0669533 0.743423 0.665462
vn -0.167849 0.0904719 0.981652
vn 0.039327 0.052229 -0.99786
vn 0.389401 0.803086 -0.451021
vn -0.129906 0.373512 -0.918484
vn -0.156208 0.100983 0.982548
vn 0.408519 0.644321 0.6465
vn -0.130295 -0.0277121 0.991088
vn 0.0176703 -0.0786941 -0.996742
vn 0.679837 0.726869 0.0973774
vn 0.389401 0.803086 -0.451021
vn -0.114831 0.356665 -0.927148
vn -0.259698 -0.208055 0.943011
vn 0.829647 0.520318 0.20237
vn 0.389401 0.803086 -0.451021
vn 0.847567 0.52997 -0.0275813
vn 0.087649 0.0626552 -0.994179
vn -0.433072 -0.791138 -0.431913
vn -0.378967 -0.401493 0.833779
vn -0.515275 -0.442016 0.734244
vn 0.0112231 -0.00541577 -0.999922
vn -0.629557 -0.217667 -0.745841
vn 0.553424 0.0295542 0.832375
vn 0.976473 -0.144458 -0.160099
vn 0.272086 -0.168393 -0.947424
vn 0.97369 -0.185468 -0.132401
vn 0.976858 -0.103092 -0.187403
vn -0.23039 -0.162068 0.959507
vn -0.565892 0.690436 0.450627
vn -0.0112779 -0.863701 0.503879
vn 0.0155429 -0.198924 0.979892
vn 0.661563 -0.22482 0.715395
vn 0.0297061 -0.143651 0.989182
vn 0.110936 -0.76628 0.632858
vn -0.179729 0.559306 -0.809243
vn -0.0289077 -0.956388 -0.290666
vn 0.483821 -0.860567 -0.159189
vn 0.152616 0.131716 -0.979469
vn -0.179729 0.559306 -0.809243
vn 0.110041 0.129479 -0.985457
vn -0.540963 -0.687598 -0.484323
vn 0.0390342 -0.935657 -0.350746
vn -0.22013 -0.139977 0.965375
vn -0.510499 0.730397 0.453774
vn 0.315126 -0.932745 -0.175165
vn -0.695725 -0.717831 0.0261803
vn -0.138327 -0.971601 -0.191982
vn -0.0465694 -0.0108809 0.998856
vn 0.0965337 0.957241 -0.272711
vn -0.147007 0.669823 -0.727823
vn -0.904394 -0.398893 -0.151512
vn -0.901524 0.223335 -0.370642
vn -0.551153 -0.269581 -0.789656
vn -0.11029 0.985283 -0.130591
vn -0.702138 0.67859 -0.215681
vn 0.666497 -0.528733 -0.525569
vn 0.536905 -0.108807 -0.836597
vn -0.748928 0.254949 -0.611643
vn -0.9158 0.219526 -0.33633
vn -0.198014 0.515686 -0.833582
vn 0.329765 0.270676 -0.904428
vn 0.21161 0.191981 -0.958313
vn 0.269442 -0.0544365 -0.961477
vn -0.466103 0.0963886 -0.879464
vn -0.690634 0.624354 -0.364975
vn 0.281413 0.0242931 -0.959279
vn 0.976473 -0.144458 -0.160099
vn 0.0400506 -0.118104 0.992193
vn -0.906576 -0.339368 0.250896
vn -0.507852 -0.46422 0.725663
vn -0.942277 0.322394 0.0904172
vn -0.608196 0.607427 0.511009
vn -0.989388 -0.0612042 0.131777
vn -0.590113 -0.071706 -0.80413
vn -0.501054 0.0863347 -0.861099
vn 0.213036 -0.0337275 -0.976462
vn 0.627248 -0.577351 0.52271
vn -0.364757 -0.14001 0.920516
vn 0.825239 0.48435 -0.290492
vn 0.873023 0.162496 -0.459811
vn 0.536905 -0.108807 -0.836597
vn -0.462722 -0.274364 -0.842979
vn -0.702955 0.266002 -0.659619
vn 0.536905 -0.108807 -0.836597
g grp1
usemtl mtl1
f 1//1 2//2 3//3 
f 4//4 5//5 6//6 
f 7//7 8//8 4//4 
f 9//9 10//10 11//11 
f 12//12 13//13 14//14 
f 3//3 15//15 16//16 
f 17//17 151//151 144//144 
f 1//1 18//18 142//142 
f 19//19 149//149 142//142 
f 20//20 21//21 22//22 
f 23//23 24//24 20//20 
f 20//20 24//24 7//7 
f 25//25 7//7 24//24 
f 22//22 154//154 26//26 
f 18//18 27//27 155//155 
f 22//22 21//21 154//154 
f 28//28 23//23 20//20 
f 25//25 24//24 29//29 
f 30//30 22//22 26//26 
f 28//28 22//22 30//30 
f 31//31 32//32 33//33 
f 30//30 26//26 34//34 
f 35//35 36//36 37//37 
f 35//35 37//37 38//38 
f 38//38 37//37 28//28 
f 39//39 40//40 41//41 
f 42//42 39//39 41//41 
f 43//43 31//31 33//33 
f 40//40 161//161 41//41 
f 162//162 160//160 156//156 
f 31//31 42//42 44//44 
f 37//37 23//23 28//28 
f 44//44 42//42 41//41 
f 45//45 157//157 163//163 
f 158//158 169//169 165//165 
f 29//29 23//23 37//37 
f 170//170 46//46 164//164 
f 172//172 37//37 36//36 
f 172//172 29//29 37//37 
f 171//171 157//157 45//45 
f 40//40 47//47 161//161 
f 48//48 38//38 34//34 
f 174//174 167//167 173//173 
f 49//49 172//172 36//36 
f 38//38 30//30 34//34 
f 39//39 50//50 168//168 
f 164//164 51//51 42//42 
f 46//46 51//51 164//164 
f 51//51 50//50 39//39 
f 52//52 168//168 50//50 
f 53//53 54//54 50//50 
f 53//53 50//50 51//51 
f 55//55 56//56 57//57 
f 58//58 59//59 60//60 
f 61//61 51//51 46//46 
f 62//62 63//63 64//64 
f 65//65 66//66 58//58 
f 67//67 68//68 69//69 
f 70//70 67//67 71//71 
f 71//71 57//57 70//70 
f 70//70 57//57 72//72 
f 73//73 74//74 75//75 
f 57//57 76//76 72//72 
f 197//197 182//182 12//12 
f 70//70 72//72 77//77 
f 78//78 79//79 145//145 
f 65//65 80//80 81//81 
f 70//70 77//77 82//82 
f 76//76 83//83 72//72 
f 192//192 84//84 194//194 
f 81//81 85//85 86//86 
f 77//77 72//72 87//87 
f 80//80 195//195 88//88 
f 89//89 200//200 90//90 
f 205//205 91//91 92//92 
f 92//92 91//91 93//93 
f 20//20 7//7 4//4 
f 94//94 95//95 1//1 
f 32//32 95//95 96//96 
f 97//97 98//98 159//159 
f 99//99 96//96 100//100 
f 100//100 94//94 101//101 
f 93//93 100//100 101//101 
f 206//206 100//100 93//93 
f 213//213 100//100 206//206 
f 100//100 96//96 94//94 
f 102//102 82//82 103//103 
f 90//90 85//85 92//92 
f 82//82 9//9 104//104 
f 195//195 105//105 88//88 
f 106//106 102//102 103//103 
f 82//82 104//104 103//103 
f 148//148 10//10 9//9 
f 89//89 16//16 153//153 
f 93//93 101//101 107//107 
f 94//94 1//1 3//3 
f 94//94 3//3 101//101 
f 90//90 93//93 89//89 
f 93//93 107//107 89//89 
f 101//101 3//3 107//107 
f 89//89 3//3 16//16 
f 89//89 107//107 3//3 
f 89//89 153//153 200//200 
f 105//105 207//207 88//88 
f 93//93 90//90 92//92 
f 85//85 90//90 200//200 
f 9//9 82//82 87//87 
f 77//77 87//87 82//82 
f 72//72 83//83 87//87 
f 202//202 12//12 14//14 
f 85//85 81//81 80//80 
f 80//80 92//92 85//85 
f 85//85 201//201 86//86 
f 87//87 83//83 148//148 
f 153//153 146//146 200//200 
f 87//87 148//148 9//9 
f 194//194 216//216 215//215 
f 88//88 92//92 80//80 
f 102//102 106//106 203//203 
f 84//84 216//216 194//194 
f 80//80 190//190 196//196 
f 102//102 68//68 82//82 
f 86//86 201//201 199//199 
f 68//68 70//70 82//82 
f 68//68 102//102 203//203 
f 190//190 80//80 65//65 
f 65//65 81//81 108//108 
f 108//108 81//81 86//86 
f 197//197 12//12 202//202 
f 108//108 86//86 109//109 
f 109//109 86//86 199//199 
f 69//69 68//68 203//203 
f 58//58 191//191 65//65 
f 68//68 67//67 70//70 
f 65//65 108//108 109//109 
f 110//110 109//109 199//199 
f 57//57 183//183 198//198 
f 184//184 78//78 145//145 
f 66//66 109//109 111//111 
f 110//110 199//199 64//64 
f 60//60 191//191 58//58 
f 112//112 71//71 67//67 
f 58//58 66//66 59//59 
f 179//179 74//74 73//73 
f 189//189 193//193 113//113 
f 217//217 74//74 179//179 
f 59//59 53//53 114//114 
f 46//46 170//170 115//115 
f 61//61 53//53 51//51 
f 61//61 114//114 53//53 
f 111//111 53//53 59//59 
f 59//59 66//66 111//111 
f 193//193 189//189 204//204 
f 66//66 65//65 109//109 
f 110//110 111//111 109//109 
f 55//55 57//57 71//71 
f 184//184 188//188 78//78 
f 56//56 183//183 57//57 
f 112//112 55//55 71//71 
f 111//111 110//110 64//64 
f 175//175 171//171 45//45 
f 217//217 179//179 220//220 
f 116//116 117//117 118//118 
f 112//112 116//116 118//118 
f 38//38 48//48 35//35 
f 186//186 119//119 177//177 
f 120//120 121//121 187//187 
f 121//121 222//222 187//187 
f 118//118 122//122 56//56 
f 225//225 122//122 227//227 
f 122//122 123//123 227//227 
f 123//123 223//223 227//227 
f 118//118 117//117 122//122 
f 124//124 123//123 122//122 
f 223//223 123//123 48//48 
f 125//125 126//126 117//117 
f 127//127 125//125 117//117 
f 127//127 117//117 116//116 
f 128//128 176//176 228//228 
f 117//117 126//126 124//124 
f 124//124 126//126 35//35 
f 229//229 218//218 128//128 
f 229//229 128//128 228//228 
f 125//125 49//49 126//126 
f 35//35 123//123 124//124 
f 117//117 124//124 122//122 
f 225//225 56//56 122//122 
f 35//35 48//48 123//123 
f 119//119 47//47 177//177 
f 36//36 35//35 49//49 
f 129//129 116//116 112//112 
f 127//127 116//116 219//219 
f 217//217 220//220 230//230 
f 49//49 35//35 126//126 
f 116//116 69//69 219//219 
f 230//230 220//220 171//171 
f 230//230 171//171 175//175 
f 224//224 174//174 173//173 
f 63//63 52//52 54//54 
f 56//56 226//226 183//183 
f 112//112 56//56 55//55 
f 69//69 129//129 67//67 
f 129//129 112//112 67//67 
f 69//69 116//116 129//129 
f 180//180 178//178 221//221 
f 59//59 114//114 61//61 
f 56//56 112//112 118//118 
f 221//221 178//178 181//181 
f 115//115 61//61 46//46 
f 185//185 120//120 187//187 
f 63//63 54//54 64//64 
f 54//54 52//52 50//50 
f 53//53 111//111 64//64 
f 64//64 54//54 53//53 
f 47//47 40//40 177//177 
f 173//173 167//167 162//162 
f 51//51 39//39 42//42 
f 162//162 167//167 160//160 
f 38//38 28//28 30//30 
f 41//41 27//27 18//18 
f 31//31 44//44 32//32 
f 29//29 24//24 23//23 
f 33//33 32//32 96//96 
f 32//32 44//44 95//95 
f 95//95 44//44 18//18 
f 28//28 20//20 22//22 
f 41//41 18//18 44//44 
f 97//97 159//159 166//166 
f 96//96 208//208 33//33 
f 96//96 99//99 209//209 
f 97//97 214//214 98//98 
f 210//210 7//7 25//25 
f 18//18 19//19 142//142 
f 96//96 95//95 94//94 
f 1//1 95//95 18//18 
f 149//149 19//19 130//130 
f 154//154 21//21 231//231 
f 4//4 21//21 20//20 
f 131//131 132//132 215//215 
f 103//103 104//104 133//133 
f 9//9 134//134 104//104 
f 8//8 135//135 5//5 
f 152//152 232//232 13//13 
f 148//148 147//147 136//136 
f 10//10 148//148 136//136 
f 137//137 138//138 139//139 
f 137//137 139//139 5//5 
f 140//140 135//135 8//8 
f 137//137 5//5 135//135 
f 134//134 137//137 135//135 
f 134//134 11//11 137//137 
f 133//133 134//134 141//141 
f 141//141 134//134 135//135 
f 141//141 135//135 140//140 
f 5//5 139//139 6//6 
f 136//136 138//138 11//11 
f 11//11 138//138 137//137 
f 136//136 147//147 138//138 
f 147//147 231//231 138//138 
f 136//136 11//11 10//10 
f 133//133 141//141 233//233 
f 234//234 141//141 140//140 
f 233//233 141//141 234//234 
f 9//9 11//11 134//134 
f 133//133 233//233 103//103 
f 104//104 134//134 133//133 
f 235//235 238//238 211//211 
f 8//8 5//5 4//4 
f 207//207 105//105 236//236 
f 206//206 212//212 213//213 
f 206//206 237//237 212//212 
f 210//210 140//140 8//8 
f 7//7 210//210 8//8 
f 216//216 131//131 215//215 
f 233//233 106//106 103//103 
f 231//231 139//139 138//138 
f 152//152 13//13 12//12 
f 150//150 232//232 152//152 
f 231//231 6//6 139//139 
f 231//231 21//21 6//6 
f 143//143 142//142 149//149 
f 21//21 4//4 6//6 
