v -8.00067 -152.563 1430.41
v -8.3466 -152.187 1430.53
v -8.27281 -152.517 1430.03
v -8.43042 -150.711 1431.45
v -8.74791 -150.539 1431.2
v -8.77468 -150.923 1431.03
v -4.91801 -154.21 1430.83
v -4.39909 -154.461 1430.74
v -4.59191 -154.17 1431.28
v -4.19402 -154.687 1430.13
v -4.72864 -154.437 1430.34
v -8.35413 -151.371 1431.23
v -7.83485 -151.571 1431.6
v -8.07303 -150.938 1431.7
v -9.19225 -150.855 1430.6
v -9.01443 -150.428 1430.95
v -8.00009 -152.004 1431.12
v -8.4682 -151.778 1430.84
v -9.61822 -150.874 1430.02
v -9.40831 -150.394 1430.48
v -3.48213 -154.283 1431.91
v -4.13315 -154.137 1431.73
v -3.72207 -154.433 1431.46
v -8.70886 -152.217 1429.87
v -7.84869 -152.445 1430.81
v -2.9509 -154.438 1431.85
v -2.44846 -154.498 1431.77
v -2.57023 -154.34 1432.14
v -2.28339 -154.809 1430.62
v -2.57002 -154.744 1431
v -2.85519 -154.876 1430.61
v -3.08925 -154.728 1431.04
v -2.80957 -154.617 1431.43
v -6.33894 -153.05 1431.53
v -6.10639 -153.378 1431.28
v -5.83232 -153.305 1431.63
v -2.01225 -154.292 1432.17
v -2.51761 -154.093 1432.56
v -1.72043 -154.64 1430.59
v -2.02308 -154.638 1431.01
v -8.80786 -151.368 1430.78
v -8.8504 -151.769 1430.4
v -7.57782 -153.124 1429.58
v -8.09303 -152.768 1429.61
v -7.9961 -152.911 1429.17
v -7.53289 -152.843 1430.55
v -7.82004 -152.839 1430.06
v -7.27064 -151.81 1431.92
v -7.67474 -151.195 1431.95
v -8.46314 -152.504 1429.59
v -8.37406 -152.643 1429.18
v -8.71628 -152.393 1429.2
v -3.30502 -154.938 1430.18
v -3.74484 -154.862 1430.02
v -3.51964 -154.989 1429.62
v -1.86977 -154.477 1431.54
v -1.53753 -154.481 1430.99
v -5.70032 -153.633 1431.24
v -6.09248 -153.635 1430.8
v -1.94977 -154.828 1430.25
v -2.66202 -155.01 1430.16
v -2.30694 -155.135 1429.82
v -7.44024 -152.458 1431.23
v -7.54316 -152.041 1431.53
v -3.88974 -154.888 1429.56
v -3.80292 -154.724 1430.54
v -3.10981 -153.922 1432.65
v -2.99357 -154.22 1432.26
v -9.23332 -151.276 1430.34
v -9.19334 -151.609 1430.12
v -9.1101 -151.894 1429.81
v -9.54019 -151.487 1429.69
v -4.24602 -154.773 1429.5
v -4.55067 -154.601 1429.87
v -4.59953 -154.647 1429.43
v -3.60588 -153.734 1432.65
v -3.25067 -153.571 1433.02
v -6.69673 -152.179 1432.11
v -6.80135 -151.718 1432.34
v -6.98064 -153.205 1430.59
v -7.13415 -152.895 1430.97
v -3.28884 -154.542 1431.47
v -7.50301 -152.668 1430.91
v -4.15742 -153.117 1432.98
v -4.60763 -152.881 1432.92
v -4.66986 -153.177 1432.59
v -6.36934 -151.98 1432.51
v -5.28005 -154.194 1430.36
v -5.16889 -153.906 1431.26
v -5.4723 -153.959 1430.81
v -5.00353 -153.399 1432.13
v -5.51905 -153.152 1432.04
v -5.32703 -153.56 1431.69
v -6.87385 -152.775 1431.4
v -6.54982 -153.238 1431.05
v -4.44297 -153.672 1432.19
v -4.77139 -153.824 1431.74
v -7.29727 -153.178 1430.11
v -6.79384 -153.48 1430.16
v -5.00549 -154.427 1429.81
v -2.80024 -153.737 1432.98
v -5.71003 -152.702 1432.36
v -5.93075 -152.213 1432.64
v -6.19035 -152.46 1432.25
v -4.06593 -154.453 1431.12
v -3.5761 -154.638 1431.04
v -7.07973 -152.327 1431.69
v -6.55263 -152.624 1431.83
v -7.03176 -153.457 1429.66
v -6.52726 -153.482 1430.59
v -6.34147 -153.716 1430.21
v -6.02638 -152.9 1431.95
v -3.87525 -153.931 1432.23
v -3.41737 -154.05 1432.33
v -6.22463 -153.974 1429.23
v -6.55976 -153.723 1429.7
v -6.68336 -153.733 1429.19
v -2.35592 -154.624 1431.35
v -2.02165 -153.985 1432.74
v -2.38343 -153.871 1432.89
v -3.3313 -154.812 1430.67
v -5.8525 -153.943 1430.29
v -7.24153 -151.454 1432.16
v -3.70294 -153.352 1433.01
v -5.22929 -152.934 1432.46
v -7.14183 -153.469 1429.17
v -4.10454 -153.502 1432.61
v -5.49177 -152.433 1432.75
v -9.60302 -151.724 1429.2
v -9.32089 -151.941 1429.22
v -9.83892 -150.69 1429.79
v -9.90417 -150.874 1429.59
v -6.09041 -153.955 1429.74
v -5.77818 -154.182 1429.26
v -5.56352 -154.19 1429.8
v -1.4406 -154.369 1431.43
v -9.92954 -151.076 1429.43
v -9.91444 -151.288 1429.29
v -5.05252 -152.654 1432.84
v -3.13237 -155.071 1429.69
v -1.43913 -154.276 1431.85
v -5.35704 -154.359 1429.31
v -9.23298 -150.381 1430.72
v -7.58189 -153.188 1429.16
v -9.02928 -152.162 1429.22
v -2.72501 -155.117 1429.75
v -1.71994 -154.088 1432.53
v -9.87656 -151.504 1429.18
v -4.96539 -154.51 1429.36
v -1.52185 -154.189 1432.22
v -9.69583 -150.563 1430.01
v -9.55837 -150.461 1430.24
v -1.91624 -154.991 1430.06
v -1.88804 -155.129 1429.91
vn 0.580965 0.72487 -0.370195
vn 0.617781 0.644458 -0.450578
vn 0.595258 0.749138 -0.290619
vn 0.667288 0.290253 -0.685915
vn 0.696379 0.248769 -0.673179
vn 0.689327 0.280598 -0.667902
vn 0.387514 0.867395 -0.312183
vn 0.347315 0.895087 -0.279628
vn 0.370784 0.841502 -0.392929
vn 0.332013 0.924379 -0.187856
vn 0.369784 0.903461 -0.216835
vn 0.641005 0.377088 -0.668519
vn 0.611912 0.418741 -0.670984
vn 0.647843 0.337556 -0.682902
vn 0.743308 0.26094 -0.615958
vn 0.721176 0.31106 -0.618989
vn 0.602705 0.533228 -0.593646
vn 0.629639 0.509305 -0.586654
vn 0.788343 0.267739 -0.553923
vn 0.764638 0.289042 -0.576006
vn 0.262691 0.847828 -0.460632
vn 0.350602 0.81297 -0.464928
vn 0.282245 0.874178 -0.395158
vn 0.6192 0.726524 -0.297917
vn 0.58258 0.656177 -0.479617
vn 0.124555 0.904434 -0.408025
vn -0.0510622 0.935584 -0.349393
vn 0.0349395 0.890823 -0.453004
vn -0.19684 0.942368 -0.270549
vn -0.0825314 0.956949 -0.278277
vn 0.0133415 0.960975 -0.276315
vn 0.0939585 0.944656 -0.31432
vn 0.0361021 0.943373 -0.329765
vn 0.475047 0.689809 -0.546346
vn 0.458225 0.756624 -0.466423
vn 0.440934 0.714581 -0.543094
vn -0.104153 0.912661 -0.395224
vn 0.0691402 0.836346 -0.543825
vn -0.2938 0.922707 -0.249587
vn -0.244322 0.941822 -0.230821
vn 0.683156 0.387808 -0.618792
vn 0.655612 0.570033 -0.495211
vn 0.542712 0.823395 -0.165781
vn 0.568091 0.802978 -0.180272
vn 0.559153 0.817527 -0.137831
vn 0.545328 0.753203 -0.367835
vn 0.555459 0.78889 -0.262904
vn 0.560025 0.458348 -0.690136
vn 0.604729 0.395777 -0.691132
vn 0.59604 0.779553 -0.19244
vn 0.576246 0.804544 -0.143698
vn 0.596092 0.780573 -0.188098
vn 0.178269 0.959725 -0.217137
vn 0.278042 0.943277 -0.18144
vn 0.249056 0.954109 -0.166272
vn -0.229196 0.940191 -0.252012
vn -0.299279 0.932696 -0.201272
vn 0.434052 0.785808 -0.440574
vn 0.449199 0.81863 -0.357862
vn -0.136802 0.892402 -0.430004
vn -0.00548956 0.954348 -0.298647
vn 0.0447249 0.850893 -0.523431
vn 0.549928 0.619599 -0.560068
vn 0.573589 0.515381 -0.636693
vn 0.310954 0.93818 -0.152073
vn 0.282287 0.926655 -0.248243
vn 0.217178 0.778934 -0.588299
vn 0.173056 0.845145 -0.505749
vn 0.736618 0.386787 -0.554788
vn 0.69914 0.53734 -0.471666
vn 0.645089 0.684312 -0.339966
vn 0.718231 0.522725 -0.459241
vn 0.34076 0.928335 -0.148585
vn 0.357712 0.92033 -0.158223
vn 0.364292 0.921137 -0.137105
vn 0.330771 0.726805 -0.601952
vn 0.282453 0.72861 -0.623977
vn 0.520969 0.52344 -0.674242
vn 0.546577 0.460567 -0.699379
vn 0.510401 0.784256 -0.352751
vn 0.514716 0.72111 -0.463754
vn 0.178415 0.910024 -0.374198
vn 0.544229 0.694185 -0.471086
vn 0.402648 0.652618 -0.641844
vn 0.426738 0.629572 -0.649256
vn 0.417898 0.651316 -0.633363
vn 0.514022 0.522955 -0.679926
vn 0.399465 0.886342 -0.234149
vn 0.408148 0.810383 -0.420351
vn 0.422219 0.843244 -0.332672
vn 0.415516 0.689705 -0.593004
vn 0.43122 0.666411 -0.608232
vn 0.421174 0.738755 -0.526168
vn 0.505808 0.666485 -0.547683
vn 0.48375 0.754203 -0.444031
vn 0.391688 0.724416 -0.567276
vn 0.393237 0.768233 -0.505156
vn 0.531114 0.808311 -0.25407
vn 0.494881 0.832304 -0.249726
vn 0.378222 0.911839 -0.159679
vn 0.16723 0.78233 -0.599994
vn 0.445097 0.611649 -0.654044
vn 0.46844 0.575148 -0.670647
vn 0.476742 0.579448 -0.661028
vn 0.323596 0.881219 -0.344585
vn 0.234135 0.91808 -0.31986
vn 0.530358 0.564787 -0.632247
vn 0.489004 0.612474 -0.621088
vn 0.511924 0.842182 -0.169303
vn 0.472092 0.815059 -0.33587
vn 0.452155 0.855246 -0.253198
vn 0.454759 0.644336 -0.614838
vn 0.351131 0.764646 -0.540393
vn 0.280419 0.794161 -0.539141
vn 0.448424 0.882562 -0.141421
vn 0.471745 0.864732 -0.172322
vn 0.48803 0.862481 -0.133985
vn -0.123424 0.95326 -0.275794
vn -0.00852564 0.863024 -0.505092
vn 0.0800953 0.816271 -0.572089
vn 0.169539 0.947953 -0.26952
vn 0.429156 0.867998 -0.249809
vn 0.570387 0.426718 -0.701834
vn 0.365663 0.680106 -0.635411
vn 0.431687 0.630984 -0.644597
vn 0.521337 0.842364 -0.136497
vn 0.386657 0.68867 -0.613376
vn 0.445579 0.603851 -0.660926
vn 0.578854 0.700786 -0.416927
vn 0.619824 0.711572 -0.330883
vn 0.787749 0.231307 -0.57092
vn 0.791042 0.304728 -0.530465
vn 0.433262 0.883663 -0.177266
vn 0.41379 0.898382 -0.147268
vn 0.403967 0.8981 -0.173862
vn -0.285247 0.938795 -0.19313
vn 0.766304 0.368446 -0.526332
vn 0.757002 0.398902 -0.517519
vn 0.434491 0.620341 -0.652989
vn 0.16116 0.960364 -0.227441
vn -0.222518 0.93932 -0.261081
vn 0.386784 0.910939 -0.143484
vn 0.66063 0.549744 -0.511224
vn 0.542451 0.829415 -0.133483
vn 0.595491 0.765641 -0.243278
vn 0.116977 0.955383 -0.271218
vn -0.0883764 0.895286 -0.436638
vn 0.683644 0.555838 -0.472942
vn 0.370606 0.918727 -0.136355
vn -0.16303 0.930867 -0.326969
vn 0.791593 0.178601 -0.584365
vn 0.808383 0.181305 -0.560041
vn 0.121832 0.753616 -0.645926
vn 0.126116 0.74919 -0.650238
g grp1
usemtl mtl1
f 3//3 2//2 1//1 
f 6//6 5//5 4//4 
f 9//9 8//8 7//7 
f 11//11 8//8 10//10 
f 14//14 13//13 12//12 
f 16//16 6//6 15//15 
f 12//12 6//6 4//4 
f 2//2 18//18 17//17 
f 20//20 15//15 19//19 
f 23//23 22//22 21//21 
f 24//24 2//2 3//3 
f 2//2 17//17 25//25 
f 13//13 17//17 12//12 
f 28//28 27//27 26//26 
f 31//31 30//30 29//29 
f 33//33 30//30 32//32 
f 36//36 35//35 34//34 
f 28//28 38//38 37//37 
f 29//29 40//40 39//39 
f 18//18 42//42 41//41 
f 45//45 44//44 43//43 
f 47//47 1//1 46//46 
f 49//49 48//48 13//13 
f 3//3 50//50 24//24 
f 52//52 50//50 51//51 
f 55//55 54//54 53//53 
f 57//57 40//40 56//56 
f 30//30 40//40 29//29 
f 59//59 35//35 58//58 
f 62//62 61//61 60//60 
f 12//12 18//18 41//41 
f 64//64 63//63 17//17 
f 3//3 1//1 47//47 
f 25//25 1//1 2//2 
f 27//27 33//33 26//26 
f 65//65 54//54 55//55 
f 66//66 54//54 10//10 
f 48//48 64//64 13//13 
f 68//68 67//67 38//38 
f 15//15 41//41 69//69 
f 71//71 70//70 42//42 
f 69//69 70//70 72//72 
f 61//61 29//29 60//60 
f 75//75 74//74 73//73 
f 63//63 25//25 17//17 
f 64//64 17//17 13//13 
f 77//77 67//67 76//76 
f 79//79 78//78 48//48 
f 81//81 80//80 46//46 
f 82//82 26//26 33//33 
f 68//68 26//26 21//21 
f 83//83 46//46 25//25 
f 86//86 85//85 84//84 
f 78//78 79//79 87//87 
f 7//7 11//11 88//88 
f 90//90 58//58 89//89 
f 74//74 11//11 10//10 
f 93//93 92//92 91//91 
f 34//34 95//95 94//94 
f 97//97 91//91 96//96 
f 80//80 99//99 98//98 
f 74//74 75//75 100//100 
f 67//67 101//101 38//38 
f 104//104 103//103 102//102 
f 8//8 11//11 7//7 
f 93//93 91//91 97//97 
f 35//35 36//36 58//58 
f 106//106 66//66 105//105 
f 8//8 9//9 105//105 
f 7//7 89//89 9//9 
f 108//108 94//94 107//107 
f 99//99 109//109 98//98 
f 59//59 111//111 110//110 
f 104//104 112//112 108//108 
f 104//104 87//87 103//103 
f 22//22 113//113 21//21 
f 106//106 23//23 82//82 
f 114//114 67//67 68//68 
f 78//78 108//108 107//107 
f 80//80 81//81 95//95 
f 88//88 90//90 7//7 
f 110//110 99//99 80//80 
f 21//21 114//114 68//68 
f 101//101 67//67 77//77 
f 48//48 107//107 64//64 
f 46//46 98//98 47//47 
f 117//117 116//116 115//115 
f 99//99 110//110 111//111 
f 30//30 33//33 118//118 
f 11//11 74//74 100//100 
f 38//38 120//120 119//119 
f 66//66 106//106 121//121 
f 90//90 88//88 122//122 
f 29//29 61//61 31//31 
f 48//48 123//123 79//79 
f 76//76 124//124 77//77 
f 121//121 32//32 31//31 
f 42//42 18//18 2//2 
f 91//91 125//125 86//86 
f 58//58 36//36 93//93 
f 109//109 126//126 43//43 
f 127//127 113//113 96//96 
f 102//102 128//128 125//125 
f 11//11 100//100 88//88 
f 72//72 130//130 129//129 
f 127//127 96//96 86//86 
f 41//41 42//42 69//69 
f 70//70 69//69 42//42 
f 76//76 113//113 127//127 
f 93//93 89//89 58//58 
f 40//40 57//57 39//39 
f 91//91 86//86 96//96 
f 81//81 94//94 95//95 
f 97//97 96//96 22//22 
f 19//19 132//132 131//131 
f 135//135 134//134 133//133 
f 80//80 98//98 46//46 
f 133//133 115//115 116//116 
f 127//127 84//84 124//124 
f 59//59 110//110 95//95 
f 57//57 56//56 136//136 
f 54//54 66//66 53//53 
f 6//6 16//16 5//5 
f 72//72 138//138 137//137 
f 125//125 139//139 86//86 
f 19//19 137//137 132//132 
f 55//55 53//53 140//140 
f 141//141 136//136 56//56 
f 122//122 133//133 111//111 
f 135//135 88//88 100//100 
f 59//59 58//58 90//90 
f 97//97 9//9 89//89 
f 126//126 109//109 117//117 
f 37//37 27//27 28//28 
f 31//31 53//53 121//121 
f 59//59 90//90 122//122 
f 142//142 135//135 100//100 
f 111//111 116//116 99//99 
f 16//16 20//20 143//143 
f 43//43 144//144 45//45 
f 1//1 25//25 46//46 
f 24//24 52//52 145//145 
f 140//140 61//61 146//146 
f 95//95 110//110 80//80 
f 26//26 68//68 28//28 
f 48//48 49//49 123//123 
f 25//25 63//63 83//83 
f 36//36 112//112 92//92 
f 92//92 125//125 91//91 
f 37//37 119//119 147//147 
f 27//27 37//37 56//56 
f 139//139 125//125 128//128 
f 84//84 127//127 86//86 
f 23//23 106//106 105//105 
f 44//44 3//3 47//47 
f 78//78 87//87 104//104 
f 61//61 62//62 146//146 
f 13//13 14//14 49//49 
f 74//74 10//10 73//73 
f 66//66 8//8 105//105 
f 116//116 117//117 109//109 
f 33//33 32//32 82//82 
f 89//89 93//93 97//97 
f 8//8 66//66 10//10 
f 122//122 135//135 133//133 
f 40//40 30//30 118//118 
f 50//50 52//52 24//24 
f 2//2 24//24 42//42 
f 111//111 59//59 122//122 
f 73//73 10//10 65//65 
f 54//54 65//65 10//10 
f 34//34 112//112 36//36 
f 14//14 12//12 4//4 
f 18//18 12//12 17//17 
f 53//53 31//31 61//61 
f 71//71 42//42 24//24 
f 92//92 102//102 125//125 
f 108//108 34//34 94//94 
f 6//6 12//12 41//41 
f 35//35 95//95 34//34 
f 148//148 72//72 129//129 
f 112//112 34//34 108//108 
f 113//113 76//76 114//114 
f 71//71 130//130 72//72 
f 35//35 59//59 95//95 
f 130//130 71//71 145//145 
f 70//70 71//71 72//72 
f 105//105 22//22 23//23 
f 149//149 100//100 75//75 
f 23//23 21//21 82//82 
f 145//145 71//71 24//24 
f 113//113 22//22 96//96 
f 19//19 69//69 72//72 
f 141//141 37//37 150//150 
f 85//85 86//86 139//139 
f 137//137 19//19 72//72 
f 124//124 76//76 127//127 
f 32//32 121//121 106//106 
f 19//19 131//131 151//151 
f 60//60 29//29 39//39 
f 44//44 50//50 3//3 
f 90//90 89//89 7//7 
f 88//88 135//135 122//122 
f 112//112 102//102 92//92 
f 152//152 20//20 19//19 
f 72//72 148//148 138//138 
f 44//44 45//45 51//51 
f 40//40 118//118 56//56 
f 36//36 92//92 93//93 
f 147//147 150//150 37//37 
f 67//67 114//114 76//76 
f 128//128 102//102 103//103 
f 134//134 135//135 142//142 
f 121//121 53//53 66//66 
f 46//46 83//83 81//81 
f 37//37 141//141 56//56 
f 119//119 37//37 38//38 
f 100//100 149//149 142//142 
f 115//115 133//133 134//134 
f 151//151 152//152 19//19 
f 111//111 133//133 116//116 
f 154//154 62//62 153//153 
f 94//94 81//81 63//63 
f 98//98 43//43 47//47 
f 144//144 43//43 126//126 
f 44//44 47//47 43//43 
f 153//153 62//62 60//60 
f 112//112 104//104 102//102 
f 114//114 21//21 113//113 
f 78//78 107//107 48//48 
f 99//99 116//116 109//109 
f 83//83 63//63 81//81 
f 107//107 63//63 64//64 
f 108//108 78//78 104//104 
f 27//27 118//118 33//33 
f 140//140 53//53 61//61 
f 107//107 94//94 63//63 
f 30//30 31//31 32//32 
f 118//118 27//27 56//56 
f 68//68 38//38 28//28 
f 22//22 105//105 9//9 
f 120//120 38//38 101//101 
f 98//98 109//109 43//43 
f 50//50 44//44 51//51 
f 9//9 97//97 22//22 
f 6//6 41//41 15//15 
f 16//16 15//15 20//20 
f 15//15 69//69 19//19 
f 26//26 82//82 21//21 
f 82//82 32//32 106//106 
