v 0.198023 -152.971 1435.19
v 0.808334 -152.973 1435.26
v 0.62965 -152.906 1434.71
v 1.04421 -152.87 1434.76
v 1.46895 -152.889 1435.26
v 1.39188 -152.823 1434.82
v 1.50148 -152.982 1435.77
v 0.68512 -153.153 1436.25
v 0.205043 -153.046 1435.72
v 0.209149 -153.152 1436.24
v 1.13158 -153.304 1436.84
v 0.678629 -153.301 1436.8
v 1.52167 -153.092 1436.29
v 1.57944 -153.193 1436.73
v 0.215515 -154.31 1435.01
v 0.685404 -153.907 1434.58
v 0.703988 -154.241 1434.53
v 0.60061 -154.286 1434.92
v 0.590117 -154.326 1435.22
v 0.896874 -154.267 1434.92
v 1.00874 -154.327 1435.36
v 0.612343 -154.396 1435.62
v 0.214718 -154.377 1435.5
v 0.213236 -154.038 1435.52
v 0.245589 -153.96 1435.04
v 0.666819 -153.574 1434.62
v 1.11722 -153.552 1434.65
v 1.16699 -153.873 1434.59
v 1.18121 -154.193 1434.54
v 1.6127 -154.133 1434.58
v 1.55749 -153.805 1434.64
v 1.63208 -153.866 1435.05
v 1.68795 -154.199 1435.02
v 1.29941 -154.233 1434.95
v 1.40571 -154.284 1435.31
v 1.70647 -154.289 1435.51
v 1.32635 -154.378 1435.73
v 1.72556 -154.387 1435.97
v 1.43978 -154.466 1436.14
v 1.06988 -154.487 1436.09
v 0.94384 -154.411 1435.75
v 0.709693 -154.47 1435.95
v 0.214159 -154.472 1435.95
v 0.212907 -154.142 1436.02
v 0.210702 -153.71 1435.6
v 0.235413 -153.64 1435.1
v 0.648235 -153.24 1434.66
v 1.08283 -153.222 1434.7
v 1.50229 -153.478 1434.7
v 1.44708 -153.15 1434.76
v 1.52548 -153.216 1435.2
v 1.5832 -153.548 1435.17
v 1.65355 -153.951 1435.56
v 1.60316 -153.627 1435.66
v 1.62461 -153.75 1436.14
v 1.67268 -154.071 1436.03
v 1.74634 -154.159 1436.48
v 1.80197 -154.482 1436.39
v 1.28409 -154.597 1436.49
v 0.72093 -154.604 1436.45
v 0.710354 -154.278 1436.54
v 0.703551 -154.141 1436.03
v 0.211653 -153.812 1436.1
v 0.207868 -153.377 1435.66
v 0.229772 -153.306 1435.15
v 1.55324 -153.309 1435.71
v 1.57109 -153.416 1436.21
v 1.63507 -153.515 1436.64
v 1.69071 -153.837 1436.56
v 1.20767 -153.943 1436.66
v 1.24518 -154.266 1436.57
v 0.699781 -153.952 1436.62
v 0.697405 -153.812 1436.1
v 0.210401 -153.482 1436.17
v 0.691262 -153.483 1436.17
v 0.689205 -153.627 1436.71
v 1.17015 -153.62 1436.74
v -0.198023 -152.971 1435.19
v -0.808334 -152.973 1435.26
v -0.62965 -152.906 1434.71
v -1.04421 -152.87 1434.76
v -1.46895 -152.889 1435.26
v -1.39188 -152.823 1434.82
v -1.50148 -152.982 1435.77
v -0.68512 -153.153 1436.25
v -0.205043 -153.046 1435.72
v -0.209149 -153.152 1436.24
v -1.13158 -153.304 1436.84
v -0.678629 -153.301 1436.8
v -1.52167 -153.092 1436.29
v -1.57944 -153.193 1436.73
v -0.215515 -154.31 1435.01
v -0.685404 -153.907 1434.58
v -0.703988 -154.241 1434.53
v -0.60061 -154.286 1434.92
v -0.590117 -154.326 1435.22
v -0.896873 -154.267 1434.92
v -1.00874 -154.327 1435.36
v -0.612343 -154.396 1435.62
v -0.214718 -154.377 1435.5
v -0.213236 -154.038 1435.52
v -0.245589 -153.96 1435.04
v -0.666819 -153.574 1434.62
v -1.11722 -153.552 1434.65
v -1.16699 -153.873 1434.59
v -1.18121 -154.193 1434.54
v -1.6127 -154.133 1434.58
v -1.55749 -153.805 1434.64
v -1.63208 -153.866 1435.05
v -1.68795 -154.199 1435.02
v -1.29941 -154.233 1434.95
v -1.40571 -154.284 1435.31
v -1.70647 -154.289 1435.51
v -1.32635 -154.378 1435.73
v -1.72556 -154.387 1435.97
v -1.43978 -154.466 1436.14
v -1.06988 -154.487 1436.09
v -0.94384 -154.411 1435.75
v -0.709693 -154.47 1435.95
v -0.214159 -154.472 1435.95
v -0.212907 -154.142 1436.02
v -0.210702 -153.71 1435.6
v -0.235413 -153.64 1435.1
v -0.648234 -153.24 1434.66
v -1.08283 -153.222 1434.7
v -1.50229 -153.478 1434.7
v -1.44708 -153.15 1434.76
v -1.52548 -153.216 1435.2
v -1.5832 -153.548 1435.17
v -1.65355 -153.951 1435.56
v -1.60316 -153.627 1435.66
v -1.62461 -153.75 1436.14
v -1.67268 -154.071 1436.03
v -1.74634 -154.159 1436.48
v -1.80197 -154.482 1436.39
v -1.28409 -154.597 1436.49
v -0.72093 -154.604 1436.45
v -0.710354 -154.278 1436.54
v -0.70355 -154.141 1436.03
v -0.211653 -153.812 1436.1
v -0.207868 -153.377 1435.66
v -0.229772 -153.306 1435.15
v -1.55324 -153.309 1435.71
v -1.57109 -153.416 1436.21
v -1.63507 -153.515 1436.64
v -1.69071 -153.837 1436.56
v -1.20767 -153.943 1436.66
v -1.24518 -154.266 1436.57
v -0.699781 -153.952 1436.62
v -0.697405 -153.812 1436.1
v -0.210401 -153.482 1436.17
v -0.691262 -153.483 1436.17
v -0.689205 -153.627 1436.71
v -1.17015 -153.62 1436.74
v 0.198023 -152.971 1435.19
v 0.198023 -152.971 1435.19
v 0.62965 -152.906 1434.71
v 0.62965 -152.906 1434.71
v 1.04421 -152.87 1434.76
v 1.46895 -152.889 1435.26
v 1.39188 -152.823 1434.82
v 1.39188 -152.823 1434.82
v 1.50148 -152.982 1435.77
v 0.68512 -153.153 1436.25
v 0.68512 -153.153 1436.25
v 0.205043 -153.046 1435.72
v 0.209149 -153.152 1436.24
v 0.209149 -153.152 1436.24
v 1.13158 -153.304 1436.84
v 0.678629 -153.301 1436.8
v 0.678629 -153.301 1436.8
v 1.52167 -153.092 1436.29
v 1.57944 -153.193 1436.73
v 1.57944 -153.193 1436.73
v 0.215515 -154.31 1435.01
v 0.215515 -154.31 1435.01
v 0.685404 -153.907 1434.58
v 0.703988 -154.241 1434.53
v 0.703988 -154.241 1434.53
v 0.214718 -154.377 1435.5
v 0.245589 -153.96 1435.04
v 0.666819 -153.574 1434.62
v 1.18121 -154.193 1434.54
v 1.6127 -154.133 1434.58
v 1.6127 -154.133 1434.58
v 1.55749 -153.805 1434.64
v 1.68795 -154.199 1435.02
v 1.70647 -154.289 1435.51
v 1.72556 -154.387 1435.97
v 0.709693 -154.47 1435.95
v 0.709693 -154.47 1435.95
v 0.214159 -154.472 1435.95
v 0.214159 -154.472 1435.95
v 0.212907 -154.142 1436.02
v 0.235413 -153.64 1435.1
v 0.648235 -153.24 1434.66
v 1.50229 -153.478 1434.7
v 1.44708 -153.15 1434.76
v 1.74634 -154.159 1436.48
v 1.80197 -154.482 1436.39
v 1.80197 -154.482 1436.39
v 1.28409 -154.597 1436.49
v 0.72093 -154.604 1436.45
v 0.72093 -154.604 1436.45
v 0.710354 -154.278 1436.54
v 0.703551 -154.141 1436.03
v 0.211653 -153.812 1436.1
v 0.229772 -153.306 1435.15
v 1.63507 -153.515 1436.64
v 1.69071 -153.837 1436.56
v 0.699781 -153.952 1436.62
v 0.697405 -153.812 1436.1
v 0.210401 -153.482 1436.17
v 0.691262 -153.483 1436.17
v 0.689205 -153.627 1436.71
v -0.198023 -152.971 1435.19
v -0.198023 -152.971 1435.19
v -0.62965 -152.906 1434.71
v -0.62965 -152.906 1434.71
v -1.04421 -152.87 1434.76
v -1.46895 -152.889 1435.26
v -1.39188 -152.823 1434.82
v -1.39188 -152.823 1434.82
v -1.50148 -152.982 1435.77
v -0.68512 -153.153 1436.25
v -0.68512 -153.153 1436.25
v -0.205043 -153.046 1435.72
v -0.209149 -153.152 1436.24
v -0.209149 -153.152 1436.24
v -1.13158 -153.304 1436.84
v -0.678629 -153.301 1436.8
v -0.678629 -153.301 1436.8
v -1.52167 -153.092 1436.29
v -1.57944 -153.193 1436.73
v -1.57944 -153.193 1436.73
v -0.215515 -154.31 1435.01
v -0.215515 -154.31 1435.01
v -0.685404 -153.907 1434.58
v -0.703988 -154.241 1434.53
v -0.703988 -154.241 1434.53
v -0.214718 -154.377 1435.5
v -0.245589 -153.96 1435.04
v -0.666819 -153.574 1434.62
v -1.18121 -154.193 1434.54
v -1.6127 -154.133 1434.58
v -1.6127 -154.133 1434.58
v -1.55749 -153.805 1434.64
v -1.68795 -154.199 1435.02
v -1.70647 -154.289 1435.51
v -1.72556 -154.387 1435.97
v -0.709693 -154.47 1435.95
v -0.709693 -154.47 1435.95
v -0.214159 -154.472 1435.95
v -0.214159 -154.472 1435.95
v -0.212907 -154.142 1436.02
v -0.235413 -153.64 1435.1
v -0.648234 -153.24 1434.66
v -1.50229 -153.478 1434.7
v -1.44708 -153.15 1434.76
v -1.74634 -154.159 1436.48
v -1.80197 -154.482 1436.39
v -1.80197 -154.482 1436.39
v -1.28409 -154.597 1436.49
v -0.72093 -154.604 1436.45
v -0.72093 -154.604 1436.45
v -0.710354 -154.278 1436.54
v -0.70355 -154.141 1436.03
v -0.211653 -153.812 1436.1
v -0.229772 -153.306 1435.15
v -1.63507 -153.515 1436.64
v -1.69071 -153.837 1436.56
v -0.699781 -153.952 1436.62
v -0.697405 -153.812 1436.1
v -0.210401 -153.482 1436.17
v -0.691262 -153.483 1436.17
v -0.689205 -153.627 1436.71
vn -0.0124299 0.991136 0.132269
vn -0.0668766 0.985429 0.15639
vn -0.0577926 0.988676 0.138494
vn -0.13106 0.978803 0.157375
vn -0.137637 0.976095 0.168213
vn -0.164592 0.970465 0.176371
vn -0.104991 0.97678 0.186755
vn -0.0462716 0.974279 0.220544
vn 0.00114116 0.984713 0.17418
vn -0.00192977 0.979824 0.199854
vn -0.0928503 0.958498 0.269556
vn -0.0175906 0.965846 0.258521
vn -0.114349 0.960693 0.252969
vn -0.175241 0.95403 0.243141
vn -0.717007 0.0841429 -0.691969
vn -0.721063 0.0719644 -0.689122
vn -0.704427 0.0521401 -0.707859
vn 0.0471693 -0.99212 -0.116076
vn 0.0383491 -0.988003 -0.149597
vn 0.0764762 -0.988685 -0.12905
vn 0.0678074 -0.981558 -0.178736
vn 0.0270311 -0.979236 -0.200915
vn 0.01895 -0.984979 -0.171631
vn -0.999512 0.0100212 -0.0295814
vn -0.997468 0.035641 -0.0615448
vn -0.741871 0.0633686 -0.667542
vn 0.0735648 0.169197 -0.982833
vn 0.0615411 0.172578 -0.983072
vn 0.0319748 0.149532 -0.98824
vn 0.085001 0.178676 -0.980229
vn 0.101299 0.190883 -0.976372
vn 0.978266 0.180778 -0.101565
vn 0.984483 0.166767 -0.0546008
vn 0.109318 -0.981893 -0.154713
vn 0.0992965 -0.977752 -0.184774
vn 0.10534 -0.974743 -0.196928
vn 0.0934001 -0.971236 -0.219037
vn 0.118441 -0.965806 -0.230629
vn 0.11876 -0.958088 -0.260699
vn 0.0631142 -0.963405 -0.260515
vn 0.0532226 -0.973394 -0.222872
vn 0.0346785 -0.970926 -0.236855
vn 0.010359 -0.977369 -0.211288
vn -0.999988 -0.00471524 -0.00112923
vn -0.999707 -0.00443257 -0.0238114
vn -0.998375 -0.00799085 -0.0564174
vn -0.755804 0.0538455 -0.65258
vn 0.0980601 0.1715 -0.980292
vn 0.119323 0.190802 -0.974349
vn 0.141491 0.195364 -0.970471
vn 0.979882 0.180388 -0.0853883
vn 0.983421 0.171754 -0.0581753
vn 0.987618 0.156648 -0.00847213
vn 0.987617 0.156692 -0.00777598
vn 0.982299 0.175177 -0.0663415
vn 0.984149 0.169707 -0.0514818
vn 0.973332 0.193834 -0.122689
vn 0.970903 0.201312 -0.129692
vn 0.0958366 -0.953043 -0.287271
vn 0.0417015 -0.962206 -0.269109
vn -0.061132 -0.253747 0.965337
vn -0.999629 -0.0254767 0.0096074
vn -0.00872187 -0.213638 0.976874
vn -0.999708 -0.02031 -0.0131193
vn -0.998231 -0.0329864 -0.04946
vn 0.987154 0.159332 -0.0118669
vn 0.984413 0.168486 -0.0504367
vn 0.976029 0.190294 -0.105617
vn 0.973832 0.197403 -0.112617
vn 0.0879157 -0.244842 0.965569
vn 0.0845632 -0.23557 0.968171
vn -0.0563691 -0.262639 0.963246
vn -0.999724 -0.0234594 0.00116784
vn -0.0139992 -0.213785 0.97678
vn -0.0176245 -0.216341 0.976159
vn -0.999616 -0.0244656 -0.0130375
vn 0.0904551 -0.25551 0.962565
vn 0.0124299 0.991136 0.132269
vn 0.0668766 0.985429 0.15639
vn 0.0577926 0.988676 0.138494
vn 0.13106 0.978803 0.157376
vn 0.137637 0.976095 0.168213
vn 0.164592 0.970465 0.176371
vn 0.104991 0.97678 0.186755
vn 0.0462715 0.974279 0.220544
vn -0.00114116 0.984713 0.17418
vn 0.00192977 0.979824 0.199854
vn 0.0928502 0.958498 0.269556
vn 0.0175906 0.965846 0.258521
vn 0.114349 0.960693 0.252969
vn 0.175241 0.95403 0.243141
vn 0.717007 0.084143 -0.691969
vn 0.721063 0.0719644 -0.689122
vn 0.704427 0.0521403 -0.707859
vn -0.0471693 -0.99212 -0.116076
vn -0.0383491 -0.988003 -0.149597
vn -0.0764762 -0.988685 -0.12905
vn -0.0678074 -0.981558 -0.178736
vn -0.0270311 -0.979236 -0.200915
vn -0.01895 -0.984979 -0.171631
vn 0.999512 0.0100212 -0.0295814
vn 0.997468 0.035641 -0.0615448
vn 0.741871 0.0633685 -0.667542
vn -0.0735648 0.169197 -0.982833
vn -0.0615411 0.172578 -0.983072
vn -0.0319748 0.149532 -0.98824
vn -0.0850011 0.178676 -0.980229
vn -0.101299 0.190883 -0.976372
vn -0.978266 0.180778 -0.101565
vn -0.984483 0.166767 -0.0546008
vn -0.109318 -0.981893 -0.154713
vn -0.0992965 -0.977752 -0.184774
vn -0.10534 -0.974743 -0.196928
vn -0.0934001 -0.971236 -0.219037
vn -0.118441 -0.965806 -0.230629
vn -0.11876 -0.958088 -0.260699
vn -0.0631141 -0.963405 -0.260515
vn -0.0532226 -0.973394 -0.222872
vn -0.0346785 -0.970926 -0.236855
vn -0.010359 -0.977369 -0.211288
vn 0.999988 -0.00471523 -0.00112923
vn 0.999707 -0.00443256 -0.0238114
vn 0.998375 -0.00799084 -0.0564174
vn 0.755804 0.0538456 -0.65258
vn -0.0980601 0.1715 -0.980292
vn -0.119323 0.190802 -0.974349
vn -0.141491 0.195364 -0.970471
vn -0.979882 0.180388 -0.0853881
vn -0.983421 0.171754 -0.0581752
vn -0.987618 0.156648 -0.00847207
vn -0.987617 0.156692 -0.00777609
vn -0.982299 0.175177 -0.0663413
vn -0.984149 0.169707 -0.0514818
vn -0.973332 0.193835 -0.122689
vn -0.970903 0.201312 -0.129692
vn -0.0958365 -0.953043 -0.287271
vn -0.0417015 -0.962206 -0.269109
vn 0.061132 -0.253747 0.965337
vn 0.999629 -0.0254769 0.00960752
vn 0.00872187 -0.213638 0.976874
vn 0.999708 -0.02031 -0.0131193
vn 0.998231 -0.0329864 -0.04946
vn -0.987154 0.159332 -0.011867
vn -0.984413 0.168486 -0.0504366
vn -0.976029 0.190294 -0.105617
vn -0.973832 0.197403 -0.112617
vn -0.0879157 -0.244842 0.965569
vn -0.0845632 -0.23557 0.968171
vn 0.0563691 -0.262639 0.963246
vn 0.999724 -0.0234592 0.00116796
vn 0.0139992 -0.213785 0.97678
vn 0.0176245 -0.216341 0.976159
vn 0.999616 -0.0244657 -0.0130375
vn -0.0904551 -0.25551 0.962565
vn -0.998563 -0.0490954 -0.0215073
vn -0.746542 0.0111822 -0.665245
vn -0.753074 0.0263619 -0.657407
vn 0.115214 0.133435 -0.984338
vn 0.12084 0.173314 -0.977425
vn 0.976491 0.187497 -0.106352
vn 0.154248 0.204392 -0.96666
vn 0.971357 0.190084 -0.142595
vn 0.98608 0.165054 -0.020089
vn -0.0212847 -0.218916 0.975511
vn -0.999663 -0.0220471 -0.0137083
vn -0.999939 -0.00828023 0.00724819
vn -0.0185447 -0.215091 0.976418
vn -0.999963 -0.00526017 0.00678346
vn 0.153458 -0.253603 0.955058
vn -0.999445 -0.0273016 -0.0190779
vn -0.0729996 -0.28148 0.956786
vn 0.986554 0.160138 -0.032661
vn 0.283236 -0.195144 0.938987
vn 0.97855 0.182758 -0.0950769
vn 0.0334388 -0.99164 -0.124627
vn -0.998704 0.0428452 -0.0274622
vn 0.0225661 0.146313 -0.988981
vn 0.0667267 -0.99216 -0.105668
vn 0.00146357 0.128063 -0.991765
vn -0.99999 -0.003945 -0.00190208
vn -0.735623 0.0874229 -0.671726
vn 0.0587912 0.143192 -0.987947
vn 0.115357 -0.985297 -0.126027
vn 0.972163 0.183807 -0.145303
vn 0.132023 -0.97929 -0.153496
vn 0.970131 0.191111 -0.149406
vn 0.110265 -0.978273 -0.175568
vn 0.987225 0.159254 -0.00498695
vn 0.978757 0.185825 -0.0866267
vn -0.999611 -0.0223874 0.0166615
vn 8.65482e-05 -0.218586 0.975818
vn -0.999992 -0.00337925 -0.0019275
vn -0.00264229 -0.214741 0.976667
vn -0.00537044 -0.211069 0.977456
vn -0.752228 0.0728527 -0.654863
vn 0.0899054 0.146732 -0.985082
vn 0.970871 0.191222 -0.144372
vn 0.970643 0.192091 -0.144753
vn 0.22648 -0.214276 0.950154
vn 0.142721 -0.955354 -0.258705
vn 0.223372 -0.204413 0.953058
vn 0.032842 -0.23523 0.971385
vn -0.071118 -0.262048 0.962431
vn -0.999553 -0.0280024 0.01048
vn -0.999591 -0.0284787 0.00275097
vn -0.00526033 -0.214788 0.976647
vn -0.999982 -0.00574895 0.00175995
vn -0.755652 0.0429409 -0.653564
vn 0.26263 -0.217338 0.940101
vn 0.239509 -0.212303 0.947398
vn -0.999637 -0.0264184 -0.00535162
vn -0.0121933 -0.21617 0.97628
vn -0.999969 -0.00632509 0.00464205
vn -0.999744 -0.021551 -0.00682859
vn -0.0587433 -0.263488 0.962872
vn 0.998563 -0.0490955 -0.0215073
vn 0.746542 0.0111822 -0.665245
vn 0.753074 0.0263621 -0.657407
vn -0.115214 0.133435 -0.984338
vn -0.12084 0.173314 -0.977425
vn -0.976491 0.187498 -0.106352
vn -0.154248 0.204392 -0.96666
vn -0.971357 0.190085 -0.142595
vn -0.98608 0.165054 -0.020089
vn 0.0212847 -0.218916 0.975511
vn 0.999663 -0.0220471 -0.0137082
vn 0.999939 -0.00828024 0.0072482
vn 0.0185447 -0.215091 0.976418
vn 0.999963 -0.00526017 0.00678346
vn -0.153458 -0.253603 0.955058
vn 0.999445 -0.0273015 -0.0190778
vn 0.0729996 -0.28148 0.956786
vn -0.986554 0.160137 -0.0326612
vn -0.283236 -0.195144 0.938987
vn -0.97855 0.182757 -0.0950768
vn -0.0334387 -0.99164 -0.124627
vn 0.998704 0.0428452 -0.0274622
vn -0.0225661 0.146313 -0.988981
vn -0.0667267 -0.99216 -0.105668
vn -0.00146357 0.128063 -0.991765
vn 0.99999 -0.00394498 -0.00190207
vn 0.735623 0.0874229 -0.671726
vn -0.0587912 0.143192 -0.987947
vn -0.115357 -0.985297 -0.126027
vn -0.972163 0.183807 -0.145304
vn -0.132023 -0.97929 -0.153496
vn -0.970131 0.191111 -0.149407
vn -0.110265 -0.978273 -0.175568
vn -0.987225 0.159255 -0.00498693
vn -0.978757 0.185825 -0.0866267
vn 0.99961 -0.0223881 0.0166613
vn -8.65481e-05 -0.218586 0.975818
vn 0.999992 -0.0033793 -0.00192748
vn 0.00264229 -0.214741 0.976667
vn 0.00537044 -0.211069 0.977456
vn 0.752228 0.0728527 -0.654863
vn -0.0899054 0.146732 -0.985082
vn -0.970871 0.191222 -0.144372
vn -0.970643 0.192092 -0.144753
vn -0.22648 -0.214276 0.950154
vn -0.142721 -0.955355 -0.258705
vn -0.223372 -0.204413 0.953058
vn -0.032842 -0.23523 0.971385
vn 0.071118 -0.262048 0.962431
vn 0.999553 -0.0280029 0.0104799
vn 0.999591 -0.0284785 0.00275117
vn 0.00526033 -0.214788 0.976647
vn 0.999982 -0.00574894 0.00175995
vn 0.755652 0.042941 -0.653564
vn -0.26263 -0.217338 0.940101
vn -0.239509 -0.212303 0.947398
vn 0.999637 -0.0264186 -0.00535168
vn 0.0121933 -0.21617 0.97628
vn 0.999969 -0.00632509 0.00464205
vn 0.999744 -0.0215513 -0.00682868
vn 0.0587433 -0.263488 0.962872
g grp1
usemtl mtl1
f 1//1 2//2 3//3 
f 4//4 3//3 2//2 
f 4//4 2//2 5//5 
f 5//5 6//6 4//4 
f 7//7 5//5 2//2 
f 8//8 7//7 2//2 
f 9//9 8//8 2//2 
f 1//1 9//9 2//2 
f 8//8 9//9 10//10 
f 11//11 8//8 12//12 
f 13//13 11//11 14//14 
f 13//13 7//7 8//8 
f 11//11 13//13 8//8 
f 15//15 16//16 17//17 
f 178//178 18//18 175//175 
f 19//19 175//175 18//18 
f 19//19 18//18 20//20 
f 20//20 21//21 19//19 
f 19//19 21//21 22//22 
f 22//22 23//23 19//19 
f 175//175 19//19 23//23 
f 176//176 180//180 24//24 
f 176//176 24//24 25//25 
f 15//15 181//181 16//16 
f 181//181 26//26 16//16 
f 177//177 182//182 27//27 
f 177//177 27//27 28//28 
f 29//29 177//177 28//28 
f 30//30 29//29 28//28 
f 30//30 28//28 31//31 
f 184//184 186//186 32//32 
f 184//184 32//32 33//33 
f 187//187 34//34 185//185 
f 183//183 185//185 34//34 
f 34//34 20//20 183//183 
f 178//178 183//183 20//20 
f 178//178 20//20 18//18 
f 29//29 179//179 177//177 
f 20//20 34//34 21//21 
f 35//35 21//21 34//34 
f 34//34 187//187 35//35 
f 187//187 36//36 35//35 
f 37//37 35//35 36//36 
f 36//36 38//38 37//37 
f 37//37 38//38 39//39 
f 37//37 39//39 40//40 
f 41//41 37//37 40//40 
f 41//41 40//40 42//42 
f 22//22 41//41 42//42 
f 42//42 43//43 22//22 
f 23//23 22//22 43//43 
f 180//180 192//192 44//44 
f 180//180 44//44 24//24 
f 44//44 45//45 24//24 
f 24//24 45//45 46//46 
f 24//24 46//46 25//25 
f 181//181 195//195 26//26 
f 195//195 47//47 26//26 
f 182//182 196//196 48//48 
f 182//182 48//48 27//27 
f 49//49 27//27 48//48 
f 49//49 48//48 50//50 
f 197//197 198//198 51//51 
f 197//197 51//51 52//52 
f 32//32 197//197 52//52 
f 53//53 32//32 52//52 
f 53//53 52//52 54//54 
f 53//53 54//54 55//55 
f 53//53 55//55 56//56 
f 188//188 53//53 56//56 
f 188//188 56//56 189//189 
f 189//189 56//56 57//57 
f 189//189 57//57 58//58 
f 200//200 39//39 38//38 
f 200//200 59//59 39//39 
f 39//39 59//59 40//40 
f 60//60 40//40 59//59 
f 202//202 61//61 203//203 
f 204//204 205//205 62//62 
f 204//204 62//62 190//190 
f 42//42 40//40 60//60 
f 193//193 191//191 206//206 
f 193//193 206//206 194//194 
f 206//206 63//63 194//194 
f 44//44 207//207 45//45 
f 207//207 64//64 45//45 
f 45//45 64//64 65//65 
f 45//45 65//65 46//46 
f 195//195 208//208 47//47 
f 208//208 157//157 47//47 
f 196//196 158//158 159//159 
f 196//196 159//159 48//48 
f 50//50 48//48 159//159 
f 50//50 159//159 161//161 
f 198//198 162//162 160//160 
f 198//198 160//160 51//51 
f 51//51 160//160 163//163 
f 51//51 163//163 66//66 
f 52//52 51//51 66//66 
f 52//52 66//66 54//54 
f 54//54 66//66 67//67 
f 54//54 67//67 55//55 
f 55//55 67//67 68//68 
f 55//55 68//68 69//69 
f 57//57 55//55 69//69 
f 199//199 210//210 70//70 
f 199//199 70//70 71//71 
f 201//201 199//199 71//71 
f 201//201 71//71 202//202 
f 202//202 71//71 61//61 
f 71//71 72//72 61//61 
f 205//205 211//211 73//73 
f 205//205 73//73 62//62 
f 206//206 212//212 63//63 
f 212//212 74//74 63//63 
f 207//207 213//213 64//64 
f 213//213 166//166 64//64 
f 64//64 166//166 155//155 
f 64//64 155//155 65//65 
f 208//208 156//156 157//157 
f 75//75 164//164 167//167 
f 75//75 167//167 74//74 
f 212//212 75//75 74//74 
f 211//211 214//214 73//73 
f 211//211 76//76 214//214 
f 76//76 165//165 214//214 
f 76//76 170//170 165//165 
f 77//77 169//169 171//171 
f 77//77 171//171 215//215 
f 70//70 77//77 215//215 
f 70//70 215//215 72//72 
f 71//71 70//70 72//72 
f 210//210 77//77 70//70 
f 210//210 209//209 77//77 
f 209//209 169//169 77//77 
f 209//209 173//173 169//169 
f 67//67 172//172 174//174 
f 67//67 174//174 68//68 
f 66//66 172//172 67//67 
f 66//66 163//163 172//172 
f 213//213 168//168 166//166 
f 57//57 56//56 55//55 
f 33//33 53//53 188//188 
f 33//33 32//32 53//53 
f 32//32 186//186 197//197 
f 31//31 27//27 49//49 
f 31//31 28//28 27//27 
f 41//41 22//22 21//21 
f 41//41 21//21 37//37 
f 35//35 37//37 21//21 
f 78//78 80//80 79//79 
f 81//81 79//79 80//80 
f 81//81 82//82 79//79 
f 82//82 81//81 83//83 
f 84//84 79//79 82//82 
f 85//85 79//79 84//84 
f 86//86 79//79 85//85 
f 78//78 79//79 86//86 
f 85//85 87//87 86//86 
f 88//88 89//89 85//85 
f 90//90 91//91 88//88 
f 90//90 85//85 84//84 
f 88//88 85//85 90//90 
f 92//92 94//94 93//93 
f 239//239 236//236 95//95 
f 96//96 95//95 236//236 
f 96//96 97//97 95//95 
f 97//97 96//96 98//98 
f 96//96 99//99 98//98 
f 99//99 96//96 100//100 
f 236//236 100//100 96//96 
f 237//237 101//101 241//241 
f 237//237 102//102 101//101 
f 92//92 93//93 242//242 
f 242//242 93//93 103//103 
f 238//238 104//104 243//243 
f 238//238 105//105 104//104 
f 106//106 105//105 238//238 
f 107//107 105//105 106//106 
f 107//107 108//108 105//105 
f 245//245 109//109 247//247 
f 245//245 110//110 109//109 
f 248//248 246//246 111//111 
f 244//244 111//111 246//246 
f 111//111 244//244 97//97 
f 239//239 97//97 244//244 
f 239//239 95//95 97//97 
f 106//106 238//238 240//240 
f 97//97 98//98 111//111 
f 112//112 111//111 98//98 
f 111//111 112//112 248//248 
f 248//248 112//112 113//113 
f 114//114 113//113 112//112 
f 113//113 114//114 115//115 
f 114//114 116//116 115//115 
f 114//114 117//117 116//116 
f 118//118 117//117 114//114 
f 118//118 119//119 117//117 
f 99//99 119//119 118//118 
f 119//119 99//99 120//120 
f 100//100 120//120 99//99 
f 241//241 121//121 253//253 
f 241//241 101//101 121//121 
f 121//121 101//101 122//122 
f 101//101 123//123 122//122 
f 101//101 102//102 123//123 
f 242//242 103//103 256//256 
f 256//256 103//103 124//124 
f 243//243 125//125 257//257 
f 243//243 104//104 125//125 
f 126//126 125//125 104//104 
f 126//126 127//127 125//125 
f 258//258 128//128 259//259 
f 258//258 129//129 128//128 
f 109//109 129//129 258//258 
f 130//130 129//129 109//109 
f 130//130 131//131 129//129 
f 130//130 132//132 131//131 
f 130//130 133//133 132//132 
f 249//249 133//133 130//130 
f 249//249 250//250 133//133 
f 250//250 134//134 133//133 
f 250//250 135//135 134//134 
f 261//261 115//115 116//116 
f 261//261 116//116 136//136 
f 116//116 117//117 136//136 
f 137//137 136//136 117//117 
f 263//263 264//264 138//138 
f 265//265 139//139 266//266 
f 265//265 251//251 139//139 
f 119//119 137//137 117//117 
f 254//254 267//267 252//252 
f 254//254 255//255 267//267 
f 267//267 255//255 140//140 
f 121//121 122//122 268//268 
f 268//268 122//122 141//141 
f 122//122 142//142 141//141 
f 122//122 123//123 142//142 
f 256//256 124//124 269//269 
f 269//269 124//124 218//218 
f 257//257 220//220 219//219 
f 257//257 125//125 220//220 
f 127//127 220//220 125//125 
f 127//127 222//222 220//220 
f 259//259 221//221 223//223 
f 259//259 128//128 221//221 
f 128//128 224//224 221//221 
f 128//128 143//143 224//224 
f 129//129 143//143 128//128 
f 129//129 131//131 143//143 
f 131//131 144//144 143//143 
f 131//131 132//132 144//144 
f 132//132 145//145 144//144 
f 132//132 146//146 145//145 
f 134//134 146//146 132//132 
f 260//260 147//147 271//271 
f 260//260 148//148 147//147 
f 262//262 148//148 260//260 
f 262//262 263//263 148//148 
f 263//263 138//138 148//148 
f 148//148 138//138 149//149 
f 266//266 150//150 272//272 
f 266//266 139//139 150//150 
f 267//267 140//140 273//273 
f 273//273 140//140 151//151 
f 268//268 141//141 274//274 
f 274//274 141//141 227//227 
f 141//141 216//216 227//227 
f 141//141 142//142 216//216 
f 269//269 218//218 217//217 
f 152//152 228//228 225//225 
f 152//152 151//151 228//228 
f 273//273 151//151 152//152 
f 272//272 150//150 275//275 
f 272//272 275//275 153//153 
f 153//153 275//275 226//226 
f 153//153 226//226 231//231 
f 154//154 232//232 230//230 
f 154//154 276//276 232//232 
f 147//147 276//276 154//154 
f 147//147 149//149 276//276 
f 148//148 149//149 147//147 
f 271//271 147//147 154//154 
f 271//271 154//154 270//270 
f 270//270 154//154 230//230 
f 270//270 230//230 234//234 
f 144//144 235//235 233//233 
f 144//144 145//145 235//235 
f 143//143 144//144 233//233 
f 143//143 233//233 224//224 
f 274//274 227//227 229//229 
f 134//134 132//132 133//133 
f 110//110 249//249 130//130 
f 110//110 130//130 109//109 
f 109//109 258//258 247//247 
f 108//108 126//126 104//104 
f 108//108 104//104 105//105 
f 118//118 98//98 99//99 
f 118//118 114//114 98//98 
f 112//112 98//98 114//114 
